<svg width="138" height="25" viewBox="0 0 138 25" fill="none" xmlns="http://www.w3.org/2000/svg">
<g id="Capa_1" clip-path="url(#clip0_446_239)">
<path id="Vector" d="M53.4152 23.3574L136.795 23.3574V0.769186L53.4152 0.769186V23.3574Z" fill="#2B2D2A"/>
<path id="Vector_2" d="M53.4158 0.767578H1.2666V23.3558H53.4158V0.767578Z" fill="#5C95D9"/>
<g id="Group">
<path id="Vector_3" d="M16.7761 12.2329C16.7761 12.8837 16.6632 13.4866 16.4387 14.0357C16.2143 14.5863 15.8966 15.0635 15.4886 15.4659C15.0792 15.8682 14.5879 16.1816 14.0133 16.4075C13.4387 16.6334 12.7992 16.7449 12.0976 16.7449H8.59497V7.72656H12.0976C12.7992 7.72656 13.4373 7.84092 14.0133 8.0668C14.5893 8.29268 15.0806 8.6075 15.4886 9.00844C15.8966 9.40797 16.2143 9.88374 16.4387 10.4343C16.6632 10.9849 16.7761 11.5849 16.7761 12.2329ZM14.6345 12.2329C14.6345 11.7868 14.5766 11.3844 14.4609 11.0259C14.3451 10.6673 14.1785 10.3623 13.9625 10.1139C13.7465 9.86539 13.4811 9.67197 13.1677 9.53644C12.8543 9.40374 12.4985 9.33597 12.0976 9.33597H10.6999V15.1341H12.0976C12.4985 15.1341 12.8557 15.0677 13.1677 14.9322C13.4811 14.7981 13.7465 14.6061 13.9625 14.3562C14.1785 14.1063 14.3451 13.8028 14.4609 13.4442C14.5766 13.0856 14.6345 12.6819 14.6345 12.2329Z" fill="white"/>
<path id="Vector_4" d="M22.6265 13.1098C22.7027 13.2792 22.7762 13.4529 22.8467 13.6294C22.9159 13.4487 22.9907 13.2722 23.0698 13.1C23.1475 12.9291 23.2279 12.7625 23.3112 12.6016L25.6251 8.04301C25.666 7.96395 25.7098 7.90325 25.7522 7.86089C25.7959 7.81713 25.8439 7.78466 25.8976 7.76489C25.9512 7.74513 26.0119 7.73383 26.0797 7.73383C26.1475 7.73383 26.2265 7.73383 26.3183 7.73383H27.915V16.7437H26.0712V11.5569C26.0712 11.3056 26.0839 11.0331 26.1079 10.7395L23.7192 15.3743C23.6458 15.5197 23.5442 15.6284 23.4199 15.7018C23.2943 15.7767 23.1503 15.8134 22.9893 15.8134H22.7042C22.5432 15.8134 22.4006 15.7767 22.2736 15.7018C22.1479 15.627 22.0477 15.5183 21.9743 15.3743L19.5729 10.7324C19.5884 10.8778 19.6011 11.0204 19.6096 11.163C19.6166 11.3056 19.6209 11.4369 19.6209 11.5555V16.7409H17.7771V7.73242H19.3738C19.4642 7.73242 19.5446 7.73242 19.6124 7.73242C19.6802 7.73242 19.7409 7.7423 19.7945 7.76348C19.8482 7.78466 19.8962 7.81713 19.9399 7.85948C19.9837 7.90183 20.026 7.96395 20.067 8.0416L22.3879 12.62C22.4712 12.7767 22.5503 12.9404 22.6265 13.1098Z" fill="white"/>
<path id="Vector_5" d="M35.458 14.411C35.5074 14.411 35.5569 14.4195 35.6063 14.4393C35.6557 14.4576 35.7037 14.4901 35.7489 14.5353L36.5776 15.4077C36.2147 15.8821 35.7587 16.2393 35.2124 16.4807C34.666 16.7221 34.0194 16.8435 33.2726 16.8435C32.5879 16.8435 31.9738 16.7263 31.4317 16.4934C30.8896 16.2604 30.4293 15.9386 30.051 15.5277C29.674 15.1169 29.3832 14.6298 29.1813 14.0666C28.9794 13.5033 28.8806 12.892 28.8806 12.2327C28.8806 11.5593 28.9964 10.9423 29.2279 10.379C29.4594 9.81573 29.7813 9.33008 30.1964 8.92208C30.61 8.51267 31.107 8.19644 31.6844 7.96914C32.2618 7.74185 32.8985 7.62891 33.5959 7.62891C33.9333 7.62891 34.2524 7.65855 34.5517 7.71785C34.851 7.77714 35.1305 7.86044 35.3903 7.96491C35.65 8.06938 35.89 8.19644 36.1089 8.34185C36.3277 8.48867 36.5211 8.65102 36.6905 8.82749L35.9846 9.77479C35.9394 9.83267 35.8858 9.88491 35.8237 9.93291C35.7616 9.97949 35.6754 10.0035 35.5639 10.0035C35.4891 10.0035 35.4185 9.98655 35.3536 9.95408C35.2886 9.92161 35.218 9.88067 35.1432 9.83408C35.0684 9.78749 34.9879 9.73526 34.899 9.6802C34.8114 9.62373 34.7056 9.57291 34.5841 9.52491C34.4627 9.47691 34.3201 9.43738 34.1564 9.40491C33.994 9.37244 33.8034 9.35549 33.5846 9.35549C33.2049 9.35549 32.8576 9.42326 32.5456 9.55738C32.2321 9.69149 31.9625 9.88349 31.738 10.1334C31.5136 10.3833 31.3385 10.6854 31.2114 11.0397C31.0844 11.3941 31.0223 11.7922 31.0223 12.2341C31.0223 12.6957 31.0844 13.1066 31.2114 13.4651C31.3385 13.8237 31.5079 14.1258 31.7253 14.3715C31.9427 14.6171 32.1954 14.8035 32.4834 14.932C32.7729 15.059 33.082 15.124 33.411 15.124C33.6016 15.124 33.7738 15.1155 33.9319 15.0957C34.0886 15.0774 34.234 15.0449 34.3681 14.9997C34.5023 14.9546 34.6307 14.8953 34.7521 14.8233C34.8736 14.7513 34.9964 14.6609 35.1206 14.5536C35.17 14.5127 35.2237 14.4788 35.2816 14.452C35.3366 14.4237 35.3959 14.411 35.458 14.411Z" fill="white"/>
<path id="Vector_6" d="M45.9219 16.7435H44.3012C44.1205 16.7435 43.9709 16.7012 43.8523 16.6164C43.7351 16.5317 43.6532 16.423 43.6081 16.2917L43.0758 14.719H39.6467L39.1144 16.2917C39.0735 16.4075 38.993 16.5106 38.873 16.6037C38.7544 16.6969 38.6076 16.7435 38.4339 16.7435H36.8005L40.2904 7.72656H42.4321L45.9219 16.7435ZM40.1309 13.2974H42.5944L41.7657 10.8282C41.7121 10.6715 41.6485 10.4866 41.5765 10.2734C41.5045 10.0616 41.4325 9.8315 41.3634 9.58303C41.297 9.83574 41.2292 10.0687 41.1587 10.2833C41.0881 10.4979 41.0217 10.6828 40.961 10.8409L40.1309 13.2974Z" fill="white"/>
</g>
<g id="Group_2">
<path id="Vector_7" d="M62.6599 13.7294V16.7435H60.5676V7.72656H63.7483C64.3836 7.72656 64.9286 7.8028 65.3846 7.95244C65.8406 8.10209 66.2161 8.30962 66.5112 8.57362C66.8062 8.83762 67.0236 9.14962 67.1634 9.50821C67.3032 9.8668 67.3737 10.255 67.3737 10.6715C67.3737 11.1219 67.3017 11.5341 67.1577 11.9096C67.0123 12.2852 66.7921 12.607 66.4956 12.8753C66.1992 13.1435 65.8222 13.3524 65.3662 13.5035C64.9102 13.6546 64.3709 13.7294 63.7483 13.7294H62.6599ZM62.6599 12.151H63.7483C64.2933 12.151 64.6843 12.0212 64.9243 11.7614C65.1643 11.5016 65.2829 11.1388 65.2829 10.6729C65.2829 10.4668 65.2519 10.279 65.1897 10.1096C65.1276 9.94021 65.0345 9.7948 64.9088 9.67339C64.7832 9.55197 64.6236 9.45739 64.433 9.39103C64.241 9.32468 64.0123 9.29221 63.7497 9.29221H62.6613L62.6599 12.151Z" fill="white"/>
<path id="Vector_8" d="M70.5559 13.4075V16.7435H68.4636V7.72656H71.3973C72.0495 7.72656 72.6043 7.79433 73.066 7.92845C73.5262 8.06256 73.9017 8.24892 74.1926 8.4875C74.4834 8.7275 74.6937 9.00986 74.8264 9.33597C74.9577 9.66209 75.0241 10.0164 75.0241 10.4004C75.0241 10.6941 74.9846 10.9694 74.9069 11.2292C74.8279 11.4889 74.7121 11.7289 74.5568 11.9506C74.4029 12.1708 74.2123 12.3684 73.9879 12.5407C73.7634 12.7143 73.505 12.8569 73.2114 12.9684C73.3512 13.039 73.4824 13.1252 73.6039 13.2282C73.7253 13.3313 73.8312 13.4569 73.9229 13.6066L75.8415 16.7435H73.9483C73.5968 16.7435 73.3455 16.6122 73.193 16.3468L71.6937 13.7294C71.6288 13.6136 71.5497 13.5317 71.4622 13.4823C71.3733 13.4329 71.249 13.4075 71.0881 13.4075H70.5559ZM70.5559 11.9661H71.3973C71.6824 11.9661 71.9253 11.9294 72.1243 11.8574C72.3248 11.7854 72.4886 11.6852 72.617 11.5567C72.7441 11.4296 72.8373 11.28 72.8952 11.1077C72.953 10.9369 72.9827 10.752 72.9827 10.5543C72.9827 10.1576 72.8528 9.84844 72.5959 9.62539C72.3375 9.40233 71.938 9.2908 71.3973 9.2908H70.5559V11.9661Z" fill="white"/>
<path id="Vector_9" d="M85.2835 12.2327C85.2835 12.8835 85.1706 13.4906 84.9461 14.0524C84.7216 14.6143 84.4054 15.1014 83.996 15.5164C83.588 15.9315 83.0953 16.2562 82.5207 16.4906C81.9461 16.7249 81.3066 16.8435 80.6063 16.8435C79.9047 16.8435 79.2652 16.7263 78.6877 16.4906C78.1103 16.2548 77.6162 15.9315 77.2054 15.5164C76.7946 15.1028 76.4769 14.6143 76.2525 14.0524C76.028 13.4906 75.915 12.8849 75.915 12.2327C75.915 11.5804 76.028 10.9734 76.2525 10.4129C76.4769 9.85244 76.7946 9.36538 77.2054 8.95314C77.6162 8.54091 78.1103 8.2162 78.6877 7.98185C79.2652 7.74749 79.9047 7.62891 80.6063 7.62891C81.308 7.62891 81.9461 7.74749 82.5207 7.98467C83.0953 8.22185 83.588 8.54655 83.996 8.95879C84.4054 9.37102 84.7216 9.85808 84.9461 10.4186C85.1706 10.979 85.2835 11.5847 85.2835 12.2327ZM83.1419 12.2327C83.1419 11.7866 83.084 11.3856 82.9682 11.0284C82.8539 10.6713 82.6873 10.3691 82.4713 10.1221C82.2553 9.87502 81.9899 9.68444 81.6765 9.55314C81.363 9.42044 81.0059 9.35408 80.6063 9.35408C80.2012 9.35408 79.8412 9.42044 79.5263 9.55314C79.2101 9.68444 78.9447 9.87502 78.7287 10.1221C78.5127 10.3706 78.3461 10.6727 78.2303 11.0298C78.1146 11.3856 78.0567 11.788 78.0567 12.2341C78.0567 12.683 78.1146 13.0868 78.2303 13.444C78.3461 13.7997 78.5127 14.1033 78.7287 14.3503C78.9447 14.5974 79.2115 14.7866 79.5263 14.9164C79.8426 15.0463 80.2026 15.1113 80.6063 15.1113C81.0059 15.1113 81.363 15.0463 81.6765 14.9164C81.9899 14.7866 82.2553 14.5974 82.4713 14.3503C82.6887 14.1033 82.8539 13.7997 82.9696 13.444C83.084 13.0854 83.1419 12.6816 83.1419 12.2327Z" fill="white"/>
<path id="Vector_10" d="M92.4623 7.72656V9.38539H89.9254V16.7435H87.8345V9.38539H85.2976V7.72656H92.4623Z" fill="white"/>
<path id="Vector_11" d="M99.1328 7.72656V9.33597H95.4326V11.4409H98.266V12.9882H95.4326V15.1355H99.1328V16.7449H93.3276V7.72656H99.1328Z" fill="white"/>
<path id="Vector_12" d="M106.379 14.411C106.429 14.411 106.478 14.4195 106.528 14.4393C106.577 14.4576 106.625 14.4901 106.67 14.5353L107.499 15.4077C107.136 15.8821 106.68 16.2393 106.134 16.4807C105.587 16.7221 104.941 16.8435 104.194 16.8435C103.509 16.8435 102.895 16.7263 102.353 16.4934C101.811 16.2604 101.351 15.9386 100.972 15.5277C100.595 15.1169 100.304 14.6298 100.103 14.0666C99.9007 13.5033 99.7991 12.892 99.7991 12.2327C99.7991 11.5593 99.9148 10.9423 100.146 10.379C100.378 9.81573 100.7 9.33008 101.115 8.92208C101.528 8.51267 102.025 8.19644 102.603 7.96914C103.18 7.74185 103.817 7.62891 104.514 7.62891C104.852 7.62891 105.171 7.65855 105.47 7.71785C105.769 7.77714 106.049 7.86044 106.309 7.96491C106.568 8.06938 106.808 8.19644 107.027 8.34185C107.246 8.48867 107.44 8.65102 107.609 8.82749L106.903 9.77479C106.858 9.83267 106.804 9.88491 106.742 9.93291C106.68 9.97949 106.594 10.0035 106.482 10.0035C106.408 10.0035 106.337 9.98655 106.272 9.95408C106.207 9.92161 106.136 9.88067 106.062 9.83408C105.987 9.78749 105.906 9.73526 105.817 9.6802C105.73 9.62373 105.624 9.57291 105.503 9.52491C105.381 9.47691 105.239 9.43738 105.075 9.40491C104.912 9.37244 104.722 9.35549 104.503 9.35549C104.123 9.35549 103.776 9.42326 103.464 9.55738C103.151 9.69149 102.881 9.88349 102.656 10.1334C102.432 10.3833 102.257 10.6854 102.13 11.0397C102.003 11.3941 101.941 11.7922 101.941 12.2341C101.941 12.6957 102.003 13.1066 102.13 13.4651C102.257 13.8237 102.426 14.1258 102.644 14.3715C102.861 14.6171 103.114 14.8035 103.402 14.932C103.691 15.059 104 15.124 104.329 15.124C104.52 15.124 104.692 15.1155 104.85 15.0957C105.007 15.0774 105.152 15.0449 105.287 14.9997C105.421 14.9546 105.549 14.8953 105.671 14.8233C105.792 14.7513 105.915 14.6609 106.039 14.5536C106.088 14.5127 106.142 14.4788 106.2 14.452C106.258 14.4237 106.317 14.411 106.379 14.411Z" fill="white"/>
<path id="Vector_13" d="M115 7.72656V9.38539H112.463V16.7435H110.372V9.38539H107.835V7.72656H115Z" fill="white"/>
<path id="Vector_14" d="M121.67 7.72656V9.33597H117.97V11.4409H120.803V12.9882H117.97V15.1355H121.67V16.7449H115.865V7.72656H121.67Z" fill="white"/>
<path id="Vector_15" d="M131.039 12.2329C131.039 12.8837 130.926 13.4866 130.701 14.0357C130.477 14.5863 130.159 15.0635 129.751 15.4659C129.342 15.8682 128.85 16.1816 128.276 16.4075C127.701 16.6334 127.062 16.7449 126.36 16.7449H122.857V7.72656H126.36C127.062 7.72656 127.7 7.84092 128.276 8.0668C128.852 8.29268 129.343 8.6075 129.751 9.00844C130.159 9.40797 130.477 9.88374 130.701 10.4343C130.926 10.9849 131.039 11.5849 131.039 12.2329ZM128.898 12.2329C128.898 11.7868 128.84 11.3844 128.725 11.0259C128.609 10.6673 128.442 10.3623 128.226 10.1139C128.01 9.86539 127.745 9.67339 127.432 9.53786C127.118 9.40374 126.761 9.33597 126.361 9.33597H124.964V15.1341H126.361C126.762 15.1341 127.12 15.0677 127.432 14.9322C127.745 14.7981 128.01 14.6061 128.226 14.3562C128.442 14.1063 128.609 13.8028 128.725 13.4442C128.84 13.0856 128.898 12.6819 128.898 12.2329Z" fill="white"/>
</g>
</g>
<defs>
<clipPath id="clip0_446_239">
<rect width="136.941" height="24" fill="white" transform="translate(0.529297 0.273438)"/>
</clipPath>
</defs>
</svg>
