<svg width="37" height="37" viewBox="0 0 37 37" fill="none" xmlns="http://www.w3.org/2000/svg">
<g id="Frame" clip-path="url(#clip0_444_232)">
<path id="Vector" d="M18.4705 36.2734C8.54143 36.2734 0.470459 28.2025 0.470459 18.2734C0.470459 8.34441 8.54143 0.273438 18.4705 0.273438C28.3995 0.273438 36.4705 8.34441 36.4705 18.2734C36.4705 28.2025 28.3995 36.2734 18.4705 36.2734ZM18.4705 1.43473C9.18014 1.43473 1.63175 8.98311 1.63175 18.2734C1.63175 27.5638 9.18014 35.1121 18.4705 35.1121C27.7608 35.1121 35.3092 27.5638 35.3092 18.2734C35.3092 8.98311 27.7608 1.43473 18.4705 1.43473Z" fill="white"/>
<path id="Vector_2" d="M11.8512 10.7241V24.7757H9.64472V13.4531C9.23827 13.7434 8.83182 13.9757 8.3673 14.208C7.90279 14.3821 7.38021 14.6144 6.79956 14.7305V12.8144C7.14795 12.6983 7.5544 12.5821 7.84472 12.408C8.19311 12.2918 8.5415 12.1176 8.88988 11.9434C9.23827 11.7692 9.58666 11.595 9.87698 11.3628L10.9221 10.666H11.8512V10.7241ZM14.6963 20.9434C14.6963 20.537 14.7544 20.1886 14.8705 19.7821C14.9867 19.4338 15.1028 19.0854 15.335 18.737C15.5092 18.4467 15.7996 18.1563 16.0899 17.866C16.3802 17.6338 16.7286 17.4015 17.135 17.2854C16.5544 16.937 16.0899 16.5305 15.7415 16.008C15.3931 15.4854 15.2189 14.9047 15.2189 14.266C15.2189 13.7434 15.335 13.2789 15.5092 12.8725C15.7415 12.466 16.0318 12.0596 16.3802 11.7692C16.7286 11.4789 17.1931 11.1886 17.6576 11.0144C18.1221 10.8402 18.7028 10.7241 19.2834 10.7241C19.8641 10.7241 20.4447 10.8402 20.9092 11.0144C21.4318 11.1886 21.8383 11.4209 22.1867 11.7692C22.535 12.0596 22.8254 12.466 23.0576 12.8725C23.2899 13.2789 23.3479 13.7434 23.3479 14.266C23.3479 14.9047 23.1738 15.4854 22.8254 16.008C22.477 16.5305 22.0125 16.937 21.4318 17.2854C21.8383 17.4596 22.1867 17.6338 22.477 17.866C22.7673 18.0983 23.0576 18.3886 23.2318 18.6789C23.4641 18.9692 23.5802 19.3176 23.6963 19.7241C23.8125 20.0725 23.8705 20.4789 23.8705 20.8854C23.8705 21.466 23.7544 22.0467 23.5221 22.5112C23.2899 23.0338 22.9996 23.4402 22.5931 23.7886C22.1867 24.137 21.7221 24.4273 21.1415 24.6015C20.5609 24.7757 19.9802 24.8918 19.2834 24.8918C18.5867 24.8918 18.006 24.7757 17.4254 24.6015C16.8447 24.4273 16.3802 24.137 15.9738 23.7886C15.5673 23.4402 15.277 23.0338 15.0447 22.5112C14.8125 22.0467 14.6963 21.5241 14.6963 20.9434ZM16.9028 20.7112C16.9028 21.1176 16.9609 21.466 17.077 21.7563C17.1931 22.0467 17.3673 22.337 17.5415 22.5692C17.7738 22.8015 18.006 22.9757 18.2963 23.0918C18.5867 23.208 18.935 23.266 19.2834 23.266C19.6318 23.266 19.9802 23.208 20.2705 23.0918C20.5609 22.9757 20.7931 22.8015 21.0254 22.5692C21.2576 22.337 21.4318 22.1047 21.5479 21.7563C21.6641 21.466 21.7221 21.1176 21.7221 20.7112C21.7221 20.3628 21.6641 20.0144 21.5479 19.7241C21.4318 19.4338 21.2576 19.1434 21.0834 18.9112C20.8512 18.6789 20.6189 18.5047 20.3286 18.3886C20.0383 18.2725 19.6899 18.2144 19.3415 18.2144C18.9931 18.2144 18.7028 18.2725 18.3544 18.3886C18.006 18.5047 17.7738 18.6789 17.5996 18.9112C17.3673 19.1434 17.1931 19.4338 17.077 19.7241C16.9609 20.0144 16.9028 20.3628 16.9028 20.7112ZM17.3673 14.4983C17.3673 14.7886 17.4254 15.0789 17.5415 15.3112C17.6576 15.5434 17.7738 15.7757 17.9479 15.9499C18.1221 16.1241 18.2963 16.2983 18.5286 16.3563C18.7609 16.4725 18.9931 16.5305 19.2834 16.5305C19.5738 16.5305 19.806 16.4725 20.0383 16.3563C20.2705 16.2402 20.5028 16.1241 20.677 15.9499C20.8512 15.7757 20.9673 15.5434 21.0834 15.3112C21.1996 15.0789 21.2576 14.7886 21.2576 14.4983C21.2576 14.208 21.1996 13.9176 21.0834 13.6854C20.9673 13.4531 20.8512 13.2209 20.677 13.0467C20.5028 12.8725 20.3286 12.7563 20.0383 12.6402C19.806 12.5241 19.5738 12.466 19.2834 12.466C18.9931 12.466 18.7609 12.5241 18.4705 12.6402C18.2383 12.7563 18.006 12.8725 17.8899 13.1047C17.7157 13.2789 17.5996 13.5112 17.4834 13.7434C17.3673 13.9757 17.3673 14.266 17.3673 14.4983ZM30.9544 22.1047H28.8641V24.195H27.9931V22.1047H25.9028V21.2338H27.9931V19.1434H28.8641V21.2338H30.9544V22.1047Z" fill="white"/>
</g>
<defs>
<clipPath id="clip0_444_232">
<rect width="36" height="36" fill="white" transform="translate(0.470459 0.273438)"/>
</clipPath>
</defs>
</svg>
