<svg width="98" height="35" viewBox="0 0 98 35" fill="none" xmlns="http://www.w3.org/2000/svg">
<g id="lipi" clip-path="url(#clip0_432_272)">
<g id="XMLID_13_">
<path id="XMLID_65_" d="M2.02043 28.4082H2.71521L2.06454 31.0758C1.96529 31.4677 1.98734 31.7726 2.11968 31.9686C2.25202 32.1646 2.49464 32.2626 2.85858 32.2626C3.21148 32.2626 3.50925 32.1646 3.74084 31.9686C3.97243 31.7726 4.12683 31.4677 4.22608 31.0758L4.87675 28.4082H5.58256L4.92087 31.1411C4.7775 31.729 4.52385 32.1755 4.14889 32.4694C3.78495 32.7634 3.29971 32.9158 2.70418 32.9158C2.10865 32.9158 1.70061 32.7743 1.48004 32.4803C1.25948 32.1863 1.21536 31.7399 1.35873 31.152L2.02043 28.4082Z" fill="white"/>
<path id="XMLID_63_" d="M5.4834 32.7965L6.58623 28.2344L8.6816 30.9128C8.73674 30.989 8.79188 31.0653 8.84702 31.1524C8.90216 31.2395 8.95731 31.3375 9.02348 31.4463L9.76237 28.4086H10.413L9.31021 32.9598L7.17073 30.2269L7.0053 29.9982C6.95016 29.9111 6.90605 29.8349 6.87296 29.7369L6.13407 32.7856H5.4834V32.7965Z" fill="white"/>
<path id="XMLID_61_" d="M10.3579 32.7961L11.4166 28.4082H12.1224L11.0637 32.7961H10.3579Z" fill="white"/>
<path id="XMLID_59_" d="M12.0671 32.7961L13.1259 28.4082H15.541L15.3977 29.0179H13.6883L13.4236 30.1067H15.133L14.9786 30.7273H13.2692L12.7729 32.7852H12.0671V32.7961Z" fill="white"/>
<path id="XMLID_57_" d="M15.2654 32.7961L16.3241 28.4082H17.0299L15.9712 32.7961H15.2654Z" fill="white"/>
<path id="XMLID_55_" d="M16.9746 32.7961L18.0333 28.4082H20.4485L20.3051 29.0179H18.5958L18.3311 30.1176H20.0405L19.8861 30.7382H18.1767L17.8348 32.1537H19.5442L19.3898 32.7961H16.9746Z" fill="white"/>
<path id="XMLID_52_" d="M20.2061 32.7961L21.2648 28.4082H22.2132C22.8308 28.4082 23.2609 28.4409 23.4925 28.5062C23.7241 28.5715 23.9226 28.6695 24.077 28.8219C24.2755 29.0179 24.4078 29.2684 24.463 29.5623C24.5181 29.8672 24.4961 30.2156 24.4078 30.5967C24.3086 30.9887 24.1652 31.3262 23.9667 31.6311C23.7682 31.9359 23.5145 32.1755 23.2168 32.3714C22.9962 32.5239 22.7536 32.6219 22.4889 32.6872C22.2353 32.7525 21.8493 32.7852 21.342 32.7852H20.2061V32.7961ZM21.0663 32.1428H21.6618C21.9816 32.1428 22.2353 32.121 22.4117 32.0775C22.5882 32.0339 22.7426 31.9577 22.8859 31.8597C23.0844 31.7182 23.2499 31.5439 23.3822 31.3262C23.5145 31.1193 23.6138 30.8689 23.68 30.5858C23.7461 30.3027 23.7682 30.0632 23.7351 29.8563C23.702 29.6494 23.6248 29.4643 23.4925 29.3228C23.3932 29.2139 23.2719 29.1486 23.1065 29.105C22.9411 29.0615 22.6874 29.0397 22.3235 29.0397H21.8162L21.0663 32.1428Z" fill="white"/>
<path id="XMLID_49_" d="M27.6501 30.8253L27.1759 32.7961H26.5142L27.5729 28.4082H28.6426C28.9624 28.4082 29.183 28.43 29.3264 28.4626C29.4697 28.4953 29.58 28.5497 29.6682 28.6368C29.7785 28.7348 29.8557 28.8764 29.8888 29.0506C29.9219 29.2248 29.9109 29.4099 29.8668 29.6168C29.8116 29.8236 29.7344 30.0196 29.6131 30.1938C29.4918 30.368 29.3484 30.5096 29.194 30.6076C29.0617 30.6838 28.9183 30.7491 28.7639 30.7818C28.6095 30.8145 28.3669 30.8362 28.0581 30.8362H27.6501V30.8253ZM27.8376 30.2374H28.014C28.4 30.2374 28.6757 30.1938 28.8301 30.1067C28.9845 30.0196 29.0837 29.8672 29.1389 29.6494C29.194 29.4208 29.1609 29.2466 29.0507 29.1595C28.9294 29.0615 28.6867 29.0179 28.3228 29.0179H28.1463L27.8376 30.2374Z" fill="white"/>
<path id="XMLID_46_" d="M32.26 32.7965L32.0394 31.6641H30.319L29.547 32.7965H28.8081L32.0063 28.2344L32.9989 32.7965H32.26ZM30.7381 31.0653H31.9401L31.7416 30.0636C31.7306 29.9982 31.7196 29.922 31.7196 29.8458C31.7085 29.7587 31.7085 29.6716 31.7085 29.5736C31.6644 29.6716 31.6203 29.7587 31.5652 29.8458C31.5211 29.9329 31.4769 30.0091 31.4328 30.0744L30.7381 31.0653Z" fill="white"/>
<path id="XMLID_44_" d="M34.0132 32.7969L34.4985 30.7935L33.6162 28.4199H34.3551L34.9065 29.9116C34.9175 29.9551 34.9286 29.9987 34.9506 30.064C34.9727 30.1293 34.9837 30.1947 35.0058 30.26L35.1381 30.064C35.1822 29.9987 35.2263 29.9442 35.2705 29.8898L36.5608 28.4199H37.2666L35.2043 30.7826L34.719 32.786H34.0132V32.7969Z" fill="white"/>
<path id="XMLID_42_" d="M40.7299 30.6297C40.7299 30.5971 40.7409 30.4991 40.763 30.3466C40.774 30.216 40.785 30.118 40.7961 30.0309C40.7519 30.1289 40.7078 30.2269 40.6527 30.3358C40.5975 30.4338 40.5314 30.5426 40.4542 30.6406L38.7558 32.9815L38.2044 30.5971C38.1823 30.4991 38.1603 30.4011 38.1493 30.314C38.1382 30.2269 38.1272 30.1289 38.1272 30.0418C38.1051 30.1289 38.0721 30.2269 38.039 30.3358C38.0059 30.4338 37.9618 30.5426 37.9066 30.6515L36.9141 32.8073H36.2634L38.3919 28.2344L38.9984 30.9999C39.0095 31.0435 39.0205 31.1197 39.0315 31.2177C39.0426 31.3157 39.0646 31.4463 39.0867 31.5988C39.1639 31.4681 39.2631 31.3157 39.3955 31.1197C39.4285 31.0653 39.4616 31.0326 39.4727 30.9999L41.3916 28.2344L41.3254 32.8073H40.6747L40.7299 30.6297Z" fill="white"/>
<path id="XMLID_40_" d="M41.8987 32.7961L42.9574 28.4082H45.3726L45.2292 29.0179H43.5198L43.2552 30.1176H44.9645L44.8101 30.7382H43.1008L42.7589 32.1537H44.4683L44.3139 32.7961H41.8987Z" fill="white"/>
<path id="XMLID_38_" d="M45.1189 32.7965L46.2217 28.2344L48.3171 30.9128C48.3722 30.989 48.4274 31.0653 48.4825 31.1524C48.5377 31.2395 48.5928 31.3375 48.659 31.4463L49.3979 28.4086H50.0485L48.9457 32.9598L46.8062 30.2269L46.6408 29.9982C46.5857 29.9111 46.5415 29.8349 46.5085 29.7369L45.7696 32.7856H45.1189V32.7965Z" fill="white"/>
<path id="XMLID_36_" d="M52.2983 29.0062L51.383 32.7844H50.6771L51.5925 29.0062H50.4456L50.5889 28.3965H53.5886L53.4452 29.0062H52.2983Z" fill="white"/>
<path id="XMLID_34_" d="M53.0374 31.9145L53.6661 31.6532C53.6771 31.8492 53.7322 32.0016 53.8535 32.0996C53.9748 32.1976 54.1403 32.252 54.3608 32.252C54.5704 32.252 54.7468 32.1976 54.9012 32.0778C55.0556 31.958 55.1549 31.8056 55.199 31.6096C55.2652 31.3483 55.1108 31.1197 54.7358 30.9237C54.6807 30.891 54.6476 30.8692 54.6145 30.8583C54.1954 30.6188 53.9307 30.4119 53.8205 30.2159C53.7102 30.02 53.6881 29.7913 53.7543 29.5191C53.8425 29.1598 54.03 28.8767 54.3278 28.6481C54.6255 28.4303 54.9564 28.3105 55.3534 28.3105C55.6732 28.3105 55.9269 28.3759 56.1143 28.4956C56.3018 28.6154 56.4011 28.8005 56.4342 29.0292L55.8166 29.3122C55.7614 29.1707 55.6953 29.0727 55.607 29.0074C55.5188 28.9421 55.4085 28.9094 55.2762 28.9094C55.0887 28.9094 54.9233 28.9638 54.7909 29.0618C54.6586 29.1598 54.5704 29.2905 54.5263 29.4647C54.4601 29.726 54.6476 29.9764 55.0777 30.2051C55.1108 30.2268 55.1328 30.2377 55.1549 30.2486C55.5298 30.4446 55.7835 30.6406 55.8938 30.8366C56.004 31.0326 56.0261 31.2612 55.9599 31.5552C55.8607 31.9689 55.6511 32.2956 55.3313 32.546C55.0115 32.7855 54.6365 32.9162 54.1954 32.9162C53.8315 32.9162 53.5447 32.8291 53.3462 32.6549C53.1257 32.4807 53.0264 32.2302 53.0374 31.9145Z" fill="white"/>
<path id="XMLID_32_" d="M58.2317 32.7961L59.2904 28.4082H59.9962L58.9375 32.7961H58.2317Z" fill="white"/>
<path id="XMLID_30_" d="M59.9521 32.7965L61.055 28.2344L63.1503 30.9128C63.2055 30.989 63.2606 31.0653 63.3158 31.1524C63.3709 31.2395 63.4261 31.3375 63.4922 31.4463L64.2311 28.4086H64.8818L63.779 32.9598L61.6395 30.2269L61.474 29.9982C61.4189 29.9111 61.3748 29.8349 61.3417 29.7369L60.6028 32.7856H59.9521V32.7965Z" fill="white"/>
<path id="XMLID_28_" d="M67.1316 29.0062L66.2162 32.7844H65.5104L66.4257 29.0062H65.2788L65.4222 28.3965H68.4219L68.2785 29.0062H67.1316Z" fill="white"/>
<path id="XMLID_26_" d="M67.8926 32.7961L68.9513 28.4082H71.3775L71.2341 29.0179H69.5248L69.2601 30.1176H70.9695L70.8151 30.7382H69.1057L68.7638 32.1537H70.4732L70.3188 32.7961H67.8926Z" fill="white"/>
<path id="XMLID_23_" d="M72.2485 30.8245L71.7742 32.7844H71.1125L72.1713 28.3965H73.1528C73.4395 28.3965 73.6601 28.4183 73.8035 28.4509C73.9578 28.4836 74.0792 28.5489 74.1674 28.636C74.2777 28.7449 74.3438 28.8756 74.3769 29.0498C74.41 29.2131 74.399 29.3982 74.3549 29.6051C74.2666 29.9535 74.1233 30.2366 73.9027 30.4325C73.6821 30.6285 73.4064 30.7483 73.0756 30.7918L74.0792 32.7844H73.2851L72.3257 30.8245H72.2485ZM72.4249 30.2692H72.5573C72.9322 30.2692 73.1859 30.2257 73.3292 30.1386C73.4726 30.0515 73.5719 29.899 73.627 29.6704C73.6821 29.4308 73.6601 29.2566 73.5498 29.1586C73.4395 29.0607 73.2079 29.0062 72.855 29.0062H72.7227L72.4249 30.2692Z" fill="white"/>
<path id="XMLID_21_" d="M74.5093 32.7961L75.568 28.4082H77.9832L77.8398 29.0179H76.1304L75.8658 30.1067H77.5751L77.4207 30.7273H75.7114L75.2151 32.7852H74.5093V32.7961Z" fill="white"/>
<path id="XMLID_18_" d="M80.3322 32.7965L80.1117 31.6641H78.3912L77.6193 32.7965H76.8804L80.0786 28.2344L81.0711 32.7965H80.3322ZM78.7993 31.0653H80.0014L79.8029 30.0636C79.7918 29.9982 79.7808 29.922 79.7808 29.8458C79.7698 29.7587 79.7698 29.6716 79.7698 29.5736C79.7257 29.6716 79.6815 29.7587 79.6264 29.8458C79.5823 29.9329 79.5382 30.0091 79.4941 30.0744L78.7993 31.0653Z" fill="white"/>
<path id="XMLID_16_" d="M85.6589 29.4747C85.5045 29.3005 85.317 29.1699 85.1185 29.0937C84.92 29.0065 84.6994 28.963 84.4458 28.963C83.9716 28.963 83.5525 29.1154 83.1775 29.4203C82.8026 29.7252 82.5599 30.128 82.4386 30.618C82.3283 31.0862 82.3725 31.4781 82.593 31.7939C82.8026 32.0987 83.1334 32.2512 83.5745 32.2512C83.8282 32.2512 84.0818 32.2076 84.3355 32.1096C84.5891 32.0225 84.8428 31.881 85.1075 31.6959L84.909 32.5016C84.6884 32.6431 84.4568 32.7411 84.2142 32.8065C83.9716 32.8718 83.7289 32.9045 83.4643 32.9045C83.1334 32.9045 82.8356 32.85 82.582 32.7411C82.3283 32.6323 82.1188 32.4689 81.9534 32.2512C81.788 32.0443 81.6887 31.7939 81.6446 31.5108C81.6005 31.2277 81.6115 30.9228 81.6997 30.5962C81.7769 30.2696 81.9093 29.9756 82.0857 29.6925C82.2622 29.4094 82.4938 29.159 82.7584 28.9521C83.0231 28.7343 83.3099 28.571 83.6187 28.4621C83.9274 28.3533 84.2362 28.2988 84.5561 28.2988C84.8097 28.2988 85.0413 28.3315 85.2619 28.4077C85.4714 28.4839 85.6699 28.5928 85.8464 28.7452L85.6589 29.4747Z" fill="white"/>
<path id="XMLID_14_" d="M85.7251 32.7961L86.7838 28.4082H89.199L89.0556 29.0179H87.3463L87.0816 30.1176H88.791L88.6366 30.7382H86.9272L86.5853 32.1537H88.2947L88.1403 32.7961H85.7251Z" fill="white"/>
</g>
<g id="XMLID_6_">
<path id="XMLID_11_" d="M72.8878 24.5879H68.0464L74.7736 0.601562H79.6151L72.8878 24.5879Z" fill="white"/>
<g id="XMLID_9_">
<path id="XMLID_10_" d="M70.3735 1.35196C70.0426 0.894663 69.5243 0.666016 68.8185 0.666016H42.2183L40.9059 5.36964H65.1019L63.6903 10.389H44.3357V10.3781H39.4943L35.48 24.6959H40.3214L43.0123 15.0926H64.7711C65.4548 15.0926 66.0945 14.864 66.69 14.4067C67.2855 13.9494 67.6826 13.3832 67.87 12.7082L70.5609 3.10493C70.7705 2.38632 70.7043 1.80926 70.3735 1.35196Z" fill="white"/>
</g>
<path id="XMLID_7_" d="M32.6569 23.0844C32.3922 24.0317 31.5099 24.6959 30.5174 24.6959H5.56039C4.87664 24.6959 4.36934 24.4672 4.03849 24.0099C3.70764 23.5526 3.63044 22.9864 3.82895 22.3114L9.91656 0.666016H14.758L9.32103 20.0031H28.6867L34.1236 0.666016H38.965L32.6569 23.0844Z" fill="white"/>
</g>
<g id="XMLID_3_">
<path id="XMLID_5_" d="M81.2256 24.6853L87.9749 0.644531L94.0956 12.6649L81.2256 24.6853Z" fill="#4BF59B"/>
<path id="XMLID_4_" d="M76.9133 24.6853L83.6737 0.644531L89.7944 12.6649L76.9133 24.6853Z" fill="#E97626"/>
</g>
</g>
<defs>
<clipPath id="clip0_432_272">
<rect width="96.3333" height="34" fill="white" transform="translate(0.899902 0.273438)"/>
</clipPath>
</defs>
</svg>
