<svg width="117" height="35" viewBox="0 0 117 35" fill="none" xmlns="http://www.w3.org/2000/svg">
<g id="netbanking" clip-path="url(#clip0_432_308)">
<path id="Vector" d="M45.2203 12.5533L41.1077 6.92888C40.9341 6.69039 40.7817 6.47179 40.6519 6.27438C40.533 6.09468 40.4191 5.91177 40.3101 5.72585H40.2783C40.3128 6.37007 40.3297 7.0151 40.3287 7.66024V12.5533H37.0772V0.896484H40.3949L44.3365 6.24522C44.3856 6.31677 44.4452 6.40025 44.5154 6.49697C44.6571 6.69465 44.7941 6.89568 44.9262 7.09983C44.9885 7.19655 45.0361 7.28398 45.0679 7.3595H45.0998C45.072 7.14772 45.0569 6.93447 45.0546 6.72089V0.896484H48.3062V12.5533H45.2203ZM50.6022 12.5533V0.896484H57.8602V3.6444H54.1133V5.34295H57.6336V8.09086H54.1133V9.80667H58.1291V12.5533H50.6022ZM65.6972 3.6444V12.5533H62.169V3.6444H58.9095V0.896484H68.9976V3.6444H65.6972ZM47.0328 29.7867C47.0328 30.2968 46.9441 30.7698 46.7679 31.2043C46.593 31.6416 46.3173 32.0192 45.9437 32.3398C45.5701 32.6591 45.0905 32.9095 44.5049 33.091C43.9206 33.2725 43.2158 33.364 42.3917 33.364H37.0759V21.7072H42.026C43.5815 21.7072 44.7434 21.943 45.5132 22.4134C46.2816 22.8851 46.6671 23.5899 46.6671 24.528C46.6738 25.0218 46.5122 25.5031 46.2088 25.8927C46.0732 26.069 45.9145 26.2263 45.737 26.3604C45.2762 26.7101 44.7407 26.9482 44.1724 27.056V27.0878C44.6268 27.1421 45.0336 27.2574 45.3873 27.4336C45.7424 27.6098 46.0418 27.8205 46.2856 28.0682C46.5294 28.3147 46.7148 28.5863 46.842 28.8844C46.9692 29.1825 47.0328 29.4832 47.0328 29.7867ZM42.9361 25.1361C42.9361 24.7519 42.785 24.4763 42.4803 24.308C42.1782 24.1398 41.7635 24.0563 41.2375 24.0563H40.587V26.2584H41.6032C41.8033 26.2584 41.9875 26.2305 42.1518 26.1736C42.3069 26.1228 42.4508 26.0427 42.5757 25.9377C42.6903 25.8397 42.7817 25.7176 42.8434 25.58C42.9056 25.4408 42.9371 25.2899 42.9361 25.1375V25.1361ZM43.3018 29.7708C43.3046 29.5294 43.2284 29.2938 43.0845 29.0999C42.9407 28.9061 42.7374 28.7648 42.5055 28.6976C42.3322 28.6419 42.151 28.6146 41.9689 28.6167H40.587V30.9976H41.757C41.9849 30.9976 42.1941 30.9711 42.3836 30.9168C42.5594 30.8694 42.7249 30.7894 42.8712 30.681C43.0115 30.5756 43.1239 30.4376 43.1989 30.2791C43.2739 30.1205 43.3092 29.946 43.3018 29.7708ZM55.894 33.364L55.3813 31.2176H51.902L51.3495 33.364H47.5536L51.568 21.7072H55.9271L59.7059 33.364H55.894ZM53.9185 25.5521C53.8863 25.421 53.8563 25.2894 53.8284 25.1574C53.8019 25.0249 53.7754 24.9003 53.7555 24.7837C53.7356 24.6783 53.7193 24.5722 53.7065 24.4657C53.6932 24.3717 53.688 24.2975 53.6827 24.2431H53.6019C53.5886 24.3518 53.5622 24.5201 53.5171 24.7466C53.4707 24.9745 53.4151 25.2209 53.3502 25.4872L52.5048 28.7214H54.7321L53.9185 25.5521ZM69.2175 33.364L65.1036 27.7383C64.9314 27.4998 64.779 27.2825 64.6479 27.0838C64.5295 26.904 64.4158 26.7211 64.3073 26.5353H64.2756C64.2915 26.8228 64.3046 27.1235 64.3126 27.4375C64.3258 27.7515 64.3259 28.096 64.3259 28.471V33.364H61.0745V21.7072H64.3909L68.3338 27.056L68.5127 27.3077C68.6543 27.505 68.7912 27.7055 68.9233 27.9092C68.9843 28.0073 69.0321 28.0934 69.0652 28.1689H69.0969C69.0692 27.9576 69.0542 27.7448 69.0519 27.5316V21.7072H72.3033V33.364H69.2175ZM81.0439 33.364L78.4602 28.4379L78.378 28.255C78.2858 28.0538 78.2096 27.8455 78.1502 27.6323H78.1105V33.364H74.5981V21.7072H78.1091V27.2507H78.1502C78.2492 26.9724 78.3661 26.7007 78.5 26.4372L80.8253 21.7072H84.9869L81.6786 27.2666L85.3035 33.364H81.0439ZM86.076 33.364V21.7072H89.5871V33.364H86.076ZM100.042 33.364L95.9282 27.7383C95.756 27.4998 95.6036 27.2825 95.4738 27.0838C95.3549 26.9041 95.2408 26.7212 95.1319 26.5353H95.1002C95.1347 27.1795 95.1514 27.8245 95.1505 28.4697V33.364H91.8991V21.7072H95.2153L99.1584 27.056L99.3373 27.3077C99.4789 27.505 99.6158 27.7055 99.7479 27.9092C99.8089 28.0073 99.8567 28.0934 99.8898 28.1689H99.9215C99.8938 27.9576 99.8788 27.7448 99.8765 27.5316V21.7072H103.128V33.364H100.042ZM115.633 32.5995C115.492 32.6803 115.275 32.777 114.983 32.8883C114.689 32.9996 114.346 33.1043 113.95 33.2063C113.554 33.3057 113.119 33.3918 112.645 33.4607C112.171 33.5323 111.679 33.5667 111.17 33.5667C110.13 33.5667 109.211 33.4329 108.414 33.1639C107.618 32.8963 106.95 32.5094 106.411 32.0059C105.867 31.4955 105.448 30.8667 105.187 30.1682C104.911 29.4475 104.772 28.6379 104.772 27.7383C104.772 27.2083 104.829 26.6863 104.944 26.1736C105.056 25.667 105.232 25.1768 105.468 24.7148C105.961 23.7458 106.732 22.9462 107.683 22.4187C108.186 22.1338 108.763 21.9112 109.411 21.7509C110.123 21.5843 110.852 21.5042 111.584 21.5124C111.932 21.5124 112.262 21.5257 112.577 21.5522C113.131 21.5991 113.68 21.6819 114.223 21.8C114.453 21.853 114.655 21.8993 114.828 21.943V25.0076C114.641 24.9228 114.451 24.8442 114.259 24.7718C114.038 24.6894 113.813 24.62 113.584 24.5638C113.307 24.4967 113.026 24.4467 112.743 24.4141C112.385 24.3736 112.026 24.3546 111.666 24.3571C111.227 24.3571 110.817 24.4233 110.434 24.5558C110.052 24.6883 109.718 24.891 109.431 25.1613C109.133 25.448 108.901 25.7962 108.752 26.1815C108.578 26.6395 108.494 27.1266 108.504 27.6164C108.504 28.2179 108.585 28.7161 108.752 29.1123C108.917 29.5084 109.13 29.8251 109.389 30.0636C109.65 30.3021 109.942 30.4703 110.268 30.567C110.593 30.6651 110.916 30.7128 111.235 30.7128C111.435 30.7128 111.615 30.7075 111.776 30.6929C111.935 30.6796 112.051 30.6651 112.12 30.6492V28.9824H109.886V26.3246H115.633V32.5995Z" fill="white"/>
<path id="Vector_2" fill-rule="evenodd" clip-rule="evenodd" d="M1.90175 0.59571C1.68646 0.637572 1.49189 0.751663 1.35023 0.9191C1.20858 1.08654 1.12829 1.2973 1.12267 1.51655C0.947782 5.5258 1.65666 7.82323 3.21213 8.81428C3.98986 9.3098 4.9146 9.3244 5.69234 9.06339C6.46875 8.80238 7.14058 8.27902 7.67585 7.6457C8.2681 6.94614 9.86056 6.31943 11.0411 6.54732C11.632 6.66126 12.1302 6.91301 12.4946 7.43371C12.8576 7.95308 13.12 8.79841 13.0603 10.126C13.039 10.2592 13.0459 10.3954 13.0806 10.5257C13.1152 10.6561 13.1767 10.7777 13.2614 10.8827C13.346 10.9878 13.4519 11.0739 13.5719 11.1354C13.6919 11.197 13.8234 11.2326 13.9581 11.2401C14.0928 11.2476 14.2276 11.2267 14.3537 11.1788C14.4798 11.1308 14.5944 11.057 14.6901 10.9619C14.7859 10.8669 14.8605 10.7528 14.9093 10.627C14.9581 10.5013 14.98 10.3667 14.9735 10.232C15.0464 8.6023 14.7165 7.28398 14.0527 6.33532C13.389 5.38535 12.4244 4.86201 11.4307 4.6699C9.44462 4.28567 7.35913 5.01968 6.18789 6.40556C5.84208 6.81496 5.44198 7.10246 5.08955 7.22038C4.73844 7.33962 4.49867 7.35025 4.23898 7.18464C3.72226 6.85605 2.8729 5.34828 3.03454 1.62257C3.0467 1.47524 3.02478 1.32706 2.9705 1.18956C2.91621 1.05206 2.83111 0.92894 2.72159 0.82966C2.61206 0.73038 2.48107 0.657623 2.33892 0.617059C2.19677 0.576496 2.04718 0.569182 1.90175 0.59571ZM10.4038 12.7123C9.86832 12.7105 9.3377 12.8147 8.84261 13.0188C8.34752 13.223 7.8978 13.523 7.51913 13.9017C7.14046 14.2803 6.84035 14.7301 6.63622 15.2252C6.43209 15.7203 6.32798 16.2509 6.32973 16.7864V18.167H12.7066V12.7123H10.4038ZM14.8318 12.7123V18.167H21.9176V16.7864C21.9193 16.2509 21.8151 15.7203 21.6109 15.2252C21.4068 14.7301 21.1069 14.2803 20.7282 13.9017C20.3495 13.523 19.8996 13.223 19.4046 13.0188C18.9095 12.8147 18.3788 12.7105 17.8433 12.7123H14.8318ZM6.32973 20.2935V29.0778C6.32781 29.6135 6.43185 30.1442 6.6359 30.6394C6.83995 31.1347 7.13996 31.5847 7.51865 31.9635C7.89734 32.3423 8.34711 32.6424 8.84229 32.8467C9.33747 33.0509 9.86821 33.1551 10.4038 33.1533H17.8433C18.3788 33.1551 18.9095 33.0509 19.4046 32.8468C19.8996 32.6427 20.3495 32.3426 20.7282 31.9639C21.1069 31.5853 21.4068 31.1354 21.6109 30.6403C21.8151 30.1453 21.9193 29.6147 21.9176 29.0792V20.2935H6.32973Z" fill="white"/>
</g>
<defs>
<clipPath id="clip0_432_308">
<rect width="115.909" height="34" fill="white" transform="translate(0.233398 0.273438)"/>
</clipPath>
</defs>
</svg>
