<svg width="106" height="35" viewBox="0 0 106 35" fill="none" xmlns="http://www.w3.org/2000/svg">
<g id="paytm" clip-path="url(#clip0_432_321)">
<path id="Vector" d="M82.3177 7.5504C82.7508 7.20391 82.9674 7.03066 83.184 6.85741C86.1941 4.302 90.0489 4.58353 92.626 7.61537C92.8859 7.91856 93.0158 7.94021 93.2757 7.68034C93.4489 7.48544 93.6438 7.33384 93.8171 7.13894C95.8311 5.16824 98.4948 4.58353 100.985 5.68799C103.606 6.85741 105.013 8.91473 105.035 11.795C105.078 18.0103 105.057 24.2039 105.057 30.4192C105.057 32.6281 103.692 34.0141 101.505 34.0141C100.639 34.0141 99.7725 33.9491 98.9062 34.0358C98.0184 34.1224 97.7585 33.8408 97.7585 32.9096C97.8018 26.8459 97.7801 20.7822 97.7801 14.7186C97.7801 14.4587 97.7801 14.2205 97.7801 13.9606C97.7585 12.5529 97.1954 11.9682 95.8527 11.9033C94.64 11.8383 93.7954 12.5746 93.6655 13.809C93.6438 14.0905 93.6655 14.3937 93.6655 14.6752C93.6655 19.916 93.6655 25.1351 93.6655 30.3759C93.6655 32.6714 92.3445 34.0141 90.0489 33.9924C88.8795 33.9708 87.2986 34.5122 86.6273 33.7542C86.0426 33.1045 86.4324 31.567 86.4324 30.4192C86.4324 25.0485 86.4324 19.6561 86.4324 14.2854C86.4324 12.3797 85.198 11.4052 83.5954 12.0549C82.5992 12.4663 82.2744 13.2676 82.2744 14.3071C82.2961 19.3313 82.2744 24.3338 82.2744 29.358C82.2744 29.7479 82.2744 30.1593 82.2744 30.5491C82.2094 32.6498 80.8668 33.9708 78.7878 33.9924C77.9215 34.0141 77.0553 33.9275 76.1891 34.0141C75.2578 34.1007 74.9763 33.8408 74.998 32.8447C75.0413 24.3338 75.0196 15.823 75.0196 7.29053C75.0196 6.92238 75.0413 6.57588 75.0196 6.20773C74.9763 5.7313 75.1712 5.57971 75.6477 5.57971C77.64 5.60136 79.6107 5.60136 81.6031 5.57971C82.1012 5.57971 82.3394 5.70964 82.2961 6.25104C82.2527 6.64085 82.2961 6.98735 82.3177 7.5504Z" fill="#A1A1A1"/>
<path id="Vector_2" d="M36.407 19.2872C36.407 22.2541 36.407 25.1993 36.407 28.1662C36.3854 32.021 34.3713 34.0133 30.5166 34.035C28.8274 34.035 27.1166 34.0566 25.4274 34.035C22.0057 33.9917 19.4936 31.7178 19.3204 28.2961C19.1904 25.849 19.1688 23.3802 19.2987 20.9331C19.472 17.4248 22.1573 14.956 25.7089 14.9127C26.6401 14.891 27.593 14.9127 28.5242 14.9127C29.4338 14.891 29.7803 14.3713 29.7586 13.5051C29.7586 12.6388 29.3688 12.249 28.5026 12.2923C27.528 12.314 26.5535 12.314 25.579 12.2923C23.1968 12.249 21.8758 10.9496 21.8975 8.61079C21.8975 7.65792 21.4643 6.38021 22.0924 5.81716C22.6338 5.34072 23.8682 5.64391 24.7994 5.64391C27.2248 5.62225 29.6287 5.64391 32.0541 5.64391C34.6312 5.64391 36.3854 7.39805 36.407 9.99677C36.4287 13.0719 36.407 16.1904 36.407 19.2872ZM29.7803 24.2031C29.7803 23.835 29.7803 23.4885 29.7803 23.1203C29.7803 20.9114 29.7803 20.9114 27.5713 20.998C26.4669 21.0414 25.8605 21.6044 25.8389 22.7522C25.8172 23.6617 25.8172 24.5496 25.8389 25.4592C25.8605 27.0184 26.5535 27.4299 28.8057 27.4949C30.4732 27.5382 29.6287 26.3688 29.7803 25.7191C29.8669 25.2426 29.7586 24.7012 29.7803 24.2031ZM55.6809 16.9267C55.6809 20.2401 55.7242 23.5751 55.6592 26.8885C55.6159 29.4439 55.0096 31.7611 52.5408 33.1254C51.5446 33.6668 50.4618 33.97 49.3357 33.9917C46.8452 34.035 44.3548 33.9917 41.8643 34.035C41.258 34.035 41.128 33.8184 41.1497 33.277C41.193 32.3675 41.128 31.4796 41.1713 30.57C41.2147 28.8375 42.5357 27.5165 44.2682 27.4516C45.3943 27.4082 46.4987 27.4299 47.6248 27.4516C48.5344 27.4516 49.0325 27.0834 49.0325 26.1089C49.0325 25.1127 48.5561 24.7662 47.6465 24.7445C46.1306 24.7012 44.6147 24.9178 43.1204 24.4847C40.5433 23.7267 38.6592 21.5828 38.5943 18.9191C38.4643 14.6961 38.551 10.4732 38.5293 6.25028C38.5293 5.77384 38.6809 5.62225 39.1573 5.64391C40.9331 5.66556 42.6873 5.68722 44.4631 5.64391C45.2427 5.62225 45.1344 6.05537 45.1344 6.53181C45.1344 9.71525 45.1344 12.877 45.1344 16.0605C45.1344 17.4465 45.7841 18.1828 46.9968 18.2261C48.4261 18.2694 49.0541 17.6847 49.0541 16.2337C49.0541 13.0286 49.0758 9.80187 49.0325 6.59677C49.0325 5.83881 49.2274 5.62225 49.9854 5.64391C51.5662 5.70887 53.1688 5.73053 54.7497 5.64391C55.6159 5.60059 55.7459 5.92544 55.7242 6.6834C55.6592 10.0834 55.6809 13.5051 55.6809 16.9267ZM0.501275 21.8426C0.501275 18.3127 0.501275 14.7611 0.501275 11.2312C0.501275 7.7662 2.62357 5.60059 6.11019 5.64391C8.38408 5.66556 10.658 5.38403 12.9102 5.81716C15.7904 6.38021 17.6096 8.61078 17.6312 11.5777C17.6529 14.7178 17.6312 17.8579 17.6312 20.998C17.6312 24.9394 15.314 27.3433 11.3726 27.4516C10.1815 27.4949 8.99045 27.4732 7.79936 27.4516C7.25796 27.4299 7.01975 27.6031 7.0414 28.1879C7.08471 29.0541 7.06306 29.9203 7.0414 30.7866C6.99809 32.649 5.67707 33.9917 3.83631 34.0133C2.7535 34.035 1.38917 34.4681 0.696178 33.8401C0.0464965 33.2554 0.522931 31.8694 0.501275 30.8299C0.479619 27.8414 0.501275 24.8312 0.501275 21.8426ZM7.0414 16.5369C7.0414 17.2299 7.0414 17.9012 7.0414 18.5942C7.0414 21.0414 7.0414 21.0414 9.48854 20.8248C10.5497 20.7382 11.0478 20.2184 11.0694 19.1573C11.0911 17.9445 11.0261 16.7101 11.0911 15.4974C11.221 11.9891 10.5713 12.3356 7.71274 12.314C7.193 12.314 7.01975 12.4656 7.01975 12.9853C7.06306 14.1547 7.0414 15.3458 7.0414 16.5369Z" fill="white"/>
<path id="Vector_3" d="M61.8094 21.8862C61.8094 19.0059 61.7877 16.104 61.831 13.2238C61.831 12.5524 61.6795 12.2709 60.9432 12.2926C59.9686 12.3359 58.6693 12.6174 58.1279 12.141C57.4565 11.5129 57.9763 10.1703 57.8896 9.13078C57.8896 9.06581 57.8896 8.97919 57.8896 8.91422C57.8896 7.89639 57.5648 6.7053 57.9979 5.94734C58.431 5.18938 59.7521 5.66581 60.6833 5.42759C62.524 4.95116 63.91 3.89002 65.0361 2.4174C65.8158 1.42123 66.7903 0.706576 68.0463 0.46836C68.7177 0.338423 69.1291 0.425048 69.0858 1.29129C69.0209 2.50403 69.0858 3.73842 69.0642 4.97282C69.0425 5.49256 69.2374 5.66581 69.7572 5.64415C70.6234 5.6225 71.4896 5.66581 72.3559 5.6225C72.8756 5.60084 73.0489 5.79575 73.0272 6.31549C73.0056 8.09129 73.0056 9.84543 73.0272 11.6212C73.0272 12.1193 72.8973 12.3792 72.3559 12.3142C72.2476 12.2926 72.1393 12.3142 72.031 12.3142C71.0782 12.4008 69.7572 11.8811 69.2591 12.5308C68.7826 13.1372 69.0858 14.3932 69.0858 15.3677C69.0858 21.2582 69.0642 27.127 69.1075 33.0174C69.1075 33.8403 68.8909 34.1002 68.068 34.0352C67.2884 33.9703 66.4871 34.0352 65.6858 34.0136C63.347 33.927 61.8094 32.3461 61.8094 30.0072C61.8094 27.3002 61.8094 24.5932 61.8094 21.8862Z" fill="#A1A1A1"/>
</g>
<defs>
<clipPath id="clip0_432_321">
<rect width="104.815" height="34" fill="white" transform="translate(0.284668 0.273438)"/>
</clipPath>
</defs>
</svg>
