<svg width="126" height="35" viewBox="0 0 126 35" fill="none" xmlns="http://www.w3.org/2000/svg">
<g id="PhonePe" clip-path="url(#clip0_432_318)">
<path id="Vector" d="M16.5354 34.2734C16.0245 34.2234 15.5109 34.1892 15.0025 34.122C11.676 33.6808 8.71296 32.4008 6.15551 30.2239C3.4821 27.9738 1.57488 24.9478 0.698221 21.5652C0.210149 19.7401 0.0417313 17.8443 0.200428 15.9618C0.46381 12.6761 1.5608 9.69192 3.55856 7.07126C6.35568 3.40103 10.0549 1.15832 14.6206 0.480112C19.6038 -0.261311 24.1024 0.996343 27.9886 4.18459C31.3375 6.92772 33.3577 10.4979 33.9714 14.7805C34.6957 19.8308 33.3972 24.3663 30.1023 28.2709C27.3275 31.5632 23.7495 33.4635 19.4972 34.1049C18.9638 34.1865 18.4226 34.2181 17.8853 34.2734H16.5354ZM13.4038 11.7542C12.0303 11.7542 10.658 11.7542 9.2845 11.7542C8.9184 11.7542 8.78802 11.8648 8.75773 12.2257C8.72415 12.5764 8.73078 12.9299 8.77749 13.2792C8.81395 13.5735 8.9572 13.8442 9.18006 14.0399C9.40291 14.2355 9.68986 14.3426 9.98641 14.3406C10.3025 14.3472 10.6185 14.3406 10.9346 14.3406C11.3297 14.3406 11.3297 14.3406 11.3297 14.7291C11.3297 16.1997 11.3297 17.6702 11.3297 19.1408C11.3288 19.7277 11.4054 20.3122 11.5575 20.8791C11.9802 22.4594 12.9021 23.5906 14.5021 24.0621C15.8388 24.4572 17.1807 24.361 18.5003 23.9304C18.8097 23.829 18.815 23.829 18.8163 24.1569C18.8163 25.0682 18.8097 25.9795 18.8163 26.8908C18.8137 27.0859 18.8502 27.2796 18.9237 27.4603C18.9973 27.6411 19.1064 27.8052 19.2446 27.943C19.3827 28.0808 19.5471 28.1894 19.7281 28.2625C19.909 28.3356 20.1027 28.3716 20.2979 28.3684C20.7311 28.3684 21.1657 28.3763 21.599 28.3684C21.6737 28.37 21.748 28.3565 21.8174 28.3286C21.8867 28.3007 21.9497 28.259 22.0025 28.2061C22.0553 28.1531 22.0969 28.0901 22.1246 28.0206C22.1523 27.9512 22.1657 27.8769 22.1639 27.8021C22.1639 27.6941 22.1639 27.5861 22.1639 27.4782C22.1639 23.2272 22.1639 18.9775 22.1639 14.7291C22.1639 14.2445 22.1639 14.2445 22.6354 14.2445C23.1858 14.2445 23.7376 14.2445 24.2881 14.2445C24.6963 14.2445 24.8149 14.1194 24.8149 13.7046C24.8149 13.435 24.8149 13.1642 24.8149 12.892C24.8056 12.1546 24.3105 11.6633 23.5664 11.6568C22.9159 11.6515 22.2658 11.6515 21.6161 11.6568C21.5307 11.6626 21.4452 11.6475 21.367 11.6129C21.2887 11.5782 21.2201 11.525 21.167 11.4579C20.9234 11.1682 20.6705 10.885 20.4216 10.6006C19.0046 8.96323 17.5846 7.3285 16.1614 5.69641C15.9946 5.48725 15.782 5.31914 15.54 5.20499C15.298 5.09084 15.033 5.0337 14.7655 5.03795C13.8871 5.04848 13.1075 5.43302 12.2976 5.70563C12.0513 5.78727 12.025 6.1007 12.1975 6.29824C12.2583 6.36514 12.3225 6.42888 12.3898 6.48919C14.1386 8.14938 15.8879 9.80869 17.6377 11.4671C17.7009 11.5264 17.8168 11.583 17.7878 11.6739C17.7509 11.7924 17.6179 11.7437 17.5244 11.7437C16.1509 11.7437 14.7787 11.7437 13.4051 11.7437M125.285 22.7926C125.103 23.0902 124.842 23.1969 124.488 23.1942C122.691 23.1811 120.893 23.1942 119.095 23.1824C118.832 23.1824 118.713 23.243 118.724 23.5235C118.733 23.7289 118.679 23.9357 118.677 24.1424C118.662 25.1367 119.302 25.803 120.3 25.8755C121.299 25.9479 122.247 25.6727 123.153 25.2513C123.799 24.9523 123.927 24.9879 124.324 25.5937C124.605 26.023 124.85 26.4602 124.655 27.0067C124.55 27.3278 124.325 27.5961 124.027 27.756C122.651 28.4843 121.177 28.6963 119.642 28.562C118.919 28.509 118.214 28.3153 117.565 27.9918C116.041 27.2016 115.279 25.9163 115.207 24.2451C115.146 22.8492 115.175 21.448 115.199 20.0495C115.237 17.6619 116.861 15.9209 119.281 15.6365C120.142 15.5175 121.017 15.5474 121.867 15.7247C123.798 16.1659 124.956 17.4275 125.235 19.3884C125.245 19.4582 125.265 19.528 125.281 19.5977L125.285 22.7926ZM120.423 21.157C120.929 21.157 121.434 21.157 121.94 21.157C122.123 21.157 122.203 21.0911 122.203 20.9041C122.203 20.6157 122.203 20.3273 122.203 20.0389C122.17 19.1171 121.649 18.5021 120.73 18.3849C119.565 18.2361 118.71 18.8353 118.686 20.0692C118.686 20.3326 118.695 20.596 118.686 20.8594C118.677 21.1227 118.774 21.1701 119.004 21.1636C119.483 21.1517 119.961 21.1636 120.44 21.1636M45.285 25.832C45.285 26.4641 45.285 27.0949 45.285 27.7271C45.285 28.1577 45.0598 28.4092 44.6265 28.4198C43.9496 28.4356 43.2727 28.4356 42.5958 28.4198C42.2008 28.4105 41.9848 28.1906 41.9374 27.8034C41.9244 27.696 41.9187 27.5877 41.9203 27.4795C41.9203 22.6806 41.9203 17.8818 41.9203 13.083C41.9203 12.9513 41.9321 12.8301 41.944 12.705C41.9559 12.532 42.0216 12.367 42.1318 12.2332C42.2421 12.0993 42.3914 12.0032 42.559 11.9583C44.0431 11.4645 45.5628 11.1682 47.1313 11.209C48.3626 11.2446 49.5268 11.5382 50.5553 12.2467C51.7405 13.0593 52.4503 14.1905 52.6215 15.5996C52.8129 17.0049 52.8054 18.4302 52.5991 19.8335C52.4218 20.8847 51.9064 21.8494 51.1311 22.5812C50.3559 23.3129 49.363 23.7719 48.3033 23.8883C47.3617 24.0028 46.4281 24.0015 45.522 23.671C45.3205 23.5972 45.2889 23.6881 45.2889 23.858C45.2889 24.5164 45.2889 25.1749 45.2889 25.8333M45.393 17.4881C45.393 18.4257 45.4009 19.362 45.393 20.2997C45.3829 20.3966 45.4068 20.4939 45.4606 20.5751C45.5144 20.6563 45.5948 20.7163 45.6879 20.7448C46.1844 20.97 46.7033 20.9752 47.2287 20.9463C48.4601 20.8791 49.3358 19.977 49.3358 18.7444C49.3292 17.8305 49.4056 16.9165 49.237 16.0026C49.1053 15.2691 48.7853 14.6949 48.0953 14.3736C47.2814 13.9943 46.4504 14.043 45.6142 14.2959C45.4246 14.3538 45.4022 14.4802 45.4022 14.6488C45.4022 15.5943 45.4022 16.5412 45.4022 17.4881M103.221 20.2483V13.0738C103.221 12.3244 103.39 12.1006 104.097 11.878C105.485 11.4421 106.901 11.1734 108.359 11.2064C109.764 11.238 111.074 11.5896 112.191 12.4943C112.674 12.8769 113.077 13.3516 113.376 13.891C113.674 14.4304 113.863 15.0237 113.93 15.6365C114.113 16.9801 114.113 18.3423 113.93 19.686C113.603 21.8747 112.133 23.3654 109.94 23.825C108.931 24.0609 107.877 24.0154 106.892 23.6933C106.652 23.6091 106.597 23.6736 106.598 23.9106C106.606 25.1472 106.598 26.3838 106.598 27.6191C106.598 28.1998 106.375 28.429 105.808 28.4316C105.24 28.4342 104.651 28.4316 104.073 28.4316C103.495 28.4316 103.237 28.1867 103.23 27.5914V20.2483H103.221ZM106.701 17.4828C106.701 18.4296 106.707 19.3778 106.701 20.3247C106.692 20.4128 106.713 20.5012 106.761 20.5757C106.809 20.6502 106.88 20.7065 106.964 20.7356C107.458 20.9687 107.977 20.9779 108.503 20.9515C109.753 20.8923 110.626 19.9889 110.638 18.7418C110.638 18.1373 110.638 17.5315 110.638 16.927C110.624 16.452 110.546 15.9811 110.405 15.5272C110.339 15.2863 110.221 15.0626 110.06 14.8716C109.899 14.6806 109.699 14.5269 109.473 14.421C108.671 14.0127 107.838 14.0456 106.993 14.2669C106.947 14.2729 106.903 14.2879 106.863 14.311C106.823 14.3342 106.789 14.3651 106.761 14.4018C106.733 14.4386 106.713 14.4805 106.701 14.5252C106.69 14.5698 106.687 14.6163 106.694 14.662C106.707 15.6009 106.694 16.5386 106.694 17.4775M54.4678 19.7637C54.4678 17.1465 54.4678 14.5294 54.4678 11.9122C54.4678 11.3183 54.6838 11.0971 55.2856 11.101C55.7189 11.101 56.1535 11.0641 56.5841 11.1366C56.8998 11.1828 57.1911 11.3328 57.4122 11.5629C57.6332 11.793 57.7714 12.0901 57.8049 12.4074C57.8931 13.2805 57.8233 14.1576 57.8404 15.032C57.8404 15.2664 57.8483 15.5008 57.8404 15.7352C57.8325 15.9341 57.8839 16.0184 58.1038 15.9565C58.6977 15.8015 59.3057 15.7066 59.9185 15.6733C62.2244 15.4995 64.0721 16.8493 64.5672 19.0973C64.6853 19.6158 64.7454 20.1458 64.7463 20.6776C64.7463 22.998 64.7463 25.3171 64.7463 27.6362C64.7463 28.1801 64.5172 28.4158 63.9786 28.4263C63.6344 28.4316 63.2911 28.4316 62.9487 28.4263C62.7399 28.4278 62.5329 28.3875 62.3399 28.3079C62.1468 28.2283 61.9715 28.1111 61.8244 27.9629C61.6772 27.8148 61.5611 27.6387 61.4828 27.4452C61.4045 27.2516 61.3656 27.0443 61.3684 26.8355C61.3632 24.868 61.3632 22.901 61.3684 20.9344C61.3829 20.5459 61.3385 20.1574 61.2367 19.7821C61.0405 19.1447 60.6046 18.7931 59.9528 18.6943C59.3513 18.6211 58.7414 18.6622 58.1552 18.8155C57.905 18.8721 57.8273 18.9959 57.8286 19.2488C57.8365 21.9563 57.8365 24.6635 57.8286 27.3702C57.8286 27.4782 57.8286 27.5875 57.8286 27.6955C57.793 28.188 57.5652 28.4184 57.07 28.425C56.4467 28.4329 55.8234 28.4329 55.2 28.425C54.6904 28.425 54.4599 28.1801 54.4599 27.6704C54.4599 25.0366 54.4599 22.4028 54.4599 19.7689M66.5097 21.9893C66.54 21.3585 66.4544 20.5407 66.5531 19.736C66.7915 17.7791 67.87 16.5135 69.7493 15.9565C71.2634 15.4811 72.8939 15.5336 74.3743 16.1053C76.1034 16.7769 77.0081 18.0886 77.1543 19.9243C77.261 21.2742 77.2043 22.6293 77.1898 23.9818C77.1754 25.3342 76.7605 26.5734 75.678 27.4953C74.8655 28.188 73.8962 28.508 72.8585 28.641C71.7447 28.7983 70.6096 28.6928 69.5438 28.3328C67.6923 27.6941 66.5373 26.1033 66.5149 24.1477C66.5057 23.4892 66.5149 22.8308 66.5149 21.9919M70.0627 22.0248C70.0627 22.7544 70.0535 23.3417 70.0627 23.9264C70.0825 24.9602 70.5671 25.5555 71.5679 25.6819C72.7532 25.8333 73.7817 25.4185 73.8185 23.9778C73.8488 22.7794 73.8396 21.5797 73.8185 20.38C73.8014 19.4015 73.2918 18.7773 72.4279 18.6061C72.1687 18.5662 71.9056 18.5578 71.6443 18.5811C70.7923 18.6219 70.2155 19.1632 70.1035 20.006C70.01 20.725 70.089 21.448 70.0588 22.0248M97.7495 23.1877C96.8185 23.1877 95.8887 23.1956 94.9576 23.1877C94.7232 23.1877 94.6258 23.2746 94.6179 23.4945C94.6087 23.8 94.5257 24.1016 94.5678 24.4163C94.6811 25.2539 95.2961 25.8149 96.1587 25.8834C97.1622 25.9624 98.0919 25.7148 98.9861 25.2881C99.6919 24.951 99.8329 24.9905 100.253 25.6595C100.533 26.1046 100.767 26.5616 100.516 27.1081C100.427 27.3574 100.254 27.5678 100.026 27.7034C97.8509 28.803 95.6161 29.0203 93.3826 27.9509C91.992 27.2925 91.2453 26.0704 91.1281 24.5454C91.0128 22.9167 91.0128 21.2818 91.1281 19.6531C91.2453 17.8199 92.4581 16.3674 94.2887 15.8445C95.5444 15.4728 96.8805 15.4696 98.138 15.8353C99.85 16.3344 100.828 17.5197 101.112 19.2593C101.285 20.3418 101.224 21.4375 101.204 22.5279C101.195 22.9901 100.94 23.1929 100.462 23.1942H97.7495M96.3272 21.1636C96.8408 21.1636 97.3557 21.1636 97.8693 21.1636C98.0379 21.1636 98.1196 21.1082 98.1143 20.9291C98.1064 20.65 98.1222 20.3695 98.1077 20.0916C98.059 19.1329 97.5309 18.5113 96.6104 18.3928C95.6596 18.2677 94.7496 18.6364 94.5836 19.8335C94.5336 20.193 94.5705 20.5538 94.5547 20.9133C94.5455 21.103 94.6284 21.1662 94.8115 21.1636C95.3172 21.157 95.8215 21.1636 96.3272 21.1636ZM79.1376 22.4265C79.1376 20.7391 79.1376 19.0517 79.1376 17.3643C79.1376 16.7927 79.3246 16.5583 79.8658 16.3779C81.2171 15.911 82.6358 15.6685 84.0655 15.6602C85.4522 15.6602 86.7849 15.9025 87.8845 16.8454C88.7668 17.6026 89.1751 18.6022 89.3515 19.7215C89.4002 20.0882 89.42 20.458 89.4108 20.8277C89.4108 23.0928 89.4108 25.3579 89.4108 27.623C89.4108 28.2038 89.1948 28.425 88.6075 28.4211C88.1663 28.4211 87.7225 28.4606 87.2827 28.3895C86.5491 28.2696 86.0738 27.731 86.0711 26.9883C86.0632 25.0656 86.0711 23.1442 86.0711 21.2215C86.0817 20.7886 86.0486 20.3558 85.9724 19.9296C85.7985 19.0855 85.2428 18.6127 84.3841 18.5745C83.8697 18.5554 83.3546 18.5859 82.846 18.6654C82.5826 18.7062 82.5102 18.8221 82.5115 19.0749C82.5176 21.8352 82.5176 24.5963 82.5115 27.3583C82.5115 27.4663 82.5115 27.5756 82.5115 27.6823C82.505 27.8525 82.4328 28.0137 82.31 28.1318C82.1872 28.2499 82.0234 28.3158 81.853 28.3157C81.1577 28.3289 80.4611 28.3302 79.7657 28.3157C79.3707 28.3078 79.1376 28.0405 79.1362 27.6217C79.1362 25.8886 79.1362 24.156 79.1362 22.4238" fill="white"/>
<path id="Vector_2" d="M18.8228 17.7007C18.8228 18.7029 18.8162 19.7037 18.8228 20.7046C18.8351 20.8019 18.8107 20.9002 18.7545 20.9805C18.6983 21.0608 18.6142 21.1174 18.5186 21.1392C17.8755 21.3603 17.1929 21.4429 16.5156 21.3815C15.3633 21.2722 14.7193 20.5913 14.6219 19.4232C14.5323 18.3513 14.5982 17.278 14.5797 16.2047C14.5718 15.6779 14.5797 15.1591 14.5797 14.6363C14.5797 14.419 14.6508 14.3307 14.8787 14.332C16.0889 14.3399 17.2991 14.3426 18.5081 14.332C18.7715 14.332 18.8268 14.4387 18.8255 14.6718C18.8176 15.6819 18.8255 16.692 18.8255 17.7007" fill="white"/>
</g>
<defs>
<clipPath id="clip0_432_318">
<rect width="125.142" height="34" fill="white" transform="translate(0.142578 0.273438)"/>
</clipPath>
</defs>
</svg>
