<svg width="46" height="46" viewBox="0 0 46 46" fill="none" xmlns="http://www.w3.org/2000/svg">
<g id="Frame" clip-path="url(#clip0_1104_2326)">
<g id="Group">
<circle id="Ellipse 6" cx="23" cy="23" r="23" fill="#FDE410"/>
<g id="Group 933">
<path id="Vector" d="M12.4189 16.1812L8.75298 17.9152L9.18469 21.6094L13.1903 22.2817L15.0516 18.9909L12.4189 16.1812ZM17.6277 11.4537L17.9815 10.9441C16.7855 10.5124 15.4904 10.3143 14.2165 10.378C13.5008 10.4133 12.7912 10.5272 12.1004 10.7177L13.9476 11.6801L17.6277 11.4537ZM19.312 18.0425L20.3948 15.1409L17.6914 12.2959L14.1599 12.5153L13.0134 15.5585L15.7452 18.4742L19.312 18.0425ZM7.30922 34.2916L7.62767 34.5111C7.74088 34.2421 7.82586 33.959 7.88954 33.676L7.45783 33.5769L7.65602 32.7488L7.98864 32.8267V32.7206C7.98864 32.5578 7.97446 32.395 7.96035 32.2322L7.64896 32.303L7.45077 31.4749L7.79045 31.3971C7.72676 31.1848 7.6489 30.9725 7.55692 30.7743L7.30216 30.9512L6.82093 30.2506L7.11815 30.0453C6.96954 29.833 6.7997 29.642 6.61569 29.458C5.7452 30.3143 5.24979 31.482 5.24979 32.7134C5.24979 33.952 5.7452 35.1197 6.62274 35.976C6.84216 35.7566 7.04734 35.516 7.21724 35.2612L6.82799 34.9923L7.30922 34.2916ZM9.81453 27.2994C10.1826 27.2994 10.5435 27.3348 10.8903 27.4055V25.8627C10.3736 26.3299 9.93486 26.8111 9.581 27.3065C9.65887 27.2994 9.73667 27.2994 9.81453 27.2994ZM8.03815 27.1013L7.21724 24.6596L5.85135 24.0298C6.36798 25.1904 7.11109 26.2308 8.03815 27.1013ZM8.23634 22.0057C8.26236 21.9463 8.30392 21.8949 8.35666 21.8571L7.89666 17.9364L5.58242 16.7474C5.00915 18.3327 4.84642 20.0524 5.1507 21.751C5.22094 22.138 5.31309 22.5208 5.42669 22.8974L7.35874 23.7962L8.23634 22.0057ZM12.1783 15.3532L13.3319 12.3171L10.9964 11.0999C9.48191 11.7226 8.13725 12.7276 7.11109 14.0157C6.63233 14.6144 6.22611 15.2677 5.90093 15.9619L8.30009 17.1933L12.1783 15.3532ZM8.97233 22.4374L8.01692 24.3907L8.85913 26.8748C9.40405 26.0892 10.1542 25.3249 11.0601 24.6242C11.7183 24.1147 12.4402 23.6547 13.2116 23.2583L13.1408 23.138L8.97233 22.4374ZM32.5109 20.0029C34.4784 17.717 37.2597 16.3087 40.2604 16.0751C39.7437 13.9379 38.576 12.0129 36.9129 10.5762L30.6071 18.4813L32.5109 20.0029ZM29.9419 17.9506L36.2476 10.0454C34.4288 8.70776 32.2278 7.99299 29.9773 8.00005C30.3666 10.93 29.6022 13.9024 27.8471 16.2803L29.9419 17.9506Z" fill="#020A09"/>
<path id="Vector_2" d="M33.176 20.5268L38.5051 24.7872C39.329 23.6658 39.9232 22.3926 40.2536 21.0409C40.5839 19.6891 40.6439 18.2854 40.4301 16.9104C37.6205 17.1015 35.016 18.4036 33.176 20.5268ZM13.2751 28.5452C13.2822 28.5452 13.2893 28.5522 13.2964 28.5593C13.3955 28.6442 13.4874 28.7292 13.5795 28.8141C13.7918 29.0193 13.9758 29.2316 14.1456 29.4439V23.7327C13.2751 24.1361 12.4683 24.6174 11.7394 25.1623V27.6464C12.2914 27.8587 12.8151 28.163 13.2751 28.5452ZM11.4492 36.0399L10.968 35.3392L11.336 35.0915C11.152 34.7164 11.0105 34.3201 10.9185 33.9096L10.5434 34.0016L10.3452 33.1736L10.7982 33.0674C10.7911 32.9471 10.784 32.8339 10.784 32.7136C10.784 32.4659 10.7982 32.2252 10.8335 31.9846L10.3452 31.8714L10.5434 31.0434L11.0175 31.1566C11.1166 30.8169 11.2511 30.4984 11.4138 30.187L10.9751 29.8898L11.4563 29.1892L11.8738 29.4723C12.0225 29.2741 12.1852 29.0901 12.3551 28.9132C11.6049 28.4107 10.7273 28.1418 9.81436 28.1418C8.90847 28.1418 8.03093 28.4107 7.28076 28.9132C7.4778 29.1168 7.65991 29.3344 7.82568 29.5642L8.37772 29.1892L8.85895 29.8898L8.27157 30.2932C8.41312 30.5833 8.53345 30.8877 8.62542 31.1991L9.29067 31.0433L9.48886 31.8714L8.80238 32.0342C8.83083 32.2595 8.84501 32.4864 8.84484 32.7136C8.84484 32.8127 8.84484 32.9188 8.83778 33.0179L9.48886 33.1736L9.29067 34.0017L8.7174 33.8672C8.63248 34.2565 8.5051 34.6316 8.34232 34.9925L8.85895 35.3463L8.37772 36.047L7.91772 35.7356C7.73154 36.0154 7.51819 36.2762 7.28076 36.5141C8.03093 37.0095 8.91559 37.2855 9.80019 37.2784C10.7202 37.2784 11.5978 37.0095 12.3409 36.507C12.1286 36.2947 11.9375 36.0612 11.7676 35.8206L11.4492 36.0399ZM29.1279 8.03564C26.382 8.26917 23.8342 9.56432 22.0366 11.6379L27.1887 15.7497C28.8165 13.5346 29.5101 10.7604 29.1279 8.03564ZM23.2893 15.6082C22.6665 14.4051 21.7889 13.3364 20.7203 12.4801C20.1187 12.0059 19.4747 11.6026 18.7882 11.277L18.4061 11.8219L21.1308 14.6882L23.2893 15.6082ZM31.2793 29.2105C31.3572 29.1468 31.4421 29.0831 31.527 29.0194C31.251 27.795 30.0904 26.3301 28.4556 25.1269V33.9946C28.767 33.7681 29.0571 33.5346 29.3331 33.2869C29.3615 31.7087 30.0621 30.2296 31.2793 29.2105ZM34.5348 35.686C33.6643 35.686 32.8151 35.318 32.2701 34.7094C31.8314 34.221 31.6261 33.6124 31.6898 33.0038C31.7181 32.7632 31.7677 32.4659 31.8243 32.1263C31.9446 31.4115 32.1144 30.4065 32.0578 29.6917C31.9799 29.7484 31.9021 29.8121 31.8243 29.8758C30.7839 30.7462 30.1824 32.0201 30.1824 33.3789C30.1824 34.7307 30.7839 36.0116 31.8243 36.8821C32.6452 37.5686 33.6856 37.9437 34.7542 37.9437C35.9431 37.9437 37.0684 37.4907 37.9247 36.6627C38.8235 35.7922 39.3189 34.6245 39.326 33.3931C39.326 32.1404 38.8306 30.9727 37.9318 30.1022C37.762 29.9394 37.578 29.7908 37.3869 29.6563C37.302 30.3569 37.5072 31.3902 37.6488 32.1191C37.7125 32.4588 37.7762 32.7561 37.8045 33.0038C37.8823 33.6054 37.6841 34.2069 37.2524 34.6953C36.7004 35.311 35.8511 35.6861 34.9665 35.6861H34.5348V35.686ZM31.98 20.6612L30.0762 19.1397L26.8632 23.1666C27.3374 23.4143 27.8116 23.6761 28.2574 23.9663C28.8802 24.3697 29.4534 24.8014 29.9559 25.2614C30.2815 23.5983 30.9679 22.0342 31.98 20.6612ZM25.2001 35.7426C26.0423 35.4242 26.8491 35.0279 27.6063 34.5608V24.5537C26.8426 24.0822 26.0371 23.6818 25.2001 23.3576V35.7426Z" fill="#020A09"/>
<path id="Vector_3" d="M14.1598 31.2697C13.9404 30.5974 13.5512 29.9746 13.0275 29.4579C12.8647 29.6137 12.7231 29.7764 12.5887 29.9533L13.0275 30.2506L12.5462 30.9512L12.1358 30.6752C12.0233 30.8928 11.9309 31.1202 11.8598 31.3546L12.3694 31.482L12.1712 32.31L11.6616 32.1897C11.6474 32.3667 11.6333 32.5436 11.6333 32.7205C11.6333 32.7701 11.6404 32.8267 11.6404 32.8763L12.1782 32.7489L12.3764 33.5769L11.7536 33.7255C11.8244 34.0299 11.9306 34.3341 12.058 34.6172L12.5392 34.2917L13.0204 34.9923L12.4896 35.3532C12.6453 35.5726 12.8222 35.7849 13.0204 35.976C13.9051 35.1055 14.3863 33.9519 14.3934 32.7135C14.3934 32.2464 14.3226 31.8005 14.1952 31.3688C14.1811 31.3404 14.1669 31.3051 14.1598 31.2697ZM32.8435 29.2244C33.0275 30.0948 32.8222 31.2767 32.6594 32.2604C32.6028 32.586 32.5533 32.869 32.5321 33.0884C32.4825 33.5556 32.709 33.9165 32.9001 34.1358C33.2822 34.5604 33.905 34.8294 34.5278 34.8294H34.9595C35.5894 34.8294 36.2263 34.5604 36.6085 34.1217C36.7996 33.9022 37.0119 33.5555 36.9553 33.0954C36.927 32.876 36.8704 32.593 36.8067 32.2674C36.6085 31.2766 36.375 30.0806 36.5944 29.1959C36.0211 28.9412 35.3842 28.8067 34.7473 28.8067C34.089 28.8068 33.4379 28.9554 32.8435 29.2244ZM32.6523 21.1989C31.612 22.6143 30.9468 24.2633 30.7061 25.9972C31.4775 26.8394 32.0295 27.724 32.2843 28.552C33.0416 28.1627 33.8979 27.9575 34.7542 27.9575H34.7754C35.9998 27.3347 37.0755 26.4925 37.9885 25.4522L32.6523 21.1989ZM29.411 18.6158L27.3233 16.9455C26.6792 17.6957 25.9503 18.3468 25.1506 18.8988C25.2142 19.4721 25.2284 20.0524 25.2001 20.6256C25.2001 20.7035 25.193 20.7742 25.1859 20.8521C25.1505 21.3617 25.0727 21.8641 24.9594 22.3666C25.3345 22.494 25.7096 22.6426 26.0706 22.7983L29.411 18.6158ZM21.1379 21.5881L19.4039 18.8918L15.8441 19.3235L13.905 22.7488L13.9828 22.8832C14.1244 22.8195 14.2659 22.7559 14.4145 22.6992C16.2617 21.9349 18.1937 21.5527 20.1541 21.5527C20.4797 21.5527 20.8123 21.5669 21.1379 21.5881ZM26.658 16.4147L22.7868 13.3291C23.4874 14.1713 24.0607 15.1267 24.4641 16.1458C24.4783 16.1883 24.4995 16.2378 24.5136 16.2802C24.7255 16.8238 24.8889 17.3851 25.002 17.9575C25.6035 17.5046 26.1626 16.988 26.658 16.4147ZM24.3084 23.046C22.9425 22.6214 21.5413 22.402 20.1542 22.402C18.392 22.402 16.658 22.7276 14.9949 23.3786V31.1069C15.1507 31.6235 15.2356 32.1614 15.2356 32.7134C15.2356 33.69 14.9808 34.6242 14.4996 35.4451C14.5703 35.4805 14.6482 35.5088 14.7402 35.5513C16.4954 36.3015 18.3142 36.6837 20.1542 36.6837C21.5696 36.6837 22.978 36.4642 24.3509 36.0396V23.0602C24.3439 23.0602 24.3368 23.0531 24.3297 23.0531C24.3226 23.0531 24.3155 23.046 24.3084 23.046ZM23.0274 29.9745H22.3197V30.7459H21.4705V29.9745H20.8972V30.7459H20.048V29.9745H19.2907V30.7459H18.4414V29.9745H17.6843V30.7459H16.835V29.9745H16.198V29.1253H16.835V28.3114H17.6843V29.1253H18.4415V28.3114H19.2908V29.1253H20.0481V28.3114H20.8973V29.1253H21.4706V28.3114H22.3199V29.1253H23.0276V29.9745H23.0274ZM23.2469 21.8854C23.5441 21.9561 23.8484 22.0269 24.1456 22.1118C24.1881 21.8995 24.2306 21.6872 24.2588 21.4749L23.2469 21.8854ZM23.7847 16.7474L21.1237 15.6151L20.0905 18.3822L22.065 21.4466L24.3509 20.5195C24.3863 19.7551 24.3367 18.9767 24.1881 18.2194C24.0961 17.7169 23.9546 17.2215 23.7847 16.7474Z" fill="#020A09"/>
</g>
</g>
</g>
<defs>
<clipPath id="clip0_1104_2326">
<rect width="46" height="46.0001" fill="white"/>
</clipPath>
</defs>
</svg>
