<svg width="28" height="20" viewBox="0 0 28 20" fill="none" xmlns="http://www.w3.org/2000/svg">
<g clip-path="url(#clip0_1043_488)">
<path d="M27.0396 9.40116L18.8583 0.436128C18.6837 0.246069 18.4401 0.138489 18.1819 0.138489H12.7277C12.5521 0.138676 12.3803 0.188857 12.2329 0.283003C12.0855 0.377149 11.9688 0.511257 11.8968 0.669219C11.7514 0.993753 11.8114 1.37208 12.0514 1.63386L19.6855 10L12.0514 18.3644C11.8114 18.628 11.7496 19.0063 11.8968 19.329C12.0441 19.6536 12.3695 19.8616 12.7277 19.8616H18.1819C18.4401 19.8616 18.6837 19.7522 18.8583 19.5657L27.0396 10.6007C27.3505 10.26 27.3505 9.74004 27.0396 9.40116Z" fill="#339861"/>
<path d="M15.222 9.40116L7.04064 0.436128C6.86611 0.246069 6.62248 0.138489 6.36431 0.138489H0.910064C0.734462 0.138676 0.562649 0.188857 0.415262 0.283003C0.267875 0.377149 0.151182 0.511257 0.0791999 0.669219C-0.0662468 0.993753 -0.00625008 1.37208 0.233737 1.63386L7.86787 10L0.233737 18.3644C-0.00625008 18.628 -0.0680649 19.0063 0.0791999 19.329C0.226465 19.6536 0.551902 19.8616 0.910064 19.8616H6.36431C6.62248 19.8616 6.86611 19.7522 7.04064 19.5657L15.222 10.6007C15.5329 10.26 15.5329 9.74004 15.222 9.40116Z" fill="#30E1A2"/>
</g>
<defs>
<clipPath id="clip0_1043_488">
<rect width="27.2727" height="20" fill="white"/>
</clipPath>
</defs>
</svg>
