<svg width="60" height="44" viewBox="0 0 60 44" fill="none" xmlns="http://www.w3.org/2000/svg">
<path d="M59.487 20.6825L41.4879 0.959432C41.104 0.541303 40.568 0.304626 40 0.304626H28.0007C27.6144 0.305039 27.2364 0.415436 26.9121 0.622558C26.5879 0.829679 26.3311 1.12472 26.1728 1.47223C25.8528 2.18621 25.9848 3.01852 26.5128 3.59443L43.3078 22L26.5128 40.4016C25.9848 40.9815 25.8488 41.8138 26.1728 42.5238C26.4968 43.2378 27.2127 43.6954 28.0007 43.6954H40C40.568 43.6954 41.104 43.4548 41.4879 43.0445L59.487 23.3215C60.1709 22.572 60.1709 21.428 59.487 20.6825Z" fill="#339861"/>
<path d="M33.4884 20.6825L15.4894 0.959432C15.1054 0.541303 14.5695 0.304626 14.0015 0.304626H2.00214C1.61582 0.305039 1.23783 0.415436 0.913576 0.622558C0.589325 0.829679 0.332601 1.12472 0.17424 1.47223C-0.145743 2.18621 -0.0137502 3.01852 0.514221 3.59443L17.3093 22L0.514221 40.4016C-0.0137502 40.9815 -0.149743 41.8138 0.17424 42.5238C0.498222 43.2378 1.21418 43.6954 2.00214 43.6954H14.0015C14.5695 43.6954 15.1054 43.4548 15.4894 43.0445L33.4884 23.3215C34.1724 22.572 34.1724 21.428 33.4884 20.6825Z" fill="#30E1A2"/>
</svg>
