<svg width="46" height="46" viewBox="0 0 46 46" fill="none" xmlns="http://www.w3.org/2000/svg">
<g id="Frame" clip-path="url(#clip0_1102_1134)">
<g id="Group">
<circle id="Ellipse 6" cx="23" cy="23" r="23" fill="#FDE410"/>
<path id="Vector" d="M13.1724 39.9654H24.5517V40.9999H13.1724V39.9654ZM28.6896 30.1378C28.6896 30.3964 28.431 30.6551 28.1724 30.6551C27.9137 30.6551 27.6551 30.9137 27.6551 31.1723C27.6551 31.4309 27.3965 31.6895 27.1379 31.6895H24.5517V32.724H29.2068C29.4655 32.724 29.7241 32.4654 29.7241 32.2068V13.0688H28.6896V30.1378ZM13.5862 26.1033C13.3275 26.7757 13.2241 27.4482 13.3793 28.1206L15.2413 37.3275V38.9309H22.4827V37.2757L23.1551 35.2585C23.4137 34.4826 23.5689 33.7068 23.5689 32.9826V25.5344C23.5689 24.9654 23.1034 24.3964 22.4827 24.4482C21.9137 24.4482 21.4999 24.9137 21.4999 25.4826V28.6895C21.4999 29.1033 21.2413 29.6723 20.8275 29.8792C20.4137 30.1378 19.9482 30.1378 19.5344 29.9309L15.4482 27.4999C15.3448 27.3964 15.2413 27.2413 15.2413 27.0344V22.2757L13.5862 26.1033ZM15.5517 31.6895C15.8103 31.6378 16.1206 31.793 16.1724 32.1033L17.1034 36.2413C17.1551 36.4999 16.9999 36.8102 16.6896 36.8619C16.6379 36.8619 16.2241 37.0171 16.0689 36.4482L15.1379 32.3102C15.0862 32.0516 15.2413 31.793 15.5517 31.6895Z" fill="#020A09"/>
<path id="Vector_2" d="M26.7242 30.6551C26.8793 30.2413 27.2414 29.8792 27.6552 29.724V13.0688H18.3448V27.9654L20.0517 28.9999C20.1552 29.0516 20.4138 29.0516 20.4138 28.793V25.4826C20.4138 24.3447 21.3448 23.4137 22.4828 23.4137C23.6207 23.4137 24.5517 24.3447 24.5517 25.4826V30.6551H26.7242ZM26.6207 28.0688C26.6207 28.3275 26.3621 28.5861 26.1035 28.5861C25.8448 28.5861 25.5862 28.3275 25.5862 28.0688V22.8964C25.5862 22.6378 25.8448 22.3792 26.1035 22.3792C26.3621 22.3792 26.6207 22.6378 26.6207 22.8964V28.0688ZM24.0345 19.2757C23.7759 19.2757 23.5173 19.0171 23.5173 18.7585C23.5173 18.4999 23.7759 18.2413 24.0345 18.2413C24.2931 18.2413 24.5517 17.9826 24.5517 17.724C24.5517 17.4654 24.2931 17.2068 24.0345 17.2068C23.7759 17.2068 23.5173 17.4654 23.5173 17.724C23.5173 18.6033 22.8448 19.2757 21.9655 19.2757C21.2931 19.2757 20.7242 18.862 20.5173 18.2413H19.8966C19.6379 18.2413 19.3793 17.9826 19.3793 17.724C19.3793 17.4654 19.6379 17.2068 19.8966 17.2068H20.5173C20.7242 16.5861 21.2931 16.1723 21.9655 16.1723C22.2242 16.1723 22.4828 16.4309 22.4828 16.6895C22.4828 16.9482 22.2242 17.2068 21.9655 17.2068C21.7069 17.2068 21.4483 17.4654 21.4483 17.724C21.4483 17.9826 21.7069 18.2413 21.9655 18.2413C22.2242 18.2413 22.4828 17.9826 22.4828 17.724C22.4828 16.8447 23.1552 16.1723 24.0345 16.1723C24.7069 16.1723 25.2759 16.5861 25.4828 17.2068H26.1035C26.3621 17.2068 26.6207 17.4654 26.6207 17.724C26.6207 17.9826 26.3621 18.2413 26.1035 18.2413H25.4828C25.2759 18.862 24.7069 19.2757 24.0345 19.2757ZM16.2759 13.0688V26.724L17.3104 27.3447V13.0688H16.2759Z" fill="#020A09"/>
<path id="Vector_3" d="M37.5345 11H8.46552C8.15517 11 8 11.1552 8 11.4655V13.6379C8 13.9483 8.15517 14.1034 8.46552 14.1034H15.2414V13.069H13.6897C13.431 13.069 13.1724 12.8103 13.1724 12.5517C13.1724 12.2931 13.431 12.0345 13.6897 12.0345H32.3103C32.569 12.0345 32.8276 12.2931 32.8276 12.5517C32.8276 12.8103 32.569 13.069 32.3103 13.069H30.7586V14.1034H37.5345C37.8448 14.1034 38 13.8448 38 13.6379V11.4655C38 11.1552 37.7414 11 37.5345 11ZM10.5862 13.069H9.55172C9.2931 13.069 9.03448 12.8103 9.03448 12.5517C9.03448 12.2931 9.2931 12.0345 9.55172 12.0345H10.5862C10.8448 12.0345 11.1034 12.2931 11.1034 12.5517C11.1034 12.8103 10.8448 13.069 10.5862 13.069ZM36.4483 13.069H35.4138C35.1552 13.069 34.8966 12.8103 34.8966 12.5517C34.8966 12.2931 35.1552 12.0345 35.4138 12.0345H36.4483C36.7069 12.0345 36.9655 12.2931 36.9655 12.5517C36.9655 12.8103 36.7069 13.069 36.4483 13.069ZM34.8966 19.5862V16.6897C34.8966 16.3793 34.6897 16.1724 34.3793 16.1724C34.069 16.1724 33.8621 16.3793 33.8621 16.6897V19.5862C33.8621 19.5862 33.4483 19.0172 32.9828 19.431C32.7759 19.6379 32.7759 19.9483 32.9828 20.1552L34.0172 21.1897C34.0172 21.1897 34.3793 21.4483 34.7414 21.1897L35.7759 20.1552C35.9828 19.9483 35.9828 19.6379 35.7759 19.431C35.3621 19.0172 34.8966 19.5862 34.8966 19.5862ZM13.0172 19.431C12.5517 19.0172 12.1379 19.5862 12.1379 19.5862V16.6897C12.1379 16.3793 11.931 16.1724 11.6207 16.1724C11.3103 16.1724 11.1034 16.3793 11.1034 16.6897V19.5862C11.1034 19.5862 10.6379 18.9655 10.2241 19.431C10.0172 19.6379 10.0172 19.9483 10.2241 20.1552L11.2586 21.1897C11.2586 21.1897 11.6207 21.3966 11.9828 21.1897L13.0172 20.1552C13.2241 19.9483 13.2241 19.6379 13.0172 19.431Z" fill="#020A09"/>
</g>
</g>
<defs>
<clipPath id="clip0_1102_1134">
<rect width="46" height="46" fill="white"/>
</clipPath>
</defs>
</svg>
