<svg width="46" height="46" viewBox="0 0 46 46" fill="none" xmlns="http://www.w3.org/2000/svg">
<g clip-path="url(#clip0_1133_3086)">
<circle cx="23" cy="23" r="23" fill="#FDE410"/>
<g clip-path="url(#clip1_1133_3086)">
<path d="M33.1757 19.7867H32.6401C32.4981 19.7867 32.3619 19.7303 32.2614 19.6299C32.161 19.5294 32.1046 19.3932 32.1046 19.2512C32.1046 19.1091 32.161 18.9729 32.2614 18.8725C32.3619 18.772 32.4981 18.7156 32.6401 18.7156C32.7807 18.7147 32.9197 18.6858 33.0489 18.6306C33.1782 18.5754 33.2952 18.4951 33.3931 18.3943C33.5932 18.1956 33.7075 17.9264 33.7113 17.6445C33.7041 17.3626 33.5889 17.0944 33.3896 16.895C33.1902 16.6957 32.922 16.5805 32.6401 16.5733H24.6067C24.4646 16.5733 24.3284 16.5169 24.228 16.4165C24.1275 16.316 24.0711 16.1798 24.0711 16.0378C24.0711 15.8957 24.1275 15.7595 24.228 15.6591C24.3284 15.5586 24.4646 15.5022 24.6067 15.5022H27.255L27.5094 13.8955H23.3047C22.9638 13.8961 22.6279 13.9777 22.3246 14.1334C22.0214 14.2892 21.7594 14.5147 21.5604 14.7915L20.4892 16.2997C20.1911 16.7149 19.7986 17.0534 19.344 17.2872C18.8894 17.521 18.3858 17.6434 17.8746 17.6445H17.1088V24.2249C17.475 24.1232 17.8533 24.0715 18.2334 24.0712H29.9088C30.9442 24.0731 31.9437 24.4509 32.7215 25.1343C32.9899 25.1139 33.2407 24.9932 33.4241 24.7962C33.6075 24.5992 33.71 24.3404 33.7113 24.0712C33.7041 23.7894 33.5889 23.5211 33.3896 23.3218C33.1902 23.1225 32.922 23.0073 32.6401 23.0001C32.4981 23.0001 32.3619 22.9437 32.2614 22.8432C32.161 22.7428 32.1046 22.6066 32.1046 22.4645C32.1046 22.3225 32.161 22.1863 32.2614 22.0858C32.3619 21.9854 32.4981 21.929 32.6401 21.929H33.1757C33.4575 21.9217 33.7257 21.8065 33.925 21.6072C34.1243 21.4078 34.2395 21.1396 34.2468 20.8579C34.2396 20.576 34.1245 20.3077 33.9251 20.1084C33.7258 19.9091 33.4575 19.7939 33.1757 19.7867ZM33.0895 27.9054C32.9777 27.1404 32.5953 26.4409 32.0116 25.9339C31.428 25.4269 30.6818 25.146 29.9088 25.1424H18.2334C17.4601 25.146 16.7137 25.4269 16.1299 25.9341C15.5462 26.4413 15.1637 27.1412 15.0522 27.9064L13.9114 36.0566C13.8779 36.2981 13.8965 36.544 13.9661 36.7776C14.0356 37.0113 14.1545 37.2273 14.3147 37.4111C14.5918 37.7167 14.9684 37.914 15.3775 37.9678C15.7865 38.0216 16.2014 37.9283 16.548 37.7046C16.8316 37.5132 17.0518 37.2418 17.1805 36.9248L18.2184 34.3289C18.4136 33.8296 18.7553 33.401 19.1987 33.0995C19.642 32.7981 20.1663 32.638 20.7024 32.6403H27.4398C27.9761 32.638 28.5005 32.798 28.944 33.0994C29.3876 33.4008 29.7295 33.8295 29.9248 34.3289L30.9627 36.9248C31.0901 37.2406 31.3086 37.5113 31.5904 37.7024C31.9368 37.9281 32.3524 38.0227 32.7623 37.9694C33.1723 37.9161 33.5498 37.7183 33.8269 37.4116C33.9872 37.2278 34.1061 37.0117 34.1757 36.7779C34.2452 36.5442 34.2638 36.2982 34.2302 36.0566L33.0895 27.9054ZM20.3221 29.4269H19.251V30.498C19.251 30.6401 19.1946 30.7763 19.0942 30.8767C18.9937 30.9772 18.8575 31.0336 18.7154 31.0336C18.5734 31.0336 18.4372 30.9772 18.3367 30.8767C18.2363 30.7763 18.1799 30.6401 18.1799 30.498V29.4269H17.1088C16.9667 29.4269 16.8305 29.3705 16.7301 29.27C16.6296 29.1696 16.5732 29.0334 16.5732 28.8913C16.5732 28.7493 16.6296 28.6131 16.7301 28.5126C16.8305 28.4122 16.9667 28.3558 17.1088 28.3558H18.1799V27.2846C18.1799 27.1426 18.2363 27.0064 18.3367 26.9059C18.4372 26.8055 18.5734 26.7491 18.7154 26.7491C18.8575 26.7491 18.9937 26.8055 19.0942 26.9059C19.1946 27.0064 19.251 27.1426 19.251 27.2846V28.3558H20.3221C20.4642 28.3558 20.6004 28.4122 20.7008 28.5126C20.8013 28.6131 20.8577 28.7493 20.8577 28.8913C20.8577 29.0334 20.8013 29.1696 20.7008 29.27C20.6004 29.3705 20.4642 29.4269 20.3221 29.4269ZM27.8201 29.4269C27.7141 29.4269 27.6106 29.3955 27.5225 29.3366C27.4344 29.2778 27.3658 29.1941 27.3253 29.0963C27.2847 28.9984 27.2741 28.8907 27.2948 28.7868C27.3154 28.683 27.3664 28.5875 27.4413 28.5126C27.5163 28.4377 27.6117 28.3867 27.7156 28.3661C27.8195 28.3454 27.9271 28.356 28.025 28.3965C28.1229 28.4371 28.2065 28.5057 28.2654 28.5938C28.3242 28.6819 28.3556 28.7854 28.3556 28.8913C28.3556 29.0334 28.2992 29.1696 28.1988 29.27C28.0983 29.3705 27.9621 29.4269 27.8201 29.4269ZM29.4267 31.0336C29.3208 31.0336 29.2173 31.0022 29.1292 30.9433C29.0411 30.8845 28.9725 30.8008 28.9319 30.703C28.8914 30.6051 28.8808 30.4974 28.9015 30.3935C28.9221 30.2896 28.9731 30.1942 29.048 30.1193C29.1229 30.0444 29.2184 29.9934 29.3223 29.9727C29.4262 29.9521 29.5338 29.9627 29.6317 30.0032C29.7296 30.0438 29.8132 30.1124 29.8721 30.2005C29.9309 30.2885 29.9623 30.3921 29.9623 30.498C29.9623 30.6401 29.9059 30.7763 29.8054 30.8767C29.705 30.9772 29.5688 31.0336 29.4267 31.0336ZM29.4267 27.8202C29.3208 27.8202 29.2173 27.7888 29.1292 27.7299C29.0411 27.6711 28.9725 27.5874 28.9319 27.4896C28.8914 27.3917 28.8808 27.284 28.9015 27.1801C28.9221 27.0763 28.9731 26.9808 29.048 26.9059C29.1229 26.831 29.2184 26.78 29.3223 26.7594C29.4262 26.7387 29.5338 26.7493 29.6317 26.7898C29.7296 26.8304 29.8132 26.899 29.8721 26.9871C29.9309 27.0752 29.9623 27.1787 29.9623 27.2846C29.9623 27.4267 29.9059 27.5629 29.8054 27.6633C29.705 27.7638 29.5688 27.8202 29.4267 27.8202ZM31.0334 29.4269C30.9275 29.4269 30.824 29.3955 30.7359 29.3366C30.6478 29.2778 30.5792 29.1941 30.5386 29.0963C30.4981 28.9984 30.4875 28.8907 30.5082 28.7868C30.5288 28.683 30.5798 28.5875 30.6547 28.5126C30.7296 28.4377 30.8251 28.3867 30.929 28.3661C31.0328 28.3454 31.1405 28.356 31.2384 28.3965C31.3363 28.4371 31.4199 28.5057 31.4787 28.5938C31.5376 28.6819 31.569 28.7854 31.569 28.8913C31.569 29.0334 31.5126 29.1696 31.4121 29.27C31.3117 29.3705 31.1755 29.4269 31.0334 29.4269ZM16.0376 24.6839V17.1089C16.0376 16.9669 15.9812 16.8306 15.8808 16.7302C15.7803 16.6298 15.6441 16.5733 15.5021 16.5733H8.00415V27.2846H14.0898C14.375 26.1969 15.074 25.2636 16.0376 24.6839Z" fill="black"/>
<path d="M35.3491 8.90829L32.1737 8.41504C32.0757 9.04532 31.756 9.61992 31.2721 10.0354C30.7881 10.4509 30.1718 10.6801 29.5339 10.6815C29.3946 10.6815 29.2555 10.6707 29.1178 10.6494H29.1081L28.3396 15.5016H29.475C29.5613 14.981 29.7745 14.4897 30.0958 14.071C30.417 13.6524 30.8364 13.3193 31.317 13.1012C31.7975 12.8831 32.3244 12.7867 32.851 12.8205C33.3776 12.8543 33.8878 13.0173 34.3365 13.295C34.7852 13.5728 35.1586 13.9568 35.4237 14.4131C35.6887 14.8694 35.8374 15.384 35.8564 15.9113C35.8754 16.4387 35.7643 16.9626 35.5328 17.4369C35.3013 17.9111 34.9566 18.321 34.5291 18.6304C34.4564 18.7709 34.3686 18.9031 34.2672 19.0246C34.5842 19.215 34.8472 19.4834 35.0311 19.8042C35.215 20.125 35.3138 20.4875 35.318 20.8573C35.3171 21.1381 35.2604 21.4159 35.1513 21.6746C35.0422 21.9333 34.8827 22.1677 34.6823 22.3644C34.5567 22.4897 34.4164 22.5994 34.2646 22.6911C34.3063 22.7398 34.3395 22.7982 34.377 22.848L35.86 23.0756L37.5856 11.9669C36.8836 11.8576 36.2536 11.474 35.8343 10.9005C35.4149 10.327 35.2404 9.61042 35.3491 8.90829ZM33.3509 11.3076C33.2462 11.2914 33.1487 11.2446 33.0706 11.1729C32.9926 11.1013 32.9375 11.0081 32.9124 10.9052C32.8873 10.8023 32.8933 10.6943 32.9296 10.5947C32.9659 10.4952 33.0309 10.4087 33.1164 10.3462C33.2019 10.2836 33.304 10.2478 33.4099 10.2433C33.5157 10.2388 33.6205 10.2657 33.711 10.3208C33.8015 10.3758 33.8737 10.4565 33.9184 10.5525C33.963 10.6486 33.9782 10.7557 33.962 10.8604C33.9402 11.0007 33.8636 11.1267 33.749 11.2105C33.6344 11.2944 33.4912 11.3293 33.3509 11.3076Z" fill="black"/>
<path d="M34.6217 16.8514C34.7334 16.5803 34.7882 16.2891 34.7825 15.9959C34.7769 15.7027 34.7111 15.4138 34.589 15.1472C34.467 14.8805 34.2915 14.6418 34.0733 14.4459C33.8552 14.2499 33.599 14.101 33.3208 14.0082C33.0427 13.9155 32.7484 13.8809 32.4563 13.9067C32.1642 13.9325 31.8805 14.0181 31.6229 14.1582C31.3652 14.2983 31.1392 14.4898 30.9587 14.721C30.7783 14.9521 30.6473 15.2179 30.5739 15.5018H32.6401C33.0664 15.5075 33.4816 15.6385 33.834 15.8785C34.1864 16.1185 34.4603 16.4568 34.6217 16.8514ZM30.4759 9.30158C30.6467 9.17754 30.791 9.02082 30.9007 8.84054C31.0104 8.66025 31.0832 8.45998 31.1149 8.25134L29.5264 8.00391L29.2747 9.59186H29.2816C29.49 9.6252 29.7029 9.6167 29.908 9.56686C30.113 9.51703 30.3061 9.42684 30.4759 9.30158ZM36.4073 9.07504C36.3422 9.49563 36.4466 9.92489 36.6976 10.2686C36.9486 10.6123 37.3257 10.8424 37.7462 10.9083L37.9958 9.32032L36.4073 9.07504Z" fill="black"/>
</g>
</g>
<defs>
<clipPath id="clip0_1133_3086">
<rect width="46" height="46" fill="white"/>
</clipPath>
<clipPath id="clip1_1133_3086">
<rect width="30" height="30" fill="white" transform="translate(8 8)"/>
</clipPath>
</defs>
</svg>
