<svg width="17" height="16" viewBox="0 0 17 16" fill="none" xmlns="http://www.w3.org/2000/svg">
<path id="Subtract" fill-rule="evenodd" clip-rule="evenodd" d="M4.60578 0C2.49705 0 0.787598 1.70946 0.787598 3.81818V11.8182C0.787598 13.9269 2.49706 15.6364 4.60578 15.6364H12.6058C14.7145 15.6364 16.424 13.9269 16.424 11.8182V3.81818C16.424 1.70945 14.7145 0 12.6058 0H4.60578ZM8.60589 4.72714C6.89883 4.72714 5.51498 6.11099 5.51498 7.81805C5.51498 9.5251 6.89883 10.909 8.60589 10.909C10.3129 10.909 11.6968 9.5251 11.6968 7.81805C11.6968 6.11099 10.3129 4.72714 8.60589 4.72714ZM4.42407 7.81805C4.42407 5.50849 6.29633 3.63623 8.60589 3.63623C10.9154 3.63623 12.7877 5.50849 12.7877 7.81805C12.7877 10.1276 10.9154 11.9999 8.60589 11.9999C6.29633 11.9999 4.42407 10.1276 4.42407 7.81805ZM11.6968 3.45437C11.6968 2.75146 12.2666 2.18164 12.9695 2.18164C13.6724 2.18164 14.2422 2.75146 14.2422 3.45437C14.2422 4.15728 13.6724 4.7271 12.9695 4.7271C12.2666 4.7271 11.6968 4.15728 11.6968 3.45437Z" fill="white"/>
</svg>
