<svg width="653" height="96" viewBox="0 0 653 96" fill="none" xmlns="http://www.w3.org/2000/svg">
<path d="M652.009 45.0851L628.18 1.44873C627.439 0.523635 626.403 0 625.305 0H3.86858C3.12211 0.000913425 2.39176 0.245161 1.76523 0.703408C1.13871 1.16165 0.642657 1.81441 0.336669 2.58327C-0.281608 4.16291 -0.0265677 6.00436 0.993589 7.27854L33.4454 48L0.993589 88.7127C-0.0265677 89.9956 -0.289336 91.8371 0.336669 93.408C0.962638 94.9789 3.86858 96 3.86858 96H159.228H314.587H625.305C626.403 96 627.439 95.4676 628.18 94.56L652.009 50.9236C653.33 49.2655 653.33 46.7345 652.009 45.0851Z" fill="url(#paint0_linear_1047_601)" fill-opacity="0.5"/>
<defs>
<linearGradient id="paint0_linear_1047_601" x1="653" y1="0" x2="11.0628" y2="-8.53473" gradientUnits="userSpaceOnUse">
<stop stop-color="#30E1A2"/>
<stop offset="1" stop-color="#19C369" stop-opacity="0"/>
</linearGradient>
</defs>
</svg>
