<svg width="656" height="96" viewBox="0 0 656 96" fill="none" xmlns="http://www.w3.org/2000/svg">
<path d="M0.995728 45.0851L24.9335 1.44873C25.6789 0.523635 26.7192 0 27.8217 0H652.114C652.864 0.000913425 653.597 0.245161 654.227 0.703408C654.856 1.16165 655.354 1.81441 655.662 2.58327C656.283 4.16291 656.027 6.00436 655.002 7.27854L622.401 48L655.002 88.7127C656.027 89.9956 656.291 91.8371 655.662 93.408C655.033 94.9789 652.114 96 652.114 96H496.041H339.968H27.8217C26.7192 96 25.6789 95.4676 24.9335 94.56L0.995728 50.9236C-0.331909 49.2655 -0.331909 46.7345 0.995728 45.0851Z" fill="url(#paint0_linear_1047_659)" fill-opacity="0.5"/>
<defs>
<linearGradient id="paint0_linear_1047_659" x1="0.00038445" y1="0" x2="644.885" y2="-8.61332" gradientUnits="userSpaceOnUse">
<stop stop-color="#30E1A2"/>
<stop offset="1" stop-color="#19C369" stop-opacity="0"/>
</linearGradient>
</defs>
</svg>
