<svg width="46" height="46" viewBox="0 0 46 46" fill="none" xmlns="http://www.w3.org/2000/svg">
<g id="Frame" clip-path="url(#clip0_1100_1094)">
<g id="Group">
<circle id="Ellipse 6" cx="23" cy="23" r="23" fill="#FDE410"/>
<path id="Vector" d="M24.2256 14.2354C23.4899 14.9779 22.2977 14.9779 21.5621 14.2354C20.8266 13.4929 20.8266 12.289 21.5621 11.5465C22.2976 10.804 23.4899 10.804 24.2256 11.5465C24.9609 12.289 24.9609 13.4929 24.2256 14.2354V14.2354ZM26.7983 17.1164C26.5689 17.1164 26.3394 17.0278 26.1647 16.8504C25.8154 16.4965 25.816 15.9232 26.1659 15.57C26.8748 14.8543 27.2651 13.9029 27.2651 12.891C27.2651 11.879 26.8748 10.9276 26.1659 10.2119C25.816 9.85849 25.8154 9.28538 26.1647 8.9313C26.5139 8.57745 27.0807 8.57681 27.4305 8.93013C28.4784 9.98804 29.0554 11.3946 29.0554 12.891C29.0554 14.3871 28.4784 15.7939 27.4305 16.8518C27.3476 16.9358 27.249 17.0024 27.1405 17.0478C27.032 17.0933 26.9157 17.1165 26.7983 17.1164Z" fill="#020A09"/>
<path id="Vector_2" d="M28.8231 19.7824C28.7054 19.7826 28.5888 19.7592 28.48 19.7136C28.3713 19.668 28.2726 19.601 28.1895 19.5166C27.8402 19.1626 27.8408 18.5894 28.1907 18.2361C29.6049 16.8083 30.384 14.9102 30.384 12.8912C30.384 10.8722 29.6049 8.97415 28.1907 7.5464C27.8408 7.19296 27.8402 6.61986 28.1895 6.26577C28.5389 5.91193 29.1055 5.91128 29.4553 6.2646C31.2086 8.0346 32.1743 10.388 32.1741 12.8912C32.1741 15.3945 31.2086 17.748 29.4553 19.518C29.3723 19.602 29.2738 19.6686 29.1653 19.7139C29.0568 19.7593 28.9405 19.7826 28.8231 19.7824H28.8231ZM18.9848 17.1166C18.8674 17.1168 18.7511 17.0935 18.6425 17.0481C18.534 17.0027 18.4354 16.936 18.3524 16.852C17.3045 15.7941 16.7275 14.3874 16.7275 12.8912C16.7275 11.3948 17.3045 9.98829 18.3524 8.93044C18.7023 8.577 19.269 8.57747 19.6182 8.93161C19.9675 9.2854 19.9669 9.85874 19.617 10.2122C18.9081 10.9278 18.5178 11.8793 18.5178 12.8912C18.5178 13.9031 18.9081 14.8546 19.617 15.5703C19.9669 15.9234 19.9675 16.4968 19.6182 16.8506C19.5352 16.935 19.4365 17.002 19.3278 17.0476C19.2191 17.0933 19.1025 17.1167 18.9848 17.1166Z" fill="#020A09"/>
<path id="Vector_3" d="M16.9602 19.7825C16.8427 19.7827 16.7264 19.7594 16.6179 19.714C16.5093 19.6686 16.4107 19.602 16.3277 19.5179C14.5745 17.748 13.609 15.3946 13.609 12.8913C13.609 10.3879 14.5745 8.0345 16.3277 6.26456C16.6776 5.91136 17.2444 5.91182 17.5935 6.26591C17.9428 6.61981 17.9423 7.19286 17.5924 7.54629C16.1782 8.97405 15.3991 10.8721 15.3991 12.8911C15.3991 14.91 16.1782 16.8084 17.5924 18.2362C17.9423 18.5896 17.9428 19.1627 17.5935 19.5168C17.5105 19.6012 17.4118 19.6681 17.3031 19.7137C17.1944 19.7593 17.0779 19.7827 16.9602 19.7825ZM34.6893 21.3478H11.0939C9.93749 21.3478 9 22.296 9 23.4657V33.8818C9 35.0516 9.93749 35.9999 11.0939 35.9999H34.6892C35.8456 35.9999 36.7831 35.0516 36.7831 33.8818V23.4657C36.7831 22.2961 35.8456 21.3478 34.6893 21.3478ZM15.8858 33.2823H12.5879C12.0936 33.2823 11.6929 32.877 11.6929 32.3769V24.9708C11.6929 24.4709 12.0936 24.0653 12.5879 24.0653C13.0823 24.0653 13.483 24.4707 13.483 24.9708V31.4715H15.8858C16.3802 31.4715 16.7809 31.8768 16.7809 32.3769C16.7809 32.877 16.3802 33.2824 15.8858 33.2824V33.2823ZM19.5542 32.3769C19.5542 32.877 19.1535 33.2823 18.659 33.2823C18.1646 33.2823 17.7639 32.877 17.7639 32.3769V24.9708C17.7639 24.4709 18.1646 24.0653 18.659 24.0653C19.1535 24.0653 19.5542 24.4707 19.5542 24.9708V32.3769ZM27.0856 25.2325L24.8751 32.6385L24.8744 32.6405C24.6343 33.4693 23.4104 33.449 23.1619 32.6405L23.1613 32.6385L20.9508 25.2325C20.808 24.7537 21.0757 24.2486 21.5491 24.104C22.022 23.9595 22.5218 24.2303 22.6646 24.7091L24.0182 29.2439L25.3718 24.7091C25.5148 24.2303 26.0142 23.9593 26.4876 24.104C26.9607 24.2486 27.2286 24.7538 27.0856 25.2325ZM32.5925 27.3021C33.0869 27.3021 33.4876 27.7075 33.4876 28.2076C33.4876 28.7074 33.0869 29.113 32.5925 29.113H30.0523V31.4714H33.0746C33.5691 31.4714 33.9698 31.8768 33.9698 32.3769C33.9698 32.877 33.5691 33.2823 33.0746 33.2823H29.1572C28.6627 33.2823 28.262 32.877 28.262 32.3769V24.9708C28.262 24.4709 28.6627 24.0653 29.1572 24.0653H33.1952C33.6895 24.0653 34.0904 24.4707 34.0904 24.9708C34.0904 25.4709 33.6895 25.8763 33.1952 25.8763H30.0521V27.3022L32.5925 27.3021Z" fill="#020A09"/>
</g>
</g>
<defs>
<clipPath id="clip0_1100_1094">
<rect width="46" height="46.0001" fill="white"/>
</clipPath>
</defs>
</svg>
