<svg width="46" height="46" viewBox="0 0 46 46" fill="none" xmlns="http://www.w3.org/2000/svg">
<g id="Frame" clip-path="url(#clip0_1100_1111)">
<g id="Group">
<circle id="Ellipse 6" cx="23" cy="23" r="23" fill="#FDE410"/>
<path id="Vector" fill-rule="evenodd" clip-rule="evenodd" d="M31.3035 25.1426C30.8597 25.1426 30.4999 25.5024 30.4999 25.9462V30.4997C30.4999 30.7956 30.2601 31.0354 29.9642 31.0354C29.6684 31.0354 29.4285 30.7956 29.4285 30.4997V21.6605C29.426 21.5007 29.3766 21.3451 29.2865 21.2131C29.1964 21.0811 29.0696 20.9784 28.9216 20.9178C28.7737 20.8572 28.6113 20.8414 28.4545 20.8723C28.2976 20.9032 28.1533 20.9794 28.0394 21.0916C27.9632 21.1653 27.9027 21.2538 27.8615 21.3516C27.8204 21.4493 27.7995 21.5544 27.8 21.6605V31.0248C27.8004 31.1163 27.7775 31.2063 27.7333 31.2864C27.689 31.3665 27.625 31.4339 27.5474 31.4823C27.4697 31.5306 27.3809 31.5583 27.2896 31.5626C27.1982 31.5669 27.1072 31.5478 27.0253 31.5069L24.186 30.0921C23.6665 29.8183 23.0249 29.9657 22.677 30.4387C22.5407 30.6364 22.4666 30.8704 22.4643 31.1105C22.4637 31.2906 22.5054 31.4682 22.5862 31.6291C22.667 31.7901 22.7845 31.9297 22.9293 32.0367C24.1554 32.9382 25.323 33.9168 26.4248 34.9666C27.0537 35.6169 27.5848 36.3551 28.0014 37.1582C28.0543 37.2534 28.1166 37.3432 28.1873 37.4261C28.1975 37.4389 28.2082 37.4518 28.2173 37.4657C28.3685 37.6343 28.5536 37.769 28.7605 37.861C28.9674 37.9531 29.1914 38.0004 29.4179 37.9998H35.3161C36.5005 38.0001 37.4617 37.0414 37.4643 35.857V29.1605C37.4643 28.7167 37.1045 28.3569 36.6607 28.3569C36.2169 28.3569 35.8571 28.7167 35.8571 29.1605V30.4997C35.8571 30.7956 35.6173 31.0354 35.3214 31.0354C35.0256 31.0354 34.7857 30.7956 34.7857 30.4997V27.5533C34.7857 27.1095 34.426 26.7498 33.9822 26.7498C33.5384 26.7498 33.1786 27.1095 33.1786 27.5533V30.4997C33.1786 30.7956 32.9388 31.0354 32.6429 31.0354C32.347 31.0354 32.1072 30.7956 32.1072 30.4997V25.9462C32.1071 25.5024 31.7473 25.1426 31.3035 25.1426ZM12.9912 9.33104L12.4726 8.03516C11.1432 8.2076 10.147 9.33783 10.1428 10.6784V12.2855H27.2856V10.6784C27.2815 9.33783 26.2852 8.2076 24.9558 8.03516L24.4372 9.33104C24.2794 9.72955 24.0051 10.0713 23.6502 10.3116C23.2953 10.5519 22.8762 10.6797 22.4476 10.6784H14.9808C14.5522 10.6797 14.1331 10.5519 13.7782 10.3116C13.4233 10.0713 13.1491 9.72955 12.9912 9.33104Z" fill="#020A09"/>
<path id="Vector_2" d="M24.6606 29.1299L26.7269 30.1595V25.1426H10.1428V35.3211C10.1446 36.7997 11.3428 37.9979 12.8214 37.9997H24.6071C25.0032 38.0007 25.3945 37.9132 25.7524 37.7436C26.1104 37.5739 26.4259 37.3265 26.676 37.0193C26.3931 36.5518 26.0563 36.119 25.6726 35.7299C24.6056 34.7142 23.4751 33.7673 22.288 32.8949C22.0091 32.6886 21.7828 32.4196 21.6273 32.1096C21.4718 31.7996 21.3914 31.4573 21.3928 31.1105C21.3921 30.7261 21.4908 30.3481 21.6791 30.013C21.8674 29.6779 22.139 29.3971 22.4676 29.1977C22.7963 28.9984 23.1708 28.8872 23.555 28.8751C23.9392 28.8629 24.32 28.9502 24.6606 29.1283V29.1299ZM24.607 35.3211C24.9029 35.3211 25.1427 35.561 25.1427 35.8568C25.1427 36.1527 24.9029 36.3925 24.607 36.3925H12.8214C12.5256 36.3925 12.2857 36.1527 12.2857 35.8568C12.2857 35.561 12.5256 35.3211 12.8214 35.3211H24.607Z" fill="#020A09"/>
<g id="Group_2">
<path id="Vector_3" fill-rule="evenodd" clip-rule="evenodd" d="M14.9809 9.60714H22.4477C22.6619 9.60793 22.8714 9.54408 23.0488 9.42395C23.2261 9.30382 23.3632 9.13299 23.4419 8.93377L23.8158 8H13.6127L13.9877 8.93377C14.0664 9.13281 14.2033 9.30352 14.3804 9.42364C14.5576 9.54375 14.7668 9.6077 14.9809 9.60714ZM14.4286 17.1071C14.4286 16.5154 13.9489 16.0357 13.3571 16.0357H11.75V18.1785H13.3571C13.9489 18.1785 14.4286 17.6989 14.4286 17.1071ZM14.4286 20.3214C14.4286 19.7297 13.9489 19.2499 13.3571 19.2499H11.75V21.3928H13.3571C13.9489 21.3928 14.4286 20.9131 14.4286 20.3214Z" fill="#020A09"/>
</g>
<path id="Vector_4" d="M9.07144 24.0712H26.7286V21.6605C26.7272 21.4125 26.7758 21.1668 26.8716 20.9381C26.9673 20.7094 27.1081 20.5023 27.2857 20.3292C27.5617 20.0546 27.9165 19.873 28.3007 19.8098C28.6848 19.7466 29.0791 19.805 29.4285 19.9767V14.4284C29.4285 13.8367 28.9489 13.3569 28.3571 13.3569H9.07144C8.47974 13.3569 8 13.8366 8 14.4284V22.9998C8.00005 23.5915 8.47974 24.0712 9.07144 24.0712ZM22.4643 14.9641H26.75C27.0459 14.9641 27.2857 15.2039 27.2857 15.4998C27.2857 15.7956 27.0459 16.0355 26.75 16.0355H25.1429V21.9283C25.1429 22.2241 24.903 22.464 24.6072 22.464C24.3113 22.464 24.0715 22.2241 24.0715 21.9283V16.0355H22.4643C22.1685 16.0355 21.9286 15.7957 21.9286 15.4998C21.9286 15.204 22.1684 14.9641 22.4643 14.9641ZM16.5715 15.4998C16.5715 15.2039 16.8113 14.9641 17.1072 14.9641H20.3214C20.6173 14.9641 20.8571 15.2039 20.8571 15.4998C20.8571 15.7956 20.6173 16.0355 20.3214 16.0355H17.6428V18.1783H20.3214C20.6173 18.1783 20.8571 18.4182 20.8571 18.714C20.8571 19.0099 20.6173 19.2497 20.3214 19.2497H17.6428V21.3925H20.3214C20.6173 21.3925 20.8571 21.6324 20.8571 21.9282C20.8571 22.2241 20.6173 22.4639 20.3214 22.4639H17.1072C16.8113 22.4639 16.5715 22.2241 16.5715 21.9282V15.4998ZM10.6786 18.7141V15.4998C10.6786 15.2039 10.9184 14.9641 11.2143 14.9641H13.3571C14.2507 14.9601 15.0521 15.5134 15.3651 16.3503C15.5179 16.759 15.5418 17.2047 15.4336 17.6273C15.3253 18.0499 15.0901 18.4292 14.7596 18.7141C15.09 18.9989 15.3252 19.3782 15.4335 19.8008C15.5417 20.2234 15.5179 20.6691 15.365 21.0777C15.2122 21.4864 14.9378 21.8383 14.5788 22.0862C14.2198 22.3341 13.7934 22.4659 13.3571 22.464H11.2143C10.9185 22.464 10.6786 22.2242 10.6786 21.9283L10.6786 18.7141Z" fill="#020A09"/>
</g>
</g>
<defs>
<clipPath id="clip0_1100_1111">
<rect width="46" height="46" fill="white"/>
</clipPath>
</defs>
</svg>
