<svg width="46" height="46" viewBox="0 0 46 46" fill="none" xmlns="http://www.w3.org/2000/svg">
<g clip-path="url(#clip0_1132_3034)">
<circle cx="23" cy="23" r="23" fill="#FDE410"/>
<g clip-path="url(#clip1_1132_3034)">
<path d="M23.8521 25.1241L25.966 27.238L27.0217 24.4217L25.259 24.0689L23.8521 25.1241ZM22.2776 25.1241L20.8702 24.0689L19.1074 24.4217L20.1636 27.238L22.2776 25.1241ZM24.6166 23.2589V22.2451C23.6066 22.5634 22.5231 22.5634 21.5131 22.2451V23.2589L23.0648 24.4232L24.6166 23.2589ZM28.2372 30.2417C28.2372 30.3788 28.2917 30.5104 28.3887 30.6074C28.4857 30.7044 28.6173 30.7589 28.7545 30.7589H35.9959C36.1331 30.7589 36.2646 30.7044 36.3616 30.6074C36.4586 30.5104 36.5131 30.3788 36.5131 30.2417C36.5131 30.1045 36.4586 29.9729 36.3616 29.8759C36.2646 29.7789 36.1331 29.7244 35.9959 29.7244H28.7545C28.6173 29.7244 28.4857 29.7789 28.3887 29.8759C28.2917 29.9729 28.2372 30.1045 28.2372 30.2417ZM35.9959 31.7934H28.7545C28.6173 31.7934 28.4857 31.8479 28.3887 31.9449C28.2917 32.0419 28.2372 32.1735 28.2372 32.3106C28.2372 32.4478 28.2917 32.5794 28.3887 32.6764C28.4857 32.7734 28.6173 32.8279 28.7545 32.8279H35.9959C36.1331 32.8279 36.2646 32.7734 36.3616 32.6764C36.4586 32.5794 36.5131 32.4478 36.5131 32.3106C36.5131 32.1735 36.4586 32.0419 36.3616 31.9449C36.2646 31.8479 36.1331 31.7934 35.9959 31.7934Z" fill="black"/>
<path d="M26.6523 28.3532C26.6219 28.4342 26.5716 28.5063 26.5061 28.5629C26.4406 28.6195 26.3619 28.6587 26.2773 28.677C26.1927 28.6953 26.1049 28.6922 26.0218 28.6678C25.9388 28.6434 25.8632 28.5985 25.802 28.5373L23.582 26.3163V32.8273H27.2978C27.2004 32.5654 27.1779 32.2815 27.2327 32.0074C27.2875 31.7334 27.4175 31.48 27.6082 31.2756C27.3488 30.9934 27.2042 30.6244 27.2027 30.2411C27.2027 29.8296 27.3661 29.4349 27.6571 29.1439C27.9482 28.8529 28.3428 28.6894 28.7544 28.6894H32.8923V27.6585C32.8924 27.0528 32.6798 26.4662 32.2917 26.0012C31.9036 25.5361 31.3645 25.222 30.7685 25.1137L28.0525 24.6197L26.6523 28.3532ZM27.2027 14.3277L26.4997 12.9229L26.1682 13.1722C25.2728 13.8437 24.1839 14.2066 23.0647 14.2066C21.9456 14.2066 20.8566 13.8437 19.9613 13.1722L19.6297 12.9234L18.9268 14.3277V17.3101C18.9268 18.4075 19.3628 19.46 20.1388 20.2361C20.9148 21.0121 21.9673 21.448 23.0647 21.448C24.1622 21.448 25.2147 21.0121 25.9907 20.2361C26.7667 19.46 27.2027 18.4075 27.2027 17.3101V14.3277ZM21.2544 16.7929C21.1009 16.7929 20.9509 16.7473 20.8233 16.6621C20.6957 16.5768 20.5963 16.4557 20.5376 16.3139C20.4789 16.1721 20.4635 16.0161 20.4934 15.8656C20.5234 15.7151 20.5973 15.5769 20.7058 15.4684C20.8143 15.3599 20.9525 15.286 21.103 15.256C21.2535 15.2261 21.4095 15.2415 21.5513 15.3002C21.6931 15.3589 21.8142 15.4584 21.8995 15.5859C21.9847 15.7135 22.0302 15.8635 22.0302 16.017C22.0302 16.2228 21.9485 16.4201 21.803 16.5656C21.6575 16.7111 21.4602 16.7929 21.2544 16.7929ZM24.0992 20.4135H22.0302V19.3791H24.0992V20.4135ZM24.8751 16.7929C24.7216 16.7929 24.5716 16.7473 24.444 16.6621C24.3164 16.5768 24.217 16.4557 24.1583 16.3139C24.0995 16.1721 24.0842 16.0161 24.1141 15.8656C24.1441 15.7151 24.2179 15.5769 24.3265 15.4684C24.435 15.3599 24.5732 15.286 24.7237 15.256C24.8742 15.2261 25.0302 15.2415 25.172 15.3002C25.3137 15.3589 25.4349 15.4584 25.5202 15.5859C25.6054 15.7135 25.6509 15.8635 25.6509 16.017C25.6509 16.2228 25.5692 16.4201 25.4237 16.5656C25.2782 16.7111 25.0808 16.7929 24.8751 16.7929ZM10.1337 32.8273H17.3751C17.5123 32.8273 17.6438 32.7728 17.7408 32.6758C17.8378 32.5788 17.8923 32.4473 17.8923 32.3101C17.8923 32.1729 17.8378 32.0414 17.7408 31.9444C17.6438 31.8473 17.5123 31.7929 17.3751 31.7929H10.1337C9.99651 31.7929 9.86495 31.8473 9.76795 31.9444C9.67095 32.0414 9.61645 32.1729 9.61645 32.3101C9.61645 32.4473 9.67095 32.5788 9.76795 32.6758C9.86495 32.7728 9.99651 32.8273 10.1337 32.8273ZM8.06421 36.9648H38.0642V37.9992H8.06421V36.9648ZM37.5475 33.8618H8.58197C8.44479 33.8618 8.31322 33.9163 8.21622 34.0133C8.11922 34.1103 8.06473 34.2419 8.06473 34.3791V35.9308H38.0647V34.3791C38.0647 34.2419 38.0102 34.1103 37.9132 34.0133C37.8162 33.9163 37.6847 33.8618 37.5475 33.8618ZM10.1337 30.7584H17.3751C17.5123 30.7584 17.6438 30.7039 17.7408 30.6069C17.8378 30.5099 17.8923 30.3783 17.8923 30.2411C17.8923 30.1039 17.8378 29.9724 17.7408 29.8754C17.6438 29.7784 17.5123 29.7239 17.3751 29.7239H10.1337C9.99651 29.7239 9.86495 29.7784 9.76795 29.8754C9.67095 29.9724 9.61645 30.1039 9.61645 30.2411C9.61645 30.3783 9.67095 30.5099 9.76795 30.6069C9.86495 30.7039 9.99651 30.7584 10.1337 30.7584Z" fill="black"/>
<path d="M18.9267 30.2416C18.9254 30.6246 18.7814 30.9935 18.5227 31.2761C18.714 31.4801 18.8444 31.7335 18.8992 32.0077C18.954 32.2819 18.9311 32.5659 18.8331 32.8278H22.5474V26.3178L20.3269 28.5378C20.2657 28.599 20.1901 28.644 20.107 28.6684C20.024 28.6929 19.9361 28.6961 19.8515 28.6778C19.7668 28.6594 19.6882 28.6202 19.6227 28.5635C19.5572 28.5069 19.5069 28.4347 19.4765 28.3536L18.0769 24.6202L15.3603 25.1142C14.7644 25.2226 14.2255 25.5367 13.8375 26.0018C13.4495 26.4668 13.237 27.0533 13.2371 27.659V28.6899H17.375C17.7865 28.6899 18.1812 28.8533 18.4722 29.1443C18.7632 29.4353 18.9267 29.83 18.9267 30.2416ZM29.2715 15.7588C29.2715 15.6216 29.217 15.4901 29.12 15.3931C29.023 15.2961 28.8915 15.2416 28.7543 15.2416H28.2371V16.2761H28.7543C28.8915 16.2761 29.023 16.2216 29.12 16.1246C29.217 16.0276 29.2715 15.896 29.2715 15.7588ZM17.375 16.2761H17.8922V15.2416H17.375C17.2378 15.2416 17.1062 15.2961 17.0092 15.3931C16.9122 15.4901 16.8577 15.6216 16.8577 15.7588C16.8577 15.896 16.9122 16.0276 17.0092 16.1246C17.1062 16.2216 17.2378 16.2761 17.375 16.2761ZM18.2802 13.3086L18.981 11.9064C19.0148 11.8381 19.0632 11.7782 19.1228 11.7308C19.1824 11.6834 19.2518 11.6498 19.3259 11.6323C19.4 11.6148 19.477 11.6139 19.5516 11.6296C19.6261 11.6453 19.6962 11.6773 19.7569 11.7233L20.5845 12.344C21.3006 12.8816 22.1718 13.1722 23.0672 13.1722C23.9627 13.1722 24.8339 12.8816 25.55 12.344L26.3776 11.7233C26.4384 11.6784 26.5082 11.6471 26.5822 11.6317C26.6562 11.6162 26.7327 11.6169 26.8064 11.6338C26.8802 11.6513 26.9493 11.6847 27.0087 11.7318C27.0681 11.7789 27.1165 11.8385 27.1503 11.9064L27.8072 13.2202L27.8424 13.1395C28.1675 12.3837 28.1835 11.5306 27.8868 10.7632C27.5901 9.99579 27.0045 9.37524 26.2555 9.03468L24.8124 8.37778C24.1817 8.09932 23.4928 7.97844 22.805 8.02557C22.1171 8.0727 21.4511 8.28642 20.8643 8.6483C21.6631 8.86796 22.3559 9.36842 22.8153 10.0578L22.9772 10.3004L22.1171 10.873L21.9546 10.6293C21.7339 10.2975 21.4344 10.0255 21.083 9.83751C20.7315 9.64952 20.3391 9.55141 19.9405 9.55192C19.5677 9.55204 19.2011 9.64741 18.8755 9.82899C18.5499 10.0106 18.2761 10.2723 18.0801 10.5895C17.8841 10.9066 17.7723 11.2685 17.7555 11.6409C17.7386 12.0134 17.8172 12.3839 17.9838 12.7174L18.2802 13.3086Z" fill="black"/>
</g>
</g>
<defs>
<clipPath id="clip0_1132_3034">
<rect width="46" height="46" fill="white"/>
</clipPath>
<clipPath id="clip1_1132_3034">
<rect width="30.0647" height="30" fill="white" transform="translate(8 8)"/>
</clipPath>
</defs>
</svg>
