<svg width="46" height="46" viewBox="0 0 46 46" fill="none" xmlns="http://www.w3.org/2000/svg">
<g clip-path="url(#clip0_1133_3070)">
<circle cx="23" cy="23" r="23" fill="#FDE410"/>
<path d="M13.3234 8.96553C13.3113 8.82631 13.2716 8.6909 13.2064 8.56727C13.1413 8.44364 13.052 8.33429 12.944 8.24566C12.8357 8.15587 12.7106 8.08838 12.5761 8.04706C12.4416 8.00575 12.3002 7.99143 12.1602 8.00492L8.96995 8.30453C8.83026 8.31704 8.69441 8.35704 8.57023 8.42222C8.44604 8.48741 8.33597 8.5765 8.24633 8.68437C8.15661 8.79215 8.08907 8.9166 8.0476 9.05056C8.00613 9.18453 7.99154 9.32537 8.00468 9.46499L8.15521 11.0603L13.4743 10.5621L13.3234 8.96553ZM15.8695 37.8224C15.9199 37.7675 15.9581 37.7026 15.9816 37.632C16.0052 37.5613 16.0135 37.4865 16.0061 37.4123L15.4719 31.7406C13.0617 28.7369 12.6715 24.5861 14.4803 21.1858L13.5776 11.6254L8.25855 12.1238L10.653 37.5164C10.6656 37.649 10.7274 37.7722 10.8262 37.8616C10.9249 37.9511 11.0536 38.0004 11.1869 37.9999H15.4769C15.5512 37.9996 15.6245 37.9837 15.6922 37.9531C15.7598 37.9225 15.8202 37.878 15.8695 37.8224ZM20.2527 16.4869C21.9955 15.9756 23.8478 15.9699 25.5937 16.4704L25.6316 11.8263H20.2907L20.2527 16.4869Z" fill="black"/>
<path d="M21.7455 30.6628C18.4956 27.4362 17.3262 22.6619 18.7171 18.2988C18.3059 18.5317 17.9148 18.7984 17.5479 19.0963C17.4699 19.3789 17.3964 19.663 17.3392 19.9454C17.3109 20.0842 17.2286 20.206 17.1105 20.2841C16.9924 20.3623 16.8481 20.3903 16.7093 20.3621C16.6033 20.3389 16.5073 20.2828 16.435 20.2018C14.2897 22.7357 13.8073 26.2832 15.1985 29.2974C16.5895 32.312 19.6017 34.2469 22.9216 34.2587C22.9055 34.1505 22.9242 34.04 22.975 33.9432C23.0434 33.8191 23.1582 33.7272 23.2943 33.6877C23.4305 33.6484 23.5767 33.6648 23.7008 33.7333C23.9518 33.872 24.2141 34.0004 24.477 34.12C25.1216 34.0053 25.7507 33.816 26.3516 33.5558C24.6183 32.95 23.0439 31.9611 21.7455 30.6628ZM16.1908 24.7304C16.0726 23.9957 16.0131 23.2527 16.0131 22.5085V22.2266C16.0206 22.0865 16.0811 21.9546 16.1822 21.8574C16.2833 21.7602 16.4176 21.705 16.5578 21.7031C16.628 21.7045 16.6972 21.7197 16.7615 21.7479C16.8258 21.7761 16.8839 21.8167 16.9325 21.8673C16.9811 21.9179 17.0193 21.9777 17.0448 22.0431C17.0703 22.1085 17.0827 22.1783 17.0811 22.2485V22.5085C17.0816 23.1959 17.1364 23.8817 17.2456 24.5602C17.2924 24.8512 17.0946 25.1253 16.8034 25.1721C16.775 25.1768 16.7462 25.1792 16.7174 25.1792C16.5906 25.179 16.4681 25.1338 16.3716 25.0516C16.2752 24.9693 16.2111 24.8555 16.1908 24.7304ZM18.5942 29.6366C18.5132 29.6836 18.4211 29.7082 18.3274 29.7077C18.2334 29.708 18.1411 29.6834 18.0596 29.6365C17.9782 29.5896 17.9106 29.522 17.8636 29.4406C17.4456 28.7141 17.0943 27.9511 16.8141 27.1611C16.7688 27.0281 16.7777 26.8826 16.8389 26.7561C16.9002 26.6296 17.0087 26.5323 17.1412 26.4852C17.417 26.3876 17.7199 26.5299 17.8209 26.8043C18.0796 27.533 18.4041 28.2366 18.7904 28.9065C18.8254 28.9674 18.8481 29.0346 18.8572 29.1042C18.8663 29.1739 18.8615 29.2446 18.8432 29.3124C18.8249 29.3802 18.7934 29.4438 18.7505 29.4994C18.7076 29.555 18.6542 29.6016 18.5932 29.6366L18.5942 29.6366ZM21.849 33.1789C21.7591 33.2882 21.6293 33.3573 21.4884 33.371C21.3475 33.3847 21.2069 33.3418 21.0975 33.2519C20.7433 32.9612 20.4037 32.6532 20.08 32.329C19.8132 32.0647 19.5551 31.7828 19.3089 31.4928C19.1179 31.2678 19.1453 30.9305 19.3703 30.7395C19.5954 30.5485 19.9324 30.5761 20.1233 30.8011C20.3509 31.0681 20.5903 31.3293 20.8349 31.5734C21.1348 31.873 21.4488 32.1582 21.7758 32.428C22.0029 32.6154 22.0351 32.9515 21.8481 33.1789H21.849Z" fill="black"/>
<path d="M28.9747 30.8483C29.2079 30.897 29.4512 30.9275 29.6929 30.9593C30.5081 29.9144 31.0689 28.6941 31.3308 27.395C31.5928 26.0959 31.5487 24.7536 31.2022 23.4745C30.8556 22.1952 30.2161 21.0142 29.3341 20.0249C28.4522 19.0356 27.3521 18.2652 26.1209 17.7746H26.1178C26.0079 17.7711 25.9019 17.7328 25.815 17.6652C24.8976 17.3373 23.9308 17.1688 22.9565 17.167C22.7514 17.167 22.5483 17.1823 22.346 17.1968C22.2392 17.4141 22.1324 17.6316 22.0405 17.8538C22.0055 17.9408 21.9482 18.0171 21.8745 18.0749C21.8007 18.1328 21.713 18.1702 21.6202 18.1834C21.5274 18.1966 21.4327 18.1851 21.3457 18.1501C21.2586 18.1152 21.1823 18.0579 21.1244 17.9842C21.0666 17.9104 21.0292 17.8226 21.016 17.7298C21.0028 17.637 21.0143 17.5423 21.0492 17.4553C21.0594 17.4298 21.0716 17.4052 21.0823 17.3794C20.7429 17.456 20.4084 17.5534 20.0809 17.671C19.4598 19.1569 19.1666 20.7594 19.2216 22.369C19.2766 23.9786 19.6784 25.5573 20.3995 26.9973C21.1206 28.4374 22.144 29.7049 23.3998 30.7131C24.6557 31.7214 26.1144 32.4467 27.6762 32.8395C28.0875 32.5629 28.474 32.2512 28.8315 31.908C28.8064 31.9026 28.7781 31.9012 28.7546 31.8958C28.6608 31.8788 28.5732 31.8369 28.501 31.7746C28.4288 31.7123 28.3746 31.6318 28.344 31.5415C28.3134 31.4512 28.3076 31.3543 28.3271 31.2609C28.3466 31.1676 28.3908 31.0812 28.455 31.0106C28.5192 30.9401 28.6011 30.8881 28.6922 30.8599C28.7833 30.8317 28.8803 30.8285 28.9731 30.8504L28.9747 30.8483ZM20.2858 21.5033V21.4397C20.2856 20.7694 20.3475 20.1006 20.4706 19.4417C20.5253 19.1517 20.8044 18.9607 21.0944 19.0151C21.3844 19.0695 21.5754 19.3488 21.5207 19.6386C21.4097 20.2325 21.3539 20.8355 21.3541 21.4397C21.3569 21.584 21.3035 21.7236 21.2053 21.8292C21.107 21.9348 20.9716 21.9981 20.8276 22.0057H20.82C20.7518 22.0085 20.6837 21.9975 20.6197 21.9736C20.5558 21.9497 20.4972 21.9133 20.4475 21.8666C20.3978 21.8198 20.3579 21.7636 20.3301 21.7012C20.3024 21.6388 20.2873 21.5715 20.2859 21.5033H20.2858ZM21.7928 25.8193C21.5203 25.9319 21.2081 25.8026 21.0951 25.5303C20.8307 24.8928 20.6294 24.2309 20.4943 23.554C20.4668 23.4153 20.4955 23.2714 20.5741 23.1538C20.6527 23.0363 20.7747 22.9547 20.9133 22.927C21.0519 22.8993 21.1959 22.9276 21.3136 23.0058C21.4314 23.084 21.5133 23.2056 21.5415 23.3441C21.6632 23.9532 21.844 24.549 22.0815 25.1229C22.1936 25.3949 22.0643 25.7064 21.7928 25.8193ZM24.1313 28.9587C23.9217 29.166 23.5838 29.1641 23.3763 28.9544C22.8908 28.4642 22.4533 27.9288 22.0697 27.3553C22.012 27.2777 21.9764 27.1858 21.9668 27.0894C21.9572 26.9931 21.9739 26.896 22.0152 26.8084C22.0565 26.7209 22.1208 26.6463 22.2012 26.5925C22.2817 26.5386 22.3752 26.5077 22.4719 26.5029C22.5686 26.4981 22.6647 26.5197 22.7501 26.5653C22.8354 26.6109 22.9068 26.6788 22.9565 26.7619C23.3013 27.2789 23.6947 27.7618 24.1313 28.204C24.2313 28.3041 24.2875 28.4398 24.2875 28.5813C24.2875 28.7228 24.2313 28.8586 24.1313 28.9587ZM27.4766 30.9881C27.449 31.0527 27.4091 31.1112 27.3589 31.1603C27.3088 31.2094 27.2494 31.2481 27.1843 31.2742C27.1192 31.3004 27.0495 31.3134 26.9794 31.3126C26.9092 31.3118 26.8399 31.2972 26.7753 31.2696C26.14 30.9983 25.5327 30.6656 24.9621 30.2763C24.8567 30.192 24.7871 30.0711 24.7673 29.9377C24.7474 29.8043 24.7788 29.6684 24.855 29.5571C24.9313 29.4459 25.0469 29.3677 25.1785 29.3381C25.3101 29.3086 25.448 29.3299 25.5645 29.3978C26.0775 29.7483 26.6236 30.0475 27.1951 30.2911C27.3249 30.3468 27.4274 30.4516 27.4801 30.5826C27.5329 30.7136 27.5316 30.8602 27.4765 30.9903L27.4766 30.9881Z" fill="black"/>
<path d="M31.4343 21.1836C33.2447 24.5851 32.8543 28.7381 30.4419 31.7427L29.9052 37.4123C29.8981 37.4865 29.9066 37.5615 29.9303 37.6322C29.9539 37.703 29.9922 37.768 30.0425 37.823C30.0928 37.8781 30.154 37.9221 30.2224 37.9521C30.2907 37.982 30.3645 37.9973 30.4391 37.997H34.7291C34.8625 37.9976 34.9913 37.9483 35.0901 37.8587C35.1889 37.7692 35.2507 37.6459 35.2633 37.5132L37.6554 12.1242L32.337 11.626L31.4343 21.1836ZM36.943 8.30444L33.7529 8.00526C33.4707 7.97712 33.189 8.06273 32.9701 8.24322C32.8619 8.33263 32.7724 8.4426 32.7069 8.56676C32.6414 8.69093 32.6011 8.82684 32.5884 8.96665L32.4374 10.5645L37.7558 11.063L37.9071 9.46653C37.96 8.88134 37.5303 8.36331 36.9457 8.30705L36.943 8.30444ZM24.3953 35.2086C23.0232 35.4293 21.619 35.3398 20.2859 34.9467V37.4631C20.2859 37.758 20.5251 37.997 20.82 37.997H25.0928C25.3878 37.997 25.6269 37.758 25.6269 37.4631V34.9467C25.2742 35.0467 24.9159 35.1263 24.554 35.1849C24.5036 35.2008 24.4511 35.2088 24.3985 35.2091L24.3953 35.2086ZM25.6527 9.17751C25.6539 9.03719 25.6274 8.89801 25.5747 8.76793C25.5221 8.63785 25.4444 8.51941 25.346 8.41937C25.2475 8.31934 25.1304 8.23967 25.0012 8.18491C24.872 8.13015 24.7333 8.10139 24.5929 8.10025L21.3884 8.0752H21.3792C20.7928 8.0752 20.3162 8.54791 20.3112 9.13425L20.2989 10.7579H25.6398L25.6527 9.17751Z" fill="black"/>
</g>
<defs>
<clipPath id="clip0_1133_3070">
<rect width="46" height="46" fill="white"/>
</clipPath>
</defs>
</svg>
