<svg width="46" height="46" viewBox="0 0 46 46" fill="none" xmlns="http://www.w3.org/2000/svg">
<g clip-path="url(#clip0_1133_3200)">
<circle cx="23" cy="23" r="23" fill="#FDE410"/>
<path fill-rule="evenodd" clip-rule="evenodd" d="M10.2817 33.9941H27.0781C27.3022 34.4804 27.5934 34.9329 27.9431 35.3383H8.9375V12.9314H10.2817V33.9941ZM32.2779 26.8184C29.6354 26.8184 27.4932 28.9606 27.4932 31.603C27.4932 34.2455 29.6354 36.3877 32.2779 36.3877C34.9204 36.3877 37.0625 34.2455 37.0625 31.603C37.0625 28.9605 34.9203 26.8184 32.2779 26.8184ZM31.6494 32.0251L33.976 29.6754C34.2513 29.3972 34.7006 29.3965 34.978 29.6723C35.2552 29.948 35.2561 30.396 34.981 30.6736C34.0376 31.6258 33.1006 32.5843 32.1528 33.5321C31.8757 33.8092 31.4262 33.8092 31.1491 33.5321L29.5767 31.9596C29.2996 31.6825 29.2996 31.233 29.5767 30.9559C29.8538 30.6788 30.3032 30.6788 30.5803 30.9559L31.6494 32.0251ZM12.6817 23.9889C15.632 22.9615 18.6641 21.6689 21.6805 20.0284C24.3952 18.5521 27.094 16.7958 29.705 14.7001L29.4964 15.7341C29.474 15.8547 29.5 15.9793 29.5688 16.0809C29.6376 16.1825 29.7436 16.253 29.8639 16.277C29.9842 16.3011 30.1091 16.2768 30.2117 16.2095C30.3143 16.1422 30.3862 16.0372 30.4119 15.9172L30.8777 13.6081C30.9446 13.3173 30.7246 13.036 30.4227 13.036L28.0532 13.0355C27.9306 13.0374 27.8137 13.0875 27.7278 13.1749C27.6418 13.2622 27.5936 13.3799 27.5936 13.5024C27.5936 13.625 27.6418 13.7427 27.7278 13.83C27.8137 13.9174 27.9306 13.9674 28.0532 13.9694L29.12 13.9696C26.5503 16.0326 23.8982 17.759 21.2336 19.2082C18.2674 20.8213 15.2817 22.0938 12.374 23.1064C12.3155 23.1262 12.2616 23.1574 12.2153 23.1981C12.1689 23.2389 12.1311 23.2885 12.1041 23.3439C12.077 23.3994 12.0612 23.4596 12.0575 23.5212C12.0538 23.5828 12.0624 23.6446 12.0827 23.7028C12.1031 23.7611 12.1347 23.8148 12.1759 23.8608C12.2171 23.9067 12.2669 23.9441 12.3226 23.9707C12.3783 23.9973 12.4387 24.0126 12.5003 24.0157C12.562 24.0188 12.6236 24.0097 12.6817 23.9889ZM26.3744 20.2706H24.2363C24.0104 20.2706 23.8261 20.4548 23.8261 20.6808V31.6149C23.8261 31.8408 24.0103 32.0251 24.2363 32.0251H26.3744C26.442 32.0252 26.5086 32.0084 26.5681 31.9763C26.5241 31.3089 26.5973 30.639 26.7846 29.9969V20.6808C26.7846 20.4549 26.6003 20.2706 26.3744 20.2706ZM29.7295 17.4773H31.8677C32.0936 17.4773 32.2779 17.6615 32.2779 17.8875V25.8809C31.1951 25.8809 30.1826 26.1817 29.3194 26.7042V17.8875C29.3193 17.6615 29.5036 17.4773 29.7295 17.4773ZM20.881 23.3758H18.7428C18.5169 23.3758 18.3327 23.5601 18.3327 23.7859V31.615C18.3327 31.8409 18.5169 32.0252 18.7428 32.0252H20.881C21.1069 32.0252 21.2912 31.8409 21.2912 31.615V23.7859C21.2912 23.56 21.1069 23.3758 20.881 23.3758ZM13.2495 26.3495C13.0236 26.3495 12.8393 26.5337 12.8393 26.7596V31.615C12.8393 31.8409 13.0236 32.0252 13.2495 32.0252H15.3876C15.6135 32.0252 15.7978 31.8409 15.7978 31.615V26.7596C15.7978 26.5338 15.6136 26.3495 15.3876 26.3495H13.2495ZM17.8428 9.61328V13.8919H22.1214C22.1214 11.5289 20.2058 9.61328 17.8428 9.61328ZM20.5784 15.4349H16.2997V11.1563C13.9367 11.1563 12.0211 13.0719 12.0211 15.4349C12.0211 17.7979 13.9367 19.7136 16.2997 19.7136C18.6628 19.7136 20.5784 17.7979 20.5784 15.4349Z" fill="black"/>
</g>
<defs>
<clipPath id="clip0_1133_3200">
<rect width="46" height="46" fill="white"/>
</clipPath>
</defs>
</svg>
