<svg width="46" height="46" viewBox="0 0 46 46" fill="none" xmlns="http://www.w3.org/2000/svg">
<g clip-path="url(#clip0_1133_3165)">
<circle cx="23" cy="23" r="23" fill="#FDE410"/>
<g clip-path="url(#clip1_1133_3165)">
<path d="M32.6049 15.4997V14.4283H30.3506C30.4236 14.7808 30.461 15.1397 30.4621 15.4997H32.6049ZM32.6049 11.7497C32.6049 12.6373 31.8853 13.3569 30.9978 13.3569C30.11 13.3569 29.3906 12.6373 29.3906 11.7497C29.3906 10.8622 30.11 10.1426 30.9978 10.1426C31.8853 10.1426 32.6049 10.8622 32.6049 11.7497ZM30.4621 20.8569H32.6049V21.9283H30.4621V20.8569Z" fill="black"/>
<path d="M17.6051 16.0357V18.1786C17.6051 18.3207 17.5486 18.4569 17.4481 18.5574C17.3477 18.6578 17.2114 18.7143 17.0693 18.7143H16.5336V21.9286H17.0693C17.2114 21.9286 17.3477 21.985 17.4481 22.0855C17.5486 22.1859 17.6051 22.3222 17.6051 22.4643V24.6071C17.6051 24.7492 17.5486 24.8855 17.4481 24.986C17.3477 25.0864 17.2114 25.1429 17.0693 25.1429H16.5336V26.2143H30.1407C30.5197 26.2143 30.854 25.9663 30.9639 25.6035C31.0174 25.4268 31.0126 25.2376 30.9502 25.0639C30.8879 24.8902 30.7712 24.7411 30.6176 24.6388L29.6316 23.9814C29.5578 23.9328 29.4972 23.8666 29.4552 23.7888C29.4132 23.7111 29.391 23.6241 29.3908 23.5357V15.5C29.3879 13.1343 27.4708 11.217 25.1051 11.2143C25.0135 11.2148 24.9233 11.1919 24.8432 11.1476C24.763 11.1034 24.6955 11.0394 24.6472 10.9616C24.5988 10.8839 24.5711 10.7951 24.5669 10.7036C24.5626 10.6122 24.5818 10.5211 24.6227 10.4392L25.8452 8H20.0787L21.3013 10.4392C21.3422 10.5211 21.3615 10.6121 21.3572 10.7036C21.3529 10.795 21.3253 10.8838 21.2769 10.9616C21.2286 11.0393 21.1611 11.1033 21.081 11.1476C21.0009 11.1918 20.9107 11.2148 20.8192 11.2143C19.9562 11.2146 19.1136 11.4761 18.402 11.9643C18.3201 12.0205 18.2414 12.0833 18.1658 12.1442C18.1046 12.1926 18.0421 12.2381 17.9843 12.2894C17.9173 12.3485 17.8566 12.4126 17.7941 12.4754C17.7313 12.5382 17.6669 12.5986 17.6081 12.6655C17.5545 12.7233 17.511 12.7861 17.463 12.847C17.4017 12.9248 17.3392 13.0014 17.283 13.0833C16.7951 13.7948 16.5339 14.6373 16.5336 15.5H17.0693C17.2114 15.5 17.3477 15.5564 17.4481 15.6569C17.5486 15.7574 17.6051 15.8936 17.6051 16.0357ZM22.1586 15.5H22.4265V14.4286H23.4979V15.5H25.1051V16.5714H22.1586C21.7146 16.5714 21.3551 16.9311 21.3551 17.375C21.3551 17.8189 21.7146 18.1786 22.1586 18.1786H23.7658C24.801 18.1786 25.6408 19.018 25.6408 20.0536C25.6408 21.0892 24.801 21.9286 23.7658 21.9286H23.4979V23H22.4265V21.9286H20.8193V20.8571H23.7658C24.2094 20.8571 24.5693 20.4975 24.5693 20.0536C24.5693 19.6097 24.2094 19.25 23.7658 19.25H22.1586C21.123 19.25 20.2836 18.4106 20.2836 17.375C20.2836 16.3394 21.123 15.5 22.1586 15.5ZM13.3193 17.6429H16.5336V16.5714H13.3193V17.6429ZM30.4622 17.6429H33.6765V16.5714H30.4622V17.6429ZM33.6765 26.2143V25.1429H32.0429C32.0559 25.2138 32.0646 25.2852 32.0693 25.3571C32.0669 25.6554 31.9946 25.949 31.8582 26.2143H33.6765Z" fill="black"/>
<path d="M33.6764 22.9996H30.4621V23.2486L31.2121 23.7469C31.3486 23.8379 31.4729 23.9459 31.5822 24.0683H33.6764V22.9996ZM30.4621 18.7139H32.605V19.7853H30.4621V18.7139ZM16.5336 22.9996H13.3193V24.071H16.5336V22.9996ZM24.2478 31.4305L24.1122 31.5051C24.0332 31.5485 23.9448 31.571 23.8551 31.571H19.7478C19.1559 31.571 18.6764 32.0507 18.6764 32.6424C18.6764 33.2341 19.1559 33.7139 19.7478 33.7139H24.0336C24.1756 33.7139 24.3119 33.7703 24.4124 33.8708C24.5128 33.9712 24.5693 34.1075 24.5693 34.2496C24.5693 34.3917 24.5128 34.5279 24.4124 34.6284C24.3119 34.7289 24.1756 34.7853 24.0336 34.7853H18.6764C18.5995 34.7854 18.5234 34.7688 18.4535 34.7366L12.3619 31.9461C12.1767 31.8612 11.9732 31.8242 11.77 31.8386C11.5668 31.8529 11.3705 31.9181 11.1991 32.0282C11.0277 32.1382 10.8867 32.2896 10.7891 32.4683C10.6915 32.6471 10.6404 32.8476 10.6406 33.0513V33.1674C10.6397 33.3933 10.7022 33.6149 10.821 33.807C10.9397 33.9991 11.11 34.1541 11.3124 34.2543L17.5582 37.3775C18.377 37.7856 19.2792 37.9985 20.1941 37.9996H30.9978V31.3536C29.9534 30.8095 28.7908 30.5318 27.6132 30.5453C26.4356 30.5587 25.2795 30.8628 24.2478 31.4305Z" fill="black"/>
<path d="M37.9239 27.2859H8C8.26866 29.1297 9.84855 30.4978 11.7121 30.5001H19.7478L23.734 30.491C26.2043 29.1326 29.1986 29.136 31.6656 30.5001H34.2121C36.0753 30.4978 37.6553 29.1297 37.9239 27.2859H37.9239ZM34.2121 31.5716H32.0692V38.0001H37.9621V31.5716H34.2121ZM34.2121 36.9287C33.6201 36.9287 33.1407 36.449 33.1407 35.8573C33.1407 35.2656 33.6201 34.7859 34.2121 34.7859C34.8038 34.7859 35.2835 35.2656 35.2835 35.8573C35.2835 36.449 34.8038 36.9287 34.2121 36.9287ZM15.4621 15.5001V14.4287H12.2478V15.5001H15.4621ZM15.4621 18.7144H12.2478V19.7859H15.4621V18.7144ZM15.4621 21.9287V20.8573H12.2478V21.9287H15.4621ZM15.4621 25.143H12.2478V26.2144H15.4621V25.143Z" fill="black"/>
</g>
</g>
<defs>
<clipPath id="clip0_1133_3165">
<rect width="46" height="46" fill="white"/>
</clipPath>
<clipPath id="clip1_1133_3165">
<rect width="30" height="30" fill="white" transform="translate(8 8)"/>
</clipPath>
</defs>
</svg>
