<svg width="46" height="46" viewBox="0 0 46 46" fill="none" xmlns="http://www.w3.org/2000/svg">
<g clip-path="url(#clip0_1131_3017)">
<circle cx="23" cy="23" r="23" fill="#FDE410"/>
<g clip-path="url(#clip1_1131_3017)">
<path d="M18.3937 27.6371L19.3157 26.32C19.0164 26.07 18.7401 25.7937 18.4901 25.4944L17.175 26.4185C17.5369 26.8668 17.9454 27.2753 18.3937 27.6371ZM23.4267 16.0312C20.4696 16.0312 18.0724 18.4284 18.0724 21.3855C18.0724 24.3426 20.4696 26.7397 23.4267 26.7397C26.3838 26.7397 28.7809 24.3426 28.7809 21.3855C28.7777 18.4298 26.3824 16.0345 23.4267 16.0312ZM27.1549 22.4141C27.0779 22.7176 26.9365 23.001 26.7403 23.245C26.5441 23.489 26.2976 23.6879 26.0176 23.8281C25.7478 23.9598 25.4547 24.0373 25.1551 24.0562L25.2086 24.1767C25.2784 24.3398 25.3065 24.5176 25.2906 24.6943C25.2746 24.871 25.215 25.0409 25.1171 25.1889C25.0192 25.3368 24.8861 25.4581 24.7297 25.5419C24.5734 25.6257 24.3986 25.6693 24.2212 25.6689H22.6321C22.4549 25.669 22.2804 25.6251 22.1243 25.5412C21.9682 25.4573 21.8354 25.3359 21.7377 25.188C21.6401 25.0401 21.5807 24.8703 21.5648 24.6938C21.549 24.5173 21.5772 24.3396 21.6469 24.1767L21.7004 24.0562C21.4008 24.0373 21.1077 23.9598 20.8379 23.8281C20.5579 23.6878 20.3114 23.489 20.1152 23.245C19.919 23.001 19.7776 22.7176 19.7007 22.4141C19.1342 20.3976 22.0619 17.8244 22.8163 17.2948C22.9959 17.1697 23.2096 17.1026 23.4285 17.1026C23.6475 17.1026 23.8612 17.1697 24.0408 17.2948C24.7936 17.8244 27.7213 20.3976 27.1549 22.4141Z" fill="black"/>
<path d="M23.4266 18.1731C22.351 18.9296 20.4192 21.0108 20.7324 22.125C20.7694 22.2837 20.8405 22.4325 20.9407 22.561C21.0409 22.6895 21.1679 22.7947 21.3128 22.8693C21.4778 22.9455 21.6567 22.9872 21.8385 22.9918C22.0202 22.9964 22.201 22.9638 22.3697 22.896C22.4326 22.8713 22.4997 22.8585 22.5673 22.8586C22.6559 22.8585 22.7432 22.8804 22.8213 22.9223C22.8994 22.9643 22.9659 23.025 23.0147 23.099C23.0635 23.173 23.0932 23.258 23.1011 23.3463C23.109 23.4346 23.0948 23.5235 23.0599 23.6049L22.6321 24.5981H24.2212L23.7961 23.6044C23.7543 23.5071 23.7422 23.3996 23.7615 23.2955C23.7807 23.1913 23.8305 23.0953 23.9043 23.0194C23.9782 22.9435 24.0729 22.8912 24.1765 22.8692C24.2801 22.8471 24.3879 22.8563 24.4863 22.8955C24.655 22.963 24.8358 22.9955 25.0175 22.9909C25.1992 22.9863 25.3781 22.9447 25.5432 22.8687C25.6881 22.7942 25.815 22.689 25.9153 22.5605C26.0155 22.4319 26.0866 22.2832 26.1236 22.1245C26.4363 21.0108 24.505 18.9291 23.4266 18.1731ZM22.8425 27.7813L22.5624 29.3688C23.1368 29.4331 23.7165 29.4331 24.2908 29.3688L24.0107 27.7813C23.818 27.7984 23.6236 27.8107 23.4266 27.8107C23.2295 27.8107 23.0353 27.7984 22.8425 27.7813ZM17.8812 18.156L16.5641 17.2345C16.1429 17.9275 15.83 18.6808 15.6362 19.4683L17.221 19.7478C17.368 19.1897 17.5901 18.6542 17.8812 18.156ZM25.0645 27.5912L25.344 29.1761C26.1315 28.9823 26.8848 28.6694 27.5778 28.2481L26.6563 26.931C26.1581 27.2221 25.6226 27.4442 25.0645 27.5912ZM17.031 21.9698C17.0138 21.777 17.0015 21.5827 17.0015 21.3856C17.0015 21.1885 17.0138 20.9942 17.031 20.8014L15.4434 20.5214C15.3792 21.0957 15.3792 21.6754 15.4434 22.2497L17.031 21.9698ZM29.6783 26.4186L28.3611 25.4966C28.1111 25.7959 27.8348 26.0722 27.5355 26.3222L28.4575 27.6393C28.9067 27.277 29.3159 26.8678 29.6783 26.4186ZM19.9795 9.07087H26.8737C26.9932 9.07096 27.1093 9.03105 27.2035 8.9575C27.2977 8.88396 27.3646 8.781 27.3936 8.66503L27.5601 8H19.2931L19.4596 8.66556C19.4887 8.78143 19.5556 8.88426 19.6498 8.9577C19.744 9.03114 19.8601 9.07098 19.9795 9.07087ZM15.6362 23.303C15.83 24.0905 16.1429 24.8438 16.5641 25.5368L17.8812 24.6153C17.5901 24.117 17.368 23.5815 17.221 23.0235L15.6362 23.303Z" fill="black"/>
<path d="M23.4268 12.2834C24.9025 12.2871 26.3553 12.6484 27.6608 13.3364C28.9662 14.0244 30.0855 15.0186 30.9227 16.2338V10.1417C30.9227 8.9589 29.9639 8 28.7811 8H28.6633L28.4325 8.92522C28.2537 9.64032 27.611 10.1419 26.8739 10.1417H19.9797C19.2428 10.142 18.6002 9.64068 18.4211 8.92581L18.1904 8H18.0726C16.8897 8 15.9309 8.9589 15.9309 10.1417V16.2337C16.7708 15.0212 17.8906 14.029 19.1955 13.3414C20.5004 12.6537 21.9518 12.2908 23.4268 12.2834ZM31.2173 19.4683C31.0235 18.6808 30.7106 17.9275 30.2893 17.2345L28.9722 18.156C29.2634 18.6542 29.4855 19.1897 29.6324 19.7478L31.2173 19.4683Z" fill="black"/>
<path d="M25.3441 13.595L25.0645 15.1799C25.6226 15.3268 26.1581 15.5489 26.6564 15.84L27.5778 14.5229C26.8848 14.1017 26.1315 13.7888 25.3441 13.595ZM17.175 16.3525L18.4922 17.2745C18.7422 16.9752 19.0185 16.6989 19.3178 16.4488L18.3936 15.1338C17.9454 15.4957 17.5369 15.9042 17.175 16.3525ZM21.7888 27.591C21.2307 27.444 20.6952 27.2219 20.197 26.9308L19.2755 28.2479C19.9685 28.6692 20.7218 28.9821 21.5093 29.1759L21.7888 27.591ZM24.0108 14.9898L24.2909 13.4022C23.7165 13.338 23.1369 13.338 22.5625 13.4022L22.8426 14.9898C23.0353 14.9726 23.2297 14.9603 23.4267 14.9603C23.6238 14.9603 23.818 14.9726 24.0108 14.9898ZM21.7888 15.1799L21.5093 13.595C20.7218 13.7888 19.9685 14.1017 19.2755 14.5229L20.197 15.84C20.6952 15.5489 21.2307 15.3268 21.7888 15.1799ZM28.4597 15.1338L27.5377 16.4509C27.837 16.7009 28.1133 16.9772 28.3633 17.2765L29.6804 16.3545C29.318 15.9054 28.9088 15.4962 28.4597 15.1338ZM28.9721 24.6151L30.2892 25.5366C30.7104 24.8436 31.0234 24.0903 31.2171 23.3028L29.6323 23.0233C29.4853 23.5813 29.2632 24.1168 28.9721 24.6151ZM33.0643 26.2042H31.9934V29.4168H33.0643C33.9514 29.4168 34.6706 28.6976 34.6706 27.8105C34.6706 26.9233 33.9515 26.2042 33.0643 26.2042ZM29.8223 20.8013C29.8395 20.994 29.8518 21.1884 29.8518 21.3855C29.8518 21.5825 29.8395 21.7768 29.8223 21.9696L31.4099 22.2497C31.4741 21.6753 31.4741 21.0956 31.4099 20.5213L29.8223 20.8013ZM33.0643 21.9208H32.5016C32.4559 22.7781 32.2846 23.6239 31.9934 24.4314V25.1334H33.0643C33.9514 25.1334 34.6706 24.4142 34.6706 23.5271C34.6706 22.64 33.9515 21.9208 33.0643 21.9208ZM33.7368 10.3171L31.9935 11.3141V14.4067L35.069 12.643C35.7112 12.2751 35.9337 11.4562 35.5659 10.8139C35.1979 10.1717 34.3791 9.94927 33.7368 10.3171ZM33.0643 17.6374H31.9934V18.3394C32.2846 19.1469 32.4558 19.9928 32.5016 20.85H33.0643C33.9514 20.85 34.6706 20.1308 34.6706 19.2437C34.6706 18.3566 33.9515 17.6374 33.0643 17.6374Z" fill="black"/>
<path d="M30.883 26.6056C30.8739 26.6179 30.8594 26.6228 30.8503 26.634C30.0063 27.8327 28.8846 28.8093 27.5811 29.4803C26.2777 30.1513 24.8311 30.4968 23.3651 30.4873C21.8991 30.4778 20.4572 30.1135 19.1626 29.4256C17.8679 28.7377 16.7591 27.7467 15.9307 26.5371V33.1646C15.9307 34.3474 16.8896 35.3063 18.0723 35.3063H28.7809C29.9638 35.3063 30.9226 34.3474 30.9226 33.1646V26.5371C30.9151 26.5484 30.9066 26.558 30.8991 26.5693C30.8916 26.5805 30.8911 26.5944 30.883 26.6056ZM28.2455 33.7H18.6078C18.4658 33.7 18.3296 33.6436 18.2292 33.5432C18.1288 33.4428 18.0724 33.3066 18.0724 33.1646C18.0724 33.0226 18.1288 32.8864 18.2292 32.786C18.3296 32.6856 18.4658 32.6292 18.6078 32.6292H28.2455C28.3875 32.6292 28.5237 32.6856 28.6241 32.786C28.7245 32.8864 28.7809 33.0226 28.7809 33.1646C28.7809 33.2349 28.7671 33.3045 28.7402 33.3695C28.7133 33.4344 28.6738 33.4935 28.6241 33.5432C28.5744 33.5929 28.5154 33.6323 28.4504 33.6593C28.3854 33.6862 28.3158 33.7 28.2455 33.7Z" fill="black"/>
<path d="M14.8599 33.1648V24.4315C14.146 22.4636 14.146 20.3074 14.8599 18.3394V10.6914C14.4669 10.6939 14.0903 10.8492 13.81 11.1246C13.635 11.2915 13.4956 11.492 13.4 11.7141C13.3044 11.9362 13.2547 12.1753 13.2537 12.4171C13.251 12.4706 13.1337 20.4715 11.6753 23.9336C11.2074 25.0181 10.8182 26.1348 10.5107 27.2752C9.84571 29.8003 9.88103 31.7803 10.6258 33.695C10.9956 34.5533 11.545 35.3223 12.237 35.9504C12.9291 36.5784 13.7477 37.0508 14.6377 37.3358C17.4921 38.3831 21.2235 38.1748 23.7073 36.8293C23.8422 36.7581 24.1099 36.5991 24.4687 36.3796H18.0725C16.2981 36.3777 14.8605 34.9392 14.8599 33.1648Z" fill="black"/>
</g>
</g>
<defs>
<clipPath id="clip0_1131_3017">
<rect width="46" height="46" fill="white"/>
</clipPath>
<clipPath id="clip1_1131_3017">
<rect width="25.7812" height="30" fill="white" transform="translate(10 8)"/>
</clipPath>
</defs>
</svg>
