<svg width="46" height="46" viewBox="0 0 46 46" fill="none" xmlns="http://www.w3.org/2000/svg">
<g clip-path="url(#clip0_1133_3145)">
<circle cx="23" cy="23" r="23" fill="#FDE410"/>
<path d="M43.336 28.289C43.428 28.9227 43.0939 29.557 42.4943 29.8104C41.8131 30.0893 41.2176 30.5433 40.7682 31.1263C40.3188 31.7094 40.0314 32.4008 39.9352 33.1306C39.8544 33.7535 39.3362 34.2257 38.7133 34.3064L12.649 37.984C12.026 38.0761 11.4038 37.7646 11.1503 37.1884C10.8552 36.5146 10.3875 35.9306 9.79449 35.4954C9.20145 35.0602 8.50406 34.7893 7.77278 34.7099C7.12716 34.6292 6.6316 34.1223 6.53892 33.4767L6.17009 30.8602C6.60827 31.6546 7.46132 32.1741 8.42975 32.1741H34.7475C35.9007 32.1741 36.9265 31.4245 37.2379 30.3293C37.3811 29.8166 37.6567 29.3507 38.0371 28.9783C38.4175 28.606 38.8893 28.3404 39.4049 28.2083C40.5347 27.9202 41.3184 26.8938 41.3184 25.7066V15.47C41.4798 15.6655 41.5952 15.9082 41.6299 16.173L43.336 28.289ZM10.7008 17.9831L10.3319 16.8533C10.0363 17.4586 9.84531 18.1097 9.76701 18.7788L10.6547 18.1332C10.7008 18.0985 10.7241 18.0405 10.7008 17.9831ZM12.6717 23.7817H11.5078C11.9834 24.2538 12.5371 24.6399 13.1445 24.9229L12.7984 23.8738C12.7757 23.8164 12.7284 23.7817 12.6717 23.7817ZM13.0058 19.6079C12.9831 19.5511 12.9831 19.4818 12.9718 19.4124L11.4731 18.9282C11.4271 18.9742 11.3924 19.0322 11.3344 19.0669L9.76701 20.2081C9.86641 21.067 10.1536 21.8936 10.6081 22.6292H12.6717C12.741 22.6292 12.8104 22.6519 12.8677 22.6632L13.6748 21.5567C13.6401 21.4993 13.6054 21.4413 13.5827 21.384L13.0058 19.6079ZM11.8306 17.8331L13.3406 18.3173C13.3866 18.2713 13.4213 18.2132 13.4793 18.1786L14.9773 17.084C15.0326 17.0525 15.0904 17.0255 15.1501 17.0033V15.2739C15.0904 15.2518 15.0326 15.2248 14.9773 15.1932L13.3286 13.9947C12.4876 14.3515 11.7499 14.9051 11.1389 15.6201L11.7959 17.6256C11.8186 17.695 11.8186 17.7637 11.8306 17.8331ZM15.8077 14.2595L16.7295 13.5792C16.4067 13.5331 16.0725 13.4871 15.727 13.4871C15.3928 13.4871 15.0461 13.5218 14.7239 13.5792L15.657 14.2601C15.6784 14.2771 15.705 14.2864 15.7324 14.2864C15.7597 14.2864 15.7863 14.2771 15.8077 14.2601V14.2595ZM15.727 17.9945C15.7037 17.9945 15.6803 18.0058 15.6576 18.0178L14.1476 19.113C14.1016 19.1476 14.0896 19.205 14.1016 19.2624L14.6779 21.0265C14.6892 21.0725 14.7472 21.1185 14.804 21.1185H16.6607C16.7181 21.1185 16.7641 21.0725 16.7868 21.0265L17.3524 19.2624C17.3751 19.205 17.3524 19.1476 17.3057 19.113L15.8077 18.0178C15.7844 18.0058 15.761 17.9945 15.727 17.9945ZM16.6601 22.2717H14.8046C14.7352 22.2717 14.6779 22.2484 14.6091 22.237L13.8021 23.3322C13.8362 23.4015 13.8708 23.4475 13.8935 23.5163L14.5051 25.4071C14.9086 25.4878 15.3121 25.5338 15.727 25.5338H15.7383C16.1532 25.5338 16.5567 25.4878 16.9489 25.4071L17.5598 23.5163C17.5825 23.4469 17.6292 23.4009 17.6519 23.3322L16.8562 22.237C16.7868 22.2484 16.7295 22.2717 16.6601 22.2717ZM18.6663 23.8738L18.3202 24.9342C18.9198 24.6461 19.4967 24.2659 19.9803 23.7817H18.7937C18.7363 23.7817 18.6783 23.8164 18.667 23.8738H18.6663ZM16.3033 15.2853V16.9914C16.3606 17.026 16.4294 17.0494 16.4874 17.084L17.986 18.1792C18.044 18.2139 18.0781 18.2713 18.1247 18.3179L19.6348 17.8331C19.6461 17.7637 19.6461 17.6944 19.6694 17.6376L20.315 15.6428C19.7155 14.9398 18.9891 14.3629 18.1361 13.9947L16.4874 15.1932C16.43 15.2279 16.3613 15.2512 16.3033 15.2853ZM19.9916 18.9282L18.4816 19.4124C18.4702 19.4818 18.4702 19.5511 18.4589 19.6079L17.8826 21.372C17.8593 21.4413 17.8133 21.4993 17.7899 21.5681L18.5856 22.6632C18.655 22.6519 18.7123 22.6285 18.7937 22.6285H20.868C21.3188 21.8889 21.5984 21.0578 21.6864 20.1961L20.1303 19.0669C20.0729 19.0322 20.0383 18.9742 19.9916 18.9282ZM20.8106 18.1332L21.687 18.7668C21.6009 18.1106 21.4102 17.4724 21.1221 16.8766L20.7646 17.9945C20.7413 18.0405 20.7646 18.0985 20.8106 18.1332ZM40.1659 13.4758V25.7072C40.1659 26.3522 39.751 26.9285 39.1168 27.0899C38.4056 27.2749 37.755 27.6423 37.2293 28.1558C36.7036 28.6693 36.3211 29.3112 36.1194 30.0178C35.958 30.6294 35.3818 31.0209 34.7475 31.0209H27.623V28.1396C27.6227 27.9869 27.562 27.8406 27.4541 27.7325C27.3463 27.6244 27.2001 27.5634 27.0474 27.5627C26.8946 27.5631 26.7481 27.6239 26.64 27.7318C26.5319 27.8398 26.471 27.9862 26.4705 28.139V31.0209H8.42975C7.79548 31.0209 7.21921 30.6288 7.04646 30.0185C6.84672 29.3108 6.4648 28.6679 5.93883 28.154C5.41287 27.64 4.76127 27.2731 4.04913 27.0899C3.42684 26.9285 3 26.3522 3 25.7066V13.4751C3 12.8302 3.42684 12.2419 4.03778 12.0805C4.77324 11.8966 5.4449 11.5164 5.98095 10.9803C6.517 10.4443 6.89728 9.77261 7.08114 9.03715C7.24254 8.41486 7.82953 8.00063 8.47577 8.00063H26.4705V10.882C26.4705 11.194 26.7246 11.4588 27.0474 11.4588C27.3696 11.4588 27.6236 11.194 27.6236 10.8826V8H34.7009C35.3465 8 35.9347 8.41486 36.0841 9.03715C36.465 10.5251 37.6408 11.7117 39.1275 12.0805C39.7504 12.2419 40.1653 12.8302 40.1653 13.4758H40.1659ZM22.9089 19.5158C22.9089 15.5501 19.6921 12.3346 15.727 12.3346C14.6262 12.3318 13.5395 12.5831 12.5517 13.069C11.5639 13.5548 10.7015 14.2622 10.0318 15.1358C9.06493 16.3912 8.54203 17.9319 8.54513 19.5165C8.54513 19.6659 8.55648 19.8273 8.56782 19.9773C8.80993 23.747 11.9573 26.6864 15.727 26.6864H15.7383C17.6519 26.6864 19.45 25.9373 20.8106 24.5887C22.1598 23.2281 22.9089 21.4294 22.9089 19.5158ZM27.6236 21.0839C27.6244 21.008 27.61 20.9327 27.5813 20.8624C27.5526 20.7922 27.5102 20.7283 27.4566 20.6747C27.4029 20.621 27.3391 20.5786 27.2688 20.5499C27.1985 20.5212 27.1233 20.5068 27.0474 20.5076C26.9714 20.5067 26.8961 20.5211 26.8258 20.5497C26.7554 20.5784 26.6915 20.6208 26.6378 20.6745C26.5841 20.7281 26.5416 20.792 26.5129 20.8623C26.4841 20.9326 26.4697 21.0079 26.4705 21.0839V25.0036C26.4705 25.3264 26.7246 25.5798 27.0474 25.5798C27.1233 25.5806 27.1985 25.5662 27.2688 25.5375C27.3391 25.5088 27.4029 25.4664 27.4566 25.4128C27.5102 25.3591 27.5526 25.2953 27.5813 25.225C27.61 25.1547 27.6244 25.0795 27.6236 25.0036V21.0839ZM27.6236 14.0174C27.6244 13.9415 27.61 13.8662 27.5813 13.7959C27.5526 13.7257 27.5102 13.6619 27.4566 13.6082C27.4029 13.5545 27.3391 13.5121 27.2688 13.4834C27.1985 13.4547 27.1233 13.4403 27.0474 13.4411C26.9714 13.4403 26.8961 13.4546 26.8258 13.4832C26.7554 13.5119 26.6915 13.5543 26.6378 13.608C26.5841 13.6616 26.5416 13.7255 26.5129 13.7958C26.4841 13.8661 26.4697 13.9414 26.4705 14.0174V17.9371C26.4705 18.2599 26.7246 18.5134 27.0474 18.5134C27.1233 18.5141 27.1985 18.4997 27.2688 18.471C27.3391 18.4423 27.4029 18.3999 27.4566 18.3463C27.5102 18.2926 27.5526 18.2288 27.5813 18.1585C27.61 18.0883 27.6244 18.013 27.6236 17.9371V14.0174ZM35.2204 25.0383C35.2199 24.8856 35.159 24.7393 35.051 24.6313C34.9431 24.5234 34.7968 24.4625 34.6441 24.462H31.462C31.3094 24.4625 31.1631 24.5234 31.0551 24.6313C30.9472 24.7393 30.8863 24.8856 30.8858 25.0383C30.8858 25.3491 31.1506 25.6145 31.462 25.6145H34.6441C34.9549 25.6145 35.2204 25.3497 35.2204 25.0383ZM35.2204 21.384C35.22 21.2312 35.1592 21.0847 35.0513 20.9766C34.9433 20.8685 34.7969 20.8076 34.6441 20.8071H31.462C31.3093 20.8076 31.1629 20.8685 31.0549 20.9766C30.9469 21.0847 30.8861 21.2312 30.8858 21.384C30.8858 21.6948 31.1506 21.9602 31.462 21.9602H34.6441C34.9549 21.9602 35.2204 21.6954 35.2204 21.384ZM35.2204 17.7297C35.22 17.5769 35.1592 17.4304 35.0513 17.3223C34.9433 17.2142 34.7969 17.1533 34.6441 17.1528H31.462C31.3093 17.1533 31.1629 17.2142 31.0549 17.3223C30.9469 17.4304 30.8861 17.5769 30.8858 17.7297C30.8858 18.0405 31.1506 18.3059 31.462 18.3059H34.6441C34.9549 18.3059 35.2204 18.0411 35.2204 17.7297ZM35.2204 14.0754C35.22 13.9226 35.1592 13.7761 35.0513 13.668C34.9433 13.5599 34.7969 13.499 34.6441 13.4985H31.462C31.3093 13.499 31.1629 13.5599 31.0549 13.668C30.9469 13.7761 30.8861 13.9226 30.8858 14.0754C30.8858 14.3862 31.1506 14.6516 31.462 14.6516H34.6441C34.9549 14.6516 35.2204 14.3868 35.2204 14.0754Z" fill="black"/>
</g>
<defs>
<clipPath id="clip0_1133_3145">
<rect width="46" height="46" fill="white"/>
</clipPath>
</defs>
</svg>
