<svg width="46" height="46" viewBox="0 0 46 46" fill="none" xmlns="http://www.w3.org/2000/svg">
<g id="Frame" clip-path="url(#clip0_1131_3003)">
<circle id="Ellipse 6" cx="23" cy="23" r="23" fill="#FDE410"/>
<g id="Group">
<path id="Vector" d="M32.1043 30.9607H31.0554V27.8429H29.4589C29.0732 27.8429 28.6875 27.9821 28.3875 28.2179L26.9946 29.3214C26.4733 29.7309 25.8476 29.9861 25.1886 30.0581C24.5295 30.13 23.8635 30.0159 23.2661 29.7286C22.6055 29.4167 22.0613 28.9026 21.7125 28.2607C21.5196 27.9179 21.3911 27.5429 21.3268 27.1464L21.2946 26.9429C20.9625 26.7071 20.6625 26.4179 20.3946 26.1071C19.6686 25.2428 19.2703 24.1503 19.2696 23.0214V16.6036C19.2696 13.9464 21.4339 11.7821 24.0911 11.7821H26.4375C25.1519 10.9497 23.6864 10.4355 22.1625 10.2821H22.1582V9.07143C22.1582 8.78727 22.0453 8.51475 21.8444 8.31381C21.6435 8.11288 21.3709 8 21.0868 8C20.8026 8 20.5301 8.11288 20.3292 8.31381C20.1282 8.51475 20.0154 8.78727 20.0154 9.07143V10.2714C15.0246 10.7986 11.1161 15.0404 11.1161 20.1714V30.9607H10.0714C9.78727 30.9607 9.51475 31.0736 9.31381 31.2745C9.11288 31.4755 9 31.748 9 32.0321C9 32.3163 9.11288 32.5888 9.31381 32.7898C9.51475 32.9907 9.78727 33.1036 10.0714 33.1036H15.1982C15.7018 35.8893 18.1446 38 21.0696 38C23.9946 38 26.4375 35.8893 26.9411 33.1036H32.1043C32.3884 33.1036 32.661 32.9907 32.8619 32.7898C33.0628 32.5888 33.1757 32.3163 33.1757 32.0321C33.1757 31.748 33.0628 31.4755 32.8619 31.2745C32.661 31.0736 32.3884 30.9607 32.1043 30.9607Z" fill="black"/>
<path id="Vector_2" d="M33.7447 13.9248H24.0912C22.6233 13.9248 21.4126 15.1248 21.4126 16.6034V23.0212C21.4126 24.2641 22.2697 25.3141 23.4162 25.6141V26.5462C23.415 26.8076 23.4878 27.064 23.626 27.2859C23.7642 27.5078 23.9623 27.6861 24.1975 27.8003C24.4326 27.9145 24.6952 27.96 24.9551 27.9315C25.2149 27.9029 25.4614 27.8016 25.6662 27.6391L27.059 26.5355C27.734 25.9998 28.5912 25.6998 29.459 25.6998H33.734C34.4444 25.6998 35.1257 25.4176 35.6281 24.9153C36.1304 24.4129 36.4126 23.7316 36.4126 23.0212V16.6034C36.4126 15.1248 35.2126 13.9248 33.7447 13.9248ZM32.9733 19.8177C32.9733 20.4069 32.5019 20.8891 31.9019 20.8891C31.3126 20.8891 30.8305 20.4069 30.8305 19.8177C30.8305 19.2284 31.3019 18.7462 31.8912 18.7462H31.9019C32.5019 18.7462 32.9733 19.2284 32.9733 19.8177ZM30.0055 19.8177C30.0055 20.4069 29.534 20.8891 28.934 20.8891C28.3447 20.8891 27.8626 20.4069 27.8626 19.8177C27.8626 19.2284 28.334 18.7462 28.9233 18.7462H28.934C29.534 18.7462 30.0055 19.2284 30.0055 19.8177ZM24.8947 19.8177C24.8947 19.2284 25.3662 18.7462 25.9662 18.7462C26.5662 18.7462 27.0376 19.2284 27.0376 19.8177C27.0376 20.4069 26.5662 20.8891 25.9662 20.8891C25.3769 20.8891 24.8947 20.4069 24.8947 19.8177Z" fill="black"/>
</g>
</g>
<defs>
<clipPath id="clip0_1131_3003">
<rect width="46" height="46" fill="white"/>
</clipPath>
</defs>
</svg>
