<svg width="46" height="46" viewBox="0 0 46 46" fill="none" xmlns="http://www.w3.org/2000/svg">
<g clip-path="url(#clip0_1102_2205)">
<circle cx="23" cy="23" r="23" fill="#FDE410"/>
<g clip-path="url(#clip1_1102_2205)">
<path fill-rule="evenodd" clip-rule="evenodd" d="M33.5755 30.7314C35.5802 30.7314 37.2078 32.359 37.2078 34.3637C37.2078 36.3685 35.5802 37.9961 33.5755 37.9961C31.5707 37.9961 29.9431 36.3685 29.9431 34.3637C29.9431 32.359 31.5707 30.7314 33.5755 30.7314ZM31.6066 34.8147L32.5487 35.7553C32.6395 35.846 32.7617 35.8982 32.8899 35.9013C33.0182 35.9044 33.1427 35.8581 33.2377 35.7719L35.527 33.6963C35.6251 33.6072 35.6839 33.4828 35.6904 33.3504C35.6968 33.2179 35.6505 33.0884 35.5615 32.9901C35.4724 32.892 35.348 32.8332 35.2156 32.8268C35.0832 32.8203 34.9537 32.8666 34.8554 32.9556L32.9185 34.7118L32.3129 34.1072C32.2191 34.0136 32.0919 33.9611 31.9593 33.9612C31.8268 33.9613 31.6997 34.014 31.606 34.1078C31.4111 34.3031 31.4113 34.6199 31.6066 34.8147ZM11.6777 30.7314C13.6825 30.7314 15.3101 32.359 15.3101 34.3637C15.3101 36.3685 13.6825 37.9961 11.6777 37.9961C9.67301 37.9961 8.04541 36.3685 8.04541 34.3637C8.04541 32.359 9.67301 30.7314 11.6777 30.7314ZM9.70888 34.8147L10.651 35.7553C10.7418 35.846 10.864 35.8982 10.9922 35.9013C11.1204 35.9044 11.245 35.8581 11.34 35.7719L13.6292 33.6963C13.7274 33.6072 13.7862 33.4828 13.7926 33.3504C13.7991 33.2179 13.7528 33.0884 13.6638 32.9901C13.5747 32.892 13.4503 32.8332 13.3179 32.8267C13.1855 32.8203 13.0559 32.8666 12.9576 32.9556L11.0207 34.7118L10.4152 34.1072C10.3214 34.0136 10.1942 33.9611 10.0616 33.9612C9.92905 33.9613 9.80196 34.014 9.70825 34.1078C9.51336 34.3031 9.51361 34.6199 9.70888 34.8147ZM11.6777 8.00342C13.6825 8.00342 15.3101 9.63102 15.3101 11.6358C15.3101 13.6405 13.6825 15.2681 11.6777 15.2681C9.67301 15.2681 8.04541 13.6405 8.04541 11.6358C8.04541 9.63102 9.67301 8.00342 11.6777 8.00342ZM9.70888 12.0868L10.651 13.0274C10.7418 13.118 10.864 13.1702 10.9922 13.1733C11.1204 13.1764 11.2449 13.1301 11.34 13.0439L13.6292 10.9683C13.8336 10.783 13.8491 10.4666 13.6638 10.2622C13.5747 10.164 13.4503 10.1052 13.3179 10.0988C13.1855 10.0923 13.0559 10.1386 12.9576 10.2276L11.0207 11.9838L10.4152 11.3792C10.3213 11.2856 10.1942 11.2331 10.0616 11.2332C9.92904 11.2333 9.80195 11.2861 9.70825 11.3798C9.61465 11.4737 9.56213 11.6009 9.56225 11.7334C9.56237 11.866 9.61511 11.9931 9.70888 12.0868ZM33.5755 8.00342C35.5802 8.00342 37.2078 9.63102 37.2078 11.6358C37.2078 13.6405 35.5802 15.2681 33.5755 15.2681C31.5707 15.2681 29.9431 13.6405 29.9431 11.6358C29.9431 9.63102 31.5707 8.00342 33.5755 8.00342ZM31.6066 12.0868L32.5487 13.0274C32.6395 13.118 32.7617 13.1702 32.8899 13.1733C33.0181 13.1764 33.1427 13.1301 33.2377 13.0439L35.527 10.9683C35.7313 10.783 35.7468 10.4666 35.5615 10.2622C35.3762 10.0578 35.0598 10.0423 34.8554 10.2276L32.9185 11.9838L32.3129 11.3792C32.2191 11.2856 32.0919 11.2331 31.9593 11.2332C31.8268 11.2333 31.6997 11.2861 31.606 11.3798C31.5124 11.4737 31.4599 11.6009 31.46 11.7334C31.4601 11.866 31.5128 11.9931 31.6066 12.0868ZM22.6266 13.4346L31.1985 17.1089V24.0403C31.1985 28.8636 27.6881 33.0316 22.939 33.8595L22.6266 33.9141L22.3142 33.8595C17.5652 33.0316 14.0547 28.8636 14.0547 24.0403V17.1089L22.6266 13.4346ZM18.4191 22.143C18.0726 22.143 17.7903 22.4254 17.7903 22.7704V29.4605C17.7903 29.8069 18.0726 30.0878 18.4191 30.0878H26.8356C27.182 30.0878 27.4629 29.8069 27.4629 29.4605V22.7704C27.4629 22.4254 27.182 22.143 26.8356 22.143H18.4191ZM22.6274 23.7282C23.3027 23.7282 23.8501 24.2769 23.8501 24.9524C23.8505 25.1613 23.7973 25.3668 23.6956 25.5493C23.5939 25.7317 23.4471 25.8851 23.2693 25.9946V27.8608C23.2693 28.2145 22.9796 28.5027 22.6274 28.5027C22.2736 28.5027 21.9854 28.2145 21.9854 27.8608V25.9946C21.636 25.7792 21.4031 25.3934 21.4031 24.9524C21.4031 24.2769 21.9519 23.7282 22.6274 23.7282ZM24.4905 21.2058H26.0641V20.0742C26.0641 18.1833 24.5182 16.6359 22.6274 16.6359C20.7364 16.6359 19.1891 18.1833 19.1891 20.0742V21.2058H20.7641V20.0742C20.7641 19.0508 21.6055 18.2095 22.6274 18.2095C23.6492 18.2095 24.4905 19.0508 24.4905 20.0742V21.2058ZM10.4595 28.7674C10.5107 28.8897 10.5113 29.0273 10.4612 29.15C10.411 29.2727 10.3142 29.3704 10.1919 29.4218C10.0697 29.473 9.9321 29.4736 9.8094 29.4234C9.68671 29.3732 9.58895 29.2764 9.53761 29.1542C8.83009 27.4679 8.43888 25.6164 8.43888 23.6743C8.43888 21.2466 9.0501 18.9604 10.1267 16.9614C10.2575 16.7185 10.5609 16.6275 10.8038 16.7583C10.9205 16.8212 11.0074 16.9279 11.0455 17.0549C11.0836 17.1819 11.0697 17.3188 11.0069 17.4355C10.0064 19.2933 9.43863 21.4181 9.43863 23.6743C9.43863 25.4793 9.80192 27.2001 10.4595 28.7674ZM27.7383 35.8336C27.8605 35.7822 27.998 35.7814 28.1208 35.8313C28.2436 35.8813 28.3415 35.978 28.393 36.1001C28.4444 36.2223 28.4453 36.3599 28.3953 36.4827C28.3453 36.6055 28.2486 36.7034 28.1265 36.7549C26.4348 37.4678 24.5764 37.8621 22.6266 37.8621C20.5832 37.8621 18.6401 37.429 16.8841 36.6499C16.7629 36.5961 16.6681 36.4964 16.6204 36.3728C16.5727 36.2491 16.5761 36.1115 16.6298 35.9903C16.6836 35.8692 16.7833 35.7744 16.907 35.7267C17.0307 35.679 17.1683 35.6824 17.2895 35.7361C18.9215 36.4601 20.7274 36.8623 22.6266 36.8623C24.4387 36.8623 26.166 36.4962 27.7383 35.8336ZM34.2313 17.4077C34.1682 17.2912 34.154 17.1543 34.1918 17.0272C34.2296 16.9002 34.3163 16.7933 34.4328 16.7301C34.5494 16.667 34.6862 16.6528 34.8133 16.6906C34.9404 16.7283 35.0472 16.815 35.1104 16.9316C36.197 18.9377 36.8143 21.2345 36.8143 23.6743C36.8143 25.6166 36.4231 27.4681 35.7155 29.1545C35.6641 29.2767 35.5663 29.3735 35.4436 29.4237C35.3209 29.4739 35.1833 29.4733 35.0611 29.4221C34.9389 29.3707 34.842 29.273 34.7919 29.1503C34.7417 29.0276 34.7423 28.89 34.7936 28.7677C35.4512 27.2003 35.8146 25.4794 35.8146 23.6743C35.8146 21.4068 35.2411 19.2722 34.2313 17.4077ZM17.6383 11.4639C17.3829 11.5684 17.0908 11.446 16.9862 11.1906C16.8817 10.9353 17.0041 10.6432 17.2594 10.5387C18.9154 9.86059 20.7277 9.48662 22.6266 9.48662C24.5652 9.48662 26.4134 9.8764 28.0973 10.5815C28.2196 10.6328 28.3165 10.7305 28.3667 10.8531C28.417 10.9758 28.4165 11.1134 28.3653 11.2357C28.3141 11.3579 28.2164 11.4548 28.0937 11.5051C27.9711 11.5553 27.8335 11.5548 27.7112 11.5037C26.1462 10.8483 24.4283 10.4864 22.6266 10.4864C20.8617 10.4864 19.1774 10.8337 17.6383 11.4639Z" fill="#020A09"/>
</g>
</g>
<defs>
<clipPath id="clip0_1102_2205">
<rect width="46" height="46" fill="white"/>
</clipPath>
<clipPath id="clip1_1102_2205">
<rect width="29.2531" height="30" fill="white" transform="translate(8 8)"/>
</clipPath>
</defs>
</svg>
