<svg width="19" height="16" viewBox="0 0 19 16" fill="none" xmlns="http://www.w3.org/2000/svg">
<path id="Vector" d="M15.8971 15.3293C15.8404 15.4706 15.7542 15.5982 15.6442 15.7035C15.5341 15.8088 15.4029 15.8894 15.2591 15.9398C15.1154 15.9902 14.9626 16.0093 14.8109 15.9958C14.6592 15.9823 14.5121 15.9366 14.3796 15.8616L10.2681 12.6669L7.62931 15.1014C7.56808 15.1466 7.49646 15.1757 7.42103 15.186C7.3456 15.1963 7.26879 15.1875 7.19767 15.1603L7.70352 10.6342L7.71972 10.6471L7.73006 10.5577C7.73006 10.5577 15.1286 3.82181 15.4299 3.53482C15.7351 3.24857 15.6344 3.18648 15.6344 3.18648C15.6518 2.83733 15.0869 3.18648 15.0869 3.18648L5.28403 9.49305L1.20162 8.10271C1.20162 8.10271 0.574599 7.8778 0.515533 7.38331C0.453437 6.8926 1.22205 6.62604 1.22205 6.62604L17.4533 0.177901C17.4533 0.177901 18.7876 -0.416584 18.7876 0.567909L15.8971 15.3293Z" fill="white"/>
</svg>
