<svg width="17" height="13" viewBox="0 0 17 13" fill="none" xmlns="http://www.w3.org/2000/svg">
<path id="Vector" d="M16.4241 1.53887C15.8222 1.80137 15.1857 1.97583 14.5341 2.05687C15.2207 1.6495 15.7342 1.00443 15.9771 0.243867C15.3341 0.625204 14.6306 0.893743 13.8971 1.03787C13.4473 0.557647 12.8635 0.223786 12.2216 0.0796617C11.5796 -0.0644627 10.9091 -0.012189 10.2972 0.229691C9.68538 0.471572 9.16039 0.891878 8.7905 1.436C8.4206 1.98013 8.2229 2.62292 8.22307 3.28087C8.22307 3.54087 8.24507 3.79087 8.29907 4.02887C6.99415 3.96489 5.71743 3.62621 4.55237 3.03498C3.38732 2.44375 2.36017 1.61328 1.53807 0.597867C1.11689 1.31973 0.986681 2.17498 1.17396 2.98947C1.36123 3.80397 1.85191 4.51646 2.54607 4.98187C2.02683 4.96794 1.51855 4.82938 1.06407 4.57787V4.61387C1.06494 5.3713 1.32674 6.1053 1.80539 6.69233C2.28404 7.27935 2.95032 7.68354 3.69207 7.83687C3.41146 7.91082 3.12226 7.94714 2.83207 7.94487C2.62366 7.94857 2.41546 7.9298 2.21107 7.88887C2.42301 8.53989 2.83156 9.10921 3.38047 9.51842C3.92937 9.92764 4.59163 10.1566 5.27607 10.1739C4.11501 11.0819 2.68305 11.5745 1.20907 11.5729C0.940072 11.5729 0.682072 11.5609 0.424072 11.5279C1.92395 12.4944 3.67175 13.0057 5.45607 12.9999C11.4921 12.9999 14.7921 7.99987 14.7921 3.66587C14.7921 3.52087 14.7871 3.38087 14.7801 3.24187C15.427 2.77885 15.9841 2.20175 16.4241 1.53887Z" fill="white"/>
</svg>
