<svg width="46" height="46" viewBox="0 0 46 46" fill="none" xmlns="http://www.w3.org/2000/svg">
<g clip-path="url(#clip0_1133_3103)">
<circle cx="23" cy="23" r="23" fill="#FDE410"/>
<g clip-path="url(#clip1_1133_3103)">
<g clip-path="url(#clip2_1133_3103)">
<path d="M31.7498 14.2735L33.2451 16.9499L34.64 15.5549L33.1448 12.8785L31.7498 14.2735ZM34.0076 12.0157L35.5029 14.692L36.8978 13.2971L35.403 10.6203L34.0076 12.0157ZM39.9291 9.39673L38.7123 8.18C38.4723 7.94 38.0833 7.94 37.8433 8.18L36.2659 9.75738L37.7607 12.4342L39.9291 10.2659C40.1691 10.0259 40.1691 9.63673 39.9291 9.39673ZM30.7157 30.1192V37.5445C32.1667 36.8533 33.0641 35.3965 33.0641 33.8318C33.0641 32.269 32.1684 30.8111 30.7157 30.1192ZM24.8449 33.8318C24.8449 35.3852 25.7319 36.8484 27.1932 37.5444V30.1191C25.7423 30.8103 24.8449 32.2671 24.8449 33.8318ZM28.3674 29.7645V37.8991C28.7568 37.9555 29.1522 37.9555 29.5416 37.8991V29.7645C29.1522 29.7081 28.7568 29.7081 28.3674 29.7645ZM32.0061 19.842L31.1795 19.0154L32.3822 17.8127L30.887 15.1364L29.0937 16.9296L28.2673 16.1032C27.5576 15.3935 26.4087 15.3934 25.6989 16.1032L24.2681 17.534L30.5753 23.8413L32.0061 22.4105C32.7159 21.7007 32.7159 20.5519 32.0061 19.842ZM17.1949 31.7446L18.5294 35.8872L29.7451 24.6715L27.0065 21.933L17.1949 31.7446ZM11.2891 30.513L10.8797 30.9224C9.93203 31.8701 9.93203 33.4121 10.8797 34.3599L13.7495 37.2297C14.6972 38.1773 16.2392 38.1773 17.187 37.2297L17.5963 36.8203L16.0595 32.0498L11.2891 30.513ZM26.1762 21.1027L23.4378 18.3643L12.2222 29.5799L16.3645 30.9144L26.1762 21.1027Z" fill="black"/>
<g clip-path="url(#clip3_1133_3103)">
<path d="M17.667 17.4659C17.838 17.2949 17.838 17.0176 17.667 16.8466C17.496 16.6756 17.2187 16.6756 17.0477 16.8466C16.8767 17.0176 16.8767 17.2949 17.0477 17.4659C17.2187 17.6369 17.496 17.6369 17.667 17.4659Z" fill="black"/>
<path d="M15.4651 19.6671C15.6361 19.4961 15.6361 19.2188 15.4651 19.0478C15.2941 18.8768 15.0168 18.8768 14.8458 19.0478C14.6748 19.2188 14.6748 19.4961 14.8458 19.6671C15.0168 19.8381 15.2941 19.8381 15.4651 19.6671Z" fill="black"/>
<path d="M20.4213 14.3067L17.6847 12.7864C16.5752 12.1697 15.1917 12.3637 14.2943 13.2611L14.5958 14.1668L13.865 14.8976L13.5982 14.6308C13.3312 14.3638 12.8981 14.3638 12.6309 14.631C12.4974 14.7645 12.4306 14.9395 12.4306 15.1145C12.4306 15.2895 12.4975 15.4647 12.6309 15.5981L12.8978 15.8649L12.1675 16.5952L11.2618 16.2935C10.8131 16.7426 10.5402 17.3128 10.4569 17.9095C10.3733 18.5066 10.4789 19.1298 10.7873 19.6845L12.3074 22.4209C12.9231 23.5294 14.4287 23.7403 15.3253 22.8437C15.9557 22.1609 16.0463 21.189 15.5494 20.4045C15.1511 20.5536 14.6842 20.4685 14.3643 20.1486C13.9279 19.7122 13.9279 19.0023 14.3641 18.5661C14.7875 18.1428 15.4685 18.1303 15.9071 18.5284L16.5284 17.9071C16.1302 17.4685 16.1427 16.7875 16.5661 16.3642C17.0023 15.928 17.7122 15.928 18.1485 16.3643C18.4683 16.6841 18.5536 17.1508 18.4046 17.5489C19.1978 18.0458 20.1601 17.9566 20.8442 17.3248C21.7408 16.4282 21.5298 14.9223 20.4213 14.3067ZM13.4002 18.1413L12.9165 18.625L13.4002 19.1088L12.9186 19.5904L12.4349 19.1067L11.9514 19.5902L11.4697 19.1086L11.9533 18.625L11.4696 18.1413L11.9512 17.6597L12.4349 18.1434L12.9186 17.6597L13.4002 18.1413ZM15.4953 16.0463L14.0464 17.4952L13.5648 17.0135L15.0137 15.5647L15.4953 16.0463ZM17.5903 13.9512L17.1066 14.4349L17.5903 14.9187L17.1087 15.4003L16.625 14.9166L16.1415 15.4001L15.6598 14.9185L16.1434 14.4349L15.6597 13.9512L16.1413 13.4696L16.625 13.9533L17.1087 13.4696L17.5903 13.9512ZM10.6208 15.0126L11.3019 15.0126C11.3019 14.5554 11.4799 14.1257 11.8031 13.8025C12.1263 13.4793 12.5561 13.3012 13.0132 13.3012L13.0132 12.6201C12.3741 12.6201 11.7733 12.869 11.3215 13.3209C10.8696 13.7728 10.6208 14.3735 10.6208 15.0126Z" fill="black"/>
<path d="M10.8359 12.8358C11.4175 12.2543 12.1907 11.934 13.0132 11.934L13.0132 11.2529C12.0088 11.2529 11.0645 11.644 10.3543 12.3542C9.64404 13.0645 9.2529 14.0088 9.25292 15.0132L9.93403 15.0132C9.93401 14.1907 10.2543 13.4174 10.8359 12.8358Z" fill="black"/>
</g>
</g>
</g>
</g>
<defs>
<clipPath id="clip0_1133_3103">
<rect width="46" height="46" fill="white"/>
</clipPath>
<clipPath id="clip1_1133_3103">
<rect width="30" height="30" fill="white" transform="translate(8 8)"/>
</clipPath>
<clipPath id="clip2_1133_3103">
<rect width="34.1096" height="30" fill="white" transform="translate(6 8)"/>
</clipPath>
<clipPath id="clip3_1133_3103">
<rect width="11.6243" height="11.6243" fill="white" transform="translate(6 16.2197) rotate(-45)"/>
</clipPath>
</defs>
</svg>
