<svg width="93" height="29" viewBox="0 0 93 29" fill="none" xmlns="http://www.w3.org/2000/svg">
<g id="Amatic" style="mix-blend-mode:luminosity">
<g id="&#208;&#161;&#208;&#187;&#208;&#190;&#208;&#185; 2">
<g id="&#208;&#161;&#208;&#187;&#208;&#190;&#208;&#185; 1">
<path id="Vector" d="M33.0477 7.17328L31.5757 10.9822C30.5704 13.6456 29.5575 16.31 28.537 18.9755C28.4913 19.1028 28.5011 19.3019 28.2824 19.3019C28.0638 19.3019 28.0703 19.1126 28.0213 18.9755C26.583 15.3069 25.1458 11.6383 23.7097 7.96967C23.6706 7.86849 23.664 7.74446 23.5237 7.64328V8.05779C23.5237 10.7603 23.5237 13.4639 23.5237 16.1686C23.5214 16.6391 23.5619 17.1088 23.6444 17.572C23.7848 18.339 24.0524 18.6165 24.8097 18.7764C24.8978 18.8042 24.9886 18.8228 25.0806 18.8319C25.2829 18.8319 25.2405 18.9755 25.2503 19.0963C25.2503 19.2692 25.1589 19.2725 25.0316 19.2725H21.0986C20.9681 19.2725 20.8734 19.2725 20.8865 19.0897C20.8995 18.907 20.8865 18.8711 21.0627 18.8286C22.4074 18.5022 22.4727 18.4337 22.649 17.0694C22.6762 16.8059 22.6871 16.5411 22.6816 16.2763C22.6816 13.2408 22.6816 10.2043 22.6816 7.16675C22.6811 6.8671 22.656 6.56799 22.6065 6.27244C22.5901 6.07021 22.5078 5.87894 22.3722 5.72801C22.2365 5.57707 22.0552 5.4748 21.8558 5.43689C21.6346 5.38109 21.41 5.33966 21.1835 5.31286C20.9974 5.31286 20.9224 5.2639 20.9224 5.05828C20.9224 4.85265 21.0594 4.84286 21.2128 4.84286C22.2247 4.84286 23.2397 4.84286 24.2515 4.84286C24.3595 4.8265 24.4697 4.85084 24.5608 4.91115C24.6519 4.97146 24.7173 5.06344 24.7444 5.16925C26.1 8.67467 27.461 12.1768 28.8275 15.6757C28.8275 15.6757 28.8275 15.6953 28.8471 15.7083C28.9776 15.6594 28.9711 15.5256 29.007 15.4277C30.2843 12.0049 31.5616 8.57457 32.8388 5.13661C32.8593 5.04349 32.9147 4.96178 32.9937 4.90833C33.0726 4.85488 33.1691 4.83379 33.2631 4.84939C34.2847 4.84939 35.3096 4.84939 36.3344 4.84939C36.4683 4.84939 36.6412 4.78411 36.6608 5.04196C36.6608 5.25085 36.5956 5.29654 36.3932 5.32592C35.3292 5.48585 35.0615 5.79592 35.0517 6.9089C35.0517 8.61265 35.0517 10.3131 35.0517 12.0169C35.0517 13.6162 35.0517 15.2155 35.0517 16.8148C35.0501 17.1598 35.073 17.5045 35.1203 17.8462C35.1317 18.0546 35.2125 18.2532 35.3496 18.4105C35.4868 18.5677 35.6726 18.6747 35.8775 18.7144C36.0752 18.7717 36.2771 18.8131 36.4813 18.8384C36.6772 18.8384 36.6608 18.9624 36.6674 19.093C36.6739 19.2236 36.5988 19.2823 36.4617 19.2823H31.6736C31.5561 19.2823 31.4419 19.2823 31.4484 19.1126C31.4549 18.9429 31.4484 18.8743 31.6508 18.8417C32.8715 18.6328 33.0869 18.4468 33.0934 17.324C33.1162 13.9426 33.0934 10.5612 33.0934 7.17981L33.0477 7.17328Z" fill="#AF81EB"/>
<path id="Vector_2" d="M45.8747 21.3875H0.650303C0.425095 21.3875 0.229261 21.4234 0.242317 21.0611C0.242317 20.7706 0.333706 20.7054 0.6144 20.7054C30.7945 20.7054 60.9768 20.7054 91.1612 20.7054C91.2314 20.7027 91.301 20.7192 91.3626 20.7529C91.4242 20.7867 91.4755 20.8366 91.511 20.8972C91.5465 20.9578 91.5649 21.0269 91.5642 21.0972C91.5635 21.1674 91.5438 21.2362 91.5072 21.2961C91.4965 21.3218 91.4775 21.3432 91.4533 21.3568C91.429 21.3704 91.4008 21.3755 91.3734 21.3712C91.282 21.3712 91.1906 21.3712 91.0959 21.3712L45.8747 21.3875Z" fill="#AF81EB"/>
<path id="Vector_3" d="M80.4033 12.2907C80.4262 10.0941 80.9484 8.13901 82.4106 6.5397C84.1698 4.6238 86.3436 4.25498 88.7719 4.93387C89.1146 5.03179 89.4508 5.15255 89.7902 5.26026C89.8807 5.29805 89.9778 5.3172 90.0758 5.31653C90.1738 5.31587 90.2707 5.29542 90.3606 5.25641C90.4506 5.21739 90.5317 5.16062 90.5991 5.08949C90.6665 5.01836 90.7189 4.93435 90.7531 4.84248C90.7641 4.80216 90.7834 4.76456 90.8097 4.73204C90.8359 4.69951 90.8686 4.67275 90.9057 4.65345C90.9427 4.63414 90.9834 4.6227 91.0251 4.61985C91.0668 4.61699 91.1087 4.62278 91.148 4.63685C91.3504 4.67276 91.2753 4.86206 91.2818 4.96324C91.3275 6.14477 91.3602 7.32956 91.3961 8.51109C91.3961 8.75262 91.4255 8.99415 91.4255 9.23567C91.4255 9.34012 91.5299 9.50331 91.308 9.5229C91.086 9.54248 90.962 9.54574 90.9065 9.2879C90.7634 8.67317 90.536 8.08117 90.2309 7.52866C88.9612 5.16887 86.4089 5.09054 84.9466 6.14804C83.97 6.86333 83.2831 7.9059 83.0111 9.08554C82.4302 11.2593 82.3584 13.4428 83.1548 15.5839C83.6541 16.9254 84.5027 18.0057 85.9258 18.4529C87.5088 18.9555 88.9318 18.5345 90.208 17.5227C90.5199 17.2686 90.8153 16.9949 91.0925 16.7035C91.1578 16.6349 91.21 16.3771 91.3863 16.5566C91.5136 16.6904 91.7649 16.8014 91.543 17.0853C90.8993 17.9576 90.0567 18.6637 89.0853 19.1448C87.7562 19.7539 86.2479 19.8456 84.8548 19.402C83.4618 18.9584 82.2843 18.0113 81.5522 16.7459C80.7835 15.3879 80.3872 13.851 80.4033 12.2907Z" fill="#AF81EB"/>
<path id="Vector_4" d="M60.1052 11.6711C60.1052 9.82051 60.1052 7.96662 60.1052 6.12253C60.1052 5.86141 60.04 5.79614 59.7789 5.79614C59.1132 5.77435 58.4471 5.82138 57.7911 5.93648C57.5257 5.98818 57.2779 6.10716 57.0716 6.28203C56.8653 6.45691 56.7074 6.68182 56.6129 6.93523C56.4232 7.40261 56.2917 7.8915 56.2212 8.39093C56.1853 8.6553 56.0025 8.57044 55.8589 8.5835C55.7153 8.59655 55.6859 8.48232 55.6892 8.35829C55.7316 7.27794 55.7773 6.20086 55.8034 5.12051C55.8034 4.91162 55.8589 4.84961 56.0743 4.84961C59.3861 4.84961 62.6989 4.84961 66.0129 4.84961C66.1859 4.84961 66.287 4.86919 66.2903 5.08787C66.3066 6.15516 66.3425 7.22246 66.3621 8.29301C66.3621 8.41051 66.4339 8.58023 66.1924 8.5835C65.9998 8.5835 65.866 8.56392 65.8366 8.33544C65.7602 7.89053 65.6433 7.45354 65.4874 7.02989C65.3957 6.71908 65.2136 6.4426 64.9643 6.23566C64.7149 6.02873 64.4096 5.90072 64.0872 5.86794C63.4374 5.79085 62.7828 5.76249 62.1289 5.78308C61.9918 5.78308 61.9428 5.8353 61.9559 5.96586C61.9591 6.02348 61.9591 6.08123 61.9559 6.13885C61.9559 9.64644 61.9559 13.1551 61.9559 16.6649C61.9506 17.1025 61.9867 17.5396 62.0636 17.9704C62.0877 18.1484 62.1677 18.3142 62.2921 18.4438C62.4164 18.5734 62.5787 18.6602 62.7555 18.6918C63.0219 18.7623 63.2938 18.8103 63.5682 18.8354C63.7641 18.8517 63.7412 18.9594 63.751 19.0867C63.7608 19.214 63.6923 19.2793 63.5486 19.2793H58.5908C58.4668 19.2793 58.3591 19.2793 58.3689 19.1095C58.3786 18.9398 58.3525 18.8191 58.5712 18.8452C58.5939 18.8484 58.617 18.8484 58.6398 18.8452C59.8702 18.6461 60.0857 18.4209 60.0955 17.161C60.1118 15.33 60.0955 13.5022 60.0955 11.6711H60.1052Z" fill="#AF81EB"/>
<path id="Vector_5" d="M73.3209 19.2864H70.8371C70.6967 19.2864 70.5629 19.3125 70.5694 19.0905C70.576 18.8686 70.6282 18.8555 70.8044 18.8458C71.0108 18.8293 71.2152 18.7932 71.4148 18.738C72.0675 18.5749 72.2536 18.3692 72.3189 17.7034C72.3482 17.377 72.3678 17.0506 72.3678 16.7242C72.3678 13.6431 72.3678 10.5609 72.3678 7.47763C72.3684 7.0885 72.3378 6.69995 72.2764 6.31569C72.2543 6.09699 72.1592 5.89211 72.0064 5.73404C71.8537 5.57596 71.6522 5.47388 71.4344 5.44423C71.2336 5.39598 71.0296 5.36217 70.824 5.34305C70.6412 5.34305 70.5662 5.29409 70.5662 5.08846C70.5662 4.88284 70.7 4.87305 70.8566 4.87305H75.7884C75.9385 4.87305 76.056 4.87305 76.0528 5.07867C76.0495 5.2843 76.0103 5.32999 75.8112 5.34631C74.6003 5.45076 74.3 5.73145 74.2772 6.95214C74.2413 8.94964 74.2511 10.9504 74.2511 12.9512C74.2511 14.3775 74.2511 15.8038 74.2772 17.2269C74.3066 18.4933 74.5024 18.6858 75.7721 18.8588C75.9516 18.8817 76.0658 18.8882 76.0528 19.1264C76.0397 19.3647 75.8537 19.2994 75.7264 19.2994C74.93 19.2896 74.1271 19.2864 73.3209 19.2864Z" fill="#AF81EB"/>
<path id="Vector_6" d="M9.96863 25.8332C9.96863 26.3619 9.95231 26.8907 9.96863 27.4194C9.98495 27.7132 9.82502 27.7001 9.64224 27.6838C9.45946 27.6675 9.25057 27.7752 9.2571 27.4292C9.27342 26.1237 9.2571 24.8181 9.2571 23.5126C9.2571 23.4081 9.21793 23.2417 9.40398 23.2776C9.59002 23.3135 9.86745 23.1078 9.96536 23.4212C10.184 24.1327 10.3831 24.8475 10.5888 25.5623C10.6443 25.6635 10.7291 25.7549 10.6671 25.8887C10.752 25.7842 10.6149 25.6798 10.6671 25.5623C10.6508 24.8867 10.6475 24.2078 10.6116 23.5321C10.592 23.1633 10.8401 23.2808 11.0196 23.2612C11.1991 23.2417 11.3623 23.2449 11.346 23.5321C11.346 24.8377 11.346 26.1433 11.346 27.4292C11.346 27.5435 11.3949 27.723 11.1861 27.6871C10.9772 27.6512 10.7095 27.8503 10.6084 27.5043C10.419 26.8515 10.2276 26.2053 10.0339 25.5655C10.0001 25.5337 9.9742 25.4944 9.95833 25.4508C9.94246 25.4071 9.93704 25.3603 9.94252 25.3142C10.0013 25.4546 9.88377 25.6439 9.96863 25.8332Z" fill="#AF81EB"/>
<path id="Vector_7" d="M30.5476 25.2514C30.5476 25.803 30.5672 26.3579 30.5476 26.9062C30.5476 27.1967 30.652 27.2326 30.874 27.213C31.0959 27.1934 31.233 27.213 31.2265 26.916C31.2069 25.803 31.2265 24.6868 31.2102 23.5705C31.2102 23.2735 31.3211 23.2441 31.5692 23.2441C31.8172 23.2441 31.938 23.2441 31.9315 23.5705C31.9086 24.615 31.9315 25.6627 31.9315 26.7071C31.9315 27.4284 31.53 27.7907 30.8054 27.7189C30.0809 27.6471 29.8491 27.3925 29.8491 26.6712C29.8491 25.6235 29.8491 24.5791 29.8491 23.5314C29.8491 23.1723 30.0613 23.2703 30.2506 23.2539C30.4399 23.2376 30.577 23.2539 30.577 23.5314C30.5313 24.0993 30.5476 24.677 30.5476 25.2514Z" fill="#AF81EB"/>
<path id="Vector_8" d="M42.2094 26.4101C42.2044 26.5014 42.2044 26.5929 42.2094 26.6842C42.2581 26.8754 42.2335 27.0778 42.1405 27.2518C42.0475 27.4257 41.8927 27.5586 41.7067 27.6242C41.4715 27.7159 41.2163 27.7436 40.9669 27.7046C40.7175 27.6656 40.4829 27.5613 40.2869 27.4023C40.1896 27.2943 40.1252 27.1606 40.1015 27.0171C40.0778 26.8737 40.0957 26.7264 40.1531 26.5928C40.2216 26.4003 40.5219 26.5439 40.7178 26.521C40.9136 26.4982 40.8255 26.632 40.832 26.7169C40.832 26.7495 40.832 26.7854 40.832 26.818C40.8222 26.8905 40.8331 26.9642 40.8634 27.0307C40.8937 27.0972 40.9421 27.1539 41.0032 27.1941C41.0642 27.2343 41.1353 27.2565 41.2084 27.2581C41.2815 27.2597 41.3535 27.2407 41.4162 27.2032C41.5011 27.1673 41.5011 27.1085 41.5011 27.04C41.5011 26.6614 41.5011 26.2828 41.5011 25.9041C41.5011 25.7507 41.4391 25.7018 41.2955 25.705C41.0777 25.7133 40.8596 25.7067 40.6427 25.6855C40.5664 25.6873 40.4906 25.672 40.4209 25.6408C40.3513 25.6095 40.2895 25.5631 40.24 25.5049C40.1906 25.4467 40.1548 25.3782 40.1352 25.3044C40.1157 25.2306 40.1129 25.1534 40.127 25.0784C40.127 24.7096 40.127 24.344 40.127 23.9752C40.1209 23.8888 40.1328 23.8022 40.162 23.7207C40.1912 23.6392 40.2371 23.5647 40.2967 23.5019C40.5459 23.298 40.8591 23.1887 41.1811 23.1935C41.5031 23.1983 41.8129 23.3168 42.0559 23.528C42.1449 23.6348 42.2041 23.7631 42.2276 23.9001C42.2511 24.0371 42.2381 24.1778 42.1898 24.3081C42.1343 24.5301 41.8634 24.3766 41.7067 24.4093C41.5925 24.4321 41.5011 24.4093 41.5076 24.2494V24.109C41.5134 24.0364 41.4994 23.9636 41.467 23.8983C41.4346 23.8331 41.3851 23.7779 41.3237 23.7386C41.2623 23.6994 41.1914 23.6776 41.1186 23.6756C41.0458 23.6735 40.9738 23.6914 40.9103 23.7271C40.8026 23.7761 40.8385 23.861 40.8385 23.9328C40.8385 24.2591 40.8385 24.6214 40.8385 24.9674C40.8385 25.1437 40.8777 25.2122 41.067 25.2024C41.2848 25.1847 41.504 25.1935 41.7198 25.2285C42.0951 25.2971 42.2191 25.4668 42.2191 25.8454C42.2126 26.0575 42.2094 26.2273 42.2094 26.4101Z" fill="#AF81EB"/>
<path id="Vector_9" d="M90.8935 26.4209C90.8935 25.7387 90.8935 25.7387 90.2146 25.7061C89.6858 25.68 89.5194 25.5103 89.5194 24.9913C89.5194 24.6649 89.5194 24.3026 89.5194 23.9566C89.5144 23.8063 89.5683 23.6599 89.6695 23.5487C89.9165 23.3322 90.2338 23.2129 90.5622 23.2129C90.8906 23.2129 91.2079 23.3322 91.4549 23.5487C91.5421 23.657 91.5999 23.786 91.6228 23.9232C91.6457 24.0604 91.6328 24.2012 91.5854 24.332C91.5234 24.5703 91.259 24.3973 91.0697 24.4364C90.8804 24.4756 90.8837 24.3875 90.8967 24.2569C90.8984 24.2341 90.8984 24.2112 90.8967 24.1884C90.8967 23.7216 90.8413 23.6923 90.3941 23.7445C90.257 23.7445 90.2211 23.8196 90.2244 23.9436C90.2276 24.0676 90.2244 24.2178 90.2244 24.3581C90.2244 24.6225 90.1395 24.9391 90.257 25.1349C90.3745 25.3307 90.7401 25.1904 90.9947 25.2263C91.4516 25.2948 91.605 25.458 91.605 25.928C91.605 26.1924 91.605 26.4568 91.605 26.7212C91.605 27.4359 91.2003 27.8015 90.4757 27.733C89.7511 27.6644 89.5194 27.4066 89.5161 26.7832C89.5161 26.5514 89.6042 26.5351 89.7935 26.5221C90.1199 26.4992 90.306 26.558 90.2276 26.9333C90.1624 27.2597 90.368 27.2205 90.5736 27.2238C90.7792 27.2271 90.9424 27.2238 90.9 26.9529C90.8858 26.7759 90.8836 26.5982 90.8935 26.4209Z" fill="#AF81EB"/>
<path id="Vector_10" d="M79.3819 25.4731C79.3819 24.9443 79.3819 24.4156 79.3819 23.8868C79.3819 23.4854 79.5582 23.283 79.9596 23.2602C80.3611 23.2373 80.8539 23.2602 81.3044 23.2602C81.5002 23.2602 81.4806 23.3809 81.4871 23.5115C81.4937 23.642 81.461 23.753 81.2815 23.7465C80.9714 23.7465 80.6614 23.7465 80.3513 23.7465C80.175 23.7465 80.0935 23.7856 80.113 23.9749C80.119 24.0837 80.119 24.1926 80.113 24.3013C80.113 24.5886 80.0216 24.9541 80.1587 25.1402C80.2958 25.3262 80.6712 25.1989 80.9421 25.1989C81.151 25.1989 81.1477 25.3099 81.1542 25.46C81.1607 25.6102 81.1248 25.7113 80.929 25.7081C80.6679 25.7081 80.3252 25.5906 80.1685 25.757C80.0119 25.9235 80.1196 26.2858 80.1163 26.5567C80.1163 27.2095 80.1163 27.2095 80.7495 27.2095C80.8996 27.2095 81.0498 27.2095 81.1999 27.2095C81.35 27.2095 81.4969 27.2095 81.4904 27.4575C81.4839 27.7056 81.386 27.6958 81.213 27.6925C80.8441 27.6925 80.4753 27.6925 80.1098 27.6925C79.581 27.6925 79.3787 27.4869 79.3787 26.9647L79.3819 25.4731Z" fill="#AF81EB"/>
<path id="Vector_11" d="M51.5573 25.758C51.5573 26.3226 51.5573 26.884 51.5573 27.4454C51.5573 27.8044 51.319 27.6641 51.1558 27.6804C50.9926 27.6967 50.8294 27.7228 50.8294 27.4389C50.849 26.3128 50.8294 25.1868 50.8294 24.0608C50.8294 23.7801 50.7446 23.705 50.4835 23.7344C50.2876 23.7539 50.0918 23.7768 50.1244 23.4569C50.1408 23.2872 50.1897 23.248 50.3464 23.248C50.8969 23.248 51.4485 23.248 52.0012 23.248C52.1742 23.248 52.2133 23.3166 52.2035 23.47C52.1937 23.6234 52.2296 23.7637 52.0077 23.7376C51.9392 23.7376 51.8674 23.7376 51.7988 23.7376C51.5899 23.7083 51.5214 23.7899 51.5246 24.0053C51.5671 24.5862 51.5573 25.1737 51.5573 25.758Z" fill="#AF81EB"/>
<path id="Vector_12" d="M1.06149 25.4843C1.06149 26.1371 1.06149 26.7703 1.06149 27.4133C1.06149 27.7005 0.927675 27.7071 0.735106 27.6842C0.542536 27.6614 0.317328 27.7919 0.320592 27.4198C0.337999 26.1143 0.337999 24.8163 0.320592 23.526C0.320592 23.1996 0.503369 23.2518 0.695939 23.2518C0.888508 23.2518 1.08434 23.1833 1.07129 23.5195C1.04191 24.1723 1.06149 24.8283 1.06149 25.4843Z" fill="#AF81EB"/>
<path id="Vector_13" d="M71.1961 25.4571C71.1961 26.1099 71.1961 26.7627 71.1961 27.4154C71.1961 27.7418 70.9937 27.6733 70.8142 27.6766C70.6347 27.6798 70.4585 27.7288 70.4617 27.422C70.478 26.1164 70.4617 24.8109 70.4617 23.5053C70.4617 23.1789 70.6575 23.2573 70.8273 23.2605C70.997 23.2638 71.2059 23.1789 71.1961 23.4988C71.1863 24.1483 71.1961 24.8011 71.1961 25.4571Z" fill="#AF81EB"/>
<path id="Vector_14" d="M9.96867 25.8325C9.90488 25.6204 9.89813 25.3952 9.94909 25.1797L10.034 25.555C9.94583 25.6301 10.0078 25.7313 9.96867 25.8325Z" fill="#AF81EB"/>
<path id="Vector_15" d="M10.6639 25.5514C10.699 25.6089 10.7193 25.674 10.7233 25.7412C10.7273 25.8083 10.7148 25.8754 10.6868 25.9366L10.5889 25.5449L10.6639 25.5514Z" fill="#AF81EB"/>
<path id="Vector_16" d="M17.2145 18.7079C16.903 18.6771 16.6068 18.5573 16.3615 18.3629C16.1161 18.1684 15.9318 17.9075 15.8306 17.6112C15.7327 17.3566 15.5989 17.1118 15.5043 16.854C14.3271 13.712 13.1521 10.5688 11.9793 7.42462C11.1176 5.13772 10.2624 2.85082 9.41384 0.563924C9.34856 0.394201 9.29634 0.273438 9.05481 0.273438C8.81328 0.273438 8.7578 0.413785 8.69252 0.599826C7.07581 5.09747 5.45583 9.59837 3.83259 14.1025C3.41887 15.3271 2.93279 16.5259 2.37689 17.6928C2.26107 17.9512 2.08403 18.1775 1.8611 18.3521C1.63817 18.5267 1.37606 18.6443 1.09745 18.6948C0.77106 18.7503 0.875504 18.9461 0.862448 19.1191C0.862448 19.3705 1.04849 19.2758 1.15946 19.2758C2.54988 19.2758 3.94356 19.2758 5.33724 19.2758C5.54613 19.2758 5.63752 19.2464 5.63425 19.0016C5.63099 18.7568 5.55919 18.7177 5.34377 18.7014C4.4005 18.6165 4.03821 18.3195 4.00231 17.5916C3.99618 17.3712 4.0237 17.151 4.08391 16.9389C4.39071 15.728 4.84766 14.5627 5.223 13.3714C5.27849 13.1952 5.37967 13.1658 5.54939 13.1658C6.50245 13.1658 7.45877 13.1658 8.41182 13.1658C9.36488 13.1658 10.3016 13.1658 11.2449 13.1658C11.3269 13.151 11.4114 13.1681 11.4812 13.2136C11.551 13.2591 11.6007 13.3296 11.6202 13.4106C11.9303 14.2984 12.273 15.1731 12.5798 16.0609C12.808 16.6259 12.9329 17.2273 12.9486 17.8364C12.9614 17.9227 12.9563 18.0106 12.9335 18.0948C12.9108 18.179 12.8709 18.2575 12.8163 18.3255C12.7618 18.3936 12.6938 18.4496 12.6166 18.4901C12.5394 18.5306 12.4546 18.5548 12.3677 18.561C12.0903 18.6299 11.8074 18.6747 11.5223 18.6948C11.2384 18.6948 11.3069 18.8907 11.2906 19.0539C11.2743 19.217 11.3885 19.2693 11.5452 19.2693H17.1656C17.2863 19.2693 17.4463 19.3084 17.4202 19.0995C17.4038 18.9559 17.5181 18.7503 17.2145 18.7079ZM10.8336 12.0234C9.22453 12.0234 7.61217 12.0234 6.00307 12.0234C5.78113 12.0234 5.72891 11.9941 5.81377 11.7591C6.68196 9.30788 7.54037 6.86323 8.42488 4.33045L11.1502 11.9712C11.054 12.025 10.942 12.0434 10.8336 12.0234Z" fill="#AF81EB"/>
<path id="Vector_17" d="M53.4634 18.8183C53.2357 18.7817 53.0224 18.6836 52.8464 18.5347C52.6703 18.3857 52.5384 18.1915 52.4646 17.973C52.3634 17.7184 52.2427 17.4704 52.1382 17.2125C50.6151 13.1261 49.0919 9.03973 47.5688 4.95334C47.5166 4.80647 47.5198 4.62695 47.262 4.62695C47.0041 4.62695 46.9911 4.8032 46.9356 4.95334C46.0282 7.46327 45.1339 9.97647 44.22 12.4831C43.5673 14.2587 42.9863 16.0734 42.2258 17.7902C42.1374 18.0537 41.9815 18.2894 41.7736 18.4738C41.5657 18.6582 41.3131 18.7849 41.041 18.8412C40.8321 18.8771 40.9072 19.0142 40.8909 19.1219C40.8745 19.2296 40.9627 19.2883 41.0802 19.2851C42.1866 19.2851 43.2898 19.2851 44.393 19.2851C44.566 19.2851 44.6019 19.2133 44.6052 19.0566C44.6084 18.8999 44.5236 18.8575 44.3734 18.8445C43.3159 18.74 43.1723 18.2145 43.4236 17.3529C43.675 16.4912 43.972 15.6752 44.2298 14.8331C44.2951 14.6112 44.4061 14.559 44.6215 14.5622C45.3232 14.5622 46.025 14.5622 46.7267 14.5622H48.4174C49.1257 14.5622 49.1355 14.5622 49.3607 15.215C49.6889 16.0207 49.9636 16.8472 50.1832 17.689C50.3366 18.443 50.1832 18.6682 49.4423 18.789C49.3653 18.8105 49.2867 18.8258 49.2073 18.8347C49.0277 18.8347 48.9429 18.8804 48.9429 19.086C48.9429 19.2916 49.0898 19.2753 49.2236 19.2753C50.614 19.2753 52.0077 19.2753 53.3981 19.2753C53.5025 19.2753 53.6625 19.3536 53.6853 19.1382C53.7082 18.9228 53.6657 18.851 53.4634 18.8183ZM44.8695 13.6745C44.6345 13.6745 44.7096 13.5635 44.7553 13.4395L46.7561 7.75376C47.4741 9.77411 48.1661 11.7063 48.8678 13.6745C47.5068 13.6745 46.1882 13.6712 44.8695 13.6745Z" fill="#AF81EB"/>
<path id="Vector_18" d="M62.2888 27.1477C62.2888 26.7821 62.2888 26.4133 62.2888 26.0445C62.2692 25.8446 62.2104 25.6505 62.1158 25.4733C62.0701 25.3558 62.3084 25.1469 62.292 24.9185C62.2692 24.5921 62.292 24.2494 62.292 23.9164C62.292 23.466 62.1027 23.2637 61.6393 23.2637C61.2476 23.2637 60.8559 23.2637 60.4675 23.2637C60.2358 23.2637 60.177 23.3322 60.1803 23.5542C60.1803 24.8597 60.1803 26.1294 60.1803 27.4153C60.1803 27.7711 60.3859 27.683 60.5785 27.7026C60.7711 27.7221 60.9343 27.6764 60.9049 27.3958C60.882 26.9127 60.9049 26.4166 60.9049 25.9466C60.9049 25.6463 61.1007 25.7344 61.2541 25.7246C61.4075 25.7149 61.5805 25.6953 61.5609 25.9531C61.5381 26.2795 61.5609 26.6059 61.5609 26.9323C61.5609 27.7515 61.5609 27.7515 62.4259 27.696C62.3147 27.5362 62.2659 27.3411 62.2888 27.1477ZM61.5609 24.0111C61.5413 24.3437 61.5413 24.6772 61.5609 25.0099C61.5609 25.3003 61.3684 25.2024 61.2345 25.2057C61.1007 25.2089 60.8886 25.2905 60.9081 25.0066C60.9081 24.8238 60.9081 24.6378 60.9081 24.455C60.9179 24.329 60.9179 24.2024 60.9081 24.0764C60.8592 23.7728 61.0028 23.7174 61.2737 23.7271C61.4859 23.7337 61.574 23.7728 61.5609 24.0111Z" fill="#AF81EB"/>
<path id="Vector_19" d="M20.9811 23.2539C20.5895 23.2539 20.1978 23.2539 19.8094 23.2539C19.5875 23.2539 19.5418 23.3257 19.545 23.5281C19.545 24.1808 19.545 24.814 19.545 25.457V27.4154C19.545 27.5492 19.5091 27.6961 19.7376 27.6895C20.1717 27.6895 20.609 27.6895 21.0431 27.6895C21.4772 27.6895 21.6274 27.4578 21.6274 27.0368C21.6274 26.0054 21.6274 24.9707 21.6274 23.9393C21.6339 23.4465 21.4577 23.267 20.9811 23.2539ZM20.8995 25.444C20.8995 25.9499 20.88 26.4558 20.8995 26.9584C20.8995 27.2848 20.7168 27.1934 20.547 27.2065C20.3773 27.2195 20.2435 27.2065 20.2468 26.9454C20.2468 25.9662 20.2663 24.987 20.2468 23.9883C20.2468 23.7076 20.3838 23.737 20.5731 23.7337C20.7625 23.7304 20.9289 23.7043 20.8995 24.0013C20.8832 24.4811 20.8995 24.9642 20.8995 25.444Z" fill="#AF81EB"/>
</g>
</g>
</g>
</svg>
