<svg width="99" height="41" viewBox="0 0 99 41" fill="none" xmlns="http://www.w3.org/2000/svg">
<g id="amigo" style="mix-blend-mode:luminosity" clip-path="url(#clip0_460_420)">
<g id="&#208;&#161;&#208;&#187;&#208;&#190;&#208;&#185; 2">
<g id="&#208;&#161;&#208;&#187;&#208;&#190;&#208;&#185; 1">
<path id="Vector" d="M8.23173 28.2951C8.6986 28.2492 8.99341 28.0576 9.14941 27.5862C9.53943 26.4299 9.97074 25.292 10.3883 24.1449C10.8379 22.9114 11.2884 21.6809 11.7396 20.4535H14.5557C14.5167 20.6737 14.4892 20.8596 14.4502 21.0454C14.1875 22.3164 13.9259 23.5885 13.6552 24.8584C13.5566 25.3172 13.7413 25.5765 14.1978 25.5879C15.0168 25.6074 15.837 25.5879 16.6985 25.5879L17.3133 20.4707C17.5428 20.4111 17.7091 20.3835 17.9018 20.5063L17.6586 25.5409H20.8946L20.6583 20.4627C20.8739 20.4237 21.0506 20.3744 21.2663 20.4982L21.8937 25.5776H23.6293C25.0666 25.5776 25.0735 25.5616 24.7764 24.1678C24.5137 22.9404 24.2705 21.7084 24.0136 20.4512H26.8389L28.7144 25.5994C29.0585 25.5914 29.3522 25.6751 29.6412 25.5329L29.0539 23.8719C28.1431 23.4922 27.8105 22.9278 28.0915 22.2992C28.3726 21.6706 29.156 21.4125 29.7996 21.7256C30.4878 22.0617 30.5956 22.7076 30.1184 23.561C30.4362 24.5934 30.9432 25.5593 31.2013 26.5916C31.0935 26.6857 31.0442 26.7614 30.9776 26.7798C30.4041 26.9369 29.8099 26.7729 29.2294 26.8784C29.5311 28.1666 29.6653 28.2802 30.8939 28.3054C31.1038 28.3054 31.3149 28.3054 31.5248 28.3054C31.707 28.3111 31.8872 28.2657 32.0451 28.1745C32.2029 28.0833 32.3322 27.9499 32.4184 27.7892C32.9836 26.8818 33.4359 25.9087 33.7651 24.8916C34.4201 22.7718 34.5921 20.629 34.0255 18.4575C33.499 15.88 32.2337 13.6948 30.3823 11.8502C27.7439 9.20387 24.4965 7.8239 20.7902 7.52222C16.1651 7.14597 11.9988 8.28389 8.54145 11.49C6.24724 13.6156 4.80189 16.2299 4.39811 19.3683C4.36251 19.4959 4.33379 19.6254 4.31208 19.7561C4.01957 22.2797 4.53003 24.6542 5.6886 26.9014C6.42504 28.3444 6.63726 28.4454 8.23173 28.2951ZM15.5732 23.8535C14.8849 23.8466 14.3504 23.3167 14.3791 22.6651C14.4066 22.0445 14.9606 21.565 15.6225 21.5903C16.2844 21.6155 16.8247 22.142 16.8075 22.7431C16.7903 23.3442 16.2098 23.857 15.5697 23.857L15.5732 23.8535ZM19.276 23.8363C18.6142 23.8202 18.0681 23.296 18.0819 22.6892C18.0957 22.0824 18.6554 21.5788 19.3162 21.588C19.9769 21.5972 20.5092 22.1042 20.4988 22.7351C20.4885 23.366 19.9333 23.857 19.2726 23.8375L19.276 23.8363ZM24.1879 22.7282C24.1879 23.3431 23.6431 23.8512 22.9881 23.8535C22.3331 23.8558 21.7733 23.335 21.7595 22.7374C21.7446 22.1145 22.3331 21.5788 23.0076 21.5903C23.6821 21.6018 24.1879 22.0984 24.1879 22.7282ZM16.4496 10.4359C18.2723 9.11898 20.3956 9.14881 22.1851 10.5081C23.666 11.6254 24.5435 13.166 25.2203 14.9096H13.3467C14.0303 13.1327 14.9102 11.5474 16.4496 10.4359ZM6.61776 15.8789C6.86209 15.4063 7.30602 15.3879 7.75109 15.3879C9.90994 15.3879 12.0684 15.3879 14.2265 15.3879C19.7471 15.3879 25.2677 15.3879 30.7884 15.3879C31.2162 15.3879 31.6338 15.3994 31.9492 15.8192V17.0891L28.9392 18.2568C27.4927 17.6993 26.0474 17.1556 24.6146 16.582C24.432 16.5032 24.2348 16.4636 24.0359 16.4655C23.8369 16.4675 23.6406 16.5111 23.4595 16.5935C22.083 17.1671 20.7065 17.7062 19.2864 18.274C17.9603 17.7463 16.609 17.2278 15.2715 16.6681C15.0213 16.5539 14.7496 16.4941 14.4745 16.4927C14.1995 16.4913 13.9273 16.5484 13.6759 16.66C12.3361 17.2118 10.9802 17.7211 9.60596 18.2579L6.61776 17.0891V15.8789ZM6.57646 17.5777C7.35076 17.9001 8.05737 18.1604 8.73187 18.4851C8.99272 18.6209 9.28138 18.6948 9.57542 18.7009C9.86946 18.7071 10.161 18.6454 10.4273 18.5206C11.7453 17.9666 13.0874 17.4722 14.4421 16.9434C15.7636 17.4515 17.1114 17.9322 18.4249 18.4897C18.6997 18.6153 18.9986 18.6794 19.3007 18.6776C19.6028 18.6758 19.9009 18.6082 20.1742 18.4793C21.4567 17.9402 22.7644 17.4607 24.1019 16.9422C25.3557 17.432 26.6462 17.9012 27.9045 18.4415C28.6054 18.742 29.2352 18.7856 29.9292 18.4346C30.5211 18.1341 31.1612 17.9299 31.7806 17.6832L31.9091 17.6431C31.9664 17.728 31.9297 17.7739 31.8643 17.8106L31.5707 18.3394C30.4098 19.5003 28.9713 19.9683 27.3677 19.9706C21.9832 19.9797 16.5975 19.9706 11.213 19.9775C10.0448 19.9731 8.89597 19.6778 7.87039 19.1183C7.37484 18.7156 6.86668 18.3153 6.57646 17.5777Z" fill="url(#paint0_linear_460_420)"/>
<path id="Vector_2" d="M20.976 28.3297C22.0737 28.3297 23.1233 28.3377 24.1729 28.3297C24.6467 28.3297 24.9404 28.0613 24.9404 27.5875C24.9404 27.139 24.6513 26.8992 24.2108 26.8591C24.1153 26.8543 24.0196 26.8543 23.924 26.8591H14.6325C14.5177 26.8528 14.4026 26.8562 14.2884 26.8694C13.8811 26.9405 13.615 27.1757 13.6207 27.599C13.6265 28.0452 13.8949 28.3102 14.34 28.3308C14.855 28.3549 15.3724 28.3377 15.8874 28.3389H17.6494V30.0882C17.4888 30.11 17.3787 30.1352 17.2674 30.1375C14.6501 30.1912 12.0378 30.3919 9.443 30.7386C6.84826 31.0908 4.27186 31.5324 1.78265 32.3732C1.27334 32.5453 0.750259 32.7105 0.328125 33.089C12.9348 31.1148 25.5357 30.9221 38.1515 32.9743C32.6282 30.7615 26.801 30.3658 20.9737 30.0744L20.976 28.3297Z" fill="url(#paint1_linear_460_420)"/>
<path id="Vector_3" d="M95.86 14.5349C93.7104 13.6379 91.501 13.6172 89.3445 14.5131C87.9588 15.0867 87.1271 16.1558 87.0331 17.7112C86.9209 18.0654 86.9209 18.4456 87.0331 18.7998L87.0698 19.1497H91.1833C91.1684 18.2962 91.1122 17.4371 91.4563 16.6261C91.53 16.4282 91.6222 16.2377 91.7316 16.0571C92.2685 15.2541 93.1334 15.2943 93.5796 16.1489C93.9123 16.7867 94.0155 17.4795 94.0166 18.1907C94.0166 18.4752 94.0109 18.7643 94.0075 19.0453C93.9065 19.4089 93.8308 19.7829 93.6966 20.1339C93.5027 20.6421 93.123 20.9208 92.5598 20.9082C92.0127 20.8967 91.6777 20.5882 91.4838 20.1201C91.3683 19.8008 91.2692 19.4757 91.1867 19.1463H87.0732C87.2637 20.2681 87.9381 21.0608 88.8902 21.5838C91.2051 22.8548 93.5934 22.9305 95.9747 21.7846C97.1964 21.195 98.051 20.2417 98.1795 18.8021C98.4961 16.9599 97.6323 15.2748 95.86 14.5349Z" fill="url(#paint2_linear_460_420)"/>
<path id="Vector_4" d="M83.9656 21.9962L84.1319 22.268H85.6656C85.6656 21.5235 85.6805 20.802 85.6587 20.0816C85.645 19.9303 85.6673 19.7779 85.724 19.6369C85.7806 19.4959 85.8699 19.3704 85.9845 19.2706L86.542 19.0756V17.979H81.1506C81.0853 18.3447 81.0737 18.718 81.1162 19.0871C81.1637 19.145 81.2252 19.1899 81.2948 19.2176C81.3644 19.2453 81.4399 19.2548 81.5142 19.2454C81.8366 19.3532 82.0373 19.5471 81.9937 19.9153C81.9444 20.3397 81.6553 20.5347 81.2837 20.63C80.1113 20.9293 79.3508 20.4005 79.009 19.0538C79.0204 18.4803 79.009 17.9067 79.048 17.3332C79.1191 16.17 80.1125 15.4623 81.2171 15.8018C81.9467 16.0312 82.6418 16.3214 82.6074 17.277H85.6105V14.2303H84.0757C83.8578 14.345 83.7396 14.6042 83.4219 14.6685C82.6327 14.3473 81.7746 14.0949 80.8684 14.0605C79.1478 14.0043 77.4615 14.1144 76.0162 15.2191C74.6855 16.2354 74.1613 17.5488 74.5617 19.1984C74.6878 20.0358 75.1524 20.6781 75.7753 21.2081C77.1082 22.3437 78.6832 22.658 80.3809 22.4883C81.3865 22.3799 82.3831 22.2005 83.3634 21.9514C83.5623 21.8874 83.7783 21.9034 83.9656 21.9962Z" fill="url(#paint3_linear_460_420)"/>
<path id="Vector_5" d="M46.9291 20.9442C46.6813 20.7606 46.3372 20.8753 46.1261 20.623C46.0114 20.3717 46.0664 20.1515 46.3234 19.929C47.0348 19.8642 47.7508 19.8676 48.4616 19.9393C48.6807 20.2123 48.777 20.4406 48.5465 20.6769C48.3262 20.8489 48.0326 20.7354 47.8112 20.9419C47.8112 21.3846 47.7263 21.8538 47.8617 22.3046H53.4389C53.4733 21.7884 53.5043 21.3193 53.4159 20.8054C52.629 20.8054 52.2688 20.2915 52.0279 19.6433C51.9365 19.4364 51.8331 19.2349 51.7182 19.04L49.6316 14.1074H45.9609L43.8755 19.04C43.7646 19.2373 43.6639 19.4403 43.5738 19.6479C43.3249 20.2983 43.0358 20.8948 42.1973 20.818V22.3161H46.9417C46.9876 21.8597 46.9834 21.3996 46.9291 20.9442ZM47.2732 17.1518L47.7871 18.5547H46.7903C46.882 18.0695 47.0793 17.6634 47.2789 17.1518H47.2732Z" fill="url(#paint4_linear_460_420)"/>
<path id="Vector_6" d="M66.812 28.4876L64.6807 24.4303C64.2138 24.4097 63.7848 24.3672 63.3489 24.459V29.528C63.7194 29.6175 64.0566 29.59 64.512 29.5418V26.65L64.6348 26.635L66.1822 29.5659H67.4211L68.9754 26.6236L69.1188 26.6626V29.5533H70.2189V24.4303H68.9571L66.812 28.4876Z" fill="url(#paint5_linear_460_420)"/>
<path id="Vector_7" d="M85.7046 24.463V27.8195L85.5567 27.8619L82.8277 24.4401H81.5808V29.5734C81.9662 29.5734 82.3161 29.6296 82.7371 29.5229V26.1745L82.8598 26.1413L85.5968 29.5504H86.8196V24.4493C86.4501 24.3876 86.0725 24.3923 85.7046 24.463Z" fill="url(#paint6_linear_460_420)"/>
<path id="Vector_8" d="M45.5468 27.7127H47.3007C47.0335 28.4743 46.5609 28.7863 45.7567 28.7806C44.9228 28.7749 44.2403 28.3 44.0017 27.5589C43.8816 27.203 43.8786 26.818 43.9931 26.4603C44.1077 26.1026 44.3338 25.7909 44.6383 25.571C45.3748 25.0273 46.2443 25.1122 47.2767 25.836C47.6208 25.8108 47.981 25.8979 48.34 25.7798C47.7011 24.4882 46.0768 23.9548 44.5649 24.518C43.232 25.0158 42.5254 26.2937 42.8443 27.6232C43.1758 28.9894 44.6326 29.8715 46.2007 29.6559C47.6483 29.4563 48.5878 28.347 48.5431 26.8409H45.5032C45.4608 27.1414 45.4206 27.3995 45.5468 27.7127Z" fill="url(#paint7_linear_460_420)"/>
<path id="Vector_9" d="M94.3905 26.8466V27.6416C94.9882 27.8056 95.6053 27.5991 96.1961 27.7678C95.8347 28.7187 94.7725 29.0663 93.8009 28.5879C93.5824 28.4787 93.3888 28.3254 93.2324 28.1377C93.0759 27.9501 92.96 27.7321 92.8918 27.4975C92.8236 27.2628 92.8047 27.0167 92.8361 26.7744C92.8676 26.5321 92.9489 26.2989 93.0748 26.0896C93.6977 25.0675 94.956 24.9608 96.1869 25.8383C96.531 25.8246 96.8866 25.8991 97.2457 25.789C96.6297 24.4802 94.9515 23.9468 93.4224 24.5501C92.0573 25.0881 91.3863 26.4406 91.8084 27.8022C92.2363 29.1787 93.8732 29.9817 95.4619 29.5963C96.7455 29.2808 97.6104 28.0626 97.412 26.8535L94.3905 26.8466Z" fill="url(#paint8_linear_460_420)"/>
<path id="Vector_10" d="M73.4744 19.7787C73.4744 19.532 73.4583 19.2843 73.4503 19.0376C73.4572 18.3138 73.4904 17.5888 73.4629 16.8662C73.4354 16.1435 73.5134 15.5516 74.3301 15.4644V14.0879H68.9582V15.4415C69.7692 15.7443 69.8449 15.8602 69.8541 16.7113C69.8599 17.2252 69.8805 17.7437 69.8943 18.2519C69.7669 19.0548 69.9551 19.8831 69.8151 20.6149C69.5708 20.9453 69.2416 20.982 68.9491 21.1391C68.9697 21.5257 68.8779 21.9192 69.0099 22.3138H74.4597C74.5033 21.8721 74.5354 21.4649 74.4471 21.0692C73.5134 20.7675 73.4778 20.717 73.4744 19.7787Z" fill="url(#paint9_linear_460_420)"/>
<path id="Vector_11" d="M68.3868 20.9473C67.4692 20.6755 67.4164 20.5952 67.4107 19.6626C67.4107 19.4928 67.39 19.3185 67.3797 19.1521C67.3877 18.3698 67.4313 17.5852 67.3957 16.804C67.3625 16.094 67.5208 15.5617 68.2893 15.4355V14.0957H62.5791L61.0878 17.7481L60.8653 17.7274L59.4039 14.106H53.9666V15.4367C54.7604 15.7418 54.8694 15.8955 54.8763 16.6985C54.8839 17.4808 54.8919 18.2635 54.9004 19.0466V20.3199C54.6205 20.7787 54.2396 20.8063 53.9563 21.0081C54.001 21.4509 53.8978 21.8868 54.0182 22.2998H58.3291V20.9657C57.4114 20.6525 57.3988 20.6319 57.3942 19.6511C57.3942 19.4423 57.3701 19.2347 57.3575 19.0259C57.4446 18.3893 57.3001 17.7332 57.4871 16.9359C58.0056 17.7653 58.1696 18.5717 58.5481 19.276C58.8923 20.3176 59.3236 21.3259 59.7503 22.3135H61.7004L62.8968 19.1533C63.2341 18.4753 63.3855 17.7114 63.7927 17.0656L63.9923 17.0885V20.4598C63.7285 20.7569 63.3775 20.8131 63.1056 21.0116C63.1056 21.4429 63.0459 21.8742 63.1595 22.309H68.3926C68.4527 21.8569 68.4508 21.3988 68.3868 20.9473Z" fill="url(#paint10_linear_460_420)"/>
<path id="Vector_12" d="M55.2422 24.4579L52.7507 29.5579C53.2027 29.5854 53.5606 29.629 53.9139 29.5315L54.4645 28.4739H57.1418L57.6879 29.5522H58.882L56.3916 24.4418C56.0099 24.3895 55.6224 24.3949 55.2422 24.4579ZM54.9887 27.5069C55.1723 26.9127 55.4889 26.4079 55.7917 25.7472L56.6692 27.5069H54.9887Z" fill="url(#paint11_linear_460_420)"/>
<path id="Vector_13" d="M75.3072 29.5504H76.3809V24.4297H75.3015L75.3072 29.5504Z" fill="url(#paint12_linear_460_420)"/>
<path id="Vector_14" d="M8.23173 28.2951C8.6986 28.2492 8.99341 28.0576 9.14941 27.5862C9.53943 26.4299 9.97074 25.292 10.3883 24.1449C10.8379 22.9114 11.2884 21.6809 11.7396 20.4535H14.5557C14.5167 20.6737 14.4892 20.8596 14.4502 21.0454C14.1875 22.3164 13.9259 23.5885 13.6552 24.8584C13.5566 25.3172 13.7413 25.5765 14.1978 25.5879C15.0168 25.6074 15.837 25.5879 16.6985 25.5879L17.3133 20.4707C17.5428 20.4111 17.7091 20.3835 17.9018 20.5063L17.6586 25.5409H20.8946L20.6583 20.4627C20.8739 20.4237 21.0506 20.3744 21.2663 20.4982L21.8937 25.5776H23.6293C25.0666 25.5776 25.0735 25.5616 24.7764 24.1678C24.5137 22.9404 24.2705 21.7084 24.0136 20.4512H26.8389L28.7144 25.5994C29.0585 25.5914 29.3522 25.6751 29.6412 25.5329L29.0539 23.8719C28.1431 23.4922 27.8105 22.9278 28.0915 22.2992C28.3726 21.6706 29.156 21.4125 29.7996 21.7256C30.4878 22.0617 30.5956 22.7076 30.1184 23.561C30.4362 24.5934 30.9432 25.5593 31.2013 26.5916C31.0935 26.6857 31.0442 26.7614 30.9776 26.7798C30.4041 26.9369 29.8099 26.7729 29.2294 26.8784C29.5311 28.1666 29.6653 28.2802 30.8939 28.3054C31.1038 28.3054 31.3149 28.3054 31.5248 28.3054C31.707 28.3111 31.8872 28.2657 32.0451 28.1745C32.2029 28.0833 32.3322 27.9499 32.4184 27.7892C32.9836 26.8818 33.4359 25.9087 33.7651 24.8916C34.4201 22.7718 34.5921 20.629 34.0255 18.4575C33.499 15.88 32.2337 13.6948 30.3823 11.8502C27.7439 9.20387 24.4965 7.8239 20.7902 7.52222C16.1651 7.14597 11.9988 8.28389 8.54145 11.49C6.24724 13.6156 4.80189 16.2299 4.39811 19.3683C4.36251 19.4959 4.33379 19.6254 4.31208 19.7561C4.01957 22.2797 4.53003 24.6542 5.6886 26.9014C6.42504 28.3444 6.63726 28.4454 8.23173 28.2951ZM15.5732 23.8535C14.8849 23.8466 14.3504 23.3167 14.3791 22.6651C14.4066 22.0445 14.9606 21.565 15.6225 21.5903C16.2844 21.6155 16.8247 22.142 16.8075 22.7431C16.7903 23.3442 16.2098 23.857 15.5697 23.857L15.5732 23.8535ZM19.276 23.8363C18.6142 23.8202 18.0681 23.296 18.0819 22.6892C18.0957 22.0824 18.6554 21.5788 19.3162 21.588C19.9769 21.5972 20.5092 22.1042 20.4988 22.7351C20.4885 23.366 19.9333 23.857 19.2726 23.8375L19.276 23.8363ZM24.1879 22.7282C24.1879 23.3431 23.6431 23.8512 22.9881 23.8535C22.3331 23.8558 21.7733 23.335 21.7595 22.7374C21.7446 22.1145 22.3331 21.5788 23.0076 21.5903C23.6821 21.6018 24.1879 22.0984 24.1879 22.7282ZM16.4496 10.4359C18.2723 9.11898 20.3956 9.14881 22.1851 10.5081C23.666 11.6254 24.5435 13.166 25.2203 14.9096H13.3467C14.0303 13.1327 14.9102 11.5474 16.4496 10.4359ZM6.61776 15.8789C6.86209 15.4063 7.30602 15.3879 7.75109 15.3879C9.90994 15.3879 12.0684 15.3879 14.2265 15.3879C19.7471 15.3879 25.2677 15.3879 30.7884 15.3879C31.2162 15.3879 31.6338 15.3994 31.9492 15.8192V17.0891L28.9392 18.2568C27.4927 17.6993 26.0474 17.1556 24.6146 16.582C24.432 16.5032 24.2348 16.4636 24.0359 16.4655C23.8369 16.4675 23.6406 16.5111 23.4595 16.5935C22.083 17.1671 20.7065 17.7062 19.2864 18.274C17.9603 17.7463 16.609 17.2278 15.2715 16.6681C15.0213 16.5539 14.7496 16.4941 14.4745 16.4927C14.1995 16.4913 13.9273 16.5484 13.6759 16.66C12.3361 17.2118 10.9802 17.7211 9.60596 18.2579L6.61776 17.0891V15.8789ZM6.57646 17.5777C7.35076 17.9001 8.05737 18.1604 8.73187 18.4851C8.99272 18.6209 9.28138 18.6948 9.57542 18.7009C9.86946 18.7071 10.161 18.6454 10.4273 18.5206C11.7453 17.9666 13.0874 17.4722 14.4421 16.9434C15.7636 17.4515 17.1114 17.9322 18.4249 18.4897C18.6997 18.6153 18.9986 18.6794 19.3007 18.6776C19.6028 18.6758 19.9009 18.6082 20.1742 18.4793C21.4567 17.9402 22.7644 17.4607 24.1019 16.9422C25.3557 17.432 26.6462 17.9012 27.9045 18.4415C28.6054 18.742 29.2352 18.7856 29.9292 18.4346C30.5211 18.1341 31.1612 17.9299 31.7806 17.6832L31.9091 17.6431C31.9664 17.728 31.9297 17.7739 31.8643 17.8106L31.5707 18.3394C30.4098 19.5003 28.9713 19.9683 27.3677 19.9706C21.9832 19.9797 16.5975 19.9706 11.213 19.9775C10.0448 19.9731 8.89597 19.6778 7.87039 19.1183C7.37484 18.7156 6.86668 18.3153 6.57646 17.5777Z" fill="url(#paint13_linear_460_420)"/>
<path id="Vector_15" d="M20.976 28.3297C22.0737 28.3297 23.1233 28.3377 24.1729 28.3297C24.6467 28.3297 24.9404 28.0613 24.9404 27.5875C24.9404 27.139 24.6513 26.8992 24.2108 26.8591C24.1153 26.8543 24.0196 26.8543 23.924 26.8591H14.6325C14.5177 26.8528 14.4026 26.8562 14.2884 26.8694C13.8811 26.9405 13.615 27.1757 13.6207 27.599C13.6265 28.0452 13.8949 28.3102 14.34 28.3308C14.855 28.3549 15.3724 28.3377 15.8874 28.3389H17.6494V30.0882C17.4888 30.11 17.3787 30.1352 17.2674 30.1375C14.6501 30.1912 12.0378 30.3919 9.443 30.7386C6.84826 31.0908 4.27186 31.5324 1.78265 32.3732C1.27334 32.5453 0.750259 32.7105 0.328125 33.089C12.9348 31.1148 25.5357 30.9221 38.1515 32.9743C32.6282 30.7615 26.801 30.3658 20.9737 30.0744L20.976 28.3297Z" fill="url(#paint14_linear_460_420)"/>
<path id="Vector_16" d="M95.86 14.5349C93.7104 13.6379 91.501 13.6172 89.3445 14.5131C87.9588 15.0867 87.1271 16.1558 87.0331 17.7112C86.9209 18.0654 86.9209 18.4456 87.0331 18.7998L87.0698 19.1497H91.1833C91.1684 18.2962 91.1122 17.4371 91.4563 16.6261C91.53 16.4282 91.6222 16.2377 91.7316 16.0571C92.2685 15.2541 93.1334 15.2943 93.5796 16.1489C93.9123 16.7867 94.0155 17.4795 94.0166 18.1907C94.0166 18.4752 94.0109 18.7643 94.0075 19.0453C93.9065 19.4089 93.8308 19.7829 93.6966 20.1339C93.5027 20.6421 93.123 20.9208 92.5598 20.9082C92.0127 20.8967 91.6777 20.5882 91.4838 20.1201C91.3683 19.8008 91.2692 19.4757 91.1867 19.1463H87.0732C87.2637 20.2681 87.9381 21.0608 88.8902 21.5838C91.2051 22.8548 93.5934 22.9305 95.9747 21.7846C97.1964 21.195 98.051 20.2417 98.1795 18.8021C98.4961 16.9599 97.6323 15.2748 95.86 14.5349Z" fill="url(#paint15_linear_460_420)"/>
<path id="Vector_17" d="M83.9656 21.9962L84.1319 22.268H85.6656C85.6656 21.5235 85.6805 20.802 85.6587 20.0816C85.645 19.9303 85.6673 19.7779 85.724 19.6369C85.7806 19.4959 85.8699 19.3704 85.9845 19.2706L86.542 19.0756V17.979H81.1506C81.0853 18.3447 81.0737 18.718 81.1162 19.0871C81.1637 19.145 81.2252 19.1899 81.2948 19.2176C81.3644 19.2453 81.4399 19.2548 81.5142 19.2454C81.8366 19.3532 82.0373 19.5471 81.9937 19.9153C81.9444 20.3397 81.6553 20.5347 81.2837 20.63C80.1113 20.9293 79.3508 20.4005 79.009 19.0538C79.0204 18.4803 79.009 17.9067 79.048 17.3332C79.1191 16.17 80.1125 15.4623 81.2171 15.8018C81.9467 16.0312 82.6418 16.3214 82.6074 17.277H85.6105V14.2303H84.0757C83.8578 14.345 83.7396 14.6042 83.4219 14.6685C82.6327 14.3473 81.7746 14.0949 80.8684 14.0605C79.1478 14.0043 77.4615 14.1144 76.0162 15.2191C74.6855 16.2354 74.1613 17.5488 74.5617 19.1984C74.6878 20.0358 75.1524 20.6781 75.7753 21.2081C77.1082 22.3437 78.6832 22.658 80.3809 22.4883C81.3865 22.3799 82.3831 22.2005 83.3634 21.9514C83.5623 21.8874 83.7783 21.9034 83.9656 21.9962Z" fill="url(#paint16_linear_460_420)"/>
<path id="Vector_18" d="M46.9291 20.9442C46.6813 20.7606 46.3372 20.8753 46.1261 20.623C46.0114 20.3717 46.0664 20.1515 46.3234 19.929C47.0348 19.8642 47.7508 19.8676 48.4616 19.9393C48.6807 20.2123 48.777 20.4406 48.5465 20.6769C48.3262 20.8489 48.0326 20.7354 47.8112 20.9419C47.8112 21.3846 47.7263 21.8538 47.8617 22.3046H53.4389C53.4733 21.7884 53.5043 21.3193 53.4159 20.8054C52.629 20.8054 52.2688 20.2915 52.0279 19.6433C51.9365 19.4364 51.8331 19.2349 51.7182 19.04L49.6316 14.1074H45.9609L43.8755 19.04C43.7646 19.2373 43.6639 19.4403 43.5738 19.6479C43.3249 20.2983 43.0358 20.8948 42.1973 20.818V22.3161H46.9417C46.9876 21.8597 46.9834 21.3996 46.9291 20.9442ZM47.2732 17.1518L47.7871 18.5547H46.7903C46.882 18.0695 47.0793 17.6634 47.2789 17.1518H47.2732Z" fill="url(#paint17_linear_460_420)"/>
<path id="Vector_19" d="M66.812 28.4876L64.6807 24.4303C64.2138 24.4097 63.7848 24.3672 63.3489 24.459V29.528C63.7194 29.6175 64.0566 29.59 64.512 29.5418V26.65L64.6348 26.635L66.1822 29.5659H67.4211L68.9754 26.6236L69.1188 26.6626V29.5533H70.2189V24.4303H68.9571L66.812 28.4876Z" fill="url(#paint18_linear_460_420)"/>
<path id="Vector_20" d="M85.7046 24.463V27.8195L85.5567 27.8619L82.8277 24.4401H81.5808V29.5734C81.9662 29.5734 82.3161 29.6296 82.7371 29.5229V26.1745L82.8598 26.1413L85.5968 29.5504H86.8196V24.4493C86.4501 24.3876 86.0725 24.3923 85.7046 24.463Z" fill="url(#paint19_linear_460_420)"/>
<path id="Vector_21" d="M45.5468 27.7127H47.3007C47.0335 28.4743 46.5609 28.7863 45.7567 28.7806C44.9228 28.7749 44.2403 28.3 44.0017 27.5589C43.8816 27.203 43.8786 26.818 43.9931 26.4603C44.1077 26.1026 44.3338 25.7909 44.6383 25.571C45.3748 25.0273 46.2443 25.1122 47.2767 25.836C47.6208 25.8108 47.981 25.8979 48.34 25.7798C47.7011 24.4882 46.0768 23.9548 44.5649 24.518C43.232 25.0158 42.5254 26.2937 42.8443 27.6232C43.1758 28.9894 44.6326 29.8715 46.2007 29.6559C47.6483 29.4563 48.5878 28.347 48.5431 26.8409H45.5032C45.4608 27.1414 45.4206 27.3995 45.5468 27.7127Z" fill="url(#paint20_linear_460_420)"/>
<path id="Vector_22" d="M94.3905 26.8466V27.6416C94.9882 27.8056 95.6053 27.5991 96.1961 27.7678C95.8347 28.7187 94.7725 29.0663 93.8009 28.5879C93.5824 28.4787 93.3888 28.3254 93.2324 28.1377C93.0759 27.9501 92.96 27.7321 92.8918 27.4975C92.8236 27.2628 92.8047 27.0167 92.8361 26.7744C92.8676 26.5321 92.9489 26.2989 93.0748 26.0896C93.6977 25.0675 94.956 24.9608 96.1869 25.8383C96.531 25.8246 96.8866 25.8991 97.2457 25.789C96.6297 24.4802 94.9515 23.9468 93.4224 24.5501C92.0573 25.0881 91.3863 26.4406 91.8084 27.8022C92.2363 29.1787 93.8732 29.9817 95.4619 29.5963C96.7455 29.2808 97.6104 28.0626 97.412 26.8535L94.3905 26.8466Z" fill="url(#paint21_linear_460_420)"/>
<path id="Vector_23" d="M73.4744 19.7787C73.4744 19.532 73.4583 19.2843 73.4503 19.0376C73.4572 18.3138 73.4904 17.5888 73.4629 16.8662C73.4354 16.1435 73.5134 15.5516 74.3301 15.4644V14.0879H68.9582V15.4415C69.7692 15.7443 69.8449 15.8602 69.8541 16.7113C69.8599 17.2252 69.8805 17.7437 69.8943 18.2519C69.7669 19.0548 69.9551 19.8831 69.8151 20.6149C69.5708 20.9453 69.2416 20.982 68.9491 21.1391C68.9697 21.5257 68.8779 21.9192 69.0099 22.3138H74.4597C74.5033 21.8721 74.5354 21.4649 74.4471 21.0692C73.5134 20.7675 73.4778 20.717 73.4744 19.7787Z" fill="url(#paint22_linear_460_420)"/>
<path id="Vector_24" d="M68.3868 20.9473C67.4692 20.6755 67.4164 20.5952 67.4107 19.6626C67.4107 19.4928 67.39 19.3185 67.3797 19.1521C67.3877 18.3698 67.4313 17.5852 67.3957 16.804C67.3625 16.094 67.5208 15.5617 68.2893 15.4355V14.0957H62.5791L61.0878 17.7481L60.8653 17.7274L59.4039 14.106H53.9666V15.4367C54.7604 15.7418 54.8694 15.8955 54.8763 16.6985C54.8839 17.4808 54.8919 18.2635 54.9004 19.0466V20.3199C54.6205 20.7787 54.2396 20.8063 53.9563 21.0081C54.001 21.4509 53.8978 21.8868 54.0182 22.2998H58.3291V20.9657C57.4114 20.6525 57.3988 20.6319 57.3942 19.6511C57.3942 19.4423 57.3701 19.2347 57.3575 19.0259C57.4446 18.3893 57.3001 17.7332 57.4871 16.9359C58.0056 17.7653 58.1696 18.5717 58.5481 19.276C58.8923 20.3176 59.3236 21.3259 59.7503 22.3135H61.7004L62.8968 19.1533C63.2341 18.4753 63.3855 17.7114 63.7927 17.0656L63.9923 17.0885V20.4598C63.7285 20.7569 63.3775 20.8131 63.1056 21.0116C63.1056 21.4429 63.0459 21.8742 63.1595 22.309H68.3926C68.4527 21.8569 68.4508 21.3988 68.3868 20.9473Z" fill="url(#paint23_linear_460_420)"/>
<path id="Vector_25" d="M55.2422 24.4579L52.7507 29.5579C53.2027 29.5854 53.5606 29.629 53.9139 29.5315L54.4645 28.4739H57.1418L57.6879 29.5522H58.882L56.3916 24.4418C56.0099 24.3895 55.6224 24.3949 55.2422 24.4579ZM54.9887 27.5069C55.1723 26.9127 55.4889 26.4079 55.7917 25.7472L56.6692 27.5069H54.9887Z" fill="url(#paint24_linear_460_420)"/>
<path id="Vector_26" d="M75.3072 29.5504H76.3809V24.4297H75.3015L75.3072 29.5504Z" fill="url(#paint25_linear_460_420)"/>
</g>
</g>
</g>
<defs>
<linearGradient id="paint0_linear_460_420" x1="19.2955" y1="28.349" x2="19.2955" y2="7.45339" gradientUnits="userSpaceOnUse">
<stop stop-color="white"/>
<stop offset="1"/>
</linearGradient>
<linearGradient id="paint1_linear_460_420" x1="19.2393" y1="33.0936" x2="19.2393" y2="26.8476" gradientUnits="userSpaceOnUse">
<stop stop-color="white"/>
<stop offset="1"/>
</linearGradient>
<linearGradient id="paint2_linear_460_420" x1="92.5977" y1="22.5956" x2="92.5977" y2="13.8535" gradientUnits="userSpaceOnUse">
<stop stop-color="white"/>
<stop offset="1"/>
</linearGradient>
<linearGradient id="paint3_linear_460_420" x1="80.4876" y1="22.5319" x2="80.4876" y2="14.049" gradientUnits="userSpaceOnUse">
<stop stop-color="white"/>
<stop offset="1"/>
</linearGradient>
<linearGradient id="paint4_linear_460_420" x1="47.8341" y1="22.3161" x2="47.8341" y2="14.1005" gradientUnits="userSpaceOnUse">
<stop stop-color="white"/>
<stop offset="1"/>
</linearGradient>
<linearGradient id="paint5_linear_460_420" x1="66.781" y1="29.5888" x2="66.781" y2="24.4051" gradientUnits="userSpaceOnUse">
<stop stop-color="white"/>
<stop offset="1"/>
</linearGradient>
<linearGradient id="paint6_linear_460_420" x1="84.2008" y1="29.5872" x2="84.2008" y2="24.4068" gradientUnits="userSpaceOnUse">
<stop stop-color="white"/>
<stop offset="1"/>
</linearGradient>
<linearGradient id="paint7_linear_460_420" x1="45.6627" y1="29.6903" x2="45.6627" y2="24.2954" gradientUnits="userSpaceOnUse">
<stop stop-color="white"/>
<stop offset="1"/>
</linearGradient>
<linearGradient id="paint8_linear_460_420" x1="94.5672" y1="29.6869" x2="94.5672" y2="24.2966" gradientUnits="userSpaceOnUse">
<stop stop-color="white"/>
<stop offset="1"/>
</linearGradient>
<linearGradient id="paint9_linear_460_420" x1="71.7205" y1="22.3138" x2="71.7205" y2="14.089" gradientUnits="userSpaceOnUse">
<stop stop-color="white"/>
<stop offset="1"/>
</linearGradient>
<linearGradient id="paint10_linear_460_420" x1="61.1945" y1="22.3124" x2="61.1945" y2="14.0957" gradientUnits="userSpaceOnUse">
<stop stop-color="white"/>
<stop offset="1"/>
</linearGradient>
<linearGradient id="paint11_linear_460_420" x1="55.8169" y1="29.5912" x2="55.8169" y2="24.4051" gradientUnits="userSpaceOnUse">
<stop stop-color="white"/>
<stop offset="1"/>
</linearGradient>
<linearGradient id="paint12_linear_460_420" x1="75.8464" y1="29.5504" x2="75.8464" y2="24.4343" gradientUnits="userSpaceOnUse">
<stop stop-color="white"/>
<stop offset="1"/>
</linearGradient>
<linearGradient id="paint13_linear_460_420" x1="49.2865" y1="33.0946" x2="49.2865" y2="7.45339" gradientUnits="userSpaceOnUse">
<stop stop-color="#F76237"/>
<stop offset="1" stop-color="#FCBF2A"/>
</linearGradient>
<linearGradient id="paint14_linear_460_420" x1="49.2865" y1="33.0936" x2="49.2865" y2="7.45241" gradientUnits="userSpaceOnUse">
<stop stop-color="#F76237"/>
<stop offset="1" stop-color="#FCBF2A"/>
</linearGradient>
<linearGradient id="paint15_linear_460_420" x1="49.2865" y1="33.095" x2="49.2865" y2="7.45384" gradientUnits="userSpaceOnUse">
<stop stop-color="#F76237"/>
<stop offset="1" stop-color="#FCBF2A"/>
</linearGradient>
<linearGradient id="paint16_linear_460_420" x1="49.2864" y1="33.0955" x2="49.2864" y2="7.45434" gradientUnits="userSpaceOnUse">
<stop stop-color="#F76237"/>
<stop offset="1" stop-color="#FCBF2A"/>
</linearGradient>
<linearGradient id="paint17_linear_460_420" x1="49.2864" y1="33.0954" x2="49.2864" y2="7.45423" gradientUnits="userSpaceOnUse">
<stop stop-color="#F76237"/>
<stop offset="1" stop-color="#FCBF2A"/>
</linearGradient>
<linearGradient id="paint18_linear_460_420" x1="49.2865" y1="33.0944" x2="49.2865" y2="7.4532" gradientUnits="userSpaceOnUse">
<stop stop-color="#F76237"/>
<stop offset="1" stop-color="#FCBF2A"/>
</linearGradient>
<linearGradient id="paint19_linear_460_420" x1="49.2864" y1="33.095" x2="49.2864" y2="7.45381" gradientUnits="userSpaceOnUse">
<stop stop-color="#F76237"/>
<stop offset="1" stop-color="#FCBF2A"/>
</linearGradient>
<linearGradient id="paint20_linear_460_420" x1="49.2864" y1="33.0949" x2="49.2864" y2="7.45368" gradientUnits="userSpaceOnUse">
<stop stop-color="#F76237"/>
<stop offset="1" stop-color="#FCBF2A"/>
</linearGradient>
<linearGradient id="paint21_linear_460_420" x1="49.2864" y1="33.0938" x2="49.2864" y2="7.45259" gradientUnits="userSpaceOnUse">
<stop stop-color="#F76237"/>
<stop offset="1" stop-color="#FCBF2A"/>
</linearGradient>
<linearGradient id="paint22_linear_460_420" x1="49.2866" y1="33.0942" x2="49.2866" y2="7.45305" gradientUnits="userSpaceOnUse">
<stop stop-color="#F76237"/>
<stop offset="1" stop-color="#FCBF2A"/>
</linearGradient>
<linearGradient id="paint23_linear_460_420" x1="49.2864" y1="33.094" x2="49.2864" y2="7.45283" gradientUnits="userSpaceOnUse">
<stop stop-color="#F76237"/>
<stop offset="1" stop-color="#FCBF2A"/>
</linearGradient>
<linearGradient id="paint24_linear_460_420" x1="49.2865" y1="33.0944" x2="49.2865" y2="7.45323" gradientUnits="userSpaceOnUse">
<stop stop-color="#F76237"/>
<stop offset="1" stop-color="#FCBF2A"/>
</linearGradient>
<linearGradient id="paint25_linear_460_420" x1="49.2865" y1="33.0938" x2="49.2865" y2="7.45257" gradientUnits="userSpaceOnUse">
<stop stop-color="#F76237"/>
<stop offset="1" stop-color="#FCBF2A"/>
</linearGradient>
<clipPath id="clip0_460_420">
<rect width="97.9167" height="40" fill="white" transform="translate(0.328125 0.273438)"/>
</clipPath>
</defs>
</svg>
