<svg width="89" height="29" viewBox="0 0 89 29" fill="none" xmlns="http://www.w3.org/2000/svg">
<g id="Belatra" style="mix-blend-mode:luminosity">
<g id="&#208;&#161;&#208;&#187;&#208;&#190;&#208;&#185; 2">
<g id="&#208;&#161;&#208;&#187;&#208;&#190;&#208;&#185; 1">
<path id="Vector" d="M4.6226 12.121C4.09919 11.5395 3.5467 10.987 2.96514 10.4636C2.62579 10.1146 2.29604 9.7535 1.94362 9.41677C1.67406 9.1603 1.53885 8.86719 1.57548 8.49644C1.59198 8.3805 1.63464 8.26982 1.70023 8.1728C1.94798 7.81078 2.29953 7.54645 2.59264 7.22718C2.92065 6.84509 3.26697 6.47986 3.63161 6.13151C3.74502 6.02857 3.83225 5.88289 4.00672 5.86631C4.91803 4.96779 5.82818 4.06956 6.73717 3.17163C7.23383 2.68311 7.73397 2.19838 8.23761 1.71742C8.68164 1.29259 9.07419 1.30306 9.53043 1.73051C9.78167 1.96604 9.9858 2.25392 10.2876 2.43449C11.0437 3.20681 11.7997 3.97913 12.5557 4.75145C12.6657 4.86398 12.7878 4.9643 12.9047 5.07073C13.3437 5.56149 13.8097 6.02746 14.3004 6.46649C14.7872 6.96373 15.2722 7.46184 15.7616 7.95646C15.923 8.10305 16.0569 8.27736 16.1568 8.47114C16.2248 8.86632 16.0696 9.16117 15.7904 9.43858C14.5761 10.645 13.3757 11.8655 12.1702 13.0806C12.0986 13.3502 11.8561 13.4793 11.6816 13.6607C11.2341 14.1275 10.7709 14.5776 10.3129 15.0338C10.005 15.2824 9.81394 15.6628 9.424 15.8189C8.86745 16.112 8.62319 16.0676 8.15997 15.6261C7.52839 15.0234 6.96573 14.349 6.27919 13.8038C5.76371 13.2079 5.21037 12.6458 4.6226 12.121Z" fill="#FEFEFE"/>
<path id="Vector_2" d="M29.9215 16.4093C29.763 15.5742 29.4683 14.7708 29.0492 14.0313C28.7772 13.3798 28.4256 12.7644 28.0024 12.1994C27.578 11.4815 27.0811 10.8092 26.5194 10.1929C26.0854 9.60368 25.6019 9.05267 25.0739 8.54595C24.2809 7.66226 23.4246 6.83745 22.5118 6.07808C21.7081 5.32269 20.8595 4.61654 19.9706 3.96351C19.9666 3.95075 19.9582 3.93986 19.9468 3.93282C19.9354 3.92578 19.9219 3.92304 19.9087 3.92512C19.8378 3.82222 19.7379 3.74268 19.6217 3.69657C18.9586 3.14546 18.2607 2.63758 17.5324 2.17607C17.1198 1.88994 16.7046 1.60729 16.2946 1.31593C16.2526 1.27805 16.198 1.25708 16.1415 1.25708C16.0849 1.25708 16.0304 1.27805 15.9884 1.31593C15.3934 1.71547 14.7741 2.08185 14.2131 2.53896C13.7229 2.8879 13.2248 3.22986 12.7467 3.59538C12.5723 3.72885 12.4772 3.71925 12.3263 3.56397C11.8962 3.12082 11.4469 2.69686 11.0046 2.26505C10.7351 1.98502 10.469 1.70325 10.196 1.42585C9.92293 1.14844 9.66908 0.851841 9.25384 0.783798C9.24392 0.759473 9.23945 0.733269 9.24076 0.707031L8.54288 0.707031C8.53126 0.728848 8.52471 0.752997 8.52369 0.777691C8.32927 0.79923 8.14787 0.885935 8.009 1.02369C7.40882 1.50872 6.89065 2.07662 6.36201 2.63928C6.35241 2.63928 6.34281 2.64801 6.33322 2.66458C5.82323 3.12461 5.33782 3.61118 4.87901 4.12228L1.65132 7.33688C1.32507 7.61952 1.02062 7.91699 0.936871 8.368C0.924958 8.36274 0.911676 8.36142 0.898964 8.36425C0.886252 8.36707 0.874775 8.37389 0.866211 8.3837L0.866211 9.08158H0.907211L0.946467 9.09117C1.00666 9.32496 1.09302 9.54305 1.29541 9.70182C1.87203 10.3456 2.48878 10.9493 3.12734 11.5337C3.36462 11.7824 3.58881 12.0458 3.84441 12.2744C4.01888 12.434 4.01103 12.5527 3.89675 12.7437C3.61062 13.2217 3.29745 13.6876 3.12821 14.2267C2.75509 14.9086 2.49217 15.6452 2.3492 16.4093C2.21513 16.7927 2.14957 17.1966 2.15554 17.6027C2.00456 18.6729 2.13133 19.764 2.52367 20.771C2.77475 21.6169 3.20966 22.3967 3.7973 23.0549C4.24992 23.6623 4.82161 24.171 5.47745 24.5501C7.54142 26.0496 11.0866 26.0418 13.1951 24.5326C13.9484 24.1272 14.6036 23.5614 15.1143 22.8752C15.2085 22.7583 15.2957 22.6335 15.3995 22.5262C15.533 22.3875 15.4946 22.5567 15.5234 22.6038C15.378 23.1568 15.1968 23.6997 14.9808 24.229C14.5583 24.9475 14.0015 25.5781 13.3408 26.0863L12.9107 26.3541L12.8052 26.4125C11.7584 26.9255 10.6601 27.2692 9.49025 27.3189C9.14131 27.3337 9.24686 27.5553 9.25122 27.7429L9.24076 27.8371H23.0239C23.03 27.8234 23.0332 27.8085 23.0332 27.7935C23.0332 27.7784 23.03 27.7635 23.0239 27.7498C23.009 27.5876 23.1669 27.3416 22.8381 27.3276C21.6037 27.2761 20.4618 26.8914 19.3583 26.368C18.6003 25.8814 17.9501 25.2446 17.4478 24.4968C17.2034 23.9981 16.997 23.4817 16.8302 22.9519L16.7709 22.4207L17.2446 22.9598C17.8952 23.791 18.742 24.4477 19.7089 24.8711C20.0649 25.1049 20.4661 25.2331 20.8683 25.3483C22.7752 25.8935 24.6194 25.8071 26.3754 24.7996C27.2391 24.3731 27.9872 23.7447 28.5563 22.9676C29.1753 22.2362 29.6225 21.3753 29.8648 20.4483C29.8763 20.413 29.8859 20.3772 29.8936 20.341C30.0859 19.7499 30.1767 19.1305 30.1623 18.509C30.2128 17.8003 30.1311 17.0883 29.9215 16.4093ZM6.43528 3.14961L6.19277 3.39038L6.41871 3.14961H6.43528ZM2.99387 6.27087L2.60044 6.69396C2.59481 6.68812 2.58984 6.68169 2.58561 6.67477C2.72286 6.54043 2.85895 6.40579 2.99387 6.27087ZM2.79148 10.4581C2.83782 10.4608 2.88389 10.4669 2.92932 10.4765C2.9075 10.4879 2.88281 10.4927 2.8583 10.4902C2.8338 10.4877 2.81056 10.4781 2.79148 10.4625V10.4581ZM3.00172 10.4538C2.82725 10.0176 2.42859 9.77509 2.11978 9.45756C1.85807 9.18539 1.66528 8.89926 1.64784 8.51368C1.63076 8.47443 1.62357 8.4316 1.6269 8.38893L1.71413 8.21446V8.20923L2.61091 7.26273L4.00667 5.86697L4.02062 5.87919C4.25354 5.87046 4.36346 5.67942 4.50565 5.54333C5.6903 4.40492 6.79818 3.19497 8.01947 2.10279C8.90141 1.31768 8.92933 1.29848 9.77114 2.11849C9.90985 2.25371 10.0058 2.49186 10.2701 2.43515C10.2701 2.56601 10.3827 2.64364 10.4559 2.73437C11.1006 3.53693 11.8822 4.20864 12.5967 4.94403C12.6238 4.98054 12.6579 5.01129 12.6969 5.0345C12.736 5.05772 12.7793 5.07293 12.8244 5.07924C13.1593 5.6105 13.6548 5.99172 14.0954 6.42353C14.1189 6.44726 14.1486 6.46398 14.1811 6.47184C14.2136 6.47969 14.2476 6.47837 14.2794 6.46802C14.2724 6.51082 14.2767 6.55472 14.2921 6.59531C14.3074 6.63589 14.3331 6.67172 14.3667 6.69919C14.9433 7.29413 15.5007 7.90914 16.1306 8.45087C16.0433 9.13305 15.5653 9.55177 15.1152 9.9958C14.2318 10.8681 13.3536 11.7463 12.4807 12.6303C12.355 12.7577 12.1823 12.8632 12.1919 13.0795H12.1666L10.2474 14.9987L9.56004 15.6791C9.4958 15.7132 9.4275 15.739 9.35678 15.7559C8.88309 15.9592 8.49664 15.851 8.14247 15.4733C7.66617 14.9638 7.16544 14.4762 6.65948 13.9903C6.55305 13.8882 6.45099 13.7024 6.26779 13.7896C5.89181 13.0691 5.27855 12.5684 4.65133 12.0894L4.62342 12.099C4.62806 12.0592 4.62294 12.0189 4.6085 11.9815C4.59406 11.9441 4.57074 11.9108 4.54054 11.8844C4.10495 11.4238 3.65685 10.9757 3.19625 10.5401C3.17168 10.5134 3.14171 10.4922 3.10832 10.4779C3.07494 10.4636 3.0389 10.4566 3.00259 10.4573L3.00172 10.4538Z" fill="#72A2EF"/>
<path id="Vector_3" d="M86.8885 13.5084C86.6437 12.7888 86.3523 12.086 86.0162 11.4043C85.8984 11.3275 85.949 11.1888 85.8984 11.0876L85.7763 10.8102C85.7709 10.7846 85.7605 10.7603 85.7458 10.7387C85.5713 10.2388 85.3968 9.74072 85.1264 9.28361C85.1054 9.23301 85.0793 9.18329 85.0636 9.13094C84.812 8.36341 84.508 7.61405 84.1537 6.88814C83.5815 6.78258 83.0048 6.86895 82.43 6.84103C82.4154 6.84194 82.4009 6.84194 82.3863 6.84103C82.1953 6.80701 82.095 6.89948 82.0287 7.07133C81.8167 7.62353 81.5925 8.17311 81.3788 8.72356C81.2949 8.826 81.2414 8.94991 81.2244 9.08122C81.1863 9.11239 81.1569 9.15284 81.139 9.19869C81.1211 9.24453 81.1154 9.29421 81.1223 9.34293C80.7849 10.0428 80.4884 10.7617 80.2343 11.4959C79.936 12.0971 79.6789 12.7179 79.4648 13.354L78.6719 15.172C79.3497 15.172 79.9534 15.1676 80.5579 15.172C80.6224 15.1776 80.6868 15.1603 80.7398 15.1231C80.7928 15.086 80.8309 15.0313 80.8475 14.9687C81.0499 14.4601 81.2549 13.9524 81.4582 13.4447C81.5454 13.2502 81.705 13.2441 81.8874 13.2458C82.607 13.2528 83.3285 13.279 84.0455 13.238C84.514 13.2109 84.856 13.2859 84.9772 13.7919C85.1325 14.181 85.2921 14.5683 85.4413 14.96C85.4605 15.0291 85.5042 15.0888 85.5643 15.128C85.6243 15.1671 85.6966 15.1831 85.7676 15.1728C86.3581 15.1632 86.9496 15.1728 87.6187 15.1728L86.8894 13.5154L86.8885 13.5084ZM83.7865 11.6599C83.2168 11.6398 82.6446 11.7052 82.0767 11.6189C82.0953 11.5956 82.1119 11.5708 82.1264 11.5447C82.4814 10.907 82.6917 10.2074 82.983 9.54269C83.0145 9.48041 83.0225 9.4089 83.0057 9.34118C83.0929 9.23563 83.1697 9.11263 83.2779 9.37084C83.2985 9.4165 83.3338 9.45395 83.3782 9.47727C83.3517 9.55619 83.3573 9.64237 83.3939 9.71716C83.5684 10.1874 83.7577 10.6532 83.9505 11.1129C83.9653 11.1693 83.9947 11.2209 84.0358 11.2624C84.0768 11.3039 84.128 11.3338 84.1842 11.3493L84.193 11.3554H84.1546C84.0831 11.5177 84.008 11.6669 83.7865 11.659V11.6599Z" fill="#639BF3"/>
<path id="Vector_4" d="M39.3421 13.6175C39.5419 12.794 39.4878 12.0316 38.8187 11.4122L38.2168 11.004C38.9705 10.6358 39.3369 10.0409 39.4145 9.25578C39.4625 9.03856 39.3927 8.83879 39.3534 8.62594C39.1624 7.56953 38.6137 6.98244 37.6035 6.90043C35.7916 6.75737 33.9745 6.8638 32.16 6.84199C32.1382 6.84199 32.1156 6.87426 32.0937 6.89171C32.0652 6.93842 32.0451 6.98981 32.0344 7.0435C32.0344 9.66055 32.0344 12.2706 32.0283 14.8842C32.0283 15.1729 32.1784 15.1694 32.3851 15.1686C33.6773 15.1639 34.9696 15.1639 36.2618 15.1686C36.741 15.1754 37.22 15.1509 37.696 15.0953C38.6032 14.981 39.1868 14.4567 39.3421 13.6175ZM34.4343 8.42356C34.9838 8.42356 35.5325 8.42356 36.0821 8.42356C36.6806 8.42356 37.2162 8.53085 37.4264 9.20082C37.4372 9.23126 37.4566 9.25791 37.4822 9.27758C37.4218 9.32184 37.3752 9.38234 37.3479 9.45205C37.1734 9.89346 36.8332 10.0784 36.3735 10.1316C35.7785 10.2005 35.1854 10.163 34.5913 10.1709C33.9728 10.1787 33.9859 10.1709 33.9623 9.53493C33.9501 9.20518 34.0277 8.86496 33.9466 8.54045C33.955 8.52786 33.9644 8.51591 33.9745 8.50468C34.1141 8.40698 34.2772 8.42356 34.4343 8.42356ZM34.4142 13.5704C34.1019 13.58 33.9606 13.4509 33.9728 13.1342C33.9824 12.8725 33.9806 12.6108 33.9728 12.3491C33.9658 12.1424 34.0086 11.9243 33.8856 11.7385C34.1595 11.7385 34.4334 11.7298 34.7073 11.7254C34.9463 11.7289 35.1851 11.7289 35.4235 11.7254C35.6852 11.7315 35.9469 11.7463 36.2086 11.7786C36.457 11.8574 36.715 11.9017 36.9754 11.9103H36.9963C37.0134 11.934 37.0318 11.9567 37.0513 11.9784C37.47 12.4547 37.4875 12.7155 37.1551 13.2468C37.1089 13.32 37.0435 13.3872 37.0548 13.4788L37.0138 13.4692C36.1537 13.6411 35.2822 13.546 34.4142 13.573V13.5704Z" fill="#639BF3"/>
<path id="Vector_5" d="M40.8591 18.59C41.6431 18.59 42.4282 18.59 43.2145 18.59C44.4104 18.59 44.4052 18.59 44.3433 17.3888C44.3328 17.1899 44.2909 17.1088 44.0737 17.1105C42.8106 17.1227 41.5439 17.0878 40.2851 17.1349C39.0263 17.182 37.8905 17.558 37.3095 18.8421C37.0548 19.2651 36.9091 19.7447 36.8856 20.2379C36.7336 21.0184 36.741 21.8217 36.9074 22.5993C36.9946 23.2545 37.2083 23.8555 37.6663 24.351C38.1897 25.0489 38.9304 25.3324 39.7687 25.3978C40.983 25.485 42.1999 25.4353 43.416 25.444C44.3956 25.451 44.3965 25.444 44.3171 24.4347C44.3521 23.9993 44.3521 23.5617 44.3171 23.1262C44.3524 22.6616 44.3524 22.195 44.3171 21.7305C44.3241 21.426 44.3171 21.1198 44.3424 20.8189C44.3607 20.5737 44.2761 20.4943 44.0275 20.4978C43.1551 20.5109 42.2828 20.5031 41.4157 20.5031C40.204 20.5031 40.204 20.5031 40.2982 21.7305C40.2301 21.973 40.3776 21.9808 40.5599 21.9808C41.2316 21.9808 41.9033 21.9878 42.575 21.9922C42.5593 22.6586 42.6256 23.3269 42.5393 23.9916H40.6829C40.5372 23.9308 40.3785 23.9074 40.2214 23.9235C39.7399 23.8982 39.4032 23.6348 39.1816 23.2353C39.0368 22.9736 38.9504 22.6804 38.837 22.4013C38.7638 21.8317 38.7268 21.258 38.7262 20.6836C38.8231 20.0922 38.9155 19.4999 39.3438 19.0323C39.7957 18.7121 40.3095 18.59 40.8591 18.59Z" fill="#639BF3"/>
<path id="Vector_6" d="M47.0004 14.0637C47.0004 13.7435 46.8896 13.6894 46.6008 13.6859C45.5453 13.6746 44.4819 13.7854 43.4368 13.5429L43.0137 13.3501L42.6517 13.0221C42.5069 12.7394 42.4389 12.4332 42.3569 12.1297C42.301 11.9238 42.3228 11.8235 42.4441 11.7807C42.5156 11.7711 42.5872 11.7633 42.6587 11.7572C43.9489 11.7711 45.2391 11.7659 46.5293 11.7572C46.6654 11.7572 46.8189 11.8243 46.9393 11.6979C47.051 11.3751 46.9541 11.041 46.9943 10.7165C47.0344 10.392 46.9315 10.269 46.5747 10.2803C45.4755 10.3056 44.3755 10.2899 43.2754 10.289C42.2286 10.289 42.2286 10.289 42.4624 9.25528C42.7695 8.65511 43.2676 8.36112 43.9349 8.34717C44.5875 8.33321 45.2435 8.31402 45.8942 8.3114C47.1225 8.30529 47.1155 8.3114 46.9969 7.07616C46.9777 6.88162 46.9096 6.8319 46.7282 6.83539C45.5941 6.86156 44.4601 6.78305 43.3321 6.88075C42.0515 6.99416 41.0405 7.82725 40.6453 9.08081C40.2833 9.92699 40.2327 10.8054 40.3705 11.704C40.3852 12.3861 40.5897 13.0507 40.9611 13.6231C41.3807 14.4082 42.048 14.8444 42.9047 15.0189C43.8948 15.2117 44.8989 15.1672 45.8995 15.1689C47.0091 15.1689 46.9951 15.1681 47.0004 14.0637Z" fill="#639BF3"/>
<path id="Vector_7" d="M53.6642 13.6879C52.6662 13.7028 51.6648 13.7377 50.6764 13.5379C50.631 13.5047 50.5822 13.4751 50.5403 13.4376C50.037 12.9874 50.1495 12.3576 50.0596 11.7862C50.0625 10.2387 50.0649 8.69112 50.0666 7.14357C50.0666 7.02493 50.1181 6.84 49.9192 6.84698C49.3958 6.86529 48.8619 6.75974 48.3402 6.90106C48.2696 7.74375 48.3019 8.58731 48.3245 9.43087C48.2931 10.2744 48.2879 11.1171 48.3289 11.9607C48.3097 12.5303 48.3289 13.0947 48.5906 13.6181C48.957 14.569 49.7203 14.9694 50.6685 15.0942C51.4048 15.1901 52.1472 15.1701 52.8878 15.1692C54.0218 15.1692 54.0114 15.1692 54.0018 14.0351C53.9983 13.7734 53.9398 13.6836 53.6642 13.6879Z" fill="#639BF3"/>
<path id="Vector_8" d="M80.611 21.5194C80.2761 21.0623 79.8861 20.6864 79.2903 20.6096L79.1385 20.5904C78.9972 20.5032 78.8393 20.5136 78.6823 20.5215C77.8972 20.5066 77.1121 20.4787 76.333 20.4805C75.4764 20.4805 75.185 20.2336 75.1065 19.377C75.1554 18.9713 75.3787 18.7236 75.7843 18.6625C76.0132 18.626 76.2444 18.6059 76.4761 18.6023C77.68 18.5953 78.8847 18.5796 80.0885 18.6023C80.4645 18.6102 80.5692 18.4941 80.5247 18.1417C80.5022 17.8959 80.5022 17.6486 80.5247 17.4028C80.5404 17.169 80.447 17.1089 80.2237 17.1123C79.3828 17.1237 78.541 17.1123 77.6991 17.1193C76.8268 17.1289 75.9544 17.0652 75.0917 17.1891C74.0841 17.3339 73.4089 18.0013 73.2598 18.9992C73.1025 19.4985 73.1421 20.0391 73.3706 20.5101C73.6017 21.2167 74.0981 21.6346 74.8056 21.8134C75.5593 22.0036 76.3296 21.9286 77.0937 21.9408C77.57 21.9478 78.0472 21.9408 78.5104 22.0769C78.6485 22.1638 78.7671 22.2785 78.8585 22.4136C78.95 22.5488 79.0124 22.7015 79.0417 22.862L79.0173 23.2877C78.8131 23.7021 78.4773 23.8931 78.0167 23.9289C76.9001 24.0161 75.7835 23.9559 74.6669 23.9673C73.4901 23.9795 73.4944 23.9673 73.559 25.1545C73.5694 25.3473 73.6052 25.4468 73.8259 25.4433C75.5523 25.4171 77.2804 25.5087 79.0033 25.3744C80.0693 25.2871 80.7907 24.5491 80.9399 23.47C81.0902 22.8 80.9725 22.0977 80.6119 21.5133L80.611 21.5194Z" fill="#639BF3"/>
<path id="Vector_9" d="M73.9044 11.9928C75.1929 12.0312 75.5802 12.3217 75.978 13.5308C76.0321 13.9879 76.087 14.4458 76.1402 14.903C76.1585 15.0609 76.1987 15.1751 76.4019 15.1716C76.9253 15.1629 77.4409 15.1716 77.9599 15.1716C78.0611 15.1716 78.1711 15.1821 78.1458 15.0181C78.0646 14.4947 77.9879 13.9713 77.9094 13.4479C77.7942 12.5642 77.413 11.8777 76.5136 11.5767C77.0292 11.3743 77.5002 11.1187 77.7349 10.5744C78.0573 10.0179 78.1511 9.358 77.9966 8.73371C77.9242 8.05939 77.5604 7.57436 76.9838 7.25508C76.4394 6.95325 75.8358 6.87474 75.2182 6.89829C75.1645 6.87771 75.1086 6.86365 75.0515 6.85642C73.6436 6.85118 72.2356 6.85642 70.8276 6.83984C70.5537 6.83984 70.5659 6.98902 70.5659 7.17308C70.5659 8.14575 70.5659 9.11842 70.5659 10.0911C70.5659 11.6613 70.5746 13.2272 70.5598 14.7948C70.5598 15.0975 70.6348 15.2048 70.9454 15.1821C71.3232 15.1631 71.7017 15.1631 72.0794 15.1821C72.2679 15.1873 72.3412 15.1184 72.3333 14.9317C72.3202 14.3516 72.3176 13.7715 72.3106 13.1914C72.3176 12.9027 72.3377 12.613 72.3281 12.3243C72.3202 12.0923 72.3778 11.9806 72.6412 11.9937C73.0635 12.005 73.4848 11.9797 73.9044 11.9928ZM75.8881 8.82007C75.9056 8.84276 75.9239 8.86456 75.9422 8.8855C75.9038 9.18472 76.0294 9.48568 75.9745 9.78489C76.0129 9.94017 76.0041 10.0763 75.8323 10.1469C75.6822 10.249 75.4973 10.3057 75.3874 10.4627C75.3569 10.4501 75.3277 10.4346 75.3002 10.4165C75.1588 10.3676 75.0158 10.4034 74.8727 10.4086C74.0213 10.4374 73.1699 10.4854 72.3202 10.3729L72.3115 9.0242C72.3476 8.99799 72.3722 8.95898 72.3804 8.91516C72.4197 8.47899 72.6979 8.40309 73.0783 8.41705C73.6567 8.43799 74.2368 8.41705 74.816 8.42403C75.2225 8.42577 75.5906 8.52522 75.8881 8.82007Z" fill="#639BF3"/>
<path id="Vector_10" d="M67.9393 19.1093C68.3275 18.7263 68.8186 18.6199 69.335 18.6068C69.916 18.592 70.4979 18.5946 71.0797 18.5937C72.2496 18.5937 72.2496 18.5937 72.2016 17.4265C72.2004 17.412 72.2004 17.3974 72.2016 17.3829C72.2269 17.1718 72.1301 17.1107 71.9242 17.1134C70.8774 17.1256 69.8305 17.1064 68.7837 17.1317C67.4604 17.1631 66.5479 17.8296 65.9922 19.0168C65.7339 19.466 65.5931 19.9731 65.5831 20.4911C65.4354 21.3439 65.5044 22.2201 65.7837 23.0392C66.1632 24.3015 66.9457 25.1206 68.2908 25.3265C69.2286 25.4696 70.1734 25.4417 71.1173 25.4452C72.2304 25.4452 72.2182 25.4452 72.2112 24.3259C72.2112 24.025 72.1048 23.9691 71.8317 23.9691C71.0047 23.9691 70.1742 24.0032 69.349 23.9369C68.5054 23.8697 67.8756 23.5391 67.6043 22.6903C67.5319 22.0299 67.5319 22.0299 68.2289 22.0299C69.4354 22.0299 70.6418 22.0299 71.8492 22.0299C71.9739 22.0299 72.1981 22.1241 72.1929 21.8956C72.1929 21.469 72.2801 21.0354 72.1379 20.615C71.9809 20.6028 71.8247 20.5801 71.6677 20.5792C70.3967 20.5792 69.1257 20.5705 67.8547 20.5792C67.5842 20.5792 67.4979 20.5155 67.5406 20.2364C67.6008 19.8307 67.6881 19.4434 67.9393 19.1093Z" fill="#639BF3"/>
<path id="Vector_11" d="M66.6178 15.1735C66.8464 15.1831 66.9214 15.1055 66.9162 14.8778C66.8996 14.1677 66.9005 13.4567 66.8952 12.7458C66.89 12.0348 66.8952 11.35 66.8952 10.6521C66.8952 10.0706 66.8952 9.48899 66.8952 8.90743C66.9319 8.31161 66.9319 8.31161 67.5547 8.31249H68.6478C69.6876 8.31249 69.6684 8.31249 69.6946 7.27439C69.7033 6.88969 69.5655 6.82949 69.2227 6.83211C67.348 6.84781 65.4716 6.83996 63.5978 6.83996C62.4559 6.83996 62.4637 6.83996 62.4943 7.99146C62.5004 8.23223 62.5588 8.3247 62.8135 8.31772C63.3797 8.30115 63.9476 8.31249 64.5137 8.31249C65.1357 8.31249 65.1357 8.31249 65.1732 8.9083C65.1732 9.48987 65.1732 10.0714 65.1732 10.653C65.1732 11.3218 65.1732 11.9906 65.1732 12.6594C65.1671 13.3991 65.168 14.1424 65.1514 14.8778C65.1462 15.1046 65.2203 15.184 65.4498 15.1744C65.8336 15.1569 66.2262 15.1569 66.6178 15.1735Z" fill="#639BF3"/>
<path id="Vector_12" d="M53.2472 23.7283C53.2411 23.6969 53.2283 23.6672 53.2097 23.6411C53.0166 23.0688 52.7834 22.5109 52.5118 21.9714L52.422 21.7298C52.4095 21.589 52.3537 21.4555 52.2623 21.3477C52.2117 21.1111 52.1179 20.8857 51.9858 20.683C51.7162 20.1517 51.629 19.5428 51.2879 19.0412C51.123 18.4402 50.9599 17.7885 50.5848 17.3332C50.1486 16.8019 49.3993 17.225 48.7982 17.1168C48.7703 17.1116 48.7398 17.1168 48.711 17.1168C48.654 17.104 48.5942 17.1132 48.5437 17.1426C48.4932 17.1721 48.4557 17.2196 48.4388 17.2756C48.1608 17.9735 47.8814 18.6713 47.6005 19.3692C47.307 19.9644 47.0526 20.5781 46.8389 21.2064C46.5045 21.9039 46.2092 22.6194 45.9544 23.3497L45.7747 23.7318C45.6833 23.8602 45.6285 24.0109 45.6159 24.168C45.4641 24.5117 45.3184 24.8572 45.1579 25.1965C45.0707 25.3876 45.1056 25.4582 45.3202 25.4486C45.6098 25.4381 45.9003 25.4486 46.1925 25.4486C47.173 25.4486 47.173 25.4486 47.5211 24.5231C47.5281 24.4945 47.5316 24.4652 47.5316 24.4358C47.5637 24.3266 47.6015 24.2191 47.645 24.1139C47.8195 23.7502 47.9791 23.4344 48.5095 23.5103C49.0277 23.5718 49.5513 23.5741 50.0701 23.5172C50.7584 23.457 51.3245 23.5312 51.472 24.3486C51.588 24.6443 51.704 24.9409 51.8209 25.2366C51.8715 25.3684 51.9439 25.4521 52.1062 25.4504C52.6584 25.4425 53.2097 25.4451 53.7636 25.4504C53.932 25.4504 53.9686 25.3884 53.9032 25.2393C53.6799 24.7342 53.4644 24.2308 53.2472 23.7283ZM49.0198 21.9522C48.8 21.947 48.6011 21.9174 48.4589 21.7342C48.5592 21.7132 48.6063 21.6312 48.6456 21.5466C48.9151 20.9552 49.1533 20.3515 49.3827 19.7443C49.402 19.708 49.4129 19.6678 49.4144 19.6267C49.4159 19.5856 49.4081 19.5447 49.3914 19.5071C49.4656 19.4198 49.5118 19.2453 49.6531 19.3692L49.64 19.3745C49.64 19.9659 49.8834 20.464 50.2341 20.9176C50.1896 21.3364 50.4042 21.6644 50.6188 21.9932C50.0928 21.9043 49.5572 21.9653 49.0198 21.9522Z" fill="#639BF3"/>
<path id="Vector_13" d="M55.792 15.1689C56.5902 15.1689 56.5902 15.1689 56.8536 14.4021C56.9845 14.1447 57.101 13.8803 57.2026 13.61C57.2898 13.3326 57.4303 13.2244 57.733 13.241C58.2564 13.2698 58.7842 13.3125 59.2936 13.2349C60.2235 13.0936 60.8106 13.3779 60.9851 14.3436C60.9894 14.3689 61.0182 14.389 61.0357 14.4117C61.2712 15.1689 61.2712 15.1689 62.0214 15.1689H62.4576C63.4783 15.1689 63.4783 15.1689 62.9854 14.225C62.6905 13.5271 62.469 12.7952 62.113 12.1191C61.889 11.4683 61.6242 10.8323 61.3201 10.2148C61.131 9.64044 60.8977 9.08162 60.6222 8.54338C60.4346 8.06272 60.2445 7.5838 60.063 7.10139C59.9941 6.91733 59.8973 6.8266 59.6801 6.83445C59.1863 6.85277 58.6917 6.84579 58.1971 6.83445C58.0226 6.83445 57.8961 6.86324 57.8254 7.04992C57.6248 7.57333 57.4102 8.09674 57.2008 8.62015C57.0652 8.80666 56.9816 9.0258 56.9583 9.25522C56.7722 9.58576 56.6258 9.93713 56.5221 10.302C56.367 10.5705 56.2496 10.859 56.1732 11.1596C55.9836 11.4949 55.8337 11.8512 55.7266 12.2212C55.3948 12.9005 55.1055 13.5997 54.8603 14.3148C54.7731 14.5094 54.6859 14.7083 54.5882 14.8976C54.4495 15.1593 54.5803 15.1802 54.7975 15.1741C55.1264 15.161 55.4605 15.1689 55.792 15.1689ZM57.924 11.3305C58.056 11.2394 58.1608 11.1143 58.2273 10.9683C58.2938 10.8224 58.3196 10.6612 58.3017 10.5018C58.5495 10.1258 58.7955 9.74984 58.7911 9.28052C58.8522 9.20811 58.9115 9.1139 58.9926 9.27529C59.0738 9.43667 59.1104 9.60242 59.1942 9.75246C59.3128 9.96706 59.2945 10.2689 59.5789 10.3806C59.4716 10.7295 59.7193 10.9912 59.8144 11.2878C59.9016 11.5495 59.865 11.6681 59.5675 11.6638C58.9935 11.6551 58.4186 11.669 57.8228 11.6577C57.9737 11.5643 58.0051 11.4605 57.924 11.3332V11.3305Z" fill="#639BF3"/>
<path id="Vector_14" d="M64.1864 17.1172H62.2743C61.6322 17.1172 61.6322 17.1172 61.4891 17.7854C61.0905 18.813 60.7459 19.859 60.4362 20.9171C60.2241 21.4058 60.0529 21.9111 59.9242 22.428C59.8388 22.5593 59.7854 22.7087 59.768 22.8642L59.7331 23.0047L59.4984 23.5508L59.3135 23.1259C59.1514 22.4737 58.9475 21.8327 58.7029 21.2068C58.4621 20.6956 58.4577 20.1085 58.1891 19.606C58.0575 19.044 57.8825 18.4931 57.6656 17.9581C57.4912 17.1207 57.4912 17.1207 56.6581 17.1207H56.0474C54.779 17.1207 54.779 17.1207 54.8672 18.4187C54.8672 18.9712 54.8672 19.5237 54.8672 20.0762C54.8672 20.7741 54.8672 21.472 54.8672 22.1698V25.0486C54.7956 25.3382 54.8715 25.4848 55.2065 25.4551C55.5552 25.4358 55.9046 25.4358 56.2533 25.4551C56.4601 25.4621 56.5342 25.3914 56.5307 25.1812C56.5168 24.3245 56.5159 23.4679 56.5107 22.6112V21.294C56.5159 20.9904 56.5107 20.6833 56.5316 20.3824C56.5595 20.0465 56.4269 19.6976 56.6092 19.3748L56.8448 20.0806C56.9416 20.4953 57.0729 20.9011 57.2373 21.294C57.3958 21.8871 57.591 22.4698 57.8218 23.0387C57.9256 23.3876 58.0093 23.7366 58.1376 24.0742C58.3121 24.5278 58.2745 25.182 58.6802 25.3914C59.071 25.5929 59.6398 25.4333 60.1361 25.4472C60.3254 25.4525 60.4249 25.3923 60.4851 25.2065C60.6787 24.5958 60.8872 23.9983 61.0896 23.3946C61.3984 22.6182 61.6738 21.8302 61.9157 21.0305L62.4653 19.4717C62.5935 19.6086 62.529 19.777 62.5299 19.9288C62.536 21.3385 62.5299 22.7491 62.5368 24.1588C62.5368 24.5766 62.3563 25.1184 62.611 25.3801C62.8875 25.6679 63.4388 25.4315 63.8654 25.4839C64.2231 25.5284 64.3016 25.3783 64.3016 25.0416C64.2894 22.5266 64.2964 20.0116 64.292 17.4967C64.292 17.3684 64.3731 17.2027 64.1864 17.1172ZM62.652 20.8578H62.6284C62.6284 20.8421 62.6284 20.8273 62.6284 20.8116C62.636 20.8267 62.6438 20.8421 62.652 20.8578Z" fill="#639BF3"/>
<path id="Vector_15" d="M88.0138 6.103C87.9484 5.93143 87.8406 5.7792 87.7005 5.66048C87.5604 5.54175 87.3926 5.46039 87.2126 5.42397C87.0326 5.38755 86.8463 5.39725 86.6711 5.45216C86.4959 5.50707 86.3374 5.60542 86.2104 5.73805C86.0833 5.87067 85.9919 6.03327 85.9447 6.21072C85.8974 6.38816 85.8958 6.57468 85.9399 6.75292C85.9841 6.93116 86.0726 7.09533 86.1973 7.23016C86.322 7.36499 86.4787 7.46609 86.653 7.52406C87.1389 7.69853 87.6379 7.51097 87.9318 7.05561C87.9851 6.97273 88.0444 6.89422 88.1002 6.81309V6.28969C88.0723 6.22775 88.0409 6.16581 88.0138 6.103ZM87.6178 7.10882C87.3029 7.42374 86.8798 7.44293 86.4436 7.14895C85.9725 6.67439 86.0074 6.18936 86.5308 5.775C86.9906 5.54034 87.4172 5.60751 87.6867 5.95819C87.8138 6.12666 87.8768 6.33491 87.8644 6.5456C87.8519 6.75629 87.7648 6.95565 87.6187 7.10795L87.6178 7.10882Z" fill="#639BF3"/>
<path id="Vector_16" d="M87.4094 6.31178C87.5167 6.20709 87.378 6.01954 87.2297 5.92969C86.5161 5.92969 86.5152 5.92969 86.5179 6.64589C86.5179 6.78808 86.5301 6.93027 86.5362 7.07159C86.6871 7.09427 86.7421 7.02448 86.7377 6.87793C86.7377 6.78372 86.6976 6.64763 86.8249 6.61623C86.9523 6.58482 87.0195 6.70346 87.0814 6.80553C87.1686 6.93987 87.2044 7.15446 87.4696 7.03146C87.3893 6.80465 87.1154 6.59965 87.4094 6.31178ZM86.9366 6.41559C86.8153 6.43129 86.7394 6.39378 86.7342 6.25856C86.7281 6.10677 86.8319 6.10677 86.9366 6.10503C87.0413 6.10328 87.1678 6.11899 87.18 6.23675C87.1957 6.39378 87.0544 6.40076 86.9366 6.41559Z" fill="#639BF3"/>
</g>
</g>
</g>
</svg>
