<svg width="85" height="41" viewBox="0 0 85 41" fill="none" xmlns="http://www.w3.org/2000/svg">
<g id="bet solution" style="mix-blend-mode:luminosity" clip-path="url(#clip0_460_405)">
<g id="Group">
<path id="Vector" d="M1.6394 35.0556V39.7246H2.53638H3.43336V39.4942V39.2598L3.52932 39.3955C3.57938 39.4696 3.67534 39.5724 3.73792 39.6177C3.85473 39.704 3.89228 39.704 5.99913 39.704C8.09765 39.704 8.14354 39.704 8.25618 39.6177C8.31876 39.5724 8.41054 39.4819 8.45644 39.4202C8.54405 39.3091 8.54405 39.2639 8.55656 36.3884C8.56908 33.1304 8.5816 33.2949 8.28121 33.0687L8.13519 32.9576H5.99913H3.86308L3.70871 33.0769C3.6211 33.1386 3.52932 33.2414 3.50428 33.299C3.46256 33.3854 3.45005 33.1057 3.43336 31.9045L3.4125 30.4071L2.52804 30.3948L1.6394 30.3865V35.0556ZM6.81267 36.3308V38.038H5.12302H3.43336V36.5653V35.0967L3.53349 34.9486C3.5919 34.8663 3.71706 34.7594 3.81718 34.71C3.98823 34.6278 4.05081 34.6236 5.40671 34.6236H6.81267V36.3308Z" fill="white"/>
<path id="Vector_2" d="M19.12 31.6618V32.937H18.682H18.2439V33.7803V34.6236H18.682H19.12L19.1284 36.9643C19.1409 39.268 19.1409 39.3091 19.2285 39.4243C19.2744 39.486 19.387 39.5806 19.4788 39.63C19.6373 39.7205 19.6749 39.7246 20.8848 39.7246H22.1238V38.8813V38.038H21.5189H20.914V36.3308V34.6236H21.5189H22.1238V33.7803V32.937H21.5189H20.914L20.9056 31.67L20.8931 30.4071L20.0086 30.3948L19.12 30.3865V31.6618Z" fill="white"/>
<path id="Vector_3" d="M40.6477 34.78V39.1734L40.7437 39.3544C40.8104 39.4901 40.8855 39.5642 41.0232 39.6341C41.1984 39.7205 41.2568 39.7246 42.1162 39.7246H43.0257V38.8813V38.038H42.7337H42.4417L42.4333 34.2205L42.4208 30.4071L41.5363 30.3948L40.6477 30.3865V34.78Z" fill="white"/>
<path id="Vector_4" d="M53.0257 30.4153C53.009 30.4277 52.9965 31.0036 52.9965 31.6906V32.937H52.5793H52.1621V33.7803V34.6236H52.5793H52.9965V36.8533C52.9965 38.1943 53.0132 39.1446 53.0382 39.231C53.0841 39.3996 53.2927 39.6177 53.4679 39.6794C53.543 39.7082 54.0437 39.7246 54.7946 39.7246H56.0003V38.8813V38.038H55.3954H54.7905V36.3308V34.6236H55.3954H56.0003V33.7803V32.937H55.3954H54.7905V31.6618V30.3865H53.9227C53.4429 30.3865 53.0382 30.3989 53.0257 30.4153Z" fill="white"/>
<path id="Vector_5" d="M57.4481 30.4391C57.3813 30.4843 57.3771 30.5707 57.3855 31.27L57.398 32.0516L58.2491 32.064C58.9041 32.0722 59.1085 32.0599 59.1377 32.0228C59.1544 31.994 59.1711 31.6403 59.1711 31.2412C59.1711 30.6365 59.1586 30.5049 59.1043 30.4514C59.0501 30.3979 58.9166 30.3856 58.2783 30.3856C57.7359 30.3856 57.4981 30.402 57.4481 30.4391Z" fill="white"/>
<path id="Vector_6" d="M10.6301 33.0028C10.4382 33.1016 10.3213 33.225 10.2713 33.3854C10.2462 33.4842 10.2337 34.5167 10.2421 36.4213C10.2546 39.2639 10.2546 39.3091 10.3422 39.4202C10.3881 39.4819 10.4799 39.5724 10.5425 39.6177C10.6551 39.704 10.6968 39.704 13.9093 39.7164L17.1592 39.7246V38.8813V38.038H14.5726H11.9818L11.9943 37.6143L12.0068 37.1947L14.364 37.1741C16.1538 37.1577 16.742 37.1412 16.813 37.1001C16.863 37.0713 16.959 36.9808 17.0216 36.8985L17.1384 36.7504L17.1509 35.142C17.1634 33.3319 17.1551 33.2785 16.8755 33.0687L16.7295 32.9576L13.7424 32.9453C11.0932 32.937 10.7427 32.9453 10.6301 33.0028ZM15.3987 35.0638L15.4112 35.4875H13.6965H11.986V35.0844C11.986 34.8622 11.9985 34.6648 12.0152 34.6524C12.0319 34.636 12.7953 34.6278 13.7132 34.6319L15.3861 34.6442L15.3987 35.0638Z" fill="white"/>
<path id="Vector_7" d="M23.9179 32.9823C23.8595 33.007 23.7677 33.0646 23.7177 33.1139C23.5007 33.3114 23.5007 33.3114 23.5007 35.0679C23.5007 36.7052 23.5007 36.7093 23.5967 36.8491C23.6468 36.9232 23.7552 37.0301 23.8303 37.0795L23.9722 37.1741H26.3001H28.6323V37.6061V38.038H26.9426H25.253V37.8323V37.6266H24.3769H23.5007V38.4453C23.5007 39.2227 23.5049 39.268 23.5967 39.3955C23.6468 39.4696 23.7427 39.5724 23.8053 39.6177C23.9221 39.704 23.9555 39.704 26.8926 39.7164L29.863 39.7246L30.0508 39.6341C30.1884 39.5642 30.2635 39.4901 30.3345 39.3544C30.4262 39.1734 30.4262 39.1487 30.4262 37.6019C30.4262 36.047 30.4262 36.0346 30.3303 35.8536C30.2635 35.7261 30.1801 35.6438 30.0508 35.578L29.8672 35.4875H27.5601H25.253V35.0556V34.6236H26.9426H28.6323V34.8499V35.0761H29.5293H30.4262V34.2822C30.4262 33.5294 30.4221 33.4759 30.3303 33.3073C30.2635 33.1839 30.1759 33.0975 30.0508 33.0316L29.8714 32.937L26.9468 32.9411C25.1069 32.9411 23.9847 32.9576 23.9179 32.9823Z" fill="white"/>
<path id="Vector_8" d="M32.5123 32.9823C32.3746 33.0357 32.2286 33.1756 32.1451 33.3278C32.0826 33.4389 32.0742 33.7309 32.0617 36.1662C32.0534 37.6595 32.0617 38.98 32.0742 39.0993C32.1076 39.3502 32.2745 39.5765 32.4998 39.667C32.6082 39.7122 33.1923 39.7246 35.537 39.7246C38.7327 39.7246 38.5992 39.7328 38.8412 39.4654C38.9455 39.3461 38.9747 39.268 38.9997 39.0582C39.0122 38.9142 39.0206 37.5937 39.0122 36.1251C38.9997 33.7309 38.9914 33.4389 38.9288 33.3278C38.8412 33.1674 38.6952 33.0357 38.5492 32.9823C38.3906 32.9205 32.6625 32.9247 32.5123 32.9823ZM37.2266 36.3308V38.038H35.537H33.8473V36.3308V34.6236H35.537H37.2266V36.3308Z" fill="white"/>
<path id="Vector_9" d="M44.6943 36.0552V39.1734L44.7903 39.3544C44.857 39.4901 44.9321 39.5642 45.0698 39.63C45.2534 39.7246 45.2742 39.7246 46.9848 39.7246C48.6536 39.7246 48.7203 39.7205 48.8955 39.6382C49.0123 39.5847 49.1125 39.4942 49.1792 39.3832L49.2835 39.2104V39.4654V39.7246H50.1596H51.0358V36.3308V32.937H50.1596H49.2835V35.1954C49.2835 36.6887 49.2668 37.495 49.2376 37.5732C49.1751 37.7459 48.9539 37.9516 48.7829 37.9969C48.7036 38.0174 48.1529 38.038 47.5647 38.038H46.4883V35.4875V32.937H45.5913H44.6943V36.0552Z" fill="white"/>
<path id="Vector_10" d="M57.3772 36.3308V39.7246H58.2742H59.1712V36.3308V32.937H58.2742H57.3772V36.3308Z" fill="white"/>
<path id="Vector_11" d="M61.1947 33.0193C61.1029 33.0646 60.9819 33.1674 60.9235 33.2538L60.8192 33.406L60.8067 36.2856L60.7983 39.1693L60.8901 39.3544C60.961 39.4901 61.0361 39.5642 61.1738 39.6341L61.3616 39.7246L64.332 39.7164C67.2691 39.704 67.3025 39.704 67.4193 39.6177C67.4819 39.5724 67.5778 39.4696 67.6321 39.3955L67.7238 39.2598V36.3308V33.4019L67.6321 33.2661C67.5778 33.1921 67.4819 33.0892 67.4193 33.044C67.3025 32.9576 67.2691 32.9576 64.332 32.9453C61.4325 32.937 61.3574 32.937 61.1947 33.0193ZM65.9716 36.3308V38.038H64.282H62.5923V36.3308V34.6236H64.282H65.9716V36.3308Z" fill="white"/>
<path id="Vector_12" d="M69.3926 36.3308V39.7246H70.2687H71.1448V37.4909C71.149 35.142 71.1532 35.0679 71.3409 34.8622C71.3826 34.817 71.4911 34.7429 71.5829 34.7018C71.7331 34.6319 71.8707 34.6236 72.8678 34.6236H73.9818V37.1741V39.7246H74.8579H75.734V36.5982C75.734 33.1345 75.7465 33.2908 75.4587 33.0769L75.3043 32.9576H73.4561C71.6538 32.9576 71.6079 32.9576 71.4911 33.044C71.4285 33.0892 71.3284 33.2003 71.27 33.2867L71.1657 33.443L71.1532 33.188L71.1406 32.937H70.2687H69.3926V36.3308Z" fill="white"/>
<path id="Vector_13" d="M77.7864 33.0063C77.7113 33.0434 77.5987 33.138 77.5361 33.2161L77.4235 33.3601V35.0591C77.4235 36.7087 77.4276 36.758 77.5111 36.8691C77.557 36.9308 77.6488 37.0213 77.7113 37.0666C77.824 37.1488 77.8824 37.1529 80.1895 37.1735L82.555 37.1941V37.6054V38.0168L80.857 38.0292L79.1548 38.0374V37.8317V37.626H78.2746H77.3984L77.411 38.4652C77.4235 39.3867 77.4318 39.4114 77.7113 39.617C77.824 39.7034 77.8699 39.7034 80.807 39.7158C84.132 39.7281 83.9652 39.7404 84.1946 39.4443L84.3073 39.3003V37.6096V35.9188L84.2071 35.779C84.1529 35.7049 84.0319 35.6062 83.9359 35.5651C83.7774 35.4951 83.6189 35.4869 81.4578 35.4869H79.1507L79.1632 35.0632L79.1757 34.6436H80.8654H82.555L82.5675 34.8575L82.58 35.0755H83.4562H84.3281V34.2816C84.3281 33.5411 84.3239 33.4753 84.2363 33.3066C84.1654 33.1709 84.0903 33.0968 83.9526 33.0269L83.7691 32.9364H80.8445C78.2245 32.9364 77.9116 32.9446 77.7864 33.0063Z" fill="white"/>
</g>
<g id="Layer_x0020_1">
<path id="Vector_14" fill-rule="evenodd" clip-rule="evenodd" d="M42.5809 0.290419C47.9391 0.290419 52.494 3.84802 54.1171 8.78112C51.2683 7.73677 48.3366 7.15091 45.2145 7.23582L45.2559 8.72169C48.5188 8.63678 51.5664 9.27358 54.5395 10.4113C54.6803 11.1755 54.7548 11.9566 54.7548 12.7633C54.7548 19.6577 49.3056 25.2361 42.5892 25.2361C41.7693 25.2361 40.966 25.1512 40.1875 24.9899C42.4898 22.9776 44.4526 20.6766 45.9432 17.8577L44.6679 17.1445C43.1109 20.0823 41.0405 22.4681 38.5975 24.5399C33.8356 22.8502 30.4153 18.2058 30.4153 12.7548C30.4153 9.59623 31.5581 6.70939 33.4546 4.5103C34.0012 7.55846 34.9701 10.4538 36.6016 13.1793L37.8439 12.3982C36.1379 9.54529 35.1606 6.5226 34.6306 3.31311C36.7673 1.41968 39.5499 0.273438 42.5892 0.273438L42.5809 0.290419Z" fill="#09A2DD"/>
</g>
</g>
<defs>
<clipPath id="clip0_460_405">
<rect width="83.4783" height="40" fill="white" transform="translate(0.850098 0.273438)"/>
</clipPath>
</defs>
</svg>
