<svg width="101" height="23" viewBox="0 0 101 23" fill="none" xmlns="http://www.w3.org/2000/svg">
<g id="betgames-tv" style="mix-blend-mode:luminosity" clip-path="url(#clip0_458_366)">
<g id="Group">
<path id="Vector" fill-rule="evenodd" clip-rule="evenodd" d="M10.7159 15.8538C11.1188 15.8538 11.4714 15.7699 11.8071 15.6188C12.1429 15.4509 12.4115 15.2494 12.6466 14.964C12.8816 14.6954 13.0495 14.3764 13.1838 14.0071C13.3013 13.6377 13.3685 13.2516 13.3685 12.8319C13.3685 12.261 13.2006 11.7909 12.8816 11.4048C12.5626 11.0187 12.0926 10.834 11.4714 10.834C11.102 10.834 10.7494 10.9179 10.4137 11.069C10.0779 11.2369 9.79248 11.4552 9.55744 11.7238C9.3224 12.0092 9.12093 12.3282 8.98662 12.6975C8.85231 13.0669 8.78516 13.453 8.78516 13.856C8.78516 14.4436 8.96983 14.9305 9.3224 15.2998C9.64139 15.6692 10.1115 15.8538 10.7159 15.8538Z" fill="#FF956A"/>
<path id="Vector_2" fill-rule="evenodd" clip-rule="evenodd" d="M20.7052 10.6992C20.3694 10.6992 20.0672 10.7496 19.7986 10.8839C19.53 11.0014 19.2949 11.1525 19.0934 11.3372C18.892 11.5219 18.7241 11.7401 18.6066 11.9584C18.4723 12.1766 18.3883 12.3949 18.3547 12.5964H22.3673C22.3841 12.5292 22.3841 12.4453 22.3841 12.3949C22.3841 12.3277 22.3841 12.2606 22.3841 12.1934C22.3841 11.7737 22.233 11.4211 21.9475 11.1357C21.6621 10.8335 21.2424 10.6992 20.7052 10.6992Z" fill="#FF956A"/>
<path id="Vector_3" fill-rule="evenodd" clip-rule="evenodd" d="M36.2014 3.81649C34.405 -0.397503 26.1449 -1.25373 14.8292 3.51429C13.0999 4.23621 11.5386 5.0085 10.1115 5.79757L9.18815 10.7167H9.22173C9.54072 10.2634 9.92686 9.91083 10.4137 9.659C10.9006 9.40717 11.4211 9.27285 12.0087 9.27285C12.4956 9.27285 12.9488 9.3568 13.3518 9.5079C13.7547 9.67579 14.0905 9.89404 14.3759 10.1962C14.6613 10.4984 14.8796 10.851 15.0307 11.2539C15.1818 11.6569 15.2657 12.1102 15.2657 12.6138C15.2657 13.2854 15.165 13.9066 14.9467 14.4774C14.7285 15.0482 14.4431 15.5687 14.0737 16.0052C13.7043 16.4417 13.251 16.7775 12.7306 17.0293C12.2101 17.2811 11.6393 17.4154 11.0181 17.4154C10.4473 17.4154 9.89328 17.2811 9.38962 17.0293C8.88595 16.7775 8.49981 16.3913 8.24798 15.9044H8.2144L7.99615 17.2308H6.23332L8.01294 7.09031C1.68355 11.1868 -0.784402 15.7533 0.59228 18.9936C2.38868 23.2076 11.8072 23.2579 21.6455 19.0775C23.2404 18.3892 24.7514 17.6505 26.1616 16.8446C25.8594 16.5256 25.7083 16.1227 25.7083 15.6022C25.7083 15.4511 25.7251 15.2832 25.7251 15.1154C25.7419 14.9475 25.7587 14.7796 25.7923 14.6285L26.4471 11.0525H25.0704L25.339 9.5079H26.6821L27.0682 7.25819H28.9318L28.5457 9.5079H30.2749L30.0063 11.0525H28.2938L27.6223 14.6621C27.5887 14.8132 27.5719 14.9643 27.5719 15.1154C27.5719 15.384 27.6559 15.5854 27.8237 15.6862C27.8573 15.703 27.9077 15.7365 27.9413 15.7533C34.086 11.7912 37.578 7.03994 36.2014 3.81649ZM24.063 13.0839C24.0295 13.3861 23.9791 13.6715 23.9119 13.9401H18.187C18.1702 13.9905 18.1702 14.0577 18.1702 14.1248C18.1702 14.3767 18.2205 14.6117 18.3213 14.8299C18.422 15.0482 18.5563 15.2329 18.741 15.384C18.9257 15.5351 19.1439 15.6694 19.379 15.7533C19.6308 15.8373 19.8994 15.8876 20.1848 15.8876C20.6717 15.8876 21.0914 15.8037 21.444 15.619C21.7966 15.4343 22.0988 15.1825 22.3842 14.8803L23.4586 15.8876C22.5017 16.9118 21.3433 17.4322 19.9666 17.4322C19.4461 17.4322 18.9592 17.3483 18.5227 17.1972C18.0862 17.0461 17.7001 16.811 17.3811 16.5256C17.0621 16.2402 16.8103 15.8876 16.6256 15.4511C16.4409 15.0314 16.357 14.5445 16.357 13.9905C16.357 13.319 16.4745 12.7146 16.6928 12.1269C16.911 11.5561 17.23 11.0525 17.6329 10.616C18.0359 10.1794 18.5059 9.84367 19.06 9.60863C19.614 9.37358 20.2184 9.23928 20.8732 9.23928C21.3265 9.23928 21.763 9.30643 22.1491 9.44074C22.5353 9.57505 22.8878 9.75973 23.1732 10.0116C23.4586 10.2634 23.6937 10.5824 23.8448 10.9685C24.0127 11.3547 24.0798 11.808 24.0798 12.3284C24.0966 12.5467 24.0798 12.7817 24.063 13.0839Z" fill="#FF956A"/>
<path id="Vector_4" d="M42.8665 10.6657L43.0679 9.49053H44.8644L43.6388 16.5586C43.5212 17.2302 43.3534 17.8514 43.1183 18.4054C42.9001 18.9594 42.5979 19.4463 42.2117 19.8324C41.8424 20.2354 41.3723 20.5376 40.8182 20.7558C40.2642 20.9741 39.5927 21.0748 38.8036 21.0748C38.4846 21.0748 38.1488 21.0412 37.813 20.9909C37.4773 20.9405 37.1247 20.8398 36.8057 20.7222C36.4699 20.6047 36.151 20.4536 35.8655 20.2857C35.5633 20.1178 35.3115 19.9164 35.0933 19.6981L36.3524 18.3214C36.6546 18.674 37.024 18.9426 37.4605 19.1441C37.897 19.3288 38.3671 19.4295 38.854 19.4295C39.324 19.4295 39.727 19.3624 40.046 19.228C40.3817 19.0937 40.6504 18.9091 40.8686 18.674C41.0869 18.439 41.2715 18.1536 41.4059 17.8178C41.5402 17.482 41.6409 17.1294 41.7248 16.7433L41.8592 16.1221H41.8424C41.557 16.4915 41.1876 16.7937 40.7343 17.0119C40.281 17.2302 39.7606 17.3477 39.1729 17.3477C38.6861 17.3477 38.2328 17.2637 37.8298 17.1126C37.4269 16.9448 37.0911 16.7265 36.8057 16.4411C36.5203 16.1557 36.3021 15.8031 36.151 15.4002C35.9999 14.9973 35.9159 14.544 35.9159 14.0571C35.9159 13.4023 36.0166 12.7811 36.2349 12.2103C36.4364 11.6395 36.7386 11.119 37.1079 10.6825C37.4773 10.246 37.9306 9.91025 38.451 9.65842C38.9715 9.40659 39.5423 9.28906 40.1635 9.28906C40.8686 9.28906 41.4394 9.42338 41.8759 9.67521C42.3125 9.92704 42.6314 10.2628 42.8329 10.6657H42.8665ZM37.8466 13.8053C37.8466 14.3761 38.0145 14.8462 38.3335 15.2323C38.6693 15.6184 39.1226 15.8031 39.7438 15.8031C40.1131 15.8031 40.4657 15.7192 40.8015 15.5681C41.1372 15.4002 41.4226 15.1819 41.6577 14.9133C41.8927 14.6279 42.0942 14.3089 42.2285 13.9564C42.3628 13.587 42.43 13.2009 42.43 12.7979C42.43 12.2103 42.2621 11.7234 41.8927 11.3541C41.5402 10.9847 41.0533 10.8001 40.4657 10.8001C40.0627 10.8001 39.7102 10.884 39.3744 11.0351C39.0554 11.203 38.77 11.4045 38.535 11.6899C38.2999 11.9585 38.132 12.2775 37.9977 12.6468C37.9138 12.9994 37.8466 13.3855 37.8466 13.8053Z" fill="#FF956A"/>
<path id="Vector_5" d="M51.0594 12.329C51.0761 12.1947 51.0929 12.094 51.0929 12.0268C51.0929 11.9597 51.1097 11.8925 51.1097 11.8253C51.1097 11.456 50.9922 11.1874 50.7404 11.0195C50.5053 10.8516 50.136 10.7844 49.6659 10.7844C49.2965 10.7844 48.8936 10.8516 48.5075 11.0027C48.1045 11.1538 47.752 11.3385 47.433 11.5567L46.711 10.2808C47.1476 9.96178 47.6512 9.72674 48.222 9.54206C48.7929 9.35738 49.3637 9.27344 49.9513 9.27344C50.3206 9.27344 50.6732 9.30702 51.0426 9.39096C51.4119 9.47491 51.7309 9.60921 52.0163 9.7771C52.3017 9.96178 52.52 10.1968 52.7047 10.499C52.8725 10.8012 52.9565 11.1538 52.9565 11.6071C52.9565 11.7078 52.9565 11.8253 52.9397 11.9596C52.9229 12.094 52.9061 12.2283 52.8893 12.329L52.3185 15.4685C52.2681 15.7707 52.2178 16.0729 52.1842 16.4087C52.1506 16.7277 52.1338 16.9963 52.1338 17.2146H50.4046C50.4046 16.9291 50.4382 16.6269 50.5053 16.2912H50.4717C49.8673 17.0131 49.0279 17.3656 47.9534 17.3656C47.6848 17.3656 47.3994 17.3321 47.114 17.2649C46.8286 17.1978 46.56 17.097 46.3249 16.9291C46.0899 16.778 45.8884 16.5598 45.7373 16.308C45.5862 16.0393 45.519 15.7203 45.519 15.3174C45.519 14.6794 45.6869 14.1758 46.0227 13.7896C46.3585 13.4035 46.795 13.0845 47.3322 12.8662C47.8695 12.648 48.4739 12.4969 49.1286 12.4297C49.7834 12.3626 50.4214 12.329 51.0594 12.329ZM50.6564 13.6721C50.2871 13.6721 49.9177 13.6889 49.5148 13.7057C49.1286 13.7393 48.7593 13.7896 48.4403 13.8904C48.1045 13.9911 47.8527 14.1254 47.6344 14.3101C47.433 14.478 47.3154 14.7298 47.3154 15.032C47.3154 15.2167 47.349 15.3678 47.4162 15.4853C47.4833 15.6028 47.5841 15.7036 47.7016 15.7875C47.8191 15.8547 47.9534 15.9218 48.1045 15.9554C48.2556 15.989 48.4067 16.0058 48.5746 16.0058C48.86 16.0058 49.1286 15.9554 49.3805 15.8547C49.6323 15.7539 49.8506 15.6196 50.0352 15.4685C50.2199 15.3006 50.371 15.1159 50.5053 14.8809C50.6228 14.6627 50.7236 14.4276 50.7739 14.159L50.8747 13.6721H50.6564Z" fill="#FF956A"/>
<path id="Vector_6" d="M55.2902 10.3635C55.3405 10.0446 55.3741 9.75915 55.3909 9.49053H57.1537C57.1369 9.60805 57.1201 9.79273 57.0866 10.0613C57.053 10.3132 57.0362 10.5314 57.0026 10.6993H57.0362C57.2712 10.33 57.5734 10.011 57.9596 9.72557C58.3457 9.44016 58.8326 9.28906 59.4202 9.28906C60.0582 9.28906 60.5786 9.42337 60.9648 9.70878C61.3509 9.99419 61.6195 10.3468 61.7371 10.8001C62.0728 10.33 62.459 9.96061 62.9123 9.69199C63.3656 9.42337 63.886 9.28906 64.4736 9.28906C64.9269 9.28906 65.3131 9.35622 65.6321 9.47374C65.951 9.60805 66.2197 9.77594 66.4379 9.99419C66.6562 10.2124 66.8073 10.4643 66.908 10.7665C67.0087 11.0687 67.0591 11.3709 67.0591 11.6899C67.0591 11.9585 67.0423 12.1935 66.992 12.4118L66.1357 17.2134H64.2554L64.9941 12.9658C65.0109 12.8315 65.0277 12.714 65.0445 12.5797C65.0612 12.4454 65.0612 12.3278 65.0612 12.1935C65.0612 12.0256 65.0444 11.8578 64.9941 11.6899C64.9437 11.522 64.8766 11.3877 64.7926 11.2701C64.6919 11.1526 64.5576 11.0519 64.4065 10.9847C64.2554 10.9176 64.0371 10.8672 63.7853 10.8672C63.4831 10.8672 63.2145 10.9344 62.9794 11.0519C62.7444 11.1862 62.5429 11.3541 62.3582 11.5556C62.1736 11.757 62.0393 11.9921 61.9385 12.2439C61.8378 12.4957 61.7538 12.7476 61.7203 12.9994L60.9816 17.2134H59.0844L59.9071 12.5461C59.9407 12.3782 59.9574 12.2439 59.9574 12.1096C59.9574 11.7402 59.8567 11.4548 59.672 11.2198C59.4874 10.9847 59.1852 10.8672 58.7654 10.8672C58.48 10.8672 58.2114 10.9344 57.9764 11.0519C57.7413 11.1694 57.5399 11.3373 57.372 11.522C57.2041 11.7067 57.053 11.9417 56.9522 12.1935C56.8347 12.4454 56.7676 12.6972 56.7172 12.949L55.9617 17.1966H54.0981L55.1558 11.1358C55.2062 10.9512 55.2398 10.6825 55.2902 10.3635Z" fill="#FF956A"/>
<path id="Vector_7" d="M70.1652 13.9403C70.1484 13.9907 70.1484 14.0578 70.1484 14.1082C70.1484 14.36 70.1988 14.5951 70.2995 14.8133C70.4002 15.0316 70.5345 15.2163 70.7192 15.3674C70.9039 15.5185 71.1221 15.6528 71.3572 15.7367C71.609 15.8207 71.8776 15.871 72.1631 15.871C72.6499 15.871 73.0864 15.7871 73.4222 15.6024C73.7748 15.4177 74.077 15.1659 74.3624 14.8637L75.4369 15.871C74.4799 16.8951 73.3215 17.4156 71.9448 17.4156C71.4243 17.4156 70.9375 17.3317 70.501 17.1806C70.0645 17.0295 69.6783 16.7944 69.3593 16.509C69.0403 16.2236 68.7885 15.871 68.6038 15.4345C68.4192 15.0148 68.3352 14.5279 68.3352 13.9739C68.3352 13.3023 68.4527 12.6812 68.671 12.1103C68.8892 11.5395 69.2082 11.0358 69.6112 10.5993C70.0141 10.1628 70.4842 9.84384 71.0382 9.59201C71.5922 9.35697 72.1966 9.22266 72.8514 9.22266C73.3047 9.22266 73.7412 9.28981 74.1273 9.40733C74.5135 9.54164 74.8661 9.72632 75.1515 9.99494C75.4369 10.2468 75.6719 10.5658 75.823 10.9519C75.9909 11.338 76.0581 11.7913 76.0581 12.3118C76.0581 12.4797 76.0413 12.7147 76.0077 13.0337C75.9741 13.3359 75.9238 13.6213 75.8566 13.8899H70.1652V13.9403ZM74.3456 12.5972C74.3624 12.5301 74.3624 12.4461 74.3624 12.3957C74.3624 12.3286 74.3624 12.2614 74.3624 12.1943C74.3624 11.7746 74.2113 11.422 73.9259 11.1366C73.6237 10.8512 73.2208 10.7001 72.6835 10.7001C72.3477 10.7001 72.0455 10.7504 71.7769 10.8847C71.5083 11.0023 71.2733 11.1534 71.0718 11.338C70.8703 11.5227 70.7024 11.741 70.5849 11.9592C70.4506 12.1775 70.3667 12.3957 70.3331 12.5972H74.3456Z" fill="#FF956A"/>
<path id="Vector_8" d="M77.8376 14.998C78.0055 15.317 78.2406 15.5521 78.5596 15.72C78.8785 15.8879 79.2311 15.9718 79.6173 15.9718C80.0538 15.9718 80.4063 15.8879 80.6749 15.72C80.9436 15.5521 81.0611 15.317 81.0611 15.0148C81.0611 14.7294 80.9604 14.528 80.7421 14.3936C80.5406 14.2593 80.2049 14.125 79.7348 13.9739C79.3654 13.8564 79.0464 13.7389 78.7778 13.6046C78.5092 13.4871 78.2741 13.336 78.0895 13.1681C77.9048 13.0002 77.7705 12.8155 77.6865 12.5972C77.6026 12.379 77.5522 12.1272 77.5522 11.8418C77.5522 11.4724 77.6362 11.1198 77.8041 10.8176C77.972 10.4986 78.207 10.2468 78.5092 10.0118C78.8114 9.79352 79.164 9.60884 79.5669 9.49132C79.9698 9.3738 80.4231 9.30664 80.91 9.30664C81.5144 9.30664 82.0516 9.42416 82.5385 9.64242C83.0254 9.86067 83.4115 10.1964 83.6969 10.6497L82.2363 11.5228C82.102 11.3045 81.9173 11.1366 81.6823 10.9855C81.464 10.8344 81.145 10.7673 80.7589 10.7673C80.591 10.7673 80.4399 10.7841 80.272 10.8176C80.1041 10.8512 79.953 10.9016 79.8355 10.9687C79.7012 11.0359 79.6005 11.1366 79.5165 11.2541C79.4326 11.3717 79.399 11.5228 79.399 11.6907C79.399 11.9425 79.4997 12.1272 79.718 12.2447C79.9195 12.3622 80.2384 12.4797 80.6414 12.5972C81.3633 12.7987 81.9173 13.0841 82.3203 13.4199C82.7232 13.7725 82.9079 14.2593 82.9079 14.9141C82.9079 15.3506 82.8239 15.72 82.6392 16.0557C82.4546 16.3747 82.2195 16.6601 81.9005 16.8784C81.5983 17.0967 81.2458 17.2645 80.8428 17.3821C80.4399 17.4996 80.0202 17.5499 79.5669 17.5499C78.7274 17.5499 78.0559 17.3988 77.5522 17.1134C77.0486 16.8112 76.6456 16.4587 76.3938 16.0054L77.8376 14.998Z" fill="#FF956A"/>
<path id="Vector_9" d="M86.232 16.0549C86.232 16.3907 86.1144 16.6761 85.8794 16.9111C85.6444 17.1462 85.359 17.2805 85.04 17.2805C84.721 17.2805 84.4356 17.1798 84.2173 16.9783C83.9823 16.7768 83.8647 16.4914 83.8647 16.1221C83.8647 15.7695 83.9823 15.4841 84.2341 15.2491C84.4859 15.014 84.7713 14.8965 85.0903 14.8965C85.4093 14.8965 85.6779 14.9972 85.8962 15.2155C86.1312 15.4169 86.232 15.7024 86.232 16.0549Z" fill="#FF956A"/>
<path id="Vector_10" d="M87.4241 11.0365L87.6927 9.49189H89.0358L89.4219 7.24219H91.2855L90.8994 9.49189H92.6454L92.3768 11.0365H90.6643L89.9928 14.646C89.9592 14.8139 89.9424 14.9483 89.9424 15.0993C89.9424 15.3848 90.0263 15.5694 90.1942 15.6702C90.3621 15.7709 90.5804 15.8213 90.8658 15.8213C91.0001 15.8213 91.1176 15.8213 91.2519 15.7877C91.3694 15.7709 91.487 15.7541 91.6045 15.7205L91.487 17.1476C91.3191 17.2147 91.1344 17.2651 90.9161 17.2987C90.6979 17.3323 90.4964 17.349 90.3118 17.349C89.4891 17.349 88.9183 17.1812 88.5657 16.8622C88.2131 16.5432 88.0453 16.1067 88.0453 15.5694C88.0453 15.4183 88.062 15.2504 88.062 15.0826C88.0788 14.9147 88.0956 14.7468 88.1292 14.5957L88.784 11.0197H87.4241V11.0365Z" fill="#FF956A"/>
<path id="Vector_11" d="M96.3725 17.2131H94.3411L92.8301 9.49023H94.8112L95.701 15.1481H95.7345L98.958 9.49023H100.956L96.3725 17.2131Z" fill="#FF956A"/>
</g>
</g>
<defs>
<clipPath id="clip0_458_366">
<rect width="100.742" height="22" fill="white" transform="translate(0.218994 0.273438)"/>
</clipPath>
</defs>
</svg>
