<svg width="134" height="29" viewBox="0 0 134 29" fill="none" xmlns="http://www.w3.org/2000/svg">
<g id="betradar" style="mix-blend-mode:luminosity" clip-path="url(#clip0_476_242)">
<g id="&#229;&#155;&#190;&#229;&#177;&#130; 1">
<path id="Vector" d="M0.758789 0.273438H2.67636V6.56707H2.72091C3.12182 5.38556 4.17182 4.87223 6.35667 4.87223H9.2797C13.8976 4.87223 15.3039 6.16616 15.3039 9.80192V11.8107C15.3039 15.7371 12.873 16.6068 9.39212 16.6068H6.71515C4.70849 16.6068 3.14515 16.0043 2.58727 14.6213H2.54273V16.4286H0.758789V0.273438ZM13.3864 9.55586C13.3864 6.92344 12.0691 6.43344 9.43667 6.43344H6.84879C4.26091 6.43344 2.67636 6.87889 2.67636 9.60041V11.764C2.67636 13.8386 3.59061 15.0434 6.44788 15.0434H9.5703C12.6948 15.0434 13.3864 13.9956 13.3864 11.7874V9.55586Z" fill="#ABABAB"/>
<path id="Vector_2" d="M41.1255 6.61112H38.6267V5.04991H41.1255V2.34961H43.0452V5.04991H50.6519V6.61112H43.0452V12.2769C43.0452 14.396 43.7813 15.0429 45.8791 15.0429H46.4816C49.0249 15.0429 49.4258 14.5084 49.4258 12.1199V11.2714H50.987V12.5208C50.987 14.7969 50.7643 16.6042 46.6131 16.6042H45.5652C41.974 16.6042 41.1255 14.8648 41.1255 13.0129V6.61112Z" fill="#ABABAB"/>
<path id="Vector_3" d="M53.4053 5.04732H57.4207V7.21096H57.4653C57.9553 5.40369 59.6968 4.86914 61.6377 4.86914C64.7601 4.86914 65.9883 6.20763 65.9883 9.35338C65.9883 9.64399 65.965 9.95581 65.9438 10.3567H62.2401C62.2401 8.90581 61.905 8.21429 60.1868 8.21429C58.7147 8.21429 57.688 8.77217 57.688 10.134V16.4255H53.4053V5.04732Z" fill="#ABABAB"/>
<path id="Vector_4" d="M67.5706 12.4313C67.5706 9.33005 69.713 9.15187 73.8621 9.15187C76.2039 9.15187 77.4978 9.21975 78.323 10.0661V9.06278C78.323 7.94702 77.9878 7.54611 76.3142 7.54611H73.7942C72.5448 7.54611 72.1884 7.65853 72.1439 8.46035H67.9948C67.9948 5.38247 69.5115 4.86914 73.126 4.86914H78.1003C81.0445 4.86914 82.6078 6.2755 82.6078 8.95247V16.4255H78.5478V15.1316C77.3642 16.3597 76.9187 16.6037 74.7763 16.6037H71.8533C69.2442 16.6249 67.5706 16.0458 67.5706 13.3688V12.4313ZM75.2006 13.9267C78.1448 13.9267 78.4142 13.4813 78.4142 12.7219C78.4142 11.8734 78.1681 11.5616 75.803 11.5616H73.9066C72.0993 11.5616 71.7196 11.9625 71.7196 12.9001C71.7196 13.6361 72.3009 13.9267 73.9724 13.9267H75.1984H75.2006Z" fill="#ABABAB"/>
<path id="Vector_5" d="M84.7695 9.71071C84.7695 6.81101 85.4398 4.8701 90.8595 4.8701H92.1301C93.8928 4.8701 95.7001 5.3601 95.9673 7.14616H96.0119V0.273438H100.295V16.4265H96.2791V14.3286H96.2346C95.7658 15.735 94.6946 16.6046 92.1067 16.6046H90.8573C85.4355 16.6046 84.7673 14.6637 84.7673 11.764V9.71071H84.7695ZM88.9185 11.4056C88.9185 12.6762 89.1201 13.391 91.1713 13.391H93.6913C95.3861 13.391 96.2791 13.0113 96.2791 11.2953V10.1795C96.2791 8.46132 95.3861 8.08162 93.6913 8.08162H91.1713C89.1179 8.08162 88.9185 8.79647 88.9185 10.0671V11.4056Z" fill="#ABABAB"/>
<path id="Vector_6" d="M102.675 12.4313C102.675 9.33005 104.817 9.15187 108.966 9.15187C111.308 9.15187 112.602 9.21975 113.427 10.0661V9.06278C113.427 7.94702 113.092 7.54611 111.42 7.54611H108.898C107.649 7.54611 107.292 7.65853 107.248 8.46035H103.099C103.099 5.38247 104.615 4.86914 108.23 4.86914H113.204C116.148 4.86914 117.71 6.2755 117.71 8.95247V16.4255H113.65V15.1316C112.468 16.3597 112.021 16.6037 109.88 16.6037H106.957C104.346 16.6249 102.675 16.0458 102.675 13.3688V12.4313ZM110.305 13.9267C113.249 13.9267 113.516 13.4813 113.516 12.7219C113.516 11.8734 113.27 11.5616 110.905 11.5616H109.009C107.201 11.5616 106.822 11.9625 106.822 12.9001C106.822 13.6361 107.401 13.9267 109.074 13.9267H110.302H110.305Z" fill="#ABABAB"/>
<path id="Vector_7" d="M120.455 5.04732H124.47V7.21096H124.515C125.005 5.40369 126.746 4.86914 128.687 4.86914C131.809 4.86914 133.038 6.20763 133.038 9.35338C133.038 9.64399 133.014 9.95581 132.993 10.3567H129.289C129.289 8.90581 128.954 8.21429 127.236 8.21429C125.764 8.21429 124.737 8.77217 124.737 10.134V16.4255H120.455V5.04732Z" fill="#ABABAB"/>
<g id="Group">
<path id="Vector_8" d="M72.2012 26.8922H71.6328V26.3152H71.6179C71.4397 26.7564 70.9434 26.9494 70.3028 26.9494H69.45C68.3428 26.9494 67.5664 26.6715 67.5664 25.42V24.7815C67.5664 23.6234 68.014 23.2119 69.4861 23.2119H70.4173C71.1131 23.2119 71.4482 23.3752 71.5755 23.7506H71.5903V21.7461H72.2012V26.89V26.8922ZM68.1794 25.4137C68.1794 26.1179 68.4 26.4509 69.3949 26.4509H70.3897C71.2997 26.4509 71.5903 26.067 71.5903 25.4073V24.7179C71.5903 23.8503 71.0855 23.7082 70.2625 23.7082H69.4373C68.5994 23.7082 68.1794 23.8652 68.1794 24.7031V25.4137Z" fill="#ABABAB"/>
<path id="Vector_9" d="M73.4041 23.2682H73.9725V23.7943H73.9874C74.2144 23.3255 74.6768 23.2109 75.0968 23.2109H75.6716C76.815 23.2109 77.1925 23.58 77.1925 24.4688V24.9015H76.6241V24.7446C76.6241 23.8494 76.4395 23.7073 75.3513 23.7073H74.9737C74.3268 23.7073 74.015 24.1209 74.015 24.5876V26.8891H73.4041V23.2661V23.2682Z" fill="#ABABAB"/>
<path id="Vector_10" d="M78.0027 21.748H78.6136V22.4162H78.0027V21.748ZM78.0027 23.269H78.6136V26.892H78.0027V23.269Z" fill="#ABABAB"/>
<path id="Vector_11" d="M79.3179 23.2695H79.9648L81.7276 26.3962L83.4903 23.2695H84.1373L82.0903 26.8926H81.3648L79.3179 23.2695Z" fill="#ABABAB"/>
<path id="Vector_12" d="M84.5933 24.6785C84.5933 23.3633 85.5033 23.2148 86.3708 23.2148H87.3508C88.4454 23.2148 89.2345 23.4927 89.2345 24.7845V25.1897H85.2063V25.4167C85.2063 26.2418 85.6051 26.4539 86.6699 26.4539H87.5078C88.2757 26.4539 88.5875 26.3564 88.6236 25.8006H89.2345V25.8706C89.2345 26.7021 88.5451 26.9524 87.4081 26.9524H86.2987C85.5033 26.9524 84.5933 26.8039 84.5933 25.4676V24.6785ZM88.6236 24.4515C88.6236 24.0824 88.3457 23.7112 87.3508 23.7112H86.4557C85.4884 23.7112 85.2614 23.8682 85.2063 24.6933H88.6236V24.4515Z" fill="#ABABAB"/>
<path id="Vector_13" d="M90.1934 23.27H90.7618V23.8958H90.7767C91.0037 23.3358 91.4809 23.2148 92.2403 23.2148H93.1567C94.3 23.2148 94.6628 23.7918 94.6628 24.443V26.8951H94.0518V24.5936C94.0518 24.0612 93.9034 23.7133 92.7155 23.7133H92.5585C91.1309 23.7133 90.8043 23.9827 90.8043 24.8376V26.8973H90.1934V23.2742V23.27Z" fill="#ABABAB"/>
<path id="Vector_14" d="M97.8213 21.748H98.4322V23.7526H98.447C98.5743 23.3771 98.9095 23.2138 99.6052 23.2138H100.536C102.009 23.2138 102.456 23.6274 102.456 24.7835V25.422C102.456 26.6735 101.682 26.9514 100.573 26.9514H99.7198C99.0792 26.9514 98.5828 26.7583 98.4046 26.3171H98.3898V26.8941H97.8213V21.7502V21.748ZM101.843 24.705C101.843 23.865 101.423 23.7102 100.585 23.7102H99.7601C98.9349 23.7102 98.4322 23.8523 98.4322 24.7199V25.4093C98.4322 26.0711 98.7228 26.4529 99.6328 26.4529H100.628C101.623 26.4529 101.843 26.1199 101.843 25.4156V24.705Z" fill="#ABABAB"/>
<path id="Vector_15" d="M103.642 27.7474C104.579 27.7474 104.779 27.6838 105.099 26.952H104.951L102.897 23.2695H103.587L105.343 26.4747L106.921 23.2695H107.583L105.536 27.3423C105.158 28.0889 104.904 28.231 103.646 28.2459V27.7495L103.642 27.7474Z" fill="#ABABAB"/>
<path id="Vector_16" d="M110.602 23.7674H109.812V23.269H110.602V22.9487C110.602 22.0874 111.128 21.748 111.796 21.748H112.939V22.2465H111.845C111.391 22.2465 111.213 22.5032 111.213 22.8214V23.269H112.939V23.7674H111.213V26.8941H110.602V23.7674Z" fill="#ABABAB"/>
<path id="Vector_17" d="M117.447 26.5308H117.432C117.269 26.8575 117.076 26.9508 116.138 26.9508H114.674C113.752 26.9508 113.51 26.5457 113.51 25.8626V25.6208C113.51 24.7957 114.093 24.696 115.158 24.696H116.138C116.933 24.696 117.218 24.7808 117.432 25.1308H117.447V24.4478C117.447 23.7944 117.035 23.7075 116.096 23.7075H115.2C114.432 23.7075 114.284 23.892 114.284 24.1911V24.3184H113.673V24.1402C113.673 23.4805 114.093 23.209 115.188 23.209H116.155C117.292 23.209 118.06 23.3787 118.06 24.4605V26.8914H117.449V26.5287L117.447 26.5308ZM117.447 25.7566C117.447 25.2581 117.006 25.1944 116.068 25.1944H115.13C114.341 25.1944 114.121 25.3069 114.121 25.7629V25.8753C114.121 26.2805 114.263 26.4523 115.101 26.4523H115.911C117.018 26.4523 117.447 26.3738 117.447 25.9199V25.7566Z" fill="#ABABAB"/>
<path id="Vector_18" d="M118.976 24.6785C118.976 23.3633 119.901 23.2148 120.794 23.2148H121.816C122.953 23.2148 123.401 23.6773 123.401 24.443V24.5427H122.832V24.4579C122.832 23.8533 122.434 23.7112 121.823 23.7112H120.701C120.126 23.7112 119.585 23.7982 119.585 24.6997V25.4612C119.585 26.2715 120.083 26.4561 120.822 26.4561H121.852C122.421 26.4561 122.898 26.2864 122.898 25.6967V25.5758H123.467V25.6818C123.467 26.5982 123.013 26.9545 121.876 26.9545H120.497C119.95 26.9545 118.976 26.8061 118.976 25.4909V24.6806V24.6785Z" fill="#ABABAB"/>
<path id="Vector_19" d="M124.733 23.7677H123.938V23.2692H124.733V22.4102H125.344V23.2692H127.766V23.7677H125.344V25.5708C125.344 26.2474 125.579 26.4511 126.248 26.4511H126.438C127.249 26.4511 127.376 26.2814 127.376 25.5199V25.2505H127.872V25.6492C127.872 26.3747 127.8 26.9496 126.479 26.9496H126.146C125.002 26.9496 124.731 26.3959 124.731 25.8062V23.7677H124.733Z" fill="#ABABAB"/>
<path id="Vector_20" d="M128.488 25.6436H129.056V25.8218C129.056 26.2694 129.29 26.4539 129.915 26.4539H131.222C132.138 26.4539 132.429 26.4179 132.429 25.877V25.8494C132.429 25.5015 132.329 25.3106 131.597 25.3106H129.714C128.855 25.3106 128.534 25.0327 128.534 24.3433V24.1312C128.534 23.5415 128.87 23.2148 130.376 23.2148H131.313C132.692 23.2148 132.883 23.6115 132.883 24.1248V24.3158H132.314V24.2797C132.314 23.7261 131.945 23.7112 131.277 23.7112H130.21C129.336 23.7112 129.145 23.7982 129.145 24.2076V24.3433C129.145 24.6424 129.245 24.8121 129.883 24.8121H131.498C132.414 24.8121 133.04 24.9054 133.04 25.8854V25.9003C133.04 26.9164 132.102 26.9524 131.356 26.9524H130.233C129.332 26.9524 128.486 26.9524 128.486 25.8642V25.6436H128.488Z" fill="#ABABAB"/>
</g>
<g id="Group_2">
<path id="Vector_21" d="M28.517 6.40837H25.7064C22.6731 6.40837 21.9582 6.89837 21.78 9.48625H32.5112V8.72686C32.5112 7.56655 31.6415 6.40625 28.5191 6.40625L28.517 6.40837Z" fill="#0078AE"/>
<path id="Vector_22" d="M28.9645 3.21094H25.456C20.8063 3.21094 17.4124 4.32457 17.4124 9.11639V12.3109C17.4124 17.1028 20.8063 18.2164 25.456 18.2164H28.9645C33.6142 18.2164 37.0081 17.1049 37.0081 12.3109V9.11639C37.0081 4.32457 33.6142 3.21094 28.9645 3.21094ZM34.4287 11.0488H21.7799V11.7637C21.7799 14.3515 23.0293 15.0218 26.3766 15.0218H29.009C31.4187 15.0218 32.4008 14.71 32.5111 12.9685H34.4308V13.1912C34.4308 15.8003 32.2672 16.5831 28.6972 16.5831H25.2163C22.7175 16.5831 19.8624 16.1143 19.8624 11.9206V9.44518C19.8624 5.3173 22.7175 4.84851 25.439 4.84851H28.5169C31.9533 4.84851 34.4287 5.71821 34.4287 9.77821V11.0509V11.0488Z" fill="#0078AE"/>
</g>
</g>
</g>
<defs>
<clipPath id="clip0_476_242">
<rect width="132.364" height="28" fill="white" transform="translate(0.758789 0.273438)"/>
</clipPath>
</defs>
</svg>
