<svg width="88" height="29" viewBox="0 0 88 29" fill="none" xmlns="http://www.w3.org/2000/svg">
<g id="Betsoft" style="mix-blend-mode:luminosity">
<g id="Group">
<path id="Vector" d="M9.17663 0.327053C11.7428 0.457843 14.9585 -0.39906 16.8437 1.87399C18.4267 3.4976 17.8494 5.90144 17.9531 7.93545C17.8404 9.83868 18.341 11.9043 17.3849 13.6587C14.6789 13.9699 11.9052 13.7714 9.17212 13.7579C9.21722 9.28395 9.20369 4.8055 9.17663 0.327053ZM12.248 3.3172C12.1758 6.49225 12.266 9.67181 12.1983 12.8514C13.2266 12.9235 14.7781 12.91 14.9089 11.566C14.9269 9.15316 15.0351 6.72677 14.8367 4.32744C14.3677 3.31269 13.1905 3.35328 12.248 3.3172ZM20.4201 0.327053C23.0449 0.295483 25.6743 0.304503 28.3036 0.327053C28.2856 1.34181 28.2811 2.35205 28.2946 3.3623C26.689 3.38936 25.079 3.38034 23.4689 3.38034C23.4644 6.52382 23.5275 9.67181 23.4238 12.8153C25.0519 12.8604 26.6755 12.8469 28.2991 12.8333C28.3126 13.0633 28.3397 13.5189 28.3577 13.7489C25.7104 13.8346 23.063 13.7669 20.4156 13.7489C20.4562 9.27493 20.4472 4.80099 20.4201 0.327053ZM30.3827 0.331563C33.3097 0.304503 36.2367 0.295483 39.1637 0.327053C39.1457 1.3373 39.1502 2.34754 39.1683 3.35779C38.2482 3.37583 37.3327 3.38034 36.4171 3.38485C36.4352 6.83952 36.3901 10.2942 36.4442 13.7489C35.4294 13.7669 34.4147 13.7669 33.3999 13.7534C33.445 10.2987 33.4135 6.83952 33.4315 3.38485C32.4122 3.38485 31.393 3.38034 30.3737 3.3623C30.3872 2.35205 30.3873 1.34181 30.3827 0.331563ZM9.18114 28.208C9.22173 23.7927 9.18565 19.3729 9.19918 14.953C11.9954 14.9801 14.7961 14.9756 17.5923 14.9576C18.8596 17.3839 18.1083 20.2271 18.2824 22.832C18.4267 24.9978 17.5021 27.3736 15.3914 28.1494C13.3258 28.3252 11.2512 28.1899 9.18114 28.208ZM12.2074 15.9227C12.284 19.0797 12.248 22.2412 12.2209 25.3982C13.2582 25.3757 14.7375 25.6328 15.1569 24.3564C15.2606 21.8985 15.2336 19.4225 15.1795 16.9645C14.742 15.6972 13.2807 15.9227 12.2074 15.9227ZM20.375 14.9891C23.0855 14.9215 25.796 14.9034 28.5021 15.0027C28.4389 15.2236 28.3081 15.6656 28.2405 15.8821C26.6439 15.9858 25.0429 15.8956 23.4463 15.9362C23.514 19.0752 23.523 22.2187 23.4373 25.3577C25.0744 25.4028 26.7116 25.3622 28.3487 25.4298C28.3036 26.3544 28.2946 27.2789 28.2901 28.208C25.6607 28.2305 23.0314 28.2531 20.4066 28.1945C20.4427 23.7927 20.4968 19.3864 20.375 14.9891ZM33.3594 14.9711C34.4012 14.9395 35.443 14.9395 36.4848 14.9756C36.3495 19.3819 36.4217 23.7972 36.4352 28.208C35.4204 28.226 34.4057 28.226 33.3909 28.208C33.4135 23.7972 33.4811 19.3819 33.3594 14.9711Z" fill="white"/>
</g>
<g id="Group_2">
<path id="Vector_2" d="M41.1889 5.23901C41.0039 2.94341 42.7674 0.674866 45.0539 0.359165C47.3495 -0.0557569 49.7038 1.65805 50.1457 3.91306C50.2901 4.96389 50.2134 6.02826 50.2134 7.0836H47.2142C47.0834 5.92453 47.6833 4.21072 46.3844 3.56128C45.523 2.98851 44.2872 3.7507 44.2466 4.72035C44.2376 6.52887 44.0437 8.37798 44.427 10.1594C44.8329 11.7695 46.2807 12.7076 47.4262 13.7675C45.7755 13.79 44.1249 13.7584 42.4742 13.7675C40.6341 11.2915 41.2881 8.09836 41.1889 5.23901ZM51.9498 4.75192C51.9227 2.23984 54.3491 0.0299335 56.8521 0.323085C59.0981 0.494465 61.0239 2.56456 60.9698 4.82408C60.9878 7.80521 60.9563 10.7863 60.9743 13.7675C59.955 13.7675 58.9403 13.7629 57.9255 13.7494C57.9436 10.7593 57.9751 7.77364 57.93 4.788C57.912 3.18695 55.5578 2.90733 54.994 4.34151C54.8001 7.47146 54.9354 10.6195 54.9264 13.7539C53.9251 13.7675 52.9194 13.7675 51.9137 13.7539C51.9768 10.7548 51.9137 7.75109 51.9498 4.75192ZM62.9813 0.314065C65.5926 0.336615 68.2039 0.259944 70.8152 0.336615C71.0903 1.29274 70.8693 2.36161 70.9369 3.35833C69.2908 3.3899 67.6446 3.35382 65.9985 3.42147C66.0526 6.55593 66.0345 9.69039 66.003 12.8294C67.6491 12.8519 69.2953 12.8474 70.946 12.8429C70.9279 13.1631 70.9054 13.4878 70.8828 13.808C68.249 13.781 65.6106 13.7765 62.9767 13.7629C62.9813 9.27998 62.9813 4.79702 62.9813 0.314065ZM71.9968 0.341125C74.9103 0.296025 77.8237 0.282495 80.7327 0.336615C80.9627 1.31529 80.7958 2.35259 80.85 3.34931C79.9299 3.37186 79.0144 3.38088 78.0988 3.3899C78.1169 6.84908 78.0988 10.3083 78.1079 13.772C77.0796 13.772 76.0558 13.7629 75.032 13.7449C75.0816 10.2902 75.0411 6.83555 75.0591 3.38539C74.0398 3.38539 73.0161 3.37637 71.9968 3.35382C72.0103 2.35259 72.0148 1.34686 71.9968 0.341125ZM0.882812 9.18978C2.98899 10.633 4.56299 12.7121 6.43916 14.4349C4.5224 16.1307 2.8582 18.0971 0.882812 19.7297V9.18978ZM81.9324 14.3763C83.896 12.5394 85.2039 11.2301 87.4752 9.14017V19.6981C85.4998 18.061 83.8085 16.1172 81.9324 14.3763ZM43.7821 14.9536C45.4418 14.9536 47.1105 14.8724 48.7657 14.9942C50.7771 17.2537 50.0375 20.5144 50.1818 23.2746C50.3712 25.286 49.2302 27.3742 47.3315 28.1319C45.7124 28.2897 43.719 28.5874 42.5238 27.1983C40.9092 25.8543 41.1167 23.6309 41.0761 21.7502C42.1089 21.7276 43.1417 21.7231 44.1745 21.7367C44.2331 22.8416 43.6784 24.2983 44.7247 25.1011C45.6808 25.94 47.2954 24.9794 47.1466 23.7526C47.115 22.0659 47.2909 20.3431 46.9481 18.6789C46.5513 16.9786 45.0269 16.0044 43.7821 14.9536ZM62.9542 14.9581H70.955L70.9911 15.921C68.8267 15.921 67.6852 15.9232 66.03 15.9232C66.0571 20.0228 66.021 24.1225 66.0345 28.2221C65.0153 28.2266 63.9915 28.2266 62.9767 28.2266C62.9677 23.8022 63.0083 19.3824 62.9542 14.9581ZM51.8731 14.9716C52.9014 14.9446 53.9342 14.9446 54.967 14.9716C54.8452 17.8896 54.9038 20.8076 54.8993 23.7256C54.6648 25.0831 56.5996 26.0167 57.4881 24.9343C58.1014 24.4066 57.9165 23.5497 57.9571 22.8416C57.921 20.2123 57.9751 17.5829 57.912 14.9581C58.9358 14.9491 59.955 14.9446 60.9788 14.9446C60.9472 17.8671 60.9788 20.7896 60.9608 23.712C61.042 25.5837 59.8603 27.4193 58.133 28.1319C56.6266 28.2446 54.7911 28.6054 53.5869 27.4418C52.6263 26.6526 51.9362 25.4709 51.9452 24.2036C51.8821 21.1278 52.0219 18.0475 51.8731 14.9716ZM75.023 28.1905C75.0862 23.7752 75.0501 19.3554 75.0456 14.9355C76.0693 14.9446 77.0931 14.9446 78.1169 14.9491C78.0898 19.3779 78.1079 23.8022 78.1034 28.2311C77.0751 28.2311 76.0513 28.2221 75.023 28.1905Z" fill="#FAE307"/>
</g>
</g>
</svg>
