<svg width="53" height="11" viewBox="0 0 53 11" fill="none" xmlns="http://www.w3.org/2000/svg">
<g style="mix-blend-mode:luminosity">
<path d="M7.99725 0.181641H0.272705V10.0165H7.99725V0.181641Z" fill="#FFCC29"/>
<path d="M6.11038 5.65175C6.02953 5.51378 5.92049 5.39492 5.79058 5.30313C5.66066 5.21135 5.51288 5.14876 5.35713 5.11957C5.61444 5.00664 5.82949 4.81353 5.97102 4.56831C6.09651 4.3096 6.16097 4.0249 6.15934 3.73665C6.17417 3.48492 6.13083 3.23315 6.03276 3.00136C5.93469 2.76957 5.78459 2.56415 5.5944 2.40143C5.21778 2.10005 4.7018 1.95508 4.03518 1.95508H2.14453V8.51677L4.312 8.50341C4.96356 8.50341 5.47388 8.32983 5.82979 8.0151C6.1857 7.70037 6.3533 7.22541 6.3533 6.59404C6.36502 6.26264 6.28057 5.93503 6.11038 5.65175ZM3.95609 2.9813C4.07282 2.97141 4.19031 2.98539 4.3016 3.02242C4.41288 3.05945 4.51568 3.11876 4.60388 3.19684C4.75735 3.38538 4.83352 3.62641 4.81667 3.87018C4.8254 3.98483 4.81104 4.10008 4.77446 4.20894C4.73788 4.31781 4.67985 4.418 4.60388 4.50345C4.5266 4.58246 4.4335 4.64378 4.33085 4.68326C4.2282 4.72274 4.11839 4.73948 4.00882 4.73235H3.3196V2.9813H3.95609ZM4.80726 7.2731C4.72971 7.3524 4.63634 7.41401 4.5334 7.45381C4.43045 7.49361 4.3203 7.51069 4.21031 7.5039H3.3196V5.62314H4.29882C4.40272 5.61678 4.50652 5.63704 4.60065 5.68204C4.69478 5.72705 4.7762 5.79535 4.83739 5.88065C4.9627 6.09816 5.02167 6.34837 5.00687 6.59976C5.02237 6.84091 4.95224 7.07973 4.80914 7.2731H4.80726Z" fill="white"/>
<path d="M15.865 10.0013H15.4111V0.181641H15.865V10.0013Z" fill="white"/>
<path d="M23.7438 10.0013H23.2919V0.181641H23.7438V10.0013Z" fill="white"/>
<path d="M31.6115 10.0013H31.1577V0.181641H31.6115V10.0013Z" fill="white"/>
<path d="M39.4924 10.0013H39.0536V0.181641H39.4924V10.0013Z" fill="white"/>
<path d="M47.3864 10.0013H46.9326V0.181641H47.3864V10.0013Z" fill="white"/>
<path d="M13.6805 7.4298C13.5079 7.72998 13.2588 7.97767 12.9593 8.14701C12.5719 8.37293 12.1292 8.48274 11.6826 8.46365C11.3806 8.47644 11.0793 8.42708 10.7967 8.31856C10.5142 8.21004 10.2563 8.04462 10.0386 7.83228C9.62808 7.41645 9.41528 6.82704 9.41528 6.0507V4.11463C9.41528 3.35164 9.61364 2.7635 10.0103 2.35022C10.2131 2.13865 10.4585 1.97392 10.7299 1.86725C11.0013 1.76059 11.2922 1.71453 11.5828 1.7322C12.2494 1.7322 12.7465 1.90387 13.1005 2.23386C13.4546 2.56385 13.6391 3.03881 13.6655 3.65683L13.6504 3.68545H12.803C12.7879 3.26771 12.69 2.95298 12.4904 2.75079C12.3721 2.64192 12.2336 2.55802 12.0829 2.50398C11.9322 2.44994 11.7725 2.42685 11.6129 2.43605C11.4335 2.42782 11.2548 2.46256 11.0912 2.53747C10.9276 2.61238 10.7837 2.72533 10.6713 2.86714C10.4441 3.15326 10.3305 3.56909 10.3305 4.11463V6.06787C10.3305 6.62867 10.4585 7.05785 10.7071 7.34588C10.8289 7.49071 10.9814 7.60587 11.1532 7.68282C11.325 7.75976 11.5118 7.7965 11.6995 7.79032C11.9502 7.80412 12.1999 7.74944 12.4226 7.632C12.5782 7.5312 12.7074 7.39377 12.7992 7.23143V5.72262H11.6976V5.06264H13.7088V7.4298H13.6805Z" fill="white"/>
<path d="M18.699 6.12462H20.343L19.5502 3.26342H19.522L18.699 6.12462ZM20.5558 6.84183H18.5013L18.0324 8.49369H17.1116L19.1039 1.94727H19.9814L21.9531 8.49369H21.0303L20.5633 6.84183H20.5558Z" fill="white"/>
<path d="M25.9283 1.94727L27.4442 7.28817H27.4724L28.9902 1.94727H30.1521V8.49369H29.2595V5.98156L29.3292 3.46942L29.301 3.45416L27.7568 8.49369H27.1599L25.6006 3.46942H25.5874L25.659 5.98156V8.49369H24.7645V1.94727H25.9283Z" fill="white"/>
<path d="M35.7506 8.49369H34.858V1.94727H35.7506V8.49369Z" fill="white"/>
<path d="M45.46 8.49369H44.5524L42.1005 3.62774H42.0723V8.49369H41.1797V1.94727H42.0723L44.5241 6.79986H44.5524V1.94727H45.46V8.49369Z" fill="white"/>
<path d="M52.9999 7.47548C52.8224 7.77245 52.5737 8.01916 52.2768 8.19269C51.8895 8.41699 51.4478 8.5267 51.0019 8.50933C50.701 8.52333 50.4004 8.47583 50.1179 8.36965C49.8355 8.26347 49.577 8.1008 49.358 7.89131C48.9456 7.47548 48.7328 6.88607 48.7328 6.11164V4.14313C48.7328 3.38015 48.9318 2.79201 49.3297 2.37873C49.5313 2.16896 49.774 2.00425 50.0423 1.89519C50.3105 1.78612 50.5982 1.73512 50.8871 1.74545C51.5537 1.74545 52.0508 1.91903 52.4049 2.24902C52.7589 2.57901 52.9434 3.05206 52.9698 3.67008L52.9547 3.69869H52.1055C52.1187 3.35932 52.0073 3.02701 51.7929 2.76594C51.535 2.54304 51.2017 2.43037 50.8633 2.45173C50.5249 2.47308 50.208 2.62679 49.9794 2.88039C49.7509 3.16778 49.6373 3.58425 49.6386 4.12978V6.08303C49.6386 6.64192 49.7666 7.073 50.0152 7.35912C50.1358 7.50448 50.287 7.62055 50.4578 7.6988C50.6286 7.77704 50.8146 7.81545 51.0019 7.81119C51.2525 7.82308 51.5017 7.76851 51.7251 7.65287C51.8807 7.55136 52.0099 7.4133 52.1017 7.2504V5.75113H50.9963V5.09115H52.9999V7.47548Z" fill="white"/>
</g>
</svg>
