<svg width="117" height="23" viewBox="0 0 117 23" fill="none" xmlns="http://www.w3.org/2000/svg">
<g id="BGaming" style="mix-blend-mode:luminosity">
<g id="&#208;&#161;&#208;&#187;&#208;&#190;&#208;&#185; 2">
<g id="&#208;&#161;&#208;&#187;&#208;&#190;&#208;&#185; 1">
<path id="Vector" d="M17.536 0.318359H0.541992V21.9551H17.536V0.318359Z" fill="#FFCC29"/>
<path id="Vector_2" d="M13.3848 12.3534C13.2069 12.0499 12.967 11.7884 12.6812 11.5864C12.3954 11.3845 12.0703 11.2468 11.7276 11.1826C12.2937 10.9341 12.7668 10.5093 13.0782 9.96981C13.3543 9.40064 13.4961 8.77431 13.4925 8.14017C13.5251 7.58636 13.4298 7.03247 13.214 6.52253C12.9983 6.0126 12.668 5.56067 12.2496 5.20267C11.4211 4.53963 10.2859 4.2207 8.81934 4.2207H4.65991V18.6564L9.42834 18.627C10.8618 18.627 11.9845 18.2452 12.7675 17.5528C13.5505 16.8603 13.9192 15.8154 13.9192 14.4264C13.945 13.6973 13.7592 12.9766 13.3848 12.3534ZM8.64534 6.47838C8.90214 6.45663 9.16064 6.4874 9.40546 6.56886C9.65029 6.65032 9.87644 6.78081 10.0705 6.95258C10.4081 7.36737 10.5757 7.89762 10.5386 8.43392C10.5578 8.68615 10.5262 8.93971 10.4458 9.17921C10.3653 9.4187 10.2376 9.63914 10.0705 9.82713C9.90047 10.0009 9.69564 10.1358 9.46982 10.2227C9.24399 10.3096 9.00241 10.3464 8.76134 10.3307H7.24506V6.47838H8.64534ZM10.5179 15.9203C10.3473 16.0948 10.1419 16.2303 9.91541 16.3179C9.68893 16.4055 9.4466 16.4431 9.20463 16.4281H7.24506V12.2904H9.39934C9.62792 12.2764 9.85629 12.321 10.0634 12.42C10.2705 12.519 10.4496 12.6693 10.5842 12.857C10.8599 13.3355 10.9896 13.8859 10.9571 14.439C10.9912 14.9695 10.8369 15.4949 10.5221 15.9203H10.5179Z" fill="white"/>
<path id="Vector_3" d="M34.8449 21.9216H33.8464V0.318359H34.8449V21.9216Z" fill="white"/>
<path id="Vector_4" d="M52.1786 21.9216H51.1843V0.318359H52.1786V21.9216Z" fill="white"/>
<path id="Vector_5" d="M69.4874 21.9216H68.489V0.318359H69.4874V21.9216Z" fill="white"/>
<path id="Vector_6" d="M86.8254 21.9216H85.8601V0.318359H86.8254V21.9216Z" fill="white"/>
<path id="Vector_7" d="M104.192 21.9216H103.194V0.318359H104.192V21.9216Z" fill="white"/>
<path id="Vector_8" d="M30.0391 16.2655C29.6592 16.9259 29.1112 17.4708 28.4524 17.8433C27.6001 18.3404 26.626 18.5819 25.6435 18.54C24.9793 18.5681 24.3163 18.4595 23.6947 18.2208C23.073 17.982 22.5057 17.6181 22.0268 17.1509C21.1237 16.2361 20.6555 14.9394 20.6555 13.2315V8.9721C20.6555 7.29353 21.0919 5.99963 21.9647 5.0904C22.4107 4.62496 22.9507 4.26254 23.5477 4.02788C24.1447 3.79323 24.7847 3.69188 25.4239 3.73076C26.8905 3.73076 27.9842 4.10844 28.7631 4.83442C29.5419 5.5604 29.9479 6.60531 30.0059 7.96495L29.9728 8.0279H28.1085C28.0754 7.10888 27.8599 6.41647 27.4208 5.97165C27.1605 5.73215 26.8558 5.54756 26.5243 5.42868C26.1928 5.3098 25.8413 5.259 25.4902 5.27924C25.0956 5.26112 24.7024 5.33756 24.3425 5.50236C23.9825 5.66715 23.6661 5.91564 23.4188 6.22763C22.9189 6.8571 22.6689 7.77192 22.6689 8.9721V13.2692C22.6689 14.503 22.9507 15.4472 23.4975 16.0808C23.7656 16.3995 24.101 16.6528 24.479 16.8221C24.857 16.9914 25.2677 17.0722 25.6808 17.0586C26.2323 17.089 26.7818 16.9687 27.2717 16.7103C27.614 16.4886 27.8983 16.1862 28.1002 15.8291V12.5097H25.6767V11.0577H30.1012V16.2655H30.0391Z" fill="white"/>
<path id="Vector_9" d="M41.0798 13.3953H44.6965L42.9524 7.10061H42.8903L41.0798 13.3953ZM45.1647 14.9731H40.6448L39.6133 18.6072H37.5874L41.9705 4.20508H43.9011L48.2387 18.6072H46.2087L45.1813 14.9731H45.1647Z" fill="white"/>
<path id="Vector_10" d="M56.9844 4.20508L60.3194 15.9551H60.3815L63.7206 4.20508H66.2768V18.6072H64.3131V13.0805L64.4664 7.55383L64.4042 7.52026L61.0071 18.6072H59.6938L56.2635 7.55383H56.2345L56.3919 13.0805V18.6072H54.4241V4.20508H56.9844Z" fill="white"/>
<path id="Vector_11" d="M78.5933 18.6072H76.6296V4.20508H78.5933V18.6072Z" fill="white"/>
<path id="Vector_12" d="M99.9541 18.6072H97.9572L92.5632 7.90213H92.5011V18.6072H90.5374V4.20508H92.5011L97.8951 14.8808H97.9572V4.20508H99.9541V18.6072Z" fill="white"/>
<path id="Vector_13" d="M116.542 16.3648C116.151 17.0181 115.604 17.5609 114.951 17.9427C114.099 18.4361 113.127 18.6775 112.146 18.6393C111.484 18.6701 110.823 18.5656 110.202 18.332C109.58 18.0984 109.012 17.7405 108.53 17.2796C107.622 16.3648 107.154 15.0681 107.154 13.3644V9.03365C107.154 7.35507 107.592 6.06118 108.468 5.15195C108.911 4.69047 109.445 4.32811 110.035 4.08816C110.625 3.84822 111.258 3.73601 111.894 3.75873C113.36 3.75873 114.454 4.14061 115.233 4.86659C116.012 5.59257 116.418 6.63329 116.476 7.99293L116.443 8.05588H114.574C114.603 7.30926 114.358 6.57817 113.886 6.00382C113.319 5.51344 112.586 5.26557 111.841 5.31255C111.097 5.35953 110.4 5.69768 109.897 6.25561C109.394 6.88787 109.144 7.80409 109.147 9.00427V13.3014C109.147 14.531 109.429 15.4794 109.976 16.1088C110.241 16.4286 110.574 16.684 110.949 16.8561C111.325 17.0282 111.734 17.1127 112.146 17.1034C112.698 17.1295 113.246 17.0095 113.737 16.7551C114.08 16.5318 114.364 16.228 114.566 15.8696V12.5712H112.134V11.1193H116.542V16.3648Z" fill="white"/>
</g>
</g>
</g>
</svg>
