<svg width="60" height="41" viewBox="0 0 60 41" fill="none" xmlns="http://www.w3.org/2000/svg">
<g id="big" style="mix-blend-mode:luminosity" clip-path="url(#clip0_461_558)">
<g id="&#208;&#161;&#208;&#187;&#208;&#190;&#208;&#185; 2">
<g id="&#208;&#161;&#208;&#187;&#208;&#190;&#208;&#185; 1">
<path id="Vector" d="M29.7707 29.1702C37.6705 29.1702 44.0745 22.7662 44.0745 14.8664C44.0745 6.96656 37.6705 0.5625 29.7707 0.5625C21.8709 0.5625 15.4668 6.96656 15.4668 14.8664C15.4668 22.7662 21.8709 29.1702 29.7707 29.1702Z" fill="white"/>
<path id="Vector_2" d="M10.3773 33.3471C10.6232 33.5572 10.8817 33.782 11.1422 34.0006C10.9783 34.1225 10.7997 34.2317 10.6379 34.3536C10.7957 34.62 10.8844 34.9215 10.8962 35.2308C10.9079 35.5401 10.8423 35.8475 10.7051 36.125C10.5509 36.3841 10.3313 36.5981 10.0684 36.7456C9.80545 36.8931 9.50836 36.969 9.20688 36.9656C8.94842 36.9782 8.67524 36.8689 8.42938 37.0202C8.32222 37.0601 8.15831 37.2304 8.33482 37.306C8.53703 37.3557 8.74882 37.3506 8.94842 37.2913C9.53469 37.182 10.2092 37.1694 10.7199 37.5014C11.3503 37.9511 11.2641 39.0123 10.6232 39.4074C9.5473 40.1029 8.07636 39.9789 7.02779 39.2708C7.25893 38.9997 7.49008 38.7265 7.72123 38.468C8.01095 38.7294 8.37319 38.8967 8.76005 38.9477C9.1469 38.9988 9.54013 38.9312 9.88772 38.7538C9.92624 38.7333 9.96034 38.7054 9.98806 38.6717C10.0158 38.6379 10.0366 38.5991 10.0493 38.5573C10.062 38.5155 10.0663 38.4717 10.062 38.4282C10.0577 38.3848 10.0449 38.3426 10.0243 38.3041C9.98065 38.2297 9.91333 38.172 9.83308 38.1402C9.20268 37.9511 8.57228 38.2369 7.94187 38.1276C7.60145 38.1003 7.21901 37.8965 7.19169 37.514C7.12445 37.1064 7.47958 36.8185 7.79268 36.642C7.60419 36.5276 7.44128 36.3757 7.31409 36.1956C7.18691 36.0155 7.09817 35.8112 7.05342 35.5953C7.00867 35.3794 7.00886 35.1567 7.05398 34.9409C7.0991 34.7251 7.18818 34.5209 7.31567 34.341C7.92926 33.5362 9.09971 33.4542 9.97177 33.8367L10.3773 33.3471ZM8.59329 34.5259C8.06165 34.7361 7.9797 35.522 8.36214 35.8897C8.48903 35.9997 8.64287 36.074 8.80791 36.105C8.97296 36.136 9.14328 36.1226 9.30144 36.0662C9.77845 35.8897 9.90243 35.1942 9.62925 34.8054C9.51339 34.6488 9.348 34.536 9.15994 34.4853C8.97188 34.4345 8.77218 34.4489 8.59329 34.5259ZM58.0044 33.8178L58.4246 33.3555C58.6705 33.5656 58.929 33.7904 59.1874 34.009C59.0235 34.1309 58.847 34.2401 58.6831 34.362C58.8252 34.6001 58.9113 34.8675 58.935 35.1438C58.9587 35.4201 58.9192 35.6981 58.8197 35.9569C58.7141 36.2114 58.5444 36.4342 58.3272 36.6036C58.1099 36.773 57.8524 36.8832 57.5799 36.9236C57.2948 36.9509 57.0077 36.9509 56.7225 36.9236C56.5586 36.9782 56.3128 37.0202 56.3023 37.2367C56.4641 37.4153 56.7099 37.3333 56.9138 37.306C57.5 37.182 58.1536 37.1568 58.6999 37.4699C59.3303 37.8376 59.3303 38.8589 58.7945 39.3086C58.2404 39.7272 57.5511 39.9263 56.8591 39.8675C56.2155 39.8408 55.5926 39.6324 55.0625 39.2666C55.2936 38.9955 55.5248 38.737 55.7433 38.4638C55.944 38.6386 56.1773 38.7719 56.4298 38.8559C56.6822 38.94 56.9489 38.9731 57.2143 38.9535C57.5148 38.9135 57.8951 38.8862 58.0716 38.5857C58.0876 38.5316 58.0911 38.4745 58.0817 38.4188C58.0724 38.3631 58.0505 38.3102 58.0177 38.2642C57.9849 38.2183 57.942 38.1804 57.8924 38.1534C57.8427 38.1265 57.7876 38.1112 57.7312 38.1087C57.0651 38.0142 56.3695 38.2999 55.716 38.0688C55.5701 38.0335 55.4407 37.9494 55.349 37.8306C55.2573 37.7118 55.2089 37.5653 55.2117 37.4153C55.197 37.0475 55.5395 36.8017 55.8106 36.6378C55.6221 36.5234 55.4592 36.3715 55.332 36.1914C55.2048 36.0113 55.1161 35.807 55.0713 35.5911C55.0265 35.3752 55.0267 35.1524 55.0719 34.9366C55.117 34.7209 55.2061 34.5167 55.3335 34.3368C55.9745 33.5236 57.147 33.429 58.0044 33.8094V33.8178ZM56.628 34.5259C56.0417 34.7592 56.0291 35.7111 56.5607 35.9969C56.9138 36.1881 57.4454 36.1482 57.6766 35.7867C57.7794 35.6164 57.8256 35.418 57.8086 35.2198C57.7916 35.0216 57.7123 34.8338 57.582 34.6835C57.4546 34.5689 57.2971 34.4932 57.128 34.4652C56.959 34.4373 56.7854 34.4584 56.628 34.5259ZM19.8334 34.0636C20.5268 33.4101 21.6847 33.4774 22.4075 34.0636C22.7332 33.7983 23.1324 33.6391 23.5513 33.6075C23.9703 33.5759 24.3888 33.6735 24.7505 33.8871C24.9459 34.0323 25.1026 34.2231 25.207 34.4429C25.3114 34.6627 25.3603 34.9048 25.3494 35.1479V38.1318H24.2609V35.4211C24.2758 35.2826 24.2602 35.1426 24.2152 35.0108C24.1702 34.8791 24.0968 34.7587 24.0004 34.6583C23.8976 34.586 23.7813 34.5351 23.6585 34.5089C23.5356 34.4827 23.4087 34.4817 23.2854 34.5058C23.1621 34.53 23.0449 34.5788 22.941 34.6495C22.8371 34.7201 22.7486 34.811 22.6807 34.9168C22.6534 35.9927 22.6807 37.0559 22.666 38.1318H21.5754C21.5754 37.1379 21.5901 36.1419 21.5754 35.1479C21.5901 34.5616 20.8399 34.3305 20.405 34.589C20.2411 34.6982 19.9847 34.8201 19.9847 35.0534C19.97 36.0746 19.9847 37.0959 19.9847 38.1318H18.892V33.6854H19.6422L19.8334 34.0636ZM26.3308 34.3893C27.1356 33.45 28.6422 33.3555 29.6131 34.1036C29.9169 34.3558 30.139 34.6925 30.2512 35.0711C30.3634 35.4497 30.3607 35.8531 30.2435 36.2301H26.9023C26.9113 36.4449 26.9816 36.6526 27.1049 36.8287C27.2281 37.0049 27.3992 37.142 27.5979 37.2241C27.893 37.3342 28.2112 37.3682 28.523 37.3231C28.8348 37.2779 29.1301 37.155 29.3819 36.9656C29.5185 37.2241 29.6677 37.4972 29.8022 37.7683C29.1718 38.2054 28.3586 38.2453 27.6084 38.1886C27.2291 38.1505 26.8683 38.0063 26.5672 37.7725C26.2662 37.5387 26.0371 37.2248 25.9063 36.8668C25.6352 36.0305 25.7319 35.0365 26.3308 34.3809V34.3893ZM27.6378 34.5532C27.2575 34.6772 27.0389 35.0576 26.9444 35.44H29.2327C29.1655 35.1542 29.0961 34.8663 28.8503 34.6898C28.6721 34.576 28.4705 34.5039 28.2606 34.4788C28.0507 34.4537 27.8378 34.4763 27.6378 34.5448V34.5532ZM37.0939 33.8598C37.8769 33.5452 38.7466 33.5206 39.5461 33.7905C39.7717 33.8817 39.9696 34.0303 40.1199 34.2217C40.2703 34.413 40.3681 34.6403 40.4035 34.8811C40.5674 35.6564 40.4434 36.4339 40.5254 37.2093C40.5546 37.4688 40.6753 37.7095 40.8658 37.8881C40.7674 38.0152 40.6328 38.1094 40.4796 38.1582C40.3265 38.207 40.1622 38.2081 40.0084 38.1613C39.7865 38.071 39.6065 37.9008 39.5041 37.6842C39.181 38.0037 38.746 38.1846 38.2916 38.1886C38.0512 38.2108 37.8087 38.1834 37.5792 38.1082C37.3497 38.0331 37.138 37.9117 36.9573 37.7515C36.5895 37.3838 36.537 36.7849 36.6841 36.2953C36.8312 35.8056 37.283 35.4904 37.76 35.3265C38.2936 35.161 38.8587 35.1236 39.4095 35.2173C39.4051 35.0805 39.3637 34.9475 39.2897 34.8324C39.2157 34.7173 39.1119 34.6245 38.9893 34.5637C38.4439 34.3864 37.8524 34.4155 37.3271 34.6457C37.2431 34.3956 37.1611 34.1225 37.0939 33.8514V33.8598ZM37.9911 36.207C37.6108 36.4381 37.5835 37.1484 38.0332 37.3102C38.2235 37.377 38.4274 37.3959 38.6268 37.3651C38.8262 37.3343 39.0149 37.2548 39.1763 37.1337C39.4642 36.8479 39.3864 36.4108 39.4095 36.0305C38.9325 35.9611 38.4009 35.9485 37.9911 36.207ZM42.1686 34.0552C42.8494 33.4017 44.0199 33.4689 44.7302 34.0552C45.0531 33.7903 45.4499 33.6312 45.8665 33.5996C46.283 33.568 46.6992 33.6655 47.0584 33.8787C47.2563 34.0215 47.4149 34.2119 47.5196 34.4323C47.6243 34.6527 47.6716 34.8959 47.6573 35.1395C47.672 36.1335 47.6573 37.1295 47.6573 38.136H46.5814V35.4253C46.595 35.2852 46.579 35.1437 46.5345 35.0102C46.4899 34.8766 46.4179 34.7539 46.323 34.6499C46.2186 34.578 46.101 34.5276 45.977 34.5017C45.8529 34.4757 45.725 34.4748 45.6005 34.4988C45.4761 34.5229 45.3577 34.5715 45.2523 34.6418C45.1469 34.7121 45.0565 34.8027 44.9865 34.9084C44.9592 35.9843 44.9865 37.0475 44.9739 38.1234H43.8833C43.8707 37.1295 43.898 36.1335 43.8707 35.1395C43.8707 34.5532 43.1205 34.3221 42.6855 34.5806C42.5216 34.6898 42.2653 34.8117 42.2653 35.045V38.1234H41.1747V33.6854H41.9249C42.0185 33.8001 42.1001 33.924 42.1686 34.0552ZM51.5953 34.0825C52.1269 33.5509 52.9716 33.4963 53.6525 33.7148C53.9546 33.8269 54.2162 34.0269 54.4034 34.2891C54.5907 34.5513 54.6951 34.8636 54.7031 35.1857C54.7305 36.1671 54.7031 37.1484 54.7179 38.1276H53.6273V35.5136C53.6273 35.171 53.5453 34.776 53.2322 34.5995C52.9838 34.4852 52.7059 34.4513 52.4373 34.5026C52.1688 34.5538 51.9229 34.6876 51.7339 34.8853C51.7192 35.9611 51.7339 37.0391 51.7339 38.115H50.6433V33.6854H51.4334C51.4785 33.8222 51.5347 33.955 51.6016 34.0825H51.5953ZM4.8613 33.6854H6.56339V38.1129H5.46018V34.5259H4.8613C4.87391 34.2591 4.8613 33.9733 4.8613 33.6854ZM16.3599 33.6854H18.062V38.1129H16.9524V34.5259H16.3599V33.6854ZM48.0902 33.6854H49.7923V38.1129H48.7038V34.5259H48.1028C48.1007 34.2464 48.1007 33.9733 48.1007 33.6854H48.0902ZM32.2923 32.5843C32.9741 32.1047 33.8059 31.8869 34.6353 31.9707C35.1911 32.0085 35.7228 32.2128 36.1609 32.557C35.997 32.8427 35.8478 33.1432 35.6839 33.429C35.1396 33.0613 34.484 32.8154 33.8305 32.9793C33.4811 33.0541 33.1611 33.2291 32.9095 33.4829C32.658 33.7367 32.4859 34.0582 32.4142 34.4082C32.2336 35.0873 32.3217 35.8097 32.66 36.4255C33.1896 37.2976 34.4714 37.5287 35.3014 36.9572V35.7573H34.4167V34.8306H36.4319V37.5624C35.7404 38.012 34.9282 38.24 34.1036 38.2159C33.7011 38.2348 33.2991 38.1667 32.9253 38.0162C32.5514 37.8657 32.2144 37.6364 31.9372 37.3438C31.229 36.5958 31.0525 35.4925 31.2017 34.4839C31.3003 33.7316 31.6923 33.0487 32.2923 32.5843ZM0.379124 32.0526C1.00953 32.0379 1.61892 31.998 2.24512 31.998C2.79748 31.9783 3.34166 32.1359 3.79802 32.4477C4.00364 32.6228 4.15428 32.8536 4.23182 33.1123C4.30936 33.3711 4.3105 33.6467 4.2351 33.906C4.1008 34.2507 3.83677 34.5291 3.49962 34.6814C3.71633 34.7445 3.91764 34.8517 4.09087 34.9963C4.2641 35.141 4.4055 35.32 4.50617 35.522C4.76464 36.1208 4.7163 36.8836 4.26241 37.3753C4.0196 37.6165 3.72976 37.8052 3.4109 37.9296C3.09205 38.0539 2.75102 38.1113 2.40903 38.0982C1.72819 38.1129 1.03264 38.0982 0.351807 38.0982L0.379124 32.0526ZM1.50965 32.9247V34.3683C1.92992 34.3809 2.39432 34.4356 2.78937 34.2464C3.23906 34.0363 3.3084 33.305 2.87132 33.0613C2.43424 32.8175 1.97195 32.9247 1.50965 32.9247ZM1.50965 35.2362V37.2262C1.98665 37.2535 2.47627 37.2934 2.92596 37.1316C3.67614 36.8983 3.70346 35.5766 2.95327 35.3454C2.50359 35.171 1.99926 35.2131 1.50965 35.2257V35.2362ZM4.8718 32.0842H6.55288V33.0382H4.85079C4.8613 32.7062 4.87391 32.3783 4.87391 32.0652L4.8718 32.0842ZM11.4889 32.0526H16.0047V33.0193H14.6557V38.115H13.5125V33.0193H11.4889V32.0526ZM16.3662 33.0193V32.0652H18.0472V33.0193H16.3662ZM48.1196 32.0652H49.8238V33.0193H48.1427C48.1133 32.7062 48.1133 32.3783 48.1133 32.0652H48.1196Z" fill="#F83D3D"/>
<path id="Shape" d="M28.5288 0.326328C36.4131 -0.352407 43.3412 5.5797 44.022 13.6152C44.2252 15.9517 43.8675 18.303 42.9786 20.4733C42.0897 22.6437 40.6953 24.5703 38.9116 26.093C36.4253 28.2096 33.2816 29.3978 30.0169 29.4549C26.7523 29.512 23.569 28.4344 21.0102 26.4061C14.7629 21.4617 13.6219 12.2914 18.4739 5.91381C19.6712 4.33658 21.1833 3.02544 22.9143 2.06358C24.6452 1.10171 26.5571 0.510116 28.5288 0.326328ZM28.6381 0.822246C21.0291 1.44845 15.3513 8.25891 15.9565 16.0045C16.5616 23.75 23.2355 29.5498 30.8445 28.9236C38.4535 28.2974 44.1313 21.5184 43.5261 13.7434C43.3561 11.5805 42.6929 9.48527 41.5874 7.61846C40.4819 5.75165 38.9634 4.16288 37.1485 2.97403C34.6272 1.33666 31.6347 0.580045 28.6381 0.822246Z" fill="#E40707"/>
<path id="Shape_2" d="M27.7743 1.55844C34.3725 0.528784 40.6976 4.68735 42.4963 11.2457C43.4882 14.8663 42.9544 18.945 40.8972 22.0886C39.0228 22.9523 36.9046 23.0994 34.8874 23.0069C31.5063 22.8409 28.1967 21.9415 24.8009 21.8491C22.8908 21.7944 20.9239 22.0592 19.1399 22.8409C14.8174 16.8499 16.0845 8.41514 21.9662 4.02122C23.6727 2.73948 25.6666 1.89405 27.7743 1.55844ZM29.7706 1.81691C29.4932 2.64274 29.2368 3.47067 28.9616 4.31541C28.0979 4.31541 27.2342 4.2965 26.3706 4.33432C27.0682 4.84915 27.7659 5.36398 28.4719 5.89562C28.2135 6.72356 27.9382 7.55149 27.6818 8.39623L29.7832 6.85174L31.8845 8.39623C31.6261 7.5683 31.3508 6.71515 31.0944 5.89562C31.7921 5.38079 32.4897 4.86807 33.1958 4.33432C32.3321 4.31541 31.4685 4.33432 30.6027 4.33432C30.2917 3.47067 30.0164 2.64274 29.7706 1.81691ZM23.7607 5.06979C23.6683 5.49006 23.6136 5.91033 23.5212 6.3306L22.2604 6.49661L23.3825 7.12701C23.3089 7.54728 23.2354 7.99067 23.1618 8.38782C23.4749 8.09363 23.7922 7.79944 24.099 7.48634C24.4668 7.69648 24.8345 7.90661 25.2212 8.09363C25.0362 7.70698 24.8534 7.30353 24.6685 6.91688C24.9816 6.62269 25.2989 6.31169 25.5889 6.0175L24.3281 6.18141C24.1179 5.8599 23.933 5.47325 23.7502 5.06979H23.7607ZM35.2278 6.24655L33.967 6.08054C34.278 6.39364 34.5721 6.68573 34.8853 6.97992C34.7024 7.36657 34.5175 7.77003 34.3347 8.15667L35.4442 7.55149C35.7573 7.84357 36.0746 8.15667 36.3814 8.45086C36.2911 8.03059 36.2343 7.58721 36.1608 7.16484C36.5285 6.9547 36.8962 6.74457 37.2829 6.53443L36.0221 6.37053C35.9317 5.95026 35.875 5.50688 35.7846 5.10972C35.585 5.47325 35.4022 5.8599 35.2173 6.24655H35.2278ZM19.724 8.10204L19.7787 8.87323L19.0537 9.16742L19.7892 9.35234L19.8438 10.1235C19.9741 9.9134 20.1023 9.68225 20.2494 9.48052L20.9848 9.64653L20.5246 9.05815L20.9302 8.39623L20.2136 8.69042C20.061 8.48577 19.8975 8.28937 19.724 8.10204ZM39.2981 8.69042L38.5962 8.39623L38.9997 9.05815C38.8337 9.26829 38.6698 9.4427 38.5038 9.64653L39.2392 9.48052L39.6469 10.1235L39.7015 9.35234L40.437 9.16742L39.7394 8.87323L39.794 8.10204L39.2981 8.69042ZM21.672 10.0311C21.2577 10.1336 20.8683 10.3183 20.5268 10.5742C20.1854 10.8302 19.8988 11.1521 19.6841 11.5209C19.6463 14.1665 19.6841 16.8142 19.6652 19.4787C20.2672 19.8964 20.94 20.2011 21.651 20.3781C22.4768 20.5882 23.332 20.5441 24.1726 20.4895C25.0131 20.4348 25.881 20.2142 26.5072 19.6258C27.4801 18.7622 27.768 17.2366 27.2595 16.0241C26.9842 15.3433 26.3769 14.8663 25.7339 14.5721C26.3769 14.1665 26.8728 13.4689 26.8371 12.6809C26.856 11.2646 25.6414 10.0332 24.3008 9.88608C23.4231 9.77061 22.5316 9.81978 21.672 10.0311ZM25.3115 9.82094C26.2676 10.1698 26.8917 11.0523 27.2237 11.9895H28.4846V20.5H30.6531V11.9979H31.8488C32.4918 11.025 33.3912 10.1971 34.4944 9.82935C31.4327 9.84826 28.3627 9.82935 25.3115 9.82935V9.82094ZM34.7676 10.1151C33.5907 10.5329 32.6264 11.3983 32.0842 12.5233C31.479 13.7547 31.3865 15.1689 31.5882 16.5158C31.7572 17.7927 32.4083 18.9566 33.408 19.7687C34.3641 20.521 35.6144 20.7606 36.7702 20.6681C37.9259 20.5756 39.1762 20.2478 40.1155 19.4745V14.3872H36.5852V16.3351H37.9658V18.2831C37.2493 18.779 36.2847 18.779 35.4841 18.4932C34.6037 18.1423 33.9964 17.2618 33.8136 16.3414C33.6172 15.4087 33.6938 14.4391 34.0342 13.5487C34.1858 13.1448 34.4343 12.7843 34.7579 12.4989C35.0814 12.2135 35.47 12.0119 35.8897 11.9118C36.9404 11.6365 38.0205 12.0967 38.8127 12.7754C39.1237 12.1702 39.4179 11.563 39.7499 10.9578C38.4344 9.73058 36.4318 9.57298 34.776 10.1235L34.7676 10.1151Z" fill="#E40707"/>
<path id="Vector_3" d="M22.2416 12.2913C22.7942 11.6104 24.0613 11.7218 24.4291 12.5666C24.5762 13.0268 24.3744 13.6698 23.8596 13.7979C23.2712 13.964 22.666 13.8715 22.0588 13.8904C22.0945 13.3756 21.9306 12.7683 22.2416 12.2913ZM22.0588 15.6534C22.8131 15.6892 23.6032 15.5421 24.3198 15.8363C25.3705 16.2565 25.2927 18.0784 24.2463 18.4461C23.5297 18.5386 22.7396 18.5932 22.0588 18.236V15.6534ZM26.2131 22.4702C30.0544 22.8569 33.8767 23.9054 37.7537 23.4452C38.6808 23.351 39.5903 23.1282 40.456 22.7833C39.8078 23.7007 39.0347 24.5233 38.1593 25.2272C37.4512 25.3236 36.7329 25.3179 36.0264 25.2104C33.9503 24.933 31.9645 24.29 29.9808 23.628C28.7305 23.2456 27.4991 22.7581 26.2131 22.4723V22.4702ZM23.6915 23.2981C25.3474 23.336 26.9276 23.9054 28.5078 24.4203C31.1177 25.2608 33.6897 26.2947 36.4467 26.5216C35.2821 27.1993 34.0238 27.7014 32.7126 28.0115C32.5277 28.0661 32.3806 27.919 32.2167 27.8644C30.5797 26.9461 29.0184 25.8975 27.3836 24.9225C26.2131 24.229 24.9985 23.6133 23.6936 23.3002L23.6915 23.2981ZM21.6343 25.5046C22.7921 25.5781 23.9689 25.742 25.0153 26.2568C26.211 26.7906 27.2575 27.5618 28.3229 28.2972C25.8838 27.9845 23.5741 27.0206 21.6364 25.5067L21.6343 25.5046Z" fill="#E40707"/>
</g>
</g>
</g>
<defs>
<clipPath id="clip0_461_558">
<rect width="58.9685" height="40" fill="white" transform="translate(0.286377 0.273438)"/>
</clipPath>
</defs>
</svg>
