<svg width="90" height="29" viewBox="0 0 90 29" fill="none" xmlns="http://www.w3.org/2000/svg">
<g id="blueprint" style="mix-blend-mode:luminosity">
<g id="&#208;&#161;&#208;&#187;&#208;&#190;&#208;&#185; 2">
<g id="&#208;&#161;&#208;&#187;&#208;&#190;&#208;&#185; 1">
<path id="Vector" d="M88.6874 18.8283C88.4968 19.365 88.2745 19.889 88.03 20.5082C87.7696 19.8477 87.5441 19.2856 87.3218 18.7203C87.2647 18.5774 87.1916 18.4663 87.0043 18.5044C86.8169 18.5425 86.8868 18.7013 86.8868 18.8219C86.8868 19.4063 86.8868 19.9906 86.8868 20.5749C86.8868 20.6702 86.8233 20.8322 87.0011 20.8226C87.1789 20.8131 87.1091 20.6575 87.1091 20.5559C87.1091 20.0446 87.1091 19.5333 87.1091 19.022C87.386 19.5409 87.6279 20.0777 87.8331 20.6289C87.8681 20.7147 87.903 20.8226 88.0046 20.8322C88.1062 20.8417 88.1729 20.7274 88.2142 20.6226C88.4048 20.1367 88.5953 19.6699 88.789 19.1744C88.8328 19.0713 88.8928 18.9759 88.9668 18.8918C88.9668 19.4603 88.9668 19.9652 88.9668 20.4797C88.9668 20.6003 88.8557 20.8322 89.1542 20.7972V18.4917C88.9033 18.4663 88.7763 18.5838 88.6874 18.8283Z" fill="#848484"/>
<path id="Vector_2" d="M65.2509 0.365234C65.2605 0.389739 65.2605 0.416946 65.2509 0.441451C64.6055 0.698628 63.8861 0.698628 63.2407 0.441451V0.365234H65.2509Z" fill="#848484"/>
<path id="Vector_3" d="M78.8904 12.4687C78.8904 14.1074 78.8904 15.4665 78.8904 16.8257C78.8904 17.1687 78.7951 17.2608 78.468 17.2417C78.0266 17.2132 77.582 17.2417 77.1406 17.2417C76.9175 17.2487 76.6955 17.2085 76.489 17.1239C76.2825 17.0392 76.0962 16.912 75.9421 16.7505C75.7881 16.589 75.6699 16.3968 75.5951 16.1865C75.5204 15.9762 75.4908 15.7525 75.5083 15.5301C75.5083 13.3621 75.5083 11.1953 75.5083 9.02945C75.5083 8.14979 75.2828 7.40668 74.4349 6.98114C74.0381 6.76137 73.5892 6.65301 73.1358 6.66755C72.6824 6.68208 72.2414 6.81897 71.8595 7.06371C71.1354 7.49878 70.9607 8.20377 70.9607 8.96911C70.9607 11.5605 70.9607 14.155 70.9607 16.7463C70.9607 17.1433 70.8591 17.2513 70.4653 17.2354C69.6111 17.2036 68.7568 17.2163 67.9057 17.2354C67.6326 17.2354 67.5215 17.1941 67.5215 16.8797C67.5374 14.3392 67.5215 11.8209 67.5374 9.28986C67.5416 8.73662 67.6033 8.18533 67.7215 7.64486C67.8264 7.02865 68.0787 6.44694 68.457 5.94929C68.8352 5.45163 69.3281 5.05279 69.8937 4.78675C72.3104 3.59905 74.6763 3.64986 76.9913 5.02175C78.2775 5.78391 78.6618 7.06371 78.8078 8.43878C78.973 9.86783 78.8586 11.3096 78.8904 12.4687Z" fill="#848484"/>
<path id="Vector_4" d="M79.8528 15.3674C79.8528 12.1515 79.8528 8.93242 79.8528 5.71017C79.8528 4.12233 79.8528 2.53449 79.8528 0.927599C79.8528 0.571923 79.9163 0.422666 80.3101 0.448072C80.8277 0.483004 81.3485 0.448072 81.8693 0.448072C82.2515 0.527243 82.5933 0.738948 82.8345 1.04577C83.0757 1.3526 83.2006 1.7348 83.1872 2.12483C83.1872 2.69327 83.2095 3.26172 83.1872 3.83017C83.1872 4.16679 83.2349 4.31605 83.6128 4.27794C83.9907 4.23983 84.4353 4.27794 84.8418 4.26206C85.1593 4.23983 85.2006 4.35733 85.2038 4.63679C85.2038 5.92929 84.7052 6.52632 83.4572 6.61841C83.2539 6.61841 83.1904 6.67875 83.1904 6.88517C83.1904 9.22246 83.1904 11.5629 83.1904 13.9002C83.1904 14.3702 83.4635 14.6275 83.9748 14.6719C84.292 14.6928 84.6103 14.6928 84.9275 14.6719C85.1308 14.6719 85.2038 14.7227 85.1975 14.9355C85.1975 15.5992 85.1975 16.2629 85.1975 16.9235C85.1975 17.1362 85.153 17.241 84.9148 17.241C83.7621 17.2903 82.6073 17.2553 81.4597 17.1362C80.5292 17.0315 80.0147 16.4312 79.8528 15.3674Z" fill="#848484"/>
<path id="Vector_5" d="M54.8888 13.2181C54.9333 12.1479 54.7967 10.8491 54.9745 9.55657C55.3842 6.56508 57.1435 4.79306 60.135 4.35164C60.7298 4.2713 61.3291 4.22888 61.9293 4.22461C62.1579 4.22461 62.2246 4.28495 62.2214 4.51677C62.2214 5.46947 62.2214 6.44441 62.2214 7.40981C62.2214 7.64481 62.1452 7.70833 61.9229 7.69562C61.6054 7.69562 61.2878 7.69562 60.9702 7.69562C59.1887 7.74643 58.3281 8.59752 58.3122 10.3791C58.2931 12.4814 58.3122 14.5837 58.3122 16.6891C58.3058 16.7673 58.3058 16.8459 58.3122 16.9241C58.3535 17.1877 58.2296 17.2417 57.9946 17.2417C57.08 17.2417 56.1622 17.2226 55.2445 17.2417C54.9269 17.2417 54.8856 17.1337 54.8888 16.8574C54.8983 15.7206 54.8888 14.5805 54.8888 13.2181Z" fill="#848484"/>
<path id="Vector_6" d="M63.2344 10.6966C63.2344 8.68955 63.2344 6.68253 63.2344 4.6628C63.2344 4.27536 63.3487 4.18327 63.7076 4.21185C64.0664 4.24043 64.4951 4.21185 64.8921 4.21185C65.9909 4.21185 66.6641 4.89144 66.6673 5.99023C66.6673 7.99726 66.6673 10.0085 66.6673 12.024C66.6673 13.6119 66.6673 15.1997 66.6673 16.8129C66.6673 17.1305 66.5815 17.2416 66.2481 17.2321C65.378 17.2099 64.5078 17.2067 63.6409 17.2321C63.2947 17.2321 63.228 17.1273 63.228 16.8066C63.2407 14.7773 63.2344 12.7512 63.2344 10.6966Z" fill="#848484"/>
<path id="Vector_7" d="M67.0706 23.147C66.5498 24.6491 66.0163 26.148 65.5146 27.6565C65.5037 27.7208 65.4793 27.782 65.4432 27.8362C65.407 27.8905 65.3598 27.9365 65.3047 27.9712C65.2496 28.006 65.1877 28.0287 65.1232 28.038C65.0587 28.0472 64.9929 28.0428 64.9302 28.0249C64.6285 27.9868 64.2951 28.1455 64.1458 27.6597C63.6504 26.1163 63.0979 24.592 62.558 23.0581C62.5436 23.0536 62.5283 23.0529 62.5135 23.0559C62.4987 23.059 62.485 23.0658 62.4735 23.0756C62.4621 23.0855 62.4534 23.0981 62.4481 23.1122C62.4429 23.1264 62.4414 23.1416 62.4437 23.1566C62.4437 23.9505 62.3992 24.7444 62.4723 25.532C62.4723 26.2592 62.4723 26.9864 62.4881 27.7105C62.4881 27.9645 62.4246 28.028 62.1706 28.028C61.0559 28.0535 61.0559 28.0598 61.0559 26.9515C61.0559 24.9921 61.0559 23.0327 61.0559 21.0733C61.0559 20.7557 61.1226 20.6541 61.4433 20.6764C61.8377 20.7049 62.2335 20.7049 62.6279 20.6764C62.9073 20.6573 62.9994 20.778 63.0852 21.0225C63.6441 22.658 64.2252 24.2903 64.8254 26.0051C65.2637 24.7635 65.6733 23.5948 66.0957 22.4262C66.137 22.3055 66.1719 22.1848 66.2132 22.0673C66.7372 20.543 66.7372 20.5493 68.3409 20.6764C68.56 20.6954 68.595 20.7748 68.595 20.9622C68.595 23.2233 68.595 25.4833 68.595 27.7422C68.595 27.8343 68.6235 27.9963 68.5378 27.9995C68.0994 28.0133 67.6606 28.0048 67.2231 27.9741C67.1342 27.9741 67.185 27.8057 67.1818 27.7168C67.1818 27.466 67.1818 27.2119 67.1818 26.961C67.258 25.7352 67.1818 24.5126 67.2135 23.2868C67.1977 23.2074 67.185 23.1248 67.0706 23.147Z" fill="#848484"/>
<path id="Vector_8" d="M54.063 22.8229C53.6216 22.8229 53.2278 22.8229 52.834 22.8229C52.6963 22.8348 52.5576 22.8165 52.4276 22.7693C52.2977 22.7221 52.1795 22.6472 52.0814 22.5498C51.8569 22.3535 51.5948 22.2048 51.3111 22.1128C51.0274 22.0209 50.7279 21.9875 50.4309 22.0149C50.1339 22.0422 49.8456 22.1296 49.5834 22.2718C49.3212 22.414 49.0906 22.608 48.9057 22.842C48.7041 23.0908 48.5543 23.3775 48.4654 23.6852C48.3765 23.9928 48.3502 24.3152 48.3881 24.6332C48.426 24.9513 48.5274 25.2584 48.6861 25.5366C48.8448 25.8148 49.0577 26.0583 49.3122 26.2527C49.5494 26.4328 49.8204 26.5635 50.1091 26.6369C50.3978 26.7102 50.6983 26.7248 50.9928 26.6798C51.2872 26.6348 51.5696 26.531 51.8232 26.3747C52.0767 26.2184 52.2963 26.0128 52.4688 25.77C52.5387 25.6683 52.653 25.5254 52.6245 25.4524C52.5673 25.2841 52.3767 25.3794 52.2497 25.3762C51.5701 25.3762 50.8874 25.3571 50.2109 25.3762C49.8934 25.3762 49.7981 25.3222 49.8045 24.9919C49.8203 24.1377 49.8044 24.1377 50.6365 24.1377C51.7289 24.1377 52.8213 24.1694 53.9106 24.1377C54.3997 24.1186 54.4441 24.3155 54.4124 24.7093C54.3592 25.4889 54.0655 26.2329 53.5717 26.8385C53.0779 27.4442 52.4083 27.8817 51.6554 28.0907C50.9024 28.2998 50.1031 28.2701 49.3678 28.0057C48.6324 27.7413 47.9972 27.2553 47.5497 26.6147C47.1 25.9695 46.8589 25.202 46.8589 24.4155C46.8589 23.6291 47.1 22.8616 47.5497 22.2164C47.9165 21.6694 48.4214 21.2291 49.0131 20.94C49.6048 20.6509 50.2624 20.5232 50.9193 20.57C51.5762 20.6167 52.209 20.8362 52.7539 21.2062C53.2987 21.5761 53.7361 22.0835 54.0217 22.6769C54.0389 22.7245 54.0526 22.7734 54.063 22.8229Z" fill="#848484"/>
<path id="Vector_9" d="M83.4699 25.3524C82.5775 25.3524 81.7423 25.3524 80.9103 25.3524C80.6562 25.3524 80.5927 25.2793 80.5927 25.0348C80.5927 24.117 80.5705 24.117 81.4978 24.117C82.5902 24.117 83.6795 24.117 84.7687 24.117C85.1022 24.117 85.1943 24.1996 85.1879 24.5362C85.1513 25.4776 84.7641 26.3714 84.1022 27.0419C83.4404 27.7124 82.5519 28.1113 81.611 28.1603C80.6701 28.2092 79.745 27.9046 79.0172 27.3064C78.2894 26.7081 77.8115 25.8594 77.6774 24.9268C77.5811 24.2865 77.6485 23.6322 77.8735 23.025C78.0984 22.4178 78.4735 21.8775 78.9637 21.4544C79.454 21.0314 80.0434 20.7395 80.677 20.6059C81.3106 20.4723 81.9677 20.5014 82.587 20.6905C83.0595 20.8255 83.4971 21.0611 83.8699 21.3812C84.2427 21.7014 84.5417 22.0984 84.7465 22.5451C84.8799 22.8118 84.7751 22.8372 84.5496 22.8309C84.1717 22.8309 83.7906 22.8309 83.4127 22.8309C83.3276 22.8337 83.2428 22.8185 83.164 22.7862C83.0852 22.7539 83.0141 22.7053 82.9554 22.6435C82.7284 22.4255 82.4577 22.2581 82.1611 22.1526C81.8646 22.047 81.5491 22.0056 81.2353 22.0311C80.9216 22.0566 80.6169 22.1485 80.3413 22.3006C80.0657 22.4527 79.8256 22.6616 79.6368 22.9135C79.4424 23.1776 79.3042 23.4789 79.2307 23.7985C79.1572 24.1182 79.15 24.4495 79.2095 24.7721C79.269 25.0947 79.394 25.4016 79.5767 25.674C79.7594 25.9464 79.9961 26.1785 80.272 26.3559C81.393 27.0704 82.8125 26.6449 83.4699 25.3524Z" fill="#848484"/>
<path id="Vector_10" d="M75.8451 25.3776C75.8451 23.8406 75.8451 22.456 75.8451 21.0714C75.8451 20.7538 75.9308 20.6744 76.2389 20.6776C77.2551 20.6776 77.2551 20.6776 77.2551 21.6716C77.2551 23.6627 77.2551 25.6539 77.2551 27.6419C77.2551 27.9594 77.1566 28.0007 76.8613 28.0388C76.1658 28.1246 75.7562 27.88 75.4005 27.2576C74.632 25.9238 73.7682 24.6408 72.9457 23.3356C72.7679 23.3992 72.86 23.5294 72.86 23.6183C72.86 24.9616 72.86 26.3049 72.86 27.6482C72.86 27.9658 72.7679 28.0356 72.463 28.0325C71.4373 28.0325 71.4373 28.0325 71.4373 27.0035C71.4373 25.0283 71.4373 23.0562 71.4373 21.0809C71.4373 20.7633 71.5071 20.7062 71.8183 20.6681C72.5551 20.576 72.9775 20.8427 73.3554 21.4874C74.0985 22.7767 74.9559 24.0057 75.8451 25.3776Z" fill="#848484"/>
<path id="Vector_11" d="M70.745 24.3357C70.745 25.4409 70.745 26.5587 70.745 27.6511C70.745 27.9179 70.7196 28.0354 70.3988 28.0322C69.3032 28.0322 69.3032 28.0322 69.3032 26.9366C69.3032 24.9963 69.3032 23.0527 69.3032 21.1124C69.3032 20.7504 69.3985 20.6678 69.7478 20.6742C70.745 20.69 70.745 20.69 70.745 21.684V24.3357Z" fill="#848484"/>
<path id="Vector_12" d="M63.2534 0.457031H65.2636C65.6647 0.522705 66.0278 0.733204 66.2842 1.04866C66.5405 1.36412 66.6723 1.76263 66.6545 2.16872C66.6736 3.12142 66.6736 3.12142 65.7018 3.12142C64.9746 3.12142 64.2474 3.12142 63.5233 3.12142C63.301 3.12142 63.2057 3.06426 63.2248 2.82926C63.247 2.03217 63.247 1.2446 63.2534 0.457031Z" fill="#848484"/>
<path id="Vector_13" d="M85.9436 19.8059C85.9436 19.5677 85.9436 19.3327 85.9436 19.0946C85.9436 18.8564 85.9436 18.7135 85.6578 18.7516C85.5657 18.7516 85.4609 18.7262 85.4863 18.5928C85.5117 18.4594 85.5974 18.4944 85.6736 18.4944C85.9245 18.4944 86.1786 18.4944 86.4295 18.4944C86.5279 18.4944 86.6422 18.4944 86.6549 18.6087C86.6676 18.723 86.5628 18.7675 86.4612 18.7548C86.1945 18.7198 86.2008 18.885 86.2008 19.0723C86.2008 19.5455 86.2008 20.025 86.2008 20.495C86.2008 20.6157 86.2834 20.8126 86.0579 20.8126C85.8324 20.8126 85.9467 20.6221 85.9436 20.495C85.9372 20.2791 85.9436 20.0536 85.9436 19.8059Z" fill="#848484"/>
<path id="Vector_14" d="M53.7899 7.50418C53.539 6.66834 53.0648 5.91675 52.4185 5.33033C51.7722 4.7439 50.9782 4.34483 50.122 4.17607C49.1219 3.93055 48.083 3.88553 47.0654 4.04359C46.0478 4.20166 45.0715 4.55969 44.193 5.09702C43.3788 5.56626 42.7601 6.3123 42.4496 7.19932C42.1342 8.1289 41.991 9.10822 42.0272 10.0892C42.0272 13.1886 42.0272 16.287 42.0272 19.3844C42.0272 20.1434 42.0272 20.9024 42.0272 21.6613C42.0272 21.9567 42.1066 22.052 42.3988 22.0297C42.6909 22.0075 43.0625 22.0297 43.3927 22.0297C44.7551 22.0297 45.3648 21.4263 45.3648 20.0735V15.545C45.8044 16.2994 46.4875 16.8817 47.302 17.1963C49.8425 18.1046 52.418 16.9994 53.5581 14.4049C54.5102 12.2179 54.5931 9.7502 53.7899 7.50418ZM50.5063 12.9949C50.3353 13.4867 50.0074 13.9086 49.5729 14.1956C49.1385 14.4825 48.6217 14.6186 48.1023 14.5828C46.9273 14.5542 46.1588 13.9286 45.7078 12.8838C45.4455 12.173 45.3247 11.4179 45.3521 10.6608C45.3451 9.92506 45.46 9.19324 45.6919 8.49499C46.0921 7.47877 46.8066 6.86587 47.9149 6.80553C49.0232 6.74519 49.9696 7.20249 50.4364 8.27904C50.7706 9.01835 50.9493 9.81847 50.9613 10.6297C50.9733 11.441 50.8184 12.246 50.5063 12.9949Z" fill="#848484"/>
<path id="Vector_15" d="M28.8832 4.49458C28.8832 4.27228 28.788 4.23417 28.5974 4.23735C28.2195 4.23735 27.8416 4.23735 27.4605 4.23735C26.0791 4.23735 25.5043 4.81215 25.5043 6.19039C25.5043 8.32444 25.5043 10.4574 25.5043 12.5894C25.5337 12.9526 25.4598 13.3167 25.2912 13.6398C25.1227 13.9628 24.8663 14.2317 24.5516 14.4154C22.8304 15.4157 20.9853 14.3805 20.979 12.3957C20.979 9.80431 20.979 7.2119 20.979 4.61843C20.979 4.30086 20.9028 4.22147 20.5915 4.22782C19.7214 4.25005 18.8513 4.25958 17.9843 4.22782C17.6064 4.21194 17.5492 4.34532 17.5556 4.68194C17.5746 6.02525 17.5556 7.36856 17.5556 8.96911C17.5905 10.1663 17.4699 11.624 17.6223 13.0721C17.7684 14.4694 18.2034 15.7301 19.5499 16.4573C21.9158 17.7276 24.3134 17.8038 26.7174 16.5971C27.1419 16.3882 27.5195 16.0953 27.8274 15.7361C28.1353 15.3769 28.367 14.9589 28.5085 14.5075C28.6698 14.0616 28.7692 13.5958 28.8038 13.1229C28.9626 10.2489 28.8261 7.37174 28.8832 4.49458Z" fill="url(#paint0_linear_71_772)"/>
<path id="Vector_16" d="M15.3452 0.444626C15.35 0.418383 15.35 0.391478 15.3452 0.365234L13.2461 0.365234C13.2461 5.86974 13.2461 11.3647 13.2461 16.8502C13.2461 17.2058 13.3731 17.2725 13.6875 17.2662C14.5704 17.2662 15.4532 17.2662 16.3392 17.2662C16.4567 17.2662 16.5964 17.3233 16.6822 17.1804C16.6968 17.1535 16.7075 17.1247 16.7139 17.0947C16.7139 12.0898 16.7139 7.08391 16.7139 2.07692C16.6949 1.19091 16.2376 0.660572 15.3452 0.444626Z" fill="url(#paint1_linear_71_772)"/>
<path id="Vector_17" d="M10.334 5.03348C8.4921 3.41706 5.53872 3.57584 4.0144 5.36692C3.88737 5.51618 3.76987 5.68449 3.61426 5.87503C3.61426 4.57301 3.61426 3.33449 3.61426 2.11503C3.64377 1.73279 3.53398 1.35278 3.30517 1.04517C3.07636 0.737562 2.74398 0.523123 2.3694 0.441451C2.37136 0.426396 2.36878 0.411098 2.36199 0.397519C2.3552 0.38394 2.34451 0.372698 2.33129 0.365234L0.244873 0.365234C0.244873 0.552599 0.282981 0.739964 0.282981 0.927329C0.282981 4.45233 0.282981 7.97733 0.282981 11.5023C0.257032 11.6905 0.2711 11.8821 0.324265 12.0644C0.324265 12.2835 0.324265 12.5058 0.346495 12.725C0.543387 14.6558 1.44845 16.034 3.28399 16.7835C4.5733 17.3166 5.9712 17.5343 7.36156 17.4186C9.95609 17.2058 11.509 15.926 12.2045 13.4236C12.665 11.7532 12.6869 9.99215 12.268 8.31078C11.9861 7.04131 11.309 5.89389 10.334 5.03348ZM9.13677 11.6484C9.08687 12.2481 8.91045 12.8304 8.61913 13.3569C8.38764 13.7844 8.03428 14.1334 7.60397 14.3596C7.17366 14.5858 6.68582 14.6789 6.20244 14.6272C5.74017 14.6183 5.29059 14.4744 4.90913 14.2131C4.52767 13.9519 4.231 13.5847 4.05568 13.1569C3.74552 12.3935 3.6005 11.5731 3.63014 10.7497C3.60356 10.0217 3.71121 9.2951 3.94771 8.60611C4.10732 8.09594 4.4277 7.65108 4.86098 7.338C5.29426 7.02491 5.8172 6.8604 6.3517 6.86902C7.45366 6.83409 8.31109 7.393 8.79379 8.48226C9.23839 9.50165 9.23204 10.5719 9.13677 11.6484Z" fill="url(#paint2_linear_71_772)"/>
<path id="Vector_18" d="M33.3671 11.5968C34.6374 11.6158 35.9267 11.5968 37.2065 11.5968C38.4863 11.5968 39.7978 11.5968 41.0935 11.5968C41.4111 11.5968 41.5032 11.5174 41.5 11.203C41.5156 10.3814 41.4592 9.56 41.3317 8.7482C41.0141 7.07462 40.2996 5.63286 38.7689 4.7278C37.5368 4.00374 36.1807 3.84813 34.7866 3.94658C32.5637 4.10536 30.9758 5.18192 30.1184 7.25246C29.3943 9.00226 29.3753 10.8346 29.7151 12.6511C30.1565 15.0138 31.4363 16.6906 33.8752 17.2781C34.865 17.5099 35.8935 17.5229 36.8889 17.3162C39.0293 16.897 40.4933 15.6775 41.1951 13.5784C41.2999 13.2608 41.2555 13.1656 40.9093 13.1814C40.325 13.2037 39.7375 13.2037 39.1532 13.1814C38.8477 13.1598 38.5413 13.2087 38.2577 13.3243C37.9741 13.4399 37.721 13.6192 37.5177 13.8483C37.2036 14.1817 36.8061 14.4252 36.3664 14.5536C35.9267 14.682 35.4607 14.6906 35.0165 14.5786C34.5723 14.4666 34.1661 14.238 33.8399 13.9164C33.5136 13.5949 33.2791 13.1921 33.1607 12.7496C33.094 12.505 33.0718 12.251 33.0146 12.0064C32.9543 11.6921 33.04 11.5936 33.3671 11.5968ZM33.0082 9.07847C33.2178 7.28422 34.8025 6.30293 36.5015 6.92854C36.9422 7.12966 37.3147 7.45482 37.5736 7.86427C37.8325 8.27372 37.9664 8.74972 37.9591 9.23408C37.9369 9.49131 37.7654 9.39286 37.6416 9.39286C36.9143 9.39286 36.1871 9.39286 35.4599 9.39286C34.7326 9.39286 34.0054 9.39286 33.2782 9.39286C33.0368 9.40874 32.9797 9.32935 33.0082 9.07847Z" fill="url(#paint3_linear_71_772)"/>
<path id="Vector_19" d="M60.5828 27.6988C59.773 25.6187 58.9759 23.5291 58.1756 21.4459C57.8835 20.6805 57.8835 20.7028 57.0641 20.6742C56.9359 20.6538 56.8048 20.6841 56.6987 20.7588C56.5925 20.8336 56.5197 20.9467 56.4957 21.0743C56.1781 21.9603 55.8224 22.8368 55.4795 23.7165C54.9269 25.1328 54.3743 26.5534 53.8218 27.9782C55.2286 28.1656 55.2286 28.1656 55.7018 26.9049C55.7266 26.8654 55.7458 26.8226 55.7589 26.7778C55.797 26.5111 55.9685 26.4603 56.2004 26.4793C56.8355 26.4793 57.4706 26.5143 58.1058 26.4793C58.5027 26.4539 58.6425 26.6127 58.7663 26.9557C59.1601 28.0672 59.176 28.0545 60.3541 28.0386C60.6304 28.0259 60.6781 27.9941 60.5828 27.6988ZM56.5592 25.136C56.267 25.136 56.4068 24.9645 56.4449 24.8597C56.6862 24.1992 56.9403 23.5418 57.2293 22.7797C57.531 23.599 57.7977 24.3326 58.0899 25.1328C57.5437 25.136 57.0514 25.136 56.5592 25.136Z" fill="#848484"/>
</g>
</g>
</g>
<defs>
<linearGradient id="paint0_linear_71_772" x1="23.2115" y1="4.22782" x2="23.2115" y2="17.464" gradientUnits="userSpaceOnUse">
<stop stop-color="#3F97D2"/>
<stop offset="1" stop-color="#41C7F4"/>
</linearGradient>
<linearGradient id="paint1_linear_71_772" x1="14.9705" y1="0.365234" x2="14.9705" y2="17.2694" gradientUnits="userSpaceOnUse">
<stop stop-color="#3F97D2"/>
<stop offset="1" stop-color="#41C7F4"/>
</linearGradient>
<linearGradient id="paint2_linear_71_772" x1="6.40568" y1="0.365234" x2="6.40568" y2="17.4631" gradientUnits="userSpaceOnUse">
<stop stop-color="#3F97D2"/>
<stop offset="1" stop-color="#41C7F4"/>
</linearGradient>
<linearGradient id="paint3_linear_71_772" x1="35.5012" y1="3.93705" x2="35.5012" y2="17.4845" gradientUnits="userSpaceOnUse">
<stop stop-color="#3F97D2"/>
<stop offset="1" stop-color="#41C7F4"/>
</linearGradient>
</defs>
</svg>
