<svg width="88" height="29" viewBox="0 0 88 29" fill="none" xmlns="http://www.w3.org/2000/svg">
<g id="caleta" style="mix-blend-mode:luminosity" clip-path="url(#clip0_461_605)">
<g id="Camada 1">
<path id="Vector" d="M34.7147 6.10547C36.6914 6.10547 38.2217 6.55182 39.242 7.50828C40.2622 8.46474 40.8361 9.86755 40.8361 11.7167V18.9858H37.3928V17.3917C36.6914 18.6032 35.4161 19.1771 33.5032 19.1771C32.6267 19.1873 31.7578 19.0135 30.9526 18.667C30.2856 18.3846 29.7112 17.9206 29.2947 17.328C28.9139 16.7395 28.7144 16.0522 28.7209 15.3513C28.6994 14.81 28.8102 14.2717 29.0435 13.7829C29.2768 13.294 29.6257 12.8694 30.0599 12.5456C30.9526 11.8442 32.3554 11.5254 34.2046 11.5254H37.1377C37.16 11.1792 37.1026 10.8325 36.9699 10.512C36.8373 10.1914 36.6329 9.90553 36.3726 9.67626C35.7352 9.19086 34.9384 8.96321 34.1408 9.03862C33.4493 9.05101 32.7627 9.15828 32.1004 9.35744C31.5065 9.54209 30.9466 9.82205 30.4425 10.1864L29.1035 7.63581C29.8542 7.10265 30.6975 6.71348 31.5903 6.48805C32.6133 6.23912 33.6619 6.11071 34.7147 6.10547ZM34.4596 16.6903C35.0453 16.718 35.6249 16.5619 36.1175 16.244C36.5918 15.9462 36.9514 15.4968 37.1377 14.9687V13.7062H34.5872C33.0568 13.7062 32.2917 14.2163 32.2917 15.1727C32.2926 15.3953 32.3449 15.6146 32.4445 15.8137C32.544 16.0127 32.6881 16.1862 32.8655 16.3205C33.3543 16.5841 33.9048 16.7118 34.4596 16.6903Z" fill="#46B5EE"/>
<path id="Vector_2" d="M44.2156 1.45117H47.9139V18.9863H44.2156V1.45117Z" fill="#46B5EE"/>
<path id="Vector_3" d="M63.7913 12.672C63.7913 12.7358 63.7913 13.0546 63.7275 13.6923H54.0991C54.2596 14.4376 54.6914 15.0966 55.3106 15.5414C56.0269 16.019 56.8731 16.2639 57.7337 16.2428C58.3391 16.2612 58.9431 16.1749 59.5191 15.9878C60.0704 15.7768 60.5703 15.4508 60.9856 15.0313L62.9623 17.1355C61.7508 18.4746 60.0292 19.176 57.7337 19.176C56.4103 19.2111 55.098 18.9267 53.9078 18.347C52.8468 17.8247 51.9606 17.005 51.3573 15.9878C50.772 14.9576 50.4644 13.7931 50.4644 12.6083C50.4644 11.4235 50.772 10.259 51.3573 9.22877C51.929 8.23168 52.7683 7.41445 53.7803 6.8695C54.8602 6.30182 56.0677 6.0208 57.2873 6.05331C58.4675 6.0245 59.634 6.31062 60.6668 6.88225C61.6705 7.38674 62.4943 8.18828 63.0261 9.17776C63.546 10.2683 63.8079 11.464 63.7913 12.672ZM57.2236 8.90995C56.4627 8.89733 55.7204 9.14477 55.1193 9.61135C54.832 9.84755 54.5939 10.1381 54.4189 10.4663C54.2438 10.7945 54.1352 11.154 54.0991 11.5243H60.348C60.312 11.154 60.2033 10.7945 60.0282 10.4663C59.8532 10.1381 59.6152 9.84755 59.3278 9.61135C58.7363 9.12702 57.9873 8.87734 57.2236 8.90995Z" fill="#46B5EE"/>
<path id="Vector_4" d="M74.5037 18.412C74.083 18.6747 73.6337 18.8886 73.1646 19.0496C72.6217 19.1797 72.0651 19.2439 71.5068 19.2409C70.2334 19.3255 68.9767 18.9142 67.9997 18.0931C67.5712 17.6469 67.2418 17.1152 67.033 16.5328C66.8242 15.9504 66.7408 15.3305 66.7882 14.7136V9.48498H64.8115V6.69211H66.7882V3.50391H70.4865V6.62835H73.6747V9.43397H70.4865V14.5989C70.4664 15.055 70.6012 15.5045 70.8691 15.8741C71.2012 16.1722 71.6346 16.3319 72.0806 16.3205C72.6068 16.349 73.1261 16.1909 73.5472 15.8741L74.5037 18.412Z" fill="#46B5EE"/>
<path id="Vector_5" d="M81.7088 6.10547C83.6855 6.10547 85.2159 6.55182 86.2361 7.50828C87.2563 8.46474 87.8302 9.86755 87.8302 11.7167V18.9858H84.3869V17.3917C83.6855 18.6032 82.4102 19.1771 80.4973 19.1771C79.6208 19.1873 78.7519 19.0135 77.9468 18.667C77.2797 18.3846 76.7053 17.9206 76.2889 17.328C75.9081 16.7395 75.7085 16.0522 75.715 15.3513C75.6936 14.81 75.8043 14.2717 76.0376 13.7829C76.2709 13.294 76.6198 12.8694 77.0541 12.5456C77.9468 11.8442 79.3496 11.5254 81.1987 11.5254H84.1446C84.1669 11.1792 84.1095 10.8325 83.9768 10.512C83.8442 10.1914 83.6398 9.90553 83.3795 9.67626C82.7421 9.19086 81.9453 8.96321 81.1477 9.03862C80.4562 9.05101 79.7696 9.15828 79.1073 9.35744C78.5134 9.54209 77.9535 9.82205 77.4494 10.1864L76.1104 7.63581C76.8611 7.10265 77.7043 6.71348 78.5972 6.48805C79.616 6.2401 80.6603 6.11171 81.7088 6.10547ZM81.39 16.6903C81.9757 16.718 82.5553 16.5619 83.0479 16.244C83.5222 15.9462 83.8818 15.4968 84.0681 14.9687V13.7062H81.5176C79.9872 13.7062 79.222 14.2163 79.222 15.1727C79.223 15.3953 79.2753 15.6146 79.3748 15.8137C79.4744 16.0127 79.6185 16.1862 79.7959 16.3205C80.2847 16.5841 80.8351 16.7118 81.39 16.6903Z" fill="#46B5EE"/>
<path id="Vector_6" d="M30.315 23.0664V27.0198H29.9452V23.8316L28.3511 26.5097H28.1598L26.5657 23.8316V27.0198H26.1831V23.0664H26.5019L28.2236 25.9996L29.9452 23.0664H30.315Z" fill="#46B5EE"/>
<path id="Vector_7" d="M32.6104 24.0229C32.7739 24.0009 32.9402 24.0184 33.0955 24.0739C33.2508 24.1293 33.3906 24.2212 33.5031 24.3417C33.7202 24.5873 33.8343 24.9069 33.822 25.2344V27.0963H33.4394V26.65C33.3756 26.7775 33.1843 26.905 33.0568 27.0326C32.8531 27.1111 32.6374 27.1543 32.4192 27.1601C32.2809 27.1722 32.1417 27.1558 32.0101 27.1119C31.8785 27.068 31.7573 26.9976 31.654 26.905C31.5542 26.8315 31.4734 26.7354 31.4179 26.6245C31.3625 26.5137 31.3342 26.3913 31.3352 26.2674C31.3288 26.1489 31.3483 26.0306 31.3924 25.9204C31.4364 25.8103 31.5039 25.7111 31.5902 25.6297C31.8573 25.4611 32.1671 25.3726 32.4829 25.3747H33.4394V25.1834C33.4474 25.0798 33.4347 24.9757 33.4018 24.8771C33.3689 24.7785 33.3167 24.6875 33.2481 24.6095C33.0656 24.4709 32.8391 24.403 32.6104 24.4182C32.4192 24.4182 32.2279 24.482 32.0366 24.482C31.8686 24.5278 31.715 24.6155 31.5902 24.737L31.3989 24.4182C31.5578 24.2619 31.7562 24.1517 31.9728 24.0994C32.1641 24.0866 32.3554 24.0229 32.6104 24.0229ZM32.4829 26.7647C32.6815 26.7675 32.878 26.7238 33.0568 26.6372C33.2173 26.5203 33.3484 26.3674 33.4394 26.1909V25.6808H32.4957C31.9856 25.6808 31.7305 25.872 31.7305 26.1909C31.7282 26.2747 31.7442 26.358 31.7772 26.435C31.8102 26.5121 31.8596 26.581 31.9218 26.6372C32.1005 26.7238 32.2971 26.7675 32.4957 26.7647H32.4829Z" fill="#46B5EE"/>
<path id="Vector_8" d="M36.0537 25.5531L35.3523 26.1907V27.0197H34.9697V22.875H35.3523V25.7444L37.1377 24.0865H37.6478L36.3725 25.298L37.7753 27.0834H37.2652L36.0537 25.5531Z" fill="#46B5EE"/>
<path id="Vector_9" d="M38.2856 24.0874H38.6682V27.0971H38.2856V24.0874ZM38.4769 23.4498C38.4273 23.4425 38.3816 23.4186 38.3472 23.3821C38.3128 23.3455 38.2917 23.2985 38.2873 23.2485C38.2829 23.1985 38.2955 23.1485 38.323 23.1066C38.3506 23.0646 38.3914 23.0332 38.439 23.0173C38.4866 23.0014 38.5382 23.0021 38.5854 23.0191C38.6326 23.0362 38.6727 23.0686 38.6992 23.1112C38.7257 23.1538 38.737 23.2041 38.7314 23.254C38.7258 23.3039 38.7035 23.3504 38.6682 23.386C38.6146 23.4303 38.5464 23.453 38.4769 23.4498Z" fill="#46B5EE"/>
<path id="Vector_10" d="M41.3462 24.0227C41.6737 24.0104 41.9934 24.1245 42.2389 24.3416C42.3647 24.4639 42.4593 24.6146 42.5147 24.781C42.5702 24.9474 42.585 25.1247 42.5577 25.298V27.0197H42.1751V25.298C42.1931 25.1692 42.1792 25.0379 42.1348 24.9156C42.0903 24.7934 42.0166 24.6838 41.9201 24.5966C41.8423 24.5057 41.7437 24.435 41.6327 24.3906C41.5216 24.3462 41.4014 24.3294 41.2824 24.3416C41.1438 24.3212 41.0022 24.3335 40.8691 24.3776C40.7361 24.4217 40.6151 24.4962 40.516 24.5953C40.4169 24.6945 40.3423 24.8154 40.2982 24.9485C40.2542 25.0816 40.2418 25.2231 40.2622 25.3618V26.9559H39.8796V23.959H40.2622V24.5456C40.3775 24.3667 40.5297 24.2145 40.7086 24.0993C40.8361 24.0865 41.0912 24.0227 41.3462 24.0227Z" fill="#46B5EE"/>
<path id="Vector_11" d="M46.4473 24.0859V26.7003C46.4771 26.9082 46.4582 27.1202 46.3918 27.3195C46.3255 27.5188 46.2136 27.6999 46.0651 27.8484C45.9166 27.9969 45.7355 28.1088 45.5362 28.1752C45.3369 28.2415 45.1248 28.2605 44.9169 28.2306C44.6571 28.2246 44.3995 28.1816 44.1518 28.1031C43.9351 28.0507 43.7368 27.9405 43.5779 27.7843L43.7692 27.4654C43.9139 27.6077 44.088 27.7165 44.2793 27.7843C44.4846 27.8572 44.6994 27.9002 44.9169 27.9118C45.0655 27.9407 45.2189 27.9326 45.3637 27.8884C45.5084 27.8441 45.6401 27.765 45.7471 27.658C45.8541 27.5509 45.9332 27.4193 45.9775 27.2745C46.0218 27.1298 46.0298 26.9764 46.0009 26.8278V26.458C45.8621 26.6391 45.6887 26.7908 45.4908 26.9043C45.2651 26.9832 45.0284 27.0262 44.7894 27.0318C44.5229 27.0291 44.2607 26.9636 44.0242 26.8405C43.8045 26.7055 43.6103 26.5328 43.4504 26.3304C43.3419 26.162 43.2705 25.9724 43.2408 25.7742C43.211 25.5761 43.2237 25.3739 43.278 25.181C43.3322 24.9881 43.4268 24.809 43.5554 24.6554C43.6841 24.5018 43.8439 24.3772 44.0242 24.29C44.2607 24.167 44.5229 24.1014 44.7894 24.0987C45.0284 24.1043 45.2651 24.1473 45.4908 24.2262C45.7023 24.3196 45.8803 24.4753 46.0009 24.6726V24.0987L46.4473 24.0859ZM44.9169 26.5727C45.1147 26.5679 45.3096 26.5246 45.4908 26.4452C45.6483 26.3516 45.7798 26.2201 45.8734 26.0626C45.9572 25.8829 46.0006 25.687 46.0006 25.4887C46.0006 25.2905 45.9572 25.0946 45.8734 24.9149C45.7982 24.744 45.6617 24.6074 45.4908 24.5323C45.3075 24.4597 45.1138 24.4166 44.9169 24.4048C44.7192 24.4096 44.5243 24.4529 44.3431 24.5323C44.2527 24.5597 44.1706 24.6089 44.1038 24.6757C44.0371 24.7424 43.9879 24.8246 43.9605 24.9149C43.8767 25.0946 43.8333 25.2905 43.8333 25.4887C43.8333 25.687 43.8767 25.8829 43.9605 26.0626C44.0356 26.2335 44.1721 26.37 44.3431 26.4452C44.5161 26.5473 44.717 26.592 44.9169 26.5727Z" fill="#46B5EE"/>
<path id="Vector_12" d="M51.6761 25.0432C51.8927 25.0955 52.091 25.2057 52.2499 25.362C52.3794 25.549 52.4464 25.7722 52.4412 25.9996C52.4449 26.1487 52.4119 26.2965 52.3452 26.4299C52.2785 26.5633 52.1801 26.6783 52.0586 26.7648C51.7327 26.9608 51.3537 27.0499 50.9746 27.0199H49.1255V23.0665H50.9109C51.2699 23.0357 51.6289 23.1254 51.9311 23.3215C52.0526 23.4081 52.151 23.5231 52.2177 23.6565C52.2844 23.7899 52.3174 23.9376 52.3137 24.0867C52.309 24.2929 52.2424 24.4929 52.1224 24.6606C52.0586 24.8519 51.8673 24.9156 51.6761 25.0432ZM49.6356 23.4491V24.9156H50.9109C51.1792 24.929 51.4455 24.8624 51.6761 24.7244C51.7589 24.6685 51.8259 24.5922 51.8706 24.5028C51.9153 24.4134 51.9361 24.314 51.9311 24.2142C51.9311 24.0229 51.8673 23.7679 51.6761 23.7041C51.4455 23.5661 51.1792 23.4995 50.9109 23.5128L49.6356 23.4491ZM50.9746 26.701C51.2639 26.7218 51.5527 26.6551 51.8036 26.5098C51.892 26.4442 51.962 26.357 52.0067 26.2564C52.0514 26.1558 52.0693 26.0454 52.0586 25.9359C52.0586 25.4258 51.6761 25.1707 50.9746 25.1707H49.6356V26.701H50.9746Z" fill="#46B5EE"/>
<path id="Vector_13" d="M56.0119 25.68H53.5379C53.5342 25.8291 53.5671 25.9769 53.6338 26.1103C53.7005 26.2437 53.799 26.3587 53.9204 26.4452C54.154 26.633 54.4506 26.7242 54.7494 26.7003C54.9407 26.7003 55.132 26.6365 55.2595 26.6365C55.4134 26.5667 55.5456 26.4565 55.6421 26.3177L55.8971 26.5727C55.7389 26.7154 55.5682 26.8434 55.387 26.9553C55.1817 27.0283 54.967 27.0713 54.7494 27.0829C54.4616 27.0876 54.177 27.0219 53.9204 26.8916C53.6718 26.7679 53.4703 26.5664 53.3466 26.3177C53.2236 26.0812 53.158 25.8191 53.1553 25.5525C53.1505 25.2851 53.2165 25.0211 53.3466 24.7873C53.4463 24.5591 53.6284 24.3769 53.8567 24.2772C54.0922 24.1516 54.355 24.0859 54.6218 24.0859C54.8887 24.0859 55.1515 24.1516 55.387 24.2772C55.5879 24.4134 55.761 24.5865 55.8971 24.7873C56.0201 25.0238 56.0857 25.286 56.0884 25.5525L56.0119 25.68ZM54.5453 24.4048C54.4173 24.3981 54.2892 24.4172 54.1687 24.461C54.0482 24.5049 53.9378 24.5725 53.8439 24.6598C53.6506 24.8434 53.5363 25.0949 53.5251 25.3612H55.6293C55.6306 25.2281 55.6027 25.0964 55.5476 24.9752C55.4926 24.854 55.4116 24.7464 55.3105 24.6598C55.2072 24.5672 55.086 24.4968 54.9544 24.4529C54.8228 24.4091 54.6835 24.3927 54.5453 24.4048Z" fill="#46B5EE"/>
<path id="Vector_14" d="M58.4349 26.8925C58.3646 26.9596 58.2758 27.004 58.1799 27.02C58.0801 27.0662 57.9709 27.088 57.8611 27.0838C57.7421 27.096 57.6219 27.0792 57.5108 27.0347C57.3998 26.9903 57.3012 26.9196 57.2234 26.8287C57.0639 26.6541 56.9733 26.4275 56.9684 26.1911V24.4057H56.4583V24.0869H56.9684V23.4492H57.2872V24.0869H58.1799V24.4057H57.2872V26.1911C57.2777 26.2603 57.2843 26.3308 57.3066 26.397C57.3289 26.4632 57.3662 26.5234 57.4156 26.5728C57.465 26.6222 57.5252 26.6595 57.5914 26.6818C57.6576 26.7041 57.7281 26.7107 57.7973 26.7012C57.8872 26.7107 57.9775 26.6881 58.0524 26.6374C58.1161 26.6374 58.1799 26.5737 58.2436 26.5099L58.4349 26.8925Z" fill="#46B5EE"/>
<path id="Vector_15" d="M60.6669 26.8925C60.5966 26.9596 60.5077 27.004 60.4118 27.02C60.3121 27.0662 60.2028 27.088 60.093 27.0838C59.974 27.096 59.8538 27.0792 59.7428 27.0347C59.6317 26.9903 59.5331 26.9196 59.4554 26.8287C59.2959 26.6541 59.2052 26.4275 59.2003 26.1911V24.4057H58.6902V24.0869H59.2003V23.4492H59.5829V24.0869H60.4756V24.4057H59.5829V26.1911C59.5734 26.2603 59.58 26.3308 59.6023 26.397C59.6246 26.4632 59.6619 26.5234 59.7113 26.5728C59.7607 26.6222 59.8208 26.6595 59.8871 26.6818C59.9533 26.7041 60.0238 26.7107 60.093 26.7012C60.1829 26.7107 60.2732 26.6881 60.3481 26.6374C60.4118 26.6374 60.4756 26.5737 60.5393 26.5099L60.6669 26.8925Z" fill="#46B5EE"/>
<path id="Vector_16" d="M63.9186 25.681H61.4318C61.4275 25.8333 61.4613 25.9844 61.5304 26.1203C61.5995 26.2562 61.7015 26.3726 61.8272 26.4589C62.0608 26.6467 62.3574 26.7379 62.6561 26.7139C62.8474 26.7139 63.0387 26.6502 63.1662 26.6502C63.3202 26.5803 63.4524 26.4702 63.5488 26.3314L63.8039 26.5864C63.6457 26.729 63.475 26.8571 63.2938 26.969C63.0979 27.0721 62.8765 27.1164 62.6561 27.0965C62.3683 27.1012 62.0838 27.0356 61.8272 26.9052C61.5785 26.7815 61.377 26.58 61.2533 26.3314C61.1303 26.0949 61.0648 25.8327 61.062 25.5662C61.0572 25.2987 61.1232 25.0348 61.2533 24.801C61.353 24.5728 61.5352 24.3906 61.7634 24.2909C61.9989 24.1653 62.2617 24.0996 62.5286 24.0996C62.7955 24.0996 63.0583 24.1653 63.2938 24.2909C63.4946 24.427 63.6677 24.6002 63.8039 24.801C63.9269 25.0375 63.9924 25.2996 63.9952 25.5662L63.9186 25.681ZM62.4521 24.4057C62.324 24.399 62.196 24.4182 62.0755 24.462C61.955 24.5058 61.8445 24.5734 61.7507 24.6607C61.5574 24.8443 61.443 25.0958 61.4318 25.3621H63.5361C63.5373 25.229 63.5094 25.0973 63.4544 24.9761C63.3993 24.8549 63.3184 24.7473 63.2172 24.6607C63.0018 24.4944 62.737 24.4047 62.4648 24.4057H62.4521Z" fill="#46B5EE"/>
<path id="Vector_17" d="M65.1303 24.6598C65.1691 24.5582 65.2289 24.4658 65.3058 24.3889C65.3827 24.312 65.475 24.2522 65.5767 24.2135C65.8024 24.1346 66.0391 24.0916 66.2781 24.0859V24.4685H66.2143C66.0761 24.4564 65.9369 24.4728 65.8053 24.5167C65.6737 24.5606 65.5525 24.631 65.4492 24.7236C65.3519 24.8367 65.279 24.9688 65.2351 25.1114C65.1912 25.2541 65.1773 25.4042 65.1941 25.5525V27.0956H64.8115V24.0987H65.1941L65.1303 24.6726V24.6598Z" fill="#46B5EE"/>
<path id="Vector_18" d="M71.3918 25.1058H71.7744V26.6361C71.586 26.8002 71.3702 26.9297 71.1368 27.0187C70.8672 27.0971 70.5885 27.1399 70.3078 27.1463C69.9301 27.1604 69.5556 27.0723 69.2238 26.8912C68.9261 26.7088 68.6663 26.4706 68.4587 26.1898C68.2912 25.8758 68.2036 25.5254 68.2036 25.1696C68.2036 24.8137 68.2912 24.4633 68.4587 24.1493C68.6299 23.8379 68.8987 23.5915 69.2238 23.4479C69.5556 23.2668 69.9301 23.1787 70.3078 23.1929C70.5885 23.1992 70.8672 23.2421 71.1368 23.3204C71.3858 23.4088 71.6062 23.563 71.7744 23.7668L71.5193 24.0218C71.3599 23.8667 71.1697 23.7468 70.961 23.6699C70.7523 23.593 70.5298 23.5609 70.3078 23.5755C69.9996 23.5708 69.6944 23.6362 69.4151 23.7668C69.1534 23.8981 68.9322 24.0978 68.775 24.3449C68.6178 24.5919 68.5305 24.8769 68.5224 25.1696C68.508 25.4672 68.5982 25.7605 68.7775 25.9985C68.9246 26.252 69.1476 26.4527 69.4151 26.5724C69.6944 26.703 69.9996 26.7684 70.3078 26.7637C70.6727 26.7653 71.0291 26.6539 71.3281 26.4449V25.1058H71.3918Z" fill="#46B5EE"/>
<path id="Vector_19" d="M73.9935 24.0229C74.1569 24.0009 74.3233 24.0184 74.4786 24.0739C74.6339 24.1293 74.7737 24.2212 74.8862 24.3417C75.1032 24.5873 75.2174 24.9069 75.205 25.2344V27.0963H74.8224V26.65C74.7587 26.7775 74.5674 26.905 74.4398 27.0326C74.2361 27.1111 74.0205 27.1543 73.8022 27.1601C73.664 27.1722 73.5248 27.1558 73.3932 27.1119C73.2616 27.068 73.1403 26.9976 73.037 26.905C72.9373 26.8315 72.8564 26.7354 72.801 26.6245C72.7456 26.5137 72.7172 26.3913 72.7182 26.2674C72.7118 26.1489 72.7314 26.0306 72.7754 25.9204C72.8195 25.8103 72.887 25.7111 72.9733 25.6297C73.2403 25.4611 73.5501 25.3726 73.866 25.3747H74.8224V25.1834C74.8305 25.0798 74.8177 24.9757 74.7849 24.8771C74.752 24.7785 74.6997 24.6875 74.6311 24.6095C74.4486 24.4709 74.2222 24.403 73.9935 24.4182C73.8022 24.4182 73.6109 24.482 73.4196 24.482C73.3316 24.4912 73.2465 24.5186 73.1696 24.5625C73.0928 24.6065 73.0259 24.6659 72.9733 24.737L72.782 24.4182C72.9409 24.2619 73.1392 24.1517 73.3559 24.0994C73.4834 24.0866 73.7384 24.0229 73.9935 24.0229ZM73.8022 26.7647C74.0008 26.7675 74.1973 26.7238 74.3761 26.6372C74.5366 26.5203 74.6676 26.3674 74.7587 26.1909V25.6808H73.8022C73.2921 25.6808 73.037 25.872 73.037 26.1909C73.0348 26.2747 73.0507 26.358 73.0837 26.435C73.1168 26.5121 73.1661 26.581 73.2283 26.6372C73.4117 26.7098 73.6054 26.7529 73.8022 26.7647Z" fill="#46B5EE"/>
<path id="Vector_20" d="M79.9874 24.023C80.3149 24.0106 80.6346 24.1248 80.8801 24.3418C81.1088 24.6059 81.2234 24.9498 81.1989 25.2983V27.0199H80.8164V25.2983C80.8343 25.1694 80.8205 25.0381 80.776 24.9159C80.7315 24.7936 80.6578 24.6841 80.5613 24.5969C80.4836 24.506 80.3849 24.4353 80.2739 24.3908C80.1628 24.3464 80.0426 24.3296 79.9237 24.3418C79.785 24.3214 79.6434 24.3338 79.5103 24.3778C79.3773 24.4219 79.2563 24.4965 79.1572 24.5956C79.0581 24.6947 78.9835 24.8156 78.9395 24.9487C78.8954 25.0818 78.8831 25.2233 78.9034 25.362V26.9561H78.5208V25.2345C78.5388 25.1056 78.525 24.9744 78.4805 24.8521C78.436 24.7298 78.3623 24.6203 78.2658 24.5331C78.1881 24.4422 78.0894 24.3715 77.9784 24.3271C77.8673 24.2827 77.7471 24.2658 77.6282 24.278C77.4895 24.2577 77.3479 24.27 77.2148 24.3141C77.0818 24.3581 76.9608 24.4327 76.8617 24.5318C76.7626 24.6309 76.688 24.7519 76.6439 24.885C76.5999 25.018 76.5875 25.1596 76.6079 25.2983V26.8924H76.2253V23.9082H76.6079V24.4821C76.7232 24.3032 76.8754 24.151 77.0543 24.0357C77.2563 23.9515 77.473 23.9082 77.6919 23.9082C77.9108 23.9082 78.1275 23.9515 78.3296 24.0357C78.5085 24.151 78.6607 24.3032 78.7759 24.4821C78.8912 24.3032 79.0433 24.151 79.2223 24.0357C79.4768 24.0635 79.7339 24.0592 79.9874 24.023Z" fill="#46B5EE"/>
<path id="Vector_21" d="M84.9609 25.6812H82.4741C82.4697 25.8336 82.5036 25.9846 82.5726 26.1205C82.6417 26.2564 82.7437 26.3728 82.8694 26.4591C83.103 26.6469 83.3996 26.7382 83.6984 26.7142C83.8896 26.7142 84.0809 26.6504 84.2085 26.6504C84.3624 26.5806 84.4946 26.4704 84.591 26.3316L84.8461 26.5867C84.6879 26.7293 84.5172 26.8573 84.336 26.9692C84.1402 27.0723 83.9187 27.1166 83.6984 27.0968C83.4106 27.1015 83.126 27.0358 82.8694 26.9055C82.6207 26.7818 82.4192 26.5803 82.2955 26.3316C82.1725 26.0951 82.107 25.833 82.1042 25.5664C82.0995 25.299 82.1654 25.035 82.2955 24.8013C82.4129 24.5857 82.5901 24.4085 82.8057 24.2911C83.0394 24.1611 83.3034 24.0951 83.5708 24.0999C83.8374 24.1026 84.0995 24.1681 84.336 24.2911C84.5368 24.4273 84.71 24.6004 84.8461 24.8013C84.9691 25.0377 85.0346 25.2999 85.0374 25.5664L84.9609 25.6812ZM83.4943 24.4059C83.3663 24.3993 83.2382 24.4184 83.1177 24.4622C82.9972 24.506 82.8867 24.5736 82.7929 24.661C82.5996 24.8445 82.4853 25.0961 82.4741 25.3624H84.5783C84.5796 25.2293 84.5517 25.0975 84.4966 24.9764C84.4415 24.8552 84.3606 24.7475 84.2595 24.661C84.0484 24.4865 83.7807 24.3958 83.5071 24.4059H83.4943Z" fill="#46B5EE"/>
<path id="Vector_22" d="M86.555 27.0956C86.3166 27.0842 86.0808 27.0413 85.8536 26.9681C85.6774 26.896 85.5069 26.8108 85.3435 26.7131L85.5348 26.3942C85.6754 26.4929 85.8248 26.5783 85.9811 26.6493C86.1676 26.7019 86.3615 26.7234 86.555 26.7131C86.7536 26.7158 86.9501 26.6721 87.1289 26.5855C87.1953 26.5481 87.2489 26.4916 87.283 26.4235C87.3171 26.3553 87.33 26.2785 87.3202 26.2029C87.3192 26.1536 87.3073 26.1051 87.2852 26.061C87.2632 26.0169 87.2316 25.9782 87.1927 25.9479C87.1224 25.8808 87.0335 25.8363 86.9376 25.8204C86.7962 25.7634 86.643 25.7415 86.4913 25.7566C86.2971 25.728 86.1053 25.6854 85.9174 25.6291C85.776 25.5669 85.6466 25.4806 85.5348 25.374C85.4814 25.3139 85.4422 25.2426 85.4202 25.1654C85.3981 25.0881 85.3937 25.0069 85.4073 24.9277C85.4134 24.8051 85.4449 24.6851 85.4997 24.5754C85.5546 24.4656 85.6317 24.3684 85.7261 24.29C85.981 24.0959 86.2997 24.0048 86.6188 24.035C86.8123 24.0246 87.0062 24.0461 87.1927 24.0987C87.3507 24.1382 87.5014 24.2028 87.639 24.29L87.4477 24.6088C87.1856 24.4294 86.8724 24.3399 86.555 24.3538C86.3564 24.351 86.1599 24.3947 85.9811 24.4813C85.9148 24.5188 85.8611 24.5752 85.827 24.6434C85.793 24.7115 85.78 24.7883 85.7899 24.8639C85.7908 24.9132 85.8027 24.9617 85.8248 25.0058C85.8469 25.05 85.8785 25.0886 85.9174 25.119C85.9877 25.1861 86.0765 25.2305 86.1724 25.2465C86.3139 25.3035 86.467 25.3254 86.6188 25.3102C86.8129 25.3388 87.0047 25.3815 87.1927 25.4378C87.334 25.5 87.4635 25.5863 87.5753 25.6928C87.6286 25.7529 87.6678 25.8242 87.6899 25.9015C87.712 25.9787 87.7164 26.06 87.7028 26.1392C87.6967 26.2617 87.6652 26.3817 87.6103 26.4915C87.5554 26.6012 87.4783 26.6984 87.384 26.7768C87.2564 27.0191 86.9376 27.0956 86.555 27.0956Z" fill="#46B5EE"/>
<path id="Vector_23" d="M19.4114 0.430033L7.55124 2.40672C6.24428 2.63696 5.01966 3.20316 3.99765 4.04973C2.97565 4.8963 2.19139 5.99411 1.72189 7.23538C1.2524 8.47665 1.11381 9.81869 1.31973 11.1297C1.52566 12.4407 2.06902 13.6756 2.89646 14.7132L9.78299 23.6402C13.3538 28.2312 20.3041 27.6573 22.6633 22.4287L27.7007 10.8236C30.2513 5.21234 25.5327 -0.590194 19.4114 0.430033ZM19.4751 18.539C18.5147 18.9756 17.4693 19.1934 16.4145 19.1767C15.1734 19.2052 13.9452 18.9201 12.8437 18.3478C11.8149 17.8031 10.9549 16.9872 10.3569 15.9885C9.77116 14.9354 9.46377 13.7503 9.46377 12.5452C9.46377 11.3402 9.77116 10.1551 10.3569 9.10196C10.97 8.11545 11.8263 7.30305 12.8437 6.74268C13.8495 6.21572 14.9582 5.91423 16.0924 5.85917C17.2266 5.80411 18.3592 5.99681 19.4114 6.42386C20.3033 6.80583 21.0905 7.39624 21.7069 8.14549L19.794 9.93089C19.4003 9.44947 18.904 9.06219 18.3413 8.79741C17.7786 8.53262 17.1638 8.39702 16.542 8.40055C15.7899 8.40295 15.0483 8.57744 14.374 8.91066C13.7522 9.2455 13.2423 9.75541 12.9074 10.3772C12.5673 11.049 12.3924 11.7923 12.3973 12.5452C12.4128 13.263 12.6103 13.9651 12.9712 14.5857C13.306 15.2075 13.8159 15.7174 14.4378 16.0522C15.1095 16.3924 15.8528 16.5673 16.6058 16.5624C17.2276 16.5659 17.8424 16.4303 18.4051 16.1655C18.9677 15.9007 19.4641 15.5134 19.8577 15.032L21.7706 16.8174C21.1542 17.5667 20.367 18.1571 19.4751 18.539Z" fill="#46B5EE"/>
</g>
</g>
<defs>
<clipPath id="clip0_461_605">
<rect width="86.9474" height="28" fill="white" transform="translate(0.882812 0.273438)"/>
</clipPath>
</defs>
</svg>
