<svg width="113" height="23" viewBox="0 0 113 23" fill="none" xmlns="http://www.w3.org/2000/svg">
<g id="Charismatic" clip-path="url(#clip0_473_209)">
<path id="Vector" d="M1.83437 6.10471C-1.77366 12.8829 2.15625 20.9672 9.70916 22.0901C11.2373 22.3578 12.8026 22.3298 14.3202 22.0077C19.242 20.941 21.0947 17.1796 21.1845 16.5133C21.2331 16.1391 20.9861 16.6743 20.6792 17.1159C20.1477 17.8645 19.8333 18.2051 18.7255 18.9873C15.9296 20.941 13.1113 20.8325 10.5326 19.9567C8.88508 19.3553 7.45253 18.2796 6.41552 16.8652C4.94087 14.8628 4.40191 12.6733 5.07187 10.2816H5.19163C5.19163 10.4201 5.19163 10.5586 5.19163 10.6971C5.12954 11.9807 5.36391 13.2614 5.87656 14.4399C6.54822 15.952 7.66612 17.2227 9.08037 18.0816C10.5415 19.0178 12.2626 19.4648 13.9946 19.3579C14.9223 19.2787 15.835 19.0747 16.7081 18.7515C18.6881 17.7672 16.4387 18.5494 15.3083 18.6392C14.4401 18.7626 13.5596 18.7739 12.6884 18.6729C9.65302 18.2987 7.50467 16.4759 6.32569 13.7699C5.98585 13.0005 5.80194 12.1713 5.78459 11.3304C5.76725 10.4894 5.91681 9.65339 6.22464 8.87061C6.58536 7.87338 7.16545 6.96989 7.92208 6.22686C8.67872 5.48383 9.59258 4.92022 10.5962 4.57766C10.9967 4.4242 11.3971 4.26326 11.7901 4.0911C11.8996 4.02557 12.0002 3.94633 12.0896 3.8553C12.2093 3.7505 12.0484 3.78419 12.0297 3.7505C11.6747 3.765 11.3223 3.81643 10.978 3.90396C9.77967 4.11673 8.64416 4.59488 7.65461 5.30337C6.66506 6.01185 5.84654 6.93273 5.259 7.99855C4.3427 9.58156 4.01901 11.4388 4.34577 13.2384C4.55994 14.5037 5.04208 15.7087 5.75987 16.7724C6.47767 17.8362 7.41455 18.7343 8.50773 19.4065C8.82961 19.6161 9.1702 19.7808 9.50331 19.9904L9.46588 20.069C8.92692 19.8257 8.37299 19.6161 7.85649 19.3204C6.076 18.4144 4.64836 16.9406 3.79932 15.1323C3.04847 13.5732 2.80125 11.8191 3.09194 10.1132C3.43869 8.09782 4.46497 6.26187 6.00007 4.91076C9.10283 2.06626 12.0184 2.32451 12.2767 2.33199C14.7769 2.39562 16.7269 3.21529 18.6955 4.6338C19.3243 5.14656 19.8932 5.45721 19.4441 4.89205C18.3989 3.77916 17.1065 2.92782 15.6714 2.40685C11.8725 1.02202 9.04669 2.12614 8.75475 2.22345C7.08723 2.76858 5.59938 3.75703 4.45057 5.08293C3.57915 6.01222 2.91456 7.11562 2.50058 8.32043C2.46415 8.40331 2.42161 8.48337 2.37333 8.55996C2.2573 7.92369 3.62716 5.56575 4.83607 4.34935C5.9589 3.20406 8.48527 1.81923 9.70167 1.5797C12.4489 0.883541 14.5261 1.06694 17.0487 2.35071C19.0586 3.37248 20.0691 4.35309 21.0273 5.91757C21.3754 6.48273 21.1433 5.80903 20.9674 5.44224C19.5863 2.43679 16.1916 0.62529 12.9279 0.322126C8.67241 -0.067122 4.09126 1.87912 1.83437 6.10471ZM5.71188 18.8002C9.38354 21.7308 14.979 21.2779 16.3264 20.8213C14.1631 21.8243 10.3903 21.9441 7.34373 20.316C4.0164 18.5419 2.42198 15.5065 2.18619 13.5229C2.7565 15.6185 3.99423 17.4711 5.71188 18.8002Z" fill="white"/>
<path id="Vector_2" d="M68.0775 17.7342H67.5759V6.17275C67.7191 6.15964 67.8632 6.15964 68.0063 6.17275C68.07 6.17275 68.1299 6.28503 68.1635 6.35614C69.3537 8.93117 70.5402 11.5074 71.7229 14.085L73.0029 16.8621C73.0329 16.9257 73.0666 16.9893 73.119 17.0904C73.3398 16.6113 73.5419 16.1659 73.7478 15.7243C75.1625 12.6552 76.576 9.5849 77.9883 6.51334C78.1717 6.1166 78.168 6.1166 78.6358 6.18397V17.7304H78.138V7.49394H78.0856C77.8536 7.99547 77.6253 8.50075 77.3932 8.99105C76.0857 11.8405 74.7795 14.6888 73.4745 17.5358C73.449 17.6116 73.3973 17.6758 73.3287 17.7169C73.2601 17.758 73.1791 17.7734 73.1003 17.7604C73.0252 17.7691 72.9494 17.7515 72.8859 17.7106C72.8224 17.6696 72.7751 17.6078 72.7522 17.5358C71.2551 14.2546 69.748 10.9735 68.2309 7.69231C68.1961 7.60546 68.1424 7.52746 68.0737 7.464L68.0775 17.7342Z" fill="white"/>
<path id="Vector_3" d="M73.0817 17.7981C73.0005 17.8026 72.9201 17.7805 72.8526 17.7353C72.7851 17.6901 72.7341 17.6241 72.7074 17.5473C71.3675 14.6204 70.0014 11.6487 68.6765 8.77424L68.1862 7.70755C68.1656 7.65914 68.1405 7.61278 68.1113 7.56907V17.7793H67.5237V6.13184H67.6884C67.7929 6.12058 67.8983 6.12058 68.0028 6.13184C68.0888 6.15056 68.1562 6.27033 68.1899 6.34144C69.153 8.42242 70.1112 10.5034 71.0643 12.5844L71.7493 14.0815L73.0368 16.8511L73.1042 16.9859L74.9231 13.0373C75.9212 10.8565 76.9255 8.67319 77.9361 6.48741C78.127 6.07196 78.1457 6.06448 78.6285 6.13559H78.6659V17.7382H78.082V7.55784L76.6897 10.5895C75.6418 12.8688 74.5601 15.2268 73.5009 17.551C73.4729 17.6339 73.4168 17.7044 73.3423 17.7502C73.2677 17.796 73.1795 17.8143 73.0929 17.8018C73.0929 17.8018 73.1004 17.7981 73.0817 17.7981ZM68.0364 7.36696L68.1076 7.42684C68.182 7.49357 68.2397 7.57692 68.276 7.67012L68.7663 8.73681C70.0875 11.6113 71.4573 14.6055 72.7972 17.5099C72.8162 17.5734 72.8571 17.6282 72.9125 17.6645C72.968 17.7008 73.0346 17.7163 73.1004 17.7082C73.171 17.7206 73.2437 17.707 73.305 17.6698C73.3662 17.6326 73.4119 17.5745 73.4335 17.5061C74.4927 15.1819 75.5781 12.8239 76.6224 10.5446L78.0558 7.41936L78.1756 7.44556V17.6858H78.5911V6.2329C78.1943 6.17301 78.1906 6.18424 78.0259 6.53981L75.013 13.1084L73.1416 17.2254L73.0555 17.057C73.0293 17.0046 73.0068 16.9634 72.9881 16.9185L71.7081 14.1414L71.0232 12.6443L68.13 6.37138C68.0888 6.2853 68.0364 6.21793 68.0028 6.21044C67.9045 6.19915 67.8053 6.19915 67.7071 6.21044H67.6247V17.697H68.0402V7.36696H68.0364Z" fill="white"/>
<path id="Vector_4" d="M46.216 6.13138C47.4529 6.11679 48.6897 6.16677 49.9213 6.28109C50.4024 6.34422 50.8609 6.52331 51.2574 6.80293C51.6539 7.08256 51.9765 7.45435 52.1974 7.88631C52.4184 8.31826 52.5311 8.79744 52.5258 9.28259C52.5205 9.76774 52.3973 10.2443 52.167 10.6714C51.9584 11.0517 51.673 11.3845 51.329 11.6487C50.9849 11.9129 50.5897 12.1026 50.1683 12.2059L49.8764 12.292C51.7852 13.4485 52.6236 15.2862 53.1027 17.3335C53.1289 17.442 53.1438 17.5543 53.1663 17.6628C53.1703 17.6914 53.1703 17.7204 53.1663 17.7489C53.0704 17.7415 52.974 17.7415 52.8781 17.7489C52.7284 17.7676 52.6723 17.7078 52.6423 17.5618C52.4837 16.8016 52.2323 16.0637 51.8938 15.3648C51.4656 14.4301 50.8248 13.6085 50.0224 12.9657C49.5407 12.5669 48.9293 12.3591 48.3044 12.3818C47.7767 12.3818 47.249 12.3818 46.6876 12.3818V17.7377H46.2085C46.216 13.8827 46.216 10.0388 46.216 6.13138ZM46.725 6.64414V11.9027C46.7512 11.9027 46.7624 11.9289 46.7737 11.9289C47.7131 11.9289 48.645 11.9589 49.5845 11.8803C50.0207 11.8606 50.4436 11.7245 50.8095 11.4863C51.1754 11.2481 51.471 10.9163 51.6655 10.5254C51.8536 10.1708 51.9578 9.77774 51.9699 9.37651C51.9821 8.97528 51.9019 8.57663 51.7355 8.21132C51.5691 7.84601 51.321 7.52382 51.0104 7.26961C50.6997 7.0154 50.3348 6.83598 49.9438 6.74519C49.7284 6.68878 49.5075 6.65615 49.2851 6.64788C48.4392 6.63665 47.5896 6.64414 46.725 6.64414Z" fill="white"/>
<path id="Vector_5" d="M52.8259 17.7971C52.6986 17.7971 52.6312 17.7297 52.5976 17.5725C52.4397 16.8157 52.1883 16.0814 51.849 15.3867C51.4273 14.4596 50.7956 13.6433 50.0038 13.0026C49.5315 12.6088 48.9303 12.4035 48.3158 12.4262C47.9416 12.4262 47.5935 12.4262 47.2155 12.4262H46.7439V17.7783H46.1562V6.08594H46.2012C46.5754 6.08594 46.9871 6.08594 47.3689 6.10465C48.218 6.09405 49.0668 6.1378 49.9102 6.23565C50.3905 6.29678 50.8487 6.47344 51.2457 6.75048C51.6427 7.02752 51.9666 7.39668 52.1896 7.82633C52.4201 8.26764 52.5405 8.75816 52.5405 9.25606C52.5405 9.75397 52.4201 10.2445 52.1896 10.6858C51.9804 11.073 51.6919 11.4118 51.3431 11.68C50.9942 11.9483 50.5927 12.1401 50.1648 12.2428L49.9664 12.3027C51.5795 13.3095 52.5564 14.8627 53.129 17.3217C53.1515 17.4153 53.1665 17.5126 53.1814 17.6062V17.6548C53.185 17.6746 53.185 17.6949 53.1814 17.7147C53.1829 17.7272 53.1829 17.7397 53.1814 17.7522V17.7896H53.0542C52.9907 17.7839 52.9268 17.7839 52.8633 17.7896L52.8259 17.7971ZM48.4319 12.3588C49.0328 12.3624 49.6142 12.5726 50.0787 12.9539C50.8813 13.6025 51.522 14.429 51.9501 15.368C52.2898 16.0703 52.5412 16.8121 52.6986 17.5762C52.7248 17.711 52.7697 17.7447 52.8857 17.7297C52.953 17.7241 53.0206 17.7241 53.0879 17.7297H53.1403C53.1415 17.7198 53.1415 17.7097 53.1403 17.6998V17.6511C53.1403 17.5575 53.1103 17.464 53.0879 17.3741C52.5077 14.8964 51.5196 13.3507 49.8803 12.3588L49.798 12.3102L49.9814 12.2578L50.1835 12.1979C50.5986 12.0999 50.9885 11.916 51.3282 11.6582C51.6679 11.4003 51.9499 11.0742 52.1559 10.7008C52.3815 10.2713 52.4993 9.79353 52.4993 9.30846C52.4993 8.82339 52.3815 8.34559 52.1559 7.91615C51.9392 7.49846 51.6244 7.13959 51.2384 6.87036C50.8525 6.60112 50.407 6.42956 49.9402 6.37039C49.1005 6.27255 48.2554 6.22879 47.4101 6.23939C47.0358 6.23939 46.6615 6.23939 46.2872 6.22068V17.6998H46.7027V12.3588H47.2566C47.6309 12.3588 48.0052 12.3588 48.3533 12.3588H48.4319ZM48.0576 11.9845H46.785C46.7672 11.984 46.75 11.9774 46.7364 11.9658H46.7139V6.60244H47.4625C48.0726 6.60244 48.7013 6.60244 49.3339 6.60244C49.5601 6.60945 49.7849 6.64209 50.0038 6.69975C50.4004 6.79222 50.7706 6.97448 51.0856 7.23251C51.4007 7.49054 51.6524 7.81745 51.8212 8.18806C51.9901 8.55866 52.0716 8.96308 52.0596 9.37016C52.0475 9.77725 51.9422 10.1761 51.7517 10.5361C51.554 10.9333 51.2537 11.2705 50.8819 11.5127C50.5101 11.7548 50.0803 11.8932 49.637 11.9134C49.0794 11.9621 48.5591 11.9845 48.0501 11.9845H48.0576ZM46.7738 11.891H47.6309C48.2747 11.891 48.9446 11.891 49.5921 11.8423C50.0223 11.8197 50.4384 11.682 50.7972 11.4437C51.156 11.2054 51.4443 10.8751 51.6319 10.4874C51.8171 10.1389 51.9197 9.75251 51.9318 9.35804C51.9439 8.96357 51.8651 8.5716 51.7016 8.2124C51.5381 7.85321 51.2942 7.5364 50.9888 7.28645C50.6834 7.0365 50.3246 6.8601 49.9402 6.77086C49.7275 6.71372 49.509 6.68107 49.2889 6.67355C48.6751 6.67355 48.0725 6.67355 47.4176 6.67355H46.7701V11.876L46.7738 11.891Z" fill="white"/>
<path id="Vector_6" d="M31.9111 11.6931V6.1875H32.4052V17.7339H32.2218H31.9111V12.1797H23.9914V17.7339H23.4824V6.1875H23.9802V11.6969L31.9111 11.6931Z" fill="white"/>
<path id="Vector_7" d="M32.0983 17.7901H31.87V12.2208H24.0513V17.7751H23.4375V6.14258H24.0176V11.6482H31.8774V6.14258H32.4538V17.7714H32.3565H32.2293L32.0983 17.7901ZM31.956 17.7077H32.218H32.3415H32.364V6.22866H31.956V11.7343H23.9353V6.22866H23.5236V17.6928H23.9503V12.1348H31.956V17.7077Z" fill="white"/>
<path id="Vector_8" d="M90.2385 17.7343C89.6808 17.7792 89.6808 17.7792 89.4899 17.3001C89.067 16.1773 88.6366 15.0769 88.2174 13.9653C88.2037 13.894 88.1629 13.8308 88.1036 13.7889C88.0443 13.747 87.971 13.7298 87.8993 13.7407C86.3049 13.7407 84.7104 13.7407 83.116 13.7407C83.0518 13.7319 82.9866 13.7478 82.9337 13.7854C82.8808 13.8229 82.8443 13.8793 82.8316 13.9429C82.3937 15.1143 81.9445 16.2783 81.5141 17.4536C81.428 17.6856 81.3232 17.8017 81.0687 17.753C80.9877 17.7467 80.9064 17.7467 80.8254 17.753C80.8591 17.6557 80.8816 17.5808 80.9115 17.506C82.3225 13.8081 83.7411 10.114 85.1409 6.4124C85.2382 6.15415 85.4028 6.19907 85.5862 6.18035C85.7696 6.16164 85.8408 6.24398 85.9006 6.40492C87.3054 10.0878 88.7127 13.7707 90.1225 17.4536L90.2385 17.7343ZM87.9666 13.2692L85.5338 6.85779L83.0861 13.2692H87.9666Z" fill="white"/>
<path id="Vector_9" d="M81.1811 17.8041H81.0688C81.0239 17.8041 80.979 17.8041 80.9266 17.8041H80.7769L80.8293 17.6544C80.848 17.5983 80.8629 17.5496 80.8817 17.501L81.7238 15.2965C82.8466 12.3846 83.9694 9.37541 85.0923 6.4074C85.1159 6.32484 85.1689 6.25377 85.2413 6.20758C85.3137 6.16139 85.4004 6.14327 85.4853 6.15663H85.5751C85.7884 6.13792 85.867 6.23523 85.9494 6.41114C87.0622 9.32551 88.1751 12.2399 89.2879 15.1542L90.1675 17.4598C90.1937 17.5234 90.2161 17.587 90.2423 17.6582L90.2947 17.8041H90.2386C89.6584 17.849 89.6435 17.8416 89.4563 17.3438L89.0821 16.3968C88.7826 15.6146 88.472 14.8062 88.1726 14.0052C88.1616 13.9432 88.1269 13.8879 88.076 13.8509C88.025 13.8139 87.9617 13.7981 87.8993 13.8068C86.4696 13.8068 84.9051 13.8068 83.1123 13.8068C83.0575 13.7991 83.0017 13.8126 82.9565 13.8446C82.9113 13.8766 82.88 13.9247 82.8691 13.979C82.6894 14.4618 82.4948 14.9484 82.3226 15.4312C82.0681 16.1049 81.8024 16.8011 81.5516 17.4897C81.4842 17.6656 81.3869 17.8041 81.1811 17.8041ZM80.8891 17.6956H80.9415C80.9938 17.6897 81.0465 17.6897 81.0987 17.6956C81.3083 17.7368 81.4056 17.6656 81.4955 17.4224C81.7462 16.7337 82.012 16.0375 82.2665 15.3638C82.4499 14.881 82.6408 14.3982 82.8129 13.9116C82.8298 13.841 82.8717 13.779 82.9309 13.737C82.9901 13.695 83.0626 13.6759 83.1348 13.6833C84.9238 13.6833 86.5033 13.6833 87.9181 13.6833C87.9979 13.6742 88.0782 13.6952 88.1433 13.7423C88.2085 13.7894 88.2536 13.8592 88.2699 13.9378C88.5693 14.7351 88.88 15.5435 89.1794 16.3295L89.5536 17.2764C89.7183 17.7106 89.7258 17.7255 90.1974 17.6881V17.6469C90.1712 17.5758 90.1488 17.5122 90.1226 17.4486L89.2393 15.143C88.1239 12.2286 87.0111 9.31428 85.9007 6.39991C85.8446 6.2502 85.7922 6.18283 85.6312 6.20154H85.5377C85.3917 6.20154 85.2944 6.20154 85.2195 6.39991C84.0967 9.36418 82.9439 12.3883 81.8323 15.289L80.9415 17.5084C80.9228 17.5571 80.9079 17.602 80.8891 17.6582C80.892 17.6705 80.892 17.6833 80.8891 17.6956ZM88.0266 13.3091H83.0225L83.045 13.2529L85.5339 6.74424L85.5751 6.84904L88.0266 13.3091ZM83.161 13.2267H87.9031L85.5339 6.9763L83.161 13.2267Z" fill="white"/>
<path id="Vector_10" d="M44.0116 17.7329C43.4577 17.7741 43.4577 17.7741 43.2631 17.3062C42.8326 16.1834 42.3985 15.0606 41.9718 13.9377C41.9583 13.8778 41.9226 13.8252 41.872 13.7905C41.8213 13.7558 41.7593 13.7415 41.6986 13.7506C40.0967 13.7506 38.491 13.7506 36.8891 13.7506C36.825 13.7415 36.7597 13.7568 36.7063 13.7935C36.6529 13.8303 36.6153 13.8858 36.6009 13.949C36.1718 15.1067 35.7351 16.262 35.291 17.4148C35.13 17.834 35.2498 17.7479 34.7969 17.7591H34.6023C34.6322 17.6655 34.6547 17.5907 34.6846 17.5158C36.0994 13.818 37.5117 10.1201 38.9215 6.42225C38.9888 6.25009 39.0674 6.17149 39.2546 6.1902C39.4417 6.20892 39.5877 6.16026 39.685 6.41477C41.0898 10.1151 42.5008 13.8142 43.918 17.5121C43.9555 17.5607 43.9779 17.6393 44.0116 17.7329ZM41.7398 13.2416C40.9313 11.1082 40.1304 8.99728 39.307 6.83396L36.8629 13.2603L41.7398 13.2416Z" fill="white"/>
<path id="Vector_11" d="M43.7047 17.7942C43.424 17.7942 43.3828 17.7044 43.2369 17.3226L42.9337 16.5292C42.6081 15.6833 42.2712 14.8075 41.9493 13.9429C41.9393 13.8911 41.9094 13.8453 41.8661 13.8152C41.8227 13.7851 41.7693 13.7732 41.7173 13.782C39.9919 13.782 38.4199 13.782 36.9078 13.782C36.8525 13.7741 36.7963 13.7875 36.7504 13.8194C36.7046 13.8514 36.6726 13.8995 36.6608 13.9541C36.2004 15.1893 35.7738 16.3233 35.3508 17.4199L35.2797 17.5996C35.2161 17.7905 35.1974 17.8017 34.9915 17.798H34.8044H34.6771H34.5461L34.5911 17.6595C34.5911 17.6033 34.6247 17.5509 34.6435 17.4985L35.4968 15.2529C36.6271 12.3011 37.75 9.34804 38.8653 6.39375C38.8817 6.31038 38.93 6.23672 38.9999 6.18847C39.0698 6.14022 39.1558 6.12121 39.2396 6.1355H39.3294C39.4111 6.12438 39.4941 6.14329 39.5629 6.18872C39.6318 6.23415 39.6818 6.30301 39.7037 6.38252C40.8003 9.27942 41.9269 12.2212 43.016 15.0657L43.9368 17.4761L43.9929 17.637L44.0378 17.7755H43.9817C43.8898 17.787 43.7973 17.7932 43.7047 17.7942ZM41.7135 13.6772C41.783 13.6689 41.853 13.6864 41.9103 13.7264C41.9676 13.7665 42.0081 13.8262 42.0242 13.8943C42.3498 14.7588 42.6867 15.6346 43.0085 16.4805L43.3117 17.274C43.4726 17.7007 43.4801 17.7156 43.948 17.6782V17.6445C43.948 17.5884 43.9143 17.536 43.8956 17.4873L42.9749 15.077C41.8857 12.2325 40.7629 9.29065 39.6625 6.39375C39.5951 6.21035 39.5016 6.20661 39.3631 6.20287H39.2658C39.1123 6.20287 39.0412 6.23655 38.9776 6.40498C37.8523 9.35927 36.7294 12.3123 35.6091 15.2641L34.7557 17.5098C34.7557 17.5584 34.7221 17.6108 34.7033 17.6632V17.6969H34.7258H34.8418H35.0327C35.1862 17.6969 35.1899 17.6969 35.2386 17.5547C35.2386 17.5098 35.2722 17.4536 35.3022 17.3825C35.7251 16.2821 36.1518 15.1369 36.6122 13.9167C36.6291 13.8454 36.6716 13.7828 36.7316 13.7407C36.7916 13.6986 36.865 13.68 36.9378 13.6884C38.4349 13.6884 40.0181 13.6884 41.7472 13.6884L41.7135 13.6772ZM41.8034 13.3029H36.803L39.3107 6.74557L41.8034 13.3029ZM36.9378 13.2168H41.6911L39.3219 6.97388L36.9378 13.2168Z" fill="white"/>
<path id="Vector_12" d="M112.703 16.2405C112.716 16.4224 112.716 16.6051 112.703 16.787C112.673 16.8725 112.613 16.9443 112.534 16.9891C111.547 17.618 110.395 17.9385 109.226 17.9098C106.924 17.8761 105.142 16.8805 104.042 14.8669C102.373 11.8128 103.533 7.43004 107.523 6.25855C108.338 6.00823 109.198 5.93318 110.045 6.03832C110.892 6.14346 111.707 6.42641 112.437 6.86862C112.536 6.90711 112.618 6.97933 112.668 7.07249C112.719 7.16565 112.735 7.27375 112.714 7.37764C112.706 7.47855 112.706 7.5799 112.714 7.68081C111.998 7.11084 111.151 6.72708 110.251 6.56381C109.35 6.40054 108.423 6.46283 107.553 6.74511C106.386 7.10369 105.385 7.86679 104.73 8.89721C104.048 9.98279 103.751 11.2664 103.887 12.5414C104.023 13.8164 104.583 15.0086 105.479 15.9261C106.453 16.8211 107.712 17.3435 109.033 17.401C110.355 17.4585 111.654 17.0475 112.703 16.2405Z" fill="white"/>
<path id="Vector_13" d="M109.308 17.9733H109.214C106.845 17.9396 105.097 16.9104 103.974 14.908C103.538 14.098 103.286 13.2011 103.237 12.2821C103.189 11.3631 103.345 10.4448 103.694 9.59325C104.026 8.7801 104.541 8.05382 105.197 7.46998C105.854 6.88613 106.635 6.4602 107.481 6.22476C108.303 5.97169 109.168 5.89554 110.021 6.00134C110.874 6.10715 111.695 6.39249 112.429 6.83857C112.537 6.88044 112.626 6.95912 112.681 7.06057C112.736 7.16203 112.753 7.27967 112.729 7.3925C112.723 7.45225 112.723 7.51241 112.729 7.57216C112.729 7.60958 112.729 7.64701 112.729 7.69193V7.77801L112.661 7.72561C111.949 7.16631 111.11 6.7908 110.219 6.6322C109.327 6.47359 108.41 6.53675 107.549 6.81612C106.391 7.17265 105.398 7.93042 104.749 8.95324C104.074 10.0316 103.78 11.3058 103.916 12.5711C104.052 13.8364 104.609 15.0193 105.498 15.9298C107.347 17.7338 110.629 17.8723 112.658 16.2254L112.725 16.1693V16.2591C112.725 16.3228 112.725 16.3826 112.725 16.4388C112.736 16.5633 112.736 16.6886 112.725 16.8131C112.694 16.9111 112.627 16.9938 112.538 17.0451C111.57 17.6531 110.451 17.9748 109.308 17.9733ZM109.308 6.04511C108.704 6.04799 108.104 6.13748 107.526 6.31084C106.691 6.54084 105.92 6.95891 105.271 7.53304C104.622 8.10717 104.113 8.82213 103.784 9.6232C103.44 10.4629 103.287 11.3682 103.335 12.2742C103.383 13.1801 103.63 14.0643 104.061 14.8631C105.138 16.8355 106.871 17.8573 109.211 17.8835H109.304C110.435 17.8929 111.544 17.5744 112.497 16.9665C112.564 16.9216 112.639 16.8505 112.646 16.7943C112.659 16.6699 112.659 16.5445 112.646 16.4201C112.648 16.3889 112.648 16.3577 112.646 16.3265C111.6 17.126 110.301 17.5244 108.986 17.4493C107.664 17.4091 106.402 16.8843 105.442 15.9747C103.372 13.9573 103.436 10.7348 104.693 8.88961C105.354 7.85155 106.362 7.08214 107.538 6.71881C108.397 6.43851 109.312 6.37144 110.203 6.52336C111.095 6.67528 111.936 7.04164 112.654 7.59087V7.56093C112.646 7.49628 112.646 7.43095 112.654 7.3663C112.688 7.15671 112.62 7.02946 112.396 6.9022C111.462 6.33892 110.394 6.03646 109.304 6.02639L109.308 6.04511Z" fill="white"/>
<path id="Vector_14" d="M64.5969 7.41521C64.1758 7.16489 63.7396 6.94113 63.2906 6.74525C62.4837 6.42723 61.5862 6.42723 60.7792 6.74525C60.4457 6.86175 60.148 7.06256 59.9151 7.32817C59.6822 7.59377 59.522 7.91513 59.45 8.26099C59.378 8.60685 59.3968 8.96545 59.5044 9.30191C59.6121 9.63838 59.805 9.94126 60.0644 10.1811C60.2776 10.3894 60.5107 10.5762 60.7605 10.7388C61.6999 11.3713 62.6544 11.9776 63.5863 12.6102C64.1849 12.974 64.6397 13.5332 64.8738 14.1934C64.9914 14.574 65.0265 14.9753 64.977 15.3706C64.9275 15.7659 64.7944 16.1461 64.5866 16.4859C64.3787 16.8258 64.101 17.1176 63.7717 17.3418C63.4424 17.566 63.0692 17.7176 62.6768 17.7864C61.4182 18.0663 60.1003 17.8533 58.9939 17.1913C58.9367 17.1671 58.889 17.1246 58.8586 17.0704C58.8281 17.0162 58.8164 16.9534 58.8255 16.8919C58.8255 16.731 58.8255 16.5663 58.8255 16.3529C58.9453 16.4428 59.0276 16.5101 59.1174 16.57C59.6363 16.973 60.2457 17.2432 60.8927 17.3574C61.5397 17.4715 62.2048 17.4261 62.8303 17.225C63.2162 17.12 63.5663 16.9117 63.8427 16.6226C64.1192 16.3335 64.3116 15.9746 64.3994 15.5843C64.4871 15.194 64.4669 14.7873 64.3408 14.4077C64.2146 14.0281 63.9875 13.69 63.6836 13.4298C63.4148 13.1747 63.1256 12.9419 62.819 12.7337C62.0106 12.191 61.1872 11.6633 60.375 11.1243C59.7175 10.7416 59.2224 10.1321 58.9827 9.4101C58.7933 8.78101 58.8523 8.10326 59.1475 7.51634C59.4427 6.92941 59.9517 6.47798 60.5696 6.25495C61.186 6.02344 61.8462 5.93253 62.5022 5.98887C63.1581 6.04521 63.7932 6.24736 64.3611 6.58057C64.4468 6.61528 64.5179 6.67862 64.5623 6.75981C64.6066 6.841 64.6215 6.93505 64.6043 7.02596C64.5899 7.1552 64.5874 7.28551 64.5969 7.41521Z" fill="white"/>
<path id="Vector_15" d="M61.5727 17.9733C60.6545 17.9593 59.7567 17.7009 58.9715 17.2247C58.9075 17.1958 58.8545 17.1471 58.8201 17.0858C58.7858 17.0245 58.7719 16.9539 58.7806 16.8842C58.7806 16.7756 58.7806 16.6671 58.7806 16.5398C58.7806 16.4799 58.7806 16.4163 58.7806 16.3489V16.2629L58.9602 16.3976L59.1399 16.5323C59.6554 16.9264 60.2589 17.1892 60.8986 17.2981C61.5382 17.407 62.1947 17.3587 62.8116 17.1574C63.3142 17.0171 63.7499 16.7013 64.0396 16.2674C64.3294 15.8334 64.4541 15.3099 64.391 14.7919C64.319 14.2618 64.0522 13.7774 63.6424 13.4333C63.3752 13.1885 63.0886 12.9657 62.7854 12.7671C62.3063 12.4452 61.816 12.1271 61.3444 11.8164C61.0075 11.5994 60.6744 11.3785 60.3413 11.1577C59.6725 10.7714 59.17 10.1516 58.9303 9.41733C58.7402 8.7778 58.8013 8.08984 59.1011 7.4938C59.4008 6.89775 59.9167 6.43852 60.5434 6.20978C61.1663 5.97799 61.8328 5.8873 62.4949 5.94426C63.157 6.00122 63.7982 6.20439 64.3723 6.53914C64.4652 6.57778 64.542 6.64726 64.5897 6.73588C64.6374 6.82449 64.6532 6.92684 64.6343 7.0257C64.6288 7.11419 64.6288 7.20294 64.6343 7.29144C64.6343 7.32886 64.6343 7.36255 64.6343 7.39624V7.49355L64.5707 7.45986L64.1627 7.23155C63.8774 7.05743 63.5782 6.90721 63.2682 6.78242C62.4716 6.46437 61.5833 6.46437 60.7867 6.78242C60.4596 6.8965 60.1676 7.09334 59.9392 7.35378C59.7108 7.61421 59.5537 7.92936 59.4832 8.26853C59.4127 8.60771 59.4313 8.95936 59.5371 9.28924C59.6428 9.61911 59.8322 9.91597 60.0868 10.1509C60.2975 10.3568 60.5282 10.5411 60.7755 10.7011C61.1685 10.9668 61.569 11.2288 61.9582 11.4833C62.5009 11.8576 63.0586 12.2057 63.6013 12.58C64.2097 12.9465 64.6706 13.5146 64.9038 14.1856C65.0223 14.5562 65.0619 14.9474 65.02 15.3342C64.9781 15.721 64.8557 16.0947 64.6605 16.4313C64.4455 16.7895 64.158 17.0987 63.8163 17.3392C63.4747 17.5796 63.0866 17.7459 62.6768 17.8273C62.3155 17.9179 61.9451 17.9669 61.5727 17.9733ZM58.8667 16.4762V16.581C58.8667 16.7082 58.8667 16.8205 58.8667 16.9328C58.8585 16.987 58.8688 17.0423 58.896 17.0898C58.9232 17.1374 58.9656 17.1744 59.0164 17.1948C60.1137 17.8516 61.4214 18.062 62.6693 17.7824C63.0675 17.704 63.4448 17.5429 63.7769 17.3095C64.1089 17.0761 64.3882 16.7757 64.5969 16.4275C64.7919 16.1 64.9151 15.7347 64.9583 15.356C65.0016 14.9772 64.9638 14.5936 64.8476 14.2305C64.6198 13.5782 64.1709 13.026 63.5788 12.6698C63.0361 12.2955 62.4784 11.9212 61.9357 11.5732C61.5615 11.3187 61.146 11.0529 60.753 10.7872C60.5007 10.6234 60.2651 10.4354 60.0494 10.2258C59.7856 9.9797 59.59 9.66949 59.4818 9.32537C59.3735 8.98125 59.3562 8.61496 59.4316 8.26217C59.507 7.90938 59.6724 7.58214 59.9119 7.31232C60.1513 7.0425 60.4566 6.83931 60.7979 6.72254C61.6138 6.39698 62.5235 6.39698 63.3393 6.72254C63.6535 6.84906 63.9565 7.00181 64.245 7.17915C64.3573 7.24278 64.4733 7.31015 64.5894 7.37004V7.34009C64.5801 7.248 64.5801 7.15522 64.5894 7.06313C64.6063 6.98101 64.5934 6.89554 64.5529 6.82212C64.5124 6.74869 64.447 6.69214 64.3685 6.66265C63.8076 6.33508 63.1809 6.13597 62.5337 6.07966C61.8865 6.02336 61.2349 6.11126 60.6258 6.33703C60.0188 6.55739 59.5191 7.00146 59.2289 7.57831C58.9388 8.15516 58.8801 8.82112 59.065 9.43979C59.2993 10.1545 59.79 10.7572 60.4424 11.1315L61.4454 11.7902C61.9208 12.1009 62.4111 12.419 62.8864 12.7409C63.1925 12.9432 63.4827 13.1684 63.7547 13.4146C64.0631 13.6802 64.2934 14.0246 64.4212 14.4109C64.549 14.7973 64.5694 15.2111 64.4802 15.6082C64.3911 16.0053 64.1957 16.3706 63.9149 16.6652C63.6342 16.9599 63.2787 17.1727 62.8864 17.2809C62.2577 17.4865 61.5885 17.536 60.9364 17.4251C60.2844 17.3143 59.669 17.0464 59.1436 16.6446L58.964 16.5099L58.8667 16.4762Z" fill="white"/>
<path id="Vector_16" d="M94.8533 17.7377H94.3256V6.63663H90.9758V6.1875H98.1582V6.6254H94.8571L94.8533 17.7377Z" fill="white"/>
<path id="Vector_17" d="M94.8945 17.779H94.2807V6.67796H90.9309V6.14648H98.1919V6.66673H94.8908V17.779H94.8945ZM94.3668 17.6929H94.8122V6.58065H98.1133V6.22883H91.0207V6.6031H94.3705V17.6929H94.3668Z" fill="white"/>
<path id="Vector_18" d="M55.6328 6.17969H56.1194V17.7299H55.6328V6.17969Z" fill="white"/>
<path id="Vector_19" d="M56.1644 17.771H55.5918V6.13477H56.1644V17.771ZM55.6779 17.6887H56.0821V6.22085H55.6779V17.6887Z" fill="white"/>
<path id="Vector_20" d="M100.198 6.17969H100.673V17.7411H100.198V6.17969Z" fill="white"/>
<path id="Vector_21" d="M100.718 17.7824H100.157V6.13867H100.718V17.7824ZM100.239 17.6963H100.632V6.22101H100.239V17.6963Z" fill="white"/>
<path id="Vector_22" d="M13.8411 16.9471C12.7183 16.948 11.6213 16.6102 10.6935 15.9778C10.2413 15.7469 9.83732 15.4319 9.50326 15.0496C8.89815 14.3201 8.50922 13.4359 8.38043 12.497C8.30467 12.1275 8.26581 11.7513 8.2644 11.3742C8.26266 10.2862 8.57876 9.22145 9.17386 8.31069C9.76896 7.39993 10.6171 6.68284 11.6142 6.24752C12.6113 5.8122 13.7138 5.67761 14.7863 5.86029C15.8588 6.04297 16.8546 6.53496 17.6513 7.27582C17.8384 7.41056 18.0255 7.55278 18.2127 7.71372C18.2127 7.58647 18.4672 7.12985 16.5846 6.02573C15.7615 5.5358 14.8378 5.23942 13.8834 5.15902C12.9289 5.07861 11.9686 5.21629 11.0752 5.56163C7.53456 6.84166 6.28073 11.1309 7.72544 14.1288C8.82582 16.4119 10.7459 17.546 13.2872 17.5909C14.5077 17.617 15.709 17.2838 16.7418 16.6327C18.673 15.3901 19.0585 13.8219 18.4485 14.5218C17.9353 15.2699 17.2475 15.8817 16.4448 16.3043C15.642 16.7269 14.7483 16.9475 13.8411 16.9471Z" fill="white"/>
</g>
<defs>
<clipPath id="clip0_473_209">
<rect width="112.287" height="22" fill="white" transform="translate(0.471924 0.273438)"/>
</clipPath>
</defs>
</svg>
