<svg width="138" height="23" viewBox="0 0 138 23" fill="none" xmlns="http://www.w3.org/2000/svg">
<g id="ct interactive" clip-path="url(#clip0_461_497)">
<g id="&#208;&#161;&#208;&#187;&#208;&#190;&#208;&#185; 2">
<g id="Layer 1">
<path id="Vector" d="M35.0742 9.63978H38.1868V14.9037H40.1963V9.63978H43.2631V7.90039H35.0742V9.63978Z" fill="#808080"/>
<path id="Vector_2" d="M60.5242 9.63978H63.6368V14.9037H65.6005V9.63978H68.7176V7.90039H60.5242V9.63978Z" fill="#808080"/>
<path id="Vector_3" d="M106.664 9.63978H109.772V14.9037H111.745V9.63978H114.853V7.90039H106.664V9.63978Z" fill="#808080"/>
<path id="Vector_4" d="M28.6154 7.90521C28.1657 7.88873 27.7165 7.95069 27.288 8.0883C26.9613 8.20528 26.6643 8.39282 26.4183 8.63758C26.1817 8.88181 26.0088 9.18048 25.9148 9.50728C25.8213 9.88148 25.7752 10.2659 25.7775 10.6516V12.1164C25.7724 12.5022 25.8186 12.887 25.9148 13.2607C25.9982 13.5919 26.1726 13.8931 26.4183 14.1304C26.663 14.3691 26.9566 14.5518 27.2789 14.666C27.7073 14.8036 28.1565 14.8655 28.6063 14.8491H34.0991V13.0181H28.8031C28.6539 13.0381 28.5022 13.0237 28.3594 12.9761C28.2166 12.9285 28.0866 12.8489 27.9792 12.7435C27.8103 12.4862 27.73 12.1809 27.7503 11.8738V10.6837C27.7227 10.3759 27.8037 10.0682 27.9792 9.81396C28.2154 9.63702 28.5095 9.55533 28.8031 9.5851H34.1128V7.8457H28.62L28.6154 7.90521Z" fill="#808080"/>
<path id="Vector_5" d="M100.393 7.90515C99.9433 7.88867 99.4941 7.95063 99.0656 8.08824C98.7389 8.20522 98.4419 8.39276 98.1959 8.63752C97.9593 8.88175 97.7864 9.18042 97.6924 9.50722C97.5989 9.88142 97.5528 10.2659 97.5551 10.6516V12.1163C97.55 12.5022 97.5962 12.887 97.6924 13.2607C97.7758 13.5918 97.9502 13.8931 98.1959 14.1303C98.4419 14.3751 98.7389 14.5627 99.0656 14.6796C99.4941 14.8172 99.9433 14.8792 100.393 14.8627H105.886V13.0318H100.576C100.427 13.0517 100.275 13.0374 100.132 12.9898C99.9896 12.9422 99.8596 12.8626 99.7522 12.7571C99.5833 12.4999 99.503 12.1945 99.5233 11.8874V10.6973C99.4957 10.3896 99.5767 10.0819 99.7522 9.82764C99.9884 9.65069 100.282 9.569 100.576 9.59877H105.886V7.85938H100.393V7.90515Z" fill="#808080"/>
<path id="Vector_6" d="M17.131 17.0602L12.6314 21.5323C12.3704 21.7755 12.0269 21.9108 11.6702 21.9108C11.3134 21.9108 10.9699 21.7755 10.7089 21.5323L1.56796 12.3776C1.32471 12.1166 1.18945 11.7731 1.18945 11.4163C1.18945 11.0596 1.32471 10.7161 1.56796 10.4551L4.0855 7.93754H6.32841C8.89172 7.93754 10.0361 7.34249 10.448 5.78619H6.22313L10.7089 1.30038C10.9699 1.05713 11.3134 0.921875 11.6702 0.921875C12.0269 0.921875 12.3704 1.05713 12.6314 1.30038L17.1172 5.78619H14.7828C11.4413 5.78619 10.4801 6.7932 10.4801 9.67694V13.2015C10.4801 16.0395 11.4413 17.0922 14.7828 17.0922H17.1172L17.131 17.0602Z" fill="#808080"/>
<path id="Vector_7" d="M21.841 10.4687L19.3235 7.95117H14.92C13.3637 7.95117 12.9976 8.40891 12.9976 9.78211V13.0778C12.9976 14.4968 13.3637 14.9087 14.92 14.9087H19.2685L21.8318 12.3454C22.0712 12.0922 22.2053 11.7574 22.207 11.4089C22.2087 11.0604 22.0779 10.7243 21.841 10.4687ZM17.2087 12.8032H16.6137V10.9265H17.2087V12.8032ZM17.2087 10.4229H16.6137V9.87366H17.2087V10.4229Z" fill="#808080"/>
<path id="Vector_8" d="M47.0166 14.9096V7.90625H48.9849V14.9096H47.0166Z" fill="#808080"/>
<path id="Vector_9" d="M71.6792 13.0787H77.7213V14.9096H69.7109V7.90625H77.6755V9.63191L71.6792 9.67769V10.6847H74.9291V12.1037H71.6792V13.0787Z" fill="#808080"/>
<path id="Vector_10" d="M131.185 13.0787H137.227V14.9096H129.171V7.90625H137.135V9.63191L131.139 9.67769V10.6847H134.389V12.1037H131.139L131.185 13.0787Z" fill="#808080"/>
<path id="Vector_11" d="M80.8889 12.3781V14.8957H78.9207V7.90605H84.6423C85.0134 7.89442 85.3841 7.94075 85.7409 8.04337C86.0287 8.11134 86.2861 8.27221 86.4733 8.5011C86.6625 8.69451 86.8037 8.92971 86.8852 9.18771C86.9789 9.48374 87.0252 9.7927 87.0226 10.1032V10.6067C87.0252 10.9172 86.9789 11.2261 86.8852 11.5222C86.8037 11.7802 86.6625 12.0154 86.4733 12.2088C86.2706 12.3974 86.0388 12.552 85.7867 12.6665C85.4449 12.7662 85.0898 12.8125 84.7339 12.8038H84.2762V12.8359C84.3677 12.9274 87.1599 14.7583 87.1599 14.7583V14.8499H84.5966L80.8889 12.3781ZM80.8431 9.63171V11.3253H84.2304C84.4241 11.3484 84.6196 11.2995 84.7797 11.188C84.9083 11.0171 84.9731 10.8066 84.9628 10.593V10.3641C84.9628 10.0894 84.917 9.90635 84.7797 9.8148C84.6167 9.70969 84.4236 9.66141 84.2304 9.67748H80.834L80.8431 9.63171Z" fill="#808080"/>
<path id="Vector_12" d="M115.59 14.9096V7.90625H117.558V14.9096H115.59Z" fill="#808080"/>
<path id="Vector_13" d="M126.205 7.90515H128.493V7.9967L124.877 14.8627H121.902L118.286 7.95092V7.85938H120.62L123.184 13.1233H123.55L126.205 7.90515Z" fill="#808080"/>
<path id="Vector_14" d="M97.372 14.9039H90.6891L91.7373 13.073H94.351L92.607 10.0977H92.3781L89.5905 14.9039H87.6177L91.6503 7.85938H93.3394L97.372 14.9039Z" fill="#808080"/>
<path id="Vector_15" d="M57.549 13.073H57.3201L53.5621 7.85938H50.7241V14.8627H52.697V9.69032H52.8755L56.5877 14.8627H59.5126V7.85938H57.549V13.073Z" fill="#808080"/>
</g>
</g>
</g>
<defs>
<clipPath id="clip0_461_497">
<rect width="137" height="22" fill="white" transform="translate(0.241699 0.273438)"/>
</clipPath>
</defs>
</svg>
