<svg width="87" height="31" viewBox="0 0 87 31" fill="none" xmlns="http://www.w3.org/2000/svg">
<g id="dlv" style="mix-blend-mode:luminosity" clip-path="url(#clip0_473_232)">
<g id="Group">
<path id="Vector" d="M11.9954 30.1279C10.2171 30.1097 8.89255 29.4384 7.93993 28.0866C5.81695 25.0654 3.70303 22.0351 1.60727 18.9958C0.582067 17.5261 0.427833 15.9384 1.18086 14.2962C2.70505 10.9575 4.24739 7.61881 5.80787 4.28918C6.61533 2.57446 8.00344 1.68535 9.89961 1.53111C11.8411 1.37688 13.7827 1.17728 15.7151 1.01397C17.4117 0.868812 19.0992 0.705505 20.7958 0.596634C22.6194 0.478691 24.0619 1.18635 25.1053 2.68333C27.1829 5.64099 28.1809 7.97264 29.6778 11.7287C30.3492 13.6702 30.5125 14.0513 30.1042 16.7277C29.2605 20.4384 28.7252 22.9333 27.2373 26.136C26.3573 28.0412 24.8784 29.0029 22.8008 29.1571C21.1677 29.2751 19.5347 29.4565 17.9016 29.6108C16.5044 29.7378 15.1073 29.8557 13.7101 29.9737C13.0932 30.0281 12.4853 30.0825 11.9954 30.1279ZM26.6748 14.9404C26.6567 13.8789 26.448 12.8718 25.8583 11.9737C25.5226 11.4565 25.1053 11.0029 24.4792 10.9031C23.572 10.7579 22.8915 11.1208 22.4379 11.9464C21.8028 13.1077 21.7665 14.3416 22.0296 15.6208C22.202 16.4283 22.5105 17.1632 23.0911 17.762C23.9621 18.6601 25.2323 18.5513 25.949 17.5261C26.5024 16.7368 26.6567 15.8567 26.6748 14.9404ZM14.1637 4.41619C14.1909 4.43434 14.2272 4.44341 14.2544 4.46155C14.2544 4.97869 14.4631 5.2418 14.9621 5.38696C15.4339 5.51397 15.8694 5.43232 16.2958 5.22365C17.076 4.83353 17.7474 4.35268 17.9651 3.43635C18.1012 2.86478 17.4934 2.2297 17.0034 2.24785C16.0508 2.28414 15.2434 2.62889 14.6809 3.42728C14.4631 3.7176 14.3361 4.08051 14.1637 4.41619ZM12.9117 6.96559C12.9208 6.31236 12.3492 5.82244 11.8048 5.8678C10.6617 5.94946 9.82703 6.50289 9.31896 7.51902C9.02864 8.09966 9.20102 8.80732 9.70001 8.94341C10.0811 9.05228 10.5347 9.06135 10.9157 8.96156C11.3149 8.86176 11.696 8.6168 12.0317 8.36276C12.5125 7.99079 12.8663 7.50994 12.9117 6.96559ZM8.15767 5.95853C8.45707 5.84966 8.76553 5.74986 9.05586 5.62284C9.77259 5.28716 10.3714 4.83353 10.6254 4.03514C10.825 3.38192 10.3623 2.6924 9.69094 2.70147C8.52965 2.71962 7.65868 3.2549 7.11432 4.27103C6.73328 4.97869 6.91473 5.93131 8.15767 5.95853ZM12.8391 12.2186C13.447 12.0916 14.1637 11.7468 14.6809 11.1027C14.8986 10.8305 15.0528 10.4767 15.1254 10.1319C15.2343 9.58756 14.7171 9.01599 14.1546 9.02506C13.0206 9.04321 12.1587 9.56035 11.6143 10.5493C11.2333 11.266 11.3331 12.264 12.8391 12.2186ZM6.78771 9.87789C6.58811 9.9051 6.38852 9.93232 6.18892 9.97768C5.20001 10.1954 4.51957 10.7851 4.15666 11.7287C3.98428 12.1914 4.13852 12.772 4.4742 12.9172C4.92783 13.1077 5.41775 13.1985 5.88953 12.9807C6.27057 12.8083 6.64255 12.5815 6.98731 12.3366C7.37743 12.0553 7.65868 11.6561 7.77662 11.1843C7.95807 10.522 7.47723 9.9051 6.78771 9.87789ZM11.6234 28.9485C12.6758 28.9485 13.1567 28.2862 12.7212 27.5059C12.2131 26.6077 10.7524 25.891 9.7363 26.0452C8.86533 26.1813 8.53872 26.9253 9.08307 27.6148C9.72723 28.4585 10.6163 28.8759 11.6234 28.9485ZM17.8563 25.3376C17.3028 25.3557 16.8583 25.4011 16.6224 25.8638C16.4137 26.272 16.5498 26.6531 16.8129 26.9706C17.5478 27.8507 18.4913 28.3224 19.6617 28.2226C20.5327 28.141 20.8684 27.4424 20.3603 26.7257C19.7161 25.8366 18.818 25.4192 17.8563 25.3376ZM5.699 19.6944C5.64457 19.6853 5.59013 19.6763 5.52662 19.6763C5.09114 19.6853 4.6738 19.767 4.46513 20.2025C4.24739 20.647 4.42884 21.0372 4.73731 21.3819C5.4359 22.1712 6.29779 22.5886 7.35928 22.5704C7.75848 22.5614 8.13953 22.4616 8.33005 22.0714C8.52057 21.6904 8.4117 21.3184 8.15767 21.0009C7.54074 20.2025 6.71513 19.7579 5.699 19.6944ZM14.8895 21.8991C15.3613 21.8537 15.824 21.8265 16.0327 21.3456C16.2413 20.8648 16.0055 20.4747 15.7151 20.1118C15.6698 20.0573 15.6244 20.012 15.57 19.9666C14.9077 19.3315 14.1093 18.9868 13.193 18.9777C12.7847 18.9777 12.3673 19.0866 12.1587 19.5039C11.9591 19.9122 12.1133 20.2841 12.3673 20.6107C13.0115 21.4454 13.8915 21.8083 14.8895 21.8991Z" fill="#E2C17F"/>
</g>
<g id="Group_2">
<path id="Vector_2" d="M32.9802 6.41211H41.2544C42.8875 6.41211 44.203 6.62985 45.2101 7.07441C46.2171 7.51896 47.0427 8.15404 47.696 8.97965C48.3492 9.80525 48.83 10.7669 49.1203 11.8647C49.4197 12.9625 49.5649 14.1238 49.5649 15.3577C49.5649 17.2811 49.3472 18.778 48.9117 19.8395C48.4762 20.901 47.8683 21.7901 47.0881 22.5069C46.3078 23.2236 45.4732 23.7044 44.5841 23.9403C43.3593 24.2669 42.2524 24.4303 41.2635 24.4303H32.9893V6.41211H32.9802ZM38.5508 10.4948V20.3385H39.9117C41.073 20.3385 41.8986 20.2115 42.3976 19.9484C42.8875 19.6944 43.2776 19.2407 43.5498 18.5966C43.831 17.9524 43.9671 16.9091 43.9671 15.4665C43.9671 13.5613 43.6587 12.2458 43.0326 11.5472C42.4066 10.8395 41.3814 10.4857 39.9389 10.4857H38.5508V10.4948Z" fill="#E2C17F"/>
<path id="Vector_3" d="M52.4863 6.41211H58.0569V19.9938H66.7484V24.4303H52.4863V6.41211Z" fill="#E2C17F"/>
<path id="Vector_4" d="M66.2312 6.41211H72.0558L76.1112 19.3768L80.1122 6.41211H85.7645L79.0689 24.4303H73.0356L66.2312 6.41211Z" fill="#E2C17F"/>
</g>
</g>
<defs>
<clipPath id="clip0_473_232">
<rect width="86.129" height="30" fill="white" transform="translate(0.122314 0.273438)"/>
</clipPath>
</defs>
</svg>
