<svg width="101" height="49" viewBox="0 0 101 49" fill="none" xmlns="http://www.w3.org/2000/svg">
<g style="mix-blend-mode:luminosity">
<path d="M35.9095 9.46176C35.9095 9.46176 30.554 0.289062 18.8387 0.289062C7.79288 0.289062 0.847412 7.06529 0.847412 9.37912C0.847412 11.8881 5.83727 14.5444 10.3033 16.6925C14.0956 18.5165 18.6295 20.6177 18.6295 20.6177C18.6295 20.6177 9.92673 15.0811 9.88489 10.2055C9.83954 4.91689 15.1653 3.5119 18.8387 3.5119C29.2987 3.5119 35.9095 9.46176 35.9095 9.46176Z" fill="url(#paint0_linear_71_136)"/>
<path d="M36.2025 38.1362C36.2025 38.1362 30.8469 47.3089 19.1317 47.3089C8.08585 47.3089 1.14038 40.5327 1.14038 38.2188C1.14038 35.7099 6.13024 33.0535 10.5963 30.9055C14.3886 29.0814 19.299 26.4844 19.299 26.4844C19.299 26.4844 10.2197 32.5169 10.1779 37.3924C10.1325 42.681 15.4583 44.086 19.1317 44.086C29.5917 44.086 36.2025 38.1362 36.2025 38.1362Z" fill="url(#paint1_linear_71_136)"/>
<path d="M0.847412 9.37891C0.847412 15.3288 8.54601 17.8492 8.54601 23.799C8.54601 31.7322 1.14029 30.6579 1.14029 38.2605C1.14029 38.2605 1.41954 35.9992 5.11511 34.046C11.0564 30.9058 21.1817 27.0632 21.1817 23.799C21.1817 20.7002 13.9363 17.8583 7.54184 14.9569C1.34949 12.1472 0.847412 9.37891 0.847412 9.37891Z" fill="url(#paint2_linear_71_136)"/>
<path d="M16.1792 20.7912C16.0838 20.6855 16.1925 20.523 16.3284 20.5684C17.5535 20.9775 20.5959 22.1664 20.5959 23.8823C20.5959 25.2728 17.6756 26.6284 16.3772 26.9897C16.204 27.0379 16.0858 26.8201 16.222 26.7037C16.809 26.2017 18.0855 24.8587 18.0855 23.8823C18.0855 23.0147 16.8146 21.4962 16.1792 20.7912Z" fill="url(#paint3_linear_71_136)"/>
<path d="M73.2065 17.5605C73.6488 17.7547 74.1461 17.7741 74.6228 17.7721C74.8449 17.939 75.0257 18.1721 75.0435 18.4583C75.0965 19.1484 75.0592 19.8414 75.0661 20.5335C75.8749 20.3122 76.7202 20.2801 77.5546 20.3257C78.0608 20.3859 78.566 20.583 78.9355 20.9363C79.3179 21.3255 79.4672 21.8739 79.541 22.396C79.5577 23.9694 79.5242 25.5437 79.5567 27.117C79.1812 27.2839 78.7321 27.214 78.3488 27.1054C77.9763 26.9966 77.7237 26.6442 77.6913 26.2706C77.6539 25.2749 77.7247 24.2741 77.648 23.2792C77.5733 22.9095 77.6628 22.4194 77.2893 22.1864C76.5973 21.8369 75.7796 21.9786 75.069 22.1932C75.0671 23.5258 75.0739 24.8594 75.0661 26.192C75.0867 26.5628 74.8587 26.9403 74.4872 27.0442C74.1039 27.15 73.697 27.1849 73.3009 27.1762C73.1319 27.0937 73.232 26.9054 73.234 26.7656C73.1859 24.6672 73.2223 22.563 73.2193 20.4616C73.2124 20.2345 73.1917 20.0064 73.233 19.7812C73.1741 19.0426 73.2233 18.3001 73.2065 17.5605ZM46.1606 17.6634C46.5743 17.8508 47.0334 17.8547 47.4786 17.8847C47.9081 17.943 48.0221 18.4486 48.0221 18.8078C48.026 21.3109 48.026 23.8141 48.0211 26.3172C47.4933 27.0393 46.5351 27.1539 45.7045 27.2208C44.5753 27.2548 43.3133 27.2858 42.3776 26.5579C41.5667 25.8824 41.3977 24.7497 41.4076 23.7597C41.3633 22.7503 41.6827 21.6302 42.5516 21.0197C43.2209 20.5004 44.0927 20.3345 44.9241 20.3384C45.3477 20.382 45.7891 20.4034 46.1596 20.6364C46.1713 19.6454 46.1675 18.6544 46.1606 17.6634ZM44.0121 22.1854C43.4529 22.5339 43.2966 23.2463 43.2986 23.8567C43.3025 24.4323 43.5314 25.0952 44.0927 25.3592C44.7335 25.664 45.4942 25.6194 46.1685 25.4563C46.1645 24.3217 46.1626 23.187 46.1694 22.0524C45.4697 21.8525 44.6509 21.7681 44.0121 22.1854ZM81.9214 18.006C82.5809 17.6391 83.4792 18.2797 83.3259 19.0136C83.3043 19.7949 82.1907 20.153 81.6659 19.6027C81.1557 19.1678 81.315 18.2749 81.9214 18.0061V18.006ZM33.9772 20.5208C34.8814 20.2656 35.8358 20.2801 36.7676 20.3054C37.486 20.3568 38.2418 20.5014 38.8266 20.942C39.3092 21.3061 39.5903 21.902 39.5873 22.4989C39.5893 24.0606 39.5893 25.6223 39.5873 27.1839C39.1765 27.1286 38.7469 27.1772 38.3499 27.0501C38.0187 26.9481 37.7563 26.6346 37.772 26.2842C37.7622 25.1476 37.7769 24.0101 37.767 22.8735C37.7759 22.4678 37.4624 22.0991 37.0673 22.0087C36.4236 21.8583 35.7709 22.0281 35.1281 22.0922C35.1606 23.4268 35.1331 24.7614 35.1438 26.0959C35.1606 26.456 34.9945 26.8529 34.6426 27.0025C34.221 27.1907 33.7393 27.1568 33.2882 27.1868C33.2539 25.203 33.2834 23.2181 33.2735 21.2333C33.2352 20.8392 33.645 20.6092 33.9772 20.5208ZM59.8064 20.5917C60.2173 20.3947 60.6772 20.3054 61.1323 20.3122C61.839 20.3122 62.5456 20.3161 63.2522 20.3112C63.269 20.8538 63.3456 21.5865 62.7933 21.9097C62.2979 22.1107 61.7436 21.9719 61.2325 22.0952C60.9514 22.1738 60.689 22.3854 60.6222 22.6765C60.5594 23.0016 60.5275 23.3317 60.5268 23.6626C60.5308 24.8904 60.5268 26.1183 60.5288 27.3451C60.1553 27.1083 59.71 27.0597 59.2904 26.953C58.914 26.8569 58.6781 26.4638 58.7076 26.0901C58.7056 24.8923 58.7036 23.6937 58.7086 22.496C58.6938 21.7302 59.1116 20.9518 59.8064 20.5917ZM64.8189 21.2352C65.2652 20.5413 66.1674 20.3985 66.931 20.32C68.0791 20.2607 69.3499 20.2132 70.3385 20.8897C71.2123 21.5147 71.4187 22.6697 71.4266 23.6685C71.4727 24.6381 71.233 25.7028 70.4772 26.3764C69.4432 27.2325 67.9444 27.3693 66.6834 27.0064C66.6559 27.9614 66.6805 28.9174 66.6716 29.8734C66.2234 29.6444 65.7026 29.7346 65.2248 29.626C64.871 29.4202 64.7964 28.9844 64.8081 28.6127C64.8179 26.1532 64.7964 23.6937 64.819 21.2352M66.6697 22.0748C66.6716 23.2239 66.6608 24.3741 66.6853 25.5224C67.3537 25.6242 68.1007 25.7941 68.7149 25.4106C69.3037 25.136 69.5042 24.4507 69.5287 23.8567C69.5651 23.2424 69.3557 22.5417 68.7965 22.2058C68.1419 21.8749 67.3664 21.9205 66.6697 22.0748ZM81.4142 20.2219C81.773 20.4063 82.1809 20.4024 82.576 20.4073C82.8483 20.3879 83.0714 20.6082 83.1657 20.8421C83.3052 21.2479 83.2886 21.6826 83.2856 22.1048C83.2856 23.4006 83.2847 24.6973 83.2866 25.9931C83.2905 26.3521 83.206 26.7715 82.857 26.9588C82.4207 27.1791 81.9106 27.1606 81.4339 27.1878C81.3976 24.8661 81.4359 22.5436 81.4142 20.2219ZM85.6985 20.5675C86.584 20.2733 87.5344 20.286 88.4583 20.2986C89.2436 20.3267 90.0751 20.4762 90.712 20.9615C91.2408 21.3643 91.4756 22.0447 91.4658 22.6882C91.459 24.1877 91.4816 25.6883 91.454 27.1888C91.0226 27.1461 90.5705 27.182 90.1597 27.0306C89.8078 26.9093 89.5984 26.5443 89.6053 26.1872C89.5974 25.0535 89.6082 23.9208 89.6013 22.7872C89.6142 22.4077 89.2898 22.1068 88.9399 22.0117C88.301 21.8583 87.6494 22.0224 87.0116 22.0903C87.0091 22.2586 86.9993 22.4266 86.9821 22.594C87.0549 23.4345 86.9359 24.2799 87.0037 25.1205C86.8936 25.6961 87.1885 26.4239 86.7 26.8763C86.2646 27.2024 85.667 27.1897 85.149 27.1335C85.1629 25.1331 85.1491 23.1337 85.156 21.1333C85.1284 20.8295 85.4557 20.6645 85.6985 20.5675ZM94.0654 20.7441C94.3534 20.4151 94.8193 20.2957 95.2468 20.3122C96.1638 20.3248 97.1153 20.2355 97.9899 20.5713C98.6553 20.7761 99.1664 21.3419 99.3738 21.9894C99.6372 22.7823 99.5006 23.6248 99.535 24.443C99.5753 25.2292 99.4053 26.1183 98.7477 26.6356C98.1158 27.1927 97.2184 27.1441 96.4283 27.1782C95.5781 27.1549 94.6129 27.2868 93.8925 26.7394C93.2645 26.291 93.1573 25.4369 93.2792 24.7323C93.3372 24.178 93.5967 23.5996 94.1205 23.3346C95.1249 22.7445 96.3614 23.2317 97.4081 22.8017C97.6715 22.7173 97.7404 22.4106 97.6332 22.1815C97.4081 21.9291 97.0553 21.8573 96.7348 21.803C95.7324 21.672 94.7102 21.7564 93.7303 21.9952C93.7382 21.5632 93.7794 21.0925 94.0654 20.7441ZM96.5265 24.4042C96.0311 24.411 95.4768 24.4517 95.1083 24.8205C95.1053 25.0205 95.0837 25.2505 95.2537 25.3981C95.5692 25.6728 96.0273 25.6339 96.4204 25.6485C96.8313 25.6456 97.356 25.7271 97.6126 25.3262C97.7796 24.8875 97.7295 24.4051 97.7413 23.9461C97.3776 24.1799 96.9776 24.4197 96.5265 24.4042ZM25.6064 21.3779C26.2412 20.5703 27.3371 20.3558 28.316 20.3277C29.1603 20.32 30.0891 20.3947 30.7692 20.944C31.4356 21.5128 31.5722 22.4571 31.5201 23.2802C31.5063 23.7568 31.1968 24.2382 30.7151 24.3644C30.0655 24.5401 29.3785 24.5644 28.7112 24.5119C28.147 24.5653 27.571 24.5915 27.0344 24.7905C27.0275 25.2535 27.515 25.4844 27.915 25.5437C29.0256 25.6524 30.1334 25.4834 31.2312 25.333C31.2509 25.9037 31.1987 26.5987 30.666 26.9452C30.1382 27.248 29.5013 27.2587 28.9077 27.2868C27.9052 27.2538 26.8124 27.1723 25.9985 26.5268C25.28 25.96 25.0747 25.0088 25.0117 24.1479C24.9753 23.2036 25.0254 22.1709 25.6064 21.3779ZM27.2624 22.2446C26.9194 22.5561 26.9401 23.0473 26.9647 23.4676C27.6074 23.2482 28.2974 23.2977 28.9628 23.2113C29.228 23.1657 29.4728 23.0259 29.635 22.8114C29.6341 22.6639 29.636 22.5164 29.64 22.3699C29.062 21.7245 27.9023 21.6487 27.2624 22.2446ZM52.611 20.3714C53.6233 20.2413 54.7349 20.3102 55.6254 20.8469C56.4667 21.3477 56.8638 22.3388 56.8755 23.2764C56.9032 24.2488 56.9051 25.334 56.2515 26.1318C55.6824 26.8927 54.673 27.1276 53.7649 27.1626C52.959 27.15 52.1294 27.1121 51.3746 26.8035C50.7397 26.5133 50.2414 25.9348 50.0802 25.2602C49.8482 24.3605 49.7057 23.4006 49.9622 22.4922C50.1873 21.7079 50.7407 20.9868 51.5141 20.6684C51.8631 20.518 52.2346 20.4238 52.611 20.3714ZM52.7997 22.0262C52.4027 22.1165 51.98 22.3251 51.8315 22.727C51.5545 23.3918 51.632 24.177 51.8994 24.8322C52.1432 25.3971 52.8223 25.5145 53.3757 25.5359C53.9408 25.5591 54.6111 25.3893 54.8902 24.8536C55.1428 24.4382 55.1005 23.9383 55.0868 23.4744C55.0563 22.9473 54.8028 22.3922 54.3044 22.1505C53.8376 21.9369 53.296 21.9263 52.7997 22.0262Z" fill="white"/>
</g>
<defs>
<linearGradient id="paint0_linear_71_136" x1="18.3785" y1="0.289062" x2="18.3785" y2="20.6177" gradientUnits="userSpaceOnUse">
<stop stop-color="#09ADEC"/>
<stop offset="1" stop-color="#181D63"/>
</linearGradient>
<linearGradient id="paint1_linear_71_136" x1="18.6714" y1="47.3089" x2="18.6714" y2="26.4844" gradientUnits="userSpaceOnUse">
<stop stop-color="#F9A221"/>
<stop offset="1" stop-color="#380400"/>
</linearGradient>
<linearGradient id="paint2_linear_71_136" x1="0.847412" y1="23.8197" x2="21.1817" y2="23.8197" gradientUnits="userSpaceOnUse">
<stop stop-color="#5E0105"/>
<stop offset="1" stop-color="#DD1A22"/>
</linearGradient>
<linearGradient id="paint3_linear_71_136" x1="18.3695" y1="26.9966" x2="18.3695" y2="20.5605" gradientUnits="userSpaceOnUse">
<stop stop-color="white" stop-opacity="0"/>
<stop offset="1" stop-color="white"/>
</linearGradient>
</defs>
</svg>
