<svg width="42" height="21" viewBox="0 0 42 21" fill="none" xmlns="http://www.w3.org/2000/svg">
<g style="mix-blend-mode:luminosity">
<path d="M14.8487 3.98407C14.8487 3.98407 12.6172 0.162109 7.73587 0.162109C3.13345 0.162109 0.239502 2.98554 0.239502 3.94963C0.239502 4.99503 2.31861 6.10184 4.17945 6.99687C5.75958 7.75689 7.6487 8.63239 7.6487 8.63239C7.6487 8.63239 4.02255 6.32545 4.00512 4.29396C3.98622 2.09037 6.20529 1.50496 7.73587 1.50496C12.0942 1.50496 14.8487 3.98407 14.8487 3.98407Z" fill="url(#paint0_linear_777_2549)"/>
<path d="M14.9708 15.9311C14.9708 15.9311 12.7393 19.753 7.85794 19.753C3.25552 19.753 0.361572 16.9296 0.361572 15.9655C0.361572 14.9201 2.44068 13.8133 4.30152 12.9183C5.88165 12.1583 7.92767 11.0762 7.92767 11.0762C7.92767 11.0762 4.14462 13.5897 4.12719 15.6212C4.10829 17.8248 6.32736 18.4102 7.85794 18.4102C12.2163 18.4102 14.9708 15.9311 14.9708 15.9311Z" fill="url(#paint1_linear_777_2549)"/>
<path d="M0.239502 3.94922C0.239502 6.42833 3.44725 7.4785 3.44725 9.95761C3.44725 13.2631 0.361536 12.8155 0.361536 15.9832C0.361536 15.9832 0.477887 15.041 2.01771 14.2272C4.49326 12.9188 8.71214 11.3177 8.71214 9.95761C8.71214 8.66641 5.6932 7.48229 3.02885 6.27338C0.448703 5.10269 0.239502 3.94922 0.239502 3.94922Z" fill="url(#paint2_linear_777_2549)"/>
<path d="M6.62773 8.70354C6.58798 8.65947 6.63327 8.59177 6.68989 8.61068C7.20034 8.78115 8.46803 9.27652 8.46803 9.99151C8.46803 10.5709 7.25122 11.1357 6.71022 11.2863C6.63805 11.3063 6.58882 11.2156 6.64554 11.1671C6.89013 10.9579 7.42203 10.3983 7.42203 9.99151C7.42203 9.62997 6.89247 8.99728 6.62773 8.70354Z" fill="url(#paint3_linear_777_2549)"/>
<path d="M30.3891 7.35938C30.5734 7.44026 30.7806 7.44835 30.9793 7.44752C31.0718 7.51707 31.1471 7.61417 31.1545 7.73344C31.1766 8.02099 31.1611 8.30973 31.1639 8.5981C31.501 8.50589 31.8532 8.49253 32.2008 8.51154C32.4118 8.53661 32.6222 8.61873 32.7762 8.76592C32.9355 8.9281 32.9978 9.15659 33.0285 9.37417C33.0355 10.0297 33.0215 10.6857 33.035 11.3412C32.8786 11.4108 32.6915 11.3817 32.5317 11.3364C32.3765 11.2911 32.2713 11.1442 32.2578 10.9886C32.2422 10.5737 32.2717 10.1567 32.2398 9.74214C32.2086 9.58809 32.2459 9.38388 32.0903 9.28681C31.802 9.1412 31.4613 9.20025 31.1652 9.28964C31.1644 9.84489 31.1672 10.4006 31.1639 10.9558C31.1726 11.1103 31.0775 11.2676 30.9227 11.3109C30.763 11.355 30.5935 11.3695 30.4285 11.3659C30.358 11.3315 30.3998 11.2531 30.4006 11.1948C30.3805 10.3205 30.3957 9.44372 30.3945 8.56815C30.3916 8.47353 30.383 8.37849 30.4002 8.28467C30.3756 7.97691 30.3961 7.66754 30.3891 7.35938ZM19.12 7.40224C19.2924 7.4803 19.4837 7.48192 19.6692 7.49445C19.8481 7.51873 19.8956 7.72942 19.8956 7.87906C19.8973 8.92201 19.8972 9.96502 19.8952 11.008C19.6753 11.3089 19.276 11.3566 18.93 11.3845C18.4594 11.3986 17.9336 11.4116 17.5437 11.1083C17.2059 10.8268 17.1354 10.3549 17.1396 9.94236C17.1211 9.52178 17.2542 9.05505 17.6162 8.8007C17.8951 8.58433 18.2584 8.51519 18.6048 8.51681C18.7813 8.53499 18.9652 8.54391 19.1196 8.64097C19.1245 8.22806 19.1229 7.81515 19.12 7.40224ZM18.2248 9.2864C17.9918 9.4316 17.9267 9.72844 17.9275 9.98279C17.9291 10.2226 18.0245 10.4988 18.2584 10.6088C18.5254 10.7358 18.8423 10.7172 19.1233 10.6493C19.1216 10.1765 19.1208 9.70375 19.1237 9.231C18.8321 9.14767 18.491 9.11252 18.2248 9.2864ZM34.0203 7.545C34.2951 7.39212 34.6694 7.65904 34.6055 7.96479C34.5965 8.29035 34.1325 8.43958 33.9139 8.21026C33.7013 8.02908 33.7677 7.65701 34.0203 7.54503V7.545ZM14.0436 8.59283C14.4203 8.48647 14.818 8.49253 15.2062 8.50307C15.5056 8.52449 15.8205 8.58474 16.0642 8.76833C16.2652 8.92001 16.3824 9.1683 16.3811 9.41703C16.3819 10.0677 16.3819 10.7184 16.3811 11.3691C16.2099 11.3461 16.031 11.3663 15.8655 11.3133C15.7275 11.2709 15.6182 11.1402 15.6247 10.9942C15.6207 10.5207 15.6268 10.0467 15.6227 9.57312C15.6264 9.40405 15.4958 9.25042 15.3311 9.21278C15.0629 9.15012 14.791 9.22088 14.5231 9.24756C14.5367 9.80364 14.5252 10.3597 14.5297 10.9158C14.5366 11.0658 14.4674 11.2312 14.3208 11.2935C14.1452 11.3719 13.9445 11.3578 13.7565 11.3703C13.7422 10.5437 13.7545 9.7167 13.7504 8.88967C13.7344 8.72547 13.9052 8.62964 14.0436 8.59283ZM24.8058 8.62234C24.977 8.54026 25.1686 8.50307 25.3582 8.50589C25.6526 8.50589 25.9471 8.50751 26.2415 8.50548C26.2485 8.73156 26.2804 9.03687 26.0503 9.17153C25.8439 9.25527 25.6129 9.19743 25.4 9.2488C25.2828 9.28154 25.1735 9.36972 25.1456 9.49103C25.1195 9.62647 25.1062 9.76403 25.1059 9.90191C25.1076 10.4135 25.1059 10.9251 25.1067 11.4363C24.9511 11.3376 24.7656 11.3174 24.5907 11.2729C24.4339 11.2328 24.3356 11.0691 24.3479 10.9133C24.3471 10.4143 24.3463 9.91485 24.3483 9.41579C24.3422 9.09675 24.5162 8.7724 24.8058 8.62234ZM26.8943 8.89047C27.0802 8.60134 27.4562 8.54188 27.7743 8.50913C28.2527 8.48444 28.7822 8.46464 29.1941 8.7465C29.5582 9.00695 29.6442 9.48817 29.6475 9.90435C29.6667 10.3083 29.5668 10.752 29.2519 11.0327C28.8211 11.3894 28.1966 11.4464 27.6712 11.2951C27.6597 11.6931 27.6699 12.0914 27.6662 12.4898C27.4795 12.3943 27.2625 12.4319 27.0634 12.3866C26.916 12.3009 26.8849 12.1193 26.8898 11.9644C26.8939 10.9397 26.8849 9.91485 26.8943 8.89047M27.6654 9.2403C27.6662 9.71911 27.6617 10.1984 27.672 10.6768C27.9504 10.7192 28.2617 10.79 28.5176 10.6302C28.7629 10.5158 28.8465 10.2303 28.8567 9.98279C28.8719 9.72682 28.7846 9.43484 28.5516 9.2949C28.2789 9.157 27.9557 9.17601 27.6654 9.2403ZM33.809 8.46826C33.9585 8.54511 34.1285 8.54349 34.2931 8.54552C34.4065 8.53743 34.4995 8.62923 34.5388 8.72671C34.5969 8.89577 34.59 9.07691 34.5887 9.25283C34.5887 9.79272 34.5884 10.333 34.5892 10.8729C34.5908 11.0225 34.5556 11.1973 34.4102 11.2753C34.2284 11.3671 34.0158 11.3594 33.8172 11.3707C33.8021 10.4034 33.818 9.43563 33.809 8.46826ZM35.5941 8.61225C35.9631 8.48968 36.3591 8.49498 36.744 8.50021C37.0713 8.51192 37.4177 8.57424 37.6831 8.77643C37.9034 8.94428 38.0013 9.22776 37.9972 9.49588C37.9943 10.1207 38.0037 10.7459 37.9923 11.3712C37.8125 11.3534 37.6241 11.3683 37.4529 11.3052C37.3063 11.2547 37.2191 11.1026 37.2219 10.9538C37.2187 10.4814 37.2232 10.0095 37.2203 9.53713C37.2256 9.37902 37.0905 9.25365 36.9447 9.21402C36.6785 9.15012 36.407 9.21846 36.1413 9.24677C36.1402 9.31688 36.1361 9.38691 36.1289 9.45667C36.1593 9.80687 36.1097 10.1591 36.138 10.5094C36.0921 10.7492 36.215 11.0525 36.0114 11.2409C35.83 11.3768 35.581 11.3715 35.3652 11.3481C35.3709 10.5146 35.3652 9.68151 35.3681 8.84801C35.3566 8.72144 35.493 8.65268 35.5941 8.61225ZM39.0803 8.68584C39.2003 8.54876 39.3945 8.49901 39.5726 8.50589C39.9547 8.51113 40.3511 8.47394 40.7155 8.61387C40.9928 8.6992 41.2058 8.93495 41.2922 9.20473C41.4019 9.5351 41.345 9.88614 41.3593 10.227C41.3761 10.5546 41.3053 10.9251 41.0313 11.1406C40.768 11.3728 40.3941 11.3525 40.0648 11.3667C39.7106 11.357 39.3084 11.412 39.0083 11.1839C38.7466 10.9971 38.702 10.6412 38.7527 10.3476C38.7769 10.1167 38.885 9.87564 39.1033 9.76521C39.5218 9.51937 40.037 9.72234 40.4731 9.54319C40.5829 9.508 40.6116 9.38023 40.5669 9.28478C40.4731 9.17963 40.3261 9.1497 40.1926 9.12708C39.7749 9.07247 39.349 9.10766 38.9407 9.20714C38.944 9.02716 38.9612 8.83104 39.0803 8.68584ZM40.1058 10.2109C39.8994 10.2137 39.6684 10.2307 39.5149 10.3844C39.5136 10.4677 39.5046 10.5635 39.5755 10.625C39.7069 10.7395 39.8978 10.7233 40.0616 10.7293C40.2328 10.7281 40.4514 10.7621 40.5583 10.5951C40.6279 10.4123 40.607 10.2113 40.6119 10.02C40.4604 10.1175 40.2937 10.2174 40.1058 10.2109ZM10.5557 8.94993C10.8203 8.61346 11.2769 8.52407 11.6848 8.51237C12.0366 8.50913 12.4235 8.54026 12.7069 8.76916C12.9846 9.00616 13.0415 9.39961 13.0198 9.74255C13.0141 9.94116 12.8851 10.1417 12.6844 10.1943C12.4137 10.2675 12.1275 10.2776 11.8494 10.2558C11.6143 10.278 11.3743 10.2889 11.1508 10.3718C11.1479 10.5648 11.351 10.661 11.5177 10.6857C11.9804 10.731 12.442 10.6606 12.8994 10.5979C12.9076 10.8357 12.8859 11.1253 12.6639 11.2697C12.444 11.3958 12.1786 11.4003 11.9313 11.412C11.5136 11.3982 11.0582 11.3643 10.7191 11.0953C10.4197 10.8592 10.3342 10.4628 10.308 10.1041C10.2928 9.71064 10.3137 9.28034 10.5557 8.94993ZM11.2457 9.31105C11.1028 9.44086 11.1114 9.64553 11.1217 9.82065C11.3895 9.72923 11.677 9.74986 11.9542 9.71387C12.0648 9.69487 12.1668 9.63661 12.2343 9.54722C12.2339 9.48576 12.2347 9.4243 12.2364 9.36325C11.9956 9.09434 11.5124 9.06276 11.2457 9.31105ZM21.8077 8.53055C22.2295 8.47635 22.6926 8.50507 23.0636 8.7287C23.4142 8.93736 23.5797 9.35031 23.5846 9.74097C23.5961 10.1462 23.5969 10.5983 23.3245 10.9307C23.0874 11.2478 22.6668 11.3456 22.2885 11.3602C21.9526 11.355 21.607 11.3392 21.2925 11.2106C21.0279 11.0897 20.8203 10.8486 20.7532 10.5676C20.6565 10.1927 20.5971 9.79272 20.704 9.41421C20.7978 9.08745 21.0284 8.78696 21.3506 8.6543C21.496 8.59163 21.6508 8.55238 21.8077 8.53055ZM21.8863 9.22008C21.7209 9.25768 21.5447 9.34462 21.4829 9.51207C21.3674 9.78907 21.3998 10.1162 21.5112 10.3892C21.6127 10.6246 21.8957 10.6735 22.1263 10.6824C22.3617 10.6921 22.641 10.6214 22.7573 10.3981C22.8626 10.2251 22.845 10.0168 22.8392 9.82347C22.8266 9.60386 22.7209 9.37255 22.5132 9.27187C22.3188 9.18286 22.0931 9.17842 21.8863 9.22008Z" fill="white"/>
</g>
<defs>
<linearGradient id="paint0_linear_777_2549" x1="7.5441" y1="0.162109" x2="7.5441" y2="8.63239" gradientUnits="userSpaceOnUse">
<stop stop-color="#09ADEC"/>
<stop offset="1" stop-color="#181D63"/>
</linearGradient>
<linearGradient id="paint1_linear_777_2549" x1="7.66617" y1="19.753" x2="7.66617" y2="11.0762" gradientUnits="userSpaceOnUse">
<stop stop-color="#F9A221"/>
<stop offset="1" stop-color="#380400"/>
</linearGradient>
<linearGradient id="paint2_linear_777_2549" x1="0.239502" y1="9.96622" x2="8.71214" y2="9.96622" gradientUnits="userSpaceOnUse">
<stop stop-color="#5E0105"/>
<stop offset="1" stop-color="#DD1A22"/>
</linearGradient>
<linearGradient id="paint3_linear_777_2549" x1="7.54037" y1="11.2891" x2="7.54037" y2="8.60741" gradientUnits="userSpaceOnUse">
<stop stop-color="white" stop-opacity="0"/>
<stop offset="1" stop-color="white"/>
</linearGradient>
</defs>
</svg>
