<svg width="112" height="23" viewBox="0 0 112 23" fill="none" xmlns="http://www.w3.org/2000/svg">
<path d="M18.5366 2.41016H30.9897V5.24113H21.7718V9.37374H27.9085V12.2047H21.7718V16.8314H31.2721V19.6623H18.5366V2.41016Z" fill="white"/>
<path d="M30.3777 7.40234H33.6899L36.5914 15.9511L39.2831 7.40234H42.4927L38.0378 19.667H35.0593L30.3777 7.40234Z" fill="white"/>
<path d="M41.9834 13.5622C41.9834 9.82047 44.5724 7.16992 48.2741 7.16992C51.9501 7.16992 54.5392 9.82047 54.5392 13.5622C54.5392 17.2523 51.8988 19.9028 48.1971 19.9028C44.5211 19.9028 41.9834 17.3039 41.9834 13.5622ZM51.2782 13.6395V13.5364C51.2782 11.1994 50.1399 9.79469 48.2741 9.79469C46.3826 9.79469 45.2443 11.1994 45.2443 13.5364V13.6395C45.2443 15.9249 46.3569 17.2781 48.2228 17.2781C50.1143 17.2781 51.2782 15.9249 51.2782 13.6395Z" fill="white"/>
<path d="M55.9985 2.17773H59.2338V19.6662H55.9985V2.17773Z" fill="white"/>
<path d="M61.0823 14.7569V7.40234H64.2918V14.5764C64.2918 16.2131 65.0664 17.1754 66.5171 17.1754C68.1989 17.1754 68.9007 15.7449 68.9007 13.6399V7.40234H72.1103V19.667H68.9007V17.9272C68.2545 19.1988 67.1419 19.9033 65.5628 19.9033C62.7898 19.9033 61.0823 17.9272 61.0823 14.7569Z" fill="white"/>
<path d="M75.0459 16.418V9.99998H73.3127V7.40099H75.0459V5.08982L78.1784 3.32422V7.40528H80.5877V10.0043H78.1527V16.113C78.1527 16.7101 78.4395 16.9722 79.0343 16.9979H80.4593V19.6743H77.973C75.6151 19.5368 75.0973 18.4456 75.0459 16.418Z" fill="white"/>
<path d="M82.043 2.46094H85.3809V5.60551H82.043V2.46094ZM82.0943 7.40117H85.3296V19.6658H82.0943V7.40117Z" fill="white"/>
<path d="M86.793 13.5622C86.793 9.82047 89.382 7.16992 93.0837 7.16992C96.7597 7.16992 99.3487 9.82047 99.3487 13.5622C99.3487 17.2523 96.7083 19.9028 93.0067 19.9028C89.3264 19.9028 86.793 17.3039 86.793 13.5622ZM96.0835 13.6395V13.5364C96.0835 11.1994 94.9452 9.79469 93.0794 9.79469C91.1879 9.79469 90.0496 11.1994 90.0496 13.5364V13.6395C90.0496 15.9249 91.1622 17.2781 93.028 17.2781C94.9195 17.2781 96.0835 15.9249 96.0835 13.6395Z" fill="white"/>
<path d="M100.782 7.40228H103.992V9.40415C104.638 7.97363 105.832 7.14453 107.565 7.14453C110.231 7.14453 111.81 8.9359 111.81 12.3167V19.6713H108.601V12.4972C108.601 10.7831 107.954 9.89818 106.452 9.89818C104.925 9.89818 103.992 11.144 103.992 13.4337V19.6713H100.782V7.40228Z" fill="white"/>
<path d="M14.0133 20.8646C13.9663 20.8646 13.9363 20.8689 13.855 20.8689H13.7737V20.465H13.8849C14.0262 20.465 14.0904 20.465 14.1417 20.4908C14.2401 20.5424 14.2444 20.6369 14.2444 20.6627C14.2401 20.856 14.0647 20.8646 14.0133 20.8646ZM14.4841 20.667C14.4841 20.5166 14.4199 20.4135 14.3386 20.3448C14.2273 20.2545 14.1118 20.2545 13.9406 20.2503H13.5298V21.5476H13.7694V21.0665H13.9834L14.2401 21.5476H14.514L14.2273 21.0192C14.3043 21.002 14.4841 20.9161 14.4841 20.667ZM13.9748 21.9299C13.4228 21.9299 12.9777 21.4832 12.9777 20.929C12.9777 20.3748 13.4228 19.9281 13.9748 19.9281C14.5269 19.9281 14.9719 20.3748 14.9719 20.929C14.9719 21.4789 14.5269 21.9299 13.9748 21.9299ZM13.9748 19.666C13.2815 19.666 12.7209 20.2288 12.7209 20.9247C12.7209 21.6206 13.2815 22.1834 13.9748 22.1834C14.6681 22.1834 15.2287 21.6206 15.2287 20.9247C15.2287 20.2331 14.6638 19.666 13.9748 19.666Z" fill="white"/>
<path d="M11.9248 10.4388C12.9219 10.4689 14.0174 10.4431 15.2242 10.3486C15.0488 7.90423 14.2571 5.87658 13.0717 4.30859C13.1273 4.73818 13.1616 5.17636 13.1616 5.62313C13.1616 7.37154 12.7122 9.01256 11.9248 10.4388Z" fill="white"/>
<path d="M11.5097 11.1315C9.72945 13.8207 6.6868 15.5949 3.22905 15.5949C2.98084 15.5949 2.73691 15.582 2.49727 15.5648C1.61571 16.9223 1.04655 18.4301 0.41748 19.8478C6.61833 23.1728 14.6251 19.6673 15.2285 11.2045C13.8462 11.0971 12.6138 11.0799 11.5097 11.1315Z" fill="white"/>
<path d="M0.41748 1.7055C2.14208 5.60184 3.43446 10.1726 11.9291 10.439C12.7165 9.00846 13.1658 7.36744 13.1658 5.61903C13.1658 5.17226 13.1316 4.73408 13.0759 4.30449C10.1531 0.433926 4.82954 -0.657222 0.41748 1.7055Z" fill="url(#paint0_radial_71_530)"/>
<path d="M11.5097 11.1309C6.40013 11.3843 3.99938 13.2573 2.49731 15.5642C2.74124 15.5814 2.98089 15.5943 3.22909 15.5943C6.68685 15.5943 9.7295 13.8201 11.5097 11.1309Z" fill="url(#paint1_radial_71_530)"/>
<defs>
<radialGradient id="paint0_radial_71_530" cx="0" cy="0" r="1" gradientUnits="userSpaceOnUse" gradientTransform="translate(6.78796 5.4559) rotate(-146.318) scale(8.46531 7.63021)">
<stop offset="0.1698" stop-color="#ECECEC"/>
<stop offset="0.323387" stop-color="#D6D6D6"/>
<stop offset="0.4875" stop-color="#949494"/>
<stop offset="0.6108" stop-color="#868686"/>
<stop offset="0.719229" stop-color="#6C6C6C"/>
<stop offset="0.8851" stop-color="#838383"/>
</radialGradient>
<radialGradient id="paint1_radial_71_530" cx="0" cy="0" r="1" gradientUnits="userSpaceOnUse" gradientTransform="translate(7.01098 13.3615) rotate(-114.915) scale(3.5647 9.3667)">
<stop offset="0.1155" stop-color="#ECECEC"/>
<stop offset="0.234843" stop-color="#E1E1E1"/>
<stop offset="0.38068" stop-color="#C2C2C2"/>
<stop offset="0.516099" stop-color="#909090"/>
<stop offset="0.6987" stop-color="#656565"/>
</radialGradient>
</defs>
</svg>
