<svg width="42" height="9" viewBox="0 0 42 9" fill="none" xmlns="http://www.w3.org/2000/svg">
<path d="M7.36194 0.925781H11.8903V1.95522H8.53838V3.45799H10.7699V4.48744H8.53838V6.16985H11.993V7.1993H7.36194V0.925781Z" fill="white"/>
<path d="M11.6678 2.74219H12.8723L13.9274 5.85083L14.9062 2.74219H16.0733L14.4533 7.20207H13.3703L11.6678 2.74219Z" fill="white"/>
<path d="M15.8881 4.9807C15.8881 3.62008 16.8295 2.65625 18.1756 2.65625C19.5123 2.65625 20.4538 3.62008 20.4538 4.9807C20.4538 6.32257 19.4936 7.2864 18.1476 7.2864C16.8109 7.2864 15.8881 6.34132 15.8881 4.9807ZM19.268 5.00882V4.97133C19.268 4.12153 18.8541 3.61071 18.1756 3.61071C17.4878 3.61071 17.0738 4.12153 17.0738 4.97133V5.00882C17.0738 5.83987 17.4784 6.33194 18.1569 6.33194C18.8447 6.33194 19.268 5.83987 19.268 5.00882Z" fill="white"/>
<path d="M20.9845 0.841797H22.1609V7.20123H20.9845V0.841797Z" fill="white"/>
<path d="M22.8331 5.41655V2.74219H24.0002V5.35094C24.0002 5.94612 24.2819 6.29603 24.8094 6.29603C25.421 6.29603 25.6762 5.77584 25.6762 5.0104V2.74219H26.8433V7.20207H25.6762V6.56941C25.4412 7.0318 25.0366 7.28799 24.4624 7.28799C23.454 7.28799 22.8331 6.56941 22.8331 5.41655Z" fill="white"/>
<path d="M27.9108 6.02114V3.68732H27.2805V2.74223H27.9108V1.9018L29.0499 1.25977V2.74379H29.926V3.68888H29.0405V5.91023C29.0405 6.12736 29.1448 6.22265 29.3611 6.23203H29.8793V7.20523H28.9752C28.1177 7.15525 27.9294 6.75846 27.9108 6.02114Z" fill="white"/>
<path d="M30.4551 0.945312H31.6689V2.08879H30.4551V0.945312ZM30.4738 2.74176H31.6502V7.20164H30.4738V2.74176Z" fill="white"/>
<path d="M32.1824 4.9807C32.1824 3.62008 33.1238 2.65625 34.4699 2.65625C35.8066 2.65625 36.7481 3.62008 36.7481 4.9807C36.7481 6.32257 35.788 7.2864 34.4419 7.2864C33.1036 7.2864 32.1824 6.34132 32.1824 4.9807ZM35.5608 5.00882V4.97133C35.5608 4.12153 35.1468 3.61071 34.4684 3.61071C33.7805 3.61071 33.3666 4.12153 33.3666 4.97133V5.00882C33.3666 5.83987 33.7712 6.33194 34.4497 6.33194C35.1375 6.33194 35.5608 5.83987 35.5608 5.00882Z" fill="white"/>
<path d="M37.2694 2.74217H38.4365V3.47012C38.6715 2.94993 39.1057 2.64844 39.7359 2.64844C40.7054 2.64844 41.2796 3.29985 41.2796 4.52924V7.20361H40.1125V4.59485C40.1125 3.97156 39.8775 3.64976 39.3313 3.64976C38.7758 3.64976 38.4365 4.10278 38.4365 4.9354V7.20361H37.2694V2.74217Z" fill="white"/>
<path d="M5.71715 7.63701C5.70003 7.63701 5.68914 7.63857 5.65957 7.63857H5.63V7.49173H5.67046C5.72182 7.49173 5.74516 7.49173 5.76383 7.5011C5.79962 7.51985 5.80118 7.55421 5.80118 7.56359C5.79962 7.63388 5.73582 7.63701 5.71715 7.63701ZM5.88832 7.56515C5.88832 7.51047 5.86498 7.47298 5.83542 7.44799C5.79496 7.41518 5.75294 7.41518 5.69069 7.41362H5.5413V7.88538H5.62845V7.71043H5.70626L5.79962 7.88538H5.89922L5.79496 7.69324C5.82297 7.68699 5.88832 7.65575 5.88832 7.56515ZM5.70314 8.02442C5.5024 8.02442 5.34056 7.86195 5.34056 7.66044C5.34056 7.45892 5.5024 7.29646 5.70314 7.29646C5.90389 7.29646 6.06572 7.45892 6.06572 7.66044C6.06572 7.86039 5.90389 8.02442 5.70314 8.02442ZM5.70314 7.20117C5.45105 7.20117 5.24719 7.40581 5.24719 7.65888C5.24719 7.91194 5.45105 8.11658 5.70314 8.11658C5.95524 8.11658 6.15909 7.91194 6.15909 7.65888C6.15909 7.40737 5.95368 7.20117 5.70314 7.20117Z" fill="white"/>
<path d="M4.95764 3.84635C5.32022 3.85728 5.7186 3.84791 6.15743 3.81354C6.09363 2.92469 5.80574 2.18736 5.37469 1.61719C5.39492 1.7734 5.40737 1.93274 5.40737 2.0952C5.40737 2.73099 5.24397 3.32772 4.95764 3.84635Z" fill="white"/>
<path d="M4.80672 4.09806C4.15936 5.07595 3.05295 5.72111 1.79558 5.72111C1.70532 5.72111 1.61662 5.71642 1.52948 5.71017C1.20891 6.20381 1.00195 6.75211 0.773193 7.26762C3.02805 8.47671 5.93959 7.20201 6.15901 4.12461C5.65638 4.08556 5.20821 4.07931 4.80672 4.09806Z" fill="white"/>
<path d="M0.773193 0.669898C1.40032 2.08675 1.87028 3.74886 4.95922 3.84571C5.24555 3.32552 5.40895 2.72879 5.40895 2.093C5.40895 1.93054 5.3965 1.7712 5.37627 1.61499C4.31342 0.207507 2.37758 -0.189274 0.773193 0.669898Z" fill="url(#paint0_radial_777_2504)"/>
<path d="M4.80678 4.09766C2.94875 4.18982 2.07575 4.87091 1.52954 5.70977C1.61824 5.71602 1.70539 5.72071 1.79564 5.72071C3.05301 5.72071 4.15943 5.07555 4.80678 4.09766Z" fill="url(#paint1_radial_777_2504)"/>
<defs>
<radialGradient id="paint0_radial_777_2504" cx="0" cy="0" r="1" gradientUnits="userSpaceOnUse" gradientTransform="translate(3.08973 2.03368) rotate(-146.318) scale(3.07829 2.77462)">
<stop offset="0.1698" stop-color="#ECECEC"/>
<stop offset="0.323387" stop-color="#D6D6D6"/>
<stop offset="0.4875" stop-color="#949494"/>
<stop offset="0.6108" stop-color="#868686"/>
<stop offset="0.719229" stop-color="#6C6C6C"/>
<stop offset="0.8851" stop-color="#838383"/>
</radialGradient>
<radialGradient id="paint1_radial_777_2504" cx="0" cy="0" r="1" gradientUnits="userSpaceOnUse" gradientTransform="translate(3.17087 4.90879) rotate(-114.915) scale(1.29626 3.40607)">
<stop offset="0.1155" stop-color="#ECECEC"/>
<stop offset="0.234843" stop-color="#E1E1E1"/>
<stop offset="0.38068" stop-color="#C2C2C2"/>
<stop offset="0.516099" stop-color="#909090"/>
<stop offset="0.6987" stop-color="#656565"/>
</radialGradient>
</defs>
</svg>
