<svg width="54" height="49" viewBox="0 0 54 49" fill="none" xmlns="http://www.w3.org/2000/svg">
<g id="Evoplay" style="mix-blend-mode:luminosity">
<g id="&#208;&#161;&#208;&#187;&#208;&#190;&#208;&#185; 2">
<g id="&#208;&#161;&#208;&#187;&#208;&#190;&#208;&#185; 1">
<path id="Vector" d="M0.585693 47.5876V39.8418H6.86871C6.61836 40.4335 6.39417 40.9971 6.13635 41.5459C6.10085 41.6205 5.90842 41.6541 5.78698 41.656C4.91449 41.656 4.04201 41.656 3.17139 41.656H2.73608V42.8132H5.6151C5.36288 43.4067 5.14803 43.9331 4.90889 44.4501C4.88086 44.5117 4.72206 44.5397 4.62678 44.5397C4.00277 44.5397 3.37877 44.5397 2.72861 44.5397V45.7641H6.87058V47.5876H0.585693Z" fill="white"/>
<path id="Vector_2" d="M15.629 39.7989C15.1825 40.9076 14.7658 41.9472 14.3474 42.9868C13.7588 44.4483 13.1666 45.9097 12.5893 47.3767C12.5723 47.472 12.519 47.5569 12.4406 47.6137C12.3622 47.6704 12.2648 47.6945 12.1689 47.681C11.6907 47.6642 11.2105 47.681 10.7341 47.666C10.6631 47.6585 10.5948 47.6349 10.5342 47.5971C10.4737 47.5592 10.4226 47.5081 10.3847 47.4477C9.36652 44.9503 8.37073 42.4549 7.36933 39.9613C7.35812 39.9296 7.35812 39.8922 7.34131 39.8008C8.09983 39.8008 8.83593 39.7914 9.58324 39.8157C9.67105 39.8157 9.78875 40.0023 9.83172 40.1162C10.3324 41.4936 10.8238 42.8748 11.317 44.256C11.3618 44.3811 11.4104 44.5042 11.4889 44.7133L11.9055 43.5747C12.3221 42.4138 12.7444 41.2547 13.1479 40.0882C13.1678 39.9954 13.2223 39.9136 13.3004 39.8595C13.3785 39.8054 13.4743 39.7831 13.5683 39.797C14.224 39.8082 14.891 39.7989 15.629 39.7989Z" fill="white"/>
<path id="Vector_3" d="M49.9474 47.599H47.7745C47.7745 46.9644 47.7334 46.341 47.7745 45.7232C47.8248 45.0402 47.6352 44.361 47.2384 43.8026C46.4761 42.6211 45.7718 41.4005 45.0431 40.1966C44.9777 40.0865 44.918 39.9726 44.8208 39.8009C45.6298 39.8009 46.3752 39.7916 47.1188 39.8121C47.2159 39.8121 47.3411 39.9446 47.399 40.0473C47.8287 40.7939 48.2454 41.5404 48.6657 42.287C48.7255 42.3916 48.789 42.4942 48.8712 42.6342C49.3607 41.7719 49.8409 40.9544 50.2949 40.1126C50.3386 40.0075 50.4157 39.9198 50.5142 39.8628C50.6128 39.8058 50.7274 39.7827 50.8404 39.7972C51.498 39.8158 52.1482 39.7972 52.8955 39.7972C52.7927 39.9745 52.7292 40.0883 52.662 40.1985C51.8082 41.5983 50.9506 42.9982 50.1062 44.4017C50.01 44.5683 49.9574 44.7564 49.953 44.9486C49.9399 45.8146 49.9474 46.6863 49.9474 47.599Z" fill="white"/>
<path id="Vector_4" d="M31.5244 47.6186V39.8242H33.6542V45.6961H37.09C36.8172 46.3419 36.5725 46.9298 36.3128 47.514C36.2877 47.5454 36.2558 47.5707 36.2196 47.5882C36.1834 47.6056 36.1438 47.6147 36.1036 47.6148C34.5884 47.6204 33.0788 47.6186 31.5244 47.6186Z" fill="white"/>
<path id="Vector_5" d="M19.2685 39.6759C18.4656 39.6762 17.6808 39.9147 17.0136 40.361C16.3465 40.8073 15.8269 41.4414 15.5208 42.1829C15.2146 42.9245 15.1357 43.7401 15.2939 44.5265C15.4521 45.3129 15.8404 46.0347 16.4096 46.6005C16.9788 47.1662 17.7033 47.5505 18.4913 47.7046C19.2792 47.8587 20.0952 47.7756 20.8359 47.466C21.5766 47.1564 22.2087 46.6341 22.652 45.9654C23.0954 45.2966 23.3301 44.5114 23.3264 43.7093C23.3271 43.1777 23.2225 42.6512 23.0186 42.1601C22.8147 41.6691 22.5155 41.2232 22.1383 40.8483C21.761 40.4733 21.3132 40.1767 20.8207 39.9755C20.3281 39.7742 19.8006 39.6724 19.2685 39.6759ZM19.2685 45.852C18.7158 45.8356 18.1912 45.6047 17.806 45.2084C17.4208 44.812 17.2054 44.2813 17.2054 43.7289C17.2054 43.1765 17.4208 42.6458 17.806 42.2494C18.1912 41.853 18.7158 41.6222 19.2685 41.6058C19.5529 41.5974 19.836 41.646 20.1012 41.7489C20.3665 41.8519 20.6083 42.0069 20.8124 42.2049C21.0166 42.4029 21.1788 42.6397 21.2897 42.9015C21.4005 43.1633 21.4576 43.4447 21.4576 43.7289C21.4576 44.0131 21.4005 44.2945 21.2897 44.5562C21.1788 44.818 21.0166 45.0549 20.8124 45.2529C20.6083 45.4509 20.3665 45.6059 20.1012 45.7088C19.836 45.8117 19.5529 45.8604 19.2685 45.852Z" fill="white"/>
<path id="Vector_6" d="M46.0651 47.4542C45.0151 44.9557 43.9601 42.4577 42.9002 39.9604C42.863 39.907 42.8143 39.8626 42.7578 39.8303C42.7012 39.798 42.6382 39.7787 42.5733 39.7738C42.0707 39.7532 41.5663 39.7738 41.0637 39.7588C40.9632 39.7431 40.8604 39.7654 40.7754 39.8213C40.6904 39.8772 40.6293 39.9627 40.6041 40.0612C39.5977 42.4751 38.5845 44.8854 37.5644 47.2919C37.5252 47.3889 37.4953 47.4916 37.4504 47.6278C38.166 47.6278 38.8404 47.6372 39.5055 47.6278C39.5636 47.612 39.6176 47.5838 39.6637 47.5451C39.7098 47.5064 39.747 47.4582 39.7727 47.4038C39.9184 47.0959 40.0193 46.7655 40.1669 46.4575C40.1954 46.4046 40.2353 46.3587 40.2838 46.3232C40.3323 46.2877 40.3881 46.2634 40.4472 46.2522C41.3047 46.2354 42.166 46.2354 43.0235 46.2522C43.0877 46.2655 43.1481 46.2926 43.2007 46.3316C43.2533 46.3706 43.2968 46.4206 43.328 46.4781C43.4812 46.7842 43.5877 47.1108 43.7335 47.4206C43.7764 47.5102 43.8923 47.626 43.9782 47.6278C44.6751 47.6446 45.3719 47.6278 46.0912 47.6278C46.0873 47.5693 46.0785 47.5113 46.0651 47.4542ZM40.903 44.509C41.1795 43.809 41.4504 43.124 41.7606 42.3327L42.6218 44.509H40.903Z" fill="white"/>
<path id="Vector_7" d="M30.7134 42.0576C30.5546 40.8388 29.5234 39.9224 28.1091 39.8533C26.848 39.7898 25.5813 39.816 24.3183 39.8066C24.2821 39.8137 24.2473 39.827 24.2156 39.8458V47.5991H26.3678V45.3594C26.9283 45.3594 27.4589 45.3911 27.982 45.3594C29.8746 45.2156 30.9526 43.9073 30.7134 42.0576ZM27.6756 43.659C27.5291 43.673 27.3819 43.6786 27.2347 43.6758C26.9563 43.6758 26.6742 43.6758 26.3753 43.6758V41.6022C26.8498 41.6246 27.3094 41.6134 27.7466 41.6768C28.3277 41.759 28.6042 42.1229 28.5892 42.6866C28.5901 42.9346 28.496 43.1736 28.3261 43.3544C28.1562 43.5352 27.9234 43.6442 27.6756 43.659Z" fill="white"/>
<path id="Vector_8" d="M13.3218 9.37243V16.7953L44.2829 8.87409L47.7186 0.273438L13.3218 9.37243Z" fill="#00B8FF"/>
<path id="Vector_9" d="M13.3833 18.233V25.2975L38.8292 21.8446L41.9661 14.123L13.3833 18.233Z" fill="#00B8FF"/>
<path id="Vector_10" d="M13.3628 26.7521V33.8558H34.0147L36.9722 26.7129L13.3628 26.7521Z" fill="#00B8FF"/>
</g>
</g>
</g>
</svg>
