<svg width="76" height="31" viewBox="0 0 76 31" fill="none" xmlns="http://www.w3.org/2000/svg">
<g id="Ezugi" style="mix-blend-mode:luminosity">
<path id="Vector" d="M22.6043 9.0957L22.3727 19.79C22.3727 19.79 22.027 15.5714 22.6043 9.0957ZM54.252 22.5196C54.2518 22.5891 54.2244 22.6558 54.1757 22.7054C54.127 22.7551 54.0609 22.7838 53.9914 22.7854C53.2854 22.8051 52.6416 22.8809 51.8775 22.9193C51.1392 22.9557 50.4239 22.9837 49.8549 23.1031C49.8127 23.1124 49.7689 23.1111 49.7272 23.0996C49.6856 23.088 49.6475 23.0664 49.6161 23.0367C49.5898 23.0118 49.5689 22.9819 49.5547 22.9487C49.5404 22.9155 49.533 22.8797 49.533 22.8435V21.39C49.533 21.3411 49.5195 21.2932 49.494 21.2515C49.4686 21.2099 49.4321 21.176 49.3887 21.1537C49.3452 21.1314 49.2965 21.1215 49.2477 21.125C49.199 21.1286 49.1522 21.1456 49.1125 21.174C48.5171 21.6196 47.8954 22.0291 47.2509 22.4002C46.3569 22.8986 45.7091 23.1343 44.8764 23.1343C42.8102 23.1343 41.0513 21.9309 41.0513 18.761V13.011C41.0513 11.4536 40.8042 11.1224 40.0338 10.947L39.3683 10.8109C39.3122 10.7985 39.2616 10.7682 39.2242 10.7246C39.1867 10.681 39.1644 10.6264 39.1606 10.569L39.1368 10.2316C39.1341 10.196 39.1386 10.1603 39.15 10.1266C39.1615 10.0928 39.1796 10.0618 39.2034 10.0352C39.2271 10.0086 39.256 9.98714 39.2883 9.972C39.3205 9.95686 39.3555 9.94839 39.3911 9.94709C40.2674 9.91594 42.4084 9.85261 43.2743 9.78512C43.3123 9.78202 43.3504 9.78717 43.3862 9.80024C43.422 9.8133 43.4545 9.83397 43.4816 9.8608C43.5086 9.88764 43.5295 9.92002 43.5428 9.9557C43.5562 9.99139 43.5616 10.0295 43.5588 10.0675C43.4934 10.9708 43.4934 12.2562 43.4934 14.0078V17.9699C43.4934 20.5822 44.8192 21.2861 46.2074 21.2861C47.2862 21.2861 48.4242 20.8708 49.4489 19.9582C49.4771 19.9329 49.4996 19.902 49.5149 19.8675C49.5303 19.833 49.5383 19.7956 49.5382 19.7578V13.011C49.5382 11.4536 49.261 11.0933 48.2425 10.947L47.3464 10.8037C47.2839 10.7938 47.2269 10.7619 47.1858 10.7137C47.1447 10.6656 47.1221 10.6043 47.1221 10.541V10.2139C47.1218 10.1451 47.1483 10.0789 47.196 10.0293C47.2437 9.97966 47.3088 9.95056 47.3776 9.94813C48.3681 9.91698 50.7893 9.85157 51.6792 9.782C51.7155 9.77929 51.7521 9.78412 51.7865 9.7962C51.821 9.80828 51.8525 9.82735 51.8793 9.85222C51.906 9.87708 51.9273 9.90719 51.9418 9.94067C51.9563 9.97415 51.9637 10.0103 51.9636 10.0468V19.5522C51.9636 21.0193 52.2097 21.8561 53.4172 21.9402L53.9935 21.961C54.0623 21.9634 54.1276 21.9925 54.1754 22.0421C54.2233 22.0917 54.25 22.1579 54.2499 22.2268L54.252 22.5196ZM38.5211 19.4359C38.1442 20.4275 37.7133 21.5395 37.3177 22.5456C37.2901 22.6155 37.2421 22.6756 37.1798 22.7178C37.1176 22.76 37.044 22.7825 36.9688 22.7823H27.3077C27.2378 22.7825 27.1693 22.7631 27.1098 22.7264C27.0504 22.6897 27.0024 22.6371 26.9713 22.5746L26.9567 22.5435C26.9271 22.483 26.9144 22.4157 26.9199 22.3487C26.9254 22.2816 26.9489 22.2173 26.9879 22.1624C29.461 18.68 31.8024 15.1696 34.1624 11.5367C34.199 11.4802 34.2198 11.415 34.2226 11.3477C34.2254 11.2805 34.2101 11.2137 34.1782 11.1544C34.1464 11.0951 34.0992 11.0454 34.0416 11.0106C33.9841 10.9757 33.9182 10.957 33.8509 10.9563H31.7972C29.5763 10.9563 29.1755 11.3965 28.3117 13.0401L28.0313 13.5593C27.989 13.637 27.9206 13.6973 27.8381 13.7294C27.7556 13.7615 27.6645 13.7634 27.5807 13.7347L27.453 13.6911C27.3611 13.6596 27.285 13.5935 27.2408 13.5069C27.1967 13.4203 27.1879 13.32 27.2163 13.227C27.5049 12.2926 27.8299 11.2917 28.0531 10.2627C28.0707 10.1787 28.1166 10.1033 28.1831 10.0491C28.2497 9.99482 28.3328 9.96506 28.4186 9.96474H37.3551C37.4273 9.9648 37.4979 9.98569 37.5585 10.0249C37.6191 10.0642 37.6671 10.1201 37.6967 10.1859C37.7228 10.2441 37.7337 10.308 37.7283 10.3716C37.7228 10.4352 37.7012 10.4964 37.6655 10.5493C35.3024 14.0493 32.9891 17.5712 30.6301 21.2342C30.5938 21.2907 30.5732 21.3558 30.5706 21.4229C30.5679 21.49 30.5833 21.5566 30.6151 21.6157C30.6469 21.6749 30.6939 21.7244 30.7514 21.7592C30.8088 21.794 30.8745 21.8128 30.9416 21.8136H33.3089C35.6481 21.8136 36.267 21.1999 37.434 19.4484L37.4485 19.4245L37.6707 19.0351C37.7176 18.9529 37.7939 18.8915 37.8842 18.8632C37.9745 18.8348 38.0722 18.8418 38.1577 18.8825L38.3331 18.9656C38.4176 19.0063 38.4838 19.0771 38.5186 19.1642C38.5533 19.2513 38.5542 19.3482 38.5211 19.4359ZM67.6344 22.3825C67.6346 22.2834 67.6716 22.188 67.7381 22.1145C67.8047 22.0411 67.8961 21.9949 67.9946 21.9849C69.7005 21.8125 70.5758 21.5395 70.5758 19.6706V13.6247C70.5758 11.9209 70.4948 11.3571 68.9644 11.0757C68.8719 11.0592 68.7881 11.0108 68.7276 10.9389C68.6671 10.867 68.6337 10.7762 68.6332 10.6822V10.3458C68.6332 10.2417 68.6737 10.1417 68.7462 10.0671C68.8187 9.99245 68.9175 9.94903 69.0215 9.94605C69.6891 9.92736 71.1064 9.8796 72.3886 9.78512C72.4435 9.78097 72.4986 9.7882 72.5505 9.80637C72.6024 9.82454 72.65 9.85325 72.6902 9.89069C72.7305 9.92814 72.7626 9.97351 72.7845 10.024C72.8064 10.0744 72.8176 10.1288 72.8175 10.1838V19.6706C72.8175 21.5395 73.1777 21.8125 74.8421 21.9838C74.9409 21.9936 75.0325 22.0397 75.0993 22.1132C75.166 22.1866 75.2031 22.2822 75.2034 22.3815C75.2034 22.434 75.1931 22.486 75.173 22.5345C75.1529 22.583 75.1235 22.627 75.0863 22.6642C75.0492 22.7013 75.0051 22.7307 74.9566 22.7508C74.9081 22.7709 74.8562 22.7812 74.8037 22.7812H68.0341C67.9283 22.7812 67.8268 22.7393 67.7518 22.6645C67.6769 22.5898 67.6346 22.4884 67.6344 22.3825Z" fill="white"/>
<path id="Vector_2" d="M3.70746 5.76418L24.6661 0.136719L23.903 30.1367L0.623779 25.7251L3.70746 5.76418Z" fill="url(#paint0_linear_71_330)"/>
<path id="Vector_3" d="M24.6662 0.136719L25.8 0.959035L25.0628 28.8202L23.9031 30.1367L24.6662 0.136719Z" fill="url(#paint1_linear_71_330)"/>
<path id="Vector_4" opacity="0.15" d="M3.70729 5.76418L3.40412 7.19078C3.40412 7.25723 3.39893 7.32368 3.39893 7.39117C3.39893 16.0784 10.3388 23.1211 19.4704 23.1211C21.034 23.1212 22.5903 22.9095 24.097 22.4919L24.666 0.136719L3.70729 5.76418Z" fill="white"/>
<path id="Vector_5" d="M22.087 20.8639C21.7111 22.033 20.542 25.2911 20.0717 26.3305L2.74072 23.8106L2.80302 23.1315C5.99469 23.3392 6.29786 23.1575 6.51382 20.9937L7.58014 10.4168C7.82413 8.02874 7.53445 7.98928 4.64596 8.46066L4.71345 7.75878L21.9478 3.66797C21.844 4.54012 21.7505 6.87209 21.6519 8.63405L20.488 8.96319C20.3063 7.58747 20.0011 6.91363 19.5712 6.30831C19.105 5.68534 18.0667 5.69365 15.2478 6.31558L12.3136 6.95827C11.1279 7.21576 11.0428 7.31855 10.9535 8.14918L10.2558 14.6529L13.7683 14.4017C17.2247 14.1535 17.4469 13.8825 18.1695 11.6326L19.2961 11.5018L18.5288 17.9246H17.4272C17.206 15.6102 16.962 15.4327 13.6727 15.5874L10.1426 15.7598L9.56948 21.111C9.42931 22.438 9.57882 23.0838 10.1924 23.4991C10.8351 23.9559 12.0987 24.1127 13.9178 24.3401C16.7118 24.6941 17.7833 24.5602 18.7094 23.7794C19.431 23.1564 20.2959 22.0091 20.9936 20.6739L22.087 20.8639ZM67.3091 10.4957C67.3102 10.6347 67.2582 10.7689 67.1636 10.8708C67.069 10.9727 66.9391 11.0346 66.8004 11.0439C66.2335 11.0865 65.6936 11.2256 65.4568 11.6243C65.4124 11.6752 65.3879 11.7405 65.3879 11.8081C65.3879 11.8757 65.4124 11.9409 65.4568 11.9918C65.87 12.6478 66.0862 13.4085 66.0798 14.1836C66.0798 17.3535 63.3035 18.8798 60.6808 18.8798C60.2638 18.8764 59.8475 18.8449 59.4348 18.7853C59.3219 18.7681 59.2066 18.7758 59.097 18.8079C58.9874 18.84 58.8862 18.8957 58.8005 18.9711C58.4807 19.2598 58.1775 19.6543 58.1775 19.9648C58.1775 20.5223 58.733 20.8733 60.1211 20.8733C61.2632 20.8733 62.341 20.7757 63.3471 20.866C65.2471 21.0363 67.4109 22.5335 67.4109 24.8862C67.4109 27.3542 64.4196 29.1888 60.3174 29.1888C56.863 29.1888 54.7553 27.4881 54.7553 25.8144C54.7553 23.7493 56.9772 23.0983 57.7051 22.5459C57.7386 22.5213 57.7648 22.488 57.781 22.4497C57.7972 22.4114 57.8028 22.3694 57.7972 22.3282C57.7915 22.2869 57.7749 22.248 57.749 22.2154C57.7231 22.1829 57.6889 22.1579 57.65 22.1431C56.7561 21.789 56.0345 21.6707 55.7728 21.2252C54.8155 19.5952 57.4092 19.1695 57.9221 18.6545C57.9489 18.6283 57.969 18.596 57.9805 18.5603C57.992 18.5247 57.9947 18.4867 57.9882 18.4498C57.9818 18.4129 57.9664 18.3781 57.9435 18.3484C57.9206 18.3188 57.8908 18.2952 57.8567 18.2797C56.5796 17.6567 55.4333 16.3318 55.4333 14.4764C55.4333 11.1602 58.5793 9.60484 60.9549 9.60484H60.986C61.6273 9.60571 62.2641 9.71091 62.8715 9.91632C62.9521 9.94403 63.0366 9.95841 63.1218 9.95889H66.7557C66.899 9.95888 67.0364 10.0153 67.1383 10.116C67.2401 10.2167 67.2981 10.3535 67.2998 10.4967L67.3091 10.4957ZM57.2036 24.8758C57.2036 26.4904 58.7973 27.8796 61.0795 27.8796C63.9057 27.8796 65.1184 26.7136 65.326 25.6213C65.5763 24.3017 64.8827 23.579 63.995 23.0256C63.2983 22.5947 62.7968 22.4027 61.4418 22.33C58.5689 22.1794 57.2036 24.0535 57.2036 24.8758ZM58.0975 14.0082C58.0975 16.2924 59.3009 17.9412 60.9974 17.9412C62.3545 17.9121 63.5578 16.7669 63.5578 14.4484C63.5578 12.1642 62.4157 10.5154 60.6278 10.5154C59.332 10.5206 58.0986 11.7478 58.0986 14.0082H58.0975Z" fill="white"/>
<path id="Vector_6" d="M69.2365 6.20281C69.4442 7.11026 70.4357 7.62006 71.4522 7.34491C72.4687 7.06977 73.1249 6.09898 72.9182 5.19672C72.7116 4.29445 71.719 3.77947 70.7026 4.05461C69.6861 4.32975 69.0299 5.29535 69.2365 6.20281Z" fill="#3D91CF"/>
</g>
<defs>
<linearGradient id="paint0_linear_71_330" x1="5081.98" y1="-282.463" x2="460.113" y2="7660.92" gradientUnits="userSpaceOnUse">
<stop stop-color="#70ABDC"/>
<stop offset="0.17" stop-color="#67A6DA"/>
<stop offset="0.46" stop-color="#4D9AD4"/>
<stop offset="0.6" stop-color="#3E93D0"/>
<stop offset="0.99" stop-color="#1B7CC1"/>
</linearGradient>
<linearGradient id="paint1_linear_71_330" x1="472.281" y1="3.13672" x2="-2063.73" y2="7856.97" gradientUnits="userSpaceOnUse">
<stop stop-color="#3E93D0"/>
<stop offset="0.99" stop-color="#1B7CC1"/>
</linearGradient>
</defs>
</svg>
