<svg width="26" height="11" viewBox="0 0 26 11" fill="none" xmlns="http://www.w3.org/2000/svg">
<g style="mix-blend-mode:luminosity">
<path d="M8.27535 3.08594L8.19817 6.65069C8.19817 6.65069 8.08292 5.24452 8.27535 3.08594ZM18.8246 7.56057C18.8245 7.58374 18.8154 7.60597 18.7992 7.62252C18.7829 7.63907 18.7609 7.64863 18.7377 7.64917C18.5024 7.65574 18.2878 7.68101 18.0331 7.69381C17.787 7.70593 17.5486 7.71527 17.3589 7.75507C17.3448 7.75816 17.3302 7.75775 17.3163 7.75389C17.3025 7.75003 17.2898 7.74283 17.2793 7.73292C17.2705 7.72464 17.2636 7.71466 17.2588 7.70359C17.2541 7.69252 17.2516 7.6806 17.2516 7.66855V7.18402C17.2516 7.16774 17.2471 7.15177 17.2386 7.13788C17.2301 7.12399 17.218 7.1127 17.2035 7.10527C17.189 7.09783 17.1728 7.09452 17.1565 7.09572C17.1403 7.09691 17.1247 7.10256 17.1114 7.11203C16.913 7.26057 16.7057 7.39706 16.4909 7.52077C16.1929 7.68689 15.977 7.76545 15.6994 7.76545C15.0107 7.76545 14.4244 7.36433 14.4244 6.30771V4.39105C14.4244 3.87191 14.342 3.76151 14.0852 3.70302L13.8634 3.65768C13.8447 3.65353 13.8278 3.64343 13.8153 3.62889C13.8028 3.61435 13.7954 3.59616 13.7941 3.57704L13.7862 3.46456C13.7853 3.45272 13.7868 3.44082 13.7906 3.42957C13.7944 3.41832 13.8005 3.40796 13.8084 3.3991C13.8163 3.39025 13.8259 3.38308 13.8367 3.37804C13.8474 3.37299 13.8591 3.37017 13.871 3.36973C14.1631 3.35935 14.8767 3.33824 15.1654 3.31574C15.178 3.31471 15.1907 3.31643 15.2027 3.32078C15.2146 3.32514 15.2254 3.33202 15.2345 3.34097C15.2435 3.34992 15.2504 3.36071 15.2549 3.3726C15.2593 3.3845 15.2611 3.39722 15.2602 3.40988C15.2384 3.71098 15.2384 4.13944 15.2384 4.7233V6.04399C15.2384 6.91476 15.6804 7.14941 16.1431 7.14941C16.5027 7.14941 16.882 7.01097 17.2236 6.70676C17.233 6.69834 17.2405 6.68804 17.2456 6.67653C17.2507 6.66502 17.2534 6.65256 17.2533 6.63996V4.39105C17.2533 3.87191 17.1609 3.75182 16.8214 3.70302L16.5227 3.65526C16.5019 3.65196 16.4829 3.64133 16.4692 3.62528C16.4555 3.60922 16.448 3.58881 16.448 3.5677V3.45868C16.4479 3.43574 16.4567 3.41367 16.4726 3.39713C16.4885 3.38059 16.5102 3.37089 16.5331 3.37008C16.8633 3.3597 17.6704 3.33789 17.967 3.3147C17.9791 3.3138 17.9913 3.31541 18.0028 3.31944C18.0143 3.32346 18.0248 3.32982 18.0337 3.33811C18.0426 3.3464 18.0497 3.35643 18.0545 3.36759C18.0594 3.37875 18.0618 3.39079 18.0618 3.40296V6.57144C18.0618 7.06046 18.1438 7.33942 18.5463 7.36745L18.7384 7.37437C18.7614 7.37518 18.7831 7.38487 18.7991 7.4014C18.815 7.41793 18.8239 7.44 18.8239 7.46297L18.8246 7.56057ZM13.581 6.53267C13.4553 6.86319 13.3117 7.23386 13.1798 7.56922C13.1706 7.59255 13.1546 7.61256 13.1339 7.62663C13.1131 7.64071 13.0886 7.6482 13.0635 7.64813H9.84315C9.81987 7.64819 9.79703 7.64174 9.77722 7.62951C9.7574 7.61728 9.7414 7.59975 9.73102 7.57891L9.72617 7.56853C9.71631 7.54838 9.71207 7.52595 9.7139 7.50359C9.71572 7.48124 9.72355 7.45979 9.73656 7.44151C10.5609 6.28072 11.3414 5.11058 12.1281 3.8996C12.1403 3.88078 12.1472 3.85902 12.1481 3.83661C12.1491 3.81419 12.144 3.79194 12.1333 3.77217C12.1227 3.7524 12.107 3.73584 12.0878 3.72423C12.0686 3.71261 12.0467 3.70636 12.0242 3.70614H11.3397C10.5994 3.70614 10.4658 3.85288 10.1778 4.40074L10.0844 4.57379C10.0703 4.5997 10.0475 4.61979 10.02 4.6305C9.99248 4.6412 9.96209 4.64183 9.93417 4.63228L9.8916 4.61774C9.86096 4.60722 9.8356 4.58521 9.82088 4.55634C9.80615 4.52748 9.80322 4.49403 9.8127 4.46304C9.90891 4.15156 10.0172 3.81792 10.0916 3.47495C10.0975 3.44694 10.1128 3.4218 10.135 3.40372C10.1572 3.38564 10.1849 3.37572 10.2135 3.37562H13.1923C13.2164 3.37563 13.2399 3.3826 13.2601 3.39568C13.2803 3.40876 13.2963 3.42739 13.3062 3.44933C13.3149 3.46874 13.3185 3.49005 13.3167 3.51125C13.3149 3.53245 13.3077 3.55283 13.2958 3.57047C12.5081 4.73715 11.737 5.91109 10.9506 7.13211C10.9385 7.15092 10.9317 7.17264 10.9308 7.19501C10.9299 7.21737 10.935 7.23956 10.9456 7.25928C10.9562 7.27899 10.9719 7.2955 10.9911 7.3071C11.0102 7.3187 11.0321 7.32496 11.0545 7.32523H11.8436C12.6233 7.32523 12.8296 7.12068 13.2186 6.53683L13.2234 6.52887L13.2975 6.39908C13.3131 6.37167 13.3386 6.35119 13.3687 6.34176C13.3988 6.33232 13.4313 6.33462 13.4598 6.34821L13.5183 6.37589C13.5465 6.38946 13.5685 6.41308 13.5801 6.4421C13.5917 6.47113 13.592 6.50344 13.581 6.53267ZM23.2854 7.51488C23.2855 7.48185 23.2978 7.45002 23.32 7.42554C23.3422 7.40106 23.3726 7.38567 23.4055 7.38233C23.9741 7.32488 24.2659 7.23386 24.2659 6.61089V4.59559C24.2659 4.02766 24.2389 3.83973 23.7287 3.74594C23.6979 3.74043 23.67 3.7243 23.6498 3.70033C23.6296 3.67637 23.6185 3.64609 23.6183 3.61477V3.50263C23.6183 3.46794 23.6318 3.43462 23.656 3.40973C23.6802 3.38485 23.7131 3.37038 23.7478 3.36939C23.9703 3.36316 24.4427 3.34724 24.8701 3.31574C24.8884 3.31436 24.9068 3.31677 24.9241 3.32283C24.9414 3.32888 24.9573 3.33845 24.9707 3.35093C24.9841 3.36342 24.9948 3.37854 25.0021 3.39535C25.0094 3.41217 25.0131 3.43031 25.0131 3.44864V6.61089C25.0131 7.23386 25.1332 7.32488 25.688 7.38198C25.7209 7.38524 25.7514 7.4006 25.7737 7.42509C25.7959 7.44958 25.8083 7.48145 25.8084 7.51454C25.8084 7.53204 25.805 7.54936 25.7983 7.56553C25.7916 7.58169 25.7818 7.59638 25.7694 7.60876C25.757 7.62113 25.7423 7.63094 25.7262 7.63764C25.71 7.64434 25.6927 7.64778 25.6752 7.64778H23.4186C23.3834 7.64778 23.3495 7.63379 23.3245 7.60888C23.2996 7.58397 23.2855 7.55016 23.2854 7.51488Z" fill="white"/>
<path d="M1.9765 1.97543L8.96273 0.0996094L8.70835 10.0996L0.948608 8.62906L1.9765 1.97543Z" fill="url(#paint0_linear_777_2531)"/>
<path d="M8.96275 0.0996094L9.34068 0.373715L9.09496 9.66076L8.70837 10.0996L8.96275 0.0996094Z" fill="url(#paint1_linear_777_2531)"/>
<path opacity="0.15" d="M1.97645 1.97543L1.87539 2.45096C1.87539 2.47311 1.87366 2.49526 1.87366 2.51776C1.87366 5.41352 4.18694 7.76106 7.23083 7.76106C7.752 7.7611 8.27078 7.69055 8.77301 7.55133L8.96267 0.0996094L1.97645 1.97543Z" fill="white"/>
<path d="M8.10304 7.00933C7.97775 7.39903 7.58805 8.48507 7.43127 8.83151L1.6543 7.99154L1.67506 7.7652C2.73895 7.83441 2.84001 7.77385 2.912 7.05259L3.26743 3.52695C3.34877 2.73093 3.25221 2.71778 2.28938 2.87491L2.31187 2.64095L8.05666 1.27734C8.02205 1.56806 7.99091 2.34539 7.95803 2.9327L7.57006 3.04242C7.50949 2.58384 7.40774 2.35923 7.26446 2.15746C7.10906 1.9498 6.76297 1.95257 5.82333 2.15988L4.84527 2.37411C4.45003 2.45994 4.42165 2.49421 4.39189 2.77108L4.15931 4.939L5.33015 4.85525C6.48229 4.77253 6.55635 4.6822 6.79723 3.93222L7.17274 3.88861L6.91698 6.02954H6.54978C6.47606 5.2581 6.39473 5.19892 5.29831 5.25049L4.12159 5.30794L3.93055 7.0917C3.88383 7.53401 3.93366 7.74928 4.1382 7.88771C4.35243 8.03999 4.77363 8.09225 5.37998 8.16805C6.31132 8.28607 6.66849 8.24142 6.9772 7.98116C7.21774 7.7735 7.50603 7.39107 7.7386 6.94599L8.10304 7.00933ZM23.1771 3.55325C23.1775 3.59959 23.1601 3.64432 23.1286 3.67829C23.0971 3.71226 23.0538 3.7329 23.0075 3.73599C22.8186 3.75018 22.6386 3.79655 22.5597 3.92945C22.5448 3.94642 22.5367 3.96818 22.5367 3.99071C22.5367 4.01324 22.5448 4.035 22.5597 4.05197C22.6974 4.2706 22.7695 4.52418 22.7673 4.78257C22.7673 5.83919 21.8419 6.34795 20.9676 6.34795C20.8287 6.34683 20.6899 6.33631 20.5523 6.31645C20.5147 6.31071 20.4763 6.31328 20.4397 6.32398C20.4032 6.33468 20.3695 6.35326 20.3409 6.3784C20.2343 6.47462 20.1332 6.60613 20.1332 6.70961C20.1332 6.89547 20.3184 7.01244 20.7811 7.01244C21.1618 7.01244 21.521 6.97991 21.8564 7.01002C22.4898 7.06678 23.211 7.56585 23.211 8.35009C23.211 9.17275 22.2139 9.7843 20.8465 9.7843C19.6951 9.7843 18.9925 9.2174 18.9925 8.6595C18.9925 7.97112 19.7331 7.75412 19.9757 7.57C19.9869 7.56178 19.9957 7.55069 20.0011 7.53792C20.0065 7.52515 20.0083 7.51115 20.0064 7.49741C20.0046 7.48367 19.999 7.47069 19.9904 7.45983C19.9818 7.44898 19.9704 7.44064 19.9574 7.43572C19.6594 7.3177 19.4189 7.27824 19.3317 7.12977C19.0126 6.5864 19.8771 6.44451 20.0481 6.27284C20.057 6.26412 20.0637 6.25335 20.0676 6.24146C20.0714 6.22958 20.0723 6.21693 20.0701 6.20462C20.068 6.19232 20.0629 6.18072 20.0552 6.17084C20.0476 6.16095 20.0376 6.15308 20.0263 6.1479C19.6006 5.94025 19.2185 5.49864 19.2185 4.88017C19.2185 3.77475 20.2672 3.2563 21.059 3.2563H21.0694C21.2831 3.25659 21.4954 3.29166 21.6979 3.36013C21.7247 3.36936 21.7529 3.37416 21.7813 3.37432H22.9926C23.0404 3.37432 23.0862 3.39314 23.1201 3.4267C23.1541 3.46026 23.1734 3.50586 23.174 3.55359L23.1771 3.55325ZM19.8086 8.34663C19.8086 8.88481 20.3398 9.34788 21.1005 9.34788C22.0426 9.34788 22.4468 8.95922 22.5161 8.59513C22.5995 8.15524 22.3683 7.91436 22.0724 7.72989C21.8401 7.58627 21.673 7.52224 21.2213 7.49801C20.2637 7.44783 19.8086 8.07253 19.8086 8.34663ZM20.1066 4.72408C20.1066 5.48548 20.5077 6.03508 21.0732 6.03508C21.5255 6.02539 21.9267 5.64365 21.9267 4.87082C21.9267 4.10942 21.546 3.55982 20.95 3.55982C20.5181 3.56155 20.1069 3.97064 20.1069 4.72408H20.1066Z" fill="white"/>
<path d="M23.8194 2.12164C23.8887 2.42412 24.2192 2.59405 24.558 2.50234C24.8968 2.41063 25.1156 2.08703 25.0467 1.78627C24.9778 1.48552 24.6469 1.31386 24.3081 1.40557C23.9693 1.49729 23.7506 1.81915 23.8194 2.12164Z" fill="#3D91CF"/>
</g>
<defs>
<linearGradient id="paint0_linear_777_2531" x1="1694.73" y1="-94.1003" x2="154.112" y2="2553.69" gradientUnits="userSpaceOnUse">
<stop stop-color="#70ABDC"/>
<stop offset="0.17" stop-color="#67A6DA"/>
<stop offset="0.46" stop-color="#4D9AD4"/>
<stop offset="0.6" stop-color="#3E93D0"/>
<stop offset="0.99" stop-color="#1B7CC1"/>
</linearGradient>
<linearGradient id="paint1_linear_777_2531" x1="158.168" y1="1.09961" x2="-687.168" y2="2619.04" gradientUnits="userSpaceOnUse">
<stop stop-color="#3E93D0"/>
<stop offset="0.99" stop-color="#1B7CC1"/>
</linearGradient>
</defs>
</svg>
