<svg width="101" height="23" viewBox="0 0 101 23" fill="none" xmlns="http://www.w3.org/2000/svg">
<g id="foxium" style="mix-blend-mode:luminosity" clip-path="url(#clip0_461_631)">
<g id="Group">
<g id="Group_2">
<path id="Vector" d="M24.5456 21.8838H22.1881C22.2478 18.171 23.6063 14.5964 26.0274 11.781C27.319 10.2341 28.9297 8.98465 30.7491 8.11815C29.5503 7.39572 28.5331 6.40809 27.7756 5.23116C25.8576 10.3525 21.1159 14.4183 15.5783 15.1242C15.3918 15.1475 15.2087 15.1641 15.0289 15.1808V21.8838H12.6713V15.1275C7.7964 14.5448 3.97371 10.9485 1.9758 7.02595C1.52869 6.1526 1.14585 5.24781 0.830322 4.31877C1.84048 4.02633 2.88552 3.87176 3.93709 3.85925C6.58113 3.89505 9.13601 4.82058 11.1895 6.48652C13.1689 8.06148 14.4913 10.3168 14.899 12.8133C15.0255 12.8133 15.1521 12.7999 15.2786 12.7733C21.3689 11.9974 26.3271 6.39661 26.3271 0.292969H28.6846C28.6873 2.0878 29.4026 3.80813 30.6733 5.07571C31.944 6.34329 33.6661 7.05436 35.4609 7.05259V9.41347C29.3073 9.41347 24.5456 16.1165 24.5456 21.8838ZM4.21346 6.2168C5.85842 9.2836 8.79536 12.0807 12.4848 12.7167C12.0847 10.9755 11.1013 9.42337 9.69775 8.31794C8.14373 7.04505 6.22017 6.30809 4.21346 6.2168Z" fill="#FF8300"/>
<path id="Vector_2" d="M90.4337 11.5816C89.9 11.5818 89.3719 11.6908 88.8818 11.9021C88.3917 12.1133 87.9498 12.4224 87.5833 12.8103C87.0418 12.2378 86.3407 11.8412 85.571 11.6719C84.8013 11.5026 83.9985 11.5685 83.2667 11.861C82.5349 12.1535 81.9078 12.6591 81.4669 13.3123C81.0259 13.9655 80.7914 14.7361 80.7937 15.5242V21.8509H82.9748V15.5242C82.9748 15.0579 83.16 14.6107 83.4897 14.281C83.8195 13.9513 84.2667 13.766 84.7329 13.766C85.1992 13.766 85.6464 13.9513 85.9762 14.281C86.3059 14.6107 86.4911 15.0579 86.4911 15.5242V21.8509H88.6755V15.5242C88.6755 15.0579 88.8607 14.6107 89.1905 14.281C89.5202 13.9513 89.9674 13.766 90.4337 13.766C90.9 13.766 91.3472 13.9513 91.6769 14.281C92.0066 14.6107 92.1918 15.0579 92.1918 15.5242V21.8509H94.3729V15.5242C94.3729 14.4791 93.958 13.4768 93.2193 12.7376C92.4807 11.9983 91.4787 11.5825 90.4337 11.5816Z" fill="#D7D7D7"/>
<path id="Vector_3" d="M76.9143 18.0905C76.8934 18.5998 76.6764 19.0812 76.3087 19.4341C75.9409 19.787 75.451 19.9841 74.9414 19.9841C74.4317 19.9841 73.9418 19.787 73.5741 19.4341C73.2064 19.0812 72.9893 18.5998 72.9684 18.0905V11.9902H70.7874V18.0905C70.7874 19.1945 71.2259 20.2532 72.0065 21.0338C72.7871 21.8143 73.8458 22.2529 74.9497 22.2529C76.0536 22.2529 77.1123 21.8143 77.8929 21.0338C78.6735 20.2532 79.112 19.1945 79.112 18.0905V11.9902H76.9276L76.9143 18.0905Z" fill="#D7D7D7"/>
<path id="Vector_4" d="M68.7428 11.9902V21.8566H66.5618V11.9902H68.7428Z" fill="#D7D7D7"/>
<path id="Vector_5" d="M41.8044 11.6518C41.8044 11.0336 42.0499 10.4407 42.4871 10.0036C42.9242 9.56646 43.5171 9.32089 44.1353 9.32089V7.14648C42.9409 7.14825 41.796 7.62348 40.9515 8.468C40.107 9.31253 39.6317 10.4574 39.63 11.6518V11.9848H38.6643V14.1692H39.63V21.8578H41.8144V14.1758H44.1453V11.9914H41.8144L41.8044 11.6518Z" fill="#D7D7D7"/>
<path id="Vector_6" d="M49.9291 11.582C48.8754 11.582 47.8453 11.8945 46.9691 12.4799C46.093 13.0653 45.4101 13.8974 45.0069 14.871C44.6036 15.8445 44.4981 16.9157 44.7037 17.9492C44.9093 18.9827 45.4167 19.932 46.1618 20.6771C46.9069 21.4222 47.8562 21.9297 48.8897 22.1352C49.9232 22.3408 50.9944 22.2353 51.968 21.832C52.9415 21.4288 53.7736 20.7459 54.359 19.8698C54.9444 18.9936 55.2569 17.9635 55.2569 16.9098C55.2569 15.4968 54.6956 14.1417 53.6964 13.1425C52.6973 12.1433 51.3421 11.582 49.9291 11.582ZM49.9291 20.0632C49.3059 20.0632 48.6968 19.8784 48.1787 19.5321C47.6606 19.1858 47.2568 18.6936 47.0185 18.1178C46.7802 17.5421 46.718 16.9085 46.8398 16.2974C46.9616 15.6862 47.262 15.125 47.7029 14.6845C48.1437 14.2441 48.7053 13.9444 49.3166 13.8232C49.9279 13.702 50.5613 13.7649 51.1369 14.0038C51.7124 14.2428 52.2042 14.647 52.5499 15.1655C52.8956 15.684 53.0798 16.2933 53.0792 16.9165C53.0774 17.7511 52.7448 18.5509 52.1544 19.1408C51.5639 19.7306 50.7637 20.0623 49.9291 20.0632Z" fill="#D7D7D7"/>
<path id="Vector_7" d="M62.3628 11.9902L59.9254 15.1403L57.4913 11.9902H54.7341L58.5468 16.9251L54.7341 21.8566H57.4913L59.9254 18.7066L62.3628 21.8566H65.12L61.3073 16.9251L65.12 11.9902H62.3628Z" fill="#D7D7D7"/>
<path id="Vector_8" d="M95.8213 11.9907H95.2685V9.61654H94.3728V9.09375H96.7037V9.61654H95.808L95.8213 11.9907ZM98.8182 11.3248H98.7616L97.8725 9.94952V12.0074H97.3364V9.1104H97.9291L98.8049 10.4856L99.6773 9.1104H100.253V12.0074H99.7272V9.94952L98.8182 11.3248Z" fill="#D7D7D7"/>
</g>
</g>
</g>
<defs>
<clipPath id="clip0_461_631">
<rect width="99.4231" height="22" fill="white" transform="translate(0.830322 0.273438)"/>
</clipPath>
</defs>
</svg>
