<svg width="107" height="23" viewBox="0 0 107 23" fill="none" xmlns="http://www.w3.org/2000/svg">
<g id="Habanero" style="mix-blend-mode:luminosity">
<g id="Clip path group">
<mask id="mask0_71_245" style="mask-type:luminance" maskUnits="userSpaceOnUse" x="0" y="0" width="107" height="23">
<g id="a">
<path id="Vector" d="M106.608 0.273438H0.811523V22.2191H106.608V0.273438Z" fill="white"/>
</g>
</mask>
<g mask="url(#mask0_71_245)">
<g id="Group">
<g id="Group_2">
<path id="Vector_2" d="M102.846 10.8128H102.235V9.07455H101.658V8.54492H103.458V9.07455H102.846V10.8128ZM106.601 10.8128H106.004L106.051 9.07455H106.031L105.467 10.8128H104.945L104.367 9.07455H104.347L104.395 10.8128H103.797V8.54492H104.755L105.189 9.97085H105.216L105.624 8.54492H106.608V10.8128H106.601Z" fill="white"/>
<g id="Group_3">
<path id="Vector_3" d="M31.9441 18.0313H29.3571V14.2424H26.0028V18.0313H23.4089V8.38254H26.0028V12.0288H29.3639V8.38254H31.9509V18.0313H31.9441ZM36.0657 16.3677L35.604 18.0313H32.9151L35.8077 8.38933H39.7188L42.6589 18.0313H40.0244L39.5151 16.3677H36.0589H36.0657ZM37.804 10.3041L36.6157 14.5004H39.0194L37.7972 10.3041H37.804ZM43.6299 8.38254H48.8855C49.7614 8.38933 50.4608 8.55908 50.9836 8.87822C51.4997 9.20414 51.7645 9.86278 51.7645 10.8541C51.7645 11.4177 51.6898 11.8998 51.5336 12.3072C51.391 12.7146 50.9633 12.9862 50.2571 13.1017V13.1696C50.9157 13.2375 51.3571 13.4412 51.5812 13.7943C51.8052 14.1338 51.9207 14.6295 51.9207 15.2677C51.9207 16.3541 51.7034 17.0807 51.2756 17.4609C50.8478 17.8412 50.067 18.0313 48.9262 18.0313H43.6299V8.38254ZM47.867 12.2461C47.9069 12.2559 47.948 12.2605 47.9892 12.2597H48.0842C48.3966 12.2529 48.6614 12.2054 48.8719 12.1375C49.0892 12.0696 49.1978 11.8319 49.1978 11.4381C49.1978 11.085 49.1367 10.8474 49.0213 10.7183C48.8991 10.5825 48.6682 10.5214 48.3151 10.5214H46.2237V12.2461H47.867ZM47.9417 15.906C48.3491 15.9128 48.6886 15.8788 48.9466 15.7974C49.2182 15.7159 49.3472 15.4375 49.3472 14.9622C49.3472 14.514 49.2454 14.2424 49.0349 14.1609C48.8312 14.0795 48.5188 14.0387 48.1182 14.0387H46.217V15.906H47.9417ZM55.3633 16.3677L54.9015 18.0313H52.2126L55.1052 8.38933H59.0231L61.9633 18.0313H59.3287L58.8194 16.3677H55.3633ZM57.1015 10.3041L55.9133 14.5004H58.317L57.0947 10.3041H57.1015ZM72.2707 18.0313H67.8978L65.1818 10.6097H65.046L65.1614 18.0313H62.6287V8.38254H66.9879L69.704 15.7159H69.8058L69.704 8.38254H72.2639V18.0313H72.2707ZM76.1342 12.2461H80.2423V14.0387H76.1342V15.906H80.6157V18.0313H73.5472V8.38254H80.5275V10.5078H76.1274V12.2461H76.1342ZM81.8312 8.38254H86.6929C87.9287 8.38933 88.8114 8.59982 89.341 9.01402C89.8707 9.42143 90.1355 10.2702 90.1355 11.5671C90.1355 12.2869 90.0608 12.8708 89.8978 13.319C89.7416 13.7739 89.212 14.093 88.3157 14.2832V14.3714C88.9133 14.4122 89.3546 14.5887 89.6398 14.9146C89.9455 15.3014 90.0978 15.7874 90.0676 16.2795V18.0313H87.433V16.7412C87.433 16.3609 87.3583 16.0486 87.2089 15.8245C87.0596 15.6004 86.7744 15.485 86.3466 15.485H84.425V18.0313H81.8379V8.38254H81.8312ZM86.4756 13.2714C86.9509 13.285 87.2361 13.1764 87.3379 12.9523C87.452 12.6489 87.5029 12.3254 87.4873 12.0017C87.4873 11.5264 87.4398 11.1801 87.3312 10.956C87.2225 10.7319 86.8966 10.6233 86.3466 10.6233L84.425 10.6097V13.2714H86.4756ZM91.1472 12.7011C91.149 12.1123 91.1944 11.5245 91.283 10.9424C91.4595 9.86278 91.9552 9.1634 92.7565 8.84427C93.5577 8.52513 94.42 8.35538 95.3435 8.3418H95.6355C97.299 8.3418 98.467 8.62019 99.1324 9.18377C99.7978 9.74735 100.131 10.9085 100.131 12.6467C100.131 14.4325 99.9336 15.7906 99.5466 16.7208C99.1528 17.6443 97.8762 18.106 95.7034 18.106C95.3794 18.1042 95.0556 18.0929 94.7324 18.072C94.0058 18.0449 93.3133 17.8955 92.6682 17.6239C92.0231 17.3523 91.5818 16.8159 91.3509 16.0078C91.2539 15.683 91.1947 15.3481 91.1744 15.0097C91.154 14.6702 91.1472 14.3307 91.1472 13.9912V13.2714V12.7011ZM93.7954 13.2307V13.8078C93.7954 14.4869 93.8633 15.0097 94.0126 15.3696C94.162 15.7295 94.6305 15.906 95.4318 15.906C96.3145 15.906 96.8781 15.7634 97.1157 15.4782C97.3534 15.193 97.4688 14.643 97.4688 13.8214V13.4751L97.4892 13.1153V12.769V12.4159C97.4892 11.7708 97.3941 11.3023 97.2108 11.0035C97.0274 10.7048 96.5861 10.5554 95.8935 10.5554C94.8886 10.5554 94.2978 10.6912 94.1077 10.9628C93.9176 11.2344 93.8157 11.9677 93.7954 13.1832V13.2443V13.2307Z" fill="white"/>
</g>
</g>
<path id="Vector_4" fill-rule="evenodd" clip-rule="evenodd" d="M9.01408 3.173C9.28569 3.173 9.50297 2.95571 9.50297 2.6909V1.29213C9.50297 1.16337 9.45182 1.03989 9.36077 0.948838C9.26972 0.857791 9.14624 0.806641 9.01748 0.806641C8.88872 0.806641 8.76523 0.857791 8.67418 0.948838C8.58313 1.03989 8.53198 1.16337 8.53198 1.29213V2.6909C8.53198 2.9625 8.74927 3.173 9.01408 3.173Z" fill="url(#paint0_linear_71_245)"/>
<path id="Vector_5" fill-rule="evenodd" clip-rule="evenodd" d="M7.08561 4.45671C7.35722 4.45671 7.56771 4.23943 7.56771 3.97461V2.57585C7.56771 2.44799 7.51692 2.32536 7.42651 2.23495C7.3361 2.14454 7.21347 2.09375 7.08561 2.09375C6.95775 2.09375 6.83513 2.14454 6.74472 2.23495C6.65431 2.32536 6.60352 2.44799 6.60352 2.57585V3.97461C6.60352 4.23943 6.8208 4.44992 7.08561 4.44992V4.45671Z" fill="url(#paint1_linear_71_245)"/>
<path id="Vector_6" fill-rule="evenodd" clip-rule="evenodd" d="M7.08561 1.22499C7.35722 1.22499 7.56771 1.01449 7.56771 0.749677C7.56771 0.621816 7.51692 0.499193 7.42651 0.408782C7.3361 0.318371 7.21347 0.267578 7.08561 0.267578C6.95775 0.267578 6.83513 0.318371 6.74472 0.408782C6.65431 0.499193 6.60352 0.621816 6.60352 0.749677C6.60352 1.01449 6.8208 1.22499 7.08561 1.22499Z" fill="url(#paint2_linear_71_245)"/>
<path id="Vector_7" fill-rule="evenodd" clip-rule="evenodd" d="M10.9491 4.82366C11.2139 4.82366 11.4244 4.60638 11.4244 4.34157V4.35515C11.4244 4.29184 11.4119 4.22915 11.3877 4.17065C11.3635 4.11216 11.328 4.05902 11.2832 4.01425C11.2384 3.96948 11.1853 3.93397 11.1268 3.90974C11.0683 3.88552 11.0056 3.87305 10.9423 3.87305C10.879 3.87305 10.8163 3.88552 10.7578 3.90974C10.6993 3.93397 10.6462 3.96948 10.6014 4.01425C10.5566 4.05902 10.5211 4.11216 10.4969 4.17065C10.4727 4.22915 10.4602 4.29184 10.4602 4.35515V4.34157C10.4602 4.61317 10.6775 4.82366 10.9491 4.82366Z" fill="url(#paint3_linear_71_245)"/>
<path id="Vector_8" fill-rule="evenodd" clip-rule="evenodd" d="M14.7992 8.40153C14.5412 8.40153 14.3239 8.61203 14.3239 8.87684V9.12129C14.3203 9.24915 14.266 9.37034 14.1731 9.45821C14.0801 9.54607 13.9561 9.59341 13.8282 9.58981C13.7003 9.5862 13.5791 9.53196 13.4913 9.439C13.4034 9.34604 13.3561 9.22199 13.3597 9.09413V7.89227C13.3597 7.76351 13.3085 7.64003 13.2175 7.54898C13.1264 7.45793 13.0029 7.40678 12.8742 7.40678C12.7454 7.40678 12.6219 7.45793 12.5309 7.54898C12.4398 7.64003 12.3887 7.76351 12.3887 7.89227V7.91264C12.3968 7.9803 12.3904 8.04889 12.37 8.1139C12.3497 8.17892 12.3157 8.23888 12.2705 8.28982C12.2253 8.34077 12.1698 8.38156 12.1076 8.40949C12.0455 8.43742 11.9781 8.45186 11.91 8.45186C11.8419 8.45186 11.7745 8.43742 11.7124 8.40949C11.6502 8.38156 11.5947 8.34077 11.5495 8.28982C11.5042 8.23888 11.4703 8.17892 11.4499 8.1139C11.4296 8.04889 11.4232 7.9803 11.4313 7.91264V5.89598C11.4313 5.83267 11.4188 5.76998 11.3946 5.71149C11.3704 5.653 11.3348 5.59985 11.2901 5.55508C11.2453 5.51032 11.1922 5.4748 11.1337 5.45058C11.0752 5.42635 11.0125 5.41388 10.9492 5.41388C10.8859 5.41388 10.8232 5.42635 10.7647 5.45058C10.7062 5.4748 10.6531 5.51032 10.6083 5.55508C10.5635 5.59985 10.528 5.653 10.5038 5.71149C10.4795 5.76998 10.4671 5.83267 10.4671 5.89598V6.67005C10.4671 6.94166 10.2226 7.14536 9.98498 7.14536C9.71338 7.14536 9.50288 6.94166 9.50288 6.67005V4.49721C9.50288 4.36845 9.45173 4.24496 9.36068 4.15392C9.26964 4.06287 9.14615 4.01172 9.01739 4.01172C8.88863 4.01172 8.76514 4.06287 8.67409 4.15392C8.58304 4.24496 8.53189 4.36845 8.53189 4.49721V6.38487C8.53189 6.51273 8.4811 6.63535 8.39069 6.72576C8.30028 6.81617 8.17766 6.86697 8.0498 6.86697C7.92193 6.86697 7.79931 6.81617 7.7089 6.72576C7.61849 6.63535 7.5677 6.51273 7.5677 6.38487V5.70585C7.5677 5.57799 7.5169 5.45537 7.42649 5.36496C7.33608 5.27455 7.21346 5.22376 7.0856 5.22376C6.95774 5.22376 6.83511 5.27455 6.7447 5.36496C6.65429 5.45537 6.6035 5.57799 6.6035 5.70585V7.15894C6.6035 7.2868 6.55271 7.40943 6.4623 7.49984C6.37188 7.59025 6.24926 7.64104 6.1214 7.64104C5.99354 7.64104 5.87092 7.59025 5.78051 7.49984C5.69009 7.40943 5.6393 7.2868 5.6393 7.15894V5.14227C5.6393 5.01441 5.58851 4.89179 5.4981 4.80138C5.40769 4.71097 5.28506 4.66018 5.1572 4.66018C5.02934 4.66018 4.90672 4.71097 4.81631 4.80138C4.7259 4.89179 4.6751 5.01441 4.6751 5.14227V8.23178C4.6751 8.35964 4.62431 8.48226 4.5339 8.57268C4.44349 8.66309 4.32087 8.71388 4.19301 8.71388C4.06514 8.71388 3.94252 8.66309 3.85211 8.57268C3.7617 8.48226 3.71091 8.35964 3.71091 8.23178V7.41697C3.71091 7.28911 3.66011 7.16648 3.5697 7.07607C3.47929 6.98566 3.35667 6.93487 3.22881 6.93487C3.10095 6.93487 2.97832 6.98566 2.88791 7.07607C2.7975 7.16648 2.74671 7.28911 2.74671 7.41697V9.68487C2.74671 9.81273 2.69592 9.93535 2.60551 10.0258C2.51509 10.1162 2.39247 10.167 2.26461 10.167C2.13675 10.167 2.01413 10.1162 1.92371 10.0258C1.8333 9.93535 1.78251 9.81273 1.78251 9.68487V8.93795C1.78251 8.81009 1.73172 8.68747 1.64131 8.59706C1.5509 8.50665 1.42827 8.45585 1.30041 8.45585C1.17255 8.45585 1.04993 8.50665 0.959517 8.59706C0.869106 8.68747 0.818314 8.81009 0.818314 8.93795L0.811523 9.68487V18.0367L8.0498 22.2194L15.2745 18.0367V12.754V8.88363C15.2745 8.61203 15.064 8.40153 14.7992 8.40153ZM11.4584 16.5904H9.18375V14.8725H6.90905V16.5972H4.64115V11.1855H6.90905V13.0052H9.18375V11.1855H11.4584V16.604V16.5904Z" fill="url(#paint4_linear_71_245)"/>
</g>
</g>
</g>
</g>
<defs>
<linearGradient id="paint0_linear_71_245" x1="-11767.9" y1="383.21" x2="10665.4" y2="383.21" gradientUnits="userSpaceOnUse">
<stop stop-color="#EE344D"/>
<stop offset="1" stop-color="#F89927"/>
</linearGradient>
<linearGradient id="paint1_linear_71_245" x1="-7873.04" y1="383.949" x2="14209.5" y2="383.949" gradientUnits="userSpaceOnUse">
<stop stop-color="#EE344D"/>
<stop offset="1" stop-color="#F89927"/>
</linearGradient>
<linearGradient id="paint2_linear_71_245" x1="-8367.3" y1="154.984" x2="13791.9" y2="154.984" gradientUnits="userSpaceOnUse">
<stop stop-color="#EE344D"/>
<stop offset="1" stop-color="#F89927"/>
</linearGradient>
<linearGradient id="paint3_linear_71_245" x1="-14486.9" y1="157.493" x2="7469.46" y2="157.493" gradientUnits="userSpaceOnUse">
<stop stop-color="#EE344D"/>
<stop offset="1" stop-color="#F89927"/>
</linearGradient>
<linearGradient id="paint4_linear_71_245" x1="0.811523" y1="2946.38" x2="15.2745" y2="2946.38" gradientUnits="userSpaceOnUse">
<stop stop-color="#EE344D"/>
<stop offset="1" stop-color="#F89927"/>
</linearGradient>
</defs>
</svg>
