<svg width="100" height="29" viewBox="0 0 100 29" fill="none" xmlns="http://www.w3.org/2000/svg">
<g id="hack" clip-path="url(#clip0_477_555)">
<g id="Group">
<path id="Vector" d="M30.3533 16.8725C31.6867 18.3059 33.32 19.0059 35.2533 19.0059C36.0867 19.0059 37.02 18.8059 38.0533 18.3725L38.22 15.2392L29.0533 14.9059C29.3867 15.6392 29.82 16.3059 30.3533 16.8725ZM14.6533 14.3725L13.62 18.7059H18.4533L18.82 16.5059H21.9867L22.32 18.7059H27.1533L26.32 14.8059L14.6533 14.3725ZM19.4533 0.872528L16.32 13.9725L28.0533 14.4059L25.1867 0.872528H19.4533ZM21.1533 12.3392L21.62 9.60586L21.9533 7.50586C21.9533 7.47253 21.9867 7.37253 21.9867 7.17253C22.02 7.00586 22.0533 6.67253 22.0867 6.20586C22.12 5.97253 22.1533 5.77253 22.1867 5.57253C22.22 5.37253 22.22 5.20586 22.2533 5.03919L22.3867 6.67253C22.42 7.00586 22.4533 7.30586 22.4867 7.50586C22.52 7.70586 22.52 7.90586 22.5533 8.03919C22.6867 9.17253 22.7867 9.83919 22.7867 10.0059C22.7867 10.1059 22.82 10.2059 22.82 10.3059L23.12 12.3392H21.1533ZM36.2867 13.7725C35.92 13.5725 35.5867 13.2725 35.3533 12.9059C35.0867 12.4725 34.8867 12.0059 34.7867 11.5059C34.6533 10.8725 34.5867 10.2392 34.5867 9.60586C34.5867 8.13919 34.8533 7.00586 35.3867 6.17253C35.92 5.33919 36.6867 4.93919 37.62 4.93919C38.3533 4.93919 39.0533 5.30586 39.7533 6.00586V0.972527C39.02 0.70586 38.22 0.539195 37.4533 0.539195C35.12 0.539195 33.2533 1.37253 31.8533 3.03919C30.4533 4.70586 29.7533 6.90586 29.7533 9.67253C29.7533 11.5725 30.0533 13.1725 30.6867 14.5392L39.8533 14.8725L39.9533 12.9725C39.1533 13.7392 38.32 14.1059 37.52 14.1059C37.0867 14.0725 36.6533 13.9725 36.2867 13.7725ZM56.7533 8.87253C56.9867 9.30586 57.2867 9.70586 57.62 10.0392C58.02 10.4725 58.4533 10.8392 58.92 11.1725L59.6867 11.7725C60.2533 12.2059 60.52 12.6725 60.52 13.1392C60.52 13.4392 60.3867 13.7392 60.1533 13.9392C59.8867 14.1725 59.52 14.2725 59.1533 14.2725C58.0867 14.2725 57.0867 13.6392 56.1533 12.3725V15.4392L64.4867 15.7392C64.9533 14.8392 65.22 13.8392 65.22 12.6725C65.22 11.6725 64.9867 10.7725 64.5533 10.0392C64.12 9.27253 63.42 8.53919 62.42 7.83919L61.6867 7.27253C61.0533 6.80586 60.72 6.33919 60.72 5.87253C60.72 5.57253 60.8533 5.30586 61.0867 5.13919C61.32 4.93919 61.6533 4.80586 61.9867 4.83919C62.4533 4.83919 62.9533 5.00586 63.42 5.33919C63.9533 5.70586 64.3867 6.20586 64.72 6.73919V1.40586C63.5867 0.805861 62.4533 0.505859 61.3533 0.505859C60.0867 0.505859 59.02 0.872527 58.1533 1.63919C57.82 1.90586 57.5533 2.20586 57.2867 2.53919C56.52 3.60586 56.0867 4.90586 56.0867 6.23919C56.0867 6.70586 56.1533 7.13919 56.2533 7.60586C56.3533 8.07253 56.52 8.47253 56.7533 8.87253ZM0.65332 18.7059H5.35332V14.0392L0.65332 13.8725V18.7059ZM9.25332 13.7059L13.9533 13.8725V0.872528H9.25332V7.03919H7.01999V0.872528H2.31999V13.4725L7.01999 13.6392V11.3059H9.25332V13.7059ZM7.58665 18.7059H12.2867V14.2725L7.58665 14.1059V18.7059ZM49.52 0.872528L46.7533 8.33919L46.8867 0.872528H42.1867V14.9392L46.82 15.1059L46.7533 10.2725L48.6533 15.2059L53.5533 15.3725L50.72 9.30586L54.4533 0.905861C54.4867 0.872528 49.52 0.872528 49.52 0.872528ZM70.02 0.872528L66.4533 15.8392L79.02 16.3059L75.7533 0.872528H70.02ZM71.6867 12.3392L72.1533 9.60586L72.4867 7.50586C72.4867 7.47253 72.52 7.37253 72.52 7.17253C72.5533 7.00586 72.5867 6.67253 72.62 6.20586C72.6533 5.97253 72.6867 5.77253 72.72 5.57253C72.7533 5.37253 72.7533 5.20586 72.7867 5.03919L72.92 6.67253C72.9533 7.00586 72.9867 7.30586 73.02 7.50586C73.0533 7.70586 73.0533 7.90586 73.0867 8.03919C73.22 9.17253 73.32 9.83919 73.32 10.0059C73.32 10.1059 73.3533 10.2059 73.3533 10.3059L73.6533 12.3392H71.6867ZM81.7533 18.7059H86.32L86.5533 17.0725L81.3533 16.8725L81.7533 18.7059ZM40.52 15.3392V18.7059H45.22L45.1867 15.5059L40.52 15.3392ZM94.5867 0.872528L93.7533 6.27253C93.62 7.03919 93.52 7.87253 93.42 8.80586C93.32 9.73919 93.22 10.8059 93.1533 12.0059C92.8867 9.33919 92.5533 7.03919 92.1866 5.07253L91.3867 0.872528H87.3533L86.4867 5.83919C86.2533 7.27253 86.02 8.80586 85.8867 10.4059L85.7533 11.7725L85.5867 10.1725C85.4867 9.07253 85.2867 7.57253 84.9867 5.67253L84.22 0.872528H79.5867L83.0533 16.4725L88.2533 16.6725L88.92 12.0059C88.9866 11.4725 89.0533 10.9725 89.12 10.5059C89.1867 10.0392 89.22 9.57253 89.2533 9.13919C89.32 8.30586 89.3867 7.70586 89.42 7.40586C89.42 7.57253 89.4533 7.77253 89.4867 8.07253C89.52 8.37253 89.5533 8.70586 89.62 9.13919C89.72 10.0059 89.8867 11.0392 90.0867 12.2059L90.8867 16.7725L95.92 16.9392L99.1533 0.872528H94.5867ZM89.4867 18.7059H94.02L94.2867 17.3392L89.22 17.1392L89.4867 18.7059ZM72.5533 16.5392L72.8867 18.7059H77.72L77.2867 16.7059L72.5533 16.5392ZM54.4867 18.3059C55.7533 18.8059 56.92 19.0392 58.02 19.0392C59.62 19.0392 60.92 18.4725 61.9867 17.3725C62.32 17.0059 62.5867 16.6392 62.82 16.2059L54.4867 15.9059C54.4867 15.8725 54.4867 18.3059 54.4867 18.3059ZM46.9867 15.6059L48.1867 18.7392H53.2533L51.8867 15.8059L46.9867 15.6059ZM64.1867 18.7059H69.02L69.3867 16.5059L64.7533 16.2725L64.1867 18.7059ZM5.28665 24.5059H8.35332C8.35332 24.8059 8.35332 25.0725 8.31999 25.3725C8.28665 25.6059 8.25332 25.8725 8.15332 26.1059C8.05332 26.4059 7.88665 26.6725 7.71999 26.9392C7.51999 27.1725 7.31999 27.3725 7.05332 27.5392C6.78665 27.7059 6.51999 27.8392 6.21999 27.9059C5.91999 28.0059 5.58665 28.0392 5.25332 28.0392C4.81999 28.0392 4.38665 27.9725 3.98665 27.8059C3.61999 27.6725 3.28665 27.4392 3.01999 27.1725C2.75332 26.8725 2.51999 26.5392 2.38665 26.1725C2.21999 25.7725 2.15332 25.3392 2.15332 24.9059C2.15332 24.4725 2.21999 24.0392 2.38665 23.6392C2.51999 23.2725 2.75332 22.9392 3.01999 22.6392C3.28665 22.3725 3.65332 22.1392 4.01999 22.0059C4.41999 21.8392 4.88665 21.7725 5.31999 21.7725C5.88665 21.7725 6.45332 21.9059 6.95332 22.1725C7.45332 22.4725 7.81999 22.9059 8.05332 23.4059L6.58665 24.0059C6.48665 23.7392 6.28665 23.4725 6.05332 23.3059C5.81999 23.1725 5.58665 23.0725 5.31999 23.1059C5.11999 23.1059 4.88665 23.1392 4.68665 23.2392C4.48665 23.3392 4.31999 23.4392 4.21999 23.6059C4.08665 23.7725 3.98665 23.9725 3.91999 24.1725C3.85332 24.4059 3.78665 24.6725 3.81999 24.9392C3.81999 25.1725 3.85332 25.4059 3.91999 25.6392C3.98665 25.8392 4.08665 26.0392 4.21999 26.2059C4.35332 26.3725 4.51999 26.5059 4.71999 26.5725C4.91999 26.6725 5.15332 26.7059 5.38665 26.7059C5.51999 26.7059 5.68665 26.7059 5.81999 26.6392C5.95332 26.6059 6.08665 26.5392 6.18665 26.4725C6.28665 26.4059 6.38665 26.3059 6.45332 26.1725C6.51999 26.0392 6.58665 25.8725 6.58665 25.7392H5.31999L5.28665 24.5059ZM24.02 26.8059H21.82L21.4533 27.8392H19.82L22.0867 21.9059H23.7533L26.02 27.8392H24.3867L24.02 26.8059ZM23.5867 25.6392L22.8867 23.6725L22.1867 25.6392C22.22 25.6392 23.5867 25.6392 23.5867 25.6392ZM37.6867 27.8392L38.6867 21.9059H40.22L41.42 25.0725L42.5867 21.9059H44.12L45.12 27.8392H43.5867L43.0867 24.4059L41.6867 27.8392H41.0867L39.7533 24.4059L39.2533 27.8392H37.6867ZM58.92 21.9059V27.8392H57.3867V21.9059H58.92ZM71.4533 27.8392V21.9059H72.9867L75.82 25.5392V21.9059H77.3533V27.8392H75.82L72.9867 24.2059V27.8392H71.4533ZM92.8533 24.5059H95.92C95.92 24.8059 95.92 25.1059 95.8867 25.3725C95.8533 25.6059 95.82 25.8725 95.72 26.1059C95.62 26.4059 95.4533 26.6725 95.2867 26.9392C95.0867 27.1725 94.8867 27.3725 94.62 27.5392C94.3533 27.7059 94.0867 27.8392 93.7867 27.9059C93.4867 28.0059 93.1533 28.0392 92.82 28.0392C92.3867 28.0392 91.9533 27.9725 91.5533 27.8059C91.1867 27.6725 90.8533 27.4392 90.5867 27.1725C90.32 26.8725 90.0867 26.5392 89.9533 26.1725C89.6533 25.3392 89.6533 24.4392 89.9533 23.6059C90.0867 23.2392 90.32 22.9059 90.5867 22.6059C90.8533 22.3392 91.22 22.1059 91.5867 21.9725C91.9866 21.8059 92.4533 21.7392 92.8867 21.7392C93.4533 21.7392 94.02 21.8725 94.52 22.1392C95.02 22.4392 95.3867 22.8725 95.62 23.3725L94.1533 23.9725C94.0533 23.7059 93.8533 23.4392 93.62 23.2725C93.3867 23.1392 93.1533 23.0392 92.8867 23.0725C92.6867 23.0725 92.4533 23.1059 92.2533 23.2059C92.0533 23.3059 91.8867 23.4059 91.7867 23.5725C91.6533 23.7392 91.5533 23.9392 91.4867 24.1392C91.42 24.3725 91.3533 24.6392 91.3867 24.9059C91.3867 25.1392 91.42 25.3725 91.4867 25.6059C91.5533 25.8059 91.6533 26.0059 91.7867 26.1725C91.92 26.3392 92.0867 26.4725 92.2867 26.5392C92.4867 26.6392 92.72 26.6725 92.9533 26.6725C93.0867 26.6725 93.2533 26.6725 93.3867 26.6059C93.52 26.5725 93.6533 26.5059 93.7533 26.4392C93.8533 26.3725 93.9533 26.2725 94.02 26.1392C94.0866 26.0059 94.1533 25.8392 94.1533 25.7059H92.8867V24.5059H92.8533Z" fill="white"/>
</g>
</g>
<defs>
<clipPath id="clip0_477_555">
<rect width="98.6667" height="28" fill="white" transform="translate(0.58667 0.273438)"/>
</clipPath>
</defs>
</svg>
