<svg width="89" height="45" viewBox="0 0 89 45" fill="none" xmlns="http://www.w3.org/2000/svg">
<g id="Igorsoft">
<g id="Icons">
<g id="Artboard">
<g id="Group-29">
<path id="Combined-Shape" d="M77.6023 16.0448C77.2503 15.7808 76.8983 15.4288 76.6334 15.1648C76.1934 14.7248 75.8423 14.4607 75.5783 14.4607C74.9623 14.4607 74.6983 14.5488 74.4334 15.1648C74.1694 15.8688 73.9934 15.8687 73.5534 17.8927H76.2823L77.6023 16.0448ZM74.4343 19.4767C74.0832 19.4767 73.6432 19.4767 73.1143 19.4767L70.9143 27.8368C70.4743 29.8608 69.7703 31.4448 68.8023 32.5008C67.8343 33.5568 67.2183 33.9967 65.8983 33.9967C64.5783 33.9967 64.6663 33.9967 64.1383 33.7327C63.5223 33.4688 63.0823 33.2048 63.0823 32.6768C63.0823 32.2367 63.0823 31.7087 63.2583 31.4456C63.4334 31.1816 64.0494 31.0056 64.4023 31.0936C64.7534 31.1825 65.3703 31.5336 65.5463 31.7976C65.7223 32.0625 66.1623 32.2376 66.4263 32.2376C66.6903 32.2376 66.7783 31.9736 66.9543 31.5336C67.1303 31.0936 67.3063 30.4776 67.3943 29.6856C68.8032 23.5256 69.4192 20.2696 69.4192 20.0056C69.4192 19.7416 69.1543 19.4776 68.6272 19.0376C68.4512 18.7736 68.2752 18.5976 68.2752 18.4216C68.2752 18.2456 68.6272 18.0696 68.6272 18.0696C69.4192 17.9816 69.6832 18.1576 69.9472 18.0696C70.2112 17.9816 70.2992 17.6296 70.2992 17.5416C70.7392 15.8696 70.6503 15.2536 71.7943 14.0216C72.9392 12.7896 74.4343 12.7016 76.0191 12.7016C76.6343 12.7016 77.2503 12.7896 77.7791 13.2296C78.1303 13.5816 78.6591 14.3736 79.0103 14.9896C79.2743 15.0776 79.8022 15.2536 80.1543 15.2536C80.5942 15.3416 80.2431 16.0456 80.2431 16.1336L79.3631 17.6296C79.4511 17.8936 79.5391 17.9816 79.6271 18.0696C79.8031 18.1576 79.9791 18.2456 80.2431 18.2456C80.3311 18.2456 80.6831 18.2456 80.6831 18.3336C80.6831 18.4216 80.8591 18.6856 80.8591 18.6856C80.8591 18.8616 80.8591 18.9496 80.6831 19.1256C80.5942 19.3016 80.0671 19.3016 79.9791 19.3016C79.3631 19.4776 78.9231 19.5656 78.8343 19.7416C78.7463 19.9176 78.3063 21.5896 77.6903 24.8456C77.6023 25.0216 77.5143 25.1968 77.6903 25.2856C77.8663 25.3736 77.9543 25.1968 78.0423 25.1968C78.1303 25.1968 78.8334 25.1967 79.1863 25.3727C79.3623 25.4616 79.2743 25.9016 79.2743 25.9888C79.2743 26.0759 79.0991 26.4288 78.8343 26.9568C78.4823 27.4848 78.1303 27.7487 77.6903 28.0127C77.2503 28.2767 76.8103 28.3647 76.2823 28.3647C75.6663 28.3647 75.3134 28.3647 74.6983 27.7488C74.0823 27.2207 74.1694 26.4287 74.2583 25.5487L75.7534 19.7407L74.4343 19.4767ZM18.3785 14.1968C18.2905 14.6368 17.2345 14.5488 16.9705 14.7248C16.7945 14.9888 16.5305 15.4288 16.4425 15.9567C14.8585 22.5567 14.0665 25.9007 14.0665 25.9888C14.0665 26.2528 14.1545 26.6047 14.3305 26.6927C14.5065 26.8687 15.1225 27.1328 15.1225 27.4848C15.1225 27.8359 14.4185 27.9247 13.6265 28.1887C12.8345 28.3647 12.6585 28.4527 11.5146 28.2768C10.4586 28.1887 8.43456 27.8368 8.43456 27.3088C8.43456 26.7808 9.57856 26.6927 9.75456 26.4287C9.93056 26.1647 10.2826 25.6367 10.4586 25.0208L12.6585 15.9567C12.6585 15.8688 13.0105 15.0768 12.5705 14.7248C12.1305 14.3728 11.7785 14.1087 11.7785 13.8447C11.7785 13.5807 12.3945 13.3167 13.2745 13.2288C14.1545 13.1407 14.6825 13.1407 15.2105 13.1407C15.7385 13.1407 16.2665 13.1407 17.0585 13.2288C17.6745 13.4928 18.4665 13.6687 18.3785 14.1968ZM37.8264 20.0048C38.3544 19.3008 38.8824 18.9487 39.8504 18.4207C40.8184 17.8927 41.6984 17.8927 42.7544 17.8927C44.2504 17.8927 44.9544 18.3328 45.7464 18.8608C46.5384 19.4767 46.9784 20.0928 47.0664 21.1488C47.1544 21.9408 47.1544 22.8207 46.8904 23.7008C46.6264 24.5807 46.3624 25.2847 45.8344 25.9007C45.3064 26.6047 44.6033 27.1319 43.8984 27.6607C43.1944 28.1007 42.4904 28.1888 41.3464 28.3647C40.1144 28.4528 38.7064 28.0128 38.0024 27.3959C37.2104 26.7808 36.7704 25.9879 36.6824 24.9319C36.5944 24.0519 36.5944 22.9079 36.8584 22.1159C36.8584 22.0279 36.9464 21.9399 36.9464 21.7639C36.8584 21.4999 36.7704 21.2359 36.5944 21.2359C36.3304 21.2359 35.8904 21.3239 35.5384 21.2359C35.1865 21.1479 34.9225 21.1479 34.7464 21.1479C34.3065 21.1479 33.4265 22.6439 32.8985 23.6119C32.3705 24.5807 31.9305 26.1639 31.3145 27.9239C31.3145 28.0119 30.6105 28.275 30.1705 28.3639C29.7305 28.4519 29.2905 28.3639 29.1145 28.3639C28.6745 28.1879 28.4105 28.0999 28.3225 27.9239C28.1465 27.7479 28.1465 26.4279 28.3225 25.8999C28.7625 24.2279 29.5545 22.5559 29.4665 21.9399C29.2025 20.8839 27.9705 20.7959 27.8825 20.7959C27.7945 20.7959 27.7065 20.7959 27.6185 20.7079L26.1225 20.7959C26.1225 22.4679 25.6825 23.6999 24.8025 24.4039C23.8345 25.1079 22.6025 25.5479 20.9305 25.5479C20.4905 25.5479 20.7545 26.0759 21.4585 26.2519C22.1625 26.5159 22.6025 26.5159 23.1305 26.6039C23.8345 26.7799 24.4505 27.0439 25.0665 27.4839C25.6825 27.9239 26.0345 28.8039 26.0345 29.5079C26.0345 30.5639 25.2425 31.7959 24.0985 32.5879C22.9545 33.3799 21.7225 33.7319 20.4905 33.7319C18.9065 33.7319 17.7625 33.2919 16.7945 32.7639C15.8265 32.2368 15.2985 31.7087 15.2985 30.9167C15.2985 30.1256 15.3865 29.5968 15.8265 29.2456C16.2665 28.8936 16.5305 28.4536 17.4985 28.0136C17.2345 27.4856 17.1465 27.4856 16.9705 27.0456C16.7945 26.5168 16.6185 26.1656 17.1465 25.6367C17.6745 25.1087 17.7625 25.1087 18.5545 24.4927C17.9385 24.2287 17.4105 22.4688 17.4105 21.8527C17.4105 20.5327 17.6745 19.8287 18.8185 18.7727C19.9625 17.7167 20.9305 17.8048 22.1625 17.8048C23.0425 17.8048 24.0105 18.2447 24.5385 18.5087C24.8905 18.5087 25.2425 18.2448 25.5945 18.1567C25.7705 18.0688 26.1225 17.9808 26.4745 17.8048C26.5625 17.8048 28.2345 18.8608 28.3225 18.9487C28.3225 18.9487 28.3225 19.0368 28.4105 19.0368L28.4985 18.9487C29.2905 18.2447 29.9945 17.8048 30.7865 17.8048C31.4025 17.8048 31.9305 17.9808 32.2825 18.2448C32.6345 18.5968 32.5465 18.8608 32.5465 19.4767C32.5465 19.5648 32.9865 19.8288 32.8985 19.9167C33.1625 19.6528 33.5145 19.3007 33.8665 18.8608C34.3945 18.1567 35.2744 17.7168 35.8024 17.7168C36.3304 17.7168 36.7704 18.0688 37.0344 18.4207C37.3864 18.8608 37.6504 19.4768 37.8264 20.0048ZM23.3065 20.4447C23.3945 20.1807 23.3065 20.0047 23.3065 19.8288C23.2185 19.6528 23.1305 19.5648 22.9545 19.4767C22.6025 19.3888 22.1625 19.7407 21.5465 20.5327C20.9305 21.3247 20.5785 22.1168 20.4025 23.0848C20.3145 23.3488 20.4025 23.5247 20.4025 23.7008C20.4905 23.8759 20.5785 23.9648 20.8425 24.0519C21.2825 24.1407 21.8105 23.7879 22.3385 22.9959C22.7785 22.1168 23.1305 21.3248 23.3065 20.4447ZM22.8665 30.3888C22.8665 29.8608 22.5145 29.5088 21.8985 29.2448C21.1945 29.0688 21.1065 29.0688 19.9625 29.0688C19.4345 29.2447 18.7305 29.5968 18.3785 29.8608C18.1145 30.1248 17.6745 30.4759 17.6745 30.7408C17.6745 31.0048 17.8505 31.4447 18.2905 31.7087C18.7305 32.0607 19.2585 32.0608 20.1385 32.0608C20.9305 32.0608 21.4585 31.7087 21.8985 31.3559C22.4265 31.1807 22.8665 30.8288 22.8665 30.3888ZM42.7544 19.4767C42.4024 19.4767 42.0504 19.7407 41.6104 20.1807C41.2584 20.6208 40.9944 21.3248 40.6424 22.1168C40.2904 22.8207 40.2024 23.3488 40.0264 24.4048C39.8504 25.4608 40.1144 26.6927 40.2904 26.8687C40.4664 27.0448 40.8184 27.0448 40.9944 27.0448C41.4344 26.9559 41.6984 26.7807 42.1384 26.2527C42.5784 25.7247 42.6664 25.4616 43.0184 24.7568C43.3704 24.0527 43.5464 23.3487 43.6344 22.3807C43.6344 21.3247 43.3704 19.4767 42.7544 19.4767ZM56.0424 19.5648C56.0424 19.9167 56.0424 20.6207 56.0424 20.9727C56.0424 21.3247 56.0424 21.5887 55.3384 21.5887C54.7224 21.5887 54.6335 21.1488 54.5464 20.7968C54.4592 20.4447 54.5464 20.1807 54.3704 19.9167C54.1944 19.6528 53.7544 19.3888 53.2264 19.3888C52.6984 19.3888 52.3464 19.5648 51.8184 20.0048C51.3784 20.5328 51.6424 20.7967 51.9935 21.1488C52.3455 21.5007 53.4024 21.8528 53.8424 22.1168C54.3704 22.4688 54.9864 22.7327 55.3384 23.3487C55.6895 24.0527 55.6895 24.4048 55.6895 25.2847C55.6895 26.1648 54.9855 27.0448 54.1935 27.6607C53.4024 28.2759 51.9935 28.3647 50.8495 28.3647C50.3215 28.3647 49.1784 28.1888 47.5935 27.8359C47.6824 26.6919 47.7695 25.9008 47.7695 25.5479C47.8584 24.9319 47.6815 24.5799 47.8584 24.5799C48.3864 24.4928 48.6504 24.8447 48.9144 25.1087C49.1793 25.3727 49.3544 25.6367 49.5304 25.9007C49.7064 26.1647 50.0593 26.3407 50.2344 26.6047C50.4104 26.8687 51.2904 26.8687 51.5544 26.6927C51.9944 26.4287 52.5233 25.9016 52.5233 25.6367C52.5233 25.3727 52.4344 25.1968 51.9073 24.8456C51.4673 24.4936 51.2033 24.3167 50.6753 24.0536C50.1473 23.7896 49.4441 23.1736 49.1801 22.6456C48.8281 22.2056 48.7402 21.7656 48.7402 21.3256C48.7402 20.5336 48.9153 19.5656 49.6201 18.8616C50.3241 18.1576 50.7641 17.7176 52.6113 17.8056C53.4032 17.8936 54.9872 18.3336 55.7801 18.3336C56.0424 19.0368 56.0424 19.1248 56.0424 19.5648ZM66.9543 21.6768C66.9543 22.4688 66.8663 23.7887 66.6032 24.5807C66.3383 25.3727 65.6343 26.2528 65.1063 26.7808C64.4903 27.3959 63.8743 27.6607 63.1703 28.1007C62.4663 28.4527 61.4983 28.6287 60.2663 28.5407C59.0343 28.4519 58.2423 27.7488 57.5383 27.0448C56.8344 26.3407 56.5704 25.5487 56.5704 24.5807C56.5704 23.7887 56.7464 22.9959 57.0104 22.2919C57.2744 21.5879 57.7143 20.8839 58.3303 20.1799C58.8592 19.5639 59.5623 19.0359 60.3543 18.6839C61.1463 18.3319 62.0263 18.0679 63.0832 18.0679C64.2272 18.0679 65.1943 18.4199 65.8112 19.0359C66.4263 19.6528 66.9543 20.7087 66.9543 21.6768ZM63.5223 19.9167C63.4334 19.5648 63.3463 19.4767 63.1703 19.4767C62.8192 19.4767 62.2903 19.8288 61.8503 20.2687C61.4983 20.7087 61.0583 21.1487 60.7063 21.8527C60.3543 22.5567 60.1783 23.2616 60.0023 23.9648C59.8263 24.6679 60.0023 26.4288 60.0903 26.6047C60.1792 26.7808 60.3543 27.0448 60.6192 27.0448C60.9703 27.0448 61.4992 26.7808 61.9392 26.3407C62.3792 25.9007 62.7303 25.2847 63.0832 24.5807C63.3472 23.8759 63.5232 23.7008 63.6112 22.7319C63.6103 21.5887 63.6103 20.2688 63.5223 19.9167ZM44.8664 0.46875C73.9943 0.46875 88.8662 12.0848 88.8662 22.4688C88.8662 32.8527 71.4423 44.4688 45.2184 44.4688C18.9945 44.4688 0.954597 33.5568 0.866597 22.4688C0.778597 11.3807 15.7385 0.46875 44.8664 0.46875ZM45.0424 3.46075C17.2345 3.46075 2.45059 14.0208 2.71459 23.0848C2.97859 32.1488 19.9625 41.3887 45.0424 41.3887C70.1223 41.3887 86.8422 31.0928 86.8422 22.4688C86.8422 13.8447 72.9383 3.46075 45.0424 3.46075ZM86.7542 7.24475C87.1942 6.71675 87.4582 6.01275 87.4582 5.22075C87.4582 3.46075 86.0493 2.05275 84.2894 2.05275C83.5854 2.05275 82.9694 2.31675 82.4414 2.66875C84.9053 2.49275 86.1373 3.02075 86.1373 4.16475C86.1373 5.30875 85.7853 4.86875 85.7853 5.83675C85.7862 6.27675 86.1382 6.80475 86.7542 7.24475ZM85.6102 8.21275C85.2582 7.59675 84.9942 7.24475 84.8182 6.98075C84.5542 6.71675 84.2902 6.54075 83.8502 6.18875C83.6742 6.71675 83.5862 7.06875 83.4991 7.33275C83.4102 7.59675 83.2342 7.77275 82.9702 8.12475C83.4102 8.38875 83.9382 8.47675 84.4662 8.47675C84.7302 8.47675 85.1702 8.38875 85.6102 8.21275ZM81.6502 7.06875C81.9142 6.80475 82.0902 6.36475 82.0902 5.92475C82.1791 5.39675 82.0902 4.42875 81.9142 3.10875C81.3862 3.63675 81.0342 4.42875 81.0342 5.30875C81.0342 5.92475 81.2982 6.54075 81.6502 7.06875ZM84.2902 0.46875C86.8422 0.46875 88.8662 2.49275 88.8662 5.04475C88.8662 7.59675 86.8422 9.62075 84.2902 9.62075C81.7391 9.62075 79.7142 7.59675 79.7142 5.04475C79.7142 2.49275 81.7382 0.46875 84.2902 0.46875ZM83.6742 3.90075V4.86875C84.2022 4.78075 84.4662 4.60475 84.4662 4.25275C84.4662 3.90075 84.2022 3.81275 83.6742 3.90075Z" fill="white"/>
</g>
</g>
</g>
</g>
</svg>
