<svg width="55" height="57" viewBox="0 0 55 57" fill="none" xmlns="http://www.w3.org/2000/svg">
<g id="Iron dog">
<path id="studio_1_" d="M5.99923 48.3362C5.87264 48.0831 5.66201 47.8026 5.45138 47.6345C5.2691 47.4937 4.93189 47.3114 4.39821 47.3114C3.47163 47.3114 2.82556 47.8866 2.82556 48.7575C2.82556 49.122 2.92378 49.3327 3.17594 49.5717C3.45644 49.8522 3.80783 50.0071 4.15821 50.161L5.05644 50.5539C5.60429 50.7929 6.10961 51.0451 6.50252 51.438C6.97948 51.915 7.17594 52.4628 7.17594 53.1362C7.17594 54.8628 5.89796 56.0142 4.21391 56.0142C3.59619 56.0142 2.82454 55.8876 2.17847 55.2557C1.71467 54.8061 1.43416 54.161 1.30859 53.599L2.31923 53.3185C2.3891 53.8096 2.61391 54.2309 2.88024 54.5114C3.28733 54.9185 3.75011 55.0309 4.22809 55.0309C5.50606 55.0309 6.10961 54.1185 6.10961 53.1777C6.10961 52.7565 5.98302 52.3919 5.64581 52.0831C5.37948 51.8299 5.01391 51.6618 4.52277 51.437L3.68024 51.0441C3.31568 50.876 2.85188 50.6795 2.43062 50.2724C2.02353 49.8795 1.78454 49.4441 1.78454 48.7423C1.78454 47.2962 2.8934 46.3281 4.40935 46.3281C4.98454 46.3281 5.44834 46.4405 5.91113 46.7494C6.28986 47.0026 6.6129 47.3813 6.82353 47.7884L5.99923 48.3362ZM12.3445 47.4653V55.8461H11.3056V47.4653H9.03113V46.4831H14.618V47.4653H12.3445ZM18.6058 52.2238C18.6058 53.0096 18.6058 53.8663 19.3501 54.4982C19.7288 54.8213 20.3749 55.0319 20.8944 55.0319C21.4139 55.0319 22.06 54.8213 22.4387 54.4982C23.183 53.8663 23.183 53.0107 23.183 52.2238V46.482H24.222V52.5043C24.222 53.2901 24.138 54.0486 23.6326 54.7504C23.0716 55.5221 22.0883 56.0142 20.8954 56.0142C19.7025 56.0142 18.7192 55.5231 18.1582 54.7504C17.6529 54.0486 17.5688 53.2901 17.5688 52.5043V46.482H18.6078V52.2238H18.6058ZM28.1795 46.4831H30.0883C31.0291 46.4831 32.3628 46.5813 33.5415 47.5777C34.3982 48.2937 35.1415 49.4866 35.1415 51.1717C35.1415 53.1372 34.1724 54.1894 33.499 54.7656C32.6423 55.4957 31.744 55.8461 30.0742 55.8461H28.1795V46.4831ZM29.2185 54.8638H30.1309C30.8752 54.8638 31.9 54.7798 32.8124 54.0213C33.5142 53.4319 34.0762 52.5053 34.0762 51.1717C34.0762 48.9256 32.5035 47.4653 30.1319 47.4653H29.2195V54.8638H29.2185ZM39.6347 46.4831V55.8461H38.5957V46.4831H39.6347ZM43.0878 51.1717C43.0878 48.3777 45.264 46.3281 47.9587 46.3281C50.6534 46.3281 52.8296 48.3777 52.8296 51.1717C52.8296 53.9514 50.6676 56.0152 47.9587 56.0152C45.2499 56.0152 43.0878 53.9514 43.0878 51.1717ZM44.1542 51.1717C44.1542 53.3195 45.8524 55.0319 47.9587 55.0319C50.065 55.0319 51.7633 53.3195 51.7633 51.1717C51.7633 49.0238 50.065 47.3114 47.9587 47.3114C45.8524 47.3114 44.1542 49.0238 44.1542 51.1717Z" fill="white"/>
<path id="Vector" d="M11.8677 0.503441V19.9232H7.38673V0.503441H11.8677ZM6.03179 0.470024V19.9232H1.55078V0.470024H6.03179ZM48.369 0.46091V12.1976C48.369 12.1976 40.9351 3.84218 39.9153 2.9004C37.9184 1.05838 35.4212 0.078125 32.3943 0.078125C28.5239 0.078125 26.1027 1.6204 24.7933 2.92977C23.0475 4.67559 21.7928 7.49787 21.7928 10.2918C21.7928 13.1434 22.9553 15.7622 24.8176 17.508C26.2728 18.9045 28.7447 20.3596 32.3822 20.3596C35.6409 20.3596 38.0855 19.2538 39.889 17.508C41.3179 16.1186 42.205 14.4437 42.6242 12.6979L48.9341 19.9222H52.7407V0.46091H48.369ZM36.6303 14.5693C35.6986 15.5009 34.3022 16.228 32.3234 16.228C30.8105 16.228 29.4141 15.8209 28.1624 14.628C26.9695 13.4645 26.3872 12.0386 26.3872 10.2634C26.3872 8.11053 27.2601 6.68471 28.1037 5.86952C29.1508 4.82243 30.6647 4.21078 32.3518 4.21078C34.127 4.21078 35.6693 4.93787 36.6293 5.86952C37.5022 6.74243 38.3174 8.22699 38.3174 10.2341C38.3184 12.4741 37.3867 13.8422 36.6303 14.5693Z" fill="#F5F5F5"/>
<path id="Vector_2" d="M17.3127 11.967C18.3891 11.7047 19.3491 11.1295 20.0185 10.4895C21.2701 9.26723 21.5314 7.75736 21.5314 6.53508C21.5314 4.38217 20.6585 2.95634 19.8433 2.17153C18.9117 1.29862 17.3704 0.455078 14.8965 0.455078H7.3866V3.89812H13.6175C14.1998 3.89812 15.3633 3.90926 16.0904 4.46217C16.4691 4.7528 16.9927 5.41305 16.9927 6.51888C16.9927 7.47888 16.5856 8.04495 16.2656 8.36495C15.5091 9.12141 14.4033 9.16394 13.5881 9.16394H12.5512V12.3032L17.8069 19.8981H23.2772L17.3127 11.967ZM43.8423 32.1513V35.9994H48.8975C48.4965 37.5184 47.5699 38.3052 47.416 38.4287C46.9532 38.8298 45.8727 39.5356 43.8352 39.5356C42.2605 39.5356 40.9015 39.1325 39.6681 37.9285C38.1299 36.4267 37.5871 34.5614 37.341 33.0961C37.5871 31.6318 38.1299 29.7685 39.6681 28.2667C40.9025 27.0617 42.2615 26.6637 43.8352 26.6637C45.8727 26.6637 46.9532 27.3786 47.416 27.7796C47.5547 27.89 48.3142 28.5553 48.7588 29.7898L52.7648 27.8455C52.299 26.8571 51.7025 25.9255 50.9542 25.1467C48.6696 22.77 46.058 22.3376 43.6195 22.3376C41.1496 22.3376 38.4955 22.7386 36.0874 25.2085C35.7663 25.5376 35.4028 25.9569 35.0403 26.4713C35.0382 26.4682 35.0362 26.4662 35.0342 26.4632L35.0332 26.4814L35.0119 26.5118C34.7162 26.0693 34.3952 25.6682 34.0489 25.3331C31.981 23.327 29.2955 22.3386 26.0853 22.3386C21.98 22.3386 19.419 23.9761 18.0286 25.3634C17.6914 25.6996 17.3744 26.1432 17.0788 26.6546L17.0372 26.5817L17.0352 26.5806C17.0362 26.5796 17.0362 26.5786 17.0372 26.5776C16.7719 26.2455 16.4863 25.9518 16.1815 25.6561C13.6499 23.2176 10.779 22.8348 8.06306 22.8348H1.51318V43.3918H8.21597C9.94458 43.3918 13.495 43.1751 16.3344 40.3042C16.5582 40.0804 16.7699 39.8444 16.9714 39.5984C17.2965 40.0389 17.6489 40.451 18.0276 40.8287C19.418 42.2161 21.979 43.8536 26.0843 43.8536C29.2944 43.8536 31.98 42.8662 34.0479 40.8591C34.3942 40.5239 34.7162 40.1219 35.0119 39.6794C35.019 39.6895 35.0251 39.6996 35.0322 39.7087L35.0332 39.727C35.0352 39.7239 35.0372 39.7219 35.0393 39.7189C35.4018 40.2333 35.7653 40.6525 36.0863 40.9817C38.4944 43.4515 41.1486 43.8525 43.6185 43.8525C46.057 43.8525 48.6433 43.4201 50.9279 41.0434C53.2124 38.6667 54.0701 34.8693 54.0701 32.369V32.1503H43.8423V32.1513ZM14.2474 34.4804C14.0529 35.0201 13.4879 36.9361 12.2595 37.97C10.7182 39.2682 8.55622 39.3412 7.56787 39.3412H6.27268V26.7842H7.56787C9.01901 26.7842 11.0251 27.0151 12.5684 28.5584C13.3714 29.3614 14.1036 30.8277 14.4155 32.9877C14.4438 33.2004 14.4772 33.411 14.5137 33.6206C14.4104 33.9781 14.3213 34.2718 14.2474 34.4804ZM31.575 36.3812C31.2853 36.9138 30.9431 37.3594 30.5917 37.7098C29.5729 38.6971 27.9365 39.4698 26.0539 39.4698C24.2636 39.4698 22.6585 38.8217 21.5466 37.7098C21.3269 37.4971 21.1061 37.2439 20.8965 36.9513L20.9056 36.9503C20.9056 36.9503 19.9496 35.5791 19.3319 33.0961C19.9496 30.612 20.9056 29.2409 20.9056 29.2409L20.8965 29.2389C21.1061 28.9462 21.3269 28.6931 21.5466 28.4804C22.6575 27.3695 24.2625 26.7204 26.0539 26.7204C27.9365 26.7204 29.5729 27.492 30.5917 28.4804C30.9431 28.8318 31.2853 29.2763 31.575 29.809C31.8423 30.2505 32.3537 31.168 32.6524 32.4298C32.7051 32.6515 32.7537 32.8733 32.8003 33.0951C32.7537 33.3168 32.7051 33.5386 32.6524 33.7604C32.3537 35.0222 31.8423 35.9396 31.575 36.3812Z" fill="#F5F5F5"/>
<path id="Vector_3" d="M42.6291 12.7609L37.0474 6.31836C37.0474 6.31836 39.7177 9.86368 37.2772 13.7786L39.4413 17.8768C39.4423 17.8768 41.897 16.046 42.6291 12.7609Z" fill="url(#paint0_linear_71_485)"/>
<path id="Vector_4" d="M12.6394 12.4167C12.6394 12.4167 14.687 12.7914 17.3381 12.041L23.2774 19.9985H17.8181L12.6394 12.4167Z" fill="url(#paint1_linear_71_485)"/>
<path id="Vector_5" d="M37.2358 32.3814C37.2642 32.6052 37.2976 32.8452 37.3401 33.0964C37.5862 31.6321 38.129 29.7688 39.6672 28.267C40.9016 27.0619 42.2606 26.664 43.8343 26.664C45.8717 26.664 46.9523 27.3789 47.415 27.7799C47.5538 27.8903 48.3133 28.5556 48.7578 29.79L52.7639 27.8457C52.2981 26.8574 51.7016 25.9257 50.9533 25.147C48.6687 22.7703 46.0571 22.3379 43.6186 22.3379C41.1487 22.3379 38.4945 22.7389 36.0864 25.2088C35.7654 25.5379 35.4019 25.9571 35.0393 26.4716C35.0373 26.4685 35.0353 26.4665 35.0333 26.4635L35.0323 26.4817L35.011 26.5121C36.2495 28.3612 37.0312 30.9293 37.2358 32.3814Z" fill="url(#paint2_linear_71_485)"/>
<path id="Vector_6" d="M33.2266 35.2157C33.0757 34.5109 32.9491 33.804 32.8003 33.0952C32.7537 33.3169 32.7051 33.5387 32.6524 33.7605C32.3527 35.0223 31.8413 35.9397 31.575 36.3813C31.2853 36.9139 30.9431 37.3595 30.5917 37.7099C29.5729 38.6972 27.9365 39.4699 26.0539 39.4699C24.2636 39.4699 22.6585 38.8218 21.5466 37.7099C21.3269 37.4972 21.1061 37.244 20.8965 36.9514L20.9056 36.9504C20.9056 36.9504 19.9496 35.5792 19.3319 33.0952C19.1334 32.278 19.0494 30.9028 18.7456 29.8223L14.7324 34.4926C15.4403 36.918 16.6089 39.4111 18.0286 40.8278C19.419 42.2152 21.98 43.8526 26.0853 43.8526C29.2955 43.8526 31.981 42.8653 34.0489 40.8582C34.3952 40.523 34.7172 40.121 35.0129 39.6785C34.2706 38.6142 33.6317 37.1134 33.2266 35.2157Z" fill="url(#paint3_linear_71_485)"/>
<path id="Vector_7" d="M43.8424 32.1496V35.9977H48.8976C48.4966 37.5167 47.57 38.3035 47.4161 38.4271C46.9533 38.8281 45.8728 39.5339 43.8353 39.5339C42.2606 39.5339 40.9016 39.1309 39.6682 37.9268C37.8667 36.1678 37.4303 33.9096 37.2368 32.3805C36.9827 30.581 35.8434 27.0681 34.05 25.3304C31.9822 23.3243 29.2966 22.3359 26.0865 22.3359C21.9811 22.3359 19.4201 23.9734 18.0298 25.3607C17.6824 25.7071 17.3857 26.1719 17.0718 26.6306C17.0718 26.6306 17.6409 27.4914 18.1472 28.8078C18.7346 30.3349 19.2156 32.6256 19.333 33.0934C19.9508 30.6094 20.9067 29.2382 20.9067 29.2382L20.8976 29.2372C21.1072 28.9445 21.328 28.6914 21.5477 28.4787C22.6586 27.3678 24.2637 26.7187 26.0551 26.7187C27.9376 26.7187 29.5741 27.4904 30.5928 28.4787C30.9442 28.8301 31.2865 29.2747 31.5761 29.8073C31.8434 30.2488 32.3548 31.1663 32.6536 32.4281C32.8743 33.3587 33.0292 34.2894 33.2277 35.2139C33.5467 37.1613 34.2849 38.6407 35.0333 39.7081L35.0343 39.7263C35.0363 39.7233 35.0384 39.7213 35.0404 39.7182C35.4029 40.2326 35.7665 40.6519 36.0875 40.981C38.4956 43.4509 41.1497 43.8519 43.6196 43.8519C46.0581 43.8519 48.6444 43.4195 50.929 41.0428C53.2136 38.6661 54.0713 34.8686 54.0713 32.3683V32.1496H43.8424Z" fill="url(#paint4_linear_71_485)"/>
<path id="Vector_8" d="M14.2473 34.4798C14.0529 35.0196 13.4878 36.9355 12.2595 37.9694C10.7182 39.2677 8.5562 39.3406 7.56785 39.3406H7.44633C7.01392 40.6773 6.77493 42.0039 6.71924 43.3912H8.21595C9.94455 43.3912 13.4949 43.1745 16.3344 40.3036C16.5582 40.0798 16.7699 39.8439 16.9714 39.5978C15.741 37.932 14.9035 35.851 14.5137 33.6211C14.4104 33.9775 14.3213 34.2712 14.2473 34.4798Z" fill="url(#paint5_linear_71_485)"/>
<path id="Vector_9" d="M43.8423 32.1514V35.9995H48.8975C48.4965 37.5185 47.5699 38.3053 47.416 38.4289C46.9532 38.8299 45.8727 39.5357 43.8352 39.5357C42.2605 39.5357 40.9015 39.1327 39.6681 37.9286C38.1299 36.4268 37.5871 34.5615 37.341 33.0962C37.2985 33.3474 37.2651 33.5863 37.2367 33.8101C37.0312 35.2623 36.2504 37.8294 35.0129 39.6795C35.02 39.6896 35.0261 39.6998 35.0332 39.7089L35.0342 39.7271C35.0362 39.7241 35.0383 39.722 35.0403 39.719C35.4028 40.2334 35.7664 40.6527 36.0874 40.9818C38.4955 43.4517 41.1496 43.8527 43.6195 43.8527C46.058 43.8527 48.6443 43.4203 50.9289 41.0436C53.2134 38.6668 54.0712 34.8694 54.0712 32.3691V32.1504H43.8423V32.1514Z" fill="#F5F5F5"/>
<path id="Vector_10" d="M7.38672 3.91016H11.8667V7.39066H7.38672V3.91016Z" fill="url(#paint6_linear_71_485)"/>
</g>
<defs>
<linearGradient id="paint0_linear_71_485" x1="37.3897" y1="12.9863" x2="42.7111" y2="7.66499" gradientUnits="userSpaceOnUse">
<stop stop-opacity="0"/>
<stop offset="1" stop-opacity="0.5"/>
</linearGradient>
<linearGradient id="paint1_linear_71_485" x1="17.8739" y1="16.1913" x2="13.3709" y2="9.77955" gradientUnits="userSpaceOnUse">
<stop stop-opacity="0"/>
<stop offset="1" stop-opacity="0.5"/>
</linearGradient>
<linearGradient id="paint2_linear_71_485" x1="43.9028" y1="26.9466" x2="31.1433" y2="37.8833" gradientUnits="userSpaceOnUse">
<stop stop-opacity="0"/>
<stop offset="1" stop-opacity="0.5"/>
</linearGradient>
<linearGradient id="paint3_linear_71_485" x1="25.4997" y1="36.239" x2="33.2466" y2="28.4919" gradientUnits="userSpaceOnUse">
<stop stop-opacity="0"/>
<stop offset="1" stop-opacity="0.5"/>
</linearGradient>
<linearGradient id="paint4_linear_71_485" x1="26.1824" y1="33.0934" x2="9.30692" y2="33.0934" gradientUnits="userSpaceOnUse">
<stop stop-opacity="0"/>
<stop offset="1" stop-opacity="0.5"/>
</linearGradient>
<linearGradient id="paint5_linear_71_485" x1="10.4819" y1="40.8437" x2="18.5493" y2="34.5989" gradientUnits="userSpaceOnUse">
<stop stop-opacity="0"/>
<stop offset="1" stop-opacity="0.5"/>
</linearGradient>
<linearGradient id="paint6_linear_71_485" x1="9.62682" y1="7.23876" x2="9.62682" y2="2.378" gradientUnits="userSpaceOnUse">
<stop stop-opacity="0"/>
<stop offset="1" stop-opacity="0.5"/>
</linearGradient>
</defs>
</svg>
