<svg width="105" height="23" viewBox="0 0 105 23" fill="none" xmlns="http://www.w3.org/2000/svg">
<g id="Isoftbet" style="mix-blend-mode:luminosity">
<g id="Group">
<g id="Clip path group">
<mask id="mask0_71_548" style="mask-type:luminance" maskUnits="userSpaceOnUse" x="0" y="0" width="105" height="23">
<g id="a">
<path id="Vector" d="M104.182 0.273438H0.244873V22.2669H104.182V0.273438Z" fill="white"/>
</g>
</mask>
<g mask="url(#mask0_71_548)">
<g id="Group_2">
<path id="Vector_2" d="M18.9272 6.10621C18.8176 4.92202 18.5106 3.97914 17.9843 3.29939C17.4581 2.61964 16.6687 2.26885 15.6381 2.26885C14.7609 2.26885 14.0373 2.53199 13.5111 3.05826C12.9848 3.58452 12.7217 4.26427 12.7217 5.07567C12.7217 6.06238 13.0286 6.87361 13.6427 7.53153C14.2566 8.18928 15.1995 8.93485 16.4494 9.81191C17.2608 10.3382 17.9185 10.7986 18.401 11.1934C18.8834 11.588 19.3658 12.0486 19.8043 12.5749C20.2636 13.124 20.6269 13.7467 20.8788 14.4168C21.1638 15.1184 21.2954 15.9078 21.2954 16.8069C21.2954 18.5172 20.813 19.8548 19.8701 20.8197C18.9272 21.7844 17.5677 22.2669 15.8134 22.2669C14.147 22.2669 12.8533 21.7186 11.8884 20.6004C10.9237 19.504 10.4413 18.0349 10.3975 16.2148H12.5244C12.5682 17.5086 12.8751 18.4953 13.4672 19.2189C14.0593 19.9425 14.9146 20.2934 16.0328 20.2934C17.0195 20.2934 17.787 19.9863 18.3571 19.3724C18.9272 18.7585 19.1904 17.8814 19.1904 16.763C19.1904 15.7325 18.8614 14.8773 18.2255 14.1755C17.5897 13.474 16.6028 12.6626 15.2434 11.7417C14.4978 11.2154 13.8839 10.7548 13.4014 10.3602C12.9093 9.95614 12.4476 9.5164 12.0201 9.04451C11.5815 8.56207 11.2307 7.99197 10.9894 7.35605C10.7262 6.72013 10.5948 6.01856 10.5948 5.25098C10.5948 3.76 11.0772 2.55399 12.0201 1.63293C12.963 0.733878 14.2128 0.273438 15.7478 0.273438C17.3484 0.295437 18.5983 0.799705 19.5193 1.80841C20.4622 2.81712 20.9665 4.24227 21.0543 6.10621H18.9272ZM36.2282 16.3026C35.9431 17.7059 35.5265 18.8461 35.022 19.7232C34.496 20.6004 33.86 21.2363 33.1363 21.6529C32.4127 22.0695 31.5575 22.2669 30.6366 22.2669C29.7157 22.2669 28.8823 22.0695 28.1587 21.6529C27.4352 21.2581 26.7992 20.6004 26.273 19.7232C25.7467 18.8461 25.3301 17.7059 25.0451 16.3026C24.76 14.8991 24.6065 13.2326 24.6065 11.2811C24.6065 9.32947 24.76 7.64119 25.0451 6.23769C25.3301 4.83437 25.7249 3.69418 26.2511 2.81712C26.7774 1.93989 27.4132 1.30397 28.1369 0.887359C28.8823 0.492745 29.7157 0.273438 30.6366 0.273438C31.5575 0.273438 32.3909 0.470745 33.1363 0.887359C33.8819 1.28215 34.5178 1.93989 35.022 2.81712C35.5483 3.69418 35.9431 4.83437 36.2282 6.23769C36.5132 7.64119 36.6667 9.30764 36.6667 11.2811C36.6448 13.2326 36.5132 14.8991 36.2282 16.3026ZM34.0573 6.85178C33.86 5.66759 33.6187 4.74671 33.2679 4.08879C32.939 3.40904 32.5444 2.9486 32.1057 2.66347C31.6671 2.37851 31.1629 2.24685 30.6146 2.24685C30.0665 2.24685 29.5622 2.37851 29.1236 2.66347C28.685 2.9486 28.2904 3.40904 27.9614 4.08879C27.6325 4.76854 27.3693 5.68959 27.172 6.85178C26.9747 8.0358 26.8869 9.50495 26.8869 11.2811C26.8869 13.0572 26.9747 14.5263 27.172 15.7105C27.3693 16.8945 27.6106 17.8156 27.9614 18.4733C28.2904 19.1531 28.685 19.6137 29.1236 19.8986C29.5622 20.1838 30.0665 20.3153 30.6146 20.3153C31.1629 20.3153 31.6671 20.1838 32.1057 19.8986C32.5444 19.6137 32.939 19.1531 33.2679 18.4733C33.5969 17.7936 33.86 16.8727 34.0573 15.7105C34.2546 14.5263 34.3423 13.0572 34.3423 11.2811C34.3423 9.50495 34.2546 8.0358 34.0573 6.85178ZM40.482 0.580398H49.6479V2.53199H42.7846V9.81191H47.9374V11.7635H42.7846V21.9379H40.482V0.580398ZM63.5938 0.580398V2.53199H59.2084V21.9599H56.906V2.55399H52.5204V0.580398H63.5938Z" fill="#55889D"/>
<path id="Vector_3" d="M66.0936 0.57954H71.7728C73.3516 0.57954 74.5796 1.06198 75.4786 2.00486C76.3557 2.96974 76.8161 4.24141 76.8161 5.84222C76.8161 6.98241 76.553 7.99112 76.0267 8.82434C75.5005 9.67957 74.6672 10.2497 73.5709 10.5786V10.6443C74.8207 10.9732 75.7418 11.6092 76.3777 12.552C76.9916 13.4949 77.3206 14.6571 77.3206 16.0386C77.3206 19.9854 75.04 21.959 70.4571 21.959H66.1375V0.57954H66.0936ZM68.396 9.76723H69.6897C71.3781 9.76723 72.6062 9.46027 73.3516 8.89017C74.0971 8.29808 74.4699 7.28937 74.4699 5.86404C74.4699 4.65803 74.1848 3.80297 73.6147 3.29853C73.0446 2.79426 72.0579 2.55313 70.6764 2.55313H68.374V9.76723H68.396ZM68.396 20.0074H70.6984C72.1237 20.0074 73.1763 19.6785 73.8998 19.0426C74.6016 18.4068 74.9742 17.3981 74.9742 16.0386C74.9742 14.5913 74.6234 13.5169 73.9437 12.7932C73.2639 12.0696 72.1894 11.7188 70.6984 11.7188H68.396V20.0074ZM90.7402 0.57954V2.53113H83.2848V9.81105H88.7886V11.7626H83.2848V19.9854H91.091V21.937H80.9604V0.57954H90.7402ZM104.182 0.57954V2.53113H99.7964V21.959H97.4939V2.55313H93.1084V0.57954H104.182ZM2.76656 9.35061V22.266H4.98128V9.35061C4.63032 9.46027 4.25771 9.52609 3.88492 9.52609C3.51213 9.52609 3.11735 9.46027 2.76656 9.35061ZM3.92875 2.07069C4.98128 2.07069 5.85834 2.92574 5.85834 4.00028C5.85834 5.05282 5.00311 5.92987 3.92875 5.92987C2.85421 5.92987 1.99916 5.05282 1.99916 3.97828C1.99916 2.92574 2.85421 2.07069 3.92875 2.07069ZM3.92875 0.316406C1.8895 0.316406 0.244873 1.96104 0.244873 3.97828C0.244873 6.0177 1.8895 7.66216 3.92875 7.66216C5.96799 7.66216 7.61262 6.0177 7.61262 3.97828C7.59062 1.96104 5.94599 0.316406 3.92875 0.316406Z" fill="#FECC55"/>
</g>
</g>
</g>
</g>
</g>
</svg>
