<svg width="90" height="31" viewBox="0 0 90 31" fill="none" xmlns="http://www.w3.org/2000/svg">
<g id="just for the win" clip-path="url(#clip0_461_683)">
<g id="&#208;&#161;&#208;&#187;&#208;&#190;&#208;&#185; 2">
<g id="&#208;&#161;&#208;&#187;&#208;&#190;&#208;&#185; 1">
<path id="Vector" d="M46.8512 14.1218C47.7183 10.1186 47.8159 6.10799 46.9916 2.08447C46.7548 0.922649 46.5833 0.757592 45.3893 0.617188L39.6016 0.62469C39.1354 0.802608 38.652 0.952659 38.5298 1.54107C38.1969 3.07191 37.9843 4.62648 37.8943 6.19051C37.82 7.95071 37.8762 9.71399 38.0625 11.4659L38.1226 11.8946C38.1477 11.9558 38.1681 12.0189 38.1836 12.0832C38.22 12.23 38.2337 12.3814 38.2244 12.5323L38.2447 12.6395L38.3519 13.184L38.3916 13.4101C38.3133 13.528 38.3144 13.6245 38.4505 13.7038C38.5367 13.9071 38.5798 14.1261 38.577 14.3469C38.756 14.3029 38.8064 14.454 38.8932 14.5537C39.2389 14.7394 39.6287 14.8276 40.0207 14.8088C41.8181 14.7992 43.6155 14.7949 45.4118 14.8088C46.0163 14.8077 46.5297 14.6866 46.8512 14.1218ZM45.9113 6.54849H44.2125C44.2125 6.47775 44.2061 6.45632 44.2125 6.44131C44.8899 5.48527 45.0763 5.4917 45.9091 6.54528L45.9113 6.54849ZM44.578 5.54315C44.578 5.59352 44.5919 5.6171 44.5855 5.62568C43.6798 6.67175 44.0142 6.74892 43.0056 5.54315H44.578ZM43.5512 6.55814H41.8963C42.1439 6.17765 42.3733 5.71892 42.6991 5.71249C43.0249 5.70606 43.2372 6.19051 43.549 6.55492L43.5512 6.55814ZM42.4569 5.53458C42.1664 5.86254 41.9392 6.12192 41.7066 6.37808C41.6134 6.48526 41.5201 6.45096 41.4398 6.35664C41.2254 6.10584 41.011 5.85397 40.7442 5.53458H42.4569ZM39.7774 6.21516C40.563 5.49063 40.6648 5.51421 41.2168 6.55064H39.533C39.5137 6.35235 39.6777 6.29769 39.772 6.21516H39.7774ZM42.1739 9.36945L39.473 6.88289L39.5223 6.76499H41.3058C41.35 6.75954 41.3949 6.76861 41.4335 6.79084C41.4722 6.81307 41.5026 6.84725 41.5201 6.88825C41.7977 7.68245 42.071 8.47772 42.3465 9.27406L42.1739 9.36945ZM42.7098 9.78316C42.3808 8.76603 42.0989 7.89574 41.8181 7.02544C41.7559 6.83466 41.8438 6.76821 42.0325 6.76928C42.4783 6.76928 42.9242 6.77571 43.3701 6.76928C43.6423 6.76285 43.6573 6.87646 43.5844 7.10047C43.3015 7.93432 43.0346 8.77568 42.7098 9.78316ZM43.1771 9.41447L43.0614 9.29871C43.31 8.56561 43.5601 7.83286 43.8116 7.10047C43.8684 6.93434 43.9102 6.76071 44.1546 6.76392C44.7344 6.77357 45.3132 6.76392 45.8931 6.76392L45.9456 6.88611L43.1771 9.41447Z" fill="#D1D1D1"/>
<path id="Vector_2" d="M37.7506 13.7415C37.6562 13.4114 37.6605 13.0749 37.5994 12.7448L37.5748 12.5379L37.4676 11.7823C37.4551 11.7699 37.4472 11.7537 37.4451 11.7362C37.4436 11.7281 37.4436 11.7197 37.4451 11.7116C37.4478 11.7028 37.4518 11.6945 37.4569 11.6869L37.4355 11.4725C37.4064 11.37 37.3835 11.2659 37.3669 11.1607C37.0361 8.06633 37.1577 4.94032 37.7281 1.88107C37.8352 1.34517 37.8438 0.887518 37.234 0.659226L30.9104 0.636719C30.113 0.81678 29.606 1.33017 29.2855 2.05577L29.1923 2.25405C29.1805 2.41859 29.1106 2.57358 28.9951 2.69135L28.9629 2.79317C28.9657 2.81344 28.9657 2.83399 28.9629 2.85426C28.9603 2.8938 28.9448 2.9314 28.919 2.96144C28.9057 2.97711 28.8906 2.99114 28.874 3.00324C28.8778 3.05408 28.8701 3.10512 28.8516 3.1526C28.833 3.20009 28.804 3.24281 28.7668 3.27762C28.7591 3.45502 28.6999 3.62634 28.5964 3.77064L28.5664 3.87032C28.5563 4.08098 28.4956 4.28611 28.3895 4.46838C28.3692 4.59164 28.3552 4.71596 28.3274 4.83815C27.62 7.96135 28.0476 10.9334 29.4881 13.7801C29.8418 14.4789 30.4013 14.8026 31.1644 14.808C31.95 14.8144 32.7356 14.808 33.5223 14.808C34.6477 14.808 35.7731 14.8155 36.8974 14.808C37.6498 14.7898 37.9456 14.4243 37.7506 13.7415ZM34.5877 5.5241C34.323 5.84563 34.1075 6.10822 33.8889 6.36867C33.771 6.51015 33.6745 6.43298 33.5866 6.32901C33.3723 6.09215 33.1644 5.85742 32.8653 5.5241H34.5877ZM33.4184 6.58946C32.9404 6.58946 32.5341 6.58946 32.1322 6.58946C31.8493 6.58946 31.8353 6.50157 31.9961 6.28185C32.5588 5.50588 32.7925 5.54017 33.4184 6.58946ZM30.7989 5.57233C30.8643 5.39762 31.2812 5.51659 31.5406 5.50373C31.7807 5.49194 32.0218 5.50373 32.4098 5.50373C32.0883 5.86171 31.8739 6.1093 31.6499 6.35259C31.4259 6.59589 31.3348 6.34295 31.248 6.22505C31.0862 6.00212 30.7057 5.82205 30.7989 5.57233ZM30.2748 5.69773C30.3734 5.59698 30.4709 5.65807 30.547 5.7481C30.7518 5.98818 30.9565 6.23041 31.2426 6.56909H29.4099C29.6307 6.16717 30.0026 5.97639 30.2748 5.69773ZM32.1086 9.38362L29.3949 6.89278L29.4259 6.76952C30.0326 6.76952 30.6403 6.76952 31.248 6.76952C31.3713 6.76952 31.4334 6.85419 31.4709 6.96351C31.7332 7.72949 31.9961 8.49511 32.2598 9.26037L32.1086 9.38362ZM32.1397 8.26789L31.6499 6.76738C32.2426 6.76738 32.7571 6.76738 33.2726 6.76738C33.5191 6.76738 33.5866 6.85419 33.5073 7.08891C33.2276 7.9292 32.9564 8.7727 32.6306 9.77483L32.1397 8.26789ZM33.1151 9.39327C33.0743 9.41042 33.0079 9.45436 32.9972 9.4415C32.9836 9.43047 32.9733 9.41605 32.9672 9.3997C32.963 9.38608 32.963 9.37153 32.9672 9.3579C32.969 9.35088 32.9715 9.34405 32.9747 9.33754C32.9865 9.31565 33.0017 9.29575 33.0197 9.27859L33.3851 8.16821C33.5066 7.79808 33.6274 7.4276 33.7474 7.05676C33.8085 6.86813 33.8985 6.75666 34.1225 6.76095C34.6842 6.77274 35.2458 6.76095 35.8771 6.87777L33.1151 9.39327ZM34.0239 6.55087C34.2983 6.22934 34.503 5.99461 34.7035 5.7556C34.7999 5.64092 34.8964 5.61198 35.0164 5.72345C35.2812 5.96889 35.5523 6.21219 35.9157 6.55087H34.0239Z" fill="#D1D1D1"/>
<path id="Vector_3" d="M47.593 13.7437C47.4954 14.2464 47.6037 14.5786 48.0667 14.7898C50.0924 14.7898 52.1181 14.7898 54.1438 14.8015C54.9358 14.8015 55.491 14.4436 55.8586 13.7598C55.9326 13.6226 56.014 13.4897 56.0923 13.3535C56.6783 11.999 57.0875 10.5747 57.3098 9.11568C57.3671 8.21636 57.3699 7.31442 57.3184 6.41476C57.0715 4.83888 56.6024 3.30597 55.9251 1.86178C55.5157 1.00434 54.9187 0.663514 54.0473 0.651724C53.1191 0.639935 52.191 0.651724 51.2606 0.651724C50.3142 0.651724 49.3679 0.638863 48.4225 0.657083C47.7602 0.669945 47.5544 0.940037 47.5651 1.58847C47.5651 1.91001 47.7023 2.19832 47.7516 2.507C48.3591 6.2328 48.3054 10.0365 47.593 13.7437ZM52.639 9.59798C52.3657 8.75663 52.0956 7.9142 51.8169 7.07391C51.7312 6.81561 51.8544 6.76416 52.0741 6.76738C52.5029 6.76738 52.9316 6.7781 53.3603 6.76738C53.6229 6.75987 53.6561 6.85312 53.5746 7.08892C53.2917 7.9292 53.0237 8.77485 52.7494 9.61942L52.639 9.59798ZM53.1577 9.43507L53.0409 9.33539C53.3121 8.54977 53.5843 7.76415 53.8533 6.97745C53.8715 6.90862 53.9142 6.84883 53.9735 6.80934C54.0327 6.76985 54.1043 6.7534 54.1748 6.76309C54.7649 6.74928 55.355 6.78513 55.939 6.87027L53.1577 9.43507ZM55.1245 5.76096C55.3806 5.99569 55.6378 6.22719 55.969 6.5273C55.3174 6.63448 54.7665 6.57017 54.073 6.58732C54.3688 6.23898 54.5736 6.00426 54.7697 5.76203C54.8897 5.6077 55.0044 5.65378 55.1245 5.76096ZM53.2724 5.51124C53.6958 5.51124 54.1191 5.51124 54.6132 5.51124C54.4589 5.89815 54.1577 6.09858 53.953 6.36867C53.8715 6.47585 53.7676 6.46084 53.6872 6.35902C53.4835 6.09965 53.1974 5.90458 53.0441 5.55839C53.1191 5.5361 53.1958 5.52032 53.2735 5.51124H53.2724ZM53.2006 6.15431C53.2938 6.26149 53.5125 6.35259 53.4053 6.52622C53.3592 6.60125 53.1481 6.58839 53.012 6.5916C52.6636 6.60018 52.3153 6.5916 51.833 6.5916C52.0173 6.36117 52.0988 6.2497 52.191 6.14681C52.7022 5.57554 52.7065 5.57233 53.2017 6.15002L53.2006 6.15431ZM52.4096 5.5466C52.326 5.66021 52.2906 5.71488 52.2499 5.76096C51.5361 6.6184 51.4161 6.60018 50.8244 5.53696C51.352 5.49131 51.8826 5.49454 52.4096 5.5466ZM49.5983 6.33973C49.6462 6.31672 49.6901 6.28594 49.728 6.24863C50.564 5.57233 50.564 5.57233 51.2756 6.58946H49.6572C49.5854 6.58946 49.5168 6.57981 49.4975 6.48764C49.4782 6.39546 49.5233 6.36117 49.5994 6.33437L49.5983 6.33973ZM51.2531 6.76845C51.3156 6.76183 51.3784 6.77729 51.4307 6.81214C51.483 6.84698 51.5214 6.89902 51.5393 6.95923C51.8165 7.76164 52.0924 8.56478 52.3667 9.36862L52.2521 9.45115L49.3346 6.77166C50.0924 6.76631 50.6733 6.76952 51.2542 6.76523L51.2531 6.76845Z" fill="#D1D1D1"/>
<path id="Vector_4" d="M75.0009 19.2492C74.6794 19.022 74.0695 19.1977 73.5872 19.1967C73.569 19.1967 73.5518 19.1967 73.5336 19.1967C73.3343 19.1967 73.2614 19.3038 73.2549 19.501C73.2056 21.1473 72.8573 22.7561 72.6558 24.3841C72.6355 24.5513 72.673 24.7571 72.4189 24.83C72.1757 23.2223 71.9366 21.6146 71.6891 20.0144C71.5626 19.1913 71.554 19.2288 70.7352 19.1774C70.2529 19.1474 70.1253 19.3392 70.076 19.7626C69.9742 20.6307 69.8349 21.4946 69.7062 22.3606C69.5744 23.2459 69.4372 24.1312 69.3022 25.0165C69.1859 24.8858 69.1149 24.7212 69.0996 24.547C68.9088 23.1677 68.7255 21.7872 68.5326 20.4078C68.3611 19.1827 68.3558 19.2106 67.1136 19.1774C66.5948 19.1634 66.5777 19.3649 66.6516 19.7733C66.8939 21.1473 67.1082 22.5224 67.3226 23.8954L67.5369 25.2191C67.6196 25.4073 67.6525 25.6136 67.6323 25.8182L67.6559 25.9522C67.7436 26.1104 67.7753 26.2935 67.7459 26.472C67.8382 26.7484 67.8845 27.038 67.8831 27.3294L67.9517 27.6295L67.9699 27.6563L67.9464 27.6788C68.0304 27.9876 68.098 28.3007 68.1489 28.6166C68.1779 28.7956 68.2014 28.9757 68.2218 29.1525C68.2368 29.2897 68.25 29.4273 68.2615 29.5652L68.2711 29.5909C68.2844 29.6382 68.3078 29.6821 68.3397 29.7195C68.4244 29.816 68.5541 29.8267 68.6966 29.8096C69.0996 29.7731 69.5144 29.9007 69.9067 29.7185L69.8906 29.6927L69.9152 29.6734C69.8908 29.5357 69.9135 29.3937 69.9795 29.2704C69.9635 28.9982 70.0492 28.7431 70.1157 28.4859L70.1414 28.3916L70.1789 28.1772C70.162 28.1062 70.1595 28.0326 70.1714 27.9606C70.1834 27.8887 70.2096 27.8198 70.2486 27.7581L70.3311 27.3123C70.339 26.937 70.404 26.5651 70.524 26.2094L70.5294 26.1976C70.5713 25.6064 70.6668 25.0203 70.8145 24.4463C70.963 24.6987 71.0595 24.9782 71.0985 25.2684C71.3043 26.428 71.5036 27.5899 71.7212 28.7474C71.9356 29.8749 71.942 29.8653 73.076 29.8192C73.3375 29.8085 73.4393 29.7388 73.4832 29.4655C73.9666 26.4913 74.4746 23.5224 74.9495 20.5471C75.0202 20.1141 75.3835 19.5171 75.0009 19.2492Z" fill="#D1D1D1"/>
<path id="Vector_5" d="M57.5264 19.6669C57.5264 19.5082 57.4986 19.3453 57.4836 19.1899L55.6776 19.1813L55.564 19.2949C55.5747 20.6311 55.5858 21.9673 55.5972 23.3034C55.5972 23.4578 55.5876 23.5928 55.3828 23.5907C55.0259 23.5907 54.6701 23.5907 54.3111 23.5907C54.0699 23.5907 54.0967 23.401 54.0967 23.2434C54.1046 21.9251 54.1142 20.6068 54.1256 19.2885L53.9649 19.1738L52.25 19.1813L52.1428 19.2982C52.1646 19.3476 52.1759 19.4011 52.1759 19.4552C52.1759 19.5092 52.1646 19.5627 52.1428 19.6122C52.1953 22.9348 52.1846 26.2637 52.1482 29.5906C52.1385 29.6002 52.1203 29.6099 52.1214 29.6185C52.1267 29.6423 52.1343 29.6656 52.1439 29.6881C52.6358 30.0022 53.1803 29.7535 53.6937 29.8307C54.0152 29.8789 54.1224 29.7599 54.1171 29.4191C54.0935 28.3655 54.1096 27.312 54.1106 26.2584C54.1106 25.1737 54.1106 25.1866 55.1878 25.2027C55.5233 25.2027 55.6165 25.3184 55.6069 25.6389C55.5886 26.5671 55.5929 27.4963 55.6069 28.4255C55.6122 28.8682 55.4171 29.4384 55.683 29.7213C55.9756 30.0322 56.5608 29.7792 57.0141 29.836C57.43 29.8885 57.55 29.7439 57.55 29.3151C57.5179 26.0955 57.5275 22.8812 57.5264 19.6669Z" fill="#D1D1D1"/>
<path id="Vector_6" d="M41.7132 25.1504C41.6714 24.9735 41.531 24.7806 41.7368 24.607C42.7014 23.7881 42.7635 22.6928 42.6146 21.5652C42.4388 20.2266 41.7089 19.517 40.3638 19.2791C39.5482 19.1344 38.7239 19.2277 37.9051 19.1837C37.5235 19.1633 37.4249 19.2909 37.4292 19.6649C37.4485 21.2726 37.4378 22.8803 37.4378 24.488C37.4378 25.7742 37.4292 27.0603 37.4378 28.3465C37.4378 28.8224 37.2288 29.4418 37.53 29.7398C37.8311 30.0378 38.4485 29.7848 38.9233 29.8373C39.3231 29.8813 39.3885 29.7055 39.382 29.3497C39.3617 28.1536 39.3713 26.9574 39.382 25.7602C39.382 25.607 39.2856 25.3873 39.5964 25.368C39.8686 25.3497 39.9179 25.5105 39.9629 25.7195C40.1569 26.608 40.3638 27.4944 40.5599 28.3829C40.89 29.8759 40.8879 29.8631 42.3981 29.8406C42.7989 29.8341 42.8107 29.7152 42.7196 29.3722C42.368 27.966 42.0422 26.5544 41.7132 25.1504ZM39.9104 23.8321C39.5557 23.9393 39.3263 23.9339 39.3745 23.4495C39.3842 23.3573 39.3885 23.264 39.3917 23.1708C39.3992 22.891 39.382 22.6092 39.382 22.3284C39.382 22.0475 39.3949 21.7399 39.3895 21.4463C39.3895 21.3487 39.3831 21.2512 39.3767 21.1537C39.3488 20.7796 39.5256 20.7453 39.8247 20.7925C40.3606 20.8782 40.5589 21.2673 40.7164 21.7174C41.0262 22.6081 40.6467 23.6091 39.9104 23.8321Z" fill="#D1D1D1"/>
<path id="Vector_7" d="M34.4356 19.1776C33.7549 19.0064 33.0379 19.0486 32.382 19.2987C31.5428 19.6202 31.0959 20.2376 31.0552 21.1207C31.0155 22.1175 31.0209 23.1164 31.0059 24.1142C31.0516 25.0731 31.0516 26.032 31.0059 26.9909C31.0059 27.2096 31.0059 27.4282 31.0059 27.6469C30.9973 27.6565 30.9812 27.6694 30.9833 27.6769C30.9902 27.7002 30.9991 27.7228 31.0101 27.7444C31.3081 29.3296 32.0423 29.8515 33.7818 29.9148C34.9286 29.9566 36.173 29.1013 36.1794 27.5418C36.1869 25.5054 36.1923 23.4744 36.1794 21.4412C36.1783 20.3019 35.4902 19.4294 34.4356 19.1776ZM34.2448 27.813C34.236 27.9163 34.2049 28.0165 34.1537 28.1067C34.0866 28.2163 33.9885 28.3035 33.8718 28.3575C33.6307 28.4775 33.3477 28.4818 33.1741 28.186L33.1677 28.1774C33.1266 28.1474 33.0905 28.1113 33.0605 28.0702C33.0038 27.9798 32.9727 27.8757 32.9705 27.769C32.9705 27.754 32.9705 27.738 32.9705 27.723C32.9705 27.708 32.9705 27.6608 32.9705 27.6308C32.9705 27.6008 32.9705 27.5375 32.9705 27.4915C32.9705 25.5101 32.9705 23.5287 32.9705 21.5473C32.9658 21.4035 32.9777 21.2597 33.0058 21.1186C33.0787 20.8077 33.2738 20.6105 33.605 20.6095C33.6818 20.6045 33.7589 20.6151 33.8316 20.6404C33.9044 20.6658 33.9713 20.7055 34.0284 20.7571C34.0856 20.8088 34.1318 20.8714 34.1644 20.9412C34.1969 21.011 34.2152 21.0866 34.218 21.1636C34.2391 21.5012 34.2391 21.8399 34.218 22.1775C34.218 23.8959 34.218 25.6144 34.218 27.3328C34.2373 27.4562 34.2474 27.5809 34.248 27.7058C34.2512 27.7423 34.2491 27.7787 34.2448 27.813Z" fill="#D1D1D1"/>
<path id="Vector_8" d="M9.9461 19.2736C9.66315 19.0443 9.0608 19.2297 8.60314 19.1857C8.18193 19.145 8.10262 19.3186 8.10476 19.7023C8.11977 22.235 8.11226 24.7676 8.11119 27.3003C8.11816 27.4961 8.10884 27.6922 8.08332 27.8865C8.02974 28.2006 7.84753 28.401 7.50777 28.4139C7.16801 28.4267 6.97187 28.237 6.88827 27.9337C6.85166 27.7597 6.83761 27.5818 6.84648 27.4042C6.84648 24.8716 6.83254 22.3389 6.85505 19.8063C6.85505 19.3411 6.76287 19.0978 6.25806 19.1729C5.92152 19.1804 5.58497 19.1911 5.24843 19.1954C5.08873 19.1954 4.91832 19.1675 4.87866 19.3915C4.87866 19.5008 4.87866 19.6105 4.87866 19.7206C4.87866 19.792 4.87866 19.8602 4.87866 19.9253V27.3292C4.87866 27.4007 4.87866 27.4703 4.87866 27.5382L4.96441 28.1931C4.95797 28.2038 4.94297 28.2177 4.94619 28.2252C4.95647 28.2467 4.96867 28.2671 4.98263 28.2863L5.00942 28.4053L4.98691 28.4353L5.0405 28.4728L5.20663 28.819C5.24468 28.8366 5.27674 28.865 5.29884 28.9006C5.32094 28.9362 5.3321 28.9775 5.33096 29.0194L5.41134 29.1266L5.85507 29.5285C6.36846 29.8651 6.94294 29.879 7.53778 29.9272C9.01793 30.0462 10.1101 28.8265 10.0651 27.4042C10.0008 25.1406 10.0533 22.8738 10.0426 20.6091C10.0404 20.1439 10.2494 19.5201 9.9461 19.2736Z" fill="#D1D1D1"/>
<path id="Vector_9" d="M15.2848 24.685C14.7371 24.0033 14.1766 23.3335 13.6417 22.6432C13.3288 22.2402 13.1337 21.7858 13.2205 21.2499C13.2784 20.8898 13.3974 20.5672 13.8143 20.5393C14.2312 20.5114 14.3856 20.819 14.5238 21.1513C14.6439 21.4396 14.4381 21.8844 14.766 22.0152C15.034 22.1223 15.3941 21.9969 15.7135 21.9755C15.8561 21.9659 15.9986 21.9476 16.1422 21.9519C16.4466 21.9594 16.5281 21.8222 16.5131 21.5232C16.4252 19.7387 15.0072 18.728 13.1691 19.1567C12.0383 19.4203 11.3706 20.1974 11.3052 21.3453C11.2398 22.4932 11.8411 23.3528 12.4917 24.1888C13.0276 24.8768 13.6053 25.536 14.1423 26.2252C14.5174 26.7053 14.7275 27.2444 14.5592 27.8725C14.4681 28.2123 14.2859 28.4577 13.9161 28.4974C13.526 28.5392 13.273 28.3387 13.1198 27.9947C12.987 27.6809 12.9259 27.3415 12.9408 27.0011C12.9472 26.7589 12.8411 26.6925 12.6192 26.715C12.1777 26.7589 11.735 26.7857 11.2924 26.8221C11.168 26.8318 11.0341 26.8307 11.0319 27.0129C11.0319 27.297 10.9569 27.5981 11.0255 27.8618C11.4178 29.3623 12.1669 29.9036 13.8207 29.9046C14.1069 29.8746 14.4445 29.9454 14.7853 29.851C16.2451 29.4405 16.9493 27.8339 16.3234 26.3055C16.0693 25.7043 15.6867 25.1866 15.2848 24.685Z" fill="#D1D1D1"/>
<path id="Vector_10" d="M61.4715 20.7921C62.1007 20.8028 62.7459 20.9411 63.3665 20.7031C63.313 20.2346 63.3102 19.7618 63.3579 19.2926C63.211 19.1447 63.0224 19.1962 62.8498 19.1962C61.7084 19.1962 60.5659 19.2198 59.4201 19.1844C58.9689 19.1705 58.8992 19.3377 58.9014 19.731C58.9164 22.0675 58.911 24.4051 58.9067 26.7416C58.9067 27.7212 58.8874 28.7008 58.8767 29.6805C58.897 29.7302 58.9334 29.7717 58.98 29.7983C59.0266 29.8249 59.0808 29.8351 59.1339 29.8273C60.4319 29.8273 61.7309 29.8273 63.0299 29.8273C63.27 29.8273 63.33 29.7266 63.3289 29.5058C63.3289 29.1339 63.3482 28.7619 63.36 28.39C63.2689 28.1757 63.0792 28.2121 62.9045 28.2121C62.3525 28.2121 61.7984 28.1928 61.2475 28.2196C60.9088 28.2357 60.8188 28.1124 60.8317 27.7909C60.8531 27.0964 60.8552 26.3976 60.8317 25.7063C60.8199 25.3601 60.9603 25.2775 61.2722 25.2968C61.6098 25.3183 61.9495 25.2893 62.2872 25.3033C62.5401 25.314 62.6173 25.2164 62.6355 24.9646C62.732 23.5905 62.7427 23.5905 61.3493 23.5852C61.3137 23.5822 61.2778 23.5822 61.2422 23.5852C60.897 23.642 60.8188 23.4684 60.8295 23.1565C60.8612 22.5871 60.8612 22.0163 60.8295 21.447C60.7952 20.9464 60.9453 20.7824 61.4715 20.7921Z" fill="#D1D1D1"/>
<path id="Vector_11" d="M30.0103 19.1842C28.7959 19.2014 27.5816 19.2121 26.3662 19.1842C25.9214 19.1735 25.796 19.301 25.8003 19.7458C25.8185 21.4768 25.8003 23.2088 25.7874 24.9397C25.7427 25.7501 25.7427 26.5623 25.7874 27.3727V28.9986C25.7596 29.2644 25.7242 29.5345 25.811 29.7939C26.4566 29.8444 27.105 29.8465 27.7509 29.8003L27.7874 29.632C27.7767 28.2687 27.7735 26.9054 27.7509 25.5421C27.7509 25.2366 27.8946 25.2205 28.14 25.197C28.6191 25.152 29.1239 25.3588 29.5794 25.0651C29.5387 24.9665 29.5526 23.8304 29.5859 23.8026C29.5065 23.4917 29.2525 23.6021 29.0575 23.5882C28.6491 23.5678 28.1154 23.7179 27.8624 23.5143C27.5623 23.271 27.7649 22.7126 27.7617 22.2924C27.7617 21.8165 27.5527 21.1949 27.8538 20.8991C28.155 20.6033 28.7702 20.8165 29.2472 20.8123C30.4604 20.8005 30.4487 20.8123 30.4336 19.6033C30.4336 19.2807 30.3383 19.1799 30.0103 19.1842Z" fill="#D1D1D1"/>
<path id="Vector_12" d="M51.4663 19.215C49.8436 19.2064 48.2209 19.1925 46.5982 19.1925C45.8126 19.1925 45.879 19.052 45.8748 19.8891C45.8748 20.8173 45.8748 20.8173 46.7976 20.8151C46.9223 20.8217 47.0472 20.8195 47.1716 20.8087C47.5864 20.7498 47.7172 20.9041 47.7129 21.3339C47.6925 23.6918 47.6979 26.0498 47.7129 28.4013C47.7129 28.859 47.4985 29.457 47.804 29.7389C48.1094 30.0208 48.6925 29.785 49.1512 29.83C49.5414 29.8686 49.6657 29.7518 49.6625 29.3359C49.641 26.9265 49.6539 24.5128 49.6539 22.1077C49.6539 20.8216 49.6539 20.8216 50.9572 20.8141C51.0107 20.8106 51.0644 20.8106 51.118 20.8141C51.4052 20.8505 51.491 20.7133 51.4781 20.4411C51.4599 20.0349 51.4674 19.6244 51.4663 19.215Z" fill="#D1D1D1"/>
<path id="Vector_13" d="M21.9504 19.1858C20.5967 19.2019 19.243 19.1933 17.8894 19.1933C16.8905 19.1933 16.8905 19.1933 16.8111 20.1482C16.8302 20.1814 16.8389 20.2195 16.8363 20.2577C16.8336 20.2959 16.8196 20.3324 16.7961 20.3626C16.8227 20.4134 16.8376 20.4695 16.8396 20.5269C16.8417 20.5842 16.8308 20.6412 16.8079 20.6938L16.8529 20.7945C17.2967 20.7999 17.7425 20.831 18.1852 20.8031C18.5667 20.7795 18.6632 20.9199 18.6611 21.2865C18.6461 23.5983 18.6546 25.9091 18.6503 28.221C18.6503 28.7172 18.6257 29.2124 18.6128 29.7086L18.66 29.7987C19.1187 29.8072 19.5785 29.7987 20.0351 29.8287C20.4177 29.8576 20.6482 29.7654 20.6171 29.3346L20.6332 29.3089L20.6171 29.2831C20.6042 29.1245 20.5796 28.9616 20.5785 28.8073C20.5785 26.3486 20.5935 23.8909 20.5646 21.4333C20.5581 20.8974 20.7296 20.7902 21.2291 20.7988C22.4381 20.8331 22.422 20.8085 22.4209 19.6102C22.422 19.2351 22.2773 19.1815 21.9504 19.1858Z" fill="#D1D1D1"/>
<path id="Vector_14" d="M3.56158 19.3129C3.30006 18.9806 2.69557 19.2539 2.24649 19.1907C1.79741 19.1274 1.6763 19.285 1.68058 19.7362C1.70309 22.286 1.69344 24.8358 1.69344 27.3867C1.69344 28.1155 1.6152 28.2184 0.885312 28.3931C0.743836 28.4274 0.654877 28.4542 0.65702 28.6171C0.65702 28.974 0.65702 29.3299 0.65702 29.6889C0.65702 29.8068 0.693461 29.8893 0.833866 29.9033C2.09001 30.0104 3.62053 29.6364 3.63661 27.8347C3.65054 26.48 3.63661 25.1241 3.63661 23.7694H3.64197C3.64197 22.7169 3.64197 21.6655 3.64197 20.613C3.64197 20.166 3.78237 19.5937 3.56158 19.3129Z" fill="#D1D1D1"/>
<path id="Vector_15" d="M84.6566 20.4222C84.6566 19.1811 84.6566 19.1971 83.3876 19.1832C82.9932 19.1832 82.871 19.2754 82.8775 19.6848C82.9021 21.3997 82.8925 23.1145 82.8871 24.8219C82.8871 24.9216 82.9814 25.0749 82.7799 25.1295C82.7477 25.0675 82.7187 25.0038 82.6931 24.9387C82.0793 23.1353 81.4663 21.3318 80.8539 19.5283C80.81 19.3976 80.8067 19.2004 80.6288 19.2068C80.0854 19.2293 79.5302 19.0728 78.9976 19.2936C79.0061 21.6573 79.0143 24.0213 79.0222 26.3857C79.0222 27.5239 79.0222 28.6611 79.0222 29.7993L80.8121 29.8068V23.942L80.9439 23.9227L81.214 24.8573C81.661 26.1327 82.11 27.4082 82.5527 28.6847C82.9503 29.8293 82.9471 29.8133 84.1336 29.8325C84.5441 29.839 84.6781 29.7425 84.6695 29.3052C84.647 26.3406 84.6577 23.3836 84.6566 20.4222Z" fill="#D1D1D1"/>
<path id="Vector_16" d="M78.0276 19.2939C77.5324 19.0849 77.0126 19.25 76.5088 19.1868C76.1627 19.1471 76.0533 19.2714 76.0565 19.6294C76.0748 21.4461 76.0641 23.2628 76.0651 25.0795C76.0651 26.505 76.0651 27.9294 76.0716 29.3549C76.0716 29.5113 75.9708 29.8018 76.2184 29.7932C76.824 29.7718 77.4488 29.9904 78.0351 29.6764C78.0265 28.1062 78.0104 26.536 78.0094 24.9605C78.0083 23.0795 78.0201 21.1867 78.0276 19.2939Z" fill="#D1D1D1"/>
<path id="Vector_17" d="M87.901 19.328C87.2011 19.0483 86.5623 19.2209 85.9889 19.6389C85.5602 19.9518 85.5109 20.4824 85.7509 20.9636C86.0414 21.5456 86.5205 21.7492 87.1368 21.7632C87.3629 21.7214 87.5944 21.6978 87.8152 21.6335C88.3683 21.4738 88.7798 20.9754 88.7873 20.4856C88.7948 19.9958 88.4368 19.5456 87.901 19.328ZM87.2064 21.5177C86.4819 21.5177 85.9031 21.029 85.9203 20.4395C85.9353 19.8704 86.5065 19.4074 87.1989 19.402C87.9213 19.402 88.5097 19.8693 88.5151 20.4577C88.5204 21.0461 87.932 21.5252 87.2064 21.5177Z" fill="#D1D1D1"/>
<path id="Vector_18" d="M87.3308 19.7576C87.1539 19.7318 86.8571 19.5914 86.8206 19.9312C86.7987 20.2881 86.7987 20.6461 86.8206 21.003C86.8206 21.0919 86.8453 21.1873 86.9653 21.1841C87.0854 21.1809 87.1057 21.0952 87.1186 21.0019C87.1314 20.9087 87.14 20.8347 87.1507 20.7511L87.245 20.7297C87.2708 20.7929 87.2976 20.8561 87.3211 20.9205C87.3694 21.0534 87.4133 21.242 87.5902 21.1777C87.7917 21.1037 87.6491 20.9247 87.602 20.8165C87.5162 20.6214 87.6245 20.4832 87.6716 20.316C87.7466 20.0319 87.632 19.8026 87.3308 19.7576ZM87.2976 20.4081C87.2574 20.4096 87.2177 20.3991 87.1835 20.3778C87.1494 20.3566 87.1224 20.3256 87.106 20.2888C87.0897 20.2521 87.0846 20.2113 87.0916 20.1717C87.0986 20.1321 87.1173 20.0955 87.1453 20.0666C87.1732 20.0378 87.2092 20.0179 87.2486 20.0096C87.2879 20.0013 87.3288 20.005 87.3661 20.0202C87.4033 20.0353 87.4352 20.0613 87.4575 20.0947C87.4799 20.1282 87.4917 20.1675 87.4916 20.2077C87.492 20.2336 87.4873 20.2593 87.4778 20.2834C87.4683 20.3075 87.4541 20.3295 87.4361 20.3481C87.4181 20.3667 87.3966 20.3816 87.3728 20.3919C87.349 20.4022 87.3235 20.4077 87.2976 20.4081Z" fill="#D1D1D1"/>
</g>
</g>
</g>
<defs>
<clipPath id="clip0_461_683">
<rect width="88.5" height="30" fill="white" transform="translate(0.656982 0.273438)"/>
</clipPath>
</defs>
</svg>
