<svg width="128" height="29" viewBox="0 0 128 29" fill="none" xmlns="http://www.w3.org/2000/svg">
<g id="kalambra" clip-path="url(#clip0_470_215)">
<g id="Group">
<path id="Vector" d="M3.4179 18.5778C4.75521 18.536 6.09252 18.5778 7.42983 18.5778C7.68058 18.5778 7.97312 18.536 8.22387 18.6614C8.59998 18.8286 8.89252 19.2883 8.80894 19.7062C8.30745 21.9211 7.80596 24.1778 7.30446 26.3927C7.1373 27.145 6.38506 27.6883 5.59103 27.6883C4.17013 27.6883 2.74924 27.6883 1.37013 27.6883C0.868642 27.6883 0.283568 27.3122 0.325359 26.7271V26.6017C0.36715 26.2256 0.450732 25.8495 0.534314 25.4733C0.952225 23.6345 1.37013 21.7539 1.78805 19.9151C1.87163 19.2047 2.62387 18.5778 3.4179 18.5778ZM116.254 0.39872C116.797 0.315137 117.382 0.356927 117.925 0.315136C120.809 0.315136 123.651 0.315136 126.534 0.315136C126.827 0.315136 127.078 0.4823 127.203 0.733046C127.245 0.90021 127.203 1.06738 127.203 1.23454C125.991 6.70917 124.737 12.1838 123.484 17.6584C123.358 18.1181 122.94 18.536 122.439 18.4942C121.896 18.4942 121.31 18.4942 120.767 18.4942C120.391 18.4942 120.098 18.1181 120.182 17.742C120.558 15.9868 120.934 14.2733 121.352 12.5181C121.394 12.2256 121.478 11.8913 121.269 11.6405C121.143 11.4316 120.851 11.348 120.642 11.3898C119.43 11.3898 118.218 11.3898 117.048 11.3898C116.588 11.3898 116.296 10.8047 116.463 10.4286C116.881 9.38379 117.716 8.50618 118.719 8.00469C119.681 7.5032 120.767 7.4614 121.812 7.41961C122.23 7.41961 122.606 7.12708 122.69 6.70917C122.94 5.6226 123.191 4.53603 123.4 3.44946C123.484 3.03155 123.107 2.69723 122.731 2.69723C121.185 2.69723 119.639 2.69723 118.093 2.69723C117.675 2.69723 117.298 2.90618 117.09 3.24051C117.006 3.40767 116.964 3.61663 116.922 3.78379C115.919 8.33902 114.875 12.8524 113.83 17.4077C113.788 17.7838 113.621 18.1181 113.287 18.3271C113.078 18.4942 112.785 18.4942 112.534 18.4942C111.615 18.4942 110.654 18.4942 109.734 18.4942C109.4 18.4942 109.107 18.2017 109.107 17.8674C109.107 17.742 109.149 17.6166 109.191 17.4913C110.027 13.6465 110.946 9.84349 111.782 5.99872C112.033 4.91215 112.2 3.78379 112.743 2.8226C113.412 1.48528 114.791 0.565884 116.254 0.39872ZM100.666 2.73902C100.29 2.8226 99.9552 3.11514 99.8298 3.53305C99.0358 7.0435 98.2418 10.5539 97.4478 14.0644C97.3224 14.5659 97.1552 15.1092 97.1552 15.6525C97.197 15.9868 97.4895 16.1957 97.8239 16.1957C99.3283 16.1957 100.791 16.1957 102.296 16.1957C102.504 16.1957 102.672 16.1957 102.881 16.1539C103.257 16.0286 103.549 15.736 103.591 15.3599C103.8 14.3151 104.051 13.3122 104.26 12.2674C104.343 11.933 104.093 11.4733 103.716 11.4316C102.421 11.3898 101.167 11.4316 99.8716 11.4316C99.4955 11.4316 99.1194 11.0972 99.1612 10.7211C99.2448 10.0942 99.6209 9.59275 99.997 9.13305C100.875 8.04648 102.254 7.50319 103.633 7.4614C104.134 7.4614 104.636 7.5032 105.096 7.29424C105.304 7.16887 105.472 6.95991 105.513 6.75096C105.722 5.78976 105.973 4.87036 106.182 3.90916C106.224 3.61663 106.349 3.2823 106.14 3.03155C105.931 2.73902 105.555 2.69723 105.263 2.69723C103.758 2.73902 102.212 2.65544 100.666 2.73902ZM99.1612 0.44051C99.9134 0.315137 100.707 0.356926 101.46 0.356926C104.134 0.356926 106.809 0.356926 109.484 0.356926C109.818 0.356926 110.152 0.649463 110.11 0.983792C110.11 1.15096 110.027 1.27633 110.027 1.4435C109.693 2.73902 109.442 4.07633 109.149 5.41364C108.982 6.0823 108.815 6.75096 108.481 7.37782C108.063 8.29723 107.227 8.96588 106.349 9.342C107.06 9.84349 107.478 10.7211 107.561 11.5987C107.603 12.142 107.478 12.7271 107.394 13.2704C107.185 14.3569 106.893 15.4435 106.349 16.4047C105.597 17.742 104.093 18.536 102.588 18.5778C99.2866 18.5778 95.9851 18.5778 92.6836 18.5778C92.391 18.5778 92.0985 18.3271 92.0149 18.0345C92.0149 17.8256 92.0985 17.6166 92.1403 17.4077C93.0179 13.5211 93.8955 9.67633 94.7731 5.78976C94.9403 5.07931 95.0657 4.36887 95.2746 3.70021C95.6089 2.8226 96.1522 2.02857 96.9045 1.4435C97.5313 0.858421 98.3254 0.524092 99.1612 0.44051ZM82.0686 0.39872C82.6119 0.315137 83.197 0.356927 83.7821 0.315136C86.6239 0.315136 89.4657 0.315136 92.3074 0.315136C92.6 0.315136 92.8925 0.4823 93.0179 0.733046C93.1015 0.90021 93.0597 1.06737 93.0179 1.19275C91.8477 6.50021 90.6358 11.8077 89.4239 17.1151C89.3403 17.533 89.2567 18.0345 88.8806 18.2853C88.6298 18.4942 88.2537 18.4942 87.9194 18.4942C87.4597 18.4942 86.9582 18.536 86.4985 18.4524C86.1642 18.3689 85.997 18.0345 86.0388 17.7002C87.0418 13.145 88.1283 8.58976 89.1313 4.03454C89.1731 3.742 89.2567 3.44947 89.2567 3.15693C89.2567 2.98976 89.1731 2.8226 89.006 2.73902C88.5463 2.44648 87.794 2.73902 87.6686 3.2823C87.1254 5.70618 86.5821 8.13006 86.0388 10.5539C85.9134 11.0972 85.3283 11.3898 84.8269 11.3898C84.3254 11.348 83.8239 11.3898 83.3224 11.348C82.9463 11.3062 82.6955 10.9301 82.7791 10.5539C83.2806 8.17185 83.8239 5.83155 84.3672 3.44946C84.4507 3.19872 84.3671 2.90618 84.1164 2.73902C83.6985 2.53006 83.0716 2.65543 82.8209 3.07334C82.6537 3.32409 82.6119 3.61663 82.5701 3.90916C81.5672 8.46439 80.5224 13.0196 79.4776 17.6166C79.394 18.0763 78.9343 18.4942 78.4328 18.4942C77.4298 18.4942 76.4269 18.4942 75.3821 18.4942C75.006 18.4942 74.7134 18.0763 74.797 17.742C75.8 13.1868 76.8448 8.67334 77.8895 4.11812C78.1821 2.98976 78.8507 1.9032 79.8119 1.23454C80.4806 0.774839 81.2746 0.482302 82.0686 0.39872ZM64.9343 0.356926C65.6448 0.315135 66.3552 0.356927 67.0657 0.315136C69.6985 0.315136 72.3731 0.315136 75.006 0.315136C75.2567 0.315136 75.5492 0.4823 75.6328 0.733046C75.7164 1.06737 75.591 1.4017 75.5075 1.69424C74.3373 6.95991 73.1254 12.2256 71.9552 17.4495C71.9134 17.951 71.5373 18.4107 71.0358 18.4524C70.4507 18.4942 69.8657 18.4524 69.2388 18.4524C68.8209 18.4942 68.5284 18.0345 68.6119 17.6584C68.9463 16.1539 69.2806 14.6495 69.6567 13.1032C69.7403 12.7271 69.9075 12.3092 69.8657 11.8913C69.8239 11.5569 69.5313 11.3062 69.197 11.3062C67.9433 11.3062 66.6895 11.3062 65.4776 11.3062C65.0597 11.2644 64.7672 10.7629 64.9343 10.3868C65.4358 9.04946 66.606 8.00469 67.9433 7.58678C68.6955 7.33603 69.4895 7.33603 70.2836 7.33603C70.7015 7.33603 71.0358 7.0017 71.1194 6.62558C71.3701 5.53902 71.6627 4.45245 71.8298 3.36588C71.9134 2.98976 71.5373 2.61364 71.1612 2.61364C69.6149 2.61364 68.0269 2.61364 66.4806 2.61364C65.9791 2.61364 65.5194 2.94797 65.394 3.44946C64.3492 8.17185 63.2627 12.8942 62.1761 17.6166C62.0925 18.0763 61.6328 18.4942 61.1313 18.4942C60.1283 18.4942 59.1254 18.4942 58.1642 18.4942C57.7463 18.536 57.4119 18.0763 57.4955 17.7002C58.4567 13.4375 59.4179 9.21663 60.3791 4.99573C60.5045 4.36887 60.6298 3.78379 60.9224 3.19872C61.2985 2.40469 61.8418 1.69424 62.5522 1.23454C63.2627 0.733048 64.0985 0.440508 64.9343 0.356926ZM50.7671 0.356926C50.9343 0.315135 51.1433 0.315136 51.3104 0.315136C52.188 0.315136 53.1075 0.315136 53.9851 0.315136C54.3612 0.315136 54.7373 0.691256 54.6537 1.10917C53.7761 5.1629 52.8149 9.21663 51.8955 13.3122C51.8119 13.6047 51.7701 13.8972 51.8537 14.1898C51.9373 14.3987 52.1463 14.5659 52.3552 14.5659C53.6089 14.5659 54.8209 14.5659 56.0746 14.5659C56.5343 14.5659 56.9104 15.0256 56.7851 15.4435C56.4507 16.3211 55.8657 17.0733 55.0716 17.6166C54.2358 18.2017 53.191 18.4942 52.188 18.536C50.4328 18.536 48.6358 18.536 46.8806 18.536C46.5045 18.5778 46.1283 18.1599 46.2119 17.742C47.4657 12.2256 48.7612 6.66737 49.9731 1.15096C50.1403 0.774837 50.4328 0.482299 50.7671 0.356926ZM36.1821 0.39872C36.6418 0.315137 37.1015 0.356926 37.603 0.356926C40.5701 0.356926 43.5373 0.356926 46.4627 0.356926C46.7552 0.356926 47.0895 0.565882 47.0895 0.900211C47.1313 1.15096 47.0477 1.35991 47.006 1.61066C45.8358 6.83454 44.6657 12.0166 43.4955 17.1987C43.4119 17.533 43.3701 17.9092 43.1194 18.2017C42.9104 18.4107 42.6179 18.536 42.2836 18.536C41.7403 18.536 41.1552 18.536 40.6119 18.536C40.2358 18.4942 39.9851 18.0763 40.0686 17.742C40.4866 15.9868 40.8627 14.1898 41.2806 12.4345C41.406 12.0584 41.1552 11.5151 40.6955 11.4733C39.4418 11.4316 38.1463 11.4733 36.8925 11.4316C36.4746 11.3898 36.1821 10.8883 36.3492 10.5122C36.6836 9.67633 37.2686 8.92409 37.9791 8.38081C38.606 7.92111 39.4 7.62857 40.1522 7.5032C40.6537 7.41962 41.197 7.41961 41.6985 7.41961C42.1164 7.41961 42.4925 7.08529 42.5761 6.70917C42.7851 5.70618 43.0358 4.74499 43.2448 3.742C43.2865 3.49126 43.3283 3.24051 43.203 3.03155C43.0358 2.78081 42.7433 2.69723 42.4507 2.69723C40.9045 2.69723 39.3582 2.69723 37.8119 2.69723C37.3522 2.73902 36.9343 3.11514 36.8507 3.57484C35.806 8.25543 34.7194 12.9778 33.6746 17.6584C33.591 18.1181 33.1313 18.536 32.6298 18.536C31.6269 18.536 30.6239 18.536 29.5791 18.536C29.203 18.536 28.9104 18.1599 28.994 17.7838C29.9552 13.5211 30.9582 9.21663 31.9194 4.95394C32.0448 4.36887 32.2119 3.78379 32.4627 3.19872C32.7552 2.57185 33.1731 1.98678 33.7164 1.52708C34.3851 0.900211 35.2627 0.524093 36.1821 0.39872ZM24.0627 0.356926C24.188 0.315135 24.3552 0.315136 24.4806 0.315136C25.9433 0.315136 27.3642 0.315136 28.8269 0.315136C29.3701 0.315136 29.8298 0.816628 29.8298 1.35991C29.8298 1.52708 29.7463 1.69424 29.7463 1.86141C29.3283 3.742 28.9104 5.6226 28.4925 7.5032C28.2418 8.58976 27.6149 9.59275 26.7791 10.345C25.5254 11.3898 24.0627 12.1002 22.5164 12.5599C21.2627 12.936 20.0089 13.2286 18.7134 13.4793C18.588 13.5211 18.4627 13.5629 18.3791 13.6465C18.3373 13.7719 18.4209 13.8972 18.5463 13.8972C18.8806 13.9808 19.2567 14.0226 19.6328 14.0644C20.7612 14.2316 21.8895 14.6077 22.9343 15.151C23.5194 15.4853 24.0627 15.8614 24.4806 16.3629C25.3164 17.2823 25.7343 18.5778 25.5672 19.7898C25.2328 22.0465 24.606 24.2614 24.1463 26.4763C24.0209 27.0196 23.603 27.4793 23.1015 27.6883C22.7671 27.8136 22.4328 27.7719 22.0567 27.7719C20.7194 27.7719 19.4239 27.7719 18.0866 27.7719C17.5015 27.7719 17 27.1868 17.1254 26.6017C17.4179 25.139 17.794 23.7181 18.0866 22.2554C18.2537 21.4614 18.3791 20.6256 18.2955 19.7898C18.1701 19.0375 17.9612 18.2853 17.3761 17.742C16.6657 17.1569 15.8716 16.6972 14.994 16.4465C14.2 16.1957 13.3224 16.1539 12.5701 15.7778C12.2358 15.6107 11.9433 15.4435 11.6925 15.151C11.2328 14.5241 11.191 13.6047 11.6089 12.936C11.8179 12.6017 12.1522 12.351 12.5283 12.1838C13.197 11.8913 13.9492 11.8077 14.6597 11.6823C16.0806 11.4733 17.5015 11.2644 18.797 10.6375C19.6746 10.2196 20.5104 9.67633 21.0537 8.8823C21.2209 8.58976 21.388 8.29723 21.4298 7.9629C21.9313 5.83155 22.391 3.742 22.8507 1.61066C22.9343 0.983792 23.4358 0.52409 24.0627 0.356926ZM7.26267 0.356926C7.51342 0.273344 7.76416 0.315136 8.0567 0.315136C9.39401 0.315136 10.7731 0.315136 12.1104 0.315136C12.6955 0.315136 13.1552 0.900211 13.0298 1.48529C12.5283 3.742 12.0269 5.95693 11.5254 8.17185C11.3582 8.92409 10.606 9.42558 9.85372 9.42558C8.47461 9.42558 7.05372 9.42558 5.67461 9.42558C5.29849 9.42558 4.88058 9.25842 4.67163 8.92409C4.50446 8.67334 4.50446 8.38081 4.58805 8.08827C5.04775 5.99872 5.50745 3.90916 6.00894 1.81961C6.05073 1.61066 6.09252 1.4017 6.17611 1.23454C6.38506 0.81663 6.80297 0.52409 7.26267 0.356926Z" fill="white"/>
<path id="Vector_2" d="M96.9045 21.3364C98.3672 21.3364 99.8299 21.3364 101.293 21.3364C101.251 21.6707 101.167 22.0051 101.084 22.3812C99.9971 22.3812 98.9523 22.3812 97.8657 22.3812C97.7404 22.9245 97.6568 23.4677 97.5314 24.011C98.5344 24.011 99.5792 24.011 100.582 24.011C100.499 24.3454 100.457 24.7215 100.373 25.0558C99.3284 25.0558 98.3254 25.0558 97.2807 25.0558C97.1553 25.5991 97.0717 26.1842 96.9463 26.7275C98.0329 26.7275 99.1195 26.7275 100.248 26.7275C100.164 27.0618 100.122 27.3961 100.039 27.7304C98.5762 27.7304 97.0717 27.7304 95.609 27.7304C96.0687 25.6409 96.5284 23.5095 96.9045 21.3364ZM72.0389 27.7722C72.4568 25.6409 72.8747 23.5095 73.3344 21.3782C73.7523 21.3782 74.1702 21.3782 74.5881 21.3782C75.006 23.008 75.3822 24.6379 75.8001 26.2677C76.8448 24.6379 77.8896 23.008 78.8926 21.42C79.3105 21.42 79.6866 21.42 80.1045 21.42C79.6866 23.5513 79.2687 25.6827 78.809 27.814C78.4329 27.814 78.0568 27.814 77.7225 27.814C78.015 26.3095 78.3075 24.8469 78.6001 23.3424C77.7225 24.8469 76.8448 26.3095 75.9672 27.814C75.6329 27.814 75.2986 27.814 74.9642 27.814C74.6717 26.3095 74.3792 24.8469 74.0866 23.3424C73.7941 24.8469 73.5016 26.3095 73.209 27.814C72.7493 27.7722 72.3732 27.7722 72.0389 27.7722ZM48.8448 27.7722C50.1822 25.6409 51.5195 23.5095 52.8568 21.3364C53.2747 21.3364 53.6926 21.3364 54.1523 21.3364C54.6538 23.4677 55.1553 25.5991 55.6568 27.7722C55.2389 27.7722 54.821 27.7722 54.4448 27.7722C54.3195 27.1872 54.1941 26.6021 54.0687 26.017C53.3583 26.017 52.6478 26.017 51.9374 26.017C52.1463 25.6827 52.3553 25.3483 52.5225 25.014C52.9404 25.014 53.4001 25.014 53.818 25.014C53.6508 24.22 53.4836 23.426 53.2747 22.6319C52.9404 23.0916 52.6896 23.5931 52.3553 24.0946C51.6031 25.3066 50.8508 26.5603 50.1404 27.7722C49.6807 27.7722 49.2628 27.7722 48.8448 27.7722ZM118.552 21.6707C119.806 21.1274 121.269 21.211 122.564 21.5872C122.481 21.9633 122.439 22.2976 122.355 22.6737C121.394 22.3394 120.349 22.214 119.346 22.4648C118.928 22.5901 118.552 22.9663 118.552 23.426C118.511 23.6349 118.636 23.9274 118.887 23.9692C119.555 24.0528 120.266 23.9274 120.934 24.0946C121.269 24.1782 121.603 24.3036 121.812 24.6379C122.021 24.9304 122.021 25.2648 121.979 25.5991C121.937 26.1424 121.687 26.6857 121.311 27.1036C120.851 27.5215 120.266 27.7722 119.639 27.814C118.678 27.9394 117.675 27.814 116.755 27.5633C116.839 27.1872 116.881 26.8528 116.964 26.4767C117.675 26.7274 118.427 26.8528 119.179 26.811C119.513 26.811 119.89 26.7692 120.182 26.6021C120.516 26.3931 120.767 26.0588 120.767 25.6409C120.767 25.4319 120.6 25.223 120.391 25.1812C119.681 25.014 118.97 25.223 118.26 25.0558C117.842 24.9722 117.466 24.6797 117.382 24.3036C117.173 23.2588 117.675 22.1304 118.552 21.6707ZM31.0419 21.3782C32.003 21.211 32.9642 21.2946 33.8836 21.5872C33.8001 21.9633 33.7165 22.2976 33.6747 22.6737C32.8807 22.3394 31.9613 22.214 31.0836 22.423C30.6239 22.5483 30.1642 22.7573 29.8299 23.0916C29.2866 23.6767 29.1195 24.5125 29.1195 25.3066C29.1195 25.7663 29.3284 26.2677 29.7463 26.5185C30.3314 26.8528 31.0419 26.811 31.6687 26.6857C31.7941 26.0588 31.9195 25.4319 32.0448 24.8051C32.421 24.8051 32.8389 24.8051 33.215 24.8051C33.0478 25.6827 32.8807 26.6021 32.6717 27.4797C31.5433 27.8558 30.3314 27.9394 29.2031 27.5633C28.3254 27.3125 27.8239 26.3931 27.8657 25.5155C27.8657 24.4707 28.1583 23.3842 28.7851 22.5483C29.3284 21.9215 30.206 21.5036 31.0419 21.3782ZM6.17618 11.4319C7.012 11.2648 7.84782 11.5991 8.47469 12.1424C8.97618 12.6021 9.22693 13.2289 9.26872 13.8976C9.31051 14.6916 8.97618 15.5275 8.34932 16.0707C7.9732 16.4051 7.47171 16.614 6.92842 16.6976C5.92544 16.823 4.83887 16.3215 4.33738 15.4021C4.00305 14.8588 3.91947 14.1483 4.04484 13.4797C4.25379 12.4767 5.13141 11.5991 6.17618 11.4319Z" fill="white"/>
</g>
</g>
<defs>
<clipPath id="clip0_470_215">
<rect width="127.045" height="28" fill="white" transform="translate(0.241699 0.273438)"/>
</clipPath>
</defs>
</svg>
