<svg width="121" height="29" viewBox="0 0 121 29" fill="none" xmlns="http://www.w3.org/2000/svg">
<g id="live g24" style="mix-blend-mode:luminosity" clip-path="url(#clip0_476_297)">
<path id="Vector" d="M19.3798 18.883L19.2678 27.0506L0.658203 26.7929L0.669409 26.2999C2.27156 26.3223 2.74212 24.8994 2.77573 22.3338L3.03342 3.9595C3.06703 1.66271 2.32757 0.788812 0.725428 0.766404L0.73663 0.273438L9.61006 0.39668L9.59886 0.889647C7.99671 0.867239 6.83151 1.49465 6.7979 4.20598L6.4954 26.3896L7.83986 26.412C11.8284 26.5016 18.1698 26.5576 18.9092 18.883H19.3798ZM29.1831 27.1962L22.9202 27.1066L22.9314 26.6136C24.3543 26.2215 24.4327 25.5381 24.4663 23.6222L24.612 13.1915C24.6344 11.8694 24.3431 11.3428 22.7746 10.9059L22.7858 10.4577L27.9059 9.43816L27.7042 23.667C27.6706 25.7733 27.8499 26.3447 29.1943 26.7033L29.1831 27.1962ZM24.0966 4.32922C24.1078 3.23125 24.9481 2.42457 26.0237 2.43578C27.0656 2.44698 27.9171 3.28726 27.8947 4.38524C27.8835 5.4384 27.0096 6.28989 25.9676 6.27869C24.8921 6.26748 24.0742 5.38238 24.0966 4.32922ZM48.8907 10.0656L48.8795 10.5585C47.4678 10.5361 46.3474 10.5585 44.2971 15.3202L39.5019 27.678H39.1321C32.7348 13.1242 32.2642 12.2167 32.2642 12.2167C31.3567 10.3233 30.3147 10.3457 29.6761 10.3009L29.6873 9.80789L37.4404 9.91993L37.4292 10.4129C34.9307 10.3793 36.2416 13.001 36.2416 13.001L40.7231 23.2749L43.7033 15.5218C43.7033 15.5218 45.7536 10.5361 41.6866 10.4801L41.6978 9.98716L48.8907 10.0656ZM63.7694 23.2301C63.3324 24.9891 61.2485 27.9805 56.8454 27.9133C52.1846 27.8461 48.9243 23.8911 48.9915 18.9166C49.0699 13.3483 52.6215 9.77428 57.2487 9.8415C61.5734 9.89752 64.52 12.7321 64.4416 18.6365L52.5095 18.4685C52.5879 23.555 54.7951 25.6165 57.7417 25.9638C59.9713 26.2215 62.6378 24.8658 63.3436 23.0284L63.7694 23.2301ZM61.2373 18.1099C61.3157 12.6089 58.9181 10.3569 57.1367 10.3345C55.008 10.3009 52.5879 13.2475 52.5207 17.9867L61.2373 18.1099Z" fill="#CFCFCF"/>
<path id="Vector_2" d="M91.678 17.5044L91.6669 17.9973C89.5045 17.9637 89.202 18.3446 89.0788 26.7811C86.7596 27.655 83.5777 28.2824 79.5891 28.2264C71.5336 28.1144 67.3657 21.9523 67.4778 14.4569C67.5786 6.96156 71.9145 0.922699 79.9701 1.03474C84.4852 1.10196 87.0845 1.74058 89.3701 3.30911L88.9555 9.40399L88.1713 9.39279C87.7007 3.09624 84.4068 1.58373 79.9701 1.5165C75.7238 1.46048 72.4411 4.16061 72.2954 14.5129C72.1498 24.8653 75.4325 27.6662 79.6115 27.7222C83.9698 27.7783 85.7736 26.8259 85.8185 23.7001C85.8969 18.0085 85.3815 17.8965 82.9167 17.8629L82.9279 17.3699L91.678 17.5044Z" fill="#E21E19"/>
<path id="Vector_3" d="M107.184 24.238L106.142 27.9913H96.7197L102.467 19.3532C107.699 11.4657 98.1986 9.10166 97.1567 14.4123L96.7646 14.3338C97.0559 9.31453 101.605 9.43777 101.605 9.43777C104.204 9.43777 106.075 11.4209 106.075 13.7849C106.075 15.499 104.955 16.9892 102.927 19.7117C101.683 21.4035 98.8149 25.7169 98.8149 25.7169H104.406C105.291 25.7169 106.254 25.28 106.826 24.238H107.184ZM118.354 22.7031V24.8318C118.354 27.588 119.217 27.644 120.304 27.644V27.9801H113.828V27.644C114.926 27.644 115.777 27.5432 115.777 24.9663V22.7031H108.831V22.3222L117.368 9.57222L118.354 9.67306V21.325H120.875V22.7031H118.354ZM115.777 12.6645L110.646 20.2607C109.918 21.325 110.31 21.325 111.016 21.325H115.777V12.6645Z" fill="#CFCFCF"/>
</g>
<defs>
<clipPath id="clip0_476_297">
<rect width="120.3" height="28" fill="white" transform="translate(0.651367 0.273438)"/>
</clipPath>
</defs>
</svg>
