<svg width="59" height="41" viewBox="0 0 59 41" fill="none" xmlns="http://www.w3.org/2000/svg">
<g id="mascot" clip-path="url(#clip0_469_202)">
<g id="Group">
<path id="Vector" d="M29.4363 11.7168C29.4363 12.4186 29.5442 13.1203 29.7602 13.8221C30.246 13.0124 30.8938 12.3106 31.5955 11.7168C31.5955 10.7452 31.9194 9.7735 32.4592 8.96378C32.999 8.15406 33.8088 7.56027 34.7264 7.1824C34.8884 7.56027 35.2123 7.83018 35.5901 7.99212C35.968 8.15406 36.3998 8.15406 36.7777 8.0461C37.0476 7.93814 37.3175 7.7762 37.5334 7.56027C37.7494 7.34435 37.8573 7.07444 37.9653 6.75055C38.3971 6.58861 38.721 6.31871 38.937 5.94084C39.1529 5.61695 39.2069 5.13112 39.0449 4.69927C38.937 4.26742 38.6131 3.88956 38.2352 3.72761C37.8573 3.51169 37.3715 3.45771 36.9397 3.61965C36.7237 3.40373 36.4538 3.29576 36.1839 3.1878C35.914 3.13382 35.5901 3.13382 35.3202 3.24178C34.9424 3.34974 34.6185 3.61965 34.3486 3.99752C34.1326 4.3214 34.0247 4.75325 34.1326 5.1851C32.7831 5.67093 31.5955 6.53463 30.7318 7.72221C29.8681 8.85582 29.4363 10.3133 29.4363 11.7168Z" fill="white"/>
<path id="Vector_2" d="M41.2581 2.43268H16.4808V11.7714C15.725 12.3652 15.1312 13.067 14.6454 13.8767C14.4295 13.1749 14.3215 12.4732 14.3215 11.7714V0.273438H43.4174V11.7714C43.4174 13.067 43.0935 14.3085 42.3917 15.3881C41.69 16.4678 40.7723 17.3854 39.6387 17.9792C38.5051 18.573 37.2095 18.8429 35.968 18.735C34.6724 18.627 33.4848 18.2491 32.4052 17.4934C32.4592 16.7377 32.7831 16.0359 33.2149 15.3881C33.9167 15.9819 34.7804 16.3598 35.6981 16.5218C36.6157 16.6297 37.5334 16.5218 38.3971 16.1439C39.2608 15.766 39.9626 15.1182 40.4484 14.3625C40.9342 13.6068 41.2041 12.6891 41.2041 11.7714V2.43268H41.2581Z" fill="white"/>
<path id="Vector_3" d="M29.4363 17.8719C29.4363 16.5764 29.7601 15.3348 30.4619 14.2552C31.1097 13.1756 32.0813 12.2579 33.2149 11.6641C34.3485 11.0703 35.6441 10.8004 36.8856 10.9083C38.1812 11.0163 39.3688 11.3942 40.4484 12.1499C40.3944 12.9056 40.0705 13.6074 39.6387 14.2552C39.0989 13.7693 38.4511 13.4455 37.8033 13.2835C37.1016 13.0676 36.3998 13.0676 35.6981 13.1756C34.9963 13.2835 34.3485 13.5534 33.7547 13.9313C33.1609 14.3092 32.6751 14.849 32.2973 15.4428C31.9194 16.0366 31.7035 16.7383 31.6495 17.4401C31.5955 18.1418 31.6495 18.8436 31.9194 19.5453C32.1353 20.1931 32.5132 20.8409 33.053 21.3267C33.5388 21.8125 34.1326 22.2444 34.8344 22.4603C34.9963 22.0824 35.3202 21.8125 35.6981 21.6506C36.0759 21.4886 36.5078 21.4886 36.8856 21.5966C37.1556 21.7046 37.4255 21.8665 37.6414 22.0824C37.8573 22.2984 37.9653 22.5683 38.0732 22.8922C38.5051 23.0001 38.8829 23.324 39.0989 23.7019C39.3148 24.0797 39.3688 24.5656 39.2068 24.9974C39.0989 25.4293 38.775 25.8071 38.3971 26.0231C38.0192 26.239 37.5334 26.293 37.1016 26.131C36.8856 26.3469 36.6157 26.4549 36.3458 26.5629C36.0759 26.6168 35.752 26.6168 35.4821 26.5089C35.1043 26.4009 34.7804 26.131 34.5645 25.7532C34.3485 25.4293 34.2406 24.9974 34.3485 24.5656C32.999 24.0797 31.8114 23.1621 31.0017 21.9745C29.8681 20.7329 29.4363 19.3294 29.4363 17.8719ZM28.3026 17.8719C28.3026 17.1702 28.1947 16.4684 27.9788 15.7666C27.4929 16.5764 26.8452 17.2781 26.1434 17.8719C26.1434 18.8436 25.8195 19.8152 25.2797 20.6249C24.7399 21.4347 23.9302 22.0285 23.0125 22.4063C22.8506 22.0285 22.5267 21.7585 22.1488 21.5966C21.7709 21.4347 21.3391 21.4347 20.9612 21.5426C20.6913 21.6506 20.4214 21.8125 20.2055 22.0285C19.9896 22.2444 19.8816 22.5143 19.7736 22.8382C19.5577 22.8922 19.3418 23.0001 19.1798 23.1621C19.0179 23.324 18.856 23.4859 18.748 23.7019C18.64 23.9178 18.586 24.1337 18.586 24.3496C18.586 24.5656 18.586 24.7815 18.64 24.9974C18.694 25.2133 18.802 25.4293 18.9639 25.5912C19.1259 25.7532 19.2878 25.9151 19.5037 26.0231C19.7197 26.131 19.9356 26.185 20.1515 26.185C20.3674 26.185 20.5833 26.185 20.7993 26.131C21.0152 26.3469 21.2851 26.4549 21.555 26.5629C21.8249 26.6168 22.1488 26.6168 22.4187 26.5089C22.7966 26.4009 23.1205 26.131 23.3904 25.7532C23.6063 25.4293 23.7143 24.9974 23.6063 24.5656C24.9558 24.0797 26.1434 23.1621 27.0071 22.0285C27.8708 20.7329 28.3026 19.3294 28.3026 17.8719ZM28.3026 11.7181C28.3026 10.2606 27.8708 8.85706 27.0071 7.66948C26.1974 6.53588 25.0098 5.6182 23.6063 5.13237C23.6603 4.70052 23.6063 4.32265 23.3904 3.94478C23.1744 3.56692 22.8506 3.35099 22.4187 3.18905C22.1488 3.08109 21.8249 3.08109 21.555 3.13507C21.2851 3.18905 21.0152 3.35099 20.7453 3.51293C20.3134 3.40497 19.8276 3.40497 19.4497 3.6209C19.0719 3.83682 18.748 4.21469 18.64 4.59256C18.5321 5.02441 18.5321 5.51024 18.748 5.8881C18.9639 6.26597 19.2878 6.58986 19.7197 6.69782C19.7736 7.02171 19.9896 7.34559 20.2595 7.6155C20.5294 7.83142 20.8533 7.99337 21.2311 8.04735C21.609 8.10133 21.9329 7.99337 22.2568 7.83142C22.5807 7.66948 22.7966 7.39957 22.9585 7.07569C23.6063 7.34559 24.2001 7.72346 24.7399 8.20929C25.2797 8.69512 25.6036 9.34289 25.8735 9.99067C26.0894 10.6384 26.1974 11.3402 26.1434 12.0959C26.0894 12.7977 25.8735 13.4994 25.4956 14.0932C25.1178 14.687 24.6319 15.2268 24.0381 15.6047C23.4443 15.9826 22.7966 16.2525 22.0948 16.3604C21.3931 16.4684 20.6913 16.4144 19.9896 16.2525C19.2878 16.0366 18.694 15.7127 18.1542 15.2808C17.6684 15.8746 17.3985 16.6303 17.3445 17.3861C18.3701 18.1418 19.6117 18.5737 20.9072 18.6276C22.2028 18.7356 23.4443 18.4657 24.578 17.8719C25.6576 17.3321 26.6292 16.4684 27.277 15.3888C27.9248 14.2552 28.3026 13.0136 28.3026 11.7181Z" fill="white"/>
<path id="Vector_4" d="M14.3215 17.8716C14.3215 16.5761 14.6454 15.3345 15.3471 14.2549C15.9949 13.1753 16.9665 12.2576 18.1001 11.6638C19.2337 11.07 20.5293 10.8001 21.7709 10.9081C23.0664 11.016 24.254 11.3939 25.3336 12.1496C25.2796 12.9054 24.9557 13.6071 24.5239 14.2549C23.8221 13.6611 22.9584 13.2832 22.0408 13.1213C21.1231 13.0133 20.2054 13.1213 19.3417 13.4992C18.478 13.877 17.7763 14.5248 17.2904 15.2805C16.8046 16.0363 16.5347 16.9539 16.5347 17.8716V27.2104H41.312V17.8716C42.0678 17.2778 42.6615 16.5761 43.1474 15.7664C43.3633 16.4681 43.4713 17.1699 43.4713 17.8716V29.9094H14.3215V17.8716ZM0.286377 35.4695H1.79785L2.82349 38.4384L3.90311 35.4695H5.41458V40.0039H4.38894V36.4951L3.20136 40.0039H2.44562L1.31202 36.4951V40.0039H0.286377V35.4695ZM7.84373 35.4695H8.65345L10.6508 40.0039H9.51715L9.13928 39.0322H7.3579L6.98003 40.0039H5.84643L7.84373 35.4695ZM8.27558 36.819L7.73577 38.2225H8.86937L8.27558 36.819ZM13.4038 36.6031C13.2958 36.4951 13.1879 36.4411 13.0799 36.3871C12.9719 36.3332 12.81 36.3332 12.702 36.3332H12.4861C12.4321 36.3332 12.3242 36.3871 12.2702 36.4411L12.1082 36.6031C12.0543 36.657 12.0543 36.765 12.0543 36.819C12.0543 36.873 12.0543 36.927 12.1082 36.9809C12.1082 37.0349 12.1622 37.0889 12.2162 37.1429C12.3242 37.1969 12.4861 37.3048 12.5941 37.3048L13.0799 37.4668C13.2418 37.5207 13.4038 37.5747 13.5657 37.6827C13.7277 37.7907 13.8356 37.8986 13.9436 38.0606C14.0516 38.2765 14.1055 38.4924 14.1055 38.7083C14.1055 38.9243 14.0516 39.1402 13.9436 39.3561C13.8356 39.518 13.7277 39.68 13.5657 39.8419C13.4038 39.9499 13.1879 40.0579 13.0259 40.1118C12.81 40.1658 12.5941 40.2198 12.3781 40.2198C12.1082 40.2198 11.8383 40.1658 11.5684 40.0579C11.2985 39.9499 11.0826 39.788 10.8667 39.626L11.5684 38.8163C11.6764 38.9782 11.7844 39.0862 11.9463 39.1402C12.1082 39.1942 12.2702 39.2481 12.4321 39.2481C12.5401 39.2481 12.5941 39.2481 12.702 39.1942C12.756 39.1942 12.864 39.1402 12.918 39.0862L13.0799 38.9243C13.1339 38.8703 13.1339 38.7623 13.1339 38.7083C13.1339 38.6543 13.1339 38.6004 13.0799 38.5464C13.0259 38.4924 13.0259 38.4384 12.9719 38.3844C12.864 38.2765 12.702 38.2225 12.5941 38.1685C12.4321 38.1145 12.2702 38.0606 12.0543 38.0066C11.8923 37.9526 11.6764 37.8986 11.5144 37.7907C11.3525 37.6827 11.2445 37.5747 11.1366 37.4128C11.0286 37.2508 10.9746 37.0349 10.9746 36.819C10.9746 36.6031 11.0286 36.3871 11.1366 36.1712C11.2445 36.0093 11.3525 35.8473 11.5144 35.6854C11.6764 35.5774 11.8923 35.4695 12.0543 35.4155C12.2702 35.3615 12.4861 35.3075 12.702 35.3075C12.9719 35.3075 13.1879 35.3615 13.4578 35.4155C13.6737 35.4695 13.9436 35.6314 14.1055 35.7934L13.4038 36.6031ZM17.8302 36.657C17.7223 36.5491 17.6143 36.4411 17.4524 36.3871C17.2904 36.3332 17.1285 36.2792 16.9665 36.2792C16.8046 36.2792 16.5887 36.3332 16.4267 36.3871C16.2648 36.4411 16.1028 36.5491 15.9949 36.711C15.8869 36.873 15.779 36.9809 15.725 37.1969C15.671 37.3588 15.617 37.5747 15.617 37.7907C15.617 38.0066 15.671 38.1685 15.725 38.3844C15.779 38.5464 15.8869 38.7083 15.9949 38.8703C16.1028 38.9782 16.2648 39.0862 16.4267 39.1942C16.5887 39.2481 16.7506 39.3021 16.9126 39.3021C17.1285 39.3021 17.2904 39.2481 17.4524 39.1942C17.6143 39.0862 17.7223 38.9782 17.8302 38.8163L18.6939 39.4641C18.532 39.734 18.2621 39.9499 17.9382 40.0579C17.6683 40.1658 17.3444 40.2738 17.0205 40.2738C16.6966 40.2738 16.3188 40.2198 16.0489 40.1118C15.779 40.0039 15.509 39.8419 15.2931 39.626C15.0772 39.4101 14.9153 39.1402 14.8073 38.8703C14.5374 38.2225 14.5374 37.5207 14.8073 36.873C14.9153 36.6031 15.0772 36.3332 15.2931 36.1172C15.509 35.9013 15.779 35.7394 16.0489 35.6314C16.3727 35.5234 16.6966 35.4695 17.0205 35.4695C17.1285 35.4695 17.2904 35.4695 17.3984 35.5234C17.5603 35.5234 17.6683 35.5774 17.8302 35.6314C17.9922 35.6854 18.1001 35.7394 18.2081 35.8473L18.532 36.1712L17.8302 36.657ZM19.0178 37.7367C19.0178 37.4128 19.0718 37.0349 19.1798 36.765C19.2877 36.4951 19.4497 36.2252 19.6656 36.0093C19.8815 35.7933 20.1514 35.6314 20.4213 35.5234C21.0691 35.3075 21.7709 35.3075 22.4186 35.5234C22.6885 35.6314 22.9584 35.7933 23.1744 36.0093C23.3903 36.2252 23.5522 36.4951 23.6602 36.765C23.9301 37.4128 23.9301 38.1145 23.6602 38.7623C23.5522 39.0322 23.3903 39.3021 23.1744 39.518C22.9584 39.734 22.6885 39.8959 22.4186 40.0039C21.7709 40.2198 21.0691 40.2198 20.4213 40.0039C20.1514 39.8959 19.8815 39.734 19.6656 39.518C19.4497 39.3021 19.2877 39.0322 19.1798 38.7623C19.0718 38.4384 19.0178 38.1145 19.0178 37.7367ZM20.0435 37.7367C20.0435 37.9526 20.0974 38.1145 20.1514 38.3305C20.2054 38.4924 20.3134 38.6543 20.4213 38.8163C20.5293 38.9243 20.6912 39.0322 20.8532 39.1402C21.231 39.3021 21.6629 39.3021 21.9868 39.1402C22.1487 39.0862 22.3107 38.9782 22.4186 38.8163C22.5266 38.7083 22.6346 38.5464 22.6885 38.3305C22.7425 38.1685 22.7965 37.9526 22.7965 37.7367C22.7965 37.5207 22.7425 37.3588 22.6885 37.1429C22.6346 36.9809 22.5266 36.819 22.4186 36.657C22.3107 36.5491 22.1487 36.4411 21.9868 36.3332C21.6089 36.1712 21.1771 36.1712 20.8532 36.3332C20.6912 36.3871 20.5293 36.4951 20.4213 36.657C20.3134 36.765 20.2054 36.927 20.1514 37.1429C20.0974 37.3588 20.0435 37.5747 20.0435 37.7367ZM25.4956 36.3871H24.2V35.5234H27.8167V36.3871H26.5212V40.0579H25.4956V36.3871ZM34.3485 39.734C34.0785 39.8959 33.7547 40.0039 33.4308 40.0579C33.1069 40.1118 32.783 40.1658 32.4591 40.1658C32.1352 40.1658 31.8113 40.1118 31.4875 40.0039C31.2176 39.8959 30.9476 39.734 30.7317 39.518C30.5158 39.3021 30.3539 39.0322 30.2459 38.7623C29.976 38.1145 29.976 37.4128 30.2459 36.765C30.3539 36.4951 30.5158 36.2252 30.7317 36.0093C30.9476 35.7933 31.2176 35.6314 31.4875 35.5234C31.8113 35.4155 32.1352 35.3615 32.4591 35.3615C32.783 35.3615 33.1609 35.4155 33.4848 35.4695C33.8086 35.5774 34.0785 35.6854 34.2945 35.9013L33.5927 36.657C33.4848 36.4951 33.3228 36.3871 33.1069 36.3332C32.891 36.2792 32.675 36.2252 32.4591 36.2252C32.2432 36.2252 32.0812 36.2792 31.8653 36.3332C31.7034 36.3871 31.5414 36.4951 31.4335 36.657C31.3255 36.765 31.2176 36.927 31.1636 37.1429C31.1096 37.3048 31.0556 37.5207 31.0556 37.7367C31.0556 37.9526 31.1096 38.1145 31.1636 38.3305C31.2176 38.4924 31.3255 38.6543 31.4335 38.8163C31.5414 38.9243 31.7034 39.0322 31.8653 39.1402C32.0273 39.1942 32.2432 39.2481 32.4591 39.2481C32.675 39.2481 32.837 39.2481 33.0529 39.1942C33.1609 39.1402 33.3228 39.0862 33.4308 39.0322V38.2765H32.6211V37.3588H34.4024V39.734H34.3485ZM36.7236 35.4695H37.5333L39.5306 40.0039H38.397L38.0192 39.0322H36.2378L35.8599 40.0039H34.7263L36.7236 35.4695ZM37.1015 36.819L36.5617 38.2225H37.6953L37.1015 36.819ZM39.9625 35.4695H41.474L42.4996 38.4384L43.5792 35.4695H45.0907V40.0039H44.0651V36.4951L42.9315 40.0579H42.1757L41.0421 36.5491V40.0579H40.0165L39.9625 35.4695ZM46.0624 35.4695H47.088V40.0039H46.0624V35.4695ZM47.9517 35.4695H49.3012L51.2445 38.6543V35.4695H52.2702V40.0039H50.9746L48.9773 36.765V40.0039H47.9517V35.4695ZM57.3444 39.734C57.0745 39.8959 56.7506 40.0039 56.4267 40.0579C56.1028 40.1118 55.779 40.1658 55.4551 40.1658C55.1312 40.1658 54.8073 40.1118 54.4834 40.0039C54.2135 39.8959 53.9436 39.734 53.7277 39.518C53.5117 39.3021 53.3498 39.0322 53.2418 38.7623C52.9719 38.1145 52.9719 37.4128 53.2418 36.765C53.3498 36.4951 53.5117 36.2252 53.7277 36.0093C53.9436 35.7933 54.2135 35.6314 54.4834 35.5234C54.8073 35.4155 55.1312 35.3615 55.4551 35.3615C55.779 35.3615 56.1568 35.4155 56.4807 35.4695C56.8046 35.5774 57.0745 35.6854 57.2904 35.9013L56.5887 36.657C56.4807 36.4951 56.3188 36.3871 56.1028 36.3332C55.8869 36.2792 55.671 36.2252 55.4551 36.2252C55.2391 36.2252 55.0772 36.2792 54.8613 36.3332C54.6993 36.3871 54.5374 36.4951 54.4294 36.657C54.3215 36.765 54.2135 36.927 54.1595 37.1429C54.1055 37.3048 54.0516 37.5207 54.0516 37.7367C54.0516 37.9526 54.1055 38.1145 54.1595 38.3305C54.2135 38.4924 54.3215 38.6543 54.4294 38.8163C54.5374 38.9243 54.6993 39.0322 54.8613 39.1402C55.0232 39.1942 55.2391 39.2481 55.4551 39.2481C55.671 39.2481 55.8329 39.2481 56.0489 39.1942C56.1568 39.1402 56.3188 39.0862 56.4267 39.0322V38.2765H55.617V37.3588H57.3984V39.734H57.3444Z" fill="white"/>
</g>
</g>
<defs>
<clipPath id="clip0_469_202">
<rect width="58" height="40" fill="white" transform="translate(0.286377 0.273438)"/>
</clipPath>
</defs>
</svg>
