<svg width="90" height="23" viewBox="0 0 90 23" fill="none" xmlns="http://www.w3.org/2000/svg">
<g id="Micrigaming" style="mix-blend-mode:luminosity">
<g id="microgaming-logo-vector 1">
<path id="Vector" d="M11.7595 0.332031C5.70585 0.332031 0.818604 5.23405 0.818604 11.3025C0.818604 12.3804 0.98102 13.4582 1.30585 14.477C1.51256 14.1965 1.70451 13.9159 1.88169 13.6059C2.64948 12.4837 3.38773 11.3616 4.12599 10.2099L4.67229 9.33874C4.84948 9.05821 5.02666 8.76291 5.18907 8.4676C5.54344 7.89176 5.8978 7.30116 6.20787 6.72532C6.37028 6.43002 6.5327 6.14948 6.70988 5.83941C6.88706 5.54411 7.03471 5.26358 7.19713 4.95351C7.35954 4.64344 7.52196 4.34814 7.65485 4.0676L8.0978 3.16693L8.14209 3.10787C8.37834 2.62062 8.96894 2.42868 9.47095 2.65015C9.82532 2.85687 10.0468 3.22599 10.032 3.65418C10.032 4.17096 9.92867 4.71727 9.88438 5.23405C9.84008 5.75083 9.82532 6.29713 9.78102 6.84344C9.73672 7.90653 9.72196 8.99915 9.72196 10.0622C9.72196 11.1253 9.78102 12.1884 9.88438 13.222C9.94344 13.724 10.032 14.226 10.1206 14.728C10.1944 15.171 10.3421 15.6139 10.5488 16.0126C10.6079 16.1307 10.6965 16.2488 10.785 16.3522C10.8441 16.3965 10.7998 16.3669 10.8441 16.3669C10.8884 16.3669 10.8589 16.3669 10.8884 16.3669L10.9327 16.3522H10.9475L11.0065 16.3374C11.0213 16.3226 11.0656 16.2931 11.0803 16.2783C11.2428 16.1602 11.3757 16.0126 11.5233 15.8502C11.8481 15.4663 12.1434 15.0824 12.4092 14.6689C12.6897 14.2408 12.9555 13.783 13.2065 13.3253C13.7233 12.3951 14.2106 11.4502 14.6683 10.4904C14.8897 10.0032 15.126 9.53069 15.3475 9.02868C15.5689 8.54143 15.7904 8.03941 15.9971 7.56693C16.2038 7.06492 16.7797 6.82868 17.2817 7.02062C17.6065 7.13874 17.828 7.41928 17.8871 7.75888C17.8871 7.877 17.9018 8.03941 17.9314 8.20183L17.9904 8.65955C18.0347 8.95485 18.0642 9.26492 18.1381 9.56022C18.2414 10.1656 18.3595 10.771 18.522 11.3468C18.6844 11.9226 18.8763 12.5132 19.1273 13.0743C19.3636 13.6354 19.6736 14.1522 20.0575 14.6394C20.1314 14.7575 20.1166 14.92 20.0132 14.9938C19.9099 15.0676 19.777 15.0676 19.6884 14.9938C19.1864 14.5508 18.7434 14.0488 18.3595 13.5025C17.9757 12.9562 17.6508 12.3804 17.3555 11.7898C17.1488 11.3911 17.0012 10.9924 16.8092 10.579C16.6911 10.8153 16.5877 11.0663 16.4696 11.2877C15.9824 12.277 15.5099 13.2515 14.9488 14.2408C14.6683 14.7575 14.3877 15.2448 14.0629 15.732C13.7381 16.234 13.3837 16.7213 12.9998 17.1642C12.7783 17.43 12.5126 17.6515 12.2616 17.873C12.1877 17.932 12.0991 17.9911 11.9958 18.0354L11.8186 18.1387L11.7152 18.183H11.7005L11.6414 18.1978H11.5971L11.5233 18.2126C11.4642 18.2273 11.4199 18.2569 11.3609 18.2569C11.2428 18.2716 11.1246 18.3012 11.0065 18.3159C10.7408 18.3307 10.4602 18.3012 10.224 18.2126C9.98773 18.124 9.76625 17.9911 9.55954 17.8287C9.26424 17.5629 8.99847 17.2528 8.82129 16.8837C8.54075 16.3226 8.33404 15.7173 8.21592 15.0971C8.0978 14.5361 8.00921 13.9455 7.95015 13.3844C7.83203 12.2622 7.78773 11.1549 7.77297 10.0327C7.77297 9.51593 7.77297 8.96962 7.77297 8.45284C7.56625 8.83673 7.37431 9.22062 7.1676 9.57499C7.00518 9.87029 6.84276 10.1804 6.66558 10.4757L6.16357 11.3763C5.48438 12.5871 4.77565 13.7683 4.0374 14.9495C3.57968 15.7173 3.09243 16.4703 2.60518 17.2233C5.91256 22.2877 12.7045 23.6904 17.7689 20.383C22.8334 17.0757 24.2361 10.2837 20.9287 5.21928C18.8911 2.19243 15.4656 0.332031 11.7595 0.332031Z" fill="url(#paint0_linear_71_102)"/>
<path id="Vector_2" d="M32.1944 15.2303V7.95115H32.0172L29.6843 15.2599H29.1085L26.7756 7.96591H26.5984V15.2451H25.6387V7.21289H27.3514L29.4185 13.6062L31.4414 7.21289H33.1689V15.2746H32.1944V15.2303Z" fill="url(#paint1_linear_71_102)"/>
<path id="Vector_3" d="M34.5715 8.24559V7.19727H35.6199V8.24559H34.5715ZM34.5863 15.2295V9.02814H35.6051V15.2295H34.5863Z" fill="url(#paint2_linear_71_102)"/>
<path id="Vector_4" d="M41.8214 13.2079C41.8214 14.4186 41.3636 15.3341 39.3556 15.3341C36.8308 15.3341 36.6831 13.8871 36.6831 12.1153C36.6831 10.3435 36.8308 8.89648 39.3556 8.89648C41.3636 8.89648 41.8214 9.82668 41.8214 11.0227H40.8616C40.8616 10.0334 40.522 9.56091 39.3556 9.56091C37.7905 9.56091 37.7019 10.4025 37.7019 12.0857C37.7019 13.769 37.7757 14.6106 39.3556 14.6106C40.522 14.6106 40.8616 14.1233 40.8616 13.1488L41.8214 13.2079Z" fill="url(#paint3_linear_71_102)"/>
<path id="Vector_5" d="M43.8146 9.69333C44.3018 9.39803 44.922 8.98461 45.4978 8.96984C45.6159 8.95508 45.7341 8.95508 45.8522 8.95508C46.0146 8.95508 46.1475 8.95508 46.3394 8.96984L46.2656 9.7081C46.1032 9.69333 45.9703 9.69333 45.8226 9.69333C45.7045 9.69333 45.5864 9.69333 45.4388 9.7081C44.8924 9.72286 44.3166 10.1363 43.8884 10.3725V15.2598H42.8696V9.0289H43.6669L43.8146 9.69333Z" fill="url(#paint4_linear_71_102)"/>
<path id="Vector_6" d="M52.083 12.1446C52.083 13.9164 51.9353 15.3634 49.3662 15.3634C46.7971 15.3634 46.6494 13.9164 46.6494 12.1446C46.6494 10.3728 46.7971 8.92578 49.3662 8.92578C51.9353 8.92578 52.083 10.3728 52.083 12.1446ZM47.683 12.1446C47.683 13.8278 47.7568 14.6694 49.3662 14.6694C50.9756 14.6694 51.0494 13.8426 51.0494 12.1446C51.0494 10.4466 50.9756 9.61974 49.3662 9.61974C47.7568 9.61974 47.683 10.4318 47.683 12.1446Z" fill="url(#paint5_linear_71_102)"/>
<path id="Vector_7" d="M53.9581 16.6766C54.342 16.7209 54.8441 16.7357 55.4051 16.7357C56.9702 16.7357 57.1769 16.3075 57.1917 14.6685C56.734 14.9343 56.0843 15.2296 55.4199 15.2444C53.1461 15.2887 53.0132 14.0632 53.0132 12.1289C53.0132 10.1947 53.1313 8.91016 55.3165 8.91016C56.0548 8.91016 56.7488 9.24975 57.2803 9.58935L57.3837 9.02828H58.181V14.5357C58.181 16.7652 57.679 17.4444 55.6266 17.4444C55.0212 17.4444 54.4159 17.3853 53.84 17.2967L53.9581 16.6766ZM57.1917 10.1652C56.7488 9.88465 56.1877 9.60412 55.6414 9.60412C54.1353 9.60412 54.032 10.4457 54.032 12.1289C54.032 13.7826 54.1353 14.5652 55.6414 14.5652C56.1877 14.5652 56.7635 14.2699 57.1917 14.0484V10.1652Z" fill="url(#paint6_linear_71_102)"/>
<path id="Vector_8" d="M63.7623 15.2296L63.659 14.6685C63.1569 14.9934 62.4925 15.3477 61.769 15.3477C59.4952 15.392 59.3623 14.1075 59.3623 12.1289C59.3623 10.1652 59.4804 8.91016 61.7395 8.91016C62.4777 8.91016 63.1422 9.24975 63.6442 9.55982L63.7475 9.01351H64.5449V15.2149H63.7623V15.2296ZM63.5556 10.1357C63.1274 9.89942 62.5516 9.61888 62.0053 9.61888C60.4992 9.61888 60.3959 10.4605 60.3959 12.1437C60.3959 13.8269 60.4992 14.6685 62.0053 14.6685C62.5516 14.6685 63.1126 14.3732 63.5556 14.1075V10.1357Z" fill="url(#paint7_linear_71_102)"/>
<path id="Vector_9" d="M66.7153 9.57417C67.173 9.29363 67.7931 8.95404 68.4575 8.9245C69.5059 8.88021 70.0374 9.16075 70.3032 9.6037C70.7904 9.3084 71.4253 8.93927 72.134 8.9245C74.2602 8.86544 74.4079 9.9433 74.4079 11.4493V15.2292H73.3891V11.5084C73.3891 10.2238 73.3153 9.6037 71.9273 9.6037C71.4253 9.6037 70.9085 9.899 70.4804 10.1648C70.5837 10.6077 70.628 11.0654 70.5985 11.5379V15.2587H69.7126V11.5232C69.7126 10.2386 69.6387 9.61846 68.2508 9.61846C67.7636 9.61846 67.2468 9.91376 66.8481 10.1352V15.244H65.8293V9.04262H66.6267L66.7153 9.57417Z" fill="url(#paint8_linear_71_102)"/>
<path id="Vector_10" d="M75.6628 8.24559V7.19727H76.7112V8.24559H75.6628ZM75.6924 15.2295V9.02814H76.7112V15.2295H75.6924Z" fill="url(#paint9_linear_71_102)"/>
<path id="Vector_11" d="M78.8816 9.57581C79.3836 9.29527 80.0481 8.95567 80.7716 8.92614C83.0454 8.86708 83.1783 9.94493 83.1783 11.451V15.2308H82.1595V11.51C82.1595 10.2255 82.0561 9.60534 80.5501 9.60534C80.0038 9.60534 79.4279 9.90064 78.9997 10.1516V15.2604H77.981V9.02949H78.7783L78.8816 9.57581Z" fill="url(#paint10_linear_71_102)"/>
<path id="Vector_12" d="M85.1715 16.6766C85.5554 16.7209 86.0574 16.7357 86.6185 16.7357C88.1836 16.7357 88.3903 16.3075 88.4051 14.6685C87.9474 14.9343 87.2977 15.2296 86.6333 15.2444C84.3595 15.2887 84.2266 14.0632 84.2266 12.1289C84.2266 10.1947 84.3447 8.91016 86.5299 8.91016C87.2682 8.91016 87.9621 9.24975 88.4937 9.58935L88.597 9.02828H89.3943V14.5357C89.3943 16.7652 88.8923 17.4444 86.84 17.4444C86.2346 17.4444 85.6292 17.3853 85.0534 17.2967L85.1715 16.6766ZM88.3903 10.1652C87.9474 9.88465 87.3863 9.60412 86.84 9.60412C85.3339 9.60412 85.2306 10.4457 85.2306 12.1289C85.2306 13.7826 85.3339 14.5652 86.84 14.5652C87.3863 14.5652 87.9621 14.2699 88.3903 14.0484V10.1652Z" fill="url(#paint11_linear_71_102)"/>
</g>
</g>
<defs>
<linearGradient id="paint0_linear_71_102" x1="-0.887799" y1="14.3086" x2="87.5019" y2="-6.98525" gradientUnits="userSpaceOnUse">
<stop stop-color="#21E418"/>
<stop offset="0.3" stop-color="#31B6E9"/>
<stop offset="0.9757" stop-color="#21E418"/>
</linearGradient>
<linearGradient id="paint1_linear_71_102" x1="0.0716163" y1="18.2917" x2="88.4613" y2="-3.00221" gradientUnits="userSpaceOnUse">
<stop stop-color="#21E418"/>
<stop offset="0.3" stop-color="#31B6E9"/>
<stop offset="0.9757" stop-color="#21E418"/>
</linearGradient>
<linearGradient id="paint2_linear_71_102" x1="0.381709" y1="19.5781" x2="88.7714" y2="-1.71582" gradientUnits="userSpaceOnUse">
<stop stop-color="#21E418"/>
<stop offset="0.3" stop-color="#31B6E9"/>
<stop offset="0.9757" stop-color="#21E418"/>
</linearGradient>
<linearGradient id="paint3_linear_71_102" x1="0.821044" y1="21.4023" x2="89.2108" y2="0.108469" gradientUnits="userSpaceOnUse">
<stop stop-color="#21E418"/>
<stop offset="0.3" stop-color="#31B6E9"/>
<stop offset="0.9757" stop-color="#21E418"/>
</linearGradient>
<linearGradient id="paint4_linear_71_102" x1="1.04674" y1="22.339" x2="89.4365" y2="1.04514" gradientUnits="userSpaceOnUse">
<stop stop-color="#21E418"/>
<stop offset="0.3" stop-color="#31B6E9"/>
<stop offset="0.9757" stop-color="#21E418"/>
</linearGradient>
<linearGradient id="paint5_linear_71_102" x1="1.3756" y1="23.7046" x2="89.7653" y2="2.41073" gradientUnits="userSpaceOnUse">
<stop stop-color="#21E418"/>
<stop offset="0.3" stop-color="#31B6E9"/>
<stop offset="0.9757" stop-color="#21E418"/>
</linearGradient>
<linearGradient id="paint6_linear_71_102" x1="1.95588" y1="26.1124" x2="90.3456" y2="4.8185" gradientUnits="userSpaceOnUse">
<stop stop-color="#21E418"/>
<stop offset="0.3" stop-color="#31B6E9"/>
<stop offset="0.9757" stop-color="#21E418"/>
</linearGradient>
<linearGradient id="paint7_linear_71_102" x1="2.10211" y1="26.7189" x2="90.4918" y2="5.42505" gradientUnits="userSpaceOnUse">
<stop stop-color="#21E418"/>
<stop offset="0.3" stop-color="#31B6E9"/>
<stop offset="0.9757" stop-color="#21E418"/>
</linearGradient>
<linearGradient id="paint8_linear_71_102" x1="2.51058" y1="28.4143" x2="90.9003" y2="7.12036" gradientUnits="userSpaceOnUse">
<stop stop-color="#21E418"/>
<stop offset="0.3" stop-color="#31B6E9"/>
<stop offset="0.9757" stop-color="#21E418"/>
</linearGradient>
<linearGradient id="paint9_linear_71_102" x1="2.63622" y1="28.9366" x2="91.026" y2="7.64266" gradientUnits="userSpaceOnUse">
<stop stop-color="#21E418"/>
<stop offset="0.3" stop-color="#31B6E9"/>
<stop offset="0.9757" stop-color="#21E418"/>
</linearGradient>
<linearGradient id="paint10_linear_71_102" x1="3.08522" y1="30.8013" x2="91.4749" y2="9.5074" gradientUnits="userSpaceOnUse">
<stop stop-color="#21E418"/>
<stop offset="0.3" stop-color="#31B6E9"/>
<stop offset="0.9757" stop-color="#21E418"/>
</linearGradient>
<linearGradient id="paint11_linear_71_102" x1="3.66824" y1="33.2205" x2="92.058" y2="11.9266" gradientUnits="userSpaceOnUse">
<stop stop-color="#21E418"/>
<stop offset="0.3" stop-color="#31B6E9"/>
<stop offset="0.9757" stop-color="#21E418"/>
</linearGradient>
</defs>
</svg>
