<svg width="79" height="29" viewBox="0 0 79 29" fill="none" xmlns="http://www.w3.org/2000/svg">
<g id="Netent" style="mix-blend-mode:luminosity">
<path id="Vector" d="M41.643 0.273438H40.8606V27.7049H41.643V22.4105H51.6297V19.2232H43.96V15.5537H50.5159V12.336H43.96V8.75588H51.6297V5.53822H41.643V0.273438Z" fill="#77BD1F"/>
<path id="Vector_2" d="M10.5404 15.8851L7.71244 11.3133L4.04288 5.59895L4.01255 5.53906H1.00488V22.4114H4.3431V12.0662L6.84055 16.0966L10.8702 22.4114H13.909V5.53906H10.5404V15.8851Z" fill="white"/>
<path id="Vector_3" d="M15.8044 22.4114H26.8419V19.2241H19.1427V15.5545H25.7297V12.3368H19.1427V8.75673H26.8419V5.53906H15.8044V22.4114Z" fill="white"/>
<path id="Vector_4" d="M28.196 8.78706H32.0764V22.4114H35.4449V8.78706H39.2662V5.53906H28.196V8.78706Z" fill="white"/>
<path id="Vector_5" d="M62.8484 15.9132L60.0212 11.3414L56.382 5.6263L56.3213 5.56641H53.3145V22.4411H56.6527V12.064L59.1486 16.1232L63.179 22.4411H66.2178V5.56641H62.8484V15.9132Z" fill="#77BD1F"/>
<path id="Vector_6" d="M67.6013 5.56641V8.81441H71.4505V22.4411H74.8207V8.81441H78.6699V5.56641H67.6013Z" fill="#77BD1F"/>
</g>
</svg>
