<svg width="104" height="29" viewBox="0 0 104 29" fill="none" xmlns="http://www.w3.org/2000/svg">
<g id="nolimit" style="mix-blend-mode:luminosity" clip-path="url(#clip0_461_452)">
<g id="&#208;&#161;&#208;&#187;&#208;&#190;&#208;&#185; 2">
<g id="&#208;&#161;&#208;&#187;&#208;&#190;&#208;&#185; 1">
<path id="Vector" d="M24.9458 27.9581C24.9458 27.9581 24.9128 27.9214 24.8907 27.9177C23.6827 27.7268 23.0548 26.9557 22.93 25.8101C22.8579 25.2361 22.8814 24.6542 22.9997 24.0879C23.3008 22.7367 24.4868 22.006 25.9372 22.2263C26.3513 22.3127 26.7607 22.4206 27.1636 22.5494L26.7964 23.5335C26.4733 23.427 26.1759 23.3058 25.8711 23.2324C25.7077 23.1843 25.5363 23.1692 25.3669 23.1879C25.1976 23.2067 25.0337 23.2589 24.8847 23.3416C24.7357 23.4243 24.6047 23.5358 24.4992 23.6696C24.3937 23.8034 24.3158 23.9568 24.2702 24.121C24.0707 24.7144 24.0541 25.354 24.2225 25.9569C24.2566 26.1272 24.3248 26.2887 24.423 26.4319C24.5211 26.5751 24.6472 26.697 24.7936 26.7903C24.9401 26.8836 25.1038 26.9463 25.2751 26.9747C25.4464 27.0031 25.6216 26.9967 25.7903 26.9557C26.1575 26.9006 26.5247 26.8015 26.9543 26.7097C26.9543 26.9997 26.9543 27.2898 26.9543 27.5762C26.9543 27.6423 26.8221 27.7268 26.734 27.7562C26.466 27.8406 26.1869 27.903 25.9152 27.9728L24.9458 27.9581Z" fill="#767676"/>
<path id="Vector_2" d="M58.1321 7.3548C58.2459 6.79667 58.323 6.22019 58.4809 5.67308C59.1161 3.51769 60.3168 1.79558 62.52 1.04652C65.5126 0.0330777 68.1233 0.679328 70.0547 3.18355C70.3411 3.55073 70.3484 3.55073 70.6532 3.18355C71.8098 1.7662 73.2235 0.807843 75.0998 0.638937C78.4449 0.326828 81.0556 2.05628 82.0617 5.2655C82.249 5.87136 82.3297 6.51027 82.4693 7.13448C82.517 7.35847 82.4325 7.43925 82.2122 7.43925C81.3457 7.43925 80.4791 7.43925 79.6125 7.43925C79.3959 7.43925 79.3408 7.33644 79.3004 7.1455C79.2134 6.66235 79.0831 6.188 78.9112 5.72816C78.309 4.34019 76.9945 3.65355 75.3532 3.80777C73.3814 3.99503 72.2064 5.12597 71.9493 7.11245C71.9126 7.3805 71.8172 7.47964 71.5418 7.47964C70.7486 7.47964 69.9518 7.45761 69.155 7.47964C68.8393 7.47964 68.7218 7.38784 68.674 7.07573C68.5663 6.14043 68.132 5.27314 67.4476 4.62659C65.6741 3.01831 62.5897 3.74902 61.6754 5.9962C61.5397 6.37374 61.4353 6.76183 61.3633 7.15652C61.3266 7.32175 61.3009 7.45394 61.0879 7.45027H58.345C58.2706 7.42681 58.1991 7.39477 58.1321 7.3548Z" fill="#767676"/>
<path id="Vector_3" d="M18.7035 8.2991C19.0119 8.2991 19.3204 8.2991 19.6288 8.2991C20.3632 8.2991 20.2567 8.22933 20.2677 8.91597C20.2496 9.6528 20.3885 10.3851 20.6753 11.064C20.9563 11.723 21.4028 12.2981 21.9715 12.7336C22.5402 13.1692 23.2118 13.4503 23.9212 13.5499C25.0593 13.7814 26.2412 13.653 27.303 13.1827C28.0653 12.8534 28.7146 12.3086 29.1713 11.6151C29.628 10.9216 29.872 10.1098 29.8733 9.27949C29.888 9.06677 29.888 8.8533 29.8733 8.64058C29.8733 8.38355 29.9688 8.31011 30.2075 8.31379C31.052 8.31379 31.8965 8.31379 32.7411 8.31379C32.9614 8.31379 33.0605 8.38722 33.0679 8.61855C33.1266 10.9943 32.5024 13.1203 30.7693 14.8277C29.7038 15.8443 28.3414 16.494 26.8808 16.682C25.2498 16.9806 23.5702 16.8683 21.9935 16.3552C19.3277 15.4042 17.859 13.403 17.2641 10.7336C17.1557 10.0042 17.1017 9.26779 17.1025 8.53043C17.1025 8.31379 17.2054 8.26605 17.3853 8.26972L18.7035 8.2991Z" fill="#767676"/>
<path id="Vector_4" d="M31.4448 7.43581C31.0409 7.43581 30.637 7.43581 30.2331 7.43581C29.9944 7.43581 29.8659 7.36972 29.8145 7.11636C29.3959 4.94995 27.6812 4.00261 25.9076 3.81167C24.9383 3.68925 23.954 3.77691 23.0215 4.0687C22.3345 4.27347 21.718 4.6652 21.2407 5.20014C20.7635 5.73509 20.4444 6.39217 20.319 7.098C20.2676 7.34769 20.1758 7.42847 19.9262 7.4248C19.0963 7.4248 18.2628 7.4248 17.4293 7.4248C17.2383 7.4248 17.0621 7.4248 17.1172 7.14206C17.4844 5.02706 18.3766 3.22417 20.1722 1.95738C21.4746 1.08034 23.0082 0.610024 24.5784 0.606126C26.1356 0.497342 27.6947 0.790687 29.1058 1.458C31.2576 2.55956 32.4105 4.36613 32.9319 6.6537C33.1045 7.43214 33.0898 7.43581 32.304 7.43581H31.4448Z" fill="#767676"/>
<path id="Vector_5" d="M4.43828 0.687031C5.37828 0.687031 6.31828 0.687031 7.25461 0.687031C9.94609 0.705391 12.6486 2.545 13.4527 4.97211C13.64 5.66787 13.7786 6.3758 13.8677 7.09078C13.9154 7.3625 13.7795 7.45797 13.5225 7.43961C12.6927 7.43961 11.8591 7.43961 11.0256 7.43961C10.831 7.43961 10.6915 7.42125 10.6768 7.16055C10.5703 5.19977 9.39164 3.83383 7.04898 3.78242C6.21547 3.78242 5.38195 3.78242 4.55211 3.78242C4.22164 3.78242 4.11883 3.91094 4.12617 4.22672C4.12617 5.17773 4.12617 6.12508 4.12617 7.07609C4.12617 7.34781 4.04172 7.44328 3.75898 7.44328C2.94016 7.44328 2.11766 7.44328 1.29883 7.44328C1.03813 7.44328 0.931641 7.34781 0.931641 7.07609C0.95612 5.05411 0.968359 3.02846 0.968359 0.999141C0.968359 0.738438 1.06383 0.679688 1.3025 0.679688C2.34898 0.690703 3.39547 0.687031 4.43828 0.687031Z" fill="#767676"/>
<path id="Vector_6" d="M41.55 16.7875C40.0556 16.7875 38.5575 16.7875 37.0593 16.7875C36.7362 16.7875 36.6297 16.6994 36.6334 16.3652C36.6334 13.7949 36.6334 11.2246 36.6334 8.6543C36.6334 8.37891 36.7032 8.28711 37.0006 8.28711C37.8084 8.28711 38.6162 8.28711 39.424 8.28711C39.7288 8.28711 39.7912 8.39359 39.7912 8.67633C39.7912 10.1855 39.7912 11.6909 39.7912 13.1964C39.7912 13.5452 39.8977 13.6407 40.2355 13.637C42.1743 13.637 44.1093 13.637 46.0481 13.637C46.4153 13.637 46.5144 13.7398 46.4997 14.0997C46.474 14.8671 46.4777 15.6382 46.4997 16.4093C46.4997 16.7324 46.3896 16.8169 46.0848 16.8132C44.5683 16.7802 43.0592 16.7875 41.55 16.7875Z" fill="#767676"/>
<path id="Vector_7" d="M98.5081 0.614388C100.124 0.614388 101.739 0.614388 103.355 0.614388C103.689 0.614388 103.788 0.717201 103.781 1.044C103.759 1.80408 103.781 2.56415 103.781 3.32056C103.781 3.77954 103.781 3.78689 103.329 3.78689C102.415 3.78689 101.493 3.78689 100.586 3.78689C100.252 3.78689 100.127 3.87134 100.135 4.22751C100.16 5.17486 100.135 6.12587 100.135 7.07322C100.135 7.37064 100.032 7.46244 99.7418 7.4404C98.934 7.42082 98.1262 7.42082 97.3184 7.4404C97.0283 7.4404 96.9512 7.33392 96.9512 7.07322C96.9512 6.11119 96.9512 5.14915 96.9512 4.19079C96.9512 3.88236 96.8484 3.77587 96.54 3.77954C95.5412 3.77954 94.5425 3.77954 93.5437 3.77954C93.2683 3.77954 93.1765 3.70244 93.1765 3.41236C93.1936 2.61923 93.1936 1.82488 93.1765 1.02931C93.1765 0.702513 93.2683 0.596029 93.6025 0.599701C95.2511 0.621732 96.8778 0.614388 98.5081 0.614388Z" fill="#767676"/>
<path id="Vector_8" d="M82.5061 12.5434C82.5061 13.8359 82.5061 15.1137 82.5061 16.4246C82.5061 16.7 82.4363 16.7917 82.1389 16.7917C81.32 16.7917 80.4975 16.7917 79.6787 16.7917C79.3666 16.7917 79.3115 16.6706 79.3115 16.3915C79.3115 13.8188 79.3115 11.2484 79.3115 8.68058C79.3115 8.39417 79.385 8.28401 79.6787 8.29136C80.4767 8.30849 81.2735 8.30849 82.0691 8.29136C82.3886 8.29136 82.5061 8.37581 82.5024 8.71362C82.484 9.98042 82.5061 11.2619 82.5061 12.5434Z" fill="#767676"/>
<path id="Vector_9" d="M86.3798 12.5281C86.3798 11.2466 86.3798 9.95781 86.3798 8.68367C86.3798 8.38258 86.4422 8.26508 86.7727 8.27609C87.5805 8.29813 88.3883 8.27609 89.1961 8.27609C89.4605 8.27609 89.5817 8.34586 89.5633 8.64328C89.5633 11.2503 89.5633 13.8598 89.5633 16.4717C89.5633 16.7104 89.4899 16.8059 89.2365 16.8022C88.392 16.8022 87.5475 16.8022 86.7066 16.8022C86.4312 16.8022 86.3651 16.7067 86.3688 16.435C86.3872 15.1352 86.3798 13.8316 86.3798 12.5281Z" fill="#767676"/>
<path id="Vector_10" d="M10.6987 12.5834C10.6987 11.324 10.6987 10.0682 10.6987 8.81242C10.6987 8.44523 10.8126 8.36812 11.1467 8.37546C11.9435 8.39749 12.7403 8.39382 13.5334 8.37546C13.7868 8.37546 13.9006 8.43789 13.9006 8.7096C13.9006 11.2946 13.9006 13.8796 13.9006 16.4646C13.9006 16.718 13.8088 16.7914 13.5665 16.7877C12.7366 16.7877 11.9031 16.7877 11.0733 16.7877C10.7905 16.7877 10.7061 16.6959 10.7061 16.4205C10.7061 15.1427 10.6987 13.8612 10.6987 12.5834Z" fill="#767676"/>
<path id="Vector_11" d="M50.6195 12.5095C50.6195 11.228 50.6195 9.9392 50.6195 8.66873C50.6195 8.34928 50.7186 8.2685 51.0234 8.27584C51.8202 8.27584 52.617 8.27584 53.4101 8.27584C53.6965 8.27584 53.8067 8.3456 53.803 8.64303C53.803 11.2133 53.803 13.8094 53.803 16.3944C53.803 16.7175 53.6965 16.7946 53.3917 16.7872C52.6096 16.7652 51.8238 16.7652 51.0417 16.7872C50.726 16.7872 50.6085 16.7175 50.6158 16.376C50.6342 15.0945 50.6195 13.8057 50.6195 12.5095Z" fill="#767676"/>
<path id="Vector_12" d="M61.3229 12.5442C61.3229 13.8256 61.3229 15.1145 61.3229 16.3849C61.3229 16.7301 61.2128 16.8035 60.897 16.7925C60.1002 16.7742 59.3034 16.7925 58.5103 16.7925C58.2532 16.7925 58.1431 16.7264 58.1431 16.4584C58.1431 13.8611 58.1431 11.2651 58.1431 8.67033C58.1431 8.38025 58.2495 8.27376 58.5433 8.27744C59.3511 8.29212 60.1589 8.29212 60.9667 8.27744C61.2274 8.27744 61.3156 8.36189 61.3119 8.62626C61.3156 9.93345 61.3229 11.237 61.3229 12.5442Z" fill="#767676"/>
<path id="Vector_13" d="M71.9089 12.5798C71.9089 13.8613 71.9089 15.1502 71.9089 16.4206C71.9089 16.6887 71.8465 16.7878 71.5417 16.7878C70.7229 16.7658 69.904 16.7878 69.0815 16.7878C68.7951 16.7878 68.7144 16.6887 68.7144 16.4206C68.7144 13.8209 68.7144 11.2237 68.7144 8.62891C68.7144 8.37188 68.7841 8.26172 69.0558 8.26172C69.8857 8.26172 70.7192 8.26172 71.549 8.26172C71.8171 8.26172 71.8979 8.36086 71.8942 8.62891C71.9052 9.94711 71.9089 11.2653 71.9089 12.5798Z" fill="#767676"/>
<path id="Vector_14" d="M100.135 12.5794C100.135 13.8499 100.135 15.1167 100.135 16.3871C100.135 16.6846 100.069 16.8057 99.7417 16.7947C98.9229 16.769 98.1004 16.7947 97.2816 16.7947C97.0539 16.7947 96.9731 16.725 96.9731 16.49C96.9731 13.8609 96.9731 11.2294 96.9731 8.59542C96.9731 8.36777 97.0466 8.27964 97.2779 8.28331C98.1078 8.28331 98.9413 8.28331 99.7711 8.28331C100.035 8.28331 100.138 8.37511 100.138 8.6505C100.138 9.9687 100.138 11.2832 100.138 12.5978L100.135 12.5794Z" fill="#767676"/>
<path id="Vector_15" d="M0.968262 12.469C0.968262 11.1985 0.968262 9.93175 0.968262 8.66495C0.968262 8.37855 1.03068 8.26839 1.33545 8.27573C2.15428 8.27573 2.97311 8.27573 3.79193 8.27573C4.05264 8.27573 4.15912 8.35651 4.15912 8.62089C4.15912 11.1912 4.15912 13.7615 4.15912 16.3318C4.15912 16.5705 4.08568 16.6696 3.836 16.666C2.99146 16.666 2.14693 16.666 1.30607 16.666C1.06006 16.666 0.979277 16.5889 0.979277 16.3392C0.968262 15.0503 0.968262 13.7578 0.968262 12.469Z" fill="#767676"/>
<path id="Vector_16" d="M86.3799 4.00229C86.3799 2.98151 86.3799 1.96073 86.3799 0.939945C86.3799 0.701274 86.4423 0.605805 86.6993 0.609477C87.5561 0.609477 88.4129 0.609477 89.2696 0.609477C89.5083 0.609477 89.5781 0.697602 89.5781 0.921586C89.5781 2.98518 89.5781 5.04877 89.5781 7.11237C89.5781 7.36573 89.4753 7.44284 89.2366 7.43916C88.3921 7.43916 87.5475 7.43916 86.7067 7.43916C86.446 7.43916 86.3836 7.33268 86.3836 7.09768C86.3872 6.06588 86.3799 5.03409 86.3799 4.00229Z" fill="#767676"/>
<path id="Vector_17" d="M36.6407 4.03914C36.6407 3.01836 36.6407 2.00125 36.6407 0.980469C36.6407 0.675703 36.7361 0.613281 37.0262 0.613281C37.834 0.631641 38.6418 0.613281 39.446 0.613281C39.703 0.613281 39.8132 0.668359 39.8132 0.94375C39.8132 2.99266 39.8132 5.04523 39.8132 7.09414C39.8132 7.36219 39.7177 7.46133 39.446 7.44297C38.6272 7.44297 37.8083 7.44297 36.9895 7.44297C36.6958 7.44297 36.6223 7.32547 36.6223 7.07578C36.648 6.05133 36.6407 5.04523 36.6407 4.03914Z" fill="#767676"/>
<path id="Vector_18" d="M53.7919 4.03523C53.7919 5.03398 53.7919 6.02906 53.7919 7.02414C53.7919 7.35828 53.6818 7.45008 53.3586 7.44273C52.5875 7.42315 51.8152 7.42315 51.0417 7.44273C50.7296 7.44273 50.6047 7.36563 50.6047 7.02414C50.6047 5.00828 50.6047 2.98508 50.6047 0.976562C50.6047 0.712187 50.6598 0.609375 50.9719 0.609375C51.7908 0.631406 52.6096 0.627734 53.4284 0.609375C53.7111 0.609375 53.7956 0.701172 53.7956 0.976562C53.7846 1.99734 53.7919 3.01813 53.7919 4.03523Z" fill="#767676"/>
<path id="Vector_19" d="M80.648 22.252C80.5122 22.5127 80.402 22.7293 80.2808 22.946C79.8512 23.7354 79.4069 24.5212 78.9993 25.3217C78.8829 25.5616 78.8166 25.8227 78.8047 26.0891C78.779 26.6656 78.8047 27.2421 78.8047 27.8369H77.6004C77.6004 27.2788 77.6004 26.7354 77.6004 26.1993C77.6115 25.868 77.5274 25.5405 77.358 25.2556C76.8697 24.378 76.3997 23.4858 75.9223 22.6008C75.8672 22.498 75.8232 22.3915 75.7571 22.2336C76.1536 22.2336 76.4915 22.2336 76.8586 22.2336C76.9216 22.2506 76.9804 22.2802 77.0315 22.3206C77.0826 22.361 77.125 22.4114 77.1561 22.4686C77.5012 23.1296 77.8317 23.7979 78.1952 24.5212C78.5404 23.8383 78.8782 23.2067 79.1793 22.5604C79.2158 22.4444 79.2934 22.3457 79.3975 22.2828C79.5016 22.22 79.6251 22.1973 79.7447 22.219C80.0275 22.2887 80.3102 22.252 80.648 22.252Z" fill="#767676"/>
<path id="Vector_20" d="M60.3463 27.8505H59.1456V23.2753H57.6438V22.2949H61.8334V23.2606H60.3647L60.3463 27.8505Z" fill="#767676"/>
<path id="Vector_21" d="M41.8694 22.2812H43.0224V27.8441H41.8694V22.2812Z" fill="#767676"/>
</g>
</g>
</g>
<defs>
<clipPath id="clip0_461_452">
<rect width="103.25" height="28" fill="white" transform="translate(0.530762 0.273438)"/>
</clipPath>
</defs>
</svg>
