<svg width="86" height="31" viewBox="0 0 86 31" fill="none" xmlns="http://www.w3.org/2000/svg">
<g id="platipus" style="mix-blend-mode:luminosity">
<g id="&#208;&#161;&#208;&#187;&#208;&#190;&#208;&#185; 1">
<path id="Vector" d="M84.1505 0.273438L79.6711 5.12998H2.81519C2.53261 5.1237 2.25162 5.17394 1.98872 5.27775C1.72583 5.38157 1.48633 5.53686 1.28428 5.73452C1.08223 5.93217 0.921712 6.1682 0.812146 6.42875C0.70258 6.6893 0.646176 6.96912 0.646245 7.25177V27.4323C0.645624 27.7174 0.701301 27.9997 0.81008 28.2631C0.918859 28.5265 1.0786 28.7659 1.28013 28.9674C1.48166 29.1689 1.721 29.3287 1.98443 29.4375C2.24786 29.5462 2.53018 29.6019 2.81519 29.6013H82.4059C82.6909 29.6019 82.9732 29.5462 83.2366 29.4375C83.5001 29.3287 83.7394 29.1689 83.9409 28.9674C84.1425 28.7659 84.3022 28.5265 84.411 28.2631C84.5198 27.9997 84.5754 27.7174 84.5748 27.4323V0.273438H84.1505ZM12.3868 18.9452H10.5951V22.2457H7.29452V10.3166H12.3868C14.933 10.3166 16.819 12.1083 16.819 14.6073C16.8325 15.1887 16.7264 15.7667 16.5072 16.3053C16.288 16.844 15.9604 17.3318 15.5448 17.7386C15.1292 18.1454 14.6344 18.4624 14.0911 18.6699C13.5479 18.8775 12.9678 18.9712 12.3868 18.9452ZM21.3455 22.2457H18.1392V9.70361H21.3455V22.2457ZM33.1332 22.2457H30.6814L30.3985 21.5856C29.61 22.2157 28.6256 22.5494 27.6165 22.5287C24.8346 22.5287 22.8072 20.5012 22.8072 17.625C22.8072 14.7488 24.8346 12.7213 27.6165 12.7213C28.6453 12.7167 29.6443 13.0663 30.4456 13.7114L30.7757 13.0042H33.1332V22.2457ZM41.3375 22.2457H39.1685C37.141 22.2457 35.9151 21.0198 35.9151 18.9452V15.456H34.2177V14.7488L38.3669 10.3166H38.9799V13.0513H41.2903V15.456H39.0742V18.4265C39.0579 18.5709 39.0752 18.717 39.1246 18.8536C39.1741 18.9902 39.2545 19.1135 39.3594 19.2139C39.4644 19.3143 39.5911 19.3891 39.7298 19.4325C39.8684 19.4758 40.0152 19.4866 40.1587 19.4638H41.3375V22.2457ZM46.0054 22.2457H42.8463V13.0513H46.0054V22.2457ZM46.0054 11.8726H42.8463V9.18495H46.0054V11.8726ZM53.4081 22.5758C52.6128 22.5747 51.832 22.3632 51.1448 21.9628V25.5935H47.9857V13.0513H50.1547L50.579 13.7586C51.3599 13.0725 52.3688 12.7026 53.4081 12.7213C56.2371 12.7213 58.2175 14.7488 58.2175 17.625C58.2175 20.5012 56.2371 22.5758 53.4081 22.5758ZM68.685 18.2851C68.685 20.8784 66.8461 22.5758 64.1113 22.5758C61.3766 22.5758 59.5848 20.8784 59.5848 18.2851V13.0513H62.744V18.1436C62.744 19.1338 63.2626 19.6996 64.1113 19.6996C64.9601 19.6996 65.4787 19.1338 65.4787 18.1436V13.0513H68.685V18.2851ZM74.1073 22.5287C71.5612 22.5287 70.0523 21.2084 70.0052 19.2281H73.07C73.0656 19.3675 73.0913 19.5063 73.1456 19.6349C73.1999 19.7634 73.2813 19.8787 73.3844 19.9728C73.4874 20.0668 73.6096 20.1375 73.7425 20.1799C73.8755 20.2223 74.016 20.2353 74.1545 20.2183C74.626 20.2183 75.0503 19.9825 75.0503 19.511C75.0503 18.9452 74.3431 18.8037 73.4472 18.6623C72.0327 18.4265 70.1466 18.0022 70.1466 15.7861C70.1466 13.9 71.7026 12.7213 74.1073 12.7213C76.4177 12.7213 77.9737 13.9943 77.9737 15.8332H75.0032C75.0032 15.2674 74.626 14.9845 74.013 14.9845C73.5415 14.9845 73.1643 15.2203 73.1643 15.6446C73.1643 16.1633 73.8716 16.3047 74.7674 16.4462C76.2291 16.7291 78.1623 17.012 78.1623 19.3695C78.1623 21.3027 76.512 22.5287 74.1073 22.5287Z" fill="#FF4040"/>
<path id="Vector_2" d="M12.0097 13.192H10.5952V16.0682H12.0097C12.2013 16.0746 12.392 16.0407 12.5696 15.9689C12.7473 15.897 12.9079 15.7888 13.0411 15.6511C13.1744 15.5134 13.2773 15.3493 13.3433 15.1694C13.4093 14.9895 13.4369 14.7978 13.4243 14.6065C13.436 14.4177 13.4074 14.2286 13.3405 14.0517C13.2736 13.8747 13.1698 13.714 13.036 13.5803C12.9022 13.4465 12.7416 13.3427 12.5646 13.2758C12.3877 13.2088 12.1986 13.1803 12.0097 13.192Z" fill="#FF4040"/>
<path id="Vector_3" d="M28.0882 15.5501C27.8131 15.5402 27.5389 15.5871 27.2828 15.6879C27.0266 15.7886 26.7939 15.9411 26.5992 16.1358C26.4046 16.3304 26.2521 16.5631 26.1514 16.8193C26.0506 17.0755 26.0037 17.3497 26.0136 17.6248C26.0033 17.9022 26.0496 18.1788 26.1496 18.4377C26.2497 18.6967 26.4013 18.9326 26.5954 19.1311C26.7895 19.3295 27.0219 19.4865 27.2785 19.5923C27.5352 19.6981 27.8107 19.7506 28.0882 19.7466C28.3634 19.7496 28.6362 19.696 28.8899 19.5892C29.1435 19.4824 29.3724 19.3247 29.5625 19.1257C29.7526 18.9268 29.8998 18.6909 29.995 18.4327C30.0902 18.1745 30.1313 17.8995 30.1157 17.6248C30.1267 17.3534 30.0821 17.0826 29.9847 16.8291C29.8873 16.5755 29.7391 16.3445 29.5493 16.1503C29.3595 15.956 29.132 15.8026 28.8807 15.6994C28.6295 15.5962 28.3598 15.5454 28.0882 15.5501Z" fill="#FF4040"/>
<path id="Vector_4" d="M52.9837 15.5512C52.5668 15.5466 52.1579 15.6663 51.8092 15.895C51.4606 16.1238 51.188 16.4512 51.0263 16.8355C50.8646 17.2199 50.821 17.6437 50.9012 18.0529C50.9814 18.4621 51.1818 18.8381 51.4766 19.133C51.7715 19.4278 52.1475 19.6281 52.5567 19.7083C52.9659 19.7886 53.3897 19.745 53.774 19.5833C54.1584 19.4216 54.4858 19.149 54.7146 18.8004C54.9433 18.4517 55.063 18.0428 55.0584 17.6259C55.0641 17.3518 55.0144 17.0795 54.9122 16.8251C54.81 16.5708 54.6574 16.3398 54.4636 16.146C54.2698 15.9522 54.0388 15.7996 53.7844 15.6974C53.5301 15.5952 53.2578 15.5454 52.9837 15.5512Z" fill="#FF4040"/>
<path id="Vector_5" d="M12.3867 10.3164H7.29443V22.2456H10.595V18.945H12.3867C12.9677 18.971 13.5478 18.8773 14.0911 18.6698C14.6343 18.4622 15.1291 18.1452 15.5447 17.7384C15.9603 17.3317 16.2879 16.8438 16.5071 16.3051C16.7263 15.7665 16.8324 15.1885 16.8189 14.6071C16.8189 12.1081 14.9329 10.3164 12.3867 10.3164ZM12.0095 16.0688H10.595V13.1926H12.0095C12.1983 13.1809 12.3875 13.2094 12.5644 13.2764C12.7413 13.3433 12.902 13.4471 13.0358 13.5809C13.1696 13.7146 13.2733 13.8753 13.3403 14.0522C13.4072 14.2292 13.4358 14.4183 13.424 14.6071C13.4367 14.7983 13.4091 14.9901 13.3431 15.17C13.2771 15.3499 13.1742 15.514 13.0409 15.6517C12.9077 15.7894 12.747 15.8976 12.5694 15.9695C12.3918 16.0413 12.201 16.0752 12.0095 16.0688Z" fill="white"/>
<path id="Vector_6" d="M21.3454 9.70312H18.1392V22.2453H21.3454V9.70312Z" fill="white"/>
<path id="Vector_7" d="M30.4456 13.7109C29.6442 13.0658 28.6453 12.7161 27.6165 12.7207C24.8346 12.7207 22.8071 14.7482 22.8071 17.6244C22.8071 20.5006 24.8346 22.5281 27.6165 22.5281C28.6256 22.5489 29.61 22.2152 30.3984 21.5851L30.6813 22.2452H33.1332V13.0037H30.7756L30.4456 13.7109ZM28.088 19.7462C27.8105 19.7503 27.535 19.6978 27.2783 19.592C27.0217 19.4861 26.7893 19.3292 26.5952 19.1307C26.4011 18.9323 26.2494 18.6964 26.1494 18.4374C26.0494 18.1784 26.0031 17.9018 26.0134 17.6244C26.0134 17.3551 26.0664 17.0884 26.1695 16.8395C26.2726 16.5907 26.4237 16.3646 26.6141 16.1741C26.8046 15.9837 27.0307 15.8326 27.2795 15.7295C27.5284 15.6264 27.7951 15.5734 28.0645 15.5734C28.3338 15.5734 28.6005 15.6264 28.8494 15.7295C29.0982 15.8326 29.3243 15.9837 29.5148 16.1741C29.7052 16.3646 29.8563 16.5907 29.9594 16.8395C30.0625 17.0884 30.1155 17.3551 30.1155 17.6244C30.131 17.8992 30.0899 18.1742 29.9948 18.4324C29.8996 18.6906 29.7524 18.9265 29.5623 19.1254C29.3722 19.3243 29.1432 19.4821 28.8896 19.5889C28.636 19.6957 28.3632 19.7493 28.088 19.7462Z" fill="white"/>
<path id="Vector_8" d="M39.0741 18.4264V15.4559H41.2902V13.0512H38.9798V10.3164H38.3668L34.2175 14.7486V15.4559H35.915V18.945C35.915 21.0197 37.1409 22.2456 39.1684 22.2456H41.3373V19.4637H40.1585C40.0151 19.4864 39.8683 19.4756 39.7296 19.4323C39.591 19.3889 39.4643 19.3141 39.3593 19.2137C39.2543 19.1133 39.174 18.99 39.1245 18.8534C39.075 18.7169 39.0578 18.5707 39.0741 18.4264Z" fill="white"/>
<path id="Vector_9" d="M46.0053 9.18555H42.8462V11.8731H46.0053V9.18555Z" fill="white"/>
<path id="Vector_10" d="M46.0053 13.0508H42.8462V22.2452H46.0053V13.0508Z" fill="white"/>
<path id="Vector_11" d="M53.4082 12.7214C52.3689 12.7027 51.36 13.0726 50.5791 13.7587L50.1548 13.0514H47.9858V25.5936H51.1449V21.9629C51.8321 22.3633 52.6129 22.5748 53.4082 22.5759C56.2372 22.5759 58.2176 20.5013 58.2176 17.6251C58.2176 14.7489 56.2372 12.7214 53.4082 12.7214ZM52.9838 19.7469C52.5689 19.7515 52.1619 19.633 51.8143 19.4063C51.4667 19.1796 51.1941 18.855 51.031 18.4734C50.8679 18.0918 50.8216 17.6704 50.898 17.2625C50.9744 16.8547 51.17 16.4786 51.4602 16.1819C51.7503 15.8852 52.1219 15.6811 52.5279 15.5956C52.934 15.5101 53.3563 15.5469 53.7415 15.7014C54.1266 15.8558 54.4573 16.121 54.6917 16.4635C54.9262 16.8059 55.0538 17.2101 55.0585 17.6251C55.0687 17.9025 55.0224 18.1791 54.9224 18.438C54.8224 18.697 54.6708 18.9329 54.4767 19.1314C54.2826 19.3298 54.0502 19.4868 53.7935 19.5926C53.5369 19.6984 53.2614 19.7509 52.9838 19.7469Z" fill="white"/>
<path id="Vector_12" d="M65.4786 18.1431C65.4786 19.1332 64.9599 19.6991 64.1112 19.6991C63.2625 19.6991 62.7438 19.1332 62.7438 18.1431V13.0508H59.5847V18.2845C59.5847 20.8778 61.3765 22.5281 64.1112 22.5753C66.846 22.6224 68.6848 20.8778 68.6848 18.2845V13.0508H65.4786V18.1431Z" fill="white"/>
<path id="Vector_13" d="M74.7676 16.4456C73.8717 16.3042 73.1645 16.1627 73.1645 15.6441C73.1645 15.2197 73.5417 14.9839 74.0132 14.9839C74.6262 14.9839 75.0034 15.2669 75.0034 15.8327H77.9739C77.9739 13.9938 76.4179 12.7207 74.1075 12.7207C71.7028 12.7207 70.1468 13.8995 70.1468 15.7855C70.1468 18.0016 72.0329 18.426 73.4474 18.6617C74.3432 18.8032 75.0505 18.9446 75.0505 19.5104C75.0505 19.9819 74.6262 20.2177 74.1546 20.2177C74.0162 20.2348 73.8756 20.2217 73.7427 20.1793C73.6098 20.1369 73.4876 20.0663 73.3845 19.9722C73.2815 19.8781 73.2 19.7628 73.1458 19.6343C73.0915 19.5058 73.0657 19.367 73.0702 19.2275H70.0054C70.0525 21.2079 71.5613 22.5281 74.1075 22.5281C76.5122 22.5281 78.1625 21.3022 78.1625 19.369C78.1625 17.0114 76.2293 16.7285 74.7676 16.4456Z" fill="white"/>
</g>
</g>
</svg>
