<svg width="85" height="41" viewBox="0 0 85 41" fill="none" xmlns="http://www.w3.org/2000/svg">
<g id="playson" style="mix-blend-mode:luminosity" clip-path="url(#clip0_458_379)">
<path id="Vector" d="M35.0081 21.2955V4.89688L48.8506 11.8181L41.01 15.7384V11.8181C41.01 11.3992 40.8436 10.9975 40.5474 10.7013C40.2512 10.4051 39.8494 10.2386 39.4305 10.2386C39.0116 10.2386 38.6099 10.4051 38.3137 10.7013C38.0174 10.9975 37.851 11.3992 37.851 11.8181V18.2945C37.8511 18.5638 37.92 18.8285 38.0511 19.0636C38.1823 19.2988 38.3714 19.4965 38.6004 19.638C38.8294 19.7795 39.0908 19.8602 39.3598 19.8723C39.6288 19.8844 39.8964 19.8276 40.1372 19.7072L53.089 13.2311C53.3513 13.0999 53.5719 12.8983 53.7261 12.6488C53.8803 12.3993 53.962 12.1118 53.962 11.8185C53.962 11.5252 53.8803 11.2377 53.7261 10.9881C53.5719 10.7386 53.3513 10.537 53.089 10.4058L34.135 0.928453C33.8941 0.808046 33.6265 0.751202 33.3575 0.763319C33.0886 0.775437 32.8271 0.856114 32.5981 0.997688C32.3691 1.13926 32.1801 1.33703 32.049 1.57222C31.9179 1.80741 31.8491 2.0722 31.8491 2.34145V21.2955C31.8491 21.7144 32.0155 22.1161 32.3117 22.4124C32.608 22.7086 33.0097 22.875 33.4286 22.875C33.8475 22.875 34.2493 22.7086 34.5455 22.4124C34.8417 22.1161 35.0081 21.7144 35.0081 21.2955Z" fill="#FF8B9E"/>
<path id="Vector_2" d="M10.7826 31.4602C10.6038 31.0359 10.3037 30.6738 9.91998 30.4192C9.53627 30.1647 9.08598 30.0291 8.62553 30.0293H2.18654C1.92779 30.0293 1.67965 30.1321 1.49668 30.315C1.31372 30.498 1.21094 30.7462 1.21094 31.0049V38.8097C1.21094 39.0685 1.31372 39.3166 1.49668 39.4996C1.67965 39.6826 1.92779 39.7853 2.18654 39.7853C2.44529 39.7853 2.69344 39.6826 2.8764 39.4996C3.05936 39.3166 3.16214 39.0685 3.16214 38.8097V36.5333H8.62553C8.93307 36.5335 9.23764 36.4731 9.52181 36.3555C9.80599 36.2379 10.0642 36.0655 10.2817 35.848C10.4991 35.6305 10.6716 35.3723 10.7892 35.0882C10.9068 34.804 10.9672 34.4994 10.967 34.1919V32.3707C10.967 32.0579 10.9043 31.7483 10.7826 31.4602ZM9.01577 34.1919C9.01602 34.2439 9.00573 34.2955 8.98552 34.3434C8.95563 34.4135 8.90618 34.4734 8.84309 34.5161C8.81191 34.5371 8.77784 34.5534 8.74195 34.5646C8.70429 34.5764 8.66501 34.5823 8.62553 34.5821H3.16214V31.9805H8.62553C8.67758 31.9801 8.72916 31.9904 8.77707 32.0108C8.82938 32.033 8.87627 32.0662 8.9145 32.1083C8.95273 32.1503 8.9814 32.2001 8.99853 32.2543C9.01013 32.292 9.01594 32.3313 9.01577 32.3707V34.1919Z" fill="white"/>
<path id="Vector_3" d="M57.4799 34.332C57.0931 34.0707 56.6368 33.9312 56.17 33.9317H50.4464C50.3944 33.932 50.3428 33.9217 50.2949 33.9015C50.2426 33.8793 50.1957 33.846 50.1575 33.804C50.1192 33.7619 50.0906 33.7121 50.0734 33.6579C50.0618 33.6202 50.056 33.5809 50.0562 33.5415V32.3707C50.0559 32.3187 50.0662 32.2672 50.0864 32.2192C50.1086 32.1669 50.1419 32.12 50.1839 32.0818C50.226 32.0435 50.2758 32.0149 50.33 31.9977C50.3677 31.9861 50.407 31.9803 50.4464 31.9805H57.2106C57.4694 31.9805 57.7175 31.8777 57.9005 31.6948C58.0834 31.5118 58.1862 31.2636 58.1862 31.0049C58.1862 30.7462 58.0834 30.498 57.9005 30.315C57.7175 30.1321 57.4694 30.0293 57.2106 30.0293H50.4464C50.1389 30.0291 49.8343 30.0895 49.5501 30.2071C49.266 30.3247 49.0078 30.4971 48.7903 30.7146C48.5728 30.9321 48.4004 31.1903 48.2828 31.4745C48.1652 31.7586 48.1048 32.0632 48.105 32.3707V33.5415C48.1048 33.849 48.1652 34.1536 48.2828 34.4378C48.4004 34.7219 48.5728 34.9801 48.7903 35.1976C49.0078 35.4151 49.266 35.5875 49.5501 35.7051C49.8343 35.8227 50.1389 35.8831 50.4464 35.8829H56.17C56.222 35.8825 56.2736 35.8928 56.3215 35.9132C56.3738 35.9354 56.4207 35.9686 56.4589 36.0107C56.4972 36.0527 56.5258 36.1026 56.543 36.1567C56.5546 36.1945 56.5604 36.2337 56.5602 36.2732V37.4439C56.5605 37.4959 56.5502 37.5475 56.53 37.5954C56.5001 37.6655 56.4506 37.7254 56.3875 37.7681C56.3564 37.7891 56.3223 37.8054 56.2864 37.8166C56.2487 37.8284 56.2095 37.8344 56.17 37.8341H49.4058C49.147 37.8341 48.8989 37.9369 48.7159 38.1199C48.533 38.3028 48.4302 38.551 48.4302 38.8097C48.4302 39.0685 48.533 39.3166 48.7159 39.4996C48.8989 39.6826 49.147 39.7853 49.4058 39.7853H56.17C56.4775 39.7855 56.7821 39.7251 57.0663 39.6075C57.3504 39.4899 57.6086 39.3175 57.8261 39.1C58.0436 38.8826 58.216 38.6243 58.3336 38.3402C58.4512 38.056 58.5116 37.7514 58.5114 37.4439V36.2732C58.5117 35.8899 58.4177 35.5124 58.2379 35.1739C58.058 34.8354 57.7977 34.5463 57.4799 34.332Z" fill="white"/>
<path id="Vector_4" d="M45.7553 30.2708C45.5606 30.1005 45.3062 30.0144 45.048 30.0316C44.7899 30.0488 44.5491 30.1678 44.3787 30.3625L40.5602 34.7267L36.7417 30.3625C36.6573 30.2661 36.5548 30.1872 36.44 30.1304C36.3251 30.0736 36.2002 30.04 36.0724 30.0315C35.9445 30.0229 35.8163 30.0397 35.6949 30.0807C35.5735 30.1217 35.4614 30.1863 35.365 30.2707C35.2685 30.355 35.1897 30.4576 35.1329 30.5724C35.0761 30.6872 35.0424 30.8122 35.0339 30.94C35.0254 31.0678 35.0421 31.1961 35.0831 31.3175C35.1242 31.4389 35.1887 31.551 35.2731 31.6474L39.5846 36.5748V38.81C39.5846 39.0687 39.6874 39.3169 39.8704 39.4998C40.0533 39.6828 40.3015 39.7856 40.5602 39.7856C40.819 39.7856 41.0671 39.6828 41.2501 39.4998C41.433 39.3169 41.5358 39.0687 41.5358 38.81V36.5748L45.8473 31.6474C46.0177 31.4526 46.1037 31.1982 46.0864 30.94C46.0692 30.6819 45.9501 30.4412 45.7553 30.2708Z" fill="white"/>
<path id="Vector_5" d="M71.3042 31.4602C71.1254 31.0359 70.8254 30.6739 70.4418 30.4193C70.0581 30.1648 69.6079 30.0291 69.1475 30.0293H63.424C63.1164 30.0291 62.8119 30.0895 62.5277 30.2071C62.2435 30.3247 61.9853 30.4971 61.7678 30.7146C61.5504 30.9321 61.3779 31.1903 61.2603 31.4745C61.1427 31.7586 61.0823 32.0632 61.0825 32.3707V37.4439C61.0823 37.7514 61.1427 38.056 61.2603 38.3402C61.3779 38.6243 61.5504 38.8826 61.7678 39.1C61.9853 39.3175 62.2435 39.4899 62.5277 39.6075C62.8119 39.7251 63.1164 39.7855 63.424 39.7853H69.1475C69.7685 39.7853 70.3641 39.5386 70.8032 39.0995C71.2423 38.6604 71.489 38.0649 71.489 37.4439V32.3707C71.4889 32.0579 71.4261 31.7483 71.3042 31.4602ZM69.5378 37.4439C69.5379 37.4959 69.5275 37.5475 69.5072 37.5954C69.4774 37.6656 69.4279 37.7255 69.3647 37.7681C69.3004 37.8109 69.2248 37.8336 69.1475 37.8332H63.424C63.3718 37.8332 63.3202 37.823 63.2721 37.8029C63.2022 37.7729 63.1424 37.7235 63.0997 37.6605C63.0565 37.5962 63.0338 37.5203 63.0347 37.4429V32.3707C63.0343 32.3187 63.0446 32.2671 63.0649 32.2192C63.0947 32.1491 63.1442 32.0891 63.2074 32.0465C63.2716 32.0033 63.3475 31.9806 63.4249 31.9815H69.1485C69.2005 31.9811 69.2521 31.9914 69.3 32.0117C69.3699 32.0417 69.4298 32.0912 69.4724 32.1542C69.4935 32.1853 69.51 32.2194 69.5212 32.2553C69.5327 32.293 69.5386 32.3323 69.5387 32.3717L69.5378 37.4439Z" fill="white"/>
<path id="Vector_6" d="M83.6247 30.0293C83.3659 30.0293 83.1178 30.1321 82.9348 30.315C82.7519 30.498 82.6491 30.7462 82.6491 31.0049V36.5815L75.8312 30.2895C75.692 30.1609 75.5183 30.0757 75.3314 30.0442C75.1445 30.0128 74.9525 30.0364 74.7788 30.1123C74.6052 30.1882 74.4574 30.313 74.3535 30.4715C74.2496 30.63 74.1941 30.8154 74.1938 31.0049V38.8097C74.1938 39.0685 74.2966 39.3166 74.4796 39.4996C74.6626 39.6826 74.9107 39.7853 75.1695 39.7853C75.4282 39.7853 75.6763 39.6826 75.8593 39.4996C76.0423 39.3166 76.1451 39.0685 76.1451 38.8097V33.2332L82.9629 39.5252C83.1021 39.6537 83.2758 39.739 83.4627 39.7704C83.6496 39.8019 83.8416 39.7782 84.0153 39.7023C84.189 39.6265 84.3368 39.5016 84.4407 39.3431C84.5445 39.1846 84.6 38.9993 84.6003 38.8097V31.0049C84.6003 30.7462 84.4975 30.498 84.3145 30.315C84.1316 30.1321 83.8834 30.0293 83.6247 30.0293Z" fill="white"/>
<path id="Vector_7" d="M21.3082 37.8341H15.4546V31.0049C15.4546 30.7462 15.3518 30.498 15.1689 30.315C14.9859 30.1321 14.7378 30.0293 14.479 30.0293C14.2203 30.0293 13.9721 30.1321 13.7892 30.315C13.6062 30.498 13.5034 30.7462 13.5034 31.0049V38.8097C13.5034 39.0685 13.6062 39.3166 13.7892 39.4996C13.9721 39.6826 14.2203 39.7853 14.479 39.7853H21.3082C21.567 39.7853 21.8151 39.6826 21.9981 39.4996C22.1811 39.3166 22.2839 39.0685 22.2839 38.8097C22.2839 38.551 22.1811 38.3028 21.9981 38.1199C21.8151 37.9369 21.567 37.8341 21.3082 37.8341Z" fill="white"/>
<path id="Vector_8" d="M34.5766 39.7853C34.406 39.7854 34.2383 39.7408 34.0902 39.6559C33.9422 39.571 33.8191 39.4488 33.7331 39.3014L30.0238 32.9411L26.3136 39.3014C26.2496 39.4131 26.1641 39.5111 26.062 39.5896C25.96 39.6681 25.8434 39.7257 25.719 39.7589C25.5945 39.7922 25.4648 39.8005 25.3372 39.7833C25.2095 39.7662 25.0866 39.7239 24.9753 39.659C24.8641 39.5941 24.7668 39.5078 24.6891 39.4052C24.6114 39.3025 24.5548 39.1854 24.5226 39.0608C24.4903 38.9361 24.483 38.8063 24.5012 38.6788C24.5194 38.5513 24.5626 38.4287 24.6284 38.318L29.1812 30.5131C29.2671 30.3659 29.3902 30.2437 29.538 30.1589C29.6858 30.074 29.8533 30.0293 30.0238 30.0293C30.1943 30.0293 30.3618 30.074 30.5096 30.1589C30.6575 30.2437 30.7805 30.3659 30.8664 30.5131L35.4192 38.318C35.5057 38.4662 35.5516 38.6346 35.5522 38.8063C35.5528 38.9779 35.5081 39.1467 35.4226 39.2955C35.3371 39.4443 35.2139 39.568 35.0654 39.654C34.9169 39.74 34.7483 39.7853 34.5766 39.7853Z" fill="white"/>
</g>
<defs>
<clipPath id="clip0_458_379">
<rect width="83.8889" height="40" fill="white" transform="translate(0.961182 0.273438)"/>
</clipPath>
</defs>
</svg>
