<svg width="102" height="29" viewBox="0 0 102 29" fill="none" xmlns="http://www.w3.org/2000/svg">
<g id="playngo" style="mix-blend-mode:luminosity">
<path id="Vector" fill-rule="evenodd" clip-rule="evenodd" d="M74.6884 2.97575C74.4945 2.77085 74.328 2.7838 74.1657 2.7838C70.6991 2.7838 67.2325 2.78518 63.766 2.7842C62.5547 2.7838 61.4597 3.17829 60.4412 3.79356C58.4065 5.02313 57.0336 6.72707 56.3528 9.06099C55.3154 12.6171 54.1639 16.1413 53.0004 19.6587C51.8915 23.0104 53.9636 25.6905 57.2348 25.4592C58.9919 25.3347 60.7653 25.4468 62.5311 25.4313C63.0809 25.4263 63.6256 25.4195 64.1754 25.257C67.0103 24.4193 68.7663 22.4879 69.7101 19.778C70.4045 17.7834 71.0084 15.7564 71.6168 13.7332C71.8482 12.964 72.177 12.2172 72.2883 11.4197C71.9522 11.2032 71.6176 11.3015 71.302 11.2995C69.5688 11.2886 67.8355 11.2815 66.1023 11.3013C65.4881 11.3084 64.766 11.0595 64.2867 11.4242C63.8158 11.7824 63.8257 12.5328 63.6374 13.115C63.2402 14.3442 62.8571 15.578 62.4567 16.8456C63.4182 17.0457 64.3324 16.7886 65.2395 17.0282C64.9701 17.8755 64.7108 18.644 64.4862 19.4228C64.4052 19.7034 64.3208 19.8942 63.9822 19.8924C62.2554 19.8843 60.5283 19.8889 58.6869 19.8889C59.0585 18.6954 59.392 17.6144 59.7316 16.5355C60.5128 14.0553 61.2951 11.5755 62.0805 9.09652C62.3223 8.33327 62.3278 8.33306 63.1576 8.33011C63.9099 8.32739 64.6619 8.32954 65.4142 8.32932C67.736 8.32932 70.0579 8.33442 72.3802 8.32229C72.6372 8.32092 72.961 8.46301 73.0945 8.02491C73.615 6.32061 74.165 4.62571 74.6884 2.97575ZM77.9041 25.4097C79.1784 25.4258 80.4915 25.6312 81.7171 25.329C84.9012 24.544 87.1785 22.635 88.2138 19.4461C89.318 16.0469 90.377 12.6329 91.4431 9.22152C91.7145 8.35524 91.9435 7.48976 91.9866 6.55868C92.1051 3.97373 89.9311 2.35988 87.8914 2.41287C85.9968 2.46194 84.1 2.42033 82.2046 2.42602C81.847 2.427 81.4924 2.4272 81.1363 2.52179C77.9005 3.38063 75.6849 5.3344 74.641 8.5478C74.1994 9.90666 73.7759 11.2717 73.353 12.6364C72.5927 15.0879 71.784 17.5263 71.0961 19.998C70.1964 23.2314 72.4161 25.4919 74.9641 25.4146C75.9433 25.385 76.9241 25.4097 77.9041 25.4097ZM54.5841 6.52747C56.082 3.60025 58.3631 1.59879 61.5147 0.590987C61.8364 0.488147 62.2487 0.626902 62.487 0.273438H88.982C89.0409 0.418278 89.173 0.416511 89.2986 0.445165C91.8481 1.02354 93.4706 2.5738 94.1886 5.08731C94.3235 5.55814 94.2359 6.06901 94.475 6.51589C94.3558 7.77528 94.1541 9.01037 93.7355 10.2188C93.2057 11.7474 92.8072 13.321 92.2989 14.8578C91.5271 17.1913 90.9463 19.588 89.9972 21.8631C88.5189 24.4881 86.4297 26.4035 83.5615 27.4194C82.57 27.7705 81.5577 27.9534 80.4987 27.952C72.5589 27.9412 64.6186 27.9151 56.6786 27.9629C53.8925 27.9797 50.7217 26.0391 50.2817 22.539C50.2535 22.3139 50.1813 22.0945 50.1296 21.8723C50.1658 20.3301 50.6077 18.8803 51.0823 17.4274C52.2669 13.7997 53.3041 10.1246 54.5841 6.52747Z" fill="#E85C5E"/>
<path id="Vector_2" fill-rule="evenodd" clip-rule="evenodd" d="M89.9971 21.863C90.9462 19.5877 91.527 17.1912 92.2988 14.8575C92.8071 13.321 93.2056 11.7474 93.7354 10.2186C94.154 9.01027 94.3557 7.77525 94.4749 6.51562C95.3558 6.52191 96.2375 6.51837 97.1184 6.53721C98.2994 6.56233 99.2227 7.08223 99.9837 7.98073C100.326 8.38522 100.409 8.9165 100.758 9.30132V11.6565C100.172 12.5381 100.11 13.5955 99.7949 14.5668C99.4639 15.584 99.2392 16.6354 98.9341 17.6615C98.1128 20.4207 95.4793 21.9617 93.225 21.8687C92.1509 21.8245 91.0733 21.8624 89.9971 21.863Z" fill="#66C7F2"/>
<path id="Vector_3" fill-rule="evenodd" clip-rule="evenodd" d="M39.6498 12.0717H42.339C42.5792 12.0717 42.7698 12.0328 42.8577 11.747C43.0932 10.9818 43.358 10.2256 43.6281 9.41426C42.6742 9.28632 41.8005 9.38209 40.932 9.34519C40.588 9.33069 40.4818 9.56732 40.3972 9.81092C40.1544 10.51 39.9311 11.2159 39.6498 12.0717ZM45.6317 18.3294C46.2689 18.3294 46.8524 18.3082 47.4333 18.3363C47.8732 18.3575 48.0643 18.1795 48.1748 17.7575C48.4957 16.5324 48.8815 15.3245 49.203 14.0996C49.5553 12.7585 48.9326 11.9096 47.5727 11.8569C46.8228 11.8279 46.0693 11.8224 45.32 11.8577C43.8646 11.9262 42.8294 12.7144 42.3272 14.0154C41.804 15.3704 41.4902 16.8064 41.0751 18.2405C41.669 18.4026 42.2268 18.2658 42.766 18.3381C43.316 18.4114 43.5062 18.1288 43.6289 17.6656C43.8867 16.692 44.1685 15.7247 44.4543 14.7588C44.5351 14.4861 44.6009 14.1687 45.0042 14.1903C45.5828 14.2213 46.1694 14.1159 46.7982 14.2743C46.4128 15.6142 46.0369 16.9206 45.6317 18.3294ZM18.7993 9.12227C18.1321 9.12227 17.6401 9.16857 17.161 9.11028C16.584 9.03999 16.3612 9.29515 16.2044 9.80877C15.5681 11.8923 14.8688 13.9569 14.2524 16.0461C14.038 16.7723 13.6801 17.4735 13.6412 18.3288C15.8239 18.3288 17.9437 18.3226 20.0635 18.3347C20.4399 18.3366 20.5682 18.1388 20.6623 17.8274C20.916 16.9866 21.2198 16.16 21.4461 15.3123C21.9619 13.3791 22.3819 13.7051 20.1129 13.6616C19.7163 13.6541 19.5214 13.8362 19.4152 14.1962C19.2774 14.6637 19.0981 15.1188 18.9638 15.5873C18.8929 15.8336 18.8036 16.0078 18.5122 15.9899C17.9344 15.9546 17.3464 16.0747 16.6899 15.8858C17.3839 13.6606 18.0681 11.4668 18.7993 9.12227ZM33.2847 13.69C33.7457 12.1865 34.1983 10.7104 34.6852 9.12241C33.9681 9.12241 33.385 9.1405 32.8037 9.11573C32.4396 9.10044 32.2995 9.25667 32.199 9.59051C31.7588 11.0528 31.2939 12.5075 30.8291 13.962C30.615 14.6317 30.8315 15.18 31.2915 15.6514C31.5706 15.9374 31.9972 15.9517 32.3615 16.1301C32.2944 16.8836 31.8538 17.5281 31.8078 18.297C31.9621 18.3092 32.0907 18.3337 32.2175 18.3269C32.8318 18.2925 33.5673 18.562 34.0248 18.2068C34.3883 17.9245 34.4485 17.2286 34.6002 16.7039C34.7213 16.2857 34.9265 16.0675 35.3814 15.9613C36.6117 15.674 37.4439 14.9039 37.8356 13.6865C38.1443 12.7275 38.4701 11.7739 38.7531 10.8075C39.3088 8.90868 39.6394 9.14007 37.4492 9.11853C37.0669 9.11458 36.8622 9.24295 36.7532 9.63409C36.5269 10.447 36.244 11.244 35.987 12.0487C35.4051 13.8716 35.4057 13.8719 33.4698 13.7758C33.4396 13.7742 33.4105 13.7493 33.2847 13.69ZM5.84753 18.3292C6.39372 18.3292 6.97524 18.3184 7.55639 18.3333C7.89706 18.3424 8.05529 18.2315 8.16887 17.8766C8.34613 17.3235 8.34728 16.6092 8.78494 16.264C9.26583 15.8846 9.97997 16.16 10.5912 16.1262C12.4503 16.0231 13.562 15.2081 14.1529 13.4639C14.3715 12.8184 14.5803 12.1678 14.7503 11.5084C15.1273 10.0463 14.4357 9.14617 12.9221 9.12557C11.7151 9.10906 10.5058 9.16168 9.30129 9.10597C8.67876 9.07711 8.46603 9.32968 8.29983 9.8792C7.52832 12.4268 6.71519 14.9618 5.91092 17.4994C5.8332 17.7443 5.70288 17.9744 5.84753 18.3292ZM21.4473 18.2534C22.0893 18.3924 22.6765 18.2847 23.2535 18.3357C23.6491 18.3705 23.854 18.2025 23.9614 17.8446C24.0921 17.4093 24.2495 16.9819 24.3702 16.544C24.4375 16.2995 24.5262 16.1119 24.8149 16.1271C25.3923 16.1572 25.9805 16.0308 26.5632 16.2161C26.5793 16.9558 26.0751 17.5605 26.1171 18.3294C26.696 18.3294 27.2494 18.3108 27.8008 18.3355C28.2275 18.3543 28.4273 18.2025 28.5558 17.773C29.1892 15.6563 29.8771 13.556 30.5178 11.4417C30.9151 10.1306 30.2152 9.17288 28.85 9.12693C28.1325 9.10259 27.4118 9.09204 26.6953 9.12894C25.2508 9.20311 24.1592 9.95121 23.6817 11.2613C22.849 13.5458 22.1907 15.894 21.4473 18.2534ZM54.5843 6.5265C53.3041 10.1236 52.267 13.7987 51.0822 17.4264C50.6077 18.8793 50.1656 20.3291 50.1295 21.8713C41.7563 21.8676 33.3831 21.8627 25.0098 21.8605C18.2392 21.8587 11.4686 21.8617 4.69803 21.857C4.24231 21.8566 3.77561 21.8646 3.33284 21.7759C0.809917 21.27 -0.108189 19.2053 0.364209 17.0855C0.852506 14.8941 1.48937 12.7348 2.09111 10.5699C2.8155 7.96256 5.4501 6.49726 7.58245 6.50393C23.2497 6.55358 38.917 6.52807 54.5843 6.5265Z" fill="#66C7F2"/>
<path id="Vector_4" fill-rule="evenodd" clip-rule="evenodd" d="M85.8646 8.36244C84.3253 8.36244 82.9253 8.35929 81.5261 8.36359C80.6236 8.36639 80.6279 8.37228 80.3694 9.1995C79.7901 11.0585 79.2028 12.9149 78.6255 14.7747C78.1065 16.446 77.5974 18.1201 77.054 19.8904C78.2134 19.8904 79.2868 19.9035 80.3587 19.8853C80.9747 19.8749 81.6969 20.1155 82.1772 19.7771C82.659 19.4378 82.6389 18.6706 82.8234 18.0885C83.8314 14.9052 84.8186 11.7153 85.8646 8.36244Z" fill="white"/>
<path id="Vector_5" fill-rule="evenodd" clip-rule="evenodd" d="M85.8646 8.36244C84.8186 11.7153 83.8314 14.9052 82.8234 18.0885C82.6389 18.6706 82.659 19.4378 82.1772 19.7771C81.6969 20.1155 80.9747 19.8749 80.3587 19.8853C79.2868 19.9035 78.2134 19.8904 77.054 19.8904C77.5974 18.1201 78.1065 16.446 78.6255 14.7747C79.2028 12.9149 79.7901 11.0585 80.3694 9.1995C80.6279 8.37228 80.6236 8.36639 81.5261 8.36359C82.9253 8.35929 84.3253 8.36244 85.8646 8.36244Z" fill="#E85C5E"/>
<path id="Vector_6" fill-rule="evenodd" clip-rule="evenodd" d="M25.3066 13.7456C25.337 13.569 25.3529 13.4392 25.3822 13.3124C25.8312 11.3693 26.0181 11.2476 28.1163 11.553C28.0806 11.6794 28.0478 11.802 28.0113 11.9237C27.427 13.8691 27.4268 13.8691 25.3066 13.7456Z" fill="#66C7F2"/>
<path id="Vector_7" fill-rule="evenodd" clip-rule="evenodd" d="M9.59697 13.7897C9.49337 13.4569 9.59582 13.3181 9.64328 13.1664C10.2374 11.2639 10.2366 11.2637 12.3466 11.5441C12.1745 12.1347 11.9963 12.7198 11.8355 13.3097C11.7474 13.6334 11.5796 13.8057 11.2213 13.7943C10.6764 13.777 10.1306 13.7897 9.59697 13.7897Z" fill="#66C7F2"/>
</g>
</svg>
