<svg width="105" height="55" viewBox="0 0 105 55" fill="none" xmlns="http://www.w3.org/2000/svg">
<g style="mix-blend-mode:luminosity">
<path d="M90.115 18.8587C85.0306 19.1764 87.255 25.8496 92.9749 25.5318C98.5359 25.2141 95.6759 18.5409 90.115 18.8587Z" fill="#F19021"/>
<path d="M88.0497 14.7293C78.9932 14.7293 71.5256 22.1969 71.5256 31.4123C71.5256 40.6276 78.9932 48.0952 88.0497 48.0952C97.1061 48.0952 104.574 40.6276 104.574 31.4123C104.574 22.1969 97.1061 14.7293 88.0497 14.7293ZM88.0497 46.1886C79.9465 46.1886 73.2734 39.5154 73.2734 31.2534C73.2734 22.9914 79.9465 16.3182 88.0497 16.3182C96.1528 16.3182 102.826 22.9914 102.826 31.2534C102.826 39.5154 96.1528 46.1886 88.0497 46.1886ZM87.573 3.13073C83.6009 6.14955 84.3953 10.7572 84.3953 10.7572C84.3953 10.7572 81.8532 4.24293 78.6755 0.429688C78.1988 5.51401 79.7877 12.1872 79.7877 12.1872C79.7877 12.1872 77.7221 8.05617 72.7967 7.7384C76.9277 10.1217 78.5166 14.4116 78.8343 15.5238C81.2176 14.0938 84.0776 13.1405 86.9375 13.1405C86.6197 11.8694 85.5075 7.42063 87.573 3.13073Z" fill="#F19021"/>
<path d="M2.7283 33.0005V36.496H1.29834V27.5984H4.31716C5.27047 27.5984 6.06489 27.9162 6.70043 28.3929C7.33597 28.8695 7.49486 29.505 7.49486 30.4584C7.49486 31.2528 7.17709 32.0472 6.70043 32.5239C6.22378 33.0005 5.42935 33.3183 4.47604 33.3183H2.7283V33.0005ZM5.90601 30.1406C5.90601 29.6639 5.74712 29.1873 5.42935 29.0284C5.11158 28.7106 4.63493 28.5517 3.99939 28.5517H2.56942V31.7294H3.99939C5.27047 31.7294 5.90601 31.2528 5.90601 30.1406ZM13.3736 36.3371L11.1492 32.6827H10.1959V36.3371H8.76594V27.4395H11.9436C12.8969 27.4395 13.6914 27.7573 14.3269 28.234C14.9625 28.7106 15.1213 29.3462 15.1213 30.1406C15.1213 30.7761 14.9625 31.4117 14.4858 31.8883C14.0091 32.365 13.5325 32.6827 12.7381 32.6827L15.1213 36.3371H13.3736ZM10.037 31.7294H11.6259C12.7381 31.7294 13.3736 31.2528 13.3736 30.1406C13.3736 29.6639 13.2147 29.3462 12.8969 29.0284C12.5792 28.7106 12.1025 28.5517 11.6259 28.5517H10.037V31.7294ZM21.4767 34.4305H17.6635L17.028 36.3371H15.4391L18.7757 27.4395H20.3645L23.7011 36.3371H22.1123L21.4767 34.4305ZM21.159 33.3183L19.729 29.1873L18.299 33.3183H21.159ZM31.0098 28.0751C31.6454 28.5517 32.2809 29.3462 32.4398 30.2995H30.851C30.6921 29.8228 30.3743 29.3462 29.8976 29.1873C29.421 28.8695 28.9443 28.7106 28.3088 28.7106C27.8321 28.7106 27.1966 28.8695 26.8788 29.0284C26.4022 29.3462 26.0844 29.6639 25.7666 30.1406C25.4489 30.6172 25.4489 31.2528 25.4489 31.8883C25.4489 32.5239 25.6077 33.1594 25.7666 33.6361C25.9255 34.1127 26.4022 34.4305 26.8788 34.7483C27.3555 35.066 27.991 35.2249 28.4677 35.066C29.1032 35.066 29.8976 34.9071 30.3743 34.4305C30.851 33.9538 31.1687 33.3183 31.3276 32.5239H27.991V31.4117H32.4398V32.8416C32.2809 33.4772 32.122 34.1127 31.8043 34.5894C31.4865 35.066 31.0098 35.5427 30.3743 35.8604C29.7388 36.1782 29.1032 36.3371 28.3088 36.3371C27.5144 36.3371 26.7199 36.1782 26.0844 35.7016C25.4489 35.3838 24.9722 34.7483 24.4956 34.1127C23.7011 32.6828 23.7011 30.935 24.4956 29.3462C24.8133 28.7106 25.4489 28.0751 26.0844 27.7573C26.7199 27.4395 27.5144 27.1218 28.3088 27.1218C29.421 27.4395 30.3743 27.5984 31.0098 28.0751ZM42.7673 27.5984V36.496H41.3374V29.8228L38.7952 36.496H37.5241L34.982 29.8228V36.496H33.552V27.5984H35.2997L38.1597 34.5894L41.0196 27.5984H42.7673ZM49.7583 34.4305H45.945L45.3095 36.3371H43.7206L47.0572 27.4395H48.6461L51.9827 36.3371H50.3938L49.7583 34.4305ZM49.4405 33.3183L48.0105 29.1873L46.5806 33.3183H49.4405ZM58.1792 27.4395V28.5517H55.637V36.3371H54.207V28.5517H51.8238V27.4395H58.1792ZM60.4036 27.4395V36.3371H58.9736V27.4395H60.4036ZM68.5067 28.234C69.3011 28.8695 69.7778 29.6639 69.9367 30.4584H68.3478C68.1889 29.9817 67.8712 29.5051 67.3945 29.1873C66.9178 28.8695 66.2823 28.7106 65.6468 28.7106C65.1701 28.7106 64.6935 28.8695 64.2168 29.0284C63.7401 29.3462 63.4224 29.6639 63.2635 30.1406C62.7868 31.2528 62.7868 32.5239 63.2635 33.4772C63.4224 33.9538 63.899 34.2716 64.2168 34.5894C64.6935 34.9071 65.1701 35.066 65.6468 34.9071C66.2823 34.9071 66.759 34.7483 67.3945 34.4305C67.8712 34.1127 68.1889 33.6361 68.3478 33.1594H69.9367C69.7778 34.1127 69.1422 34.9071 68.5067 35.3838C67.7123 35.8604 66.9178 36.1782 65.8057 36.1782C65.0112 36.1782 64.2168 36.0193 63.5813 35.5427C62.9457 35.2249 62.4691 34.5894 62.1513 33.9538C61.5158 32.5239 61.5158 30.7761 62.1513 29.1873C62.4691 28.5517 62.9457 27.9162 63.5813 27.5984C64.2168 27.2807 65.0112 26.9629 65.8057 26.9629C66.9178 27.2807 67.8712 27.5984 68.5067 28.234ZM76.7687 33.0005V36.496H75.3388V27.5984H78.3576C79.3109 27.5984 80.1053 27.9162 80.7408 28.3929C81.2175 28.8695 81.5353 29.505 81.5353 30.4584C81.5353 31.2528 81.2175 32.0472 80.7408 32.5239C80.2642 33.0005 79.4698 33.3183 78.5165 33.3183H76.7687V33.0005ZM79.9464 30.1406C79.9464 29.6639 79.7875 29.1873 79.4698 29.0284C79.152 28.7106 78.6753 28.5517 78.0398 28.5517H76.6098V31.7294H78.0398C79.4698 31.7294 79.9464 31.2528 79.9464 30.1406ZM83.9185 35.2249H86.9374V36.3371H82.4886V27.4395H83.9185V35.2249ZM93.6105 34.4305H89.7973L89.1618 36.3371H87.5729L90.9095 27.4395H92.4983L95.8349 36.3371H94.2461L93.6105 34.4305ZM93.2928 33.3183L91.8628 29.1873L90.4328 33.3183H93.2928ZM101.555 27.4395L98.536 33.1594V36.496H97.106V33.1594L94.0872 27.4395H95.676L97.7415 31.5706L99.807 27.4395H101.555Z" fill="white"/>
<path d="M33.8879 42.3234H35.0279V48.3534H37.3779V49.2734H33.8879V42.3234ZM38.3313 49.2734V43.7634H39.4713V49.2734H38.3313ZM38.9113 43.0334C38.5013 43.0334 38.1813 42.7134 38.1813 42.3034C38.1813 41.8934 38.5013 41.5734 38.9113 41.5734C39.3113 41.5734 39.6313 41.8934 39.6313 42.3034C39.6313 42.7134 39.3113 43.0334 38.9113 43.0334ZM40.318 43.7634H41.538L43.098 48.2534L44.658 43.7634H45.868L43.768 49.2734H42.408L40.318 43.7634ZM49.0497 44.6334C48.2797 44.6334 47.6597 45.1534 47.5397 46.0234H50.5897C50.5697 45.1734 49.8997 44.6334 49.0497 44.6334ZM51.6297 47.6334C51.3197 48.5934 50.4497 49.3634 49.0997 49.3634C47.5197 49.3634 46.3497 48.2434 46.3497 46.5134C46.3497 44.7834 47.4697 43.6734 49.0997 43.6734C50.6697 43.6734 51.7797 44.7634 51.7797 46.3834C51.7797 46.5734 51.7697 46.7534 51.7397 46.9434H47.5297C47.6097 47.8534 48.2597 48.4034 49.0997 48.4034C49.7997 48.4034 50.1897 48.0634 50.3997 47.6334H51.6297Z" fill="white"/>
</g>
</svg>
