<svg width="43" height="21" viewBox="0 0 43 21" fill="none" xmlns="http://www.w3.org/2000/svg">
<g style="mix-blend-mode:luminosity" clip-path="url(#clip0_777_2545)">
<path d="M36.8995 7.7487C34.7896 7.88057 35.7127 10.6498 38.0863 10.5179C40.394 10.3861 39.2072 7.61684 36.8995 7.7487Z" fill="#F19021"/>
<path d="M36.0424 6.03368C32.2842 6.03368 29.1853 9.13258 29.1853 12.9568C29.1853 16.7809 32.2842 19.8798 36.0424 19.8798C39.8007 19.8798 42.8996 16.7809 42.8996 12.9568C42.8996 9.13258 39.8007 6.03368 36.0424 6.03368ZM36.0424 19.0886C32.6798 19.0886 29.9106 16.3194 29.9106 12.8908C29.9106 9.46225 32.6798 6.69302 36.0424 6.69302C39.4051 6.69302 42.1743 9.46225 42.1743 12.8908C42.1743 16.3194 39.4051 19.0886 36.0424 19.0886ZM35.8446 1.22049C34.1963 2.47324 34.526 4.38532 34.526 4.38532C34.526 4.38532 33.471 1.68203 32.1523 0.0996094C31.9545 2.2095 32.6139 4.97873 32.6139 4.97873C32.6139 4.97873 31.7567 3.26444 29.7128 3.13258C31.4271 4.12159 32.0864 5.90181 32.2183 6.36335C33.2073 5.76994 34.3941 5.37434 35.5809 5.37434C35.449 4.84686 34.9875 3.00071 35.8446 1.22049Z" fill="#F19021"/>
<path d="M0.635765 13.6168V15.0674H0.0423584V11.3751H1.29511C1.69071 11.3751 2.02038 11.5069 2.28412 11.7047C2.54785 11.9025 2.61379 12.1663 2.61379 12.5619C2.61379 12.8915 2.48192 13.2212 2.28412 13.419C2.08631 13.6168 1.75664 13.7487 1.36104 13.7487H0.635765V13.6168ZM1.95445 12.43C1.95445 12.2322 1.88851 12.0344 1.75664 11.9685C1.62478 11.8366 1.42697 11.7707 1.16324 11.7707H0.569831V13.0894H1.16324C1.69071 13.0894 1.95445 12.8915 1.95445 12.43ZM5.05335 15.0014L4.13027 13.485H3.73467V15.0014H3.14126V11.3091H4.45994C4.85555 11.3091 5.18521 11.441 5.44895 11.6388C5.71269 11.8366 5.77862 12.1003 5.77862 12.43C5.77862 12.6937 5.71269 12.9575 5.51489 13.1553C5.31708 13.3531 5.11928 13.485 4.78961 13.485L5.77862 15.0014H5.05335ZM3.66873 13.0894H4.32807C4.78961 13.0894 5.05335 12.8915 5.05335 12.43C5.05335 12.2322 4.98741 12.1003 4.85555 11.9685C4.72368 11.8366 4.52587 11.7707 4.32807 11.7707H3.66873V13.0894ZM8.41598 14.2102H6.83357L6.56983 15.0014H5.91049L7.2951 11.3091H7.95445L9.33906 15.0014H8.67972L8.41598 14.2102ZM8.28412 13.7487L7.69071 12.0344L7.0973 13.7487H8.28412ZM12.372 11.5729C12.6358 11.7707 12.8995 12.1003 12.9654 12.4959H12.3061C12.2402 12.2981 12.1083 12.1003 11.9105 12.0344C11.7127 11.9025 11.5149 11.8366 11.2511 11.8366C11.0533 11.8366 10.7896 11.9025 10.6577 11.9685C10.4599 12.1003 10.3281 12.2322 10.1962 12.43C10.0643 12.6278 10.0643 12.8915 10.0643 13.1553C10.0643 13.419 10.1303 13.6828 10.1962 13.8806C10.2621 14.0784 10.4599 14.2102 10.6577 14.3421C10.8555 14.474 11.1193 14.5399 11.3171 14.474C11.5808 14.474 11.9105 14.408 12.1083 14.2102C12.3061 14.0124 12.438 13.7487 12.5039 13.419H11.1193V12.9575H12.9654V13.5509C12.8995 13.8146 12.8336 14.0784 12.7017 14.2762C12.5698 14.474 12.372 14.6718 12.1083 14.8036C11.8446 14.9355 11.5808 15.0014 11.2511 15.0014C10.9215 15.0014 10.5918 14.9355 10.3281 14.7377C10.0643 14.6058 9.86653 14.3421 9.66873 14.0784C9.33906 13.485 9.33906 12.7597 9.66873 12.1003C9.8006 11.8366 10.0643 11.5729 10.3281 11.441C10.5918 11.3091 10.9215 11.1773 11.2511 11.1773C11.7127 11.3091 12.1083 11.3751 12.372 11.5729ZM17.2511 11.3751V15.0674H16.6577V12.2981L15.6028 15.0674H15.0753L14.0204 12.2981V15.0674H13.427V11.3751H14.1522L15.3391 14.2762L16.5259 11.3751H17.2511ZM20.1522 14.2102H18.5698L18.3061 15.0014H17.6468L19.0314 11.3091H19.6907L21.0753 15.0014H20.416L20.1522 14.2102ZM20.0204 13.7487L19.427 12.0344L18.8336 13.7487H20.0204ZM23.6468 11.3091V11.7707H22.5918V15.0014H21.9984V11.7707H21.0094V11.3091H23.6468ZM24.5698 11.3091V15.0014H23.9764V11.3091H24.5698ZM27.9325 11.6388C28.2621 11.9025 28.4599 12.2322 28.5259 12.5619H27.8665C27.8006 12.3641 27.6687 12.1663 27.4709 12.0344C27.2731 11.9025 27.0094 11.8366 26.7457 11.8366C26.5479 11.8366 26.35 11.9025 26.1522 11.9685C25.9544 12.1003 25.8226 12.2322 25.7566 12.43C25.5588 12.8915 25.5588 13.419 25.7566 13.8146C25.8226 14.0124 26.0204 14.1443 26.1522 14.2762C26.35 14.408 26.5479 14.474 26.7457 14.408C27.0094 14.408 27.2072 14.3421 27.4709 14.2102C27.6687 14.0784 27.8006 13.8806 27.8665 13.6828H28.5259C28.4599 14.0784 28.1962 14.408 27.9325 14.6058C27.6028 14.8036 27.2731 14.9355 26.8116 14.9355C26.4819 14.9355 26.1522 14.8696 25.8885 14.6718C25.6248 14.5399 25.427 14.2762 25.2951 14.0124C25.0314 13.419 25.0314 12.6937 25.2951 12.0344C25.427 11.7707 25.6248 11.5069 25.8885 11.3751C26.1522 11.2432 26.4819 11.1113 26.8116 11.1113C27.2731 11.2432 27.6687 11.3751 27.9325 11.6388ZM31.361 13.6168V15.0674H30.7676V11.3751H32.0204C32.416 11.3751 32.7457 11.5069 33.0094 11.7047C33.2072 11.9025 33.3391 12.1663 33.3391 12.5619C33.3391 12.8915 33.2072 13.2212 33.0094 13.419C32.8116 13.6168 32.4819 13.7487 32.0863 13.7487H31.361V13.6168ZM32.6797 12.43C32.6797 12.2322 32.6138 12.0344 32.4819 11.9685C32.35 11.8366 32.1522 11.7707 31.8885 11.7707H31.2951V13.0894H31.8885C32.4819 13.0894 32.6797 12.8915 32.6797 12.43ZM34.3281 14.5399H35.5808V15.0014H33.7347V11.3091H34.3281V14.5399ZM38.35 14.2102H36.7676L36.5039 15.0014H35.8446L37.2292 11.3091H37.8885L39.2731 15.0014H38.6138L38.35 14.2102ZM38.2182 13.7487L37.6248 12.0344L37.0314 13.7487H38.2182ZM41.6468 11.3091L40.394 13.6828V15.0674H39.8006V13.6828L38.5479 11.3091H39.2072L40.0643 13.0234L40.9215 11.3091H41.6468Z" fill="white"/>
</g>
<defs>
<clipPath id="clip0_777_2545">
<rect width="42.8571" height="20" fill="white" transform="translate(0.0423584 0.0996094)"/>
</clipPath>
</defs>
</svg>
