<svg width="42" height="21" viewBox="0 0 42 21" fill="none" xmlns="http://www.w3.org/2000/svg">
<g style="mix-blend-mode:luminosity" clip-path="url(#clip0_777_2539)">
<path d="M35.9655 7.6333C33.9318 7.76041 34.8215 10.4297 37.1095 10.3026C39.3339 10.1755 38.1899 7.5062 35.9655 7.6333Z" fill="#F19021"/>
<path d="M35.1394 5.98158C31.5168 5.98158 28.5298 8.96862 28.5298 12.6548C28.5298 16.3409 31.5168 19.3279 35.1394 19.3279C38.762 19.3279 41.749 16.3409 41.749 12.6548C41.749 8.96862 38.762 5.98158 35.1394 5.98158ZM35.1394 18.5653C31.8981 18.5653 29.2289 15.896 29.2289 12.5912C29.2289 9.28639 31.8981 6.61712 35.1394 6.61712C38.3807 6.61712 41.0499 9.28639 41.0499 12.5912C41.0499 15.896 38.3807 18.5653 35.1394 18.5653ZM34.9487 1.34214C33.3599 2.54966 33.6777 4.39273 33.6777 4.39273C33.6777 4.39273 32.6608 1.78702 31.3897 0.261719C31.1991 2.29545 31.8346 4.96472 31.8346 4.96472C31.8346 4.96472 31.0084 3.31231 29.0382 3.1852C30.6906 4.13851 31.3262 5.85447 31.4533 6.29935C32.4066 5.72736 33.5506 5.34604 34.6945 5.34604C34.5674 4.83761 34.1225 3.0581 34.9487 1.34214Z" fill="#F19021"/>
<path d="M1.01083 13.2901V14.6882H0.438843V11.1292H1.64637C2.02769 11.1292 2.34546 11.2563 2.59968 11.447C2.85389 11.6376 2.91745 11.8919 2.91745 12.2732C2.91745 12.591 2.79034 12.9087 2.59968 13.0994C2.40902 13.2901 2.09125 13.4172 1.70992 13.4172H1.01083V13.2901ZM2.28191 12.1461C2.28191 11.9554 2.21835 11.7648 2.09125 11.7012C1.96414 11.5741 1.77348 11.5105 1.51926 11.5105H0.947275V12.7816H1.51926C2.02769 12.7816 2.28191 12.591 2.28191 12.1461ZM5.26895 14.6247L4.37919 13.1629H3.99787V14.6247H3.42588V11.0657H4.69696C5.07828 11.0657 5.39605 11.1928 5.65027 11.3834C5.90449 11.5741 5.96804 11.8283 5.96804 12.1461C5.96804 12.4003 5.90449 12.6545 5.71382 12.8452C5.52316 13.0358 5.3325 13.1629 5.01473 13.1629L5.96804 14.6247H5.26895ZM3.93431 12.7816H4.56985C5.01473 12.7816 5.26895 12.591 5.26895 12.1461C5.26895 11.9554 5.20539 11.8283 5.07828 11.7012C4.95118 11.5741 4.76051 11.5105 4.56985 11.5105H3.93431V12.7816ZM8.5102 13.862H6.9849L6.73069 14.6247H6.09515L7.42978 11.0657H8.06532L9.39996 14.6247H8.76442L8.5102 13.862ZM8.38309 13.4172L7.81111 11.7648L7.23912 13.4172H8.38309ZM12.3234 11.3199C12.5777 11.5105 12.8319 11.8283 12.8954 12.2096H12.2599C12.1963 12.019 12.0692 11.8283 11.8786 11.7648C11.6879 11.6376 11.4972 11.5741 11.243 11.5741C11.0524 11.5741 10.7981 11.6376 10.671 11.7012C10.4804 11.8283 10.3533 11.9554 10.2262 12.1461C10.0991 12.3367 10.0991 12.591 10.0991 12.8452C10.0991 13.0994 10.1626 13.3536 10.2262 13.5443C10.2897 13.7349 10.4804 13.862 10.671 13.9891C10.8617 14.1163 11.1159 14.1798 11.3066 14.1163C11.5608 14.1163 11.8786 14.0527 12.0692 13.862C12.2599 13.6714 12.387 13.4172 12.4505 13.0994H11.1159V12.6545H12.8954V13.2265C12.8319 13.4807 12.7683 13.7349 12.6412 13.9256C12.5141 14.1163 12.3234 14.3069 12.0692 14.434C11.815 14.5611 11.5608 14.6247 11.243 14.6247C10.9253 14.6247 10.6075 14.5611 10.3533 14.3705C10.0991 14.2434 9.90839 13.9891 9.71773 13.7349C9.39996 13.1629 9.39996 12.4639 9.71773 11.8283C9.84484 11.5741 10.0991 11.3199 10.3533 11.1928C10.6075 11.0657 10.9253 10.9386 11.243 10.9386C11.6879 11.0657 12.0692 11.1292 12.3234 11.3199ZM17.0264 11.1292V14.6882H16.4545V12.019L15.4376 14.6882H14.9292L13.9123 12.019V14.6882H13.3403V11.1292H14.0394L15.1834 13.9256L16.3273 11.1292H17.0264ZM19.8228 13.862H18.2975L18.0433 14.6247H17.4078L18.7424 11.0657H19.3779L20.7126 14.6247H20.077L19.8228 13.862ZM19.6957 13.4172L19.1237 11.7648L18.5517 13.4172H19.6957ZM23.1912 11.0657V11.5105H22.1743V14.6247H21.6023V11.5105H20.649V11.0657H23.1912ZM24.0809 11.0657V14.6247H23.5089V11.0657H24.0809ZM27.3222 11.3834C27.64 11.6376 27.8306 11.9554 27.8942 12.2732H27.2586C27.1951 12.0825 27.068 11.8919 26.8773 11.7648C26.6866 11.6376 26.4324 11.5741 26.1782 11.5741C25.9876 11.5741 25.7969 11.6376 25.6062 11.7012C25.4156 11.8283 25.2885 11.9554 25.2249 12.1461C25.0342 12.591 25.0342 13.0994 25.2249 13.4807C25.2885 13.6714 25.4791 13.7985 25.6062 13.9256C25.7969 14.0527 25.9876 14.1163 26.1782 14.0527C26.4324 14.0527 26.6231 13.9891 26.8773 13.862C27.068 13.7349 27.1951 13.5443 27.2586 13.3536H27.8942C27.8306 13.7349 27.5764 14.0527 27.3222 14.2434C27.0044 14.434 26.6866 14.5611 26.2418 14.5611C25.924 14.5611 25.6062 14.4976 25.352 14.3069C25.0978 14.1798 24.9071 13.9256 24.78 13.6714C24.5258 13.0994 24.5258 12.4003 24.78 11.7648C24.9071 11.5105 25.0978 11.2563 25.352 11.1292C25.6062 11.0021 25.924 10.875 26.2418 10.875C26.6866 11.0021 27.068 11.1292 27.3222 11.3834ZM30.627 13.2901V14.6882H30.055V11.1292H31.2625C31.6439 11.1292 31.9616 11.2563 32.2158 11.447C32.4065 11.6376 32.5336 11.8919 32.5336 12.2732C32.5336 12.591 32.4065 12.9087 32.2158 13.0994C32.0252 13.2901 31.7074 13.4172 31.3261 13.4172H30.627V13.2901ZM31.8981 12.1461C31.8981 11.9554 31.8345 11.7648 31.7074 11.7012C31.5803 11.5741 31.3896 11.5105 31.1354 11.5105H30.5634V12.7816H31.1354C31.7074 12.7816 31.8981 12.591 31.8981 12.1461ZM33.4869 14.1798H34.6945V14.6247H32.9149V11.0657H33.4869V14.1798ZM37.3637 13.862H35.8384L35.5842 14.6247H34.9487L36.2833 11.0657H36.9188L38.2535 14.6247H37.6179L37.3637 13.862ZM37.2366 13.4172L36.6646 11.7648L36.0926 13.4172H37.2366ZM40.5414 11.0657L39.3339 13.3536V14.6882H38.7619V13.3536L37.5544 11.0657H38.1899L39.0161 12.7181L39.8423 11.0657H40.5414Z" fill="white"/>
<path d="M13.4746 17.0207H13.9306V19.4327H14.8706V19.8007H13.4746V17.0207Z" fill="white"/>
<path d="M15.252 19.8007V17.5967H15.708V19.8007H15.252ZM15.484 17.3047C15.32 17.3047 15.192 17.1767 15.192 17.0127C15.192 16.8487 15.32 16.7207 15.484 16.7207C15.644 16.7207 15.772 16.8487 15.772 17.0127C15.772 17.1767 15.644 17.3047 15.484 17.3047Z" fill="white"/>
<path d="M16.0466 17.5967H16.5346L17.1586 19.3927L17.7826 17.5967H18.2666L17.4266 19.8007H16.8826L16.0466 17.5967Z" fill="white"/>
<path d="M19.5393 17.9447C19.2313 17.9447 18.9833 18.1527 18.9353 18.5007H20.1553C20.1473 18.1607 19.8793 17.9447 19.5393 17.9447ZM20.5713 19.1447C20.4473 19.5287 20.0993 19.8367 19.5593 19.8367C18.9273 19.8367 18.4593 19.3887 18.4593 18.6967C18.4593 18.0047 18.9073 17.5607 19.5593 17.5607C20.1873 17.5607 20.6313 17.9967 20.6313 18.6447C20.6313 18.7207 20.6273 18.7927 20.6153 18.8687H18.9313C18.9633 19.2327 19.2233 19.4527 19.5593 19.4527C19.8393 19.4527 19.9953 19.3167 20.0793 19.1447H20.5713Z" fill="white"/>
</g>
<defs>
<clipPath id="clip0_777_2539">
<rect width="41.6" height="20" fill="white" transform="translate(0.195435 0.0996094)"/>
</clipPath>
</defs>
</svg>
