<svg width="105" height="50" viewBox="0 0 105 50" fill="none" xmlns="http://www.w3.org/2000/svg">
<g style="mix-blend-mode:luminosity">
<path d="M89.6369 19.8411C84.5526 20.1588 86.777 26.832 92.4969 26.5142C98.0578 26.1965 95.1979 19.5233 89.6369 19.8411Z" fill="#F19021"/>
<path d="M87.5716 15.7098C78.5152 15.7098 71.0476 23.1774 71.0476 32.3927C71.0476 41.6081 78.5152 49.0757 87.5716 49.0757C96.6281 49.0757 104.096 41.6081 104.096 32.3927C104.096 23.1774 96.6281 15.7098 87.5716 15.7098ZM87.5716 47.169C79.4685 47.169 72.7953 40.4959 72.7953 32.2339C72.7953 23.9718 79.4685 17.2987 87.5716 17.2987C95.6748 17.2987 102.348 23.9718 102.348 32.2339C102.348 40.4959 95.6748 47.169 87.5716 47.169ZM87.095 4.1112C83.1229 7.13002 83.9173 11.7377 83.9173 11.7377C83.9173 11.7377 81.3751 5.2234 78.1974 1.41016C77.7208 6.49448 79.3096 13.1676 79.3096 13.1676C79.3096 13.1676 77.2441 9.03664 72.3187 8.71887C76.4497 11.1021 78.0385 15.392 78.3563 16.5042C80.7396 15.0743 83.5995 14.121 86.4595 14.121C86.1417 12.8499 85.0295 8.4011 87.095 4.1112Z" fill="#F19021"/>
<path d="M2.25028 33.9829V37.4784H0.820312V28.5809H3.83913C4.79244 28.5809 5.58686 28.8986 6.2224 29.3753C6.85794 29.8519 7.01683 30.4875 7.01683 31.4408C7.01683 32.2352 6.69906 33.0296 6.2224 33.5063C5.74575 33.9829 4.95132 34.3007 3.99801 34.3007H2.25028V33.9829ZM5.42798 31.123C5.42798 30.6464 5.26909 30.1697 4.95132 30.0108C4.63355 29.693 4.1569 29.5342 3.52136 29.5342H2.09139V32.7119H3.52136C4.79244 32.7119 5.42798 32.2352 5.42798 31.123ZM12.8956 37.3195L10.6712 33.6652H9.71787V37.3195H8.28791V28.422H11.4656C12.4189 28.422 13.2133 28.7397 13.8489 29.2164C14.4844 29.693 14.6433 30.3286 14.6433 31.123C14.6433 31.7586 14.4844 32.3941 14.0078 32.8707C13.5311 33.3474 13.0545 33.6652 12.26 33.6652L14.6433 37.3195H12.8956ZM9.55899 32.7119H11.1478C12.26 32.7119 12.8956 32.2352 12.8956 31.123C12.8956 30.6464 12.7367 30.3286 12.4189 30.0108C12.1011 29.693 11.6245 29.5342 11.1478 29.5342H9.55899V32.7119ZM20.9987 35.4129H17.1855L16.5499 37.3195H14.9611L18.2977 28.422H19.8865L23.2231 37.3195H21.6343L20.9987 35.4129ZM20.6809 34.3007L19.251 30.1697L17.821 34.3007H20.6809ZM30.5318 29.0575C31.1674 29.5342 31.8029 30.3286 31.9618 31.2819H30.3729C30.214 30.8052 29.8963 30.3286 29.4196 30.1697C28.943 29.8519 28.4663 29.693 27.8308 29.693C27.3541 29.693 26.7186 29.8519 26.4008 30.0108C25.9241 30.3286 25.6064 30.6464 25.2886 31.123C24.9708 31.5997 24.9708 32.2352 24.9708 32.8707C24.9708 33.5063 25.1297 34.1418 25.2886 34.6185C25.4475 35.0951 25.9241 35.4129 26.4008 35.7307C26.8775 36.0484 27.513 36.2073 27.9897 36.0484C28.6252 36.0484 29.4196 35.8896 29.8963 35.4129C30.3729 34.9363 30.6907 34.3007 30.8496 33.5063H27.513V32.3941H31.9618V33.8241C31.8029 34.4596 31.644 35.0951 31.3262 35.5718C31.0085 36.0484 30.5318 36.5251 29.8963 36.8429C29.2607 37.1606 28.6252 37.3195 27.8308 37.3195C27.0363 37.3195 26.2419 37.1606 25.6064 36.684C24.9708 36.3662 24.4942 35.7307 24.0175 35.0951C23.2231 33.6652 23.2231 31.9174 24.0175 30.3286C24.3353 29.693 24.9708 29.0575 25.6064 28.7397C26.2419 28.422 27.0363 28.1042 27.8308 28.1042C28.943 28.422 29.8963 28.5809 30.5318 29.0575ZM42.2893 28.5809V37.4784H40.8593V30.8052L38.3172 37.4784H37.0461L34.5039 30.8052V37.4784H33.074V28.5809H34.8217L37.6816 35.5718L40.5416 28.5809H42.2893ZM49.2802 35.4129H45.467L44.8315 37.3195H43.2426L46.5792 28.422H48.168L51.5046 37.3195H49.9158L49.2802 35.4129ZM48.9625 34.3007L47.5325 30.1697L46.1025 34.3007H48.9625ZM57.7011 28.422V29.5342H55.159V37.3195H53.729V29.5342H51.3457V28.422H57.7011ZM59.9255 28.422V37.3195H58.4956V28.422H59.9255ZM68.0287 29.2164C68.8231 29.8519 69.2998 30.6464 69.4586 31.4408H67.8698C67.7109 30.9641 67.3931 30.4875 66.9165 30.1697C66.4398 29.8519 65.8043 29.693 65.1687 29.693C64.6921 29.693 64.2154 29.8519 63.7388 30.0108C63.2621 30.3286 62.9444 30.6464 62.7855 31.123C62.3088 32.2352 62.3088 33.5063 62.7855 34.4596C62.9444 34.9363 63.421 35.254 63.7388 35.5718C64.2154 35.8896 64.6921 36.0484 65.1687 35.8896C65.8043 35.8896 66.2809 35.7307 66.9165 35.4129C67.3931 35.0951 67.7109 34.6185 67.8698 34.1418H69.4586C69.2998 35.0951 68.6642 35.8896 68.0287 36.3662C67.2342 36.8429 66.4398 37.1606 65.3276 37.1606C64.5332 37.1606 63.7388 37.0018 63.1032 36.5251C62.4677 36.2073 61.991 35.5718 61.6733 34.9363C61.0377 33.5063 61.0377 31.7586 61.6733 30.1697C61.991 29.5342 62.4677 28.8986 63.1032 28.5809C63.7388 28.2631 64.5332 27.9453 65.3276 27.9453C66.4398 28.2631 67.3931 28.5809 68.0287 29.2164ZM76.2907 33.9829V37.4784H74.8607V28.5809H77.8795C78.8329 28.5809 79.6273 28.8986 80.2628 29.3753C80.7395 29.8519 81.0572 30.4875 81.0572 31.4408C81.0572 32.2352 80.7395 33.0296 80.2628 33.5063C79.7862 33.9829 78.9917 34.3007 78.0384 34.3007H76.2907V33.9829ZM79.4684 31.123C79.4684 30.6464 79.3095 30.1697 78.9917 30.0108C78.674 29.693 78.1973 29.5342 77.5618 29.5342H76.1318V32.7119H77.5618C78.9917 32.7119 79.4684 32.2352 79.4684 31.123ZM83.4405 36.2073H86.4593V37.3195H82.0106V28.422H83.4405V36.2073ZM93.1325 35.4129H89.3193L88.6837 37.3195H87.0949L90.4315 28.422H92.0203L95.3569 37.3195H93.768L93.1325 35.4129ZM92.8147 34.3007L91.3848 30.1697L89.9548 34.3007H92.8147ZM101.077 28.422L98.0579 34.1418V37.4784H96.628V34.1418L93.6092 28.422H95.198L97.2635 32.553L99.329 28.422H101.077Z" fill="white"/>
</g>
</svg>
