<svg width="99" height="31" viewBox="0 0 99 31" fill="none" xmlns="http://www.w3.org/2000/svg">
<g id="rabcat" style="mix-blend-mode:luminosity" clip-path="url(#clip0_470_208)">
<g id="Group">
<path id="Vector" d="M28.6918 0.513672C28.6918 2.04367 28.6918 3.33367 28.6918 4.62367C28.6918 8.49367 28.6618 12.3337 28.6918 16.2037C28.6918 17.1037 28.5118 17.9137 27.9718 18.6037C26.7718 20.1937 25.5418 21.7237 24.2818 23.2837C23.4118 24.3637 22.4218 25.3537 21.6418 26.4937C19.5718 29.4337 16.6918 30.2437 13.3018 30.0037C10.8718 29.8237 9.01184 28.7437 7.54184 26.8537C6.19184 25.1137 4.69184 23.4937 3.28184 21.7837C2.50184 20.8237 1.75184 19.8337 1.00184 18.8137C0.431835 18.0037 0.161835 17.1337 0.161835 16.1137C0.191835 11.0737 0.161836 6.00367 0.131836 0.963672C0.131836 0.903672 0.161836 0.81367 0.221836 0.63367C2.56184 3.06367 4.87184 5.43367 7.18184 7.77367C12.0118 6.03367 16.8118 6.03367 21.6718 7.77367C23.9818 5.37367 26.2618 3.03367 28.6918 0.513672ZM4.93184 16.2937C4.87184 16.3237 4.84184 16.3537 4.78184 16.3837C4.84184 16.5937 4.87184 16.8037 4.96184 16.9837C5.56184 18.0037 6.16184 19.0237 6.79184 19.9837C6.97184 20.2237 7.30184 20.4337 7.60184 20.5237C8.68184 20.8837 9.79184 21.1837 10.9018 21.4837C11.0218 21.5137 11.1718 21.3637 11.3518 21.2737C9.16184 19.5937 7.06184 17.9437 4.93184 16.2937ZM17.5018 21.3937C17.5018 21.4537 17.5318 21.5137 17.5318 21.5437C17.9818 21.4837 18.4318 21.4837 18.8218 21.3337C19.7818 21.0037 20.7418 20.5837 21.6718 20.1937C21.8818 20.1037 22.0918 19.9237 22.2118 19.7437C22.7818 18.8437 23.3218 17.9437 23.8318 17.0437C23.9518 16.8337 24.0118 16.5637 24.1018 16.3237C24.0418 16.2937 24.0118 16.2637 23.9518 16.2637C21.8218 17.9737 19.6618 19.6837 17.5018 21.3937Z" fill="#F6D202"/>
<path id="Vector_2" d="M34.8718 8.25459C35.3818 8.25459 35.8318 8.25459 36.3118 8.25459C37.7218 8.25459 39.1618 8.22459 40.5718 8.28459C41.0518 8.31459 41.5918 8.43459 42.0118 8.64459C43.0618 9.12459 43.8718 9.93459 44.5018 10.8946C45.4918 12.3646 45.4318 13.8946 44.5618 15.3946C44.2618 15.9046 43.8718 16.3546 43.5718 16.8646C43.4518 17.0746 43.3318 17.3746 43.3918 17.5546C44.0518 19.1446 44.7418 20.7346 45.6418 22.3246C45.7318 22.0546 45.8218 21.7846 45.9118 21.4846C47.1718 17.2846 48.4018 13.1146 49.6318 8.91459C49.7818 8.37459 50.0218 8.16459 50.5618 8.19459C51.2818 8.22459 51.9718 8.25459 52.6918 8.19459C53.2018 8.16459 53.4418 8.34459 53.5918 8.82459C54.7618 12.3346 55.9918 15.8746 57.1918 19.3846C57.5218 20.3746 57.8818 21.3646 58.2418 22.4446C56.8318 22.4446 55.4818 22.4446 54.0418 22.4446C53.8618 21.8146 53.6818 21.0946 53.4718 20.3446C52.3318 20.3446 51.2218 20.3446 50.0218 20.3446C49.8118 21.0346 49.6318 21.7246 49.3918 22.5046C48.6718 22.5046 47.9818 22.5046 47.2618 22.5046C45.4918 22.5046 43.6918 22.4746 41.9218 22.5046C41.4418 22.5046 41.2018 22.3546 40.9918 21.9346C40.3618 20.7346 39.7018 19.5346 38.9218 18.3646C38.9218 19.6846 38.9218 21.0346 38.9218 22.4146C37.5118 22.4146 36.1918 22.4146 34.8418 22.4146C34.8718 17.7346 34.8718 13.0546 34.8718 8.25459ZM38.9218 15.7246C39.6118 15.2146 40.2118 14.8546 40.6918 14.3746C41.1418 13.9546 41.1118 13.4746 40.7518 12.9946C40.3018 12.3946 39.7018 12.0046 38.9218 11.7346C38.9218 13.0546 38.9218 14.2846 38.9218 15.7246ZM51.9118 14.2846C51.8518 14.2846 51.7918 14.2846 51.7318 14.2846C51.4618 15.1246 51.2218 15.9646 50.9518 16.8646C51.6118 16.8646 52.1218 16.8646 52.7518 16.8646C52.4518 15.9646 52.1818 15.1246 51.9118 14.2846Z" fill="#F6D202"/>
<path id="Vector_3" d="M82.5118 8.19422C83.5318 8.19422 84.4918 8.22422 85.4218 8.19422C85.9318 8.16422 86.1118 8.37422 86.2618 8.82422C87.1318 11.4042 88.0018 13.9842 88.8718 16.5642C89.4418 18.2442 90.0118 19.9542 90.5818 21.6342C90.6718 21.9042 90.7618 22.1742 90.8818 22.5342C89.5618 22.5342 88.3318 22.5642 87.1018 22.5042C86.9218 22.5042 86.6818 22.2342 86.6218 22.0542C86.4418 21.5142 86.3218 20.9742 86.2018 20.3742C85.0618 20.3742 83.9218 20.3742 82.7218 20.3742C82.5718 20.8842 82.4218 21.4242 82.3018 21.9642C82.2118 22.3542 82.0618 22.5342 81.6118 22.5342C78.5818 22.5342 75.5518 22.5642 72.5218 22.5642C72.1918 22.5642 71.8318 22.3542 71.5618 22.1142C69.3118 20.1942 68.5618 17.7042 68.8018 14.8542C68.9818 12.5742 69.7918 10.5642 71.4418 8.91422C71.9518 8.40422 72.4918 8.16422 73.2418 8.19422C74.8618 8.25422 76.4518 8.22422 78.1318 8.22422C78.1318 9.45422 78.1318 10.6542 78.1318 11.9442C77.1718 11.9442 76.2118 12.0342 75.2818 11.9142C74.3518 11.8242 73.8718 12.2742 73.4518 12.9642C72.3718 14.7942 72.4918 17.1342 73.7818 18.5142C74.1118 18.8742 74.4418 19.0542 74.9518 19.0542C76.0018 19.0242 77.0518 19.0542 78.1618 19.0542C78.1618 20.1042 78.1618 21.0942 78.1618 22.0542C78.2518 22.0842 78.3118 22.0842 78.4018 22.1142C79.1518 19.8642 79.7818 17.5542 80.4718 15.2442C81.1018 12.9342 81.7918 10.5942 82.5118 8.19422ZM83.5918 16.8642C84.2518 16.8642 84.7918 16.8642 85.3918 16.8642C85.0918 15.9342 84.8218 15.0942 84.5518 14.2542C84.4918 14.2542 84.4618 14.2542 84.4018 14.2542C84.1618 15.0942 83.8918 15.9042 83.5918 16.8642Z" fill="#F6D202"/>
<path id="Vector_4" d="M59.0217 8.19336C61.0917 8.19336 63.1017 8.19336 65.1117 8.19336C65.3217 8.19336 65.5617 8.28336 65.7417 8.43336C66.6417 9.06336 67.3317 9.87336 67.8117 10.8634C68.3817 12.0934 68.3817 13.2634 67.6017 14.4034C67.3317 14.7934 67.0917 15.2134 66.7917 15.6934C67.0917 16.0534 67.3917 16.4134 67.7217 16.7734C68.9217 18.1834 68.9517 19.0534 67.7217 20.4334C67.0917 21.1234 66.3417 21.6934 65.6217 22.2634C65.4717 22.3834 65.2017 22.4734 64.9917 22.4734C63.0417 22.5034 61.0917 22.4734 59.0517 22.4734C59.0217 17.7634 59.0217 13.0234 59.0217 8.19336ZM62.6817 16.5934C62.6817 17.6734 62.6817 18.5134 62.6817 19.5934C63.2217 19.1734 63.6117 18.8434 64.0017 18.5134C64.2717 18.2734 64.2417 18.0034 64.0017 17.7634C63.6117 17.4034 63.2217 17.0434 62.6817 16.5934ZM62.6817 14.2534C62.7417 14.2834 62.8017 14.3134 62.8617 14.3734C63.3417 13.9234 63.8217 13.4734 64.4217 12.9334C63.7917 12.4234 63.2817 12.0334 62.6817 11.5234C62.6817 12.5734 62.6817 13.4134 62.6817 14.2534Z" fill="#F6D202"/>
<path id="Vector_5" d="M98.3818 8.22461C98.3818 9.63461 98.3818 10.9546 98.3818 12.3946C97.4818 12.3946 96.5818 12.3946 95.5318 12.3946C95.5318 15.8146 95.5318 19.1146 95.5318 22.4446C94.0918 22.4446 92.8318 22.4446 91.4518 22.4446C91.4518 19.1146 91.4518 15.8146 91.4518 12.4546C90.4618 12.4546 89.5918 12.4546 88.6318 12.4546C88.6318 11.0146 88.6318 9.66461 88.6318 8.22461C91.8418 8.22461 95.0818 8.22461 98.3818 8.22461Z" fill="#F6D202"/>
</g>
</g>
<defs>
<clipPath id="clip0_470_208">
<rect width="98.4" height="30" fill="white" transform="translate(0.0717773 0.273438)"/>
</clipPath>
</defs>
</svg>
