<svg width="88" height="29" viewBox="0 0 88 29" fill="none" xmlns="http://www.w3.org/2000/svg">
<g id="REAL DEALER" style="mix-blend-mode:luminosity" clip-path="url(#clip0_471_240)">
<path id="Union" fill-rule="evenodd" clip-rule="evenodd" d="M28.6147 14.119C28.5562 6.64951 22.0399 0.318563 14.3861 0.273438V2.07826C23.1271 2.20974 29.6002 11.3842 25.7236 19.3107C23.616 23.6197 19.2898 26.4312 14.3861 26.5152V28.2733C22.6794 28.2284 28.6721 21.4496 28.6147 14.119ZM21.8781 9.63192L14.3861 7.80468V18.1241H20.5412C21.057 15.1573 21.8781 9.63192 21.8781 9.63192ZM20.4505 19.3107H14.3861V20.7941H20.4505V19.3107ZM20.006 10.7628L20.0058 10.7644C19.5408 14.2673 19.5408 14.2677 19.1612 16.6662L15.144 16.4924L15.4473 9.81734L20.006 10.7628ZM0.157391 14.1191C0.215849 6.64956 6.73228 0.31859 14.386 0.273522V2.07834C5.64503 2.20975 -0.828106 11.3843 3.04851 19.3108C5.15613 23.6198 9.48237 26.4314 14.386 26.5153V28.2734C6.09271 28.2285 0.10002 21.4497 0.157391 14.1191ZM6.89401 9.63201L14.386 7.80474V18.1241H8.23093C7.71511 15.1574 6.89401 9.63201 6.89401 9.63201ZM8.32159 19.3108H14.386V20.7942H8.32159V19.3108ZM8.76612 10.7629L8.76633 10.7645C9.23124 14.2674 9.23129 14.2678 9.61091 16.6663L13.628 16.4925L13.3248 9.81743L8.76612 10.7629Z" fill="#DDB75E"/>
<g id="REAL">
<path d="M42.5002 4.44518C42.5002 3.33185 41.864 2.61614 40.4485 2.61614H38.4445V6.32194H40.4485C41.864 6.32194 42.5002 5.54261 42.5002 4.44518ZM36.6313 1.137H40.4485C43.0728 1.137 44.3611 2.64795 44.3611 4.44518C44.3611 5.74937 43.6612 7.14899 41.8004 7.61023L44.536 12.1908H42.373L39.8282 7.76927H38.4445V12.1908H36.6313V1.137Z" fill="white"/>
<path d="M52.2313 1.12109V2.60023H47.937V5.8448H51.7541V7.32394H47.937V10.7117H52.2313V12.1908H46.1239V1.12109H52.2313Z" fill="white"/>
<path d="M61.3672 12.1908L60.572 9.93232H55.9437L55.1484 12.1908H53.2558L57.2161 1.12109H59.3155L63.2758 12.1908H61.3672ZM60.063 8.45318L58.2658 3.31595L56.4526 8.45318H60.063Z" fill="white"/>
<path d="M64.441 1.137H66.2542V10.7276H69.9918V12.1908H64.441V1.137Z" fill="white"/>
</g>
<g id="DEALER">
<path d="M40.2417 17.1565C43.7885 17.1565 46.1106 19.3037 46.1106 22.7232C46.1106 26.1268 43.7885 28.2103 40.2417 28.2103H36.6313V17.1565H40.2417ZM38.4445 26.7312H40.2417C42.8501 26.7312 44.2497 25.2361 44.2497 22.7232C44.2497 20.1943 42.8501 18.6357 40.2417 18.6357H38.4445V26.7312Z" fill="white"/>
<path d="M53.2993 17.1406V18.6198H49.005V21.8643H52.8221V23.3435H49.005V26.7312H53.2993V28.2103H47.1918V17.1406H53.2993Z" fill="white"/>
<path d="M62.2761 28.2103L61.4809 25.9518H56.8526L56.0574 28.2103H54.1647L58.125 17.1406H60.2244L64.1847 28.2103H62.2761ZM60.9719 24.4727L59.1747 19.3355L57.3616 24.4727H60.9719Z" fill="white"/>
<path d="M65.1909 17.1565H67.004V26.7471H70.7417V28.2103H65.1909V17.1565Z" fill="white"/>
<path d="M77.6497 17.1406V18.6198H73.3554V21.8643H77.1725V23.3435H73.3554V26.7312H77.6497V28.2103H71.5422V17.1406H77.6497Z" fill="white"/>
<path d="M85.036 20.4647C85.036 19.3514 84.3999 18.6357 82.9843 18.6357H80.9803V22.3415H82.9843C84.3999 22.3415 85.036 21.5621 85.036 20.4647ZM79.1672 17.1565H82.9843C85.6086 17.1565 86.8969 18.6675 86.8969 20.4647C86.8969 21.7689 86.1971 23.1685 84.3362 23.6298L87.0718 28.2103H84.9088L82.364 23.7888H80.9803V28.2103H79.1672V17.1565Z" fill="white"/>
</g>
</g>
<defs>
<clipPath id="clip0_471_240">
<rect width="86.9148" height="28" fill="white" transform="translate(0.156982 0.273438)"/>
</clipPath>
</defs>
</svg>
