<svg width="113" height="23" viewBox="0 0 113 23" fill="none" xmlns="http://www.w3.org/2000/svg">
<g id="retro gaming" style="mix-blend-mode:luminosity" clip-path="url(#clip0_461_566)">
<g id="&#208;&#161;&#208;&#187;&#208;&#190;&#208;&#185; 2">
<g id="&#208;&#161;&#208;&#187;&#208;&#190;&#208;&#185; 1">
<path id="Vector" d="M0.254883 0.482422H18.881C22.037 0.482422 25.1967 0.482422 28.3673 0.482422C29.2466 0.482422 30.0675 0.544448 30.852 1.47119V21.8303C30.4434 22.1952 29.8705 22.0128 29.3488 22.0164C20.6651 22.0164 11.9815 22.0164 3.29781 22.0164C0.718254 22.0091 0.254883 21.5312 0.254883 18.9078C0.254883 12.8439 0.254883 6.78354 0.254883 0.482422ZM4.95792 3.44873C3.9801 4.16021 3.57146 4.82425 3.5824 5.77653C3.61524 8.20285 3.5824 10.6292 3.60429 13.0737C3.62254 14.493 4.33401 15.3942 5.81899 15.3979C12.3694 15.4173 18.9211 15.4173 25.474 15.3979C26.8276 15.3979 27.612 14.6463 27.6157 13.227C27.6157 10.6729 27.6157 8.11893 27.6157 5.58316C27.6157 4.27696 26.9188 3.49251 25.6199 3.48521C18.7058 3.43049 11.7917 3.44873 4.95792 3.44873ZM27.4625 19.404C27.7434 17.7658 27.0757 17.6272 26.2584 17.6272H4.99806C4.3559 17.6272 3.76848 17.7074 3.66632 18.5138C3.6944 18.7598 3.8131 18.9865 3.99928 19.1498C4.18545 19.313 4.42576 19.4011 4.67333 19.3967C12.2648 19.4089 19.8612 19.4113 27.4625 19.404Z" fill="#EF5C25"/>
<path id="Vector_2" d="M112.562 12.1576C112.635 13.1464 112.73 13.8615 112.478 14.7116H103.974C103.525 16.2841 103.787 17.7217 103.769 19.3563C105.648 19.3563 107.451 19.6044 109.209 18.9075C107.87 18.0975 106.4 18.5901 104.966 18.2763C104.762 17.4922 104.775 16.6676 105.002 15.8901H112.537V22.0088C109.114 22.0088 105.729 22.0416 102.346 21.9906C102.084 22.0038 101.822 21.9625 101.576 21.8692C101.331 21.7759 101.107 21.6326 100.92 21.4484C100.733 21.2642 100.586 21.0431 100.488 20.7992C100.391 20.5553 100.345 20.2938 100.354 20.0313C100.281 18.0902 100.285 16.1382 100.354 14.1935C100.398 12.9165 101.16 12.1539 102.452 12.1393C105.772 12.1175 109.103 12.1576 112.562 12.1576Z" fill="#F38422"/>
<path id="Vector_3" d="M48.7811 15.9316V22.0102C45.304 22.0102 41.9181 22.0613 38.5395 21.981C38.2939 21.9895 38.0492 21.9467 37.8211 21.8553C37.5929 21.7638 37.3864 21.6258 37.2147 21.4499C37.043 21.2741 36.9099 21.0644 36.8239 20.8341C36.7378 20.6039 36.7008 20.3583 36.7152 20.1129C36.686 18.1098 36.6641 16.0995 36.7152 14.1073C36.7335 12.8814 37.4449 12.1663 38.6563 12.148C41.9838 12.1006 45.3113 12.148 48.5987 12.148C49.146 12.9945 48.7264 13.7826 48.9635 14.7021H40.2471C39.8457 16.3147 40.1048 17.7888 40.05 19.365C42.002 19.427 43.7789 19.5437 45.4828 18.9271C44.0854 18.1646 42.6223 18.5842 41.2468 18.3105C40.9914 17.5151 41.1118 16.7963 41.1483 15.9426L48.7811 15.9316Z" fill="#F38422"/>
<path id="Vector_4" d="M72.0301 17.0373L75.2883 12.243C78.3933 12.046 78.8421 12.4546 78.8457 15.3699C78.8457 17.497 78.8457 19.6205 78.8457 21.7987C77.7511 22.2256 76.6821 21.9884 75.4963 21.9957V17.2671C73.8508 18.6463 73.3874 20.6056 71.8258 21.8096L68.8194 17.3073C68.3232 18.8871 68.7719 20.3757 68.4983 21.8863C67.4657 22.1709 66.4113 21.9702 65.2146 21.9957C65.2146 19.2447 65.1379 16.6432 65.2437 14.0491C65.3058 12.4619 66.2654 12.0314 68.8048 12.2248L72.0301 17.0373Z" fill="#F38422"/>
<path id="Vector_5" d="M55.9652 7.7177H64.5796C65.0283 8.62619 64.751 9.40335 64.8605 10.3666C61.1937 10.3666 57.6363 10.4359 54.0862 10.3264C52.842 10.29 52.4735 9.17348 52.4589 8.05701C52.437 6.29474 52.4407 4.53247 52.4589 2.7702C52.4772 1.28522 53.3163 0.526315 54.7429 0.508072C58.0267 0.467937 61.3104 0.508072 64.5686 0.508072C65.032 1.31441 64.7948 2.08791 64.7729 2.95263C61.8541 3.48168 58.7892 2.70088 55.885 3.38316V4.00343H63.1128C63.4085 4.89824 63.4326 5.86056 63.1821 6.76906C61.865 6.76906 60.5406 6.67055 59.238 6.79825C58.1434 6.89311 56.8081 6.22907 55.9652 7.7177Z" fill="#EF5C25"/>
<path id="Vector_6" d="M94.1042 7.54205L96.2933 10.2457C95.0747 10.5485 94.0202 10.3551 92.9184 10.377L90.1454 7.24651C89.3719 7.12246 88.5984 6.98746 87.7082 7.33408L87.5695 10.253C86.5041 10.5266 85.4351 10.3515 84.2566 10.3515V0.503906C87.7556 0.503906 91.2509 0.503906 94.7499 0.503906C95.052 0.522062 95.3416 0.63006 95.5818 0.814037C97.231 2.04726 96.4976 3.83142 96.5049 5.38573C96.5049 6.4803 95.6037 7.02394 94.5055 7.11151C94.3596 7.1407 94.1443 7.12246 94.1042 7.54205ZM87.7921 4.37142H93.0205C93.1044 3.8971 93.1738 3.53954 92.7943 3.18562H87.8468C87.7357 3.36157 87.6722 3.5634 87.6626 3.77128C87.653 3.97917 87.6976 4.18598 87.7921 4.37142Z" fill="#EF5C25"/>
<path id="Vector_7" d="M36.7773 0.482717C40.2472 0.482717 43.5126 0.464474 46.7818 0.482717C48.2412 0.482717 49.0001 1.28906 49.0439 2.74849C49.0609 3.29335 49.0609 3.83821 49.0439 4.38306C48.9892 6.3606 48.5258 6.87506 46.4644 7.21438C46.8548 8.41476 48.0734 9.01313 48.6097 10.261H45.3041L42.5348 7.17424C41.7817 7.05294 41.0128 7.06901 40.2654 7.22167C39.7582 8.17395 40.3347 9.26853 39.8495 10.3011H36.7773V0.482717ZM40.2909 3.15349C40.0282 3.6424 39.9991 3.97442 40.2909 4.39401C41.9835 4.53135 43.6845 4.53135 45.3771 4.39401C45.5486 3.8978 45.6471 3.50011 45.1837 3.15349H40.2909Z" fill="#EF5C25"/>
<path id="Vector_8" d="M54.3269 21.9629H50.9702C50.9702 19.2228 50.8936 16.4645 51.0104 13.7171C51.0542 12.721 51.9298 12.1774 52.9551 12.1664C55.6806 12.1372 58.4061 12.1664 61.1352 12.1445C61.9379 12.1445 62.4816 12.5897 63.058 13.2391C63.2842 16.0668 63.1529 18.9492 63.1456 21.8936C62.1082 22.0876 61.0465 22.1147 60.0005 21.9738C59.4642 20.9814 60.0005 19.9014 59.5955 18.8506H54.3269V21.9629ZM54.4072 16.0266H59.5152C59.6579 15.8592 59.7342 15.6452 59.7295 15.4252C59.7248 15.2053 59.6394 14.9947 59.4897 14.8335H54.5313C54.1883 15.2203 54.2868 15.5669 54.4036 16.0266H54.4072Z" fill="#F38422"/>
<path id="Vector_9" d="M112.632 1.94243C112.632 4.00388 112.654 6.06534 112.632 8.14504C112.61 9.70663 111.968 10.4035 110.443 10.4291C107.772 10.4728 105.101 10.4291 102.416 10.4509C100.982 10.4509 100.267 9.69934 100.226 8.33841C100.175 6.45938 100.197 4.57671 100.226 2.69404C100.252 1.29662 101.066 0.563256 102.416 0.541365C105.086 0.493933 107.757 0.541365 110.443 0.523122C111.424 0.482987 112.026 1.01568 112.632 1.94243ZM109.176 3.24862H103.78C103.602 4.74532 103.602 6.25794 103.78 7.75464C105.623 7.80936 107.392 7.91882 109.18 7.68166L109.176 3.24862Z" fill="#EF5C25"/>
<path id="Vector_10" d="M89.5105 16.5362V21.8923C88.3283 22.1441 87.2775 22.0018 86.0662 21.9872C86.0662 19.2471 85.9677 16.642 86.1027 14.0515C86.1866 12.4643 87.1972 12.052 89.941 12.2272L94.717 17.919C95.3227 15.9232 94.7973 14.1171 95.1256 12.3184C96.1363 12.0046 97.1433 12.1542 98.3802 12.2272C98.3802 14.9198 98.424 17.576 98.3583 20.2249C98.3291 21.2793 97.541 21.8376 96.5778 22.0091C95.9164 22.0663 95.2516 22.0724 94.5893 22.0273L89.9045 16.4158L89.5105 16.5362Z" fill="#F38422"/>
<path id="Vector_11" d="M72.8399 3.11386H68.717C68.1442 2.32211 68.4543 1.53037 68.4215 0.632812H80.5239C80.7618 1.36642 80.7833 2.15306 80.5859 2.89859C79.2651 3.39845 77.8385 2.8767 76.2842 3.26345V10.3052H72.8509L72.8399 3.11386Z" fill="#EF5C25"/>
<path id="Vector_12" d="M84.085 12.2095V21.9257H80.8013V12.381C81.8521 11.9431 82.9102 12.1912 84.085 12.2095Z" fill="#F38422"/>
<path id="Vector_13" d="M12.8315 5.28516H18.0855V13.5054H12.8315V5.28516ZM16.772 8.05079C15.7723 7.77715 14.9879 7.61296 14.2545 8.14201C14.3311 8.96294 15.2834 8.44849 15.4476 9.04686C15.2579 9.69995 14.4771 10.1414 14.9112 11.2798C15.8545 10.4244 16.5064 9.29533 16.7757 8.05079H16.772Z" fill="#EF5C25"/>
<path id="Vector_14" d="M25.3645 13.523H20.1506V5.30273H25.3681L25.3645 13.523ZM24.2006 7.90418C23.1498 7.90418 22.3763 7.57946 21.6466 8.02094C21.6466 8.93673 22.639 8.48796 22.7411 8.93673C22.6828 9.73943 21.7049 10.1663 22.3763 11.1843C23.2665 10.3159 23.7445 9.34903 24.2006 7.90053V7.90418Z" fill="#EF5C25"/>
<path id="Vector_15" d="M5.65112 13.4434V5.28516H10.916V13.4434H5.65112ZM7.73082 11.1047C8.73419 10.3275 9.19026 9.3278 9.46026 8.11282C9.08752 7.93047 8.68085 7.82786 8.26622 7.81152C7.85159 7.79519 7.43811 7.8655 7.05218 8.01795C7.03394 8.9447 8.02636 8.49592 8.14676 9.04321C8.09933 9.74374 7.02299 10.1305 7.73082 11.1047Z" fill="#EF5C25"/>
</g>
</g>
</g>
<defs>
<clipPath id="clip0_461_566">
<rect width="112.391" height="22" fill="white" transform="translate(0.254883 0.273438)"/>
</clipPath>
</defs>
</svg>
