<svg width="99" height="29" viewBox="0 0 99 29" fill="none" xmlns="http://www.w3.org/2000/svg">
<g id="revolver" clip-path="url(#clip0_470_221)">
<g id="Group">
<path id="Vector" d="M29.3874 13.0565C29.357 13.1174 29.3265 13.1783 29.2657 13.2391C28.6874 13.8478 28.17 14.487 27.7135 15.187C26.4961 17.0131 25.7352 19.0218 25.4309 21.1826C25.2483 22.4 25.2179 23.6478 25.4005 24.8652C25.4309 25.0174 25.37 25.1391 25.2483 25.2609C24.1831 26.3261 22.9657 27.2087 21.657 27.9391C21.5048 28.0305 21.3222 28.1218 21.17 28.1826C21.1092 28.2131 20.9874 28.2131 20.9265 28.1826C19.3744 27.4826 17.7613 27.0565 16.0874 26.9044C14.0483 26.7218 12.0396 26.9652 10.0918 27.6044C9.60481 27.7565 9.11785 27.9696 8.66133 28.1826C8.44829 28.2739 8.29611 28.2435 8.14394 28.1522C7.65698 27.8783 7.17003 27.6044 6.7135 27.3C5.89177 26.7826 5.16133 26.1739 4.46133 25.5348C4.33959 25.4131 4.27872 25.2913 4.30916 25.1087C4.4309 24.287 4.46133 23.4348 4.4309 22.6131C4.37003 21.3957 4.18742 20.2087 3.8222 19.0522C3.45698 17.9261 3.00046 16.8 2.39177 15.7957C1.78307 14.8218 1.1135 13.9391 0.322201 13.1174C0.230896 13.0261 0.200461 12.9348 0.230895 12.7826C0.474374 11.2 0.961331 9.70871 1.69177 8.30871C1.75264 8.18697 1.8135 8.15654 1.93524 8.12611C4.00481 7.57828 5.9222 6.66523 7.62655 5.35654C9.17872 4.13915 10.457 2.67828 11.4309 0.973932C11.5222 0.791323 11.6439 0.669582 11.8874 0.639147C13.8048 0.27393 15.7526 0.27393 17.67 0.639147C17.8222 0.669582 17.9135 0.730453 17.9744 0.882627C18.6439 2.13045 19.4961 3.2261 20.5005 4.23045C21.4439 5.17393 22.5396 5.99567 23.6961 6.6348C24.9439 7.3348 26.2526 7.82176 27.6526 8.12611C27.7744 8.15654 27.8352 8.21741 27.8961 8.33915C28.5048 9.5261 28.9613 10.8044 29.2352 12.1131C29.2657 12.387 29.3265 12.7218 29.3874 13.0565ZM14.7787 4.26089C13.5309 4.26089 12.3135 4.47393 11.1265 4.86958C9.05698 5.60002 7.35264 6.84784 6.04394 8.6435C4.33959 10.9565 3.67003 13.5739 4.06568 16.4348C4.33959 18.5348 5.19177 20.3913 6.59177 21.9739C7.65698 23.1913 8.90481 24.1044 10.3657 24.7435C12.77 25.7783 15.2352 25.9913 17.7309 25.2609C20.957 24.3174 23.27 22.3087 24.67 19.2348C25.5222 17.3783 25.7657 15.4305 25.4613 13.4218C25.0961 11.0478 24.0613 9.00871 22.3265 7.3348C20.2265 5.29567 17.7005 4.29132 14.7787 4.26089Z" fill="white"/>
<path id="Vector_2" d="M65.757 14.2749C65.757 16.4662 65.757 18.6575 65.757 20.8488C65.757 20.9705 65.757 21.0923 65.7265 21.1836C65.6352 21.7009 65.3309 21.9749 64.8439 22.0357C64.7526 22.0662 64.6309 22.0662 64.5091 22.0662C62.7135 22.0662 60.9483 22.0662 59.1526 22.0662C59.0309 22.0662 58.9091 22.0662 58.8178 22.0357C58.3004 21.9444 57.9961 21.6401 57.9352 21.1531C57.9048 21.001 57.9048 20.8183 57.9048 20.6662C57.9048 16.3749 57.9048 12.114 57.9048 7.82269C57.9048 7.64008 57.9048 7.42704 57.9657 7.24443C58.057 6.81834 58.3613 6.57486 58.757 6.48356C58.9091 6.45312 59.0917 6.45313 59.2439 6.45313C60.9483 6.45313 62.6526 6.45313 64.357 6.45313C64.4787 6.45313 64.6309 6.45312 64.7526 6.48356C65.3613 6.54443 65.7265 6.90965 65.757 7.54878C65.757 7.64008 65.757 7.73138 65.757 7.79225C65.757 9.95312 65.757 12.114 65.757 14.2749ZM60.2178 8.49225C60.2178 12.3575 60.2178 16.1923 60.2178 20.0575C61.283 20.0575 62.3178 20.0575 63.383 20.0575C63.383 16.1923 63.383 12.3575 63.383 8.49225C62.3483 8.49225 61.283 8.49225 60.2178 8.49225Z" fill="white"/>
<path id="Vector_3" d="M92.5701 22.065C91.7788 22.065 91.0179 22.065 90.2571 22.065C90.2571 16.8607 90.2571 11.6868 90.2571 6.48242C90.3179 6.48242 90.4093 6.48242 90.4701 6.48242C92.4788 6.48242 94.518 6.48242 96.5266 6.48242C96.7701 6.48242 97.044 6.51286 97.2571 6.60416C97.5614 6.7259 97.7136 6.96938 97.7745 7.27373C97.8049 7.4259 97.8353 7.60851 97.8353 7.76068C97.8353 9.76938 97.8353 11.7476 97.8353 13.7563C97.8353 13.8172 97.8353 13.8781 97.8353 13.9389C97.7745 14.5781 97.4397 14.9129 96.8006 14.9737C96.4353 15.0042 96.0701 15.0346 95.6745 15.0346C96.5267 17.3781 97.3788 19.7216 98.231 22.065C97.4093 22.065 96.618 22.065 95.7962 22.065C95.6745 21.7607 95.5832 21.4563 95.4614 21.1216C94.731 19.0824 94.0006 17.0433 93.3006 14.9737C93.2701 14.9129 93.2397 14.852 93.2397 14.7607C93.2397 14.3042 93.2397 13.8781 93.2397 13.3911C94.0006 13.3911 94.7614 13.3911 95.5223 13.3911C95.5223 11.7476 95.5223 10.1042 95.5223 8.46068C94.5484 8.46068 93.6049 8.46068 92.6006 8.46068C92.5701 12.9955 92.5701 17.4998 92.5701 22.065Z" fill="white"/>
<path id="Vector_4" d="M35.2004 22.065C34.4091 22.065 33.6482 22.065 32.8569 22.065C32.8569 16.8607 32.8569 11.6868 32.8569 6.48242C32.9482 6.48242 33.0091 6.48242 33.1004 6.48242C35.1091 6.48242 37.0874 6.48242 39.0961 6.48242C39.3091 6.48242 39.5222 6.51286 39.7048 6.54329C40.1004 6.63459 40.3135 6.87807 40.4048 7.27373C40.4352 7.4259 40.4656 7.57807 40.4656 7.73025C40.4656 9.73894 40.4656 11.7476 40.4656 13.7259C40.4656 13.7868 40.4656 13.8172 40.4656 13.8781C40.4352 14.5172 40.1004 14.8824 39.4917 14.9433C39.2178 14.9737 38.9439 14.9737 38.67 15.0042C38.5787 15.0042 38.4569 15.0042 38.3048 15.0042C39.1569 17.3781 40.0091 19.6911 40.8613 22.065C40.77 22.065 40.7091 22.0955 40.6482 22.0955C39.9787 22.0955 39.2787 22.0955 38.6091 22.0955C38.4569 22.0955 38.3961 22.065 38.3352 21.9129C37.7265 20.1476 37.0874 18.3824 36.4787 16.6172C36.2961 16.0694 36.083 15.5216 35.9004 14.9737C35.87 14.9129 35.87 14.8824 35.87 14.8216C35.87 14.365 35.87 13.9085 35.87 13.4216C36.6308 13.4216 37.3613 13.4216 38.1222 13.4216C38.1222 11.7781 38.1222 10.1346 38.1222 8.49112C37.1482 8.49112 36.2048 8.49112 35.2308 8.49112C35.2004 12.9955 35.2004 17.5302 35.2004 22.065Z" fill="white"/>
<path id="Vector_5" d="M73.5786 6.48242C74.3699 6.48242 75.1308 6.48242 75.9221 6.48242C76.5003 10.1955 77.1395 13.8781 77.7177 17.5302C78.3264 13.8781 78.9351 10.1955 79.5134 6.48242C80.3047 6.48242 81.0656 6.48242 81.8569 6.48242C81.8264 6.7259 81.7656 6.96938 81.7351 7.21286C81.2786 9.55634 80.8525 11.8694 80.396 14.2129C80.0004 16.252 79.6047 18.2607 79.2395 20.2998C79.1482 20.8476 79.0264 21.3955 78.9351 21.9433C78.9047 22.0346 78.9047 22.1259 78.783 22.1259C78.0525 22.1259 77.3525 22.1259 76.6221 22.1259C76.6221 22.1259 76.5917 22.1259 76.5612 22.0955C75.5569 16.8911 74.583 11.6868 73.5786 6.48242Z" fill="white"/>
<path id="Vector_6" d="M52.9438 17.714C52.9438 17.1966 53.1264 16.3749 53.2786 15.5227C53.6134 13.3618 53.9786 11.2314 54.3438 9.07052C54.4656 8.24878 54.6177 7.42704 54.7699 6.57486C54.7699 6.54443 54.8003 6.51399 54.8003 6.45312C55.5612 6.45312 56.3221 6.45312 57.1134 6.45312C56.109 11.6575 55.1351 16.8314 54.1308 22.0357C53.3699 22.0357 52.609 22.0357 51.7873 22.0357C50.8134 16.8618 49.809 11.6575 48.8047 6.45312C49.596 6.45312 50.3569 6.45312 51.1482 6.45312C51.7264 10.3488 52.4264 14.1531 52.9438 17.714Z" fill="white"/>
<path id="Vector_7" d="M85.0222 19.9955C86.3918 19.9955 87.7613 19.9955 89.1309 19.9955C89.1309 20.6955 89.1309 21.365 89.1309 22.065C86.97 22.065 84.8396 22.065 82.6787 22.065C82.6787 16.8607 82.6787 11.6868 82.6787 6.48242C84.8091 6.48242 86.9091 6.48242 89.07 6.48242C89.07 7.15199 89.07 7.82155 89.07 8.52155C87.7309 8.52155 86.3918 8.52155 85.0526 8.52155C85.0526 10.0433 85.0526 11.565 85.0526 13.0868C86.2091 13.0868 87.3657 13.0868 88.5222 13.0868C88.5222 13.1476 88.5526 13.2085 88.5526 13.2694C88.5526 13.8172 88.5526 14.365 88.5526 14.9129C88.5526 15.1259 88.5526 15.1259 88.3396 15.1259C87.3352 15.1259 86.3005 15.1259 85.2961 15.1259C85.2352 15.1259 85.1439 15.1259 85.0526 15.1259C85.0222 16.7389 85.0222 18.352 85.0222 19.9955Z" fill="white"/>
<path id="Vector_8" d="M44.1177 19.9955C45.4873 19.9955 46.8569 19.9955 48.2264 19.9955C48.2264 20.6955 48.2264 21.365 48.2264 22.065C46.096 22.065 43.9656 22.065 41.8047 22.065C41.8047 16.8911 41.8047 11.6868 41.8047 6.48242C43.9351 6.48242 46.0351 6.48242 48.1656 6.48242C48.1656 7.15199 48.1656 7.82155 48.1656 8.52155C46.8264 8.52155 45.4873 8.52155 44.1177 8.52155C44.1177 10.0433 44.1177 11.565 44.1177 13.0868C45.2743 13.0868 46.4308 13.0868 47.5873 13.0868C47.5873 13.7868 47.5873 14.4259 47.5873 15.1259C46.4308 15.1259 45.2743 15.1259 44.0873 15.1259C44.1177 16.7389 44.1177 18.352 44.1177 19.9955Z" fill="white"/>
<path id="Vector_9" d="M67.1265 22.0357C67.1265 16.8314 67.1265 11.6575 67.1265 6.45312C67.8873 6.45312 68.6482 6.45312 69.4395 6.45312C69.4395 10.927 69.4395 15.4314 69.4395 19.9357C70.7178 19.9357 71.9656 19.9357 73.2439 19.9357C73.2439 20.6357 73.2439 21.3357 73.2439 22.0357C71.2047 22.0357 69.1656 22.0357 67.1265 22.0357Z" fill="white"/>
<path id="Vector_10" d="M98.5047 25.321C98.3221 25.3514 98.1395 25.3818 97.896 25.4427C97.896 25.2601 97.896 25.0775 97.896 24.8949C96.9221 24.8949 95.9786 24.8949 95.0047 24.8949C95.0047 25.7775 95.0047 26.6601 95.0047 27.5427C95.9482 27.5427 96.9221 27.5427 97.8656 27.5427C97.8656 27.2079 97.8656 26.8427 97.8656 26.4775C97.3786 26.4775 96.8917 26.4775 96.3743 26.4775C96.3743 26.2949 96.3743 26.1731 96.3743 26.021C97.0743 26.021 97.7743 26.021 98.4743 26.021C98.4743 26.0818 98.4743 26.1427 98.5047 26.2036C98.5047 26.5688 98.5047 26.934 98.5047 27.2992C98.5047 27.4514 98.4743 27.5731 98.4438 27.6949C98.383 27.8775 98.2612 28.0297 98.0786 28.0601C97.9569 28.0905 97.8351 28.0905 97.7134 28.0905C96.8917 28.0905 96.0395 28.0905 95.2178 28.0905C94.5786 28.0905 94.396 27.9383 94.3656 27.2688C94.3351 26.5383 94.3656 25.7775 94.3656 25.047C94.3656 24.5905 94.5786 24.3775 95.0351 24.347C95.9482 24.3166 96.8308 24.3166 97.7438 24.347C98.383 24.4079 98.596 24.6818 98.5047 25.321Z" fill="white"/>
<path id="Vector_11" d="M66.2438 27.5734C66.2438 27.2082 66.2438 26.8734 66.2438 26.5082C65.7569 26.5082 65.2699 26.5082 64.7525 26.5082C64.7525 26.3256 64.7525 26.2039 64.7525 26.0517C65.4525 26.0517 66.1525 26.0517 66.8221 26.0517L66.8525 26.0821C66.8525 26.5691 66.8525 27.0865 66.8221 27.5734C66.7916 27.8778 66.6395 28.0299 66.3351 28.0908C66.2438 28.1212 66.1525 28.1212 66.0612 28.1212C65.2395 28.1212 64.3873 28.1212 63.5656 28.1212C63.5351 28.1212 63.5047 28.1212 63.5047 28.1212C62.9264 28.1212 62.7134 27.9082 62.7134 27.3299C62.7134 26.5995 62.7134 25.8691 62.7134 25.1691C62.7134 25.0473 62.7438 24.9256 62.7743 24.8343C62.8351 24.5908 62.9873 24.4691 63.2003 24.4386C63.3525 24.4082 63.5351 24.4082 63.6873 24.4082C64.4482 24.4082 65.209 24.4082 65.9395 24.4082C66.0003 24.4082 66.0612 24.4082 66.0916 24.4082C66.609 24.4386 66.8829 24.5604 66.8221 25.3517C66.6395 25.3821 66.4264 25.4126 66.2134 25.4734C66.2134 25.2908 66.2134 25.1386 66.2134 24.9256C65.2395 24.9256 64.296 24.9256 63.3221 24.9256C63.3221 25.8082 63.3221 26.6908 63.3221 27.5734C64.3569 27.5734 65.3003 27.5734 66.2438 27.5734Z" fill="white"/>
<path id="Vector_12" d="M76.6221 25.201C76.6221 26.1749 76.6221 27.1184 76.6221 28.0618C76.4395 28.0618 76.2873 28.0618 76.1047 28.0618C76.1047 26.8444 76.1047 25.5966 76.1047 24.3488C76.2569 24.3488 76.3786 24.3488 76.5308 24.3488C76.5917 24.3488 76.6526 24.4401 76.7134 24.4705C77.2308 25.1705 77.7482 25.8401 78.2656 26.5401C78.296 26.601 78.3569 26.6618 78.4178 26.7531C78.5091 26.601 78.6004 26.4792 78.6917 26.3575C79.1178 25.7184 79.5743 25.1097 80.0004 24.4705C80.0613 24.3792 80.1526 24.3184 80.2743 24.3184C80.396 24.3184 80.5482 24.3184 80.67 24.3184C80.67 25.5662 80.67 26.7836 80.67 28.0314C80.4873 28.0314 80.3047 28.0314 80.1221 28.0314C80.1221 27.0575 80.1221 26.114 80.1221 25.1401C80.0917 25.1705 80.0613 25.201 80.0308 25.2314C79.5439 25.9314 79.0569 26.6618 78.57 27.3618C78.4787 27.514 78.3569 27.514 78.2656 27.3314C77.7482 26.6314 77.2308 25.9314 76.7439 25.2314C76.683 25.2923 76.683 25.2618 76.6221 25.201Z" fill="white"/>
<path id="Vector_13" d="M91.3829 28.0919C91.1699 28.1528 91.0177 28.092 90.8656 27.9702C89.9525 27.118 89.009 26.2659 88.0656 25.4137C88.0047 25.3528 87.9438 25.2919 87.8525 25.2006C87.8525 26.1746 87.8525 27.118 87.8525 28.0919C87.6699 28.0919 87.4873 28.0919 87.3047 28.0919C87.3047 26.8441 87.3047 25.6267 87.3047 24.4093C87.5177 24.3485 87.7003 24.3789 87.8525 24.5311C88.7351 25.3224 89.6177 26.1137 90.5003 26.905C90.5916 26.9963 90.6829 27.118 90.8047 27.2398C90.8047 26.2659 90.8047 25.3224 90.8047 24.3789C90.9873 24.3789 91.1699 24.3789 91.3525 24.3789C91.3829 25.6267 91.3829 26.8441 91.3829 28.0919Z" fill="white"/>
<path id="Vector_14" d="M73.7917 28.0908C73.5482 28.0908 73.3656 28.0908 73.183 28.0908C73.1221 28.0908 73.0613 27.9995 73.0308 27.9386C72.9091 27.7256 72.8178 27.543 72.7265 27.3299C72.696 27.2386 72.6352 27.2082 72.5134 27.2082C71.7526 27.2082 71.0221 27.2082 70.2613 27.2082C70.17 27.2082 70.1091 27.2386 70.0787 27.3299C69.9873 27.543 69.8656 27.7256 69.7743 27.9386C69.7134 28.0604 69.6526 28.1212 69.5004 28.1212C69.3787 28.1212 69.2569 28.1212 69.1047 28.1212C69.1352 28.0604 69.1352 28.0299 69.1352 27.9995C69.7743 26.843 70.383 25.7169 71.0221 24.5604C71.083 24.4386 71.1439 24.4082 71.296 24.4082C71.783 24.4082 71.783 24.4082 72.0265 24.8343C72.6047 25.8691 73.1526 26.8734 73.7308 27.9082C73.7004 27.9386 73.7308 27.9995 73.7917 28.0908ZM72.3613 26.6908C72.0265 26.0517 71.7221 25.4734 71.3873 24.8343C71.0526 25.4734 70.7482 26.0821 70.4134 26.6908C71.083 26.6908 71.6917 26.6908 72.3613 26.6908Z" fill="white"/>
<path id="Vector_15" d="M84.2918 24.4082C84.2918 25.656 84.2918 26.8734 84.2918 28.0908C84.1092 28.0908 83.8961 28.0908 83.6831 28.0908C83.6831 26.8734 83.6831 25.6256 83.6831 24.4082C83.8961 24.4082 84.0788 24.4082 84.2918 24.4082Z" fill="white"/>
<path id="Vector_16" d="M20.5614 12.7529C20.0135 12.7529 19.4961 12.7529 18.9179 12.7529C18.9179 12.1138 18.9179 11.5051 18.9179 10.866C18.2179 10.866 17.5483 10.866 16.8483 10.866C16.8483 13.5138 16.8483 16.1616 16.8483 18.8095C17.5179 18.8095 18.2179 18.8095 18.8874 18.8095C18.8874 17.8355 18.8874 16.8312 18.8874 15.8269C18.4918 15.8269 18.1266 15.8269 17.7309 15.8269C17.7309 15.3703 17.7309 14.9138 17.7309 14.4573C18.644 14.4573 19.557 14.4573 20.5005 14.4573C20.5005 14.5182 20.5309 14.5486 20.5309 14.6095C20.5309 16.1921 20.5309 17.7747 20.5309 19.3573C20.5309 19.9355 20.257 20.2095 19.7092 20.2095C18.4918 20.2095 17.3048 20.2095 16.0874 20.2095C15.9353 20.2095 15.7831 20.179 15.6309 20.1182C15.4179 20.0573 15.2961 19.8747 15.2353 19.6616C15.2048 19.5399 15.2048 19.4182 15.2048 19.2964C15.2048 16.3138 15.2048 13.3312 15.2048 10.3486C15.2048 10.3182 15.2048 10.2877 15.2048 10.2877C15.2048 9.7399 15.5092 9.43555 16.057 9.43555C17.0005 9.43555 17.944 9.43555 18.8874 9.43555C19.1614 9.43555 19.4353 9.43555 19.7092 9.43555C20.2266 9.43555 20.5005 9.70946 20.5309 10.1964C20.5918 11.0486 20.5614 11.9008 20.5614 12.7529Z" fill="white"/>
<path id="Vector_17" d="M9.11792 20.2083C9.11792 16.6475 9.11792 13.0561 9.11792 9.46484C9.17879 9.46484 9.27009 9.46484 9.33096 9.46484C10.7005 9.46484 12.0701 9.46484 13.4397 9.46484C13.531 9.46484 13.5918 9.46484 13.6831 9.46484C14.1092 9.52571 14.3527 9.76919 14.3527 10.1953C14.3527 10.3779 14.3527 10.5605 14.3527 10.7127C14.3527 11.8996 14.3527 13.0866 14.3527 14.304C14.3527 14.3953 14.3527 14.4866 14.3527 14.5779C14.3223 14.9431 14.1092 15.217 13.744 15.2475C13.4701 15.2779 13.1657 15.3083 12.8614 15.3388C13.4397 16.9518 14.0179 18.5648 14.5962 20.1779C14.5353 20.1779 14.4744 20.2083 14.4136 20.2083C13.957 20.2083 13.531 20.2083 13.0744 20.2083C12.9223 20.2083 12.8918 20.1475 12.831 20.0257C12.2831 18.4431 11.7353 16.8909 11.1875 15.3388C11.157 15.3083 11.157 15.2475 11.157 15.217C11.157 14.9127 11.157 14.5779 11.157 14.2735C11.6744 14.2735 12.1918 14.2735 12.7092 14.2735C12.7092 13.1475 12.7092 12.0214 12.7092 10.8953C12.0701 10.8953 11.4005 10.8953 10.731 10.8953C10.731 13.9996 10.731 17.104 10.731 20.2388C10.1831 20.2083 9.66575 20.2083 9.11792 20.2083Z" fill="white"/>
</g>
</g>
<defs>
<clipPath id="clip0_470_221">
<rect width="98.6087" height="28" fill="white" transform="translate(0.0483398 0.273438)"/>
</clipPath>
</defs>
</svg>
