<svg width="129" height="23" viewBox="0 0 129 23" fill="none" xmlns="http://www.w3.org/2000/svg">
<g id="spadegaming" style="mix-blend-mode:luminosity" clip-path="url(#clip0_461_584)">
<g id="Group">
<g id="Group_2">
<path id="Vector" d="M29.8801 11.0988C28.9005 10.372 28.2685 9.88216 27.984 9.64514C27.826 9.48714 27.6364 9.28173 27.431 9.04472C27.2256 8.7919 27.115 8.46009 27.115 8.04927C27.115 7.51204 27.273 7.08543 27.589 6.76941C27.905 6.4534 28.3317 6.29539 28.8847 6.29539C30.0539 6.29539 30.7492 6.99062 30.9546 8.39689H31.3812V6.29539C31.3812 6.20058 31.3654 6.13738 31.318 6.10578C31.0968 5.85297 30.3384 5.72656 29.0427 5.72656C28.0789 5.72656 27.273 5.96357 26.6094 6.40599C25.8509 6.92742 25.4717 7.65425 25.4717 8.57069C25.4717 9.12372 25.6139 9.58194 25.9141 9.97696C26.1986 10.3562 26.7358 10.8302 27.51 11.3832C28.7267 12.2365 29.5325 12.8843 29.9117 13.3583C30.3068 13.8165 30.4964 14.338 30.4964 14.9226C30.4964 15.5388 30.291 16.0444 29.8801 16.4553C29.4693 16.8661 28.9479 17.0557 28.3001 17.0557C27.3994 17.0557 26.7042 16.6923 26.1986 15.9654C25.9932 15.6652 25.8509 15.1754 25.7245 14.4644H25.3137V16.7713C25.3137 16.9451 25.3769 17.0557 25.5033 17.1189C25.7245 17.2295 26.1196 17.3401 26.6726 17.4349C27.2414 17.5297 27.747 17.5929 28.1895 17.5929C29.3903 17.5929 30.3542 17.3085 31.0968 16.7081C31.8394 16.1234 32.2028 15.3492 32.2028 14.3854C32.2028 13.7849 32.029 13.2477 31.713 12.7895C31.3812 12.3155 30.765 11.7782 29.8801 11.0988Z" fill="#DBB77D"/>
<path id="Vector_2" d="M38.4125 8.99805C37.259 8.99805 36.311 9.44047 35.6 10.3411V8.99805C34.8889 9.39307 33.9567 9.63008 32.819 9.67748V10.0883H33.1982C33.5459 10.0883 33.7829 10.1357 33.9251 10.2305C34.0515 10.3253 34.1305 10.5465 34.1305 10.8783V19.3949C34.1305 20.106 34.0673 20.5326 33.9409 20.6748C33.8145 20.817 33.4511 20.9434 32.8032 21.0224V21.449H37.2748V21.0224C36.4532 20.9434 35.9634 20.8328 35.8212 20.6906C35.679 20.5484 35.6 20.106 35.6 19.3791V17.167C36.232 17.4198 36.8482 17.5462 37.4486 17.5462C38.6969 17.5462 39.7239 17.1038 40.5456 16.219C41.3672 15.3341 41.778 14.1965 41.778 12.8376C41.778 11.6526 41.4778 10.7203 40.8616 10.0251C40.2454 9.34566 39.4395 8.99805 38.4125 8.99805ZM39.4395 16.0294C38.9655 16.693 38.3019 17.0248 37.4486 17.0248C36.8008 17.0248 36.1846 16.772 35.6 16.2506V13.3749C35.6 12.5058 35.6474 11.858 35.7264 11.463C35.9792 10.3411 36.627 9.77228 37.6698 9.77228C38.4283 9.77228 39.0287 10.0725 39.4711 10.6729C39.9136 11.2734 40.1348 12.1108 40.1348 13.1694C40.1506 14.4177 39.9136 15.3657 39.4395 16.0294Z" fill="#DBB77D"/>
<path id="Vector_3" d="M49.2675 16.4718C49.0463 16.4718 48.9041 16.377 48.8093 16.2032C48.7303 16.0136 48.6829 15.6976 48.6829 15.2393V11.6052C48.6829 10.6887 48.4617 10.0251 48.0351 9.61428C47.5926 9.20346 46.8974 8.99805 45.9336 8.99805C45.1593 8.99805 44.4641 9.14025 43.8479 9.42467C43.6109 9.51947 43.4687 9.67748 43.4212 9.89869L43.1684 10.8151C43.1526 10.8941 43.1842 10.9415 43.2948 10.9731L43.8005 11.0995C43.8479 11.1153 43.8953 11.1153 43.9269 11.1153C44.0059 11.1153 44.1323 10.9889 44.2745 10.7203C44.7011 9.93029 45.2067 9.51947 45.8072 9.51947C46.7236 9.51947 47.1976 10.3095 47.2134 11.9054L45.4279 12.6006C44.7011 12.8692 44.1797 13.1062 43.8479 13.2958C43.0262 13.7857 42.5996 14.4651 42.5996 15.3341C42.5996 15.9978 42.7892 16.5192 43.1842 16.93C43.5793 17.3408 44.0849 17.5462 44.7169 17.5462C45.0645 17.5462 45.4595 17.3882 45.902 17.088L47.166 16.2506C47.1976 16.7088 47.324 17.1354 47.561 17.5462L49.8837 16.8036L49.7731 16.3454C49.5835 16.4402 49.4097 16.4718 49.2675 16.4718ZM47.2292 13.8173C47.2292 15.6344 46.6288 16.535 45.4437 16.535C45.0329 16.535 44.7169 16.4086 44.4641 16.1558C44.2271 15.903 44.1007 15.5554 44.1007 15.1603C44.1007 14.2597 44.6537 13.5803 45.7756 13.1062C46.139 12.9482 46.6288 12.7744 47.2292 12.5532V13.8173Z" fill="#DBB77D"/>
<path id="Vector_4" d="M58.7638 16.4719C58.3688 16.4719 58.1792 16.0611 58.1792 15.2394V5.30078C57.2943 5.6326 56.3621 5.7906 55.3982 5.7906V6.23302H55.8407C56.1567 6.23302 56.3779 6.28043 56.5043 6.37523C56.6307 6.47004 56.6939 6.73865 56.6939 7.16527V9.25096C56.1409 9.07716 55.5404 8.98235 54.9084 8.98235C53.5969 8.98235 52.5383 9.37737 51.7167 10.1832C50.895 10.989 50.5 12.0319 50.5 13.3118C50.5 14.5126 50.8476 15.5081 51.5587 16.3297C52.2697 17.1355 53.1229 17.5463 54.15 17.5463C54.545 17.5463 55.019 17.3725 55.5878 17.0407L56.6781 16.3929V16.5035C56.7097 16.9143 56.8203 17.2619 57.0415 17.5463L59.3958 16.8037L59.2852 16.3455C59.064 16.4403 58.8902 16.4719 58.7638 16.4719ZM56.7097 14.56C56.7097 15.2078 56.6149 15.6503 56.4253 15.8557C56.2357 16.0611 55.9829 16.2507 55.6826 16.4087C55.3508 16.5667 55.0348 16.6615 54.7346 16.6615C53.8972 16.6615 53.2335 16.2191 52.7595 15.3342C52.3645 14.6074 52.1591 13.7858 52.1591 12.8693C52.1591 11.9845 52.3645 11.2261 52.7753 10.594C53.2493 9.88299 53.913 9.53538 54.7504 9.53538C55.6036 9.53538 56.2515 9.86719 56.7097 10.5308V14.56Z" fill="#DBB77D"/>
<path id="Vector_5" d="M66.6801 11.0837C66.2535 9.67748 65.2897 8.99805 63.8044 8.99805C62.6825 8.99805 61.7819 9.37727 61.1025 10.1357C60.3756 10.9573 60.0122 11.9528 60.0122 13.1378C60.0122 14.3545 60.3756 15.4289 61.1183 16.3296C61.8135 17.167 62.8721 17.5778 64.31 17.5778H64.7366L66.8697 16.5666L66.6169 16.0768C65.8743 16.456 65.2422 16.6298 64.7208 16.6298C64.1362 16.6298 63.6306 16.5034 63.1882 16.2506C62.1453 15.666 61.6081 14.5283 61.5923 12.8534H66.8697C66.8697 12.1108 66.8065 11.5262 66.6801 11.0837ZM64.4048 12.253H61.5923C61.6397 11.7632 61.7029 11.384 61.7661 11.1311C62.0821 10.0725 62.7141 9.53527 63.678 9.53527C64.1836 9.53527 64.6102 9.70908 64.942 10.0409C65.2738 10.3727 65.4477 10.7993 65.4477 11.305C65.4477 11.937 65.1 12.253 64.4048 12.253Z" fill="#DBB77D"/>
<path id="Vector_6" d="M75.8129 9.20346L75.6232 8.99805C74.928 9.15605 74.138 9.23506 73.2847 9.23506C73.1425 9.23506 73.0003 9.23506 72.8581 9.21926C72.4157 9.06125 71.9259 8.99805 71.4203 8.99805C70.4564 8.99805 69.6506 9.25086 69.0501 9.75648C68.4339 10.2621 68.1337 10.9257 68.1337 11.7632C68.1337 12.9482 68.7499 13.8173 69.9982 14.3703L68.4339 15.666C68.4339 15.6818 68.4339 15.7292 68.4339 15.7924C68.4181 15.8556 68.4181 15.903 68.4181 15.9346C68.4181 16.4244 68.7657 16.7562 69.4768 16.9142L67.7545 17.8465C67.6281 17.9255 67.5491 18.1151 67.5491 18.4311C67.5491 19.0947 67.7229 19.6635 68.0705 20.1218C68.3707 20.5168 68.8289 20.8486 69.4136 21.1014C70.014 21.3542 70.646 21.4648 71.3412 21.4648C72.3999 21.4648 73.2689 21.212 73.9484 20.7222C74.8174 20.0902 75.244 19.3159 75.244 18.3995C75.244 17.483 74.8174 16.8352 73.9484 16.4402C73.5534 16.2664 72.9529 16.1242 72.1313 15.9978C71.278 15.8714 70.6934 15.7608 70.3774 15.6344C70.1562 15.5554 70.0456 15.4131 70.0456 15.2393C70.0456 15.0497 70.1878 14.8285 70.5038 14.5915C70.804 14.5915 71.0252 14.5915 71.1516 14.5915C72.0681 14.5915 72.8265 14.3229 73.4427 13.7857C74.059 13.2484 74.3592 12.5848 74.3592 11.7948C74.3592 11.0521 74.1222 10.4201 73.6482 9.88289H75.3388L75.8129 9.20346ZM70.2194 17.0406L71.8311 17.325C72.2103 17.3882 72.5421 17.4672 72.8265 17.5462C73.585 17.7833 73.98 18.2573 73.98 18.9999C73.98 19.5529 73.743 20.027 73.2847 20.3904C72.8107 20.7538 72.2103 20.9276 71.4835 20.9276C70.7408 20.9276 70.1246 20.738 69.6348 20.343C69.1449 19.948 68.9079 19.4581 68.9079 18.8577C68.9079 18.4785 69.0027 18.1783 69.1924 17.9255C69.3504 17.6726 69.698 17.3724 70.2194 17.0406ZM71.4677 14.1333C70.962 14.1333 70.5512 13.8805 70.2352 13.3907C69.9192 12.9008 69.7454 12.2688 69.7454 11.5104C69.7454 10.8467 69.8876 10.3411 70.172 9.97769C70.4564 9.59848 70.8514 9.42467 71.3571 9.42467C71.8311 9.42467 72.1945 9.64588 72.4631 10.0883C72.7317 10.5307 72.8739 11.1627 72.8739 11.9528C72.8581 13.4065 72.3841 14.1333 71.4677 14.1333Z" fill="#DBB77D"/>
<path id="Vector_7" d="M82.465 16.4718C82.2438 16.4718 82.1015 16.377 82.0067 16.2032C81.9277 16.0136 81.8803 15.6976 81.8803 15.2393V11.6052C81.8803 10.6887 81.6591 10.0251 81.2325 9.61428C80.7901 9.20346 80.0949 8.99805 79.131 8.99805C78.3568 8.99805 77.6615 9.14025 77.0295 9.42467C76.8083 9.51947 76.6661 9.67748 76.6029 9.89869L76.3659 10.8151C76.3501 10.8941 76.3817 10.9415 76.4923 10.9731L76.9979 11.0995C77.0453 11.1153 77.0769 11.1153 77.1243 11.1153C77.2191 11.1153 77.3297 10.9889 77.4719 10.7203C77.8986 9.93029 78.4042 9.51947 78.9888 9.51947C79.921 9.51947 80.3793 10.3095 80.3951 11.9054L78.6096 12.6006C77.8827 12.8692 77.3613 13.1062 77.0295 13.2958C76.2079 13.7857 75.7812 14.4651 75.7812 15.3341C75.7812 15.9978 75.9709 16.5192 76.3659 16.93C76.7609 17.3408 77.2665 17.5462 77.8985 17.5462C78.2462 17.5462 78.657 17.3882 79.0994 17.088L80.3635 16.2506C80.3951 16.7088 80.5215 17.1354 80.7585 17.5462L83.0812 16.8036L82.9864 16.3454C82.781 16.4402 82.5914 16.4718 82.465 16.4718ZM80.4109 13.8173C80.4109 15.6344 79.8104 16.535 78.6254 16.535C78.2304 16.535 77.8986 16.4086 77.6457 16.1558C77.4087 15.903 77.2823 15.5554 77.2823 15.1603C77.2823 14.2597 77.8353 13.5803 78.9572 13.1062C79.3364 12.9482 79.8104 12.7744 80.4109 12.5532V13.8173Z" fill="#DBB77D"/>
<path id="Vector_8" d="M96.7647 15.3341V11.9054C96.7647 11.3208 96.7331 10.8941 96.6699 10.5781C96.4329 9.51947 95.6903 8.99805 94.442 8.99805C93.336 8.99805 92.3405 9.47207 91.4873 10.4359C91.2503 9.89869 90.9659 9.53527 90.6656 9.31406C90.3496 9.09285 89.923 8.99805 89.3542 8.99805C88.1533 8.99805 87.1579 9.47207 86.3678 10.4359V8.99805C85.641 9.40887 84.7088 9.64588 83.5869 9.69328V10.1041H83.9661C84.3296 10.1041 84.5666 10.1515 84.7088 10.2621C84.8352 10.3569 84.8984 10.5781 84.8984 10.9099V15.3341C84.8984 16.061 84.8352 16.5034 84.7246 16.6456C84.614 16.7878 84.2347 16.8984 83.5869 16.9616V17.3882H87.6951V16.9616C87.0473 16.8984 86.6523 16.7878 86.5417 16.6456C86.431 16.5034 86.3678 16.0768 86.3678 15.3341V13.4223C86.3678 11.9844 86.5733 11.0205 86.9683 10.5623C87.3317 10.1199 87.8373 9.89869 88.5167 9.89869C89.1172 9.89869 89.528 10.0883 89.765 10.4359C89.9862 10.7993 90.0968 11.4314 90.0968 12.332V15.3183C90.0968 16.0452 90.0494 16.4876 89.923 16.6298C89.8124 16.772 89.4332 16.8826 88.7854 16.9458V17.3724H92.8935V16.9458C92.2457 16.8826 91.8507 16.772 91.7401 16.6298C91.6295 16.4876 91.5663 16.061 91.5663 15.3183V13.4223C91.5663 12.7112 91.5821 12.2214 91.6137 11.9528C91.6927 11.384 91.8665 10.9257 92.1193 10.5939C92.4827 10.1357 93.0042 9.89869 93.6836 9.89869C94.2682 9.89869 94.6948 10.0883 94.9318 10.4517C95.1688 10.8151 95.2953 11.4472 95.2953 12.3478V15.3341C95.2953 16.061 95.2321 16.5034 95.1214 16.6456C95.0108 16.7878 94.6316 16.8984 93.9838 16.9616V17.3882H98.0762V16.9616C97.4284 16.8984 97.0333 16.8036 96.9227 16.6614C96.8279 16.5034 96.7647 16.0768 96.7647 15.3341Z" fill="#DBB77D"/>
<path id="Vector_9" d="M100.478 7.90798C100.746 7.90798 100.983 7.81318 101.157 7.63937C101.347 7.46556 101.442 7.22855 101.442 6.95994C101.442 6.69133 101.347 6.47012 101.157 6.28051C100.968 6.0909 100.746 5.99609 100.494 5.99609C100.225 5.99609 100.004 6.0909 99.8142 6.28051C99.6246 6.47012 99.5298 6.69133 99.5298 6.92834C99.5298 7.19695 99.6246 7.43396 99.8142 7.62357C99.988 7.82898 100.209 7.90798 100.478 7.90798Z" fill="#DBB77D"/>
<path id="Vector_10" d="M101.363 15.2402V8.91992C100.636 9.33074 99.7036 9.56775 98.5818 9.61515V10.026H98.961C99.3244 10.026 99.5614 10.0734 99.7036 10.1682C99.83 10.263 99.8932 10.4842 99.8932 10.816V15.2402C99.8932 15.967 99.83 16.4095 99.7194 16.5517C99.6088 16.6939 99.2296 16.8045 98.5818 16.8677V17.2943H102.674V16.8677C102.026 16.8045 101.631 16.6939 101.537 16.5359C101.41 16.3937 101.363 15.9512 101.363 15.2402Z" fill="#DBB77D"/>
<path id="Vector_11" d="M111.728 15.2402V11.7957C111.728 11.0846 111.681 10.5948 111.586 10.3104C111.254 9.37814 110.496 8.91992 109.31 8.91992C108.015 8.91992 106.925 9.39394 106.04 10.342V8.91992C105.329 9.31494 104.396 9.55195 103.259 9.59935V10.0102H103.638C103.986 10.0102 104.223 10.0576 104.365 10.1524C104.507 10.2472 104.57 10.4684 104.57 10.8002V15.2402C104.57 15.9354 104.507 16.3621 104.396 16.5201C104.27 16.6623 103.907 16.7887 103.275 16.8677V17.2943H107.383V16.8677C106.735 16.7729 106.34 16.6623 106.229 16.5201C106.119 16.3779 106.056 15.9512 106.056 15.2402V13.2335C106.056 12.5067 106.103 11.9379 106.182 11.5428C106.435 10.3736 107.193 9.78896 108.426 9.78896C109.121 9.78896 109.595 9.97857 109.863 10.3262C110.132 10.6896 110.274 11.3216 110.274 12.2065V15.2402C110.274 15.9354 110.227 16.3621 110.148 16.4885C110.022 16.6781 109.642 16.8045 108.963 16.8677V17.2943H113.055V16.8677C112.392 16.8045 111.997 16.6939 111.886 16.5201C111.775 16.4095 111.728 15.9829 111.728 15.2402Z" fill="#DBB77D"/>
<path id="Vector_12" d="M121.856 9.12533L121.667 8.91992C120.971 9.07793 120.197 9.15693 119.328 9.15693C119.186 9.15693 119.028 9.15693 118.901 9.14113C118.443 8.98313 117.969 8.91992 117.464 8.91992C116.5 8.91992 115.71 9.17273 115.093 9.67836C114.477 10.184 114.177 10.8476 114.177 11.6851C114.177 12.8701 114.793 13.7391 116.041 14.2922L114.477 15.5878C114.477 15.6036 114.477 15.651 114.477 15.7142C114.461 15.7774 114.461 15.8248 114.461 15.8564C114.461 16.3463 114.825 16.6781 115.52 16.8361L113.798 17.7683C113.671 17.8473 113.608 18.0369 113.608 18.353C113.608 19.0166 113.782 19.5854 114.13 20.0436C114.43 20.4387 114.888 20.7705 115.473 21.0233C116.073 21.2761 116.705 21.3867 117.4 21.3867C118.459 21.3867 119.328 21.1339 120.007 20.6441C120.861 20.012 121.303 19.2378 121.303 18.3214C121.303 17.4049 120.876 16.7571 120.007 16.3621C119.612 16.1883 119.012 16.0461 118.19 15.9196C117.337 15.7932 116.753 15.6826 116.436 15.5562C116.215 15.4772 116.105 15.335 116.105 15.1612C116.105 14.9716 116.263 14.7504 116.563 14.5134C116.863 14.5134 117.084 14.5134 117.195 14.5134C118.111 14.5134 118.886 14.2448 119.486 13.7075C120.102 13.1703 120.402 12.5067 120.402 11.7167C120.402 10.974 120.165 10.342 119.691 9.80476H121.382L121.856 9.12533ZM116.263 16.9625L117.874 17.2469C118.254 17.3101 118.585 17.3891 118.87 17.4681C119.628 17.7051 120.023 18.1792 120.023 18.9218C120.023 19.4748 119.786 19.9488 119.312 20.3123C118.838 20.6757 118.238 20.8495 117.511 20.8495C116.768 20.8495 116.152 20.6599 115.678 20.2648C115.188 19.8698 114.951 19.38 114.951 18.7796C114.951 18.4004 115.046 18.1001 115.236 17.8473C115.394 17.5945 115.741 17.2943 116.263 16.9625ZM117.511 14.0552C117.005 14.0552 116.594 13.8023 116.278 13.3125C115.962 12.8227 115.789 12.1907 115.789 11.4322C115.789 10.7686 115.931 10.263 116.215 9.89957C116.5 9.52035 116.895 9.34654 117.385 9.34654C117.859 9.34654 118.222 9.56775 118.491 10.0102C118.759 10.4526 118.886 11.0846 118.886 11.8747C118.886 13.3283 118.427 14.0552 117.511 14.0552Z" fill="#DBB77D"/>
</g>
<g id="Group_3">
<path id="Vector_13" d="M12.1676 16.3601L12.1992 16.0756L12.4836 16.1546C12.5152 16.1546 15.4225 16.9289 16.8762 15.6332C18.2825 14.385 18.7881 11.4618 16.9868 8.52289C15.2803 5.71036 11.1563 2.80303 10.3505 2.25C9.54467 2.80303 5.42068 5.71036 3.7142 8.52289C1.91292 11.4618 2.43434 14.385 3.82481 15.6332C5.27847 16.9289 8.18581 16.1546 8.21741 16.1546L8.50182 16.0756L8.53342 16.3601C8.53342 16.4233 8.67563 18.0823 7.45897 19.4254C6.44773 20.5314 4.83605 21.0845 2.68715 21.0845V22.0799C5.13627 22.0799 7.00075 21.4163 8.20161 20.089C9.70268 18.4458 9.56047 16.4865 9.54467 16.2653L9.40246 14.8116L7.9962 15.1908C7.36417 15.3488 5.38908 15.6648 4.52004 14.8906C3.41399 13.9109 3.06637 11.5092 4.58324 9.02851C5.9421 6.80061 9.00745 4.4463 10.3821 3.45086C11.7568 4.4305 14.8063 6.78481 16.181 9.02851C17.6978 11.5092 17.3502 13.9109 16.2442 14.8906C15.3751 15.6648 13.4001 15.3646 12.768 15.1908L11.346 14.8116L11.2196 16.2811C11.2037 16.5023 11.0615 18.4616 12.5626 20.1048C13.7635 21.4163 15.628 22.0957 18.0771 22.0957V21.1003C15.9124 21.1003 14.3165 20.5314 13.3052 19.4412C12.0254 18.0823 12.1676 16.4391 12.1676 16.3601Z" fill="#E65459"/>
<path id="Vector_14" d="M17.8558 16.7398C19.7519 15.0491 20.4945 11.4149 18.2508 7.74916C16.1967 4.3678 11.2511 1.04965 11.0299 0.90744L10.3504 0.449219L9.67099 0.90744C9.46559 1.04965 4.50416 4.352 2.45006 7.73336C0.206356 11.3991 0.94899 15.0333 2.84508 16.724C3.96693 17.7352 5.5312 17.909 6.74786 17.8458C6.65306 18.0512 6.51085 18.2408 6.33704 18.4305C5.62601 19.2047 4.39355 19.5839 2.68707 19.5839V20.5794C4.69376 20.5794 6.17903 20.0737 7.09548 19.0783C7.88551 18.2092 8.04352 17.1664 8.05932 16.6766C7.22188 16.8504 4.88337 17.198 3.52451 15.9655C1.92864 14.5435 1.35981 11.4307 3.3191 8.22318C5.26259 5.03143 10.0502 1.83968 10.2398 1.71328L10.382 1.61847L10.5242 1.71328C10.7296 1.85548 15.5015 5.03143 17.445 8.22318C19.4042 11.4307 18.8196 14.5435 17.2395 15.9655C15.8807 17.1822 13.5422 16.8504 12.7047 16.6766C12.7205 17.1664 12.8785 18.2092 13.6686 19.0783C14.585 20.0737 16.0545 20.5794 18.077 20.5794V19.5839C16.3705 19.5839 15.138 19.1889 14.427 18.4305C14.2532 18.2408 14.111 18.0354 14.0162 17.8458C15.1696 17.9248 16.7339 17.751 17.8558 16.7398Z" fill="#E65459"/>
</g>
<g id="Group_4">
<path id="Vector_15" d="M124.226 9.69279H123.452V9.39258H125.332V9.69279H124.558V11.7785H124.226V9.69279Z" fill="#DBB77D"/>
<path id="Vector_16" d="M125.885 9.39258H126.375L127.15 11.2097H127.165L127.924 9.39258H128.414V11.7785H128.082V9.8192L127.26 11.7785H127.039L126.217 9.8192V11.7785H125.885V9.39258Z" fill="#DBB77D"/>
</g>
</g>
</g>
<defs>
<clipPath id="clip0_461_584">
<rect width="128.15" height="22" fill="white" transform="translate(0.661621 0.273438)"/>
</clipPath>
</defs>
</svg>
