<svg width="86" height="41" viewBox="0 0 86 41" fill="none" xmlns="http://www.w3.org/2000/svg">
<g style="mix-blend-mode:luminosity" clip-path="url(#clip0_458_388)">
<path d="M6.84153 33.1504C6.2225 32.9276 5.58384 32.7637 4.93404 32.6607C4.24586 32.5606 3.57204 32.3789 2.92678 32.1196C2.10151 31.7538 1.71759 31.3125 1.65713 30.6444C1.6148 30.325 1.68323 30.0007 1.85101 29.7257C2.01879 29.4506 2.27578 29.2414 2.57914 29.1329C3.2618 28.8493 3.99377 28.7032 4.73301 28.7032C5.47225 28.7032 6.20421 28.8493 6.88688 29.1329C7.24681 29.261 7.55517 29.5029 7.76519 29.822C7.97522 30.1412 8.07546 30.5201 8.05072 30.9013C8.04989 30.9644 8.07377 31.0254 8.11726 31.0711C8.16076 31.1169 8.22041 31.1438 8.28349 31.1462C8.34565 31.1448 8.40501 31.1201 8.4498 31.077C8.4946 31.0339 8.52156 30.9755 8.52533 30.9134C8.55069 30.4366 8.42299 29.9641 8.16087 29.5649C7.89875 29.1657 7.51592 28.8608 7.06826 28.6946C6.32867 28.3869 5.53555 28.2285 4.73452 28.2285C3.93349 28.2285 3.14037 28.3869 2.40078 28.6946C2.00403 28.8424 1.66879 29.1198 1.44934 29.4819C1.22989 29.844 1.13907 30.2696 1.19159 30.6897C1.29438 31.778 2.0743 32.2586 2.73936 32.5549C3.41995 32.8281 4.13013 33.0208 4.85544 33.1293C5.47308 33.2268 6.0803 33.3816 6.66922 33.5918C8.06886 34.145 8.25326 34.3354 8.29861 35.2937C8.34093 36.1492 7.87539 36.6843 6.78712 37.0289C5.48866 37.4387 4.09046 37.4025 2.81493 36.9261C2.35791 36.7809 1.96686 36.479 1.71077 36.0736C1.45469 35.6682 1.35004 35.1853 1.41529 34.7103C1.41787 34.6783 1.41414 34.6462 1.40429 34.6157C1.39444 34.5851 1.37869 34.5569 1.35791 34.5324C1.33714 34.508 1.31176 34.4879 1.28322 34.4733C1.25469 34.4587 1.22355 34.4499 1.19159 34.4473C1.15964 34.4447 1.12748 34.4484 1.09697 34.4583C1.06646 34.4681 1.03819 34.4839 1.01377 34.5047C0.989344 34.5254 0.969252 34.5508 0.954639 34.5793C0.940026 34.6079 0.931176 34.639 0.928596 34.671C0.853406 35.2491 0.98266 35.8354 1.294 36.3284C1.60534 36.8213 2.07918 37.1899 2.63355 37.3705C4.00776 37.8853 5.51486 37.9247 6.91409 37.4823C7.39172 37.3342 8.84274 36.8778 8.76112 35.2695C8.71276 34.0482 8.33186 33.7369 6.84153 33.1504Z" fill="white"/>
<path d="M14.396 30.8922C13.6493 31.0584 13.211 31.527 12.7878 31.9805L12.5369 32.2435C12.533 32.2252 12.5258 32.2078 12.5157 32.1921C12.4205 32.0056 12.3927 31.792 12.4371 31.5875C12.4582 31.4229 12.4582 31.2563 12.4371 31.0917C12.4272 31.0394 12.4001 30.9919 12.3602 30.9567C12.3202 30.9215 12.2696 30.9008 12.2165 30.8976C12.1633 30.8945 12.1106 30.9092 12.0668 30.9395C12.023 30.9697 11.9905 31.0137 11.9746 31.0645C11.9669 31.0973 11.9669 31.1314 11.9746 31.1643V31.5119C11.9762 31.5229 11.9762 31.5341 11.9746 31.5451C11.955 31.7078 11.955 31.8722 11.9746 32.0349V33.9333C11.9443 34.2752 11.9443 34.6192 11.9746 34.9611V37.1346C11.9504 37.6079 11.9504 38.0821 11.9746 38.5554C11.9746 38.9877 12.0018 39.4351 11.9746 39.8674C11.9712 39.9306 11.9928 39.9925 12.0346 40.04C12.0764 40.0875 12.1352 40.1167 12.1983 40.1213C12.2588 40.1214 12.317 40.0982 12.3609 40.0566C12.4048 40.015 12.431 39.958 12.4341 39.8976C12.4613 39.4412 12.4341 38.9907 12.4341 38.5403C12.3869 37.865 12.4163 37.1866 12.5217 36.5179C12.8163 36.9043 13.1965 37.217 13.6324 37.4315C14.0683 37.6461 14.548 37.7566 15.0338 37.7543H15.2454C17.0592 37.7543 18.0719 36.9593 18.483 35.2029C18.7853 33.8577 18.483 32.4823 17.6336 31.651C16.8506 30.8771 15.7019 30.602 14.396 30.8922ZM18.0236 35.1243C17.6487 36.7295 16.7902 37.3583 15.052 37.3069C13.5979 37.2586 12.5973 36.4 12.4462 35.0306C12.3839 34.2445 12.4544 33.4536 12.6548 32.6909C12.6892 32.6937 12.7238 32.689 12.7562 32.6769C12.7886 32.6649 12.8179 32.6459 12.8422 32.6213C12.9419 32.5216 13.0387 32.4188 13.1445 32.319C13.5344 31.9019 13.9063 31.5058 14.5078 31.3698C15.6475 31.1159 16.6421 31.3456 17.3071 32.0198C18.0236 32.7332 18.2986 33.9242 18.0236 35.1123V35.1243Z" fill="white"/>
<path d="M70.5931 31.0411C69.6378 30.7116 68.2442 30.4365 67.1378 31.6941C67.0683 31.7757 66.9897 31.8482 66.9111 31.9238L66.8264 32.0054C66.8176 31.9792 66.8043 31.9546 66.7871 31.9329C66.6995 31.8301 66.7055 31.7152 66.7237 31.5187C66.7448 31.3785 66.7448 31.2358 66.7237 31.0955C66.7206 31.0621 66.7106 31.0298 66.6942 31.0005C66.6778 30.9713 66.6554 30.9458 66.6285 30.9258C66.6017 30.9058 66.5709 30.8916 66.5382 30.8843C66.5055 30.8769 66.4716 30.8765 66.4387 30.8832C66.4058 30.8898 66.3747 30.9032 66.3474 30.9227C66.3201 30.9421 66.2972 30.9671 66.2801 30.9959C66.2631 31.0248 66.2524 31.0569 66.2486 31.0902C66.2448 31.1235 66.248 31.1573 66.2581 31.1892V31.4432C66.2567 31.4522 66.2567 31.4614 66.2581 31.4704C66.24 31.6028 66.24 31.737 66.2581 31.8694L66.243 34.3785V34.3392C66.243 34.8561 66.243 35.367 66.243 35.8718C66.243 36.3767 66.2642 36.9752 66.243 37.5224C66.2413 37.5855 66.2645 37.6468 66.3074 37.6931C66.3503 37.7394 66.4097 37.7671 66.4728 37.7703C66.5343 37.7703 66.5933 37.7463 66.6374 37.7033C66.6814 37.6604 66.707 37.602 66.7085 37.5405C66.7297 36.9813 66.7085 36.4129 66.7085 35.8628C66.6401 34.7174 66.7143 33.5679 66.9292 32.4408C66.963 32.4442 66.9971 32.44 67.029 32.4285C67.0609 32.4169 67.0898 32.3984 67.1136 32.3742L67.2255 32.2654C67.3101 32.1838 67.3978 32.0992 67.4794 32.0054C68.1868 31.1923 69.0937 31.032 70.4238 31.4915C71.4304 31.8392 71.6118 32.607 71.5786 33.7376C71.5513 34.6203 71.5574 35.5181 71.5786 36.3827C71.5786 36.7666 71.5786 37.1505 71.5786 37.5314C71.5748 37.5649 71.5781 37.5987 71.5883 37.6307C71.5985 37.6628 71.6154 37.6923 71.6378 37.7174C71.6602 37.7424 71.6876 37.7625 71.7183 37.7762C71.749 37.79 71.7822 37.7971 71.8159 37.7971C71.8495 37.7971 71.8827 37.79 71.9134 37.7762C71.9441 37.7625 71.9716 37.7424 71.994 37.7174C72.0164 37.6923 72.0332 37.6628 72.0434 37.6307C72.0536 37.5987 72.0569 37.5649 72.0532 37.5314C72.0532 37.1475 72.0532 36.7636 72.0532 36.3797C72.0532 35.5181 72.0532 34.6264 72.0683 33.7527C72.0985 32.6735 71.9474 31.5097 70.5931 31.0411Z" fill="white"/>
<path d="M31.1583 34.598C31.1583 34.2443 31.1825 33.8786 31.1825 33.5158C31.1825 32.5726 31.0163 31.5418 29.8313 31.0521C29.3224 30.8299 28.7664 30.7373 28.213 30.7827C27.6596 30.8281 27.1261 31.01 26.6602 31.312C26.4075 31.4758 26.1725 31.6652 25.9588 31.8773L25.8319 31.9952V31.1337C25.8253 31.0754 25.7974 31.0215 25.7537 30.9824C25.7099 30.9433 25.6533 30.9217 25.5946 30.9217C25.5359 30.9217 25.4792 30.9433 25.4355 30.9824C25.3917 31.0215 25.3639 31.0754 25.3573 31.1337V32.5001C25.3573 33.7818 25.3573 35.0626 25.3573 36.3423C25.3573 36.4269 25.3573 36.5146 25.3573 36.5992C25.3147 36.9496 25.3647 37.305 25.5024 37.6301C25.5221 37.6701 25.5527 37.7037 25.5907 37.7273C25.6286 37.7508 25.6724 37.7632 25.717 37.7631C25.7539 37.7626 25.7902 37.7533 25.8228 37.7359C25.8507 37.7221 25.8755 37.7029 25.8959 37.6794C25.9163 37.6559 25.9319 37.6287 25.9418 37.5992C25.9516 37.5697 25.9555 37.5385 25.9532 37.5075C25.951 37.4765 25.9426 37.4462 25.9286 37.4185C25.8284 37.1651 25.7951 36.8903 25.8319 36.6204C25.8319 36.5267 25.8319 36.433 25.8319 36.3393C25.8319 35.0787 25.8319 33.8151 25.8319 32.5515C25.8891 32.5528 25.9449 32.5334 25.9891 32.4971C26.0888 32.4094 26.1856 32.3157 26.2914 32.222C26.486 32.0298 26.6986 31.8567 26.9262 31.705C27.3256 31.4449 27.7835 31.2885 28.2586 31.25C28.7336 31.2114 29.2108 31.292 29.6469 31.4844C30.5205 31.8411 30.7019 32.5515 30.7049 33.5067C30.7049 33.8604 30.7049 34.2232 30.6807 34.5738C30.6128 35.4987 30.6565 36.4284 30.8107 37.3429C30.8224 37.3959 30.8518 37.4434 30.8942 37.4775C30.9365 37.5116 30.9891 37.5302 31.0435 37.5303H31.0918C31.1534 37.5172 31.2074 37.4803 31.2419 37.4277C31.2764 37.375 31.2888 37.3109 31.2762 37.2492C31.1319 36.3733 31.0923 35.4833 31.1583 34.598Z" fill="white"/>
<path d="M52.3525 30.9217C51.8351 30.7435 51.2768 30.7207 50.7466 30.8561C50.2164 30.9914 49.7374 31.2791 49.3688 31.6835L49.133 31.9193L49.0151 32.0372C48.9994 32.0533 48.9861 32.0716 48.9758 32.0916C48.3017 31.218 47.4432 30.7343 46.5756 30.7524C46.1625 30.7735 45.7597 30.8884 45.3977 31.0885C45.0358 31.2886 44.7242 31.5686 44.4867 31.9072C44.4244 31.7871 44.4083 31.6484 44.4413 31.5173C44.4639 31.3771 44.4639 31.2342 44.4413 31.094C44.4356 31.0634 44.4237 31.0342 44.4066 31.0081C44.3894 30.9821 44.3673 30.9597 44.3414 30.9423C44.3156 30.9248 44.2865 30.9127 44.2559 30.9066C44.2253 30.9005 44.1938 30.9005 44.1632 30.9066C44.1325 30.9128 44.1032 30.9249 44.0771 30.9424C44.051 30.9598 44.0287 30.9822 44.0113 31.0083C43.9939 31.0345 43.9818 31.0637 43.9757 31.0945C43.9696 31.1253 43.9696 31.157 43.9758 31.1878V31.4417C43.9773 31.4507 43.9773 31.4599 43.9758 31.4689C43.9576 31.6023 43.9576 31.7375 43.9758 31.8709L43.9607 34.5191L43.9758 34.4375C43.9758 35.1237 43.9758 35.8129 43.9758 36.487C43.9758 36.8347 43.9758 37.1823 43.9758 37.53C43.972 37.5634 43.9753 37.5972 43.9856 37.6292C43.9958 37.6613 44.0126 37.6908 44.035 37.7159C44.0574 37.741 44.0849 37.761 44.1155 37.7748C44.1462 37.7885 44.1795 37.7956 44.2131 37.7956C44.2467 37.7956 44.28 37.7885 44.3107 37.7748C44.3414 37.761 44.3688 37.741 44.3912 37.7159C44.4136 37.6908 44.4305 37.6613 44.4407 37.6292C44.4509 37.5972 44.4542 37.5634 44.4504 37.53C44.4504 37.1823 44.4504 36.8347 44.4504 36.484C44.4504 35.6648 44.4504 34.8153 44.4504 33.984V33.7996C44.4504 33.2706 44.4504 32.7688 44.7527 32.3425C45.2515 31.6352 45.9014 31.2391 46.5816 31.2271C47.2618 31.215 48.0115 31.62 48.5889 32.3637V37.53C48.5851 37.5634 48.5884 37.5972 48.5986 37.6292C48.6088 37.6613 48.6257 37.6908 48.6481 37.7159C48.6705 37.741 48.6979 37.761 48.7286 37.7748C48.7593 37.7885 48.7925 37.7956 48.8262 37.7956C48.8598 37.7956 48.893 37.7885 48.9237 37.7748C48.9544 37.761 48.9819 37.741 49.0043 37.7159C49.0267 37.6908 49.0435 37.6613 49.0537 37.6292C49.0639 37.5972 49.0672 37.5634 49.0635 37.53V32.3909C49.1095 32.4225 49.1653 32.4366 49.2208 32.4305C49.2763 32.4244 49.3277 32.3985 49.3658 32.3576L49.4837 32.2397L49.7225 32.0009C50.4147 31.2936 51.4063 31.0306 52.1892 31.348C53.0266 31.6835 53.3984 32.3063 53.3561 33.3673C53.3289 34.3347 53.3349 35.3202 53.3561 36.2724C53.3561 36.6865 53.3561 37.1007 53.3561 37.5148C53.3561 37.5782 53.3813 37.6389 53.426 37.6837C53.4708 37.7285 53.5316 37.7537 53.5949 37.7537C53.6582 37.7537 53.719 37.7285 53.7638 37.6837C53.8086 37.6389 53.8337 37.5782 53.8337 37.5148C53.8337 37.1007 53.8337 36.6835 53.8337 36.2694C53.8337 35.3202 53.8337 34.3407 53.8337 33.3794C53.8519 32.143 53.3712 31.3329 52.3525 30.9217Z" fill="white"/>
<path d="M85.333 28.2988C85.2702 28.2996 85.2102 28.3251 85.1661 28.3698C85.122 28.4145 85.0972 28.4748 85.0972 28.5376V37.531C85.0934 37.5644 85.0968 37.5982 85.107 37.6303C85.1172 37.6623 85.134 37.6918 85.1564 37.7169C85.1788 37.742 85.2063 37.7621 85.237 37.7758C85.2677 37.7895 85.3009 37.7966 85.3345 37.7966C85.3681 37.7966 85.4014 37.7895 85.4321 37.7758C85.4628 37.7621 85.4902 37.742 85.5126 37.7169C85.535 37.6918 85.5519 37.6623 85.5621 37.6303C85.5723 37.5982 85.5756 37.5644 85.5718 37.531V28.5528C85.5739 28.5201 85.5692 28.4875 85.5582 28.4567C85.5471 28.426 85.5298 28.3978 85.5074 28.374C85.4851 28.3502 85.458 28.3313 85.428 28.3183C85.398 28.3054 85.3657 28.2988 85.333 28.2988Z" fill="white"/>
<path d="M61.0857 30.9137C58.9031 30.3696 57.3795 31.5183 56.8898 32.8303C56.2187 34.6139 56.8445 36.6151 58.3106 37.3859C58.8241 37.6642 59.3983 37.8116 59.9823 37.8152C61.1159 37.8152 62.2072 37.2317 63.0053 36.1314C63.0236 36.1062 63.0367 36.0776 63.0439 36.0473C63.0511 36.0171 63.0523 35.9857 63.0474 35.9549C63.0425 35.9242 63.0316 35.8947 63.0153 35.8682C62.999 35.8417 62.9776 35.8186 62.9524 35.8004C62.9272 35.7821 62.8986 35.769 62.8683 35.7618C62.8381 35.7545 62.8067 35.7534 62.7759 35.7583C62.7452 35.7632 62.7157 35.7741 62.6892 35.7904C62.6627 35.8067 62.6396 35.8281 62.6214 35.8533C61.5845 37.2892 59.9823 37.7275 58.5373 36.9657C58.1001 36.7084 57.7378 36.3411 57.4865 35.9004C57.2351 35.4597 57.1034 34.961 57.1044 34.4536H62.9146C62.9725 34.4534 63.0284 34.4321 63.0717 34.3937C63.1151 34.3553 63.1431 34.3025 63.1504 34.245C63.3801 32.5401 62.5972 31.2916 61.0857 30.9137ZM62.703 33.9941H57.1165C57.1455 33.6569 57.2208 33.3253 57.3402 33.0087C57.5549 32.4778 57.9276 32.0258 58.4078 31.7138C58.8879 31.4018 59.4524 31.2449 60.0246 31.2644C60.3457 31.2666 60.6654 31.3072 60.9769 31.3853C62.1951 31.6785 62.8148 32.6217 62.703 33.9941Z" fill="white"/>
<path d="M22.0381 33.5488C22.0381 32.7568 22.0653 31.9406 22.0381 31.1305C22.0377 31.0991 22.031 31.0681 22.0184 31.0394C22.0058 31.0107 21.9875 30.9849 21.9646 30.9634C21.9417 30.942 21.9148 30.9253 21.8853 30.9146C21.8559 30.9038 21.8245 30.8991 21.7932 30.9007C21.7304 30.9031 21.6711 30.9301 21.6281 30.9759C21.5851 31.0218 21.5619 31.0827 21.5635 31.1456C21.5907 31.9406 21.5635 32.7538 21.5635 33.5367C21.5075 34.8781 21.5479 36.2217 21.6844 37.5573C21.6917 37.6147 21.7197 37.6676 21.7631 37.7059C21.8064 37.7443 21.8623 37.7656 21.9202 37.7659H21.9504C22.0128 37.7576 22.0695 37.725 22.1079 37.6752C22.1464 37.6254 22.1637 37.5623 22.156 37.4999C22.0248 36.1872 21.9854 34.867 22.0381 33.5488Z" fill="white"/>
<path d="M37.298 30.7866H37.2708C37.2417 30.782 37.2121 30.782 37.1831 30.7866C35.4902 30.974 34.414 31.9716 34.1601 33.595C33.9062 35.2183 34.4261 36.4638 35.6716 37.2648C36.234 37.636 36.8932 37.8336 37.567 37.8332C38.1304 37.8261 38.6865 37.7058 39.2024 37.4795C40.2756 37.023 40.8953 36.0557 41.0495 34.6016C41.1127 34.0685 41.0538 33.5281 40.8773 33.0211C40.7008 32.5141 40.4113 32.054 40.0307 31.6754C39.6733 31.3284 39.2412 31.0679 38.7675 30.9138C38.2938 30.7598 37.7911 30.7162 37.298 30.7866ZM40.5567 34.5502C40.4237 35.838 39.9128 36.6663 38.9999 37.0411C37.8663 37.5218 36.8294 37.4613 35.9134 36.8658C34.8373 36.1645 34.402 35.0883 34.6287 33.6675C34.8554 32.2467 35.7532 31.4245 37.2375 31.2491H37.2708C37.3007 31.2553 37.3315 31.2553 37.3614 31.2491C37.7807 31.1899 38.2079 31.2275 38.6103 31.359C39.0128 31.4906 39.3798 31.7125 39.6831 32.0079C40.0131 32.3369 40.2633 32.7371 40.4148 33.1777C40.5662 33.6184 40.6148 34.0879 40.5567 34.5502Z" fill="white"/>
<path d="M81.6421 33.6742V32.0358C81.6661 31.8249 81.6661 31.6119 81.6421 31.401C81.627 31.2451 81.627 31.0882 81.6421 30.9324C81.6489 30.8699 81.6308 30.8073 81.5918 30.7581C81.5527 30.7088 81.4959 30.677 81.4335 30.6694C81.3707 30.6625 81.3077 30.6805 81.258 30.7195C81.2083 30.7585 81.1758 30.8154 81.1675 30.878C81.1508 31.062 81.1508 31.2472 81.1675 31.4312C81.2052 31.6805 81.1792 31.9353 81.0919 32.1718C81.0006 32.0338 80.8996 31.9025 80.7896 31.7788C80.4099 31.3877 79.9418 31.0935 79.4247 30.9209C78.9075 30.7484 78.3565 30.7025 77.818 30.7873H77.7878C77.755 30.7798 77.7209 30.7798 77.688 30.7873C77.0683 30.8785 76.4902 31.1537 76.0288 31.5774C75.5674 32.0011 75.2439 32.5536 75.1004 33.1634C74.7195 34.6083 75.1759 36.3042 76.1614 37.1114C76.7216 37.5755 77.4261 37.8299 78.1536 37.8308C78.7285 37.8139 79.2925 37.6696 79.8048 37.4082C80.3171 37.1468 80.765 36.7749 81.1161 36.3193C81.1799 36.538 81.1974 36.7676 81.1675 36.9935C81.1508 37.1775 81.1508 37.3626 81.1675 37.5467C81.1747 37.6044 81.2026 37.6576 81.2459 37.6965C81.2892 37.7353 81.3451 37.7573 81.4033 37.7583H81.4335C81.4959 37.7507 81.5527 37.7188 81.5918 37.6696C81.6308 37.6204 81.6489 37.5577 81.6421 37.4953C81.627 37.3395 81.627 37.1825 81.6421 37.0267C81.6661 36.8158 81.6661 36.6028 81.6421 36.3919V34.7504C81.6852 34.393 81.6852 34.0317 81.6421 33.6742ZM81.104 35.1253C80.8924 36.147 80.3392 36.7395 79.1874 37.1688C78.7385 37.3531 78.2476 37.4112 77.7681 37.3366C77.2885 37.262 76.8385 37.0576 76.4668 36.7456C75.6143 36.0503 75.2243 34.563 75.5599 33.2903C75.6796 32.7685 75.9544 32.2951 76.3483 31.9325C76.7422 31.5699 77.2367 31.3351 77.7666 31.2589H77.7878C77.8167 31.265 77.8466 31.265 77.8755 31.2589C78.3391 31.1811 78.8147 31.2172 79.2613 31.3641C79.7079 31.511 80.1121 31.7644 80.4389 32.1023C81.1342 32.8308 81.364 33.907 81.1131 35.1253H81.104Z" fill="white"/>
<path d="M31.9564 12.6972L31.9382 1.04361C31.9628 0.812776 32.0484 0.592636 32.1861 0.405764C32.3732 0.264754 32.5924 0.172317 32.824 0.136719L44.0452 0.17904C46.1496 0.438715 48.1522 1.23391 49.8614 2.48859C51.6212 3.8787 53.0979 5.59349 54.2115 7.53998C54.2115 7.53998 54.7073 8.4892 54.4594 8.6343C54.2115 8.7794 53.7792 8.332 53.7792 8.332C52.9997 7.8919 52.1679 7.55166 51.3034 7.31931C49.5501 6.78424 39.6498 6.9505 39.6498 6.9505C39.6498 6.9505 39.0936 6.90818 38.9485 7.31931C38.8653 7.58089 38.8653 7.86183 38.9485 8.12342C38.9485 8.12342 39.0725 8.45595 39.6922 8.45595L51.1402 8.43478C51.9448 8.45414 52.7235 8.72356 53.3681 9.20564C53.6831 9.42866 53.9488 9.71422 54.1485 10.0445C54.3482 10.3748 54.4777 10.7427 54.5289 11.1252L54.5622 23.2927C54.5312 23.4402 54.4601 23.5762 54.3566 23.6857C54.1493 23.8042 53.9152 23.8676 53.6764 23.8701L43.5283 23.8913C43.5283 23.8913 39.9249 23.465 37.6698 22.0835C35.4147 20.702 33.4014 18.2443 32.5761 16.8235C31.7508 15.4027 32.1015 15.2123 32.1015 15.2123C32.1015 15.2123 32.2466 15.0279 32.7635 15.4209C33.7028 16.0902 34.7802 16.5406 35.9165 16.7389C37.2375 16.9263 47.2828 16.8235 47.2828 16.8235C47.2828 16.8235 47.6335 16.9263 47.7575 16.4094C47.8014 16.2896 47.8203 16.1621 47.813 16.0347C47.8057 15.9073 47.7724 15.7828 47.7151 15.6688C47.7151 15.6688 47.6124 15.4602 47.1801 15.4602H35.1758C35.1758 15.4602 32.4521 15.3786 31.9564 12.6972Z" fill="url(#paint0_linear_458_388)"/>
</g>
<defs>
<linearGradient id="paint0_linear_458_388" x1="54.5622" y1="12.0079" x2="31.9382" y2="12.0079" gradientUnits="userSpaceOnUse">
<stop offset="0.12" stop-color="#A1509D"/>
<stop offset="0.17" stop-color="#955CA3"/>
<stop offset="0.33" stop-color="#737EB4"/>
<stop offset="0.49" stop-color="#5898C2"/>
<stop offset="0.65" stop-color="#45ABCB"/>
<stop offset="0.82" stop-color="#3AB6D1"/>
<stop offset="1" stop-color="#36BAD3"/>
</linearGradient>
<clipPath id="clip0_458_388">
<rect width="85.4167" height="40" fill="white" transform="translate(0.541992 0.136719)"/>
</clipPath>
</defs>
</svg>
