<svg width="43" height="21" viewBox="0 0 43 21" fill="none" xmlns="http://www.w3.org/2000/svg">
<g style="mix-blend-mode:luminosity" clip-path="url(#clip0_777_2577)">
<path d="M3.14977 16.6074C2.84025 16.496 2.52092 16.4141 2.19602 16.3626C1.85193 16.3125 1.51502 16.2217 1.19239 16.092C0.779759 15.9091 0.5878 15.6885 0.55757 15.3544C0.536404 15.1947 0.570618 15.0326 0.654508 14.8951C0.738398 14.7575 0.866895 14.6529 1.01857 14.5987C1.35991 14.4569 1.72589 14.3839 2.09551 14.3839C2.46513 14.3839 2.83111 14.4569 3.17244 14.5987C3.35241 14.6627 3.50659 14.7837 3.6116 14.9433C3.71661 15.1028 3.76674 15.2923 3.75437 15.4829C3.75395 15.5145 3.76589 15.5449 3.78764 15.5678C3.80938 15.5907 3.83921 15.6041 3.87075 15.6053C3.90183 15.6046 3.93151 15.5923 3.95391 15.5707C3.9763 15.5492 3.98978 15.52 3.99167 15.4889C4.00435 15.2505 3.9405 15.0143 3.80944 14.8147C3.67838 14.6151 3.48697 14.4626 3.26313 14.3795C2.89334 14.2257 2.49678 14.1465 2.09626 14.1465C1.69575 14.1465 1.29919 14.2257 0.929396 14.3795C0.73102 14.4534 0.563401 14.5921 0.453675 14.7732C0.34395 14.9542 0.298541 15.167 0.324801 15.3771C0.376192 15.9212 0.766155 16.1615 1.09868 16.3097C1.43898 16.4463 1.79407 16.5426 2.15672 16.5969C2.46554 16.6456 2.76915 16.723 3.06362 16.8281C3.76344 17.1047 3.85564 17.1999 3.87831 17.6791C3.89947 18.1068 3.6667 18.3744 3.12256 18.5467C2.47333 18.7516 1.77424 18.7335 1.13647 18.4953C0.907959 18.4227 0.712432 18.2717 0.58439 18.069C0.456349 17.8663 0.404025 17.6249 0.436651 17.3874C0.437941 17.3714 0.436072 17.3553 0.431149 17.3401C0.426226 17.3248 0.418347 17.3107 0.407961 17.2985C0.397574 17.2862 0.384885 17.2762 0.370616 17.2689C0.356348 17.2616 0.34078 17.2572 0.324801 17.2559C0.308823 17.2546 0.292746 17.2564 0.27749 17.2614C0.262234 17.2663 0.248097 17.2742 0.235887 17.2846C0.223676 17.2949 0.21363 17.3076 0.206323 17.3219C0.199017 17.3362 0.194592 17.3517 0.193302 17.3677C0.155707 17.6568 0.220334 17.9499 0.376003 18.1964C0.531671 18.4429 0.768592 18.6272 1.04578 18.7175C1.73289 18.9749 2.48644 18.9946 3.18605 18.7734C3.42486 18.6993 4.15038 18.4711 4.10957 17.667C4.08538 17.0563 3.89493 16.9007 3.14977 16.6074Z" fill="white"/>
<path d="M6.927 15.4783C6.55366 15.5615 6.33449 15.7957 6.12288 16.0225L5.99743 16.154C5.99549 16.1448 5.99191 16.1361 5.98685 16.1283C5.93926 16.035 5.92537 15.9282 5.94755 15.826C5.95812 15.7437 5.95812 15.6604 5.94755 15.5781C5.94261 15.5519 5.92907 15.5282 5.90908 15.5106C5.8891 15.493 5.86381 15.4826 5.83723 15.481C5.81066 15.4795 5.78432 15.4868 5.76241 15.502C5.7405 15.5171 5.72427 15.5391 5.71629 15.5645C5.71243 15.5809 5.71243 15.598 5.71629 15.6144V15.7882C5.71712 15.7937 5.71712 15.7993 5.71629 15.8048C5.70649 15.8861 5.70649 15.9683 5.71629 16.0497V16.9989C5.70118 17.1698 5.70118 17.3418 5.71629 17.5128V18.5995C5.70421 18.8362 5.70421 19.0733 5.71629 19.3099C5.71629 19.5261 5.7299 19.7498 5.71629 19.9659C5.71463 19.9975 5.7254 20.0285 5.74631 20.0522C5.76722 20.076 5.7966 20.0906 5.82814 20.0929C5.85839 20.0929 5.8875 20.0813 5.90944 20.0605C5.93139 20.0397 5.94449 20.0112 5.94604 19.981C5.95964 19.7528 5.94604 19.5276 5.94604 19.3024C5.92246 18.9647 5.93716 18.6255 5.98987 18.2912C6.13716 18.4844 6.32725 18.6407 6.5452 18.748C6.76315 18.8553 7.00301 18.9105 7.24592 18.9094H7.35172C8.25862 18.9094 8.76496 18.5119 8.97053 17.6337C9.12168 16.9611 8.97053 16.2734 8.5458 15.8577C8.15432 15.4708 7.57996 15.3332 6.927 15.4783ZM8.74078 17.5944C8.55336 18.397 8.12409 18.7114 7.25499 18.6857C6.52796 18.6615 6.02766 18.2322 5.95209 17.5475C5.92095 17.1545 5.9562 16.759 6.05638 16.3777C6.07359 16.3791 6.09091 16.3767 6.1071 16.3707C6.1233 16.3647 6.13797 16.3552 6.15009 16.3429C6.19997 16.293 6.24834 16.2416 6.30124 16.1917C6.49622 15.9832 6.68213 15.7852 6.98292 15.7171C7.55275 15.5902 8.05003 15.705 8.38256 16.0421C8.74078 16.3988 8.87833 16.9943 8.74078 17.5884V17.5944Z" fill="white"/>
<path d="M35.0255 15.5508C34.5479 15.3861 33.8511 15.2485 33.2979 15.8773C33.2631 15.9181 33.2238 15.9544 33.1845 15.9922L33.1422 16.033C33.1378 16.0199 33.1312 16.0076 33.1226 15.9967C33.0787 15.9453 33.0818 15.8879 33.0908 15.7896C33.1014 15.7195 33.1014 15.6482 33.0908 15.578C33.0893 15.5613 33.0843 15.5452 33.0761 15.5305C33.0679 15.5159 33.0567 15.5032 33.0433 15.4932C33.0298 15.4832 33.0144 15.4761 32.9981 15.4724C32.9817 15.4687 32.9648 15.4685 32.9484 15.4719C32.9319 15.4752 32.9164 15.4819 32.9027 15.4916C32.8891 15.5013 32.8776 15.5138 32.8691 15.5282C32.8606 15.5427 32.8552 15.5587 32.8533 15.5754C32.8514 15.592 32.853 15.6089 32.8581 15.6249V15.7519C32.8573 15.7564 32.8573 15.761 32.8581 15.7655C32.849 15.8317 32.849 15.8988 32.8581 15.965L32.8505 17.2195V17.1999C32.8505 17.4583 32.8505 17.7138 32.8505 17.9662C32.8505 18.2186 32.8611 18.5179 32.8505 18.7915C32.8497 18.823 32.8612 18.8537 32.8827 18.8768C32.9042 18.9 32.9338 18.9138 32.9654 18.9154C32.9961 18.9154 33.0257 18.9034 33.0477 18.8819C33.0697 18.8605 33.0825 18.8313 33.0833 18.8005C33.0939 18.5209 33.0833 18.2367 33.0833 17.9617C33.0491 17.3889 33.0861 16.8142 33.1936 16.2506C33.2105 16.2524 33.2275 16.2503 33.2435 16.2445C33.2595 16.2387 33.2739 16.2295 33.2858 16.2174L33.3417 16.163C33.3841 16.1222 33.4279 16.0799 33.4687 16.033C33.8224 15.6264 34.2758 15.5463 34.9409 15.776C35.4442 15.9499 35.5349 16.3338 35.5183 16.8991C35.5047 17.3404 35.5077 17.7893 35.5183 18.2216C35.5183 18.4136 35.5183 18.6055 35.5183 18.796C35.5164 18.8127 35.5181 18.8296 35.5232 18.8456C35.5283 18.8617 35.5367 18.8764 35.5479 18.889C35.5591 18.9015 35.5728 18.9115 35.5882 18.9184C35.6035 18.9253 35.6201 18.9288 35.6369 18.9288C35.6537 18.9288 35.6704 18.9253 35.6857 18.9184C35.7011 18.9115 35.7148 18.9015 35.726 18.889C35.7372 18.8764 35.7456 18.8617 35.7507 18.8456C35.7558 18.8296 35.7575 18.8127 35.7556 18.796C35.7556 18.604 35.7556 18.4121 35.7556 18.2201C35.7556 17.7893 35.7556 17.3435 35.7631 16.9066C35.7783 16.367 35.7027 15.7851 35.0255 15.5508Z" fill="white"/>
<path d="M15.3082 17.3312C15.3082 17.1544 15.3203 16.9715 15.3203 16.7901C15.3203 16.3185 15.2371 15.8031 14.6446 15.5583C14.3902 15.4472 14.1122 15.4009 13.8355 15.4236C13.5588 15.4463 13.292 15.5372 13.0591 15.6883C12.9328 15.7701 12.8152 15.8648 12.7084 15.9709L12.6449 16.0298V15.5991C12.6416 15.5699 12.6277 15.543 12.6058 15.5234C12.584 15.5039 12.5556 15.4931 12.5263 15.4931C12.4969 15.4931 12.4686 15.5039 12.4467 15.5234C12.4248 15.543 12.4109 15.5699 12.4076 15.5991V16.2823C12.4076 16.9231 12.4076 17.5635 12.4076 18.2034C12.4076 18.2457 12.4076 18.2895 12.4076 18.3318C12.3864 18.507 12.4114 18.6847 12.4802 18.8473C12.4901 18.8673 12.5054 18.8841 12.5243 18.8959C12.5433 18.9076 12.5652 18.9138 12.5875 18.9138C12.606 18.9135 12.6241 18.9089 12.6404 18.9002C12.6543 18.8933 12.6668 18.8837 12.677 18.8719C12.6872 18.8602 12.695 18.8466 12.6999 18.8318C12.7048 18.8171 12.7067 18.8015 12.7056 18.786C12.7045 18.7705 12.7003 18.7553 12.6933 18.7415C12.6432 18.6148 12.6265 18.4774 12.6449 18.3424C12.6449 18.2956 12.6449 18.2487 12.6449 18.2019C12.6449 17.5716 12.6449 16.9398 12.6449 16.308C12.6735 16.3086 12.7014 16.2989 12.7235 16.2808C12.7734 16.2369 12.8218 16.1901 12.8747 16.1432C12.972 16.0471 13.0783 15.9606 13.1921 15.8847C13.3918 15.7547 13.6208 15.6765 13.8583 15.6572C14.0958 15.6379 14.3344 15.6782 14.5524 15.7744C14.9893 15.9528 15.0799 16.308 15.0815 16.7856C15.0815 16.9624 15.0815 17.1438 15.0694 17.3191C15.0354 17.7816 15.0572 18.2464 15.1344 18.7037C15.1402 18.7302 15.1549 18.7539 15.1761 18.771C15.1972 18.788 15.2236 18.7973 15.2507 18.7974H15.2749C15.3057 18.7908 15.3327 18.7724 15.35 18.7461C15.3672 18.7197 15.3734 18.6877 15.3671 18.6568C15.2949 18.2189 15.2752 17.7739 15.3082 17.3312Z" fill="white"/>
<path d="M25.9052 15.4931C25.6465 15.404 25.3674 15.3926 25.1023 15.4603C24.8372 15.5279 24.5977 15.6718 24.4134 15.874L24.2955 15.9919L24.2366 16.0508C24.2287 16.0589 24.2221 16.068 24.2169 16.078C23.8798 15.6412 23.4506 15.3994 23.0168 15.4084C22.8103 15.419 22.6089 15.4764 22.4279 15.5765C22.2469 15.6765 22.0911 15.8165 21.9723 15.9858C21.9412 15.9258 21.9331 15.8564 21.9497 15.7909C21.9609 15.7208 21.9609 15.6493 21.9497 15.5792C21.9468 15.5639 21.9409 15.5493 21.9323 15.5363C21.9237 15.5233 21.9126 15.5121 21.8997 15.5034C21.8868 15.4946 21.8722 15.4886 21.857 15.4855C21.8417 15.4825 21.8259 15.4825 21.8106 15.4855C21.7952 15.4886 21.7806 15.4947 21.7676 15.5034C21.7545 15.5121 21.7433 15.5233 21.7346 15.5364C21.7259 15.5495 21.7199 15.5641 21.7168 15.5795C21.7138 15.5949 21.7138 15.6107 21.7169 15.6261V15.7531C21.7176 15.7576 21.7176 15.7622 21.7169 15.7667C21.7078 15.8334 21.7078 15.901 21.7169 15.9677L21.7094 17.2918L21.7169 17.251C21.7169 17.5941 21.7169 17.9387 21.7169 18.2757C21.7169 18.4496 21.7169 18.6234 21.7169 18.7972C21.715 18.8139 21.7167 18.8308 21.7218 18.8468C21.7269 18.8629 21.7353 18.8776 21.7465 18.8902C21.7577 18.9027 21.7714 18.9127 21.7868 18.9196C21.8021 18.9265 21.8187 18.93 21.8356 18.93C21.8524 18.93 21.869 18.9265 21.8843 18.9196C21.8997 18.9127 21.9134 18.9027 21.9246 18.8902C21.9358 18.8776 21.9442 18.8629 21.9493 18.8468C21.9544 18.8308 21.9561 18.8139 21.9542 18.7972C21.9542 18.6234 21.9542 18.4496 21.9542 18.2742C21.9542 17.8646 21.9542 17.4399 21.9542 17.0242V16.932C21.9542 16.6675 21.9542 16.4166 22.1054 16.2035C22.3548 15.8498 22.6797 15.6518 23.0198 15.6458C23.3599 15.6397 23.7347 15.8422 24.0234 16.2141V18.7972C24.0215 18.8139 24.0232 18.8308 24.0283 18.8468C24.0334 18.8629 24.0418 18.8776 24.053 18.8902C24.0642 18.9027 24.078 18.9127 24.0933 18.9196C24.1087 18.9265 24.1253 18.93 24.1421 18.93C24.1589 18.93 24.1755 18.9265 24.1909 18.9196C24.2062 18.9127 24.2199 18.9027 24.2311 18.8902C24.2423 18.8776 24.2508 18.8629 24.2559 18.8468C24.261 18.8308 24.2626 18.8139 24.2607 18.7972V16.2277C24.2837 16.2435 24.3117 16.2505 24.3394 16.2475C24.3672 16.2444 24.3929 16.2315 24.4119 16.211L24.4708 16.1521L24.5902 16.0327C24.9364 15.679 25.4321 15.5475 25.8236 15.7062C26.2423 15.874 26.4282 16.1854 26.4071 16.7159C26.3934 17.1996 26.3965 17.6923 26.4071 18.1684C26.4071 18.3755 26.4071 18.5826 26.4071 18.7896C26.4071 18.8213 26.4196 18.8517 26.442 18.8741C26.4644 18.8965 26.4948 18.9091 26.5265 18.9091C26.5581 18.9091 26.5885 18.8965 26.6109 18.8741C26.6333 18.8517 26.6459 18.8213 26.6459 18.7896C26.6459 18.5826 26.6459 18.374 26.6459 18.1669C26.6459 17.6923 26.6459 17.2026 26.6459 16.7219C26.6549 16.1037 26.4146 15.6987 25.9052 15.4931Z" fill="white"/>
<path d="M42.3955 14.1797C42.3641 14.1801 42.3341 14.1928 42.312 14.2152C42.29 14.2375 42.2776 14.2677 42.2776 14.2991V18.7958C42.2757 18.8125 42.2774 18.8294 42.2825 18.8454C42.2876 18.8614 42.296 18.8762 42.3072 18.8887C42.3184 18.9013 42.3321 18.9113 42.3475 18.9182C42.3628 18.925 42.3795 18.9286 42.3963 18.9286C42.4131 18.9286 42.4297 18.925 42.445 18.9182C42.4604 18.9113 42.4741 18.9013 42.4853 18.8887C42.4965 18.8762 42.5049 18.8614 42.51 18.8454C42.5151 18.8294 42.5168 18.8125 42.5149 18.7958V14.3067C42.5159 14.2903 42.5136 14.274 42.5081 14.2586C42.5026 14.2433 42.4939 14.2292 42.4827 14.2173C42.4715 14.2054 42.458 14.1959 42.443 14.1894C42.428 14.183 42.4118 14.1797 42.3955 14.1797Z" fill="white"/>
<path d="M30.2719 15.4871C29.1806 15.2151 28.4188 15.7894 28.1739 16.4454C27.8384 17.3372 28.1512 18.3378 28.8843 18.7232C29.1411 18.8624 29.4281 18.9361 29.7202 18.9379C30.287 18.9379 30.8326 18.6461 31.2317 18.096C31.2408 18.0834 31.2473 18.0691 31.251 18.0539C31.2546 18.0388 31.2552 18.0231 31.2527 18.0077C31.2502 17.9924 31.2448 17.9776 31.2366 17.9644C31.2285 17.9511 31.2178 17.9396 31.2052 17.9305C31.1926 17.9213 31.1783 17.9148 31.1632 17.9112C31.148 17.9075 31.1323 17.9069 31.117 17.9094C31.1016 17.9119 31.0869 17.9173 31.0736 17.9255C31.0603 17.9336 31.0488 17.9443 31.0397 17.9569C30.5213 18.6749 29.7202 18.894 28.9977 18.5131C28.7791 18.3845 28.5979 18.2008 28.4722 17.9805C28.3466 17.7601 28.2807 17.5108 28.2812 17.2571H31.1863C31.2153 17.257 31.2432 17.2463 31.2649 17.2271C31.2866 17.2079 31.3005 17.1815 31.3042 17.1528C31.4191 16.3003 31.0276 15.6761 30.2719 15.4871ZM31.0805 17.0273H28.2873C28.3018 16.8587 28.3394 16.6929 28.3991 16.5346C28.5065 16.2692 28.6928 16.0432 28.9329 15.8872C29.173 15.7312 29.4552 15.6527 29.7413 15.6625C29.9019 15.6636 30.0617 15.6839 30.2174 15.7229C30.8266 15.8695 31.1364 16.3411 31.0805 17.0273Z" fill="white"/>
<path d="M10.7481 16.8066C10.7481 16.4106 10.7617 16.0025 10.7481 15.5975C10.7479 15.5818 10.7445 15.5663 10.7382 15.5519C10.7319 15.5376 10.7227 15.5247 10.7113 15.5139C10.6999 15.5032 10.6864 15.4949 10.6717 15.4895C10.6569 15.4841 10.6413 15.4818 10.6256 15.4826C10.5942 15.4838 10.5645 15.4973 10.543 15.5202C10.5215 15.5431 10.5099 15.5736 10.5107 15.605C10.5244 16.0025 10.5107 16.4091 10.5107 16.8006C10.4827 17.4713 10.5029 18.1431 10.5712 18.8109C10.5749 18.8396 10.5888 18.866 10.6105 18.8852C10.6322 18.9044 10.6601 18.915 10.6891 18.9152H10.7042C10.7354 18.911 10.7637 18.8947 10.783 18.8698C10.8022 18.8449 10.8109 18.8134 10.807 18.7822C10.7414 18.1258 10.7217 17.4657 10.7481 16.8066Z" fill="white"/>
<path d="M18.378 15.4246H18.3644C18.3499 15.4223 18.3351 15.4223 18.3206 15.4246C17.4741 15.5183 16.936 16.0171 16.8091 16.8287C16.6821 17.6404 16.9421 18.2631 17.5648 18.6637C17.846 18.8492 18.1756 18.9481 18.5125 18.9478C18.7942 18.9443 19.0723 18.8842 19.3302 18.771C19.8668 18.5428 20.1767 18.0591 20.2537 17.3321C20.2853 17.0655 20.2559 16.7953 20.1676 16.5418C20.0794 16.2883 19.9347 16.0582 19.7444 15.8689C19.5657 15.6954 19.3496 15.5652 19.1128 15.4882C18.8759 15.4111 18.6246 15.3894 18.378 15.4246ZM20.0074 17.3064C19.9409 17.9503 19.6854 18.3644 19.229 18.5518C18.6621 18.7921 18.1437 18.7619 17.6857 18.4642C17.1476 18.1135 16.93 17.5754 17.0433 16.865C17.1567 16.1546 17.6056 15.7435 18.3478 15.6558H18.3644C18.3793 15.6589 18.3948 15.6589 18.4097 15.6558C18.6193 15.6262 18.833 15.645 19.0342 15.7108C19.2354 15.7765 19.4189 15.8875 19.5705 16.0352C19.7355 16.1997 19.8607 16.3998 19.9364 16.6201C20.0121 16.8404 20.0364 17.0752 20.0074 17.3064Z" fill="white"/>
<path d="M40.55 16.8684V16.0491C40.562 15.9437 40.562 15.8372 40.55 15.7317C40.5425 15.6538 40.5425 15.5754 40.55 15.4975C40.5535 15.4662 40.5444 15.4349 40.5249 15.4103C40.5054 15.3857 40.4769 15.3697 40.4458 15.366C40.4144 15.3625 40.3829 15.3715 40.358 15.391C40.3331 15.4105 40.3169 15.4389 40.3127 15.4702C40.3044 15.5623 40.3044 15.6548 40.3127 15.7468C40.3316 15.8715 40.3186 15.9989 40.275 16.1172C40.2293 16.0481 40.1788 15.9825 40.1238 15.9207C39.9339 15.7251 39.6999 15.578 39.4413 15.4917C39.1828 15.4054 38.9073 15.3825 38.638 15.4249H38.6229C38.6065 15.4211 38.5894 15.4211 38.573 15.4249C38.2631 15.4705 37.9741 15.6081 37.7434 15.82C37.5127 16.0318 37.351 16.3081 37.2792 16.6129C37.0887 17.3354 37.317 18.1834 37.8097 18.5869C38.0898 18.819 38.442 18.9462 38.8058 18.9467C39.0932 18.9382 39.3752 18.866 39.6314 18.7353C39.8876 18.6046 40.1115 18.4187 40.2871 18.1909C40.319 18.3003 40.3277 18.4151 40.3127 18.528C40.3044 18.62 40.3044 18.7126 40.3127 18.8046C40.3164 18.8335 40.3303 18.86 40.352 18.8795C40.3736 18.8989 40.4015 18.9099 40.4306 18.9104H40.4458C40.4769 18.9066 40.5054 18.8907 40.5249 18.8661C40.5444 18.8414 40.5535 18.8101 40.55 18.7789C40.5425 18.701 40.5425 18.6225 40.55 18.5446C40.562 18.4391 40.562 18.3327 40.55 18.2272V17.4065C40.5716 17.2277 40.5716 17.0471 40.55 16.8684ZM40.281 17.5939C40.1752 18.1048 39.8986 18.401 39.3227 18.6156C39.0982 18.7078 38.8528 18.7368 38.613 18.6995C38.3733 18.6622 38.1483 18.56 37.9624 18.404C37.5361 18.0564 37.3412 17.3127 37.5089 16.6764C37.5688 16.4155 37.7062 16.1788 37.9032 15.9975C38.1001 15.8162 38.3474 15.6988 38.6123 15.6607H38.6229C38.6374 15.6638 38.6523 15.6638 38.6667 15.6607C38.8986 15.6218 39.1364 15.6398 39.3597 15.7133C39.583 15.7868 39.785 15.9134 39.9485 16.0824C40.2961 16.4467 40.411 16.9848 40.2855 17.5939H40.281Z" fill="white"/>
<path d="M15.7072 6.37984L15.6981 0.553056C15.7104 0.437638 15.7532 0.327568 15.8221 0.234132C15.9156 0.163627 16.0252 0.117409 16.141 0.0996094L21.7516 0.12077C22.8038 0.250608 23.8051 0.648207 24.6597 1.27555C25.5396 1.9706 26.2779 2.82799 26.8348 3.80124C26.8348 3.80124 27.0826 4.27585 26.9587 4.3484C26.8348 4.42095 26.6186 4.19725 26.6186 4.19725C26.2289 3.9772 25.813 3.80708 25.3807 3.6909C24.504 3.42337 19.5539 3.5065 19.5539 3.5065C19.5539 3.5065 19.2758 3.48534 19.2033 3.6909C19.1617 3.8217 19.1617 3.96217 19.2033 4.09296C19.2033 4.09296 19.2652 4.25922 19.5751 4.25922L25.2991 4.24864C25.7014 4.25832 26.0908 4.39303 26.4131 4.63407C26.5706 4.74558 26.7034 4.88836 26.8033 5.0535C26.9031 5.21864 26.9679 5.40259 26.9935 5.59387L27.0101 11.6776C26.9946 11.7513 26.959 11.8193 26.9073 11.8741C26.8037 11.9333 26.6866 11.9651 26.5672 11.9663L21.4932 11.9769C21.4932 11.9769 19.6915 11.7638 18.5639 11.073C17.4363 10.3823 16.4297 9.15342 16.017 8.44302C15.6044 7.73262 15.7797 7.6374 15.7797 7.6374C15.7797 7.6374 15.8523 7.5452 16.1108 7.74169C16.5804 8.07636 17.1191 8.30154 17.6872 8.4007C18.3478 8.49441 23.3704 8.44302 23.3704 8.44302C23.3704 8.44302 23.5458 8.49441 23.6077 8.23595C23.6297 8.17605 23.6391 8.11229 23.6355 8.0486C23.6319 7.98491 23.6152 7.92264 23.5866 7.86563C23.5866 7.86563 23.5352 7.76134 23.319 7.76134H17.3169C17.3169 7.76134 15.9551 7.72053 15.7072 6.37984Z" fill="url(#paint0_linear_777_2577)"/>
</g>
<defs>
<linearGradient id="paint0_linear_777_2577" x1="27.0101" y1="6.03522" x2="15.6981" y2="6.03522" gradientUnits="userSpaceOnUse">
<stop offset="0.12" stop-color="#A1509D"/>
<stop offset="0.17" stop-color="#955CA3"/>
<stop offset="0.33" stop-color="#737EB4"/>
<stop offset="0.49" stop-color="#5898C2"/>
<stop offset="0.65" stop-color="#45ABCB"/>
<stop offset="0.82" stop-color="#3AB6D1"/>
<stop offset="1" stop-color="#36BAD3"/>
</linearGradient>
<clipPath id="clip0_777_2577">
<rect width="42.7083" height="20" fill="white" transform="translate(0 0.0996094)"/>
</clipPath>
</defs>
</svg>
