<svg width="104" height="23" viewBox="0 0 104 23" fill="none" xmlns="http://www.w3.org/2000/svg">
<g id="spinmatic" style="mix-blend-mode:luminosity" clip-path="url(#clip0_476_268)">
<g id="Clip path group">
<mask id="mask0_476_268" style="mask-type:luminance" maskUnits="userSpaceOnUse" x="0" y="0" width="104" height="23">
<g id="clip0">
<path id="Vector" d="M103.651 0.462891H0.251465V22.0829H103.651V0.462891Z" fill="white"/>
</g>
</mask>
<g mask="url(#mask0_476_268)">
<g id="Group">
<path id="Vector_2" d="M8.93788 13.493C8.87955 13.5513 8.80703 13.5907 8.72666 13.6096C8.65734 13.6096 8.46976 13.6317 8.18762 13.6317H0.469106C0.361926 14.3016 0.290999 14.9777 0.256323 15.6555C0.23268 15.9313 0.287846 16.2103 0.41394 16.4562C0.584167 16.6406 0.803253 16.773 1.04441 16.8423C1.812 16.918 2.58275 16.9479 3.35192 16.9353H8.4981C9.26886 16.9495 10.0381 16.918 10.8057 16.8423C11.1051 16.7746 11.3809 16.628 11.6048 16.4183C11.7545 16.1961 11.8648 15.9502 11.9326 15.6901C12.1013 15.0171 12.2305 14.3331 12.3172 13.6443L12.4322 12.7758C12.552 11.8317 12.6214 11.2217 12.6214 10.9412V10.7993C12.6545 10.4746 12.5709 10.1499 12.3866 9.88196C12.1091 9.63291 11.7498 9.49581 11.3778 9.49581C10.7694 9.44219 10.1578 9.42644 9.54785 9.44538H4.38747C4.42215 9.283 4.44421 9.11751 4.45682 8.95202C4.46943 8.8748 4.50095 8.80228 4.54982 8.7408C4.60656 8.66833 4.69325 8.6242 4.78467 8.6242C5.0022 8.60051 5.22286 8.59266 5.44193 8.60211H10.057C10.5834 8.6147 11.1082 8.59106 11.63 8.52804C11.8869 8.50595 12.1406 8.44292 12.3803 8.34361C12.7317 8.14818 12.9855 7.81561 13.0848 7.42626C13.2708 6.72488 13.3985 6.00931 13.4694 5.28743H4.76102C4.17469 5.27164 3.58835 5.28583 3.00202 5.33312C2.66787 5.34576 2.34318 5.45132 2.06419 5.63735C1.78364 5.8895 1.59292 6.22837 1.52199 6.60038C1.3754 7.26077 1.26508 7.92907 1.19099 8.60051L1.0712 9.44378C0.932498 10.3848 0.836355 10.9979 0.790643 11.3021V11.5827C0.77173 11.8695 0.855268 12.1532 1.02549 12.3849C1.29975 12.5867 1.62759 12.7017 1.96804 12.7128C2.25176 12.7364 2.72145 12.7632 3.35192 12.7632H9.10182C9.08762 12.9129 9.06398 13.0611 9.03245 13.2061C9.03085 13.3101 8.99776 13.4094 8.93788 13.493Z" fill="#F6868E"/>
<path id="Vector_3" d="M22.3337 12.7992C22.3195 12.9442 22.2958 13.0893 22.2643 13.2311C22.247 13.3383 22.1981 13.4376 22.1225 13.5164C22.0657 13.5432 22.0121 13.5747 21.9601 13.6094C21.8892 13.6078 21.8182 13.6157 21.7489 13.6315H21.2571V13.6441H17.0535L17.6382 9.4814C17.6698 9.32222 17.7092 9.16458 17.758 9.01169C17.7785 8.91872 17.8179 8.83045 17.8746 8.75319C17.9661 8.67441 18.0843 8.63183 18.2057 8.63658C18.3759 8.61294 18.5493 8.60504 18.7211 8.61449H22.9247L22.3337 12.7992ZM18.1568 5.29822C17.5311 5.28562 16.9038 5.30926 16.2796 5.36759C15.8304 5.36444 15.4001 5.54252 15.0833 5.86095C14.8784 6.18403 14.7413 6.54339 14.6782 6.92009C14.6325 7.20068 14.5631 7.74128 14.4434 8.5893L14.3267 9.45776L13.2912 16.9351L12.8719 20.2545C12.8593 20.3854 12.8356 20.5146 12.7994 20.6391C12.7742 20.7526 12.719 20.8582 12.6386 20.9433C12.5598 21.0662 12.4637 21.1782 12.3533 21.2743C12.2619 21.3594 12.0728 21.5092 11.7922 21.744H12.9003C13.1824 21.7424 13.4629 21.7282 13.7435 21.6983C14.0619 21.6747 14.3787 21.6195 14.6861 21.5328C14.9193 21.4571 15.14 21.3468 15.3402 21.2049C15.5908 21.0127 15.7925 20.7621 15.9281 20.4768C16.0306 20.2404 16.1015 19.9913 16.1393 19.736L16.609 16.9493H22.0752C22.671 16.9619 23.2668 16.9383 23.8594 16.88C24.1967 16.8484 24.5166 16.7144 24.7736 16.4954C25.0478 16.2053 25.2196 15.835 25.2669 15.4393C25.3363 15.1115 25.4324 14.522 25.5475 13.6283C25.9462 10.8495 26.1827 9.18032 26.2505 8.61764C26.3592 8.08964 26.4302 7.5553 26.4616 7.01785C26.479 6.86811 26.4869 6.71677 26.4853 6.56703C26.5026 6.33377 26.4632 6.09891 26.3687 5.88459C26.2079 5.55672 25.7808 5.39123 25.0541 5.3455C24.5166 5.29822 23.9744 5.28247 23.4354 5.29981H18.1568V5.29822Z" fill="#F6868E"/>
<path id="Vector_4" d="M28.6682 16.885C29.0749 16.8787 29.4689 16.7447 29.7952 16.4988C30.0474 16.1994 30.2082 15.8321 30.257 15.4428C30.4068 14.8549 30.5187 14.2575 30.5881 13.6538L31.7418 5.28595L28.4192 5.28125L27.0117 15.2253C27.0085 15.3877 26.9754 15.5469 26.9156 15.6966C26.8919 15.8258 26.8352 15.9472 26.7532 16.0512C26.6334 16.1884 26.5058 16.3176 26.3686 16.4374C26.1984 16.6123 26.0171 16.7762 25.8296 16.9307H26.9329C27.7761 16.9307 28.3641 16.9071 28.6682 16.885Z" fill="#F6868E"/>
<path id="Vector_5" d="M29.2879 1.02743C29.0798 1.33005 28.949 1.67681 28.9033 2.0409C28.8339 2.32146 28.7378 2.9078 28.5991 3.80306L28.5266 4.43984H31.8618L32.4008 0.488375C31.6868 0.47419 30.9712 0.497832 30.2588 0.557727C29.8884 0.595555 29.5448 0.761053 29.2879 1.02743Z" fill="#F6868E"/>
<path id="Vector_6" d="M36.2292 5.30875C35.7358 5.29931 35.2425 5.3214 34.7523 5.37812C34.3882 5.39547 34.0478 5.5657 33.8145 5.8478C33.608 6.14888 33.4772 6.49564 33.4299 6.85815C33.3842 7.14344 33.2912 7.72977 33.173 8.63447L33.0564 9.4793L32.5866 12.7972L32.4795 13.653L32.2446 15.3001C32.2383 15.4672 32.2068 15.6343 32.1516 15.7935C32.1217 15.8849 32.0807 15.9731 32.0318 16.0551C31.9168 16.1954 31.7875 16.3246 31.6472 16.4413C31.5511 16.5374 31.3636 16.6982 31.0593 16.9567H32.1406C33.0548 16.9567 33.6632 16.9346 33.9941 16.911C34.3945 16.8936 34.7759 16.7345 35.0707 16.4633C35.3055 16.1449 35.4584 15.7761 35.5168 15.3837C35.5892 15.0763 35.6822 14.512 35.7973 13.6656L35.9171 12.7972L36.3868 9.4746C36.4199 9.31226 36.4436 9.14673 36.4562 8.98124C36.4908 8.87723 36.546 8.78107 36.6216 8.7007C36.6894 8.65026 36.773 8.62503 36.8565 8.63132C37.0267 8.60768 37.2001 8.60768 37.3719 8.63132H41.6685L41.5487 9.47615L41.0791 12.7956L40.964 13.6625L40.4943 16.9535C41.2462 16.9677 41.9964 16.9362 42.7435 16.8605C43.0729 16.8069 43.3771 16.6493 43.6135 16.4129C43.7838 16.1654 43.9036 15.8864 43.9635 15.5917C44.1101 14.9565 44.2204 14.3134 44.2944 13.664L44.4111 12.7956L44.8729 9.4667L44.9848 8.62188C45.1235 7.58477 45.196 6.90229 45.196 6.59806C45.2496 6.22295 45.1172 5.84624 44.8414 5.58774C44.5293 5.40806 44.1715 5.3182 43.8106 5.33084C43.5947 5.3072 43.2447 5.3072 42.8254 5.3072H36.2292V5.30875Z" fill="#F6868E"/>
<path id="Vector_7" d="M50.4638 5.30911C50.1216 5.28547 49.8758 5.28547 49.7372 5.28547C49.2672 5.27443 48.7962 5.29807 48.3295 5.3548C48.0015 5.37059 47.688 5.49354 47.4375 5.70631C47.1757 5.9963 47.0039 6.35726 46.9441 6.74341C46.8983 7.04764 46.7943 7.66076 46.6556 8.60015L46.5358 9.46862L46.0661 12.7865L45.9495 13.6313L45.7146 15.3005C45.6879 15.4896 45.6642 15.6314 45.6421 15.7245C45.598 15.8395 45.5429 15.9498 45.4814 16.0554C45.3915 16.2083 45.2702 16.3392 45.1267 16.4416C45.0338 16.5377 44.8462 16.6985 44.542 16.957H45.6185C46.5106 16.957 47.0954 16.9349 47.4041 16.9113C47.7557 16.8924 48.0964 16.7805 48.3892 16.5835C48.6651 16.3691 48.8498 16.057 48.9048 15.7119C49.0782 15.0309 49.2061 14.339 49.2893 13.6408L49.4058 12.7959L49.8866 9.47806C49.9228 9.33152 49.9482 9.18332 49.9595 9.03518C49.9811 8.92642 50.0206 8.82241 50.0761 8.72625C50.1531 8.65848 50.2542 8.62539 50.3566 8.63324C50.5282 8.6096 50.703 8.60175 50.8765 8.61119L50.7566 9.47806L50.2871 12.7959L50.1705 13.6408L49.701 16.9554C50.4713 16.9775 51.244 16.9397 52.0082 16.8388C52.27 16.7805 52.5125 16.6575 52.716 16.4842C52.9412 16.2336 53.0944 15.9246 53.1588 15.5936C53.304 14.949 53.4126 14.2965 53.4897 13.6392L53.6067 12.7943L54.0903 9.47651C54.1284 9.33937 54.1533 9.19912 54.1627 9.05567C54.1801 8.94691 54.2215 8.84131 54.2779 8.74834C54.3474 8.67737 54.4386 8.63798 54.5349 8.63169C54.746 8.60804 54.9575 8.5986 55.1699 8.6096L55.0505 9.47651L54.5805 12.7943L54.4654 13.6392L53.9991 16.957C54.7526 16.9696 55.5041 16.9397 56.2528 16.864C56.5809 16.8104 56.8835 16.6528 57.1181 16.4164C57.323 16.1138 57.4555 15.7686 57.503 15.4061C57.5721 15.0971 57.6684 14.5108 57.7836 13.6408L57.903 12.7959L58.3871 9.46706L58.5022 8.5986C58.608 7.9366 58.6785 7.26831 58.7132 6.59842C58.7466 6.27374 58.663 5.94902 58.4787 5.68107C58.286 5.48565 58.0261 5.36899 57.7521 5.35325C57.284 5.29652 56.814 5.27288 56.3426 5.28388C56.2011 5.28388 55.9661 5.28388 55.6399 5.30752H50.4638V5.30911Z" fill="#F6868E"/>
<path id="Vector_8" d="M62.5956 13.2414C62.5956 13.1184 62.6271 12.9987 62.6886 12.8915C62.7281 12.8395 62.7878 12.8048 62.8541 12.7985C62.9772 12.7654 63.1065 12.7512 63.2338 12.7607H67.8492C67.838 12.934 67.8145 13.1074 67.7797 13.2761C67.7656 13.3612 67.7341 13.4416 67.6838 13.5109C67.6617 13.5582 67.5795 13.6039 67.5226 13.6039C67.4662 13.6039 67.3275 13.626 67.1381 13.626H62.5232C62.558 13.5014 62.5829 13.3722 62.5956 13.2414ZM69.4458 5.30853H60.3654V5.69468C60.3654 6.3078 60.3875 6.77752 60.3875 7.05966C60.3969 7.43791 60.4933 7.80832 60.6681 8.14249C60.8932 8.38835 61.2039 8.53809 61.5367 8.56648C61.8173 8.58852 62.4066 8.61216 63.2484 8.61216H68.4165C68.4052 8.78554 68.3817 8.95893 68.347 9.12756C68.3535 9.20483 68.3282 9.28045 68.2779 9.33878C68.2177 9.39711 68.1453 9.43649 68.0664 9.45543C68.0128 9.45543 67.8713 9.47907 67.6819 9.47907H62.7784C62.1763 9.46803 61.5743 9.49167 60.9755 9.55155C60.6366 9.57519 60.3151 9.71074 60.0613 9.93775C59.8057 10.2656 59.6435 10.6549 59.5913 11.0679C59.541 11.3532 59.4499 11.9158 59.33 12.7638L59.1914 13.6307C59.0715 14.5717 59.002 15.2069 58.9799 15.5347V15.6923C58.9498 15.9792 59.0179 16.2676 59.1693 16.5135C59.3582 16.7074 59.6059 16.8319 59.8719 16.8681C60.5971 16.9423 61.3252 16.9722 62.0518 16.9611H67.1475C67.9009 16.9737 68.6529 16.9438 69.4016 16.8681C69.6757 16.8209 69.9374 16.7168 70.1706 16.5639C70.407 16.3654 70.571 16.0942 70.6406 15.7932C70.8314 15.0855 70.9606 14.362 71.025 13.6307L71.3592 11.2334L71.7437 8.60111C71.8334 8.04003 71.895 7.4726 71.9284 6.90517C71.9486 6.79801 71.958 6.68765 71.9552 6.57734C72.0007 6.21008 71.8701 5.84442 71.6017 5.59062C71.3921 5.45193 71.1496 5.36996 70.8972 5.35581C70.415 5.30538 69.9313 5.28959 69.4458 5.30853Z" fill="#F6868E"/>
<path id="Vector_9" d="M76.7494 5.278H76.2559C75.7624 5.26381 75.2675 5.2796 74.7759 5.32373C74.4464 5.34892 74.1263 5.44508 73.8382 5.60427C73.5069 5.90691 73.2925 6.3167 73.2296 6.76118C73.1793 7.03072 73.0876 7.65488 72.949 8.57218H76.2719L76.152 9.4391L75.682 12.7585L75.5673 13.6033C75.4254 14.475 75.3323 15.0597 75.2868 15.3687V15.7548C75.2755 15.9912 75.323 16.2245 75.4254 16.4373C75.6379 16.6879 75.9438 16.8424 76.2719 16.8613C76.9416 16.9228 77.6147 16.9448 78.2877 16.9306H80.4027C81.0602 16.9448 81.7173 16.9212 82.3715 16.8613C82.7085 16.8298 83.0286 16.6958 83.2871 16.4767C83.5127 16.2261 83.6669 15.9172 83.7331 15.5862C83.8262 15.2552 83.9225 14.5948 84.0612 13.6096H78.8992L79.019 12.7648L79.4886 9.4454L79.6051 8.57378H81.432C82.4627 8.57378 83.1202 8.55169 83.4511 8.52335C83.7411 8.49971 84.0203 8.41144 84.2708 8.2664C84.5909 8.03474 84.808 7.68952 84.8823 7.30182C85.0383 6.63668 85.1549 5.96204 85.2324 5.28275H80.0704L80.2814 3.74123C80.3839 3.07924 80.4469 2.41094 80.4704 1.74107C80.4972 1.42899 80.4234 1.11691 80.2594 0.850533C80.0389 0.656664 79.7565 0.544756 79.4636 0.533723C79.1859 0.480133 78.9039 0.456491 78.6219 0.464371H77.5169L76.4702 0.472252C76.6375 0.587313 76.795 0.716559 76.9398 0.858414C77.0521 0.935646 77.14 1.04125 77.1982 1.16261C77.2396 1.25088 77.2551 1.34703 77.2443 1.44318C77.2457 1.59291 77.2363 1.74265 77.2222 1.89081L76.7494 5.278Z" fill="#F6868E"/>
<path id="Vector_10" d="M87.7053 1.02743C87.4989 1.33005 87.3683 1.67681 87.3208 2.0409C87.2484 2.32146 87.1554 2.9078 87.0134 3.80306L86.9443 4.43984H90.2762L90.8185 0.488375C90.0966 0.47419 89.3747 0.497832 88.6561 0.557727C88.2951 0.600284 87.9591 0.765781 87.7053 1.02743Z" fill="#F6868E"/>
<path id="Vector_11" d="M85.349 16.9307C86.1955 16.9307 86.7801 16.9071 87.0875 16.885C87.4941 16.8787 87.8884 16.7447 88.2146 16.4988C88.4684 16.1994 88.6319 15.8321 88.6841 15.4428C88.8228 14.8533 88.9252 14.2559 88.9882 13.6538L90.1609 5.28595L86.8417 5.28125L85.4327 15.2253C85.4261 15.3861 85.3946 15.5453 85.3363 15.6966C85.3128 15.8274 85.2559 15.9487 85.1709 16.0512C85.051 16.1884 84.9236 16.3176 84.7864 16.4374C84.6163 16.6123 84.4363 16.7762 84.2473 16.9307H85.349Z" fill="#F6868E"/>
<path id="Vector_12" d="M94.8298 5.30019C94.2418 5.28754 93.6539 5.31119 93.0678 5.36951C92.7256 5.38686 92.3976 5.50981 92.1297 5.72417C91.8698 6.01416 91.6977 6.37198 91.638 6.75653C91.5925 7.07336 91.4961 7.67388 91.3575 8.61327C91.2879 9.176 91.1417 10.0035 91.0026 11.1288C90.864 12.2543 90.746 13.0786 90.6529 13.6413C90.511 14.5586 90.4419 15.1717 90.4179 15.498V15.6824C90.4118 15.9488 90.4687 16.2136 90.5834 16.4531C90.7634 16.6644 91.0139 16.8015 91.2879 16.8377C92.0131 16.9118 92.7397 16.9434 93.4678 16.9308H98.7134C99.6779 16.9308 100.31 16.9071 100.617 16.885C100.985 16.8693 101.341 16.7558 101.648 16.5572C101.913 16.3082 102.087 15.9772 102.142 15.6178C102.285 14.9653 102.395 14.3064 102.472 13.6413H93.9772L94.5647 9.45809C94.6014 9.30365 94.6249 9.14601 94.6343 8.98842C94.6597 8.88441 94.7086 8.7898 94.7762 8.70788C94.8331 8.6574 94.9069 8.63221 94.9844 8.6385C95.2002 8.58962 95.4239 8.58177 95.6415 8.61641H99.8499C100.742 8.59277 101.33 8.57073 101.634 8.57073C102.071 8.56913 102.496 8.43518 102.854 8.18458C103.106 7.91978 103.272 7.58406 103.324 7.2215C103.417 6.89053 103.513 6.25847 103.655 5.31748H100.319V5.30174H94.8298V5.30019Z" fill="#F6868E"/>
<path id="Vector_13" d="M20.3115 18.9648L19.7961 21.8949H21.5425L21.6071 21.5324H20.3068L20.4723 20.5804H21.4101L21.4763 20.2226H20.5228L20.6835 19.3053H21.8389L21.8987 18.9648H20.3115Z" fill="#F6868E"/>
<path id="Vector_14" d="M26.4883 21.8949L26.75 20.3991C26.7925 20.1801 26.8335 19.9216 26.8729 19.6473C27.0242 19.879 27.2418 20.1942 27.4072 20.4181L28.5263 21.9595H28.6603L29.1868 18.9648H28.7407L28.4838 20.3865C28.4459 20.5993 28.4034 20.861 28.3766 21.0879C28.2347 20.8689 28.0267 20.5678 27.8848 20.3708L26.8588 18.9648H26.5514L26.0281 21.8934H26.4883V21.8949Z" fill="#F6868E"/>
<path id="Vector_15" d="M33.6035 18.9648L33.5452 19.3053H34.4877L34.0338 21.8949H34.4877L34.9369 19.3053H35.8826L35.9409 18.9648H33.6035Z" fill="#F6868E"/>
<path id="Vector_16" d="M40.3573 18.9648L39.8262 21.8949H41.571L41.6372 21.5324H40.3368L40.5023 20.5804H41.4559L41.5221 20.2226H40.5685L40.7293 19.3053H41.8831L41.9445 18.9648H40.3573Z" fill="#F6868E"/>
<path id="Vector_17" d="M47.2104 20.2455H46.7943L46.9787 19.3014H47.3901C47.4991 19.2919 47.6077 19.3282 47.6895 19.4023C47.7717 19.4748 47.8206 19.5772 47.8253 19.6859C47.8046 20.0091 47.5334 20.2581 47.2104 20.2455ZM48.2868 19.7064C48.2901 19.5031 48.2083 19.3092 48.0631 19.169C47.9165 19.0287 47.721 18.9562 47.5193 18.9657H46.5957L46.0803 21.8942H46.5217L46.7486 20.5986H47.2025L47.8991 21.8942L48.3959 21.9131L47.6265 20.556C48.0142 20.4583 48.2854 20.1084 48.2868 19.7064Z" fill="#F6868E"/>
<path id="Vector_18" d="M52.7142 18.9473L52.6531 19.3066H53.5987L53.1414 21.8963H53.5874L54.0447 19.3066H54.9904L55.052 18.9473H52.7142Z" fill="#F6868E"/>
<path id="Vector_19" d="M60.2032 20.0534L60.3813 20.7784H59.5428L59.9588 20.0534C60.0297 19.9382 60.0927 19.8185 60.1463 19.6939C60.1557 19.8153 60.1764 19.9351 60.2032 20.0534ZM60.3451 18.9043H60.1844L58.4031 21.8959H58.8604L59.3252 21.1251H60.4523L60.6398 21.8959H61.0746L60.3451 18.9043Z" fill="#F6868E"/>
<path id="Vector_20" d="M66.1369 18.9648L65.6406 21.8949H66.0679L66.5863 18.9648H66.1369Z" fill="#F6868E"/>
<path id="Vector_21" d="M72.2098 20.4181L73.3336 21.9595H73.4615L73.9723 18.968H73.5263L73.2772 20.3865C73.2424 20.5993 73.1997 20.861 73.1729 21.0879C73.0314 20.8689 72.8232 20.5678 72.6798 20.3708L71.6567 18.9648H71.3446L70.845 21.8934H71.291L71.5561 20.3976C71.5984 20.1785 71.6364 19.92 71.6759 19.6457C71.8254 19.879 72.0444 20.1958 72.2098 20.4181Z" fill="#F6868E"/>
<path id="Vector_22" d="M81.1911 20.5628L81.076 21.8963H81.4844L81.7269 18.9473H81.4341L80.3954 20.462C80.2267 20.7205 80.0345 21.0058 79.9033 21.2327C79.8422 20.9932 79.7459 20.6937 79.6655 20.462L79.1452 18.9473H78.8839L78.1145 21.8963H78.529L78.8787 20.5628C78.9215 20.3895 78.9911 20.131 79.0413 19.904C79.1029 20.12 79.1833 20.3848 79.2495 20.5786L79.7031 21.9199H79.8718L80.8067 20.5786C80.9373 20.3895 81.1296 20.101 81.2607 19.893C81.2339 20.1121 81.1911 20.3658 81.1911 20.5628Z" fill="#F6868E"/>
<path id="Vector_23" d="M86.5992 18.9648L86.0676 21.8949H87.8174L87.879 21.5324H86.5799L86.7454 20.5804H87.7023L87.7639 20.2226H86.8102L86.9724 19.3053H88.1262L88.1864 18.9648H86.5992Z" fill="#F6868E"/>
<path id="Vector_24" d="M93.6948 20.4181L94.8185 21.9595H94.9492L95.4695 18.968H95.0235L94.773 20.3865C94.7349 20.5993 94.6954 20.861 94.6658 21.0879C94.5239 20.8689 94.3156 20.5678 94.1737 20.3708L93.1463 18.9648H92.8389L92.3313 21.8934H92.7773L93.0391 20.3976C93.0814 20.1785 93.1242 19.92 93.1618 19.6457C93.3103 19.879 93.5293 20.1958 93.6948 20.4181Z" fill="#F6868E"/>
<path id="Vector_25" d="M99.8908 18.9473L99.8325 19.3066H100.783L100.329 21.8963H100.777L101.234 19.3066H102.179L102.228 18.9473H99.8908Z" fill="#F6868E"/>
</g>
</g>
</g>
</g>
<defs>
<clipPath id="clip0_476_268">
<rect width="103.4" height="22" fill="white" transform="translate(0.251465 0.273438)"/>
</clipPath>
</defs>
</svg>
