<svg width="25" height="11" viewBox="0 0 25 11" fill="none" xmlns="http://www.w3.org/2000/svg">
<g style="mix-blend-mode:luminosity" clip-path="url(#clip0_777_2521)">
<path fill-rule="evenodd" clip-rule="evenodd" d="M0.28186 6.44869V5.94365H1.61475V6.53141C1.61475 7.06936 1.8226 7.33848 2.23801 7.33848H2.24328C2.65489 7.33848 2.86098 7.07023 2.86098 6.53403C2.86098 6.22763 2.77228 5.94045 2.59429 5.6722C2.41659 5.40396 2.20405 5.15872 1.95668 4.93649L1.28863 4.24709C1.01256 4.00593 0.781583 3.7071 0.595688 3.3509C0.409499 2.9944 0.316405 2.59975 0.316405 2.16694C0.316405 1.50084 0.492054 0.989978 0.843353 0.633772C1.19436 0.277567 1.67154 0.0996094 2.27431 0.0996094C2.87708 0.0996094 3.33992 0.277567 3.66311 0.633481C3.98631 0.989395 4.14791 1.50026 4.14791 2.16607V2.43024H2.91865V2.08597C2.91865 1.54628 2.70143 1.27628 2.2667 1.27628C1.83197 1.27628 1.61475 1.54657 1.61475 2.08656C1.61475 2.31257 1.66217 2.5281 1.75673 2.73314C1.85129 2.93819 1.97395 3.12284 2.12472 3.28769C2.27548 3.45225 2.44176 3.61506 2.62327 3.77584C2.80477 3.9369 2.98423 4.10554 3.16105 4.28175C3.33787 4.45796 3.50152 4.6464 3.6517 4.84766C3.80158 5.04862 3.92366 5.28629 4.01793 5.56007C4.11219 5.83414 4.15932 6.1318 4.15932 6.45364C4.15932 7.118 3.99392 7.62769 3.66311 7.98273C3.33231 8.33777 2.86537 8.51544 2.26231 8.51544C1.65925 8.51544 1.17826 8.33748 0.819641 7.98157C0.461023 7.62565 0.28186 7.1145 0.28186 6.44869Z" fill="#818181"/>
<path fill-rule="evenodd" clip-rule="evenodd" d="M6.19617 4.15802H6.81358C7.02494 4.15802 7.18361 4.0986 7.28959 3.98006C7.39527 3.86152 7.44826 3.66055 7.44826 3.37716V2.14311C7.44826 1.85972 7.39527 1.65992 7.28959 1.54312C7.18361 1.42633 7.02494 1.36808 6.81358 1.36808H6.19617V4.15802ZM4.89783 8.42316V0.191406H6.81065C8.10109 0.191406 8.7466 0.871488 8.7466 2.23136V3.30056C8.7466 4.65665 8.10168 5.33498 6.81211 5.33498H6.19617V8.42316H4.89783Z" fill="#818181"/>
<path fill-rule="evenodd" clip-rule="evenodd" d="M10.6506 3.89996H11.1583C11.42 3.89996 11.6152 3.83298 11.7441 3.699C11.8729 3.56502 11.9373 3.34134 11.9373 3.02736V2.21796C11.9411 1.65176 11.7218 1.36837 11.2795 1.36837H10.6506V3.89996ZM9.35229 8.42346V0.191406H11.3114C11.9794 0.191406 12.4674 0.346646 12.7745 0.656833C13.0819 0.96702 13.2356 1.44381 13.2356 2.08719V2.73611C13.2356 3.5825 12.9522 4.13967 12.3855 4.40762C12.9598 4.64907 13.247 5.23304 13.247 6.15982V7.42649V7.47804C13.247 7.89832 13.2933 8.21346 13.3855 8.42346H12.0693C11.9929 8.19045 11.9528 7.85434 11.949 7.41484V6.12545C11.949 5.75118 11.8825 5.48265 11.7499 5.32042C11.617 5.1579 11.4007 5.07693 11.1006 5.07693H10.6506V8.42346H9.35229Z" fill="#818181"/>
<path fill-rule="evenodd" clip-rule="evenodd" d="M14.1012 8.42346H15.3995V0.191406H14.1012V8.42346Z" fill="#818181"/>
<path fill-rule="evenodd" clip-rule="evenodd" d="M17.6439 7.24649H18.3884C18.6153 7.24649 18.7845 7.1862 18.896 7.06562C19.0075 6.94504 19.0635 6.73563 19.0635 6.43709V5.71944C19.0635 5.3443 18.9991 5.08421 18.87 4.93887C18.7411 4.79324 18.5269 4.72072 18.2268 4.72072H17.6439V7.24649ZM17.6439 3.54376H18.1539C18.4165 3.54376 18.6126 3.47677 18.742 3.34279C18.8717 3.20881 18.9364 2.98688 18.9364 2.67698V2.21767C18.9402 1.65147 18.7201 1.36808 18.2757 1.36808H17.6439V3.54376ZM16.3456 8.42346V0.191406H18.3076C18.9768 0.191406 19.4654 0.346354 19.7731 0.65625C20.0808 0.966146 20.2348 1.44264 20.2348 2.08573V2.37844C20.2348 3.22425 19.954 3.77735 19.3922 4.03744C20.0386 4.28996 20.3615 4.87771 20.3615 5.79982V6.47146C20.3615 7.10669 20.1944 7.59105 19.8597 7.92395C19.5248 8.25686 19.0345 8.42346 18.3884 8.42346H16.3456Z" fill="#818181"/>
<path fill-rule="evenodd" clip-rule="evenodd" d="M21.1406 8.42345V0.191406H24.6835V1.36837H22.439V3.6588H24.2218V4.83548H22.439V7.24649H24.6835V8.42345H21.1406Z" fill="#818181"/>
<path fill-rule="evenodd" clip-rule="evenodd" d="M0.246826 10.0999H24.7016V8.95703H0.246826V10.0999Z" fill="#818181"/>
</g>
<defs>
<clipPath id="clip0_777_2521">
<rect width="24.4548" height="10.0003" fill="white" transform="translate(0.246826 0.0996094)"/>
</clipPath>
</defs>
</svg>
