<svg width="50" height="51" viewBox="0 0 50 51" fill="none" xmlns="http://www.w3.org/2000/svg">
<g id="SuperSpadeGames" style="mix-blend-mode:luminosity" clip-path="url(#clip0_473_202)">
<path id="Vector" d="M32.2391 18.8192C34.0274 17.2513 35.7913 15.7079 37.2611 13.6746C39.3189 16.2224 41.5482 18.5497 41.9402 21.9304C42.6751 28.1038 36.9427 32.5134 31.0877 30.2841C30.1568 29.9167 29.3238 29.3777 28.3684 28.7408C29.4708 32.244 31.0632 35.2817 33.8804 37.756C28.8829 37.756 24.0323 37.756 19.0103 37.756C21.754 35.2572 23.4199 32.244 24.4488 28.7653C19.5982 31.901 14.2822 31.215 12.1999 27.2464C16.9035 26.8299 21.2886 25.4091 25.4777 23.2778C25.1592 24.5271 24.3998 25.5316 23.5179 26.5115H29.3728C28.3684 25.5071 27.6825 24.4292 27.2905 23.0083C28.0255 23.4492 28.6624 23.7432 29.3973 23.7677C31.9451 23.8657 33.317 21.4894 32.2391 18.8192ZM20.7986 18.5007C22.5869 16.1489 24.4733 13.8706 26.4086 11.4698C28.0745 13.5521 29.6913 15.561 31.3082 17.5943C33.9049 15.6344 36.2812 13.4541 37.7021 10.4654C38.9025 7.91764 37.8001 6.00681 35.0073 5.49236C36.9671 7.45218 37.1141 9.70598 35.3503 11.3718C32.3861 7.69716 29.4218 4.02249 26.4331 0.298828C26.2371 0.519308 26.1146 0.666295 25.9676 0.813282C22.7339 4.80642 19.5002 8.82406 16.2665 12.8172C15.3111 14.0176 14.3802 15.267 13.4003 16.4184C11.416 18.7212 10.485 21.3179 10.9015 24.3802C9.99508 24.3312 9.21115 24.1842 8.6232 23.5717C7.98626 22.9348 8.03525 22.1264 8.18224 21.1709C6.81036 23.4737 7.4718 25.0661 9.87259 25.6295C10.583 25.801 11.3425 25.9235 12.0774 25.8255C15.4091 25.4336 18.6673 24.6496 21.754 23.2778C19.9902 22.1509 19.5492 20.1665 20.7986 18.5007Z" fill="#FD6F6C"/>
<path id="Vector_2" d="M21.7539 23.3257C19.9901 22.1498 19.5491 20.1655 20.823 18.4996C22.6114 16.1478 24.4977 13.8695 26.433 11.4688C28.0989 13.5511 29.7157 15.5599 31.3326 17.5932C28.4418 20.0185 25.2326 21.9048 21.7539 23.3257ZM25.4531 23.2767C25.1346 24.5261 24.3752 25.5305 23.4933 26.5104H29.3483C28.3438 25.506 27.6579 24.4281 27.2659 23.0072C28.0009 23.4482 28.6378 23.7421 29.3727 23.7666C31.945 23.8891 33.3414 21.4883 32.239 18.8181C30.0832 20.4349 27.8294 21.9783 25.4531 23.2767Z" fill="#CACCD4"/>
<path id="Vector_3" d="M4.48299 44.5166C4.48299 45.521 3.74806 46.5254 2.08221 46.5254C1.46976 46.5254 0.759327 46.3539 0.367362 46.0844L0.244873 45.9864L0.587842 44.884L0.83282 45.031C1.20029 45.2515 1.69024 45.3985 2.1557 45.3985C2.81714 45.3985 3.2336 45.08 3.2336 44.5656C3.2336 44.1736 3.06212 43.8796 2.2047 43.5367C1.0043 43.1202 0.416358 42.4588 0.416358 41.5768C0.416358 40.4499 1.32278 39.666 2.64566 39.666C3.42959 39.666 3.89504 39.862 4.11553 40.009L4.28701 40.107L3.91954 41.1849L3.67456 41.0624C3.45408 40.9399 3.08662 40.7929 2.59666 40.7929C1.91072 40.7929 1.66575 41.1604 1.66575 41.5034C1.66575 41.8953 1.83723 42.1403 2.74365 42.4833C3.60107 42.8017 4.48299 43.3162 4.48299 44.5166ZM9.35805 44.982V41.5278H8.08417V44.4676C8.08417 44.5901 8.05967 44.7126 8.03517 44.7861C7.91268 45.0555 7.61871 45.374 7.17775 45.374C6.81028 45.374 6.41832 45.227 6.41832 44.1736V41.4789H5.16893V44.2961C5.16893 46.2559 6.39382 46.4764 6.93277 46.4764C7.54522 46.4764 7.96168 46.2314 8.23115 45.9864L8.25565 46.3784H9.43155L9.40705 46.1334C9.35805 45.864 9.35805 45.4965 9.35805 44.982ZM14.9925 43.9041C14.9925 45.6925 13.8412 46.5254 12.7387 46.5254C12.2978 46.5254 11.8813 46.4029 11.5874 46.1579V48.2402H10.338V43.1937C10.338 42.6302 10.3135 42.1893 10.3135 41.7483V41.5034H11.4894L11.5139 41.9198C11.8813 41.5768 12.3468 41.4054 12.9102 41.4054C14.1106 41.4299 14.9925 42.4833 14.9925 43.9041ZM11.6363 43.3407C11.6119 43.4142 11.5874 43.5367 11.5874 43.6102V44.3696C11.5874 44.4676 11.6119 44.5656 11.6119 44.6636C11.7343 45.1045 12.1263 45.423 12.5918 45.423C13.4247 45.423 13.7187 44.6636 13.7187 43.9286C13.7187 43.2182 13.3757 42.5078 12.6163 42.5078C12.1753 42.5078 11.7588 42.8507 11.6363 43.3407ZM19.6961 43.7571C19.6961 43.9041 19.6716 44.0511 19.6716 44.1246L19.6471 44.3696H16.5604C16.6829 45.3495 17.4913 45.472 17.8343 45.472C18.3977 45.472 18.7162 45.374 18.9857 45.2515L19.2307 45.1535L19.4756 46.1824L19.3042 46.2559C19.0102 46.3784 18.4957 46.5499 17.7363 46.5499C16.2664 46.5499 15.3355 45.5945 15.3355 44.0756C15.3355 42.5323 16.2909 41.4544 17.6383 41.4544C19.0592 41.4299 19.6961 42.5813 19.6961 43.7571ZM16.6094 43.3162H18.4712C18.4467 43.1202 18.3732 42.8752 18.2018 42.6792C18.0548 42.5323 17.8588 42.4588 17.5893 42.4588C17.0014 42.4588 16.7074 42.9242 16.6094 43.3162ZM22.5379 41.4299C22.1214 41.4299 21.7539 41.6013 21.4845 41.9198V41.5523H20.3086L20.3331 41.7973C20.3576 42.1648 20.3576 42.6058 20.3576 43.1692V46.4519H21.607V43.8551C21.607 43.7326 21.6315 43.6102 21.6315 43.5122C21.7294 42.9977 22.0479 42.6547 22.4889 42.6547C22.5869 42.6547 22.6359 42.6547 22.7094 42.6792L22.9788 42.7282V41.5034L22.8073 41.4544C22.7094 41.4299 22.6359 41.4299 22.5379 41.4299Z" fill="#FD6F6C"/>
<g id="Group">
<path id="Vector_4" d="M29.3727 44.5173C29.3727 45.5217 28.6378 46.5261 26.9719 46.5261C26.3595 46.5261 25.6491 46.3546 25.2571 46.0851L25.1101 45.9871L25.4531 44.8847L25.6981 45.0317C26.0655 45.2522 26.5555 45.3992 27.0209 45.3992C27.6824 45.3992 28.0988 45.0807 28.0988 44.5662C28.0988 44.1743 27.9274 43.8803 27.0699 43.5373C25.8695 43.1209 25.2816 42.4594 25.2816 41.5775C25.2816 40.4506 26.188 39.6667 27.5109 39.6667C28.2948 39.6667 28.7603 39.8627 28.9808 40.0097L29.1522 40.1076L28.7848 41.1855L28.5398 41.0631C28.3193 40.9406 27.9519 40.7936 27.4619 40.7936C26.776 40.7936 26.531 41.1611 26.531 41.504C26.531 41.896 26.7025 42.141 27.6089 42.4839C28.5153 42.8024 29.3727 43.3169 29.3727 44.5173ZM34.7377 43.9048C34.7377 45.6931 33.5863 46.5261 32.4839 46.5261C32.043 46.5261 31.6265 46.4036 31.3325 46.1586V48.2409H30.0832V43.1944C30.0832 42.6309 30.0587 42.19 30.0587 41.749V41.504H31.2346L31.2591 41.9205C31.6265 41.5775 32.092 41.406 32.6554 41.406C33.8558 41.4305 34.7377 42.4839 34.7377 43.9048ZM31.3815 43.3414C31.357 43.4148 31.3325 43.5373 31.3325 43.6108V44.3703C31.3325 44.4683 31.357 44.5662 31.357 44.6642C31.4795 45.1052 31.8715 45.4237 32.337 45.4237C33.1699 45.4237 33.4639 44.6642 33.4639 43.9293C33.4639 43.2189 33.1209 42.5084 32.3615 42.5084C31.9205 42.5084 31.504 42.8514 31.3815 43.3414ZM39.0494 46.1586L39.0983 46.4281H37.898L37.8735 46.1096C37.555 46.3791 37.114 46.5261 36.6486 46.5261C35.6197 46.5261 35.0562 45.7666 35.0562 45.0317C35.0562 44.5662 35.2032 44.1743 35.5217 43.8803C35.9626 43.4393 36.7221 43.1944 37.7265 43.1699C37.6775 42.7044 37.4325 42.4839 36.9425 42.4839C36.5751 42.4839 36.1831 42.5819 35.9136 42.7779L35.6687 42.9249L35.3257 41.945L35.4727 41.847C35.8891 41.5775 36.4771 41.406 37.065 41.406C38.2899 41.406 38.9759 42.141 38.9759 43.4393V45.1052C38.9759 45.5462 39.0004 45.9136 39.0494 46.1586ZM37.702 44.8847C37.7265 44.8112 37.7265 44.7622 37.7265 44.6887V44.1498C37.114 44.1498 36.6731 44.2723 36.4526 44.4928C36.3301 44.6152 36.2811 44.7377 36.2811 44.9337C36.2811 45.4237 36.6486 45.4727 36.8201 45.4727C37.3345 45.4727 37.604 45.1787 37.702 44.8847ZM44.2429 46.1831L44.2674 46.4281H43.0915L43.067 46.0361C42.724 46.3546 42.2586 46.5261 41.7196 46.5261C40.4947 46.5261 39.5883 45.4727 39.5883 44.0518C39.5883 43.2434 39.8333 42.5329 40.3232 42.0675C40.7152 41.6755 41.2542 41.455 41.8176 41.455C42.2586 41.455 42.6505 41.5775 42.9445 41.798V39.4707H44.1939V45.0562C44.2184 45.3257 44.2184 45.8401 44.2429 46.1831ZM42.92 44.6397C42.9445 44.5662 42.9445 44.4683 42.9445 44.3458V43.5863C42.9445 43.4883 42.9445 43.3659 42.92 43.3169C42.822 42.9249 42.5035 42.5574 41.9646 42.5574C41.3032 42.5574 40.8622 43.1454 40.8622 44.0518C40.8622 44.7377 41.1562 45.4727 41.9401 45.4727C42.43 45.4237 42.7975 45.1052 42.92 44.6397ZM49.2404 43.7578C49.2404 43.9048 49.2159 44.0518 49.2159 44.1253L49.1914 44.3703H46.1047C46.2272 45.3502 47.0356 45.4727 47.3786 45.4727C47.942 45.4727 48.2605 45.3747 48.53 45.2522L48.775 45.1542L49.02 46.1831L48.8485 46.2566C48.5545 46.3791 48.04 46.5506 47.2806 46.5506C45.8107 46.5506 44.8798 45.5952 44.8798 44.0763C44.8798 42.5329 45.8352 41.455 47.1826 41.455C48.6035 41.4305 49.2404 42.5819 49.2404 43.7578ZM46.1537 43.3169H48.0155C47.991 43.1209 47.9176 42.8759 47.7461 42.6799C47.5991 42.5329 47.4031 42.4594 47.1336 42.4594C46.5457 42.4594 46.2517 42.9249 46.1537 43.3169Z" fill="#A3A4AB"/>
<path id="Vector_5" d="M39.3679 50.079C39.1964 50.128 38.8535 50.2504 38.4615 50.2504C38.0205 50.2504 37.6531 50.128 37.3591 49.8585C37.1141 49.6135 36.9426 49.2215 36.9426 48.7806C36.9426 47.8987 37.5551 47.2617 38.535 47.2617C38.878 47.2617 39.1474 47.3352 39.2699 47.3842L39.1719 47.7027C39.0249 47.6292 38.829 47.5802 38.535 47.5802C37.8245 47.5802 37.3591 48.0211 37.3591 48.7561C37.3591 49.491 37.8001 49.932 38.486 49.932C38.731 49.932 38.9024 49.9075 39.0004 49.8585V48.9766H38.4125V48.6826H39.3679V50.079ZM41.1562 50.2259L41.1317 49.9565H41.1073C40.9848 50.128 40.7643 50.2749 40.4703 50.2749C40.0538 50.2749 39.8334 49.981 39.8334 49.6625C39.8334 49.148 40.2743 48.8786 41.1073 48.8786V48.8296C41.1073 48.6581 41.0583 48.3396 40.6418 48.3396C40.4458 48.3396 40.2498 48.3886 40.1028 48.4866L40.0049 48.2416C40.1763 48.1191 40.4213 48.0456 40.6908 48.0456C41.3277 48.0456 41.4992 48.4866 41.4992 48.9031V49.687C41.4992 49.8585 41.4992 50.0545 41.5237 50.2015H41.1562V50.2259ZM41.1073 49.148C40.6908 49.148 40.2253 49.2215 40.2253 49.6135C40.2253 49.8585 40.3968 49.981 40.5928 49.981C40.8623 49.981 41.0338 49.8095 41.1073 49.638C41.1318 49.589 41.1317 49.5645 41.1317 49.5155V49.148H41.1073ZM42.1362 48.6826C42.1362 48.4621 42.1362 48.2906 42.1117 48.1191H42.4546L42.4791 48.4621H42.5036C42.6261 48.2661 42.8221 48.0701 43.1651 48.0701C43.459 48.0701 43.6795 48.2416 43.753 48.4866C43.8265 48.3641 43.9 48.2906 43.998 48.2171C44.1205 48.1191 44.2675 48.0701 44.4634 48.0701C44.7329 48.0701 45.1494 48.2416 45.1494 48.9766V50.2015H44.7819V49.0256C44.7819 48.6336 44.6349 48.3886 44.3165 48.3886C44.096 48.3886 43.9245 48.5601 43.8755 48.7316C43.851 48.7806 43.851 48.8541 43.851 48.9276V50.2259H43.4835V48.9766C43.4835 48.6336 43.3365 48.3886 43.0426 48.3886C42.7976 48.3886 42.6261 48.5846 42.5771 48.7806C42.5526 48.8296 42.5526 48.9031 42.5526 48.9766V50.2504H42.1362V48.6826ZM46.0068 49.246C46.0068 49.7605 46.3498 49.981 46.7172 49.981C46.9867 49.981 47.1582 49.932 47.3052 49.883L47.3787 50.1525C47.2562 50.2015 47.0112 50.2749 46.6683 50.2749C46.0313 50.2749 45.6393 49.8585 45.6393 49.2215C45.6393 48.5846 46.0068 48.0946 46.6193 48.0946C47.3052 48.0946 47.4767 48.7071 47.4767 49.0746C47.4767 49.148 47.4767 49.2215 47.4522 49.246H46.0068ZM47.1337 48.9766C47.1337 48.7316 47.0357 48.3641 46.5948 48.3641C46.2028 48.3641 46.0313 48.7316 46.0068 48.9766H47.1337ZM47.9666 49.834C48.0891 49.9075 48.2851 49.981 48.4811 49.981C48.7506 49.981 48.8976 49.834 48.8976 49.6625C48.8976 49.491 48.7996 49.3685 48.5056 49.2705C48.1381 49.148 47.9421 48.9276 47.9421 48.6826C47.9421 48.3396 48.2116 48.0701 48.6771 48.0701C48.8975 48.0701 49.069 48.1191 49.1915 48.1926L49.0935 48.4621C49.02 48.4131 48.8486 48.3396 48.6526 48.3396C48.4321 48.3396 48.3096 48.4621 48.3096 48.6336C48.3096 48.8051 48.4321 48.8786 48.7016 49.0011C49.069 49.148 49.2405 49.3195 49.2405 49.638C49.2405 50.0055 48.9465 50.2749 48.4566 50.2749C48.2361 50.2749 48.0156 50.226 47.8686 50.128L47.9666 49.834Z" fill="#A3A4AB"/>
</g>
</g>
<defs>
<clipPath id="clip0_473_202">
<rect width="49" height="50" fill="white" transform="translate(0.244873 0.273438)"/>
</clipPath>
</defs>
</svg>
