<svg width="64" height="27" viewBox="0 0 64 27" fill="none" xmlns="http://www.w3.org/2000/svg">
<g id="Symbols" style="mix-blend-mode:luminosity">
<g id="Logo">
<g id="Group">
<path id="Fill-1" fill-rule="evenodd" clip-rule="evenodd" d="M0.132324 16.6443V15.3312H3.59783V16.8594C3.59783 18.2581 4.13825 18.9578 5.21832 18.9578H5.23202C6.30219 18.9578 6.83804 18.2603 6.83804 16.8662C6.83804 16.0696 6.60741 15.3229 6.14463 14.6255C5.68262 13.928 5.13002 13.2904 4.48685 12.7126L2.74991 10.9202C2.03215 10.2932 1.4316 9.5162 0.948275 8.59006C0.464185 7.66317 0.22214 6.63708 0.22214 5.51178C0.22214 3.77992 0.678829 2.45168 1.59221 1.52554C2.50482 0.599407 3.74549 0.136719 5.3127 0.136719C6.8799 0.136719 8.08328 0.599407 8.92358 1.52478C9.76389 2.45016 10.184 3.7784 10.184 5.50951V6.19635H6.98799V5.30126C6.98799 3.89805 6.42321 3.19607 5.29291 3.19607C4.1626 3.19607 3.59783 3.89881 3.59783 5.30278C3.59783 5.89042 3.72114 6.45079 3.96699 6.98391C4.21284 7.51702 4.53176 7.99713 4.92375 8.42574C5.31574 8.85359 5.74808 9.2769 6.21999 9.69491C6.6919 10.1137 7.15848 10.5521 7.61822 11.0103C8.07795 11.4684 8.50343 11.9584 8.8939 12.4816C9.28361 13.0042 9.60101 13.6221 9.8461 14.3339C10.0912 15.0465 10.2137 15.8204 10.2137 16.6572C10.2137 18.3845 9.78368 19.7097 8.92358 20.6328C8.06349 21.556 6.84946 22.0179 5.28149 22.0179C3.71353 22.0179 2.46296 21.5552 1.53055 20.6298C0.598147 19.7044 0.132324 18.3754 0.132324 16.6443Z" fill="#818181"/>
<path id="Fill-4" fill-rule="evenodd" clip-rule="evenodd" d="M15.5095 10.6882H17.1147C17.6643 10.6882 18.0768 10.5337 18.3524 10.2255C18.6271 9.91729 18.7649 9.39478 18.7649 8.65796V5.44943C18.7649 4.71261 18.6271 4.19313 18.3524 3.88947C18.0768 3.5858 17.6643 3.43435 17.1147 3.43435H15.5095V10.6882ZM12.1338 21.7776V0.375H17.1071C20.4623 0.375 22.1406 2.14321 22.1406 5.67888V8.4588C22.1406 11.9846 20.4638 13.7483 17.1109 13.7483H15.5095V21.7776H12.1338Z" fill="#818181"/>
<path id="Fill-6" fill-rule="evenodd" clip-rule="evenodd" d="M27.0913 10.0173H28.4111C29.0916 10.0173 29.5993 9.84308 29.9342 9.49474C30.2691 9.1464 30.4365 8.56482 30.4365 7.74849V5.64405C30.4464 4.17192 29.8763 3.43511 28.7262 3.43511H27.0913V10.0173ZM23.7156 21.7783V0.375H28.8092C30.5461 0.375 31.815 0.778622 32.6134 1.58511C33.4126 2.3916 33.8122 3.63124 33.8122 5.30404V6.99122C33.8122 9.19183 33.0754 10.6405 31.6018 11.3372C33.0952 11.9649 33.8419 13.4832 33.8419 15.8929V19.1862V19.3202C33.8419 20.413 33.9622 21.2323 34.2019 21.7783H30.7798C30.5811 21.1725 30.4769 20.2986 30.467 19.1559V15.8035C30.467 14.8304 30.2942 14.1322 29.9494 13.7104C29.6038 13.2879 29.0413 13.0774 28.2612 13.0774H27.0913V21.7783H23.7156Z" fill="#818181"/>
<path id="Fill-8" fill-rule="evenodd" clip-rule="evenodd" d="M36.0625 21.7783H39.4382V0.375H36.0625V21.7783Z" fill="#818181"/>
<path id="Fill-10" fill-rule="evenodd" clip-rule="evenodd" d="M45.2736 18.7182H47.2092C47.7991 18.7182 48.2391 18.5615 48.5291 18.248C48.8191 17.9345 48.9644 17.39 48.9644 16.6138V14.7479C48.9644 13.7725 48.797 13.0963 48.4613 12.7184C48.1264 12.3398 47.5693 12.1512 46.7891 12.1512H45.2736V18.7182ZM45.2736 9.09112H46.5996C47.2823 9.09112 47.7923 8.91694 48.1287 8.5686C48.4659 8.22026 48.6341 7.64323 48.6341 6.8375V5.64329C48.644 4.17117 48.0716 3.43435 46.9162 3.43435H45.2736V9.09112ZM41.8979 21.7783V0.375H46.9992C48.7391 0.375 50.0095 0.777865 50.8095 1.58359C51.6094 2.38932 52.0098 3.62821 52.0098 5.30025V6.0613C52.0098 8.2604 51.2799 9.69844 49.8192 10.3747C51.4998 11.0312 52.3394 12.5594 52.3394 14.9569V16.7031C52.3394 18.3547 51.9048 19.6141 51.0348 20.4796C50.164 21.3452 48.8891 21.7783 47.2092 21.7783H41.8979Z" fill="#818181"/>
<path id="Fill-11" fill-rule="evenodd" clip-rule="evenodd" d="M54.365 21.7783V0.375H63.5764V3.43511H57.7407V9.39024H62.3761V12.4496H57.7407V18.7182H63.5764V21.7783H54.365Z" fill="#818181"/>
<path id="Fill-12" fill-rule="evenodd" clip-rule="evenodd" d="M0.0412598 26.1375H63.6238V23.166H0.0412598V26.1375Z" fill="#818181"/>
</g>
</g>
</g>
</svg>
