<svg width="128" height="29" viewBox="0 0 128 29" fill="none" xmlns="http://www.w3.org/2000/svg">
<g id="&#208;&#161;&#208;&#187;&#208;&#190;&#208;&#185;_1" clip-path="url(#clip0_71_796)">
<g id="Group">
<path id="Vector" d="M4.44135 25.0908C4.31408 25.5999 4.1868 25.8544 4.05953 26.1089C2.91408 24.1999 1.64135 22.2908 0.750439 20.2544C-0.14047 18.4726 0.368621 16.4362 1.25953 14.6544C1.25953 15.6726 1.25953 16.5635 1.3868 17.5817C1.64135 19.3635 2.15044 21.1453 3.29589 22.5453C3.67771 23.0544 4.1868 23.4362 4.69589 23.818L4.82317 23.6908C4.31408 22.6726 3.80498 21.5271 3.42317 20.509C3.04135 19.3635 2.7868 18.218 2.40498 16.9453C2.91408 17.0726 3.29589 17.1999 3.67771 17.3271C3.29589 16.0544 3.04135 14.909 2.65953 13.7635H2.7868C3.42317 14.909 4.1868 15.9271 4.82317 17.0726C4.95044 17.1999 4.82317 17.5817 4.69589 17.709C4.31408 18.3453 4.31408 18.9817 4.56862 19.618C5.20499 20.8908 5.84135 22.0362 6.47771 23.1817C6.60499 22.0362 6.60499 20.8908 5.96862 19.8726C5.45953 18.9817 5.33226 18.3453 5.96862 17.4544C6.09589 17.3271 6.22317 17.3271 6.22317 17.1999C6.35044 15.9271 7.49589 15.7999 8.25953 15.2908C8.51408 15.1635 8.76862 14.909 9.15044 14.7817C9.15044 14.6544 9.15044 14.6544 9.15044 14.5271C8.76862 14.5271 8.3868 14.3999 8.13226 14.5271C7.62317 14.6544 7.24135 14.909 6.85953 15.1635C5.71408 15.7999 5.20499 15.5453 5.20499 14.2726C5.71408 14.018 6.35044 13.7635 6.9868 13.3817C6.09589 12.8726 4.82317 13.3817 4.95044 11.9817C5.33226 12.109 5.5868 12.109 5.96862 12.2362C5.45953 11.3453 4.95044 10.5817 4.69589 9.81804C4.44135 8.92713 4.56862 8.03622 4.44135 7.14531C4.31408 7.14531 4.31408 7.01804 4.1868 7.01804C3.80498 7.39986 3.42317 7.78168 3.04135 8.29077C2.27771 7.90895 1.51408 7.90895 1.51408 6.7635C1.76862 6.89077 2.02317 7.01804 2.53226 7.14531C2.27771 6.7635 2.15044 6.50895 1.89589 6.25441C0.877712 5.23622 0.623166 3.9635 0.623166 2.69077C0.623166 1.79986 1.3868 1.41804 2.27771 1.67259C3.80498 2.18168 5.45953 2.69077 7.11408 3.19986C7.75044 3.32713 8.3868 3.32713 9.02317 3.32713C7.49589 4.21804 5.84135 3.45441 4.1868 3.45441V3.58168C4.56862 3.70895 4.82317 3.9635 5.07771 4.09077C4.95044 4.34531 4.82317 4.59986 4.95044 4.72713C5.20499 5.61804 5.33226 6.63622 5.07771 7.78168C4.82317 8.79986 5.33226 9.5635 6.09589 10.1999C6.60498 10.709 7.11408 11.218 7.62317 11.7271C8.51408 12.618 9.65953 12.9999 11.0595 12.7453C10.805 12.109 10.1686 11.8544 9.65953 11.7271C8.00499 11.218 6.9868 10.0726 6.22317 8.54531C5.96862 8.1635 5.96862 7.65441 5.84135 7.14531C6.09589 7.14531 6.09589 7.14531 6.09589 7.27259C6.47771 8.41804 7.24135 8.79986 8.51408 8.79986C9.65953 8.79986 10.5504 9.30895 11.0595 10.3271C11.3141 10.8362 11.6959 11.4726 12.4595 11.7271C12.5868 11.218 12.7141 10.709 12.7141 10.1999C12.7141 9.94531 12.5868 9.81804 12.3323 9.5635C11.9504 9.0544 11.4413 8.67259 11.0595 8.1635C11.4413 8.03622 11.6959 7.78168 11.9504 7.6544V7.52713C11.3141 7.52713 10.5504 7.52713 9.91408 7.52713V7.39986C10.5504 7.14532 11.1868 6.89077 11.8232 6.63622C10.5504 5.74531 9.15044 6.25441 7.75044 5.99986C9.40499 5.49077 11.0595 4.98168 12.5868 4.47259C12.5868 4.34531 12.5868 4.34532 12.5868 4.21804C11.6959 4.21804 10.6777 4.21804 9.7868 4.21804C10.5504 3.58168 11.4413 3.07259 12.4595 3.07259C13.9868 3.07259 15.6413 2.94532 17.1686 3.07259C18.1868 3.19986 19.0777 3.58168 20.0959 3.83622C20.0959 3.9635 20.0959 3.9635 20.0959 4.09077C19.205 4.09077 18.1868 4.09077 17.2959 4.09077C17.2959 4.21804 17.2959 4.21804 17.2959 4.34532C18.8232 4.85441 20.2232 5.3635 21.8777 5.87259C20.4777 6.12713 19.205 5.74531 18.0595 6.50895C18.0595 6.63622 18.0595 6.63622 18.0595 6.7635C18.6959 7.01804 19.205 7.14532 19.8413 7.39986C19.205 7.39986 18.5686 7.39986 17.9323 7.39986V7.52713C18.1868 7.65441 18.4413 7.90895 18.8232 8.03622C18.4413 8.54532 17.9323 8.92713 17.5504 9.43622C17.2959 9.69077 17.1686 9.94531 17.4232 10.3271C17.5504 10.5817 17.4232 11.0908 17.4232 11.5999C18.1868 11.218 18.6959 10.5817 19.0777 9.81804C19.5868 8.92713 20.3504 8.41804 21.3686 8.29077C22.5141 8.1635 23.6595 8.1635 23.9141 6.63622C24.0413 6.63622 24.0413 6.7635 24.1686 6.7635C24.0413 7.14532 24.0413 7.65441 23.9141 8.03622C23.2777 9.69077 22.005 10.709 20.2232 11.3453C19.8413 11.4726 19.4595 11.7271 18.9504 11.9817C18.9504 12.109 18.9504 12.109 18.9504 12.2362C19.4595 12.2362 20.0959 12.3635 20.605 12.2362C21.7504 11.9817 22.7686 11.218 23.405 10.1999C23.7868 9.5635 24.2959 8.79986 24.6777 8.03622C24.6777 7.90895 24.805 7.78168 24.805 7.6544C24.6777 7.01804 24.2959 6.12713 24.5504 5.74531C25.0595 5.10895 24.805 4.47259 25.0595 3.83622C24.805 3.83622 24.5504 3.9635 24.4232 3.9635V3.83622C24.9323 3.58168 25.3141 3.4544 25.8232 3.19986C25.0595 2.81804 24.2959 2.94532 23.5323 3.07259C22.6413 3.19986 21.7504 3.45441 20.8595 2.81804C23.2777 2.94531 25.3141 2.30895 27.4777 1.41804C28.4959 0.908951 29.2595 1.41804 29.2595 2.5635C29.2595 3.83622 29.005 5.10895 27.9868 5.99986C27.8595 6.12713 27.7323 6.38168 27.4777 6.7635C27.9868 6.63622 28.2414 6.50895 28.4959 6.38168C28.4959 7.27259 28.1141 7.65441 26.8413 7.90895C26.7141 7.65441 26.5868 7.27259 26.3323 7.01804C26.205 6.89077 25.9504 6.7635 25.6959 6.7635C25.5686 6.7635 25.4414 7.01804 25.3141 7.27259C25.3141 7.39986 25.3141 7.52713 25.3141 7.6544C25.5686 9.18168 25.4414 10.709 23.9141 11.5999C23.9141 11.7271 24.0413 11.7271 24.0413 11.8544C24.4232 11.8544 24.805 11.8544 25.0595 11.9817C25.0595 13.1271 24.1686 12.9999 23.405 12.9999C23.5323 13.509 23.5323 13.509 24.805 14.018C24.805 14.1453 24.6777 14.3999 24.6777 14.5271C24.4232 15.2908 24.0413 15.418 23.405 15.0362C22.6413 14.5271 21.7504 14.1453 20.605 14.5271C21.6232 15.1635 22.5141 15.6726 23.405 16.1817C23.1504 16.6908 23.2777 17.0726 23.6595 17.3271C24.1686 17.709 24.2959 18.7271 23.9141 19.4908C23.2777 20.6362 23.405 21.7817 23.405 23.0544C23.405 22.9271 23.5323 22.9271 23.5323 22.7999C23.9141 21.5271 24.4232 20.3817 25.1868 19.2362C25.5686 18.7271 25.8232 17.9635 25.1868 17.1999C25.1868 17.0726 25.0595 16.9453 25.1868 16.818C25.6959 15.6726 26.3323 14.5271 26.8413 13.3817C26.9686 13.3817 26.9686 13.509 27.0959 13.509C26.7141 14.6544 26.3323 15.9271 25.9504 17.1999C26.4595 17.0726 26.8413 16.9453 27.3504 16.6908C26.8413 19.109 25.9504 21.2726 24.805 23.4362C25.5686 23.4362 26.0777 22.9271 26.4595 22.418C27.8595 20.6362 28.3686 18.5999 28.4959 16.4362C28.4959 15.7999 28.4959 15.1635 28.6232 14.3999C29.3868 15.5453 29.6413 18.9817 29.2595 20.2544C29.2595 20.3817 29.1323 20.509 29.005 20.6362C27.9868 22.2908 26.9686 23.818 25.9504 25.4726C25.9504 25.4726 25.8232 25.4726 25.8232 25.5999C25.6959 25.3453 25.6959 25.0908 25.4413 24.709C24.805 25.8544 24.2959 26.7453 23.7868 27.7635H23.6595C23.6595 26.9999 23.6595 26.2362 23.6595 25.4726C23.6595 25.218 23.2777 24.9635 23.1504 24.709C22.8959 24.9635 22.6413 25.218 22.6413 25.4726C22.5141 25.9817 22.6413 26.3635 22.6413 26.9999C22.1323 26.7453 21.6232 26.4908 21.2413 26.2362C20.4777 25.8544 19.7141 25.8544 19.0777 26.4908C18.6959 26.8726 17.9323 27.1271 17.2959 27.1271C16.1504 27.2544 14.8777 27.1271 13.7323 27.2544C12.9686 27.2544 12.3323 27.1271 11.9504 26.618C11.1868 25.8544 10.4232 25.8544 9.53226 26.3635C9.15044 26.618 8.76862 26.7453 8.3868 26.9999C8.25953 26.4908 8.25953 25.8544 8.13226 25.4726C8.00498 25.218 7.75044 25.0908 7.49589 24.8362C7.36862 25.0908 7.11408 25.3453 7.11408 25.5999C7.11408 26.3635 7.11408 27.2544 6.9868 28.1453C5.5868 27.2544 5.07771 26.3635 4.44135 25.0908ZM20.4777 25.8544C20.0959 24.1999 18.9504 22.9271 17.2959 22.5453C15.8959 22.1635 14.3686 22.0362 12.8413 22.418C12.0777 22.5453 11.1868 22.9271 10.5504 23.4362C9.7868 23.818 9.15044 24.5817 9.15044 25.7271C9.53226 25.3453 9.91408 25.0908 10.2959 24.8362C10.6777 24.5817 11.0595 24.709 11.0595 25.218C11.0595 25.4726 11.0595 25.7271 11.3141 25.9817C12.205 26.7453 13.9868 26.7453 14.8777 26.1089C15.1323 26.2362 15.2595 26.4908 15.5141 26.4908C16.5323 26.618 17.4232 26.3635 18.3141 25.8544C18.4413 25.7271 18.5686 25.4726 18.5686 25.3453C18.5686 24.709 18.8232 24.5817 19.3323 24.8362C19.5868 25.0908 19.9686 25.4726 20.4777 25.8544ZM18.4413 13.3817C18.4413 13.8908 18.4413 14.3999 18.4413 14.7817C18.5686 15.418 18.4413 15.9271 17.9323 16.309C17.2959 16.818 16.6595 17.4544 15.8959 17.709C15.005 18.0908 15.1323 18.7271 15.1323 19.3635C15.1323 19.9999 15.5141 20.2544 16.0232 20.3817C16.9141 20.6362 17.6777 21.018 18.5686 21.2726C19.4595 21.5271 20.7323 21.018 20.9868 20.1271C20.4777 19.9999 19.8413 19.9999 19.205 19.8726C20.8595 19.109 20.8595 19.109 20.9868 18.5999C20.2232 18.7271 19.4595 18.9817 18.8232 19.1089C19.205 18.7271 19.7141 18.4726 20.0959 18.0908C20.605 17.8362 20.8595 17.3271 20.8595 16.6908C20.0959 17.0726 19.5868 17.9635 18.4413 17.709C19.205 17.0726 19.8413 16.5635 20.3504 16.1817C20.0959 15.6726 19.5868 15.1635 19.5868 14.7817C19.5868 14.1453 19.205 13.7635 18.4413 13.3817ZM11.0595 19.9999C11.0595 20.1271 11.0595 20.1271 11.0595 20.2544C10.1686 20.2544 9.40499 20.2544 8.51408 20.2544C8.89589 21.1453 10.0413 21.6544 10.9323 21.3999C11.9504 21.1453 12.9686 20.7635 13.8595 20.3817C14.1141 20.2544 14.2413 20.1271 14.3686 19.8726C14.7504 18.9817 14.3686 17.9635 13.4777 17.709C11.6959 16.9453 10.9323 15.9271 11.1868 13.8908C11.1868 13.7635 11.1868 13.509 11.1868 13.3817C10.4232 13.3817 9.91408 13.8908 10.0413 14.7817C10.0413 15.2908 10.0413 15.7999 9.40499 16.0544C9.91408 16.6908 10.4232 17.3271 10.9323 17.9635C9.7868 18.218 9.27771 17.1999 8.51408 16.9453C8.64135 17.3271 8.76862 17.709 9.02317 17.9635C9.27771 18.218 9.65953 18.4726 9.91408 18.5999C10.1686 18.8544 10.5504 18.9817 10.805 19.2362V19.3635C10.0413 19.2362 9.27771 18.9817 8.3868 18.7271C8.89589 19.8726 10.1686 19.4908 11.0595 19.9999ZM12.3323 14.3999C12.205 14.3999 12.205 14.3999 12.0777 14.3999C12.0777 14.7817 11.8232 15.1635 11.9504 15.418C12.0777 15.6726 12.4595 15.9271 12.7141 15.9271C13.9868 16.0544 15.2595 15.9271 16.5323 15.9271C17.0413 15.9271 17.4232 15.7999 17.5504 15.418C17.5504 15.0362 17.4232 14.6544 17.1686 14.1453C16.5323 15.6726 15.3868 15.418 14.3686 15.418C13.7323 15.5453 12.7141 15.5453 12.3323 14.3999ZM8.8959 9.43622C8.76862 9.43622 8.76862 9.43622 8.64135 9.5635C8.64135 9.81804 8.51408 10.0726 8.51408 10.3271C8.51408 10.8362 8.89589 11.218 9.27771 11.218C9.53226 11.218 9.7868 10.709 10.0413 10.4544C9.7868 10.0726 9.40499 9.69077 8.8959 9.43622ZM20.7323 9.69077C20.0959 9.5635 19.5868 9.81804 19.3323 10.3271C19.205 10.4544 19.3323 10.9635 19.5868 11.0908C19.8413 11.218 20.2232 11.218 20.3504 11.0908C20.8595 10.709 20.9868 10.1999 20.7323 9.69077Z" fill="#DD6864"/>
<path id="Vector_2" d="M102.95 11.5989C101.805 12.108 100.659 12.6171 99.514 12.9989C99.3867 12.8716 99.2595 12.6171 99.2595 12.4898C97.9867 10.3262 95.1867 10.1989 93.6595 12.2353C92.3867 13.8898 92.3867 16.4353 93.5322 18.2171C94.5504 19.7443 96.4595 20.2534 97.9867 19.4898C98.8776 18.9807 99.3867 18.3443 99.2595 17.3262C98.3686 17.3262 97.3504 17.3262 96.4595 17.3262C96.4595 16.308 96.4595 15.4171 96.4595 14.5262C98.8776 14.5262 101.169 14.5262 103.459 14.5262C103.841 19.4898 100.659 23.308 95.314 22.6716C92.1322 22.2898 89.8413 20.3807 89.0776 17.5807C88.1867 14.2716 89.2049 10.9625 91.6231 9.18071C94.8049 6.76253 99.6413 7.27162 101.932 10.1989C102.441 10.5807 102.696 11.0898 102.95 11.5989Z" fill="#DD6864"/>
<path id="Vector_3" d="M54.7141 22.164C54.7141 17.4549 54.7141 12.8731 54.7141 8.16399C56.4959 8.16399 58.2777 8.03671 60.0596 8.16399C61.0777 8.16399 62.0959 8.41853 62.9868 8.80035C65.9141 10.0731 67.5687 13.3822 66.805 16.564C66.1687 19.7458 63.3687 22.0367 60.1868 22.164C58.405 22.164 56.6232 22.164 54.7141 22.164ZM58.405 19.1094C60.3141 19.4913 61.9687 18.7276 62.8596 17.4549C63.7505 16.0549 63.6232 13.8913 62.605 12.6185C61.7141 11.4731 59.805 10.8367 58.405 11.3458C58.405 13.8913 58.405 16.4367 58.405 19.1094Z" fill="#DD6864"/>
<path id="Vector_4" d="M127.387 22.1641C125.86 22.1641 124.587 22.1641 123.187 22.1641C123.06 22.1641 122.805 21.9095 122.678 21.655C121.787 20.255 120.896 18.855 120.005 17.455C119.878 17.2004 119.751 17.0732 119.496 16.6913C119.496 18.6004 119.496 20.3822 119.496 22.1641C118.223 22.1641 117.078 22.1641 115.932 22.1641C115.932 17.5822 115.932 12.8732 115.932 8.16406C117.205 8.16406 118.478 8.16406 119.623 8.16406C120.896 8.16406 122.169 8.16406 123.314 8.41861C125.223 8.9277 126.114 10.3277 126.114 12.2368C126.114 14.4004 125.223 15.5459 123.314 16.3095C123.187 16.3095 123.187 16.3095 123.06 16.4368C124.46 18.3459 125.86 20.255 127.387 22.1641ZM119.369 14.5277C119.751 14.5277 119.878 14.5277 120.132 14.5277C120.387 14.5277 120.769 14.5277 121.023 14.4004C121.787 14.2732 122.296 13.6368 122.296 12.8732C122.296 11.9822 122.041 11.3459 121.151 11.0913C120.641 10.9641 120.132 10.9641 119.623 10.8368C119.496 10.8368 119.241 11.0913 119.241 11.0913C119.369 12.2368 119.369 13.3822 119.369 14.5277Z" fill="#DD6864"/>
<path id="Vector_5" d="M105.496 8.16406C108.169 8.16406 110.714 8.16406 113.387 8.16406C113.387 9.18224 113.387 10.0732 113.387 11.0913C111.987 11.0913 110.587 11.0913 109.187 11.0913C109.187 11.9822 109.187 12.7459 109.187 13.5095C110.587 13.5095 111.859 13.5095 113.259 13.5095C113.259 14.5277 113.259 15.4186 113.259 16.5641C111.859 16.5641 110.587 16.5641 109.187 16.5641C109.187 17.455 109.187 18.2186 109.187 19.1095C110.587 19.1095 111.987 19.1095 113.387 19.1095C113.387 20.1277 113.387 21.1459 113.387 22.1641C110.841 22.1641 108.169 22.1641 105.623 22.1641C105.496 17.5822 105.496 12.8732 105.496 8.16406Z" fill="#DD6864"/>
<path id="Vector_6" d="M82.205 8.29102C82.205 9.3092 82.205 10.2001 82.205 11.2183C81.1869 11.2183 80.296 11.2183 79.2778 11.2183C79.2778 14.9092 79.2778 18.4728 79.2778 22.1637C78.005 22.1637 76.8596 22.1637 75.7141 22.1637C75.7141 18.6001 75.7141 14.9092 75.7141 11.2183C74.696 11.2183 73.6778 11.2183 72.7869 11.2183C72.7869 10.2001 72.7869 9.3092 72.7869 8.29102C75.7141 8.29102 78.896 8.29102 82.205 8.29102Z" fill="#DD6864"/>
<path id="Vector_7" d="M87.1686 22.1637C86.0232 22.1637 84.8777 22.1637 83.605 22.1637C83.605 17.5819 83.605 12.8728 83.605 8.29102C84.7504 8.29102 85.8959 8.29102 87.1686 8.29102C87.1686 12.8728 87.1686 17.4547 87.1686 22.1637Z" fill="#DD6864"/>
<path id="Vector_8" d="M43.2595 22.1641C41.7322 22.1641 40.4595 22.1641 39.0595 22.1641C38.9322 22.1641 38.6777 21.9095 38.5504 21.655C37.6595 20.255 36.7686 18.855 35.8777 17.455C35.7504 17.2004 35.6231 17.0732 35.3686 16.6913C35.3686 18.6004 35.3686 20.3822 35.3686 22.1641C34.0958 22.1641 32.9504 22.1641 31.8049 22.1641C31.8049 17.5822 31.8049 12.8732 31.8049 8.16406C33.0777 8.16406 34.3504 8.16406 35.4958 8.16406C36.7686 8.16406 38.0413 8.16406 39.1868 8.41861C41.0958 8.9277 41.9868 10.3277 41.9868 12.2368C41.9868 14.4004 41.0958 15.5459 39.1868 16.3095C39.0595 16.3095 39.0595 16.3095 38.9322 16.4368C40.4595 18.3459 41.8595 20.255 43.2595 22.1641ZM35.2413 14.5277C35.6231 14.5277 35.7504 14.5277 36.0049 14.5277C36.2595 14.5277 36.6413 14.5277 36.8958 14.4004C37.6595 14.2732 38.1686 13.6368 38.1686 12.8732C38.1686 11.9822 37.914 11.3459 37.0231 11.0913C36.514 10.9641 36.0049 10.9641 35.4958 10.8368C35.3686 10.8368 35.114 11.0913 35.114 11.0913C35.2413 12.2368 35.2413 13.3822 35.2413 14.5277Z" fill="#DD6864"/>
<path id="Vector_9" d="M44.5322 8.16406C47.205 8.16406 49.7504 8.16406 52.4231 8.16406C52.4231 9.18224 52.4231 10.0732 52.4231 11.0913C51.0231 11.0913 49.6231 11.0913 48.2231 11.0913C48.2231 11.9822 48.2231 12.7459 48.2231 13.5095C49.6231 13.5095 50.8959 13.5095 52.2959 13.5095C52.2959 14.5277 52.2959 15.4186 52.2959 16.5641C50.8959 16.5641 49.6231 16.5641 48.2231 16.5641C48.2231 17.455 48.2231 18.2186 48.2231 19.1095C49.6231 19.1095 51.0231 19.1095 52.4231 19.1095C52.4231 20.1277 52.4231 21.1459 52.4231 22.1641C49.8777 22.1641 47.205 22.1641 44.6595 22.1641C44.5322 17.5822 44.5322 12.8732 44.5322 8.16406Z" fill="#DD6864"/>
</g>
</g>
<defs>
<clipPath id="clip0_71_796">
<rect width="127.273" height="28" fill="white" transform="translate(0.241455 0.273438)"/>
</clipPath>
</defs>
</svg>
