<svg width="88" height="29" viewBox="0 0 88 29" fill="none" xmlns="http://www.w3.org/2000/svg">
<g id="tom horn" style="mix-blend-mode:luminosity">
<g id="Group">
<path id="Vector" d="M13.2186 28.1484C12.641 28.1168 12.0651 28.0854 11.4892 28.0539C10.8119 28.0188 10.1345 27.9838 9.45715 27.9436C9.41337 27.9418 9.36611 27.9068 9.32584 27.8753C7.92384 26.7113 6.52358 25.5456 5.12336 24.3816C4.52124 23.8793 3.91737 23.3769 3.31526 22.8729C3.27151 22.8361 3.2295 22.7731 3.2085 22.7083C2.79017 21.4498 2.36659 20.1931 1.96227 18.9241C1.81174 18.4515 1.71022 17.9509 1.5912 17.459C1.36016 16.5034 1.13612 15.5459 0.905073 14.5902C0.88407 14.5027 0.889319 14.4345 0.912074 14.3522C1.06435 13.8359 1.21663 13.3195 1.36365 12.7997C1.95876 10.708 2.55212 8.61809 3.14723 6.52645C3.16473 6.46169 3.18924 6.39866 3.19974 6.33216C3.226 6.17639 3.30826 6.10112 3.40278 6.03462C3.43604 6.01186 3.46754 5.9821 3.49905 5.95409C4.47572 5.07542 5.4454 4.18099 6.43084 3.31808C6.83689 2.96101 7.27099 2.6687 7.6928 2.34664C8.23893 1.93356 8.78675 1.52398 9.33461 1.11615C9.37314 1.0864 9.42036 1.07064 9.46414 1.07064C11.9514 1.06364 14.4403 1.05839 16.9275 1.05664C16.9643 1.05664 17.0028 1.07065 17.0343 1.0969C18.0705 1.8723 19.1102 2.6407 20.1393 3.4336C20.4824 3.6979 20.7992 4.02696 21.1247 4.32977C21.7864 4.94237 22.4498 5.55678 23.1096 6.17288C23.1499 6.20963 23.1866 6.27265 23.2059 6.33568C23.955 8.94364 24.7024 11.5552 25.4498 14.1649C25.4533 14.1754 25.4533 14.1859 25.4568 14.1947C25.5758 14.3942 25.5216 14.592 25.469 14.8056C25.1417 16.1235 24.832 17.4486 24.4959 18.7648C24.3751 19.2391 24.2036 19.6942 24.0531 20.1546C23.7712 21.0105 23.4859 21.8647 23.2059 22.7206C23.1779 22.8046 23.1411 22.8606 23.0851 22.9079C21.1475 24.5199 19.2082 26.1302 17.2723 27.751C17.106 27.8911 16.9432 27.9611 16.7507 27.9681C16.1836 27.9891 15.6183 28.0241 15.0512 28.0556C14.5033 28.0871 13.9555 28.1204 13.4059 28.1519C13.3446 28.1554 13.2851 28.1519 13.2238 28.1519C13.2186 28.1519 13.2186 28.1501 13.2186 28.1484ZM16.9345 20.1476C17.6836 21.329 18.4275 22.5 19.1731 23.6745C19.1837 23.6605 19.1907 23.6518 19.1977 23.6395C19.4322 23.1862 19.665 22.7328 19.8978 22.2795C19.9118 22.2532 19.9223 22.2165 19.924 22.185C19.9363 21.9802 19.9451 21.7771 19.9556 21.5723C19.9888 20.944 20.0221 20.3121 20.0553 19.682C20.0728 19.3757 20.0868 19.0676 20.1026 18.7508C20.0711 18.7596 20.0466 18.763 20.0221 18.7701C19.2659 19.0098 18.5115 19.2497 17.7554 19.4895C17.7344 19.4965 17.7099 19.5017 17.6924 19.5192C17.4403 19.7258 17.1935 19.934 16.9345 20.1476ZM6.3223 18.7473C6.3398 19.0676 6.35205 19.3687 6.36956 19.668C6.41334 20.4906 6.45534 21.3168 6.50086 22.1395C6.50434 22.1972 6.5201 22.262 6.5446 22.311C6.76165 22.7381 6.98044 23.1634 7.20097 23.5887C7.21674 23.6185 7.23247 23.6465 7.25175 23.6798C8.00086 22.5 8.74475 21.3273 9.49216 20.1511C9.2331 19.9358 8.98278 19.7275 8.7325 19.5192C8.71499 19.5052 8.69049 19.4999 8.66773 19.4929C8.10762 19.3144 7.54577 19.1341 6.9857 18.9573C6.76513 18.8856 6.54812 18.8191 6.3223 18.7473ZM5.46642 15.7297C5.4944 15.693 5.51368 15.6649 5.53292 15.6387C5.97576 15.0016 6.41859 14.3609 6.8649 13.7291C6.97167 13.5786 7.0522 13.4193 7.1012 13.2215C7.16422 12.9729 7.23772 12.7314 7.30948 12.4758C6.09651 12.0243 4.89054 11.5762 3.67583 11.1246C3.71784 11.6427 3.75809 12.1433 3.8036 12.6421C3.8106 12.7226 3.83861 12.8084 3.87361 12.8732C4.24118 13.54 4.61225 14.2017 4.98158 14.8668C5.1426 15.1504 5.30362 15.4357 5.46642 15.7297ZM20.9462 15.7367C20.9655 15.7105 20.9707 15.7035 20.9742 15.6947C21.5098 14.732 22.0472 13.7711 22.5828 12.8084C22.5985 12.7786 22.6091 12.7419 22.6125 12.7069C22.6318 12.5056 22.6493 12.3008 22.665 12.0978C22.6931 11.7792 22.7176 11.4589 22.7456 11.1211C21.5291 11.5727 20.3231 12.0208 19.1119 12.4724C19.2099 12.8136 19.3009 13.1445 19.3955 13.4718C19.4042 13.505 19.4269 13.5348 19.4462 13.5611C19.9293 14.2577 20.4141 14.9526 20.8972 15.6492C20.913 15.6755 20.9287 15.7035 20.9462 15.7367ZM18.9754 23.825C18.2262 22.6436 17.4876 21.4778 16.7437 20.3069C16.4759 20.5292 16.2116 20.7479 15.9491 20.9702C15.9316 20.9877 15.9158 21.0123 15.9018 21.0368C15.4782 21.7701 15.0529 22.5053 14.6293 23.2404C14.6188 23.2579 14.6118 23.2772 14.6013 23.3017C14.6241 23.3104 14.6416 23.3192 14.6591 23.3227C15.6095 23.6062 16.5599 23.8898 17.5121 24.1681C17.5489 24.1786 17.5874 24.1786 17.6241 24.1699C17.9444 24.0911 18.2648 24.0071 18.5851 23.9265C18.7128 23.8933 18.8389 23.86 18.9754 23.825ZM11.8253 23.3017C11.8148 23.2789 11.8096 23.2684 11.8043 23.2579C11.3737 22.5123 10.9432 21.7666 10.5126 21.0227C10.5003 21.0017 10.4863 20.979 10.4706 20.9667C10.2098 20.7479 9.94898 20.5309 9.68293 20.3086C8.94078 21.4796 8.2004 22.6471 7.45477 23.8233C7.48101 23.8338 7.49326 23.8408 7.50554 23.8443C7.89586 23.944 8.28618 24.0438 8.67651 24.1401C8.76051 24.1611 8.84978 24.1874 8.92853 24.1646C9.73544 23.9336 10.5406 23.692 11.3457 23.4522C11.4997 23.3997 11.659 23.3524 11.8253 23.3017ZM16.6054 6.44592C16.5827 6.41269 16.5669 6.38815 16.5529 6.36717C15.9403 5.51473 15.3277 4.66059 14.7133 3.80817C14.6888 3.77491 14.6573 3.74691 14.6258 3.73116C14.218 3.52637 13.8084 3.32508 13.4006 3.12029C13.3814 3.10979 13.3603 3.10279 13.3358 3.09579C13.3358 4.54507 13.3358 5.98384 13.3358 7.43136C13.3673 7.43136 13.3954 7.43136 13.4216 7.43136C13.6912 7.43136 13.9642 7.43314 14.2338 7.42962C14.281 7.42962 14.33 7.41911 14.3755 7.39987C14.7309 7.24932 15.0844 7.09707 15.438 6.94653C15.8231 6.78025 16.2081 6.61571 16.6054 6.44592ZM13.089 7.43136C13.089 5.97859 13.089 4.54156 13.089 3.09403C13.0593 3.10629 13.0348 3.11679 13.012 3.12729C12.6165 3.32333 12.2244 3.51937 11.8306 3.71891C11.7798 3.74516 11.7255 3.78892 11.687 3.84318C11.0937 4.66409 10.5021 5.4885 9.91045 6.3094C9.8807 6.3514 9.84047 6.3759 9.80369 6.40917C9.84747 6.45469 9.87022 6.46517 9.89121 6.47394C10.5686 6.76622 11.246 7.05507 11.9233 7.34736C11.9898 7.37711 12.0581 7.42437 12.1264 7.42611C12.4449 7.43488 12.7652 7.43136 13.089 7.43136ZM22.6668 10.8288C22.63 10.7885 22.6073 10.7675 22.588 10.743C22.3185 10.3947 22.0524 10.0446 21.7811 9.70156C21.7409 9.64905 21.6884 9.6053 21.6359 9.58077C20.9287 9.26047 20.2198 8.94191 19.5127 8.6216C19.2922 8.52357 19.0716 8.4238 18.8458 8.32406C18.8423 8.3748 18.8389 8.41506 18.8371 8.45707C18.8056 9.28848 18.7741 10.1199 18.7391 10.9513C18.7338 11.0826 18.7478 11.2033 18.7846 11.3241C18.8564 11.5622 18.9211 11.802 18.9894 12.04C19.0034 12.0873 19.0174 12.1345 19.0314 12.1818C20.2409 11.7337 21.4398 11.2856 22.6668 10.8288ZM7.39352 12.1835C7.49152 11.8405 7.58604 11.5079 7.67881 11.1754C7.68932 11.1386 7.68581 11.0948 7.68407 11.0528C7.65605 10.3264 7.62982 9.59827 7.6018 8.87015C7.59655 8.69162 7.58604 8.51132 7.57904 8.32928C7.55454 8.33805 7.54052 8.34331 7.52653 8.3503C6.6006 8.7669 5.67296 9.18345 4.74877 9.60179C4.71727 9.61578 4.68578 9.64553 4.66124 9.6788C4.38296 10.0376 4.10466 10.3982 3.82811 10.7588C3.8106 10.7815 3.79485 10.806 3.7721 10.8393C4.98506 11.2874 6.18578 11.7337 7.39352 12.1835ZM13.3376 14.9438C13.3376 16.4999 13.3376 18.0314 13.3376 19.563C14.3125 19.563 15.2839 19.563 16.2676 19.563C15.2892 18.0192 14.3178 16.4894 13.3376 14.9438ZM10.1555 19.5647C11.1427 19.5647 12.1141 19.5647 13.0838 19.5647C13.0838 18.0279 13.0838 16.4964 13.0838 14.9473C12.1036 16.4911 11.1339 18.0209 10.1555 19.5647ZM13.3341 8.34505C13.3341 10.2547 13.3341 12.1485 13.3341 14.0669C14.1323 12.8102 14.9181 11.5709 15.7093 10.3229C14.9146 9.66304 14.1287 9.00667 13.3341 8.34505ZM13.0926 14.0704C13.0926 12.1468 13.0926 10.2529 13.0926 8.34331C12.2962 9.00667 11.5085 9.65956 10.7139 10.3229C11.505 11.5709 12.2926 12.8102 13.0926 14.0704ZM16.4812 19.4264C16.7857 18.3517 17.085 17.2928 17.3878 16.2303C16.1084 15.756 14.8394 15.2816 13.5476 14.8003C14.5313 16.3546 15.501 17.8809 16.4812 19.4264ZM9.94198 19.4264C10.9222 17.8826 11.8901 16.3564 12.8597 14.8265C12.8563 14.8195 12.8545 14.8161 12.8527 14.809C11.5838 15.2816 10.3113 15.7542 9.0353 16.2303C9.33813 17.2963 9.63741 18.3517 9.94198 19.4264ZM8.14263 12.4619C9.72142 13.0499 11.281 13.6293 12.8405 14.2104C12.844 14.2017 12.8475 14.1964 12.851 14.1877C12.0704 12.9572 11.2897 11.725 10.5073 10.4945C9.72142 11.1491 8.93904 11.8002 8.14263 12.4619ZM15.9158 10.4927C15.1334 11.7267 14.3528 12.9554 13.5739 14.1859C13.5774 14.1947 13.5809 14.1999 13.5844 14.2087C15.1439 13.6276 16.7034 13.0482 18.2805 12.4601C17.4841 11.8002 16.7035 11.1491 15.9158 10.4927ZM12.7425 14.515C12.7425 14.508 12.7442 14.5027 12.7442 14.494C11.183 13.9129 9.62342 13.3335 8.04638 12.7454C8.35095 13.8201 8.64849 14.8703 8.94781 15.924C10.2203 15.4549 11.4822 14.9858 12.7425 14.515ZM13.6789 14.494C13.6789 14.501 13.6789 14.5062 13.6772 14.515C14.9409 14.9858 16.2046 15.4567 17.4719 15.9275C17.7729 14.8685 18.0705 13.8184 18.3733 12.7489C16.7962 13.3335 15.2385 13.9146 13.6789 14.494ZM23.3967 11.8597C23.2129 12.1906 23.0343 12.5091 22.8576 12.8312C22.8401 12.8627 22.8313 12.9064 22.8278 12.9449C22.7893 13.3895 22.7526 13.8341 22.7176 14.2787C22.665 14.9158 22.6108 15.553 22.5583 16.1918C22.5215 16.6311 22.4847 17.0722 22.448 17.5256C22.469 17.5063 22.4848 17.4958 22.4988 17.4818C23.0379 16.8972 23.5787 16.3108 24.116 15.7227C24.1353 15.7 24.1511 15.6474 24.1493 15.6107C24.1423 15.3657 24.1283 15.1189 24.1178 14.8738C24.0845 14.1842 24.0513 13.4963 24.0145 12.8067C24.0128 12.7716 24.0075 12.7279 23.99 12.7016C23.7957 12.4233 23.5997 12.1485 23.3967 11.8597ZM3.97688 17.5361C3.95938 17.326 3.94538 17.1405 3.92962 16.955C3.82286 15.6842 3.71609 14.4135 3.61457 13.141C3.59882 12.9554 3.55856 12.7997 3.47104 12.6526C3.32752 12.4199 3.19974 12.1695 3.06322 11.928C3.05097 11.907 3.03871 11.8877 3.02296 11.865C2.82342 12.1485 2.62739 12.4251 2.43485 12.7051C2.4191 12.7261 2.41385 12.7682 2.4121 12.7997C2.36484 13.7378 2.31933 14.6743 2.27732 15.6142C2.27557 15.6562 2.29832 15.7122 2.32283 15.7385C2.6799 16.1305 3.04046 16.5191 3.39753 16.9094C3.58656 17.1125 3.77385 17.3173 3.97688 17.5361ZM20.0956 23.489C20.4089 23.391 20.7099 23.2999 21.0128 23.2019C21.0407 23.1932 21.0652 23.1599 21.0845 23.1336C21.5956 22.4195 22.1015 21.7019 22.6143 20.9895C22.6598 20.9265 22.6668 20.8705 22.6545 20.79C22.5618 20.2404 22.4743 19.6872 22.385 19.1359C22.3395 18.8576 22.294 18.5775 22.245 18.2835C22.2292 18.308 22.2222 18.3202 22.2152 18.336C21.5378 19.6505 20.8605 20.965 20.1831 22.2795C20.1708 22.304 20.1568 22.3337 20.1551 22.3635C20.1341 22.7311 20.1148 23.1022 20.0956 23.489ZM4.18342 18.2852C4.17642 18.315 4.17117 18.3325 4.16767 18.3517C4.03464 19.1814 3.89812 20.0093 3.76685 20.839C3.76159 20.8792 3.7791 20.9387 3.8001 20.9702C4.3112 21.6931 4.82404 22.4143 5.33689 23.1319C5.36487 23.1722 5.40514 23.2019 5.4454 23.2159C5.60117 23.2702 5.75519 23.3139 5.91099 23.3612C6.04752 23.4032 6.18404 23.4452 6.32755 23.4855C6.30831 23.1231 6.2908 22.7766 6.26978 22.4335C6.26457 22.3687 6.25054 22.297 6.22256 22.2445C5.56268 20.9562 4.89754 19.6697 4.23593 18.3832C4.22193 18.3535 4.20442 18.3255 4.18342 18.2852ZM19.1802 5.86483C19.1749 5.87708 19.1679 5.88933 19.1627 5.89984C19.1802 5.91031 19.1976 5.91734 19.2099 5.93307C20.0711 7.04804 20.9322 8.16474 21.7934 9.27971C21.8214 9.31472 21.8582 9.34447 21.8967 9.36024C22.1767 9.48977 22.4568 9.61404 22.7385 9.74183C22.7613 9.75234 22.7841 9.75933 22.8121 9.76806C22.8156 9.72255 22.8191 9.68931 22.8208 9.6543C22.8331 9.36724 22.8471 9.07843 22.8541 8.79139C22.8558 8.73363 22.8401 8.66009 22.8138 8.61461C22.3955 7.86195 21.9702 7.11632 21.5519 6.36018C21.4853 6.23938 21.4118 6.19564 21.3086 6.18161C20.7204 6.09761 20.1323 6.0066 19.5442 5.91908C19.4235 5.89806 19.3009 5.88233 19.1802 5.86483ZM3.60932 9.76984C3.64432 9.75582 3.67233 9.74708 3.69508 9.73483C3.96813 9.6123 4.24293 9.49151 4.51599 9.36376C4.56151 9.34274 4.60877 9.30599 4.64374 9.25873C5.49965 8.15427 6.35031 7.04804 7.20449 5.94184C7.22022 5.92082 7.23247 5.89806 7.25349 5.87182C7.22199 5.87182 7.19923 5.87008 7.17647 5.87182C6.45534 5.98033 5.73421 6.08887 5.01308 6.20089C4.98332 6.20437 4.94657 6.23413 4.92729 6.2674C4.48273 7.05503 4.03815 7.8427 3.59707 8.63211C3.57956 8.66361 3.56731 8.71261 3.56906 8.75287C3.57431 8.94716 3.58306 9.13971 3.59006 9.334C3.59356 9.47926 3.60232 9.61929 3.60932 9.76984ZM14.1882 2.60044C14.1813 2.61444 14.1743 2.63194 14.1673 2.64595C14.365 2.905 14.5628 3.1623 14.7623 3.4196C14.7991 3.4651 14.8411 3.50712 14.8866 3.52987C16.0856 4.13024 17.288 4.72536 18.4888 5.32396C18.5115 5.33447 18.5343 5.3432 18.5676 5.35723C18.5553 5.32396 18.55 5.30472 18.5431 5.28895C18.2332 4.54332 17.9234 3.79592 17.6101 3.04853C17.5926 3.00652 17.5471 2.97151 17.5104 2.96101C16.7157 2.71771 15.9228 2.47791 15.1282 2.23812C15.1002 2.22937 15.0651 2.21887 15.0389 2.23112C14.7536 2.35014 14.4718 2.47442 14.1882 2.60044ZM7.85209 5.35723C7.88535 5.33973 7.90108 5.33621 7.91511 5.32748C9.12981 4.72358 10.3463 4.11973 11.5593 3.51236C11.5908 3.49486 11.6223 3.46861 11.645 3.43535C11.8288 3.1833 12.0109 2.92775 12.1946 2.6722C12.2104 2.6512 12.2227 2.62844 12.2419 2.59869C11.9496 2.47091 11.666 2.34664 11.3825 2.22411C11.358 2.21361 11.3265 2.22062 11.3002 2.22762C10.5021 2.46916 9.70217 2.71071 8.90403 2.95226C8.85503 2.96626 8.82702 2.99776 8.80252 3.05903C8.50146 3.78892 8.19866 4.51706 7.89409 5.24695C7.88358 5.2767 7.87311 5.30646 7.85209 5.35723ZM13.5896 25.5141C13.6194 25.5351 13.6299 25.5439 13.6404 25.5509C14.2775 25.9465 14.9146 26.3438 15.5518 26.7376C15.5833 26.7586 15.6305 26.7586 15.6655 26.7446C16.4374 26.405 17.2093 26.0637 17.9794 25.7172C18.018 25.6997 18.0547 25.6611 18.0792 25.6191C18.2192 25.3811 18.354 25.1395 18.4905 24.898C18.508 24.8718 18.522 24.842 18.5431 24.8017C18.2718 24.7212 18.0092 24.6547 17.7536 24.5637C17.6049 24.5112 17.4631 24.5199 17.3126 24.5602C16.3201 24.8192 15.3259 25.0678 14.3318 25.3198C14.0937 25.3863 13.8504 25.4476 13.5896 25.5141ZM12.8352 25.5194C12.795 25.5071 12.7757 25.4984 12.7565 25.4949C11.533 25.1851 10.3113 24.8735 9.08955 24.5602C8.94603 24.5234 8.81303 24.5199 8.67125 24.5707C8.47522 24.6389 8.27567 24.6897 8.07964 24.7474C8.01488 24.7667 7.95012 24.7895 7.87836 24.8122C8.03764 25.094 8.18989 25.3618 8.34392 25.6296C8.36845 25.6716 8.40694 25.7084 8.44547 25.7259C9.21034 26.069 9.97873 26.4068 10.7436 26.7481C10.7961 26.7708 10.8381 26.7691 10.8872 26.7376C11.2862 26.4855 11.687 26.237 12.0861 25.9902C12.3294 25.8327 12.5745 25.6821 12.8352 25.5194ZM8.86902 7.91272C8.85503 7.9582 8.84452 7.98799 8.83579 8.01949C8.57322 8.94191 8.31594 9.86784 8.04811 10.7868C7.96411 11.0721 7.90634 11.3521 7.93961 11.6619C7.95711 11.8282 7.9536 12.0015 7.95885 12.1695C7.95885 12.1888 7.96237 12.2098 7.96585 12.2448C8.76577 11.5779 9.55692 10.9198 10.3551 10.2547C9.86145 9.474 9.36788 8.69688 8.86902 7.91272ZM18.4608 12.2483C18.473 11.8982 18.487 11.5709 18.4975 11.2419C18.4993 11.2121 18.487 11.1806 18.48 11.1526C18.1825 10.1024 17.8849 9.05393 17.5874 8.00724C17.5804 7.98096 17.5699 7.95299 17.5559 7.9162C17.057 8.70213 16.5652 9.47752 16.0698 10.2582C16.8645 10.918 17.6539 11.5762 18.4608 12.2483ZM17.6959 16.0098C18.4993 16.3091 19.2974 16.6049 20.1061 16.9077C20.0921 16.8552 20.0851 16.8202 20.0746 16.7852C19.8348 15.9398 19.5845 15.0996 19.3587 14.2454C19.2449 13.8113 19.0891 13.4315 18.8371 13.127C18.7566 13.0307 18.6883 12.9152 18.6078 12.7997C18.3015 13.8761 18.0004 14.9368 17.6959 16.0098ZM6.31356 16.9077C7.1257 16.6049 7.9221 16.3073 8.72724 16.0098C8.42271 14.9368 8.12165 13.8744 7.81534 12.7997C7.62456 13.0745 7.44252 13.337 7.25874 13.6013C7.24124 13.6258 7.23424 13.6626 7.22547 13.6923C7.04343 14.3347 6.86143 14.9771 6.67938 15.6195C6.55859 16.043 6.43958 16.4666 6.31356 16.9077ZM20.008 17.2035C19.2029 16.9042 18.41 16.6102 17.6119 16.3126C17.3108 17.375 17.0115 18.4288 16.7087 19.4982C16.749 19.4894 16.77 19.486 16.791 19.4772C16.98 19.4194 17.169 19.3529 17.3598 19.3004C17.5104 19.2584 17.6451 19.1796 17.7781 19.0694C18.494 18.4672 19.2117 17.8739 19.9311 17.2753C19.9503 17.2578 19.9731 17.235 20.008 17.2035ZM6.41508 17.207C6.4536 17.2402 6.4781 17.2613 6.50086 17.2823C7.21848 17.8809 7.93609 18.4742 8.65197 19.0763C8.78327 19.1866 8.91802 19.2689 9.0703 19.3056C9.17707 19.3319 9.2821 19.3722 9.38713 19.4054C9.49216 19.4387 9.59715 19.4702 9.71442 19.5052C9.70217 19.4579 9.69692 19.4282 9.68818 19.3984C9.40637 18.4007 9.12108 17.4048 8.841 16.4054C8.82176 16.3371 8.80078 16.3178 8.74826 16.3389C8.24766 16.5279 7.74358 16.7134 7.24124 16.9007C6.96819 17.0005 6.69863 17.1002 6.41508 17.207ZM13.3376 19.8833C13.3376 20.8425 13.3376 21.7946 13.3376 22.7556C13.3673 22.7328 13.3918 22.7153 13.4146 22.6961C14.0867 22.1377 14.7536 21.5671 15.431 21.0227C15.6953 20.8109 15.9263 20.5642 16.0961 20.2123C16.1486 20.1021 16.2169 20.0023 16.2851 19.8833C15.2944 19.8833 14.3195 19.8833 13.3376 19.8833ZM10.1363 19.8833C10.2885 20.1458 10.4286 20.3909 10.5703 20.6359C10.5931 20.6762 10.6211 20.7112 10.6543 20.7374C11.4438 21.3956 12.2349 22.0537 13.026 22.7118C13.0435 22.7258 13.0645 22.7381 13.0838 22.7538C13.0838 21.7912 13.0838 20.839 13.0838 19.885C12.1036 19.8833 11.1287 19.8833 10.1363 19.8833ZM15.8598 10.0849C16.3499 9.31124 16.8365 8.54459 17.3371 7.75518C17.2863 7.75518 17.2566 7.75518 17.2285 7.75518C16.3289 7.75518 15.431 7.75692 14.533 7.75344C14.3773 7.75344 14.2285 7.77794 14.0797 7.8497C13.8889 7.94074 13.6929 8.01775 13.4846 8.10875C14.281 8.77037 15.0651 9.42326 15.8598 10.0849ZM9.08607 7.75518C9.58841 8.54633 10.075 9.31298 10.5633 10.0849C11.3545 9.42674 12.1404 8.77211 12.935 8.11049C12.907 8.0965 12.8878 8.08599 12.8703 8.07726C12.6445 7.97922 12.4169 7.88119 12.1894 7.78845C12.1439 7.76917 12.0949 7.7587 12.0476 7.7587C11.0937 7.75692 10.1398 7.75692 9.1841 7.75692C9.16134 7.75518 9.13333 7.75518 9.08607 7.75518ZM22.2117 17.5413C22.329 16.148 22.4428 14.7793 22.5565 13.4123C22.5513 13.4105 22.5443 13.4088 22.539 13.4035C22.0647 14.2542 21.5903 15.1031 21.1143 15.959C21.4766 16.4841 21.8371 17.0022 22.2117 17.5413ZM4.21318 17.5413C4.58601 17.0057 4.94657 16.4876 5.31062 15.9625C4.83455 15.1066 4.35845 14.2542 3.88412 13.4018C3.87887 13.4053 3.87362 13.4088 3.86661 13.4123C3.98213 14.7793 4.0959 16.1463 4.21318 17.5413ZM4.39171 18.1347C5.00608 19.3284 5.60994 20.4994 6.21379 21.6721C6.21905 21.6686 6.22604 21.6651 6.2313 21.6616C6.17878 20.6639 6.12627 19.6662 6.07375 18.6685C5.51368 18.4917 4.9623 18.3167 4.39171 18.1347ZM20.1919 21.6634C20.1971 21.6651 20.2058 21.6669 20.2111 21.6704C20.8132 20.4994 21.4171 19.3284 22.0314 18.1364C21.4608 18.3185 20.9077 18.4935 20.3494 18.6703C20.2968 19.668 20.2444 20.6674 20.1919 21.6634ZM7.49152 6.0066C6.69689 7.03753 5.91625 8.05098 5.13383 9.0627C5.15485 9.07495 5.1671 9.07317 5.17761 9.06969C5.95474 8.71964 6.73364 8.3678 7.51076 8.01949C7.55802 7.99847 7.56679 7.96697 7.56328 7.90747C7.54403 7.42788 7.52653 6.95178 7.50902 6.4722C7.50554 6.32339 7.49851 6.17639 7.49152 6.0066ZM21.277 9.08368C21.2805 9.07669 21.284 9.06969 21.2875 9.0627C20.5069 8.05098 19.7245 7.03753 18.9334 6.01008C18.9281 6.0626 18.9264 6.08887 18.9246 6.11685C18.9019 6.70672 18.8826 7.29658 18.8564 7.88297C18.8528 7.97049 18.8739 8.00198 18.9316 8.02648C19.511 8.28554 20.0886 8.54459 20.6679 8.80538C20.871 8.89816 21.074 8.9909 21.277 9.08368ZM11.2075 4.05147C11.2039 4.04272 11.2022 4.03747 11.197 4.02872C10.1205 4.56432 9.04407 5.09992 7.95012 5.64252C8.4787 5.87008 8.98456 6.08362 9.49038 6.30592C9.54641 6.33042 9.57964 6.31991 9.62168 6.26214C9.97873 5.7598 10.3393 5.26271 10.6963 4.76211C10.8679 4.52756 11.0377 4.28951 11.2075 4.05147ZM18.4503 5.65303C18.4503 5.64604 18.4503 5.63901 18.4503 5.63201C17.3756 5.09644 16.2991 4.56257 15.2227 4.02696C15.2174 4.03747 15.2104 4.04972 15.2052 4.06022C15.2472 4.11273 15.2927 4.16174 15.3347 4.21775C15.8265 4.90037 16.3184 5.58827 16.812 6.26914C16.8312 6.29541 16.875 6.32165 16.8995 6.31114C17.4194 6.09761 17.9339 5.87534 18.4503 5.65303ZM13.4846 25.2253C14.6503 24.9277 15.7933 24.6372 16.9345 24.3467C16.917 24.3239 16.8995 24.3151 16.882 24.3116C16.0839 24.0736 15.2874 23.8391 14.4893 23.5992C14.442 23.5852 14.4158 23.6062 14.3878 23.6535C14.1637 24.0438 13.9397 24.4324 13.7157 24.821C13.6439 24.9488 13.5704 25.0748 13.4846 25.2253ZM9.4869 24.3274C9.4869 24.3344 9.4869 24.3396 9.4869 24.3467C10.6298 24.6389 11.7746 24.9295 12.9315 25.2235C12.9158 25.1921 12.9123 25.1798 12.907 25.1693C12.6147 24.6634 12.3224 24.1594 12.0318 23.65C11.9951 23.587 11.9618 23.5887 11.9146 23.6045C11.3615 23.769 10.8084 23.9336 10.2553 24.0963C9.99972 24.1733 9.74418 24.2504 9.4869 24.3274ZM8.53295 3.07653C8.51023 3.07828 8.4962 3.07828 8.48569 3.08353C7.95537 3.24456 7.42328 3.40034 6.8964 3.57188C6.7809 3.60863 6.67413 3.7049 6.55511 3.77842C6.90517 4.32802 7.23772 4.85137 7.5773 5.38698C7.8976 4.60983 8.21265 3.85018 8.53295 3.07653ZM17.8867 3.07128C18.2122 3.85193 18.5273 4.61508 18.8476 5.38872C19.1889 4.84963 19.5215 4.32627 19.868 3.78017C19.7543 3.70665 19.6562 3.61563 19.5512 3.58063C19.1767 3.45285 18.7986 3.34608 18.4205 3.23056C18.2473 3.1763 18.0739 3.12729 17.8867 3.07128ZM22.455 18.1154C22.5933 18.9591 22.7281 19.7887 22.8681 20.6517C22.8996 20.5974 22.9153 20.5659 22.9346 20.5397C23.2654 20.0723 23.5962 19.6015 23.9323 19.1411C24.018 19.0239 24.0478 18.8786 24.0951 18.7263C23.5472 18.5215 23.0064 18.3185 22.455 18.1154ZM3.53055 20.6412C3.54105 20.6307 3.55155 20.6202 3.56206 20.6097C3.69683 19.7818 3.83161 18.9539 3.96988 18.1137C3.41328 18.3202 2.87418 18.5215 2.33333 18.7228C2.37534 18.8978 2.42435 19.0449 2.51711 19.1726C2.84618 19.6225 3.16824 20.0828 3.4938 20.5414C3.50955 20.5694 3.5183 20.6079 3.53055 20.6412ZM24.1721 16.0535C23.626 16.6469 23.0904 17.2263 22.5478 17.8161C23.1009 18.0227 23.64 18.2222 24.1756 18.4218C24.2771 18.1259 24.2771 18.1259 24.2578 17.8196C24.2491 17.6743 24.2438 17.5308 24.2368 17.3838C24.2158 16.9497 24.1948 16.5139 24.1721 16.0535ZM2.25282 16.057C2.24932 16.0938 2.24757 16.1113 2.24757 16.1271C2.21956 16.7222 2.19331 17.3173 2.1583 17.9124C2.1478 18.0997 2.19331 18.2554 2.24757 18.4252C2.78842 18.224 3.32577 18.0227 3.87711 17.8161C3.33102 17.2245 2.79892 16.6486 2.25282 16.057ZM21.27 5.86131C20.962 5.31345 20.6679 4.79538 20.3774 4.27201C20.2916 4.11798 20.1656 4.06022 20.0571 3.9552C19.7227 4.48205 19.3955 4.9984 19.0576 5.53224C19.7963 5.64426 20.5227 5.75103 21.27 5.86131ZM7.36899 5.53224C7.02944 4.99489 6.69863 4.4768 6.36256 3.9447C6.26105 4.04447 6.14551 4.11798 6.07375 4.23876C5.77447 4.7446 5.48914 5.26619 5.1986 5.78256C5.18812 5.80354 5.17935 5.82456 5.16185 5.86131C5.90048 5.75103 6.62513 5.64426 7.36899 5.53224ZM15.2874 26.9161C14.6276 26.5031 13.9852 26.104 13.3376 25.6997C13.3376 26.3543 13.3376 26.9984 13.3376 27.6338C13.4531 27.6338 13.5721 27.6688 13.6737 27.6268C14.2075 27.4045 14.7361 27.1629 15.2874 26.9161ZM13.0873 25.6997C12.4362 26.1057 11.7938 26.5066 11.1392 26.9161C11.1759 26.9336 11.197 26.9424 11.218 26.9529C11.7028 27.1682 12.1876 27.38 12.6725 27.6005C12.8107 27.6635 12.9455 27.6373 13.0873 27.6443C13.0873 26.9967 13.0873 26.3543 13.0873 25.6997ZM25.2503 14.4922C24.923 14.0284 24.6009 13.5716 24.2683 13.099C24.3069 13.8919 24.3436 14.6533 24.3821 15.4357C24.6797 15.1119 24.9597 14.8056 25.2503 14.4922ZM2.15305 13.1287C2.1478 13.127 2.14255 13.1217 2.1373 13.12C1.81699 13.5733 1.49668 14.0301 1.17287 14.4905C1.46517 14.8073 1.74698 15.1136 2.04103 15.4322C2.07954 14.6497 2.11629 13.8901 2.15305 13.1287ZM3.5393 8.19801C3.90862 7.54165 4.26394 6.90978 4.63327 6.25341C4.22718 6.31466 3.84736 6.37242 3.46054 6.43019C3.48854 7.02002 3.51305 7.59416 3.5393 8.19801ZM22.9608 6.43019C22.5723 6.37242 22.1925 6.31639 21.7881 6.25515C22.1592 6.91152 22.5145 7.54516 22.8821 8.19975C22.9101 7.59064 22.9363 7.01828 22.9608 6.43019ZM4.93255 23.0584C4.93606 23.0514 4.9378 23.0444 4.93954 23.0374C4.5265 22.4563 4.11341 21.8769 3.69158 21.2836C3.61807 21.7351 3.54806 22.1675 3.47629 22.6085C3.96463 22.7591 4.44947 22.9079 4.93255 23.0584ZM21.4801 23.0391C21.4836 23.0461 21.4854 23.0514 21.4888 23.0584C21.9737 22.9079 22.4585 22.7591 22.9451 22.6068C22.8716 22.1622 22.8016 21.7316 22.7298 21.2818C22.3062 21.8822 21.8931 22.4598 21.4801 23.0391ZM15.9211 26.9739C16.2571 27.1839 16.5722 27.3782 16.8873 27.5778C16.9363 27.6092 16.9608 27.6005 16.994 27.5427C17.2408 27.1052 17.4876 26.6711 17.7344 26.237C17.7466 26.216 17.7554 26.1933 17.7764 26.1512C17.155 26.4243 16.5477 26.6938 15.9211 26.9739ZM10.5021 26.9704C9.87544 26.6921 9.26811 26.4225 8.66074 26.153C8.91979 26.6361 9.1841 27.1052 9.45189 27.569C9.46062 27.5865 9.49389 27.5935 9.50788 27.5865C9.83522 27.3905 10.159 27.1857 10.5021 26.9704ZM10.8994 2.02633C10.8801 2.00883 10.8714 2.00182 10.8626 1.99657C10.4216 1.80404 9.98221 1.61325 9.54289 1.41896C9.50089 1.39971 9.48338 1.42071 9.46588 1.46447C9.37662 1.68501 9.28384 1.90381 9.19284 2.12435C9.12981 2.27663 9.06682 2.43065 8.99507 2.60219C9.63393 2.40965 10.2605 2.22062 10.8994 2.02633ZM15.5167 2.02458C16.1626 2.22061 16.7875 2.40965 17.4263 2.60394C17.4088 2.55843 17.3983 2.53043 17.3878 2.50417C17.2478 2.16636 17.106 1.83204 16.9695 1.49248C16.9415 1.42246 16.917 1.40496 16.8592 1.42946C16.4409 1.615 16.0226 1.79528 15.6043 1.97907C15.578 1.98957 15.5552 2.00357 15.5167 2.02458ZM5.60642 15.9818C5.76222 16.2636 5.91625 16.5384 6.07727 16.8254C6.32056 15.9713 6.55511 15.1398 6.79141 14.3085C6.78615 14.3049 6.78264 14.2997 6.77738 14.2962C6.38884 14.8563 5.99852 15.4164 5.60642 15.9818ZM20.8167 15.9818C20.4229 15.4147 20.0343 14.8563 19.6457 14.2962C19.6405 14.2997 19.637 14.3049 19.6317 14.3085C19.868 15.1416 20.1043 15.973 20.3459 16.8237C20.5069 16.5331 20.6592 16.2618 20.8167 15.9818ZM8.617 7.87246C8.59949 7.87072 8.59246 7.86894 8.58724 7.87072C8.34218 7.98096 8.09889 8.09125 7.85382 8.19975C7.81008 8.21903 7.8136 8.25752 7.81534 8.30478C7.83284 8.78962 7.85209 9.27272 7.86959 9.75933C7.87658 9.96062 7.88709 10.1636 7.89586 10.3649C7.90108 10.3649 7.90634 10.3667 7.91159 10.3667C8.14441 9.53877 8.37893 8.71087 8.617 7.87246ZM18.5133 10.3667C18.5186 10.3667 18.5238 10.3649 18.529 10.3649C18.5325 10.3317 18.5343 10.2967 18.5361 10.2634C18.5623 9.6053 18.5868 8.9489 18.6113 8.29079C18.6148 8.22951 18.5938 8.21378 18.5588 8.19975C18.326 8.09824 18.0932 7.99147 17.8622 7.88645C17.8464 7.87945 17.8307 7.87771 17.8062 7.87246C18.0442 8.71087 18.2787 9.53703 18.5133 10.3667ZM11.0517 21.4481C11.0604 21.4778 11.0622 21.4848 11.0657 21.4901C11.3895 22.0502 11.7133 22.6103 12.0354 23.1721C12.0634 23.2229 12.0931 23.2264 12.1334 23.2142C12.3067 23.1599 12.4782 23.1109 12.6515 23.0584C12.7267 23.0356 12.8038 23.0129 12.8983 22.9849C12.2734 22.465 11.6678 21.9627 11.0517 21.4481ZM15.3697 21.4726C15.3662 21.4691 15.3645 21.4638 15.3609 21.4586C14.7554 21.9627 14.1498 22.4668 13.5406 22.9726C13.5494 22.9831 13.5529 22.9901 13.5581 22.9919C13.8102 23.0671 14.0605 23.1459 14.3125 23.2142C14.337 23.2212 14.3773 23.1879 14.3965 23.1564C14.6889 22.6593 14.9759 22.157 15.2647 21.6564C15.298 21.5951 15.3347 21.5338 15.3697 21.4726ZM6.30305 18.4235C6.8894 18.609 7.46876 18.7928 8.04811 18.9784C8.04989 18.9696 8.05337 18.9643 8.05337 18.9556C7.45651 18.4602 6.85965 17.9614 6.25054 17.4556C6.26978 17.7916 6.28729 18.1014 6.30305 18.4235ZM20.1708 17.4538C19.5582 17.9614 18.9649 18.4585 18.3697 18.9539C18.3733 18.9626 18.375 18.9678 18.3768 18.9766C18.9561 18.7928 19.5372 18.6073 20.1183 18.4252C20.1376 18.1049 20.1516 17.7934 20.1708 17.4538ZM11.3422 7.42962C11.3125 7.41212 11.302 7.40686 11.2915 7.39987C10.7576 7.17057 10.2203 6.93953 9.68467 6.71375C9.66017 6.70324 9.61643 6.726 9.59715 6.75397C9.44664 6.9553 9.30134 7.16184 9.15435 7.36838C9.14384 7.38236 9.13507 7.40338 9.12108 7.42962C9.85972 7.42962 10.5896 7.42962 11.3422 7.42962ZM17.2951 7.42962C17.3003 7.41737 17.3091 7.40512 17.3143 7.39461C17.1445 7.17231 16.9765 6.94653 16.8032 6.72774C16.7875 6.70849 16.7472 6.71023 16.7227 6.72074C16.3201 6.89227 15.9176 7.0638 15.5132 7.23707C15.375 7.29484 15.2367 7.35609 15.0984 7.41386C15.1002 7.41737 15.1002 7.42437 15.1019 7.42788C15.8335 7.42962 16.5652 7.42962 17.2951 7.42962ZM18.6936 6.13435C18.6883 6.13262 18.6831 6.13088 18.6761 6.12736C18.3855 6.58596 18.095 7.0463 17.7974 7.51537C18.0792 7.64316 18.347 7.76395 18.6253 7.88822C18.648 7.2931 18.6708 6.71375 18.6936 6.13435ZM7.74532 6.12736C7.74006 6.13088 7.73481 6.13435 7.72955 6.13787C7.75231 6.71723 7.77333 7.29658 7.79609 7.88996C8.07787 7.76217 8.34569 7.64142 8.62399 7.51715C8.32641 7.04278 8.03587 6.58596 7.74532 6.12736ZM13.3358 24.9942C13.6281 24.4902 13.9047 24.0071 14.1918 23.5117C13.8994 23.4242 13.6211 23.3437 13.3358 23.2579C13.3358 23.8355 13.3358 24.4009 13.3358 24.9942ZM13.0873 24.989C13.0873 24.3974 13.0873 23.8303 13.0873 23.2562C12.802 23.3419 12.5237 23.4242 12.2331 23.51C12.5185 24.0088 12.7968 24.4902 13.0873 24.989ZM9.38887 6.58596C8.90577 6.37942 8.43496 6.17813 7.96585 5.97507C7.96237 5.97859 7.96063 5.98558 7.95885 5.9891C8.24766 6.44592 8.53821 6.89927 8.81477 7.33684C9.00554 7.08479 9.19284 6.8415 9.38887 6.58596ZM17.0378 6.58244C17.2321 6.83802 17.4194 7.08656 17.6084 7.33858C17.8884 6.89927 18.1772 6.44418 18.4643 5.99084C18.4608 5.98736 18.459 5.98033 18.4573 5.97685C17.9882 6.17639 17.5173 6.37942 17.0378 6.58244ZM20.9742 16.2111C20.8167 16.4946 20.6627 16.7694 20.5034 17.0565C20.9778 17.2333 21.4416 17.4066 21.9054 17.5798C21.9089 17.5728 21.9106 17.5676 21.9124 17.5623C21.6044 17.1125 21.2928 16.6644 20.9742 16.2111ZM5.91973 17.0565C5.75871 16.7677 5.60468 16.4911 5.44714 16.2111C5.12858 16.6697 4.81879 17.1178 4.50898 17.5623C4.51248 17.5693 4.51423 17.5746 4.51599 17.5816C4.98158 17.4066 5.44366 17.2333 5.91973 17.0565ZM21.8004 17.8896C21.8004 17.8826 21.8004 17.8774 21.8004 17.8704C21.3436 17.6988 20.885 17.5308 20.4194 17.3575C20.4019 17.6953 20.3844 18.0139 20.3686 18.3447C20.8517 18.1889 21.3261 18.0402 21.8004 17.8896ZM6.05625 18.343C6.03874 18.0052 6.02124 17.6866 6.00377 17.3558C5.5364 17.5291 5.07958 17.6988 4.6245 17.8686C4.6245 17.8756 4.6245 17.8809 4.6245 17.8896C5.09882 18.0402 5.57141 18.1925 6.05625 18.343ZM25.1417 15.0313C25.1382 15.0243 25.1348 15.0208 25.1312 15.0138C24.8949 15.2694 24.6586 15.5249 24.4259 15.7822C24.4084 15.8015 24.4031 15.8575 24.4049 15.8925C24.4206 16.2548 24.4399 16.6189 24.4574 16.983C24.4626 17.095 24.4679 17.2105 24.4749 17.3225C24.4801 17.3243 24.4854 17.3243 24.4924 17.326C24.7077 16.5629 24.9247 15.7962 25.1417 15.0313ZM1.93951 17.347C1.94651 17.3103 1.95176 17.2963 1.95176 17.284C1.97452 16.8114 1.99903 16.3353 2.01828 15.8627C2.02003 15.8277 1.99727 15.7787 1.97627 15.756C1.75748 15.5144 1.53694 15.2764 1.3164 15.0366C1.30939 15.0279 1.29889 15.0243 1.27614 15.0104C1.49843 15.798 1.71547 16.5629 1.93951 17.347ZM23.7782 19.8395C23.773 19.8378 23.7695 19.8325 23.7642 19.8308C23.5402 20.1458 23.3232 20.4731 23.0904 20.7707C22.9591 20.937 22.9206 21.091 22.9748 21.3256C23.0361 21.5916 23.0694 21.8699 23.1184 22.1727C23.3424 21.3746 23.5594 20.6062 23.7782 19.8395ZM3.30476 22.1622C3.31526 22.1167 3.32226 22.0887 3.32577 22.0642C3.37828 21.7386 3.42903 21.4148 3.48504 21.091C3.49555 21.0262 3.48504 20.9895 3.45354 20.9457C3.20674 20.5991 2.9582 20.2526 2.7114 19.9043C2.69565 19.8833 2.68165 19.8675 2.66415 19.8465C2.65889 19.85 2.65539 19.8552 2.65014 19.8588C2.86718 20.6202 3.08247 21.3816 3.30476 22.1622ZM9.10357 1.69901C9.10006 1.69551 9.09658 1.69026 9.09306 1.68676C8.54698 2.1436 7.99738 2.59694 7.45125 3.05378C7.85209 2.95226 8.24766 2.83323 8.63972 2.71071C8.66773 2.70196 8.701 2.6652 8.71673 2.6267C8.82528 2.37639 8.92853 2.1226 9.03182 1.8688C9.05805 1.80928 9.08081 1.75327 9.10357 1.69901ZM17.3318 1.68676C17.3283 1.69026 17.3248 1.69376 17.3213 1.69727C17.3318 1.72352 17.3406 1.75153 17.3511 1.77603C17.4666 2.05258 17.5821 2.33089 17.6941 2.60919C17.7204 2.67395 17.7536 2.70371 17.8027 2.71771C18.0074 2.77897 18.2122 2.84023 18.417 2.90325C18.599 2.95751 18.7811 3.01177 18.9649 3.06603C18.9666 3.05903 18.9684 3.05553 18.9701 3.04853C18.424 2.59694 17.8762 2.1436 17.3318 1.68676ZM22.5478 6.05386C22.5495 6.04687 22.5513 6.03984 22.5513 6.03284C22.0069 5.58127 21.4643 5.12793 20.92 4.67459C21.1318 5.08415 21.3506 5.47799 21.5728 5.86831C21.5869 5.89107 21.6131 5.90857 21.6359 5.91209C21.9404 5.96282 22.245 6.00834 22.5478 6.05386ZM5.5119 4.69561C5.50665 4.68858 5.50317 4.68336 5.49965 4.67809C4.95531 5.12967 4.41272 5.58475 3.86661 6.03636C4.17642 6.01008 4.48098 5.96282 4.78378 5.91557C4.80654 5.91209 4.83455 5.89458 4.8468 5.87182C5.07258 5.47799 5.29137 5.08767 5.5119 4.69561ZM2.59063 10.568C2.74641 10.8498 2.89518 11.1158 3.02996 11.3556C3.15599 11.1999 3.28026 11.0423 3.40453 10.8865C3.41153 10.876 3.42028 10.855 3.41853 10.841C3.41153 10.6345 3.40278 10.4279 3.39403 10.2074C3.12098 10.3282 2.86018 10.4455 2.59063 10.568ZM23.3949 11.3556C23.5297 11.1141 23.6785 10.8445 23.8343 10.568C23.563 10.4455 23.3004 10.3282 23.0309 10.2074C23.0221 10.4279 23.0116 10.6275 23.0064 10.8305C23.0064 10.8498 23.0116 10.8743 23.0221 10.8865C23.1446 11.0441 23.2689 11.1981 23.3949 11.3556ZM13.7524 2.46391C13.5634 2.21362 13.3814 1.97557 13.2168 1.76028C13.0435 1.98607 12.8633 2.22061 12.6742 2.46741C12.8545 2.54618 13.0243 2.62144 13.1958 2.69496C13.2098 2.70196 13.2256 2.69496 13.2396 2.69146C13.4041 2.61444 13.5704 2.54268 13.7524 2.46391ZM19.833 23.8915C19.644 23.9493 19.4637 24.0036 19.2852 24.0596C19.2677 24.0666 19.2467 24.0806 19.2344 24.1016C19.1417 24.2626 19.0507 24.4219 18.9526 24.5969C19.2344 24.6809 19.5075 24.7615 19.784 24.8455C19.7998 24.5234 19.8155 24.2171 19.833 23.8915ZM7.47227 24.5987C7.3725 24.4219 7.28324 24.2626 7.19046 24.1068C7.17999 24.0876 7.16248 24.0718 7.14846 24.0666C6.96468 24.0088 6.7809 23.9528 6.59012 23.8933C6.60763 24.2153 6.62336 24.5269 6.64086 24.8455C6.91916 24.7632 7.18872 24.6809 7.47227 24.5987ZM10.0102 27.6198C10.0102 27.6268 10.012 27.6338 10.012 27.6408C10.6613 27.6408 11.3142 27.6408 11.9759 27.6408C11.9601 27.6268 11.9566 27.618 11.9496 27.6163C11.5855 27.4535 11.2197 27.2907 10.8539 27.1314C10.8364 27.1227 10.8136 27.1227 10.7961 27.1332C10.5318 27.2942 10.271 27.457 10.0102 27.6198ZM16.4129 27.639C16.4129 27.6338 16.4147 27.6268 16.4147 27.618C16.1539 27.4552 15.893 27.2907 15.6288 27.1297C15.606 27.1157 15.5693 27.1262 15.543 27.1384C15.2787 27.2522 15.0144 27.3712 14.7501 27.4902C14.6521 27.534 14.5558 27.5778 14.4578 27.6215C14.4595 27.6285 14.4595 27.6338 14.4613 27.6373C15.1107 27.639 15.7618 27.639 16.4129 27.639ZM1.42317 13.6818C1.44067 13.6678 1.44942 13.6626 1.45292 13.6573C1.68572 13.3282 1.91851 12.9992 2.1478 12.6684C2.1688 12.6369 2.1793 12.5826 2.18105 12.5371C2.19506 12.3271 2.20381 12.1135 2.21256 11.9035C2.21957 11.7355 2.22656 11.5639 2.23357 11.3959C2.22831 11.3941 2.22306 11.3941 2.21606 11.3924C1.95526 12.1485 1.69272 12.9047 1.42317 13.6818ZM24.9807 13.6713C24.986 13.6678 24.9895 13.6643 24.993 13.6608C24.7287 12.9029 24.4661 12.1433 24.2018 11.3854C24.2036 11.7879 24.2211 12.1835 24.2421 12.5774C24.2438 12.6071 24.2543 12.6404 24.2683 12.6614C24.5064 12.9974 24.7444 13.3353 24.9807 13.6713ZM23.1779 7.2511C23.1726 7.2511 23.1674 7.2511 23.1621 7.25284C23.1429 7.67991 23.1219 8.10875 23.1061 8.53582C23.1044 8.57083 23.1219 8.61461 23.1376 8.6461C23.3127 8.96115 23.4877 9.27272 23.6645 9.58602C23.6732 9.60353 23.682 9.61929 23.6925 9.6368C23.6977 9.63328 23.6995 9.62806 23.7047 9.62281C23.5297 8.8334 23.3529 8.04225 23.1779 7.2511ZM3.261 7.25635C3.25575 7.25458 3.2505 7.25284 3.24525 7.24932C3.06847 8.04047 2.89343 8.8334 2.7149 9.63328C2.72716 9.62629 2.73241 9.62455 2.73416 9.62103C2.92319 9.28848 3.11222 8.95242 3.29951 8.61635C3.31176 8.59359 3.31701 8.55858 3.31701 8.53057C3.30126 8.10875 3.282 7.68168 3.261 7.25635ZM19.1539 25.5526C19.1311 25.5544 19.1241 25.5526 19.1154 25.5544C18.8108 25.6891 18.5045 25.8239 18.2017 25.9622C18.1755 25.9744 18.151 26.006 18.1335 26.0375C17.9549 26.3508 17.7747 26.6641 17.5961 26.9809C17.5839 27.0037 17.5734 27.0264 17.5611 27.0492C17.5646 27.0527 17.5663 27.0562 17.5699 27.0596C18.095 26.5591 18.6201 26.0602 19.1539 25.5526ZM8.85329 27.0579C8.85677 27.0544 8.85851 27.0474 8.86376 27.0439C8.73949 26.8234 8.60297 26.6151 8.49095 26.3823C8.34743 26.0777 8.16191 25.8799 7.89934 25.8204C7.85908 25.8117 7.82407 25.7872 7.78384 25.7679C7.62105 25.6979 7.45829 25.6244 7.29549 25.5526C7.29197 25.5596 7.29023 25.5649 7.28849 25.5736C7.81008 26.0672 8.33167 26.5626 8.85329 27.0579ZM22.2205 23.1774C22.2205 23.1704 22.2187 23.1669 22.2187 23.1599C22.2117 23.1599 22.203 23.1581 22.196 23.1599C21.8686 23.2614 21.5413 23.3629 21.214 23.4662C21.1825 23.4767 21.151 23.5065 21.1265 23.5362C20.9585 23.769 20.7905 24.0071 20.6224 24.2434C20.5927 24.2854 20.5559 24.3204 20.5209 24.3571C20.5279 24.3676 20.5367 24.3799 20.5419 24.3904C21.102 23.9878 21.6621 23.5835 22.2205 23.1774ZM5.87772 24.3921C5.88298 24.3851 5.88472 24.3799 5.88997 24.3729C5.68343 24.0841 5.47689 23.7918 5.27035 23.5047C5.25285 23.482 5.22661 23.4732 5.20385 23.4645C4.98158 23.3962 4.76102 23.3262 4.53875 23.2579C4.42847 23.2247 4.31645 23.1896 4.20618 23.1564C4.20442 23.1634 4.20267 23.1704 4.20092 23.1774C4.76102 23.5817 5.31939 23.9878 5.87772 24.3921ZM16.0436 1.45922C16.0436 1.45222 16.0436 1.44697 16.0436 1.43822C15.403 1.48547 14.7623 1.53273 14.1217 1.57999C14.1392 1.601 14.1585 1.6115 14.1777 1.615C14.3895 1.67976 14.6048 1.72877 14.8131 1.81103C14.9864 1.87755 15.1439 1.86705 15.3119 1.78128C15.5518 1.66401 15.7985 1.56774 16.0436 1.45922ZM12.3067 1.59925C12.3067 1.59225 12.3049 1.58874 12.3049 1.58174C11.6643 1.53448 11.0237 1.48723 10.3585 1.43822C10.3866 1.45922 10.3953 1.46797 10.4041 1.47147C10.7086 1.6045 11.0149 1.73752 11.3195 1.8688C11.344 1.8793 11.3737 1.8793 11.4 1.87055C11.5785 1.81804 11.7553 1.76553 11.9338 1.71302C12.0563 1.67626 12.1806 1.63775 12.3067 1.59925ZM23.528 11.6269C23.6837 11.8212 23.8395 12.012 23.9813 12.1888C23.9638 11.8054 23.941 11.3801 23.9218 10.9548C23.9165 10.9531 23.9113 10.9513 23.9043 10.9478C23.7835 11.1683 23.661 11.3889 23.528 11.6269ZM2.51887 10.9513C2.51362 10.9531 2.50486 10.9548 2.49961 10.9583C2.48036 11.3819 2.45936 11.8037 2.4401 12.1835C2.58188 12.0085 2.73591 11.816 2.89168 11.6234C2.76391 11.3889 2.63964 11.1701 2.51887 10.9513ZM23.0799 9.07843C23.0676 9.35499 23.0571 9.60005 23.0501 9.84334C23.0501 9.86084 23.0676 9.88534 23.0781 9.8906C23.2759 9.9816 23.4737 10.0726 23.6942 10.1706C23.4859 9.79782 23.2899 9.45128 23.0799 9.07843ZM3.34327 9.07843C3.13323 9.45128 2.93719 9.79782 2.72891 10.1706C2.94945 10.0709 3.14723 9.98338 3.34327 9.8906C3.35727 9.8836 3.37302 9.85033 3.37302 9.83283C3.36602 9.59128 3.35377 9.35151 3.34327 9.07843ZM20.0361 24.6092C20.2776 24.2696 20.5034 23.9528 20.7292 23.636C20.5174 23.6815 20.3161 23.7428 20.1148 23.8093C20.0991 23.8128 20.0781 23.8408 20.0763 23.86C20.0623 24.0963 20.0501 24.3361 20.0361 24.6092ZM6.38358 24.5234C6.37307 24.3274 6.36082 24.0876 6.34683 23.8478C6.34506 23.8303 6.32581 23.811 6.31182 23.8058C6.10876 23.741 5.904 23.678 5.70094 23.6167C5.69568 23.6255 5.69394 23.6307 5.68869 23.6395C5.92324 23.9406 6.15954 24.2398 6.38358 24.5234ZM19.413 25.0853C19.413 25.0765 19.4112 25.0678 19.4112 25.0625C19.2152 25.0048 19.0191 24.9452 18.8231 24.8893C18.8091 24.8857 18.7846 24.8927 18.7776 24.9085C18.6638 25.1045 18.5518 25.3023 18.4398 25.5001C18.4433 25.5071 18.445 25.5106 18.4485 25.5176C18.7688 25.3706 19.0909 25.2288 19.413 25.0853ZM14.5996 2.09109C14.5996 2.08409 14.5996 2.07884 14.5996 2.07184C14.2617 1.97032 13.9275 1.86705 13.5896 1.76553C13.5844 1.77603 13.5774 1.78478 13.5721 1.79528C13.7069 1.97207 13.8417 2.14885 13.9765 2.32389C13.9887 2.33789 14.015 2.34489 14.029 2.33789C14.2215 2.25912 14.4106 2.17511 14.5996 2.09109ZM7.99912 25.5246C7.92384 25.3916 7.86086 25.2813 7.79783 25.1728C7.74358 25.0765 7.6998 24.9365 7.62982 24.9015C7.55454 24.8665 7.45477 24.9313 7.36725 24.9558C7.24823 24.989 7.13095 25.0258 7.01194 25.0643C7.01194 25.073 7.01194 25.0783 7.01194 25.087C7.33401 25.2288 7.65779 25.3723 7.99912 25.5246ZM11.8236 2.07534C11.8236 2.08234 11.8236 2.08759 11.8236 2.09459C12.0126 2.17861 12.2016 2.26262 12.3924 2.34314C12.4082 2.35014 12.4344 2.34314 12.4449 2.32914C12.5797 2.1541 12.7145 1.97732 12.8493 1.80054C12.844 1.79178 12.8388 1.78128 12.8318 1.77428C12.4957 1.87055 12.1596 1.97207 11.8236 2.07534ZM22.8891 12.229C22.8943 12.2308 22.8978 12.236 22.9031 12.2378C23.0151 12.0383 23.1271 11.8352 23.2427 11.6287C23.1481 11.5096 23.0606 11.3994 22.9696 11.2821C22.9416 11.5954 22.9153 11.9123 22.8891 12.229ZM3.52005 12.236C3.5253 12.2343 3.5288 12.229 3.5358 12.2273C3.5078 11.9105 3.48329 11.5937 3.45704 11.2926C3.36602 11.4046 3.27676 11.5149 3.18399 11.6304C3.29776 11.837 3.40978 12.0365 3.52005 12.236ZM6.55859 22.8921C6.55334 22.8938 6.5446 22.8956 6.53935 22.8991C6.54986 23.1074 6.56211 23.3157 6.57436 23.524C6.5761 23.5397 6.58661 23.566 6.59712 23.5695C6.71439 23.6098 6.83167 23.6448 6.96993 23.6868C6.8229 23.405 6.69163 23.1476 6.55859 22.8921ZM19.8838 22.9009C19.8785 22.8991 19.8698 22.8974 19.8645 22.8938C19.7315 23.1529 19.5985 23.4085 19.455 23.6902C19.588 23.6482 19.7018 23.615 19.8138 23.5782C19.8295 23.5747 19.8488 23.5467 19.8505 23.5292C19.8628 23.3174 19.8733 23.1091 19.8838 22.9009ZM3.64257 10.561C3.82636 10.3212 3.99614 10.1024 4.16417 9.88183C3.98739 9.93786 3.82111 10.0131 3.65307 10.0919C3.63907 10.0989 3.62507 10.1374 3.62507 10.1602C3.63032 10.2844 3.63732 10.4104 3.64257 10.561ZM22.7788 10.561C22.7841 10.4157 22.7876 10.2949 22.7963 10.1741C22.7998 10.1182 22.7823 10.0954 22.7456 10.0779C22.6108 10.0201 22.476 9.9571 22.3412 9.89585C22.315 9.8836 22.2887 9.87483 22.2625 9.86258C22.2607 9.86958 22.259 9.87483 22.2572 9.88183C22.427 10.1024 22.595 10.3212 22.7788 10.561ZM12.8597 2.86999C12.732 2.81398 12.6252 2.76497 12.5185 2.72121C12.5079 2.71771 12.4887 2.72471 12.4782 2.73871C12.3609 2.88924 12.2454 3.04152 12.1281 3.19205C12.1334 3.20255 12.1404 3.21306 12.1456 3.22356C12.3767 3.11154 12.6059 2.99776 12.8597 2.86999ZM14.2758 3.22531C14.281 3.21306 14.288 3.20255 14.2933 3.1903C14.1795 3.04153 14.0675 2.89449 13.9537 2.74922C13.9414 2.73171 13.9152 2.71946 13.9012 2.72646C13.7962 2.76847 13.6912 2.81573 13.5651 2.87174C13.8154 2.99777 14.0447 3.10979 14.2758 3.22531ZM18.9159 24.1594C18.6568 24.2259 18.4153 24.2871 18.1737 24.3484C18.34 24.4166 18.5063 24.4674 18.6726 24.5129C18.6901 24.5164 18.7163 24.5024 18.7286 24.4832C18.7898 24.3834 18.8458 24.2819 18.9159 24.1594ZM7.50728 24.1594C7.5773 24.2819 7.63681 24.3887 7.69806 24.4919C7.70683 24.5059 7.72955 24.5164 7.74184 24.5147C7.91159 24.4674 8.07964 24.4166 8.2494 24.3659C8.2494 24.3589 8.2494 24.3536 8.24766 24.3467C8.00789 24.2854 7.76634 24.2259 7.50728 24.1594ZM18.7933 12.271C18.7653 12.1713 18.7408 12.0838 18.7163 11.998C18.7111 11.9997 18.7041 12.0015 18.6988 12.0015C18.6988 12.1013 18.6988 12.201 18.6988 12.3061C18.7286 12.2938 18.7566 12.2833 18.7933 12.271ZM7.72433 12.3061C7.72433 12.1958 7.72433 12.0995 7.72433 12.0015C7.71908 11.9997 7.71382 11.9997 7.70683 11.998C7.68055 12.0873 7.65606 12.1765 7.62982 12.271C7.6683 12.2851 7.69454 12.2938 7.72433 12.3061ZM7.54755 12.5599C7.51953 12.6544 7.49677 12.7384 7.47227 12.8242C7.47753 12.8277 7.47927 12.8312 7.48452 12.8347C7.53704 12.7594 7.58778 12.6841 7.64732 12.5984C7.61054 12.5861 7.5843 12.5756 7.54755 12.5599ZM18.7758 12.5984C18.8371 12.6859 18.8879 12.7611 18.9404 12.8364C18.9439 12.8347 18.9474 12.8294 18.9509 12.8277C18.9264 12.7402 18.9001 12.6526 18.8756 12.5634C18.8406 12.5756 18.8161 12.5826 18.7758 12.5984ZM10.0243 20.2123C10.0295 20.2053 10.0312 20.2018 10.0365 20.1948C9.99272 20.1178 9.94724 20.0425 9.8982 19.9568C9.87722 19.9935 9.85972 20.0216 9.84047 20.0548C9.90697 20.1143 9.96474 20.1633 10.0243 20.2123ZM16.5249 19.9603C16.4742 20.0461 16.4304 20.1231 16.3867 20.1983C16.3902 20.2053 16.3936 20.2088 16.3972 20.2159C16.4601 20.1633 16.5197 20.1143 16.5949 20.0531C16.5652 20.0128 16.5477 19.99 16.5249 19.9603ZM9.68992 19.815C9.62516 19.7957 9.56739 19.7782 9.49915 19.7573C9.61291 19.9008 9.64266 19.9078 9.68992 19.815ZM16.931 19.7537C16.8557 19.7765 16.798 19.7957 16.7384 19.815C16.7787 19.913 16.7962 19.906 16.931 19.7537ZM13.3393 7.84618C13.3901 7.82346 13.4409 7.80244 13.5109 7.77095C13.3464 7.73768 13.3289 7.74467 13.3393 7.84618ZM13.0873 7.84796C13.089 7.74819 13.047 7.73068 12.9245 7.77794C12.984 7.80244 13.0331 7.82346 13.0873 7.84796Z" fill="#FFA700"/>
<path id="Vector_2" d="M33.7289 8.35906H31.5112V6.6875H37.002C37.345 6.6875 37.6182 6.96931 37.6182 7.30364V8.35906H35.4004V13.7256H33.7289V8.35906Z" fill="white"/>
<path id="Vector_3" d="M45.3159 10.2074C45.3159 12.1521 43.7408 13.7274 41.7961 13.7274C39.8514 13.7274 38.2764 12.1521 38.2764 10.2074C38.2764 8.26281 39.8514 6.6875 41.7961 6.6875C43.7408 6.6875 45.3159 8.26281 45.3159 10.2074ZM43.6357 10.2074C43.6357 9.19573 42.8076 8.36783 41.7961 8.36783C40.7756 8.36783 39.9565 9.19573 39.9565 10.2074C39.9565 11.2279 40.7756 12.047 41.7961 12.047C42.8076 12.047 43.6357 11.2279 43.6357 10.2074Z" fill="white"/>
<path id="Vector_4" d="M46.415 6.6875H47.9205C47.9818 6.6875 48.043 6.71378 48.0883 6.76629L49.9892 8.9752L51.89 6.76629C51.9339 6.71378 51.9951 6.6875 52.0669 6.6875H53.5615V13.7256H51.89V9.327L51.0989 10.2599L50.4567 10.9986C50.2099 11.2804 49.7706 11.2804 49.5238 10.9986L48.0901 9.327V13.7256H46.4187V6.6875H46.415Z" fill="white"/>
<path id="Vector_5" d="M57.9568 6.6875H59.0208C59.364 6.6875 59.6369 6.96054 59.6369 7.30364V9.37078H62.3641V6.6875H63.4282C63.7623 6.6875 64.0443 6.96054 64.0443 7.30364V13.7274H62.3641V11.0441H59.6369V13.7274H57.9568V6.6875Z" fill="white"/>
<path id="Vector_6" d="M72.1815 10.2074C72.1815 12.1521 70.6061 13.7274 68.6614 13.7274C66.717 13.7274 65.1416 12.1521 65.1416 10.2074C65.1416 8.26281 66.717 6.6875 68.6614 6.6875C70.6061 6.6875 72.1815 8.26281 72.1815 10.2074ZM70.501 10.2074C70.501 9.19573 69.6732 8.36783 68.6614 8.36783C67.6412 8.36783 66.8221 9.19573 66.8221 10.2074C66.8221 11.2279 67.6412 12.047 68.6614 12.047C69.675 12.047 70.501 11.2279 70.501 10.2074Z" fill="white"/>
<path id="Vector_7" d="M73.2808 10.7633C73.2808 10.429 73.5624 10.1472 73.8969 10.1472H75.9028C76.4138 10.1472 76.8179 9.73408 76.7918 9.223C76.7744 8.7399 76.3613 8.36883 75.8851 8.36883H73.2808V6.69727H75.8764C77.2836 6.69727 78.481 7.84025 78.472 9.24924C78.472 10.2697 77.8736 11.1414 77.002 11.5457L79.1845 13.7284H76.8618L74.9522 11.8188V13.7284H73.2808V10.7633Z" fill="white"/>
<path id="Vector_8" d="M80.0635 6.6875H81.383C81.5599 6.6875 81.7349 6.76625 81.8487 6.8993L85.5348 11.1841V6.6875H86.5902C86.9334 6.6875 87.2063 6.96054 87.2063 7.30364V13.7274H85.5174L81.7349 9.32878V13.7274H80.0635V6.6875Z" fill="white"/>
<path id="Vector_9" d="M32.8746 22.407C32.8414 22.3965 32.8011 22.3842 32.7679 22.3684C32.7346 22.3579 32.7014 22.3405 32.6663 22.33L32.5929 22.2914L32.4528 22.2179C32.4301 22.2004 32.402 22.1899 32.3811 22.1724C32.3355 22.1444 32.2918 22.1112 32.2515 22.0832C32.1623 22.0167 32.0835 21.9431 32.0047 21.8696C31.6022 21.4618 31.3501 20.9017 31.3501 20.2855C31.3501 19.6642 31.6022 19.1041 32.0047 18.7015C32.0835 18.6228 32.1623 18.5562 32.2515 18.4897C32.29 18.4564 32.3355 18.4285 32.3811 18.4004C32.4756 18.3392 32.5718 18.2884 32.6663 18.2429C32.6996 18.2254 32.7329 18.2149 32.7679 18.1974L32.8746 18.1642C33.0987 18.0854 33.3385 18.0469 33.5905 18.0469C33.8426 18.0469 34.0823 18.0854 34.3064 18.1642L34.4132 18.1974C34.4464 18.2149 34.4797 18.2254 34.5147 18.2429C34.6162 18.2884 34.7107 18.3374 34.8 18.4004C34.8455 18.4285 34.8893 18.4564 34.9348 18.4897C35.0188 18.5562 35.1028 18.6245 35.1763 18.7015L34.4254 19.4524C34.3694 19.4017 34.3134 19.3509 34.2521 19.3124H34.2469C34.2364 19.3019 34.2189 19.2896 34.2014 19.2791L34.1681 19.2616L34.1226 19.2336C34.0894 19.2161 34.0614 19.2056 34.0281 19.1951L33.9826 19.1776C33.9721 19.1724 33.9598 19.1671 33.9493 19.1671C33.9388 19.1618 33.9318 19.1618 33.9266 19.1566C33.9161 19.1566 33.8986 19.1513 33.8881 19.1461C33.7936 19.1233 33.692 19.1128 33.5923 19.1128C33.4907 19.1128 33.391 19.1233 33.3017 19.1461C33.2842 19.1513 33.2737 19.1566 33.2562 19.1566L33.2387 19.1671C33.2282 19.1671 33.2107 19.1724 33.2002 19.1776L33.1547 19.1951C33.1214 19.2056 33.0934 19.2178 33.0654 19.2336L33.0269 19.2511L33.0094 19.2686L32.9761 19.2861C32.9657 19.2914 32.9482 19.3036 32.9377 19.3141L32.8869 19.3474C32.8869 19.3474 32.8816 19.3474 32.8816 19.3526H32.8764V19.3579C32.8536 19.3684 32.8379 19.3859 32.8204 19.3964V19.4017C32.5736 19.6152 32.4178 19.9337 32.4178 20.2855C32.4178 20.6391 32.5753 20.9524 32.8204 21.1695C32.8379 21.18 32.8536 21.1975 32.8764 21.215L32.8869 21.2255L32.9377 21.2587C32.9761 21.2868 33.0217 21.3095 33.0672 21.3323C33.0952 21.3498 33.1232 21.3655 33.1564 21.3778C33.202 21.3953 33.251 21.411 33.3017 21.4233C33.391 21.446 33.4925 21.4618 33.5923 21.4618C33.6938 21.4618 33.7936 21.4443 33.8881 21.4233C33.9336 21.4128 33.9826 21.3953 34.0281 21.3778C34.0614 21.3673 34.0894 21.3498 34.1226 21.3323C34.1681 21.3095 34.2066 21.2868 34.2451 21.2587H34.2504L34.3397 21.1922L34.4237 21.1135V20.2908H35.0958C35.3146 20.2908 35.4879 20.4641 35.4879 20.6776V21.103C35.4879 21.3883 35.3811 21.6631 35.1798 21.8644L35.1745 21.8696C35.101 21.9431 35.017 22.0149 34.933 22.0832L34.7982 22.1724L34.7317 22.2109C34.6862 22.2389 34.6372 22.2669 34.5865 22.2897C34.5637 22.3072 34.5357 22.3177 34.5147 22.3282L34.4254 22.3615V22.3667H34.4149C34.3817 22.3842 34.3484 22.3947 34.3082 22.4052C34.0841 22.484 33.8443 22.5225 33.5923 22.5225C33.3385 22.5243 33.0987 22.484 32.8746 22.407Z" fill="#FFA700"/>
<path id="Vector_10" d="M37.739 18.2975L37.744 18.2923C37.8002 18.1523 37.9401 18.0508 38.1028 18.0508C38.2659 18.0508 38.3989 18.1453 38.4616 18.28L40.4433 22.5176L40.4328 22.5229H39.335L38.9045 21.5987H37.3084L36.8777 22.5229H35.7698L37.739 18.2975ZM38.4337 20.5992L38.1083 19.8886L37.7774 20.5992H38.4337Z" fill="#FFA700"/>
<path id="Vector_11" d="M41.0029 18.0449H41.9604C41.9988 18.0449 42.0391 18.0624 42.067 18.0957L43.2767 19.5012L44.4861 18.0957C44.514 18.0624 44.5524 18.0449 44.5981 18.0449H45.5501V22.524H44.4861V19.7252L43.982 20.3186L43.5743 20.7894C43.4166 20.968 43.1365 20.968 42.9806 20.7894L42.0688 19.7252V22.524H41.0047V18.0449H41.0029Z" fill="#FFA700"/>
<path id="Vector_12" d="M46.3889 18.0449H47.0663C47.2779 18.0449 47.4584 18.2182 47.4584 18.437V22.524H46.3889V18.0449Z" fill="#FFA700"/>
<path id="Vector_13" d="M48.2966 18.0449H49.1367C49.2487 18.0449 49.3607 18.0957 49.4342 18.1797L51.7798 20.9067V18.0467H52.4521C52.6706 18.0467 52.8438 18.2199 52.8438 18.4387V22.5258H51.7693L49.3625 19.727V22.5258H48.2984V18.0449H48.2966Z" fill="#FFA700"/>
<path id="Vector_14" d="M55.0653 22.407C55.032 22.3965 54.9936 22.3842 54.9584 22.3684C54.9254 22.3579 54.8921 22.3405 54.8569 22.33L54.7852 22.2914L54.6453 22.2179C54.6225 22.2004 54.5946 22.1899 54.5717 22.1724C54.5264 22.1444 54.4826 22.1112 54.4423 22.0832C54.3528 22.0167 54.2742 21.9431 54.1955 21.8696C53.7929 21.4618 53.541 20.9017 53.541 20.2855C53.541 19.6642 53.7929 19.1041 54.1955 18.7015C54.2742 18.6228 54.3528 18.5562 54.4423 18.4897C54.4808 18.4564 54.5264 18.4285 54.5717 18.4004C54.6663 18.3392 54.7627 18.2884 54.8569 18.2429C54.8903 18.2254 54.9236 18.2149 54.9584 18.1974L55.0653 18.1642C55.2893 18.0854 55.5292 18.0469 55.7811 18.0469C56.0333 18.0469 56.2733 18.0854 56.4972 18.1642L56.6038 18.1974C56.6371 18.2149 56.6705 18.2254 56.7053 18.2429C56.8071 18.2884 56.9013 18.3374 56.9908 18.4004C57.0361 18.4285 57.08 18.4564 57.1257 18.4897C57.2094 18.5562 57.2935 18.6245 57.3652 18.7015L56.6143 19.4524C56.5585 19.4017 56.5023 19.3509 56.4411 19.3124H56.436C56.4255 19.3019 56.4077 19.2896 56.3903 19.2791L56.357 19.2616L56.3117 19.2336C56.2783 19.2161 56.2504 19.2056 56.2171 19.1951L56.1714 19.1776C56.1609 19.1724 56.149 19.1671 56.1384 19.1671C56.1279 19.1618 56.1207 19.1618 56.1156 19.1566C56.1051 19.1566 56.0877 19.1513 56.0772 19.1461C55.9826 19.1233 55.8811 19.1128 55.7796 19.1128C55.6778 19.1128 55.5781 19.1233 55.489 19.1461C55.4716 19.1513 55.4611 19.1566 55.4433 19.1566L55.4259 19.1671C55.4154 19.1671 55.398 19.1724 55.3875 19.1776L55.3419 19.1951C55.3085 19.2056 55.2806 19.2178 55.2527 19.2336L55.2143 19.2511L55.1965 19.2686L55.1635 19.2861C55.153 19.2914 55.1353 19.3036 55.1248 19.3141L55.074 19.3474C55.074 19.3474 55.069 19.3474 55.069 19.3526H55.0635V19.3579C55.0407 19.3684 55.0251 19.3859 55.0077 19.3964V19.4017C54.7609 19.6152 54.6051 19.9337 54.6051 20.2855C54.6051 20.6391 54.7627 20.9524 55.0077 21.1695C55.0251 21.18 55.0407 21.1975 55.0635 21.215L55.074 21.2255L55.1248 21.2587C55.1635 21.2868 55.2088 21.3095 55.2545 21.3323C55.2824 21.3498 55.3103 21.3655 55.3437 21.3778C55.3893 21.3953 55.4383 21.411 55.489 21.4233C55.5781 21.446 55.6796 21.4618 55.7796 21.4618C55.8793 21.4618 55.9808 21.4443 56.0772 21.4233C56.1225 21.4128 56.1714 21.3953 56.2171 21.3778C56.2504 21.3673 56.2783 21.3498 56.3117 21.3323C56.357 21.3095 56.3958 21.2868 56.4342 21.2587H56.4392L56.5288 21.1922L56.6125 21.1135V20.2908H57.2848C57.5037 20.2908 57.6769 20.4641 57.6769 20.6776V21.103C57.6769 21.3883 57.57 21.6631 57.3688 21.8644L57.3634 21.8696C57.2916 21.9431 57.2079 22.0149 57.1238 22.0832L56.989 22.1724L56.9223 22.2109C56.877 22.2389 56.8281 22.2669 56.777 22.2897C56.7545 22.3072 56.7263 22.3177 56.7038 22.3282L56.6143 22.3615V22.3667H56.6038C56.5708 22.3842 56.5375 22.3947 56.4972 22.4052C56.2733 22.484 56.0333 22.5225 55.7811 22.5225C55.531 22.5243 55.2893 22.484 55.0653 22.407Z" fill="#FFA700"/>
</g>
</g>
</svg>
