<svg width="81" height="41" viewBox="0 0 81 41" fill="none" xmlns="http://www.w3.org/2000/svg">
<g id="vivo">
<path id="Vector" d="M43.1333 12.5508L41.7435 15.2875L35.3245 27.8676L28.9054 15.2875L27.5156 12.5508H30.5818L31.9717 15.2875L35.3101 21.8498L38.6486 15.2875L40.0527 12.5508H43.1333Z" fill="white"/>
<path id="Vector_2" d="M46.5292 12.5508H43.7925V27.8676H46.5292V12.5508Z" fill="white"/>
<path id="Vector_3" d="M62.8203 12.5508L61.4308 15.2875L55.0113 27.8676L48.6069 15.2875L47.217 12.5508H50.2833L51.6873 15.2875L55.0258 21.8498L58.3643 15.2875L59.7683 12.5508H62.8203Z" fill="white"/>
<path id="Vector_4" d="M21.2543 19.2124C21.2543 19.8429 21.6698 20.1438 22.1713 19.8715C22.6728 19.5993 23.0883 18.8686 23.074 18.2381C23.074 17.6077 22.6585 17.3068 22.1426 17.579C21.6555 17.8513 21.24 18.582 21.2543 19.2124ZM21.2256 24.4136C21.2256 25.044 21.6412 25.3449 22.1426 25.0727C22.6441 24.8004 23.0596 24.0697 23.0453 23.4393C23.0453 22.8088 22.6298 22.5079 22.114 22.7802C21.6268 23.0381 21.2113 23.7831 21.2256 24.4136ZM19.2913 22.8088C19.2913 23.4393 19.7068 23.7401 20.2083 23.4679C20.7098 23.1957 21.1253 22.4649 21.111 21.8345C21.111 21.2041 20.6955 20.9032 20.1797 21.1754C19.6639 21.4476 19.277 22.1784 19.2913 22.8088ZM17.2567 21.2757C17.2567 21.9061 17.6722 22.207 18.1737 21.9348C18.6752 21.6626 19.0907 20.9318 19.0764 20.3014C19.0764 19.6709 18.6609 19.3701 18.1594 19.6423C17.6579 19.9145 17.2567 20.6453 17.2567 21.2757ZM17.2281 26.4768C17.2281 27.1073 17.6436 27.4082 18.1451 27.1359C18.6466 26.8637 19.0621 26.1329 19.0478 25.5025C19.0478 24.8721 18.6322 24.5712 18.1307 24.8434C17.6293 25.1156 17.2281 25.8464 17.2281 26.4768ZM17.2281 26.4768C17.2281 27.1073 17.6436 27.4082 18.1451 27.1359C18.6466 26.8637 19.0621 26.1329 19.0478 25.5025C19.0478 24.8721 18.6322 24.5712 18.1307 24.8434C17.6293 25.1156 17.2281 25.8464 17.2281 26.4768ZM17.2567 21.2757C17.2567 21.9061 17.6722 22.207 18.1737 21.9348C18.6752 21.6626 19.0907 20.9318 19.0764 20.3014C19.0764 19.6709 18.6609 19.3701 18.1594 19.6423C17.6579 19.9145 17.2567 20.6453 17.2567 21.2757ZM19.2913 22.8088C19.2913 23.4393 19.7068 23.7401 20.2083 23.4679C20.7098 23.1957 21.1253 22.4649 21.111 21.8345C21.111 21.2041 20.6955 20.9032 20.1797 21.1754C19.6639 21.4476 19.277 22.1784 19.2913 22.8088ZM21.2256 24.4136C21.2256 25.044 21.6412 25.3449 22.1426 25.0727C22.6441 24.8004 23.0596 24.0697 23.0453 23.4393C23.0453 22.8088 22.6298 22.5079 22.114 22.7802C21.6268 23.0381 21.2113 23.7831 21.2256 24.4136ZM21.2543 19.2124C21.2543 19.8429 21.6698 20.1438 22.1713 19.8715C22.6728 19.5993 23.0883 18.8686 23.074 18.2381C23.074 17.6077 22.6585 17.3068 22.1426 17.579C21.6555 17.8513 21.24 18.582 21.2543 19.2124ZM21.2543 19.2124C21.2543 19.8429 21.6698 20.1438 22.1713 19.8715C22.6728 19.5993 23.0883 18.8686 23.074 18.2381C23.074 17.6077 22.6585 17.3068 22.1426 17.579C21.6555 17.8513 21.24 18.582 21.2543 19.2124ZM21.2256 24.4136C21.2256 25.044 21.6412 25.3449 22.1426 25.0727C22.6441 24.8004 23.0596 24.0697 23.0453 23.4393C23.0453 22.8088 22.6298 22.5079 22.114 22.7802C21.6268 23.0381 21.2113 23.7831 21.2256 24.4136ZM19.2913 22.8088C19.2913 23.4393 19.7068 23.7401 20.2083 23.4679C20.7098 23.1957 21.1253 22.4649 21.111 21.8345C21.111 21.2041 20.6955 20.9032 20.1797 21.1754C19.6639 21.4476 19.277 22.1784 19.2913 22.8088ZM17.2567 21.2757C17.2567 21.9061 17.6722 22.207 18.1737 21.9348C18.6752 21.6626 19.0907 20.9318 19.0764 20.3014C19.0764 19.6709 18.6609 19.3701 18.1594 19.6423C17.6579 19.9145 17.2567 20.6453 17.2567 21.2757ZM17.2281 26.4768C17.2281 27.1073 17.6436 27.4082 18.1451 27.1359C18.6466 26.8637 19.0621 26.1329 19.0478 25.5025C19.0478 24.8721 18.6322 24.5712 18.1307 24.8434C17.6293 25.1156 17.2281 25.8464 17.2281 26.4768ZM11.898 20.5593C11.9123 21.1897 12.3278 21.9635 12.8437 22.293C13.3595 22.6225 13.775 22.379 13.7607 21.7485C13.7463 21.1181 13.3308 20.3444 12.815 20.0148C12.2992 19.6853 11.898 19.9289 11.898 20.5593ZM9.86335 21.7629C9.8777 22.3933 10.2932 23.167 10.8091 23.4966C11.3249 23.8261 11.7404 23.5825 11.7261 22.9521C11.7117 22.3217 11.2962 21.5479 10.7804 21.2184C10.2646 20.9032 9.84905 21.1324 9.86335 21.7629ZM7.81445 22.9808C7.82875 23.6112 8.2443 24.3849 8.7601 24.7145C9.2759 25.044 9.69145 24.8004 9.6771 24.17C9.6628 23.5396 9.24725 22.7658 8.73145 22.4363C8.21565 22.1067 7.81445 22.3503 7.81445 22.9808ZM7.81445 22.9808C7.82875 23.6112 8.2443 24.3849 8.7601 24.7145C9.2759 25.044 9.69145 24.8004 9.6771 24.17C9.6628 23.5396 9.24725 22.7658 8.73145 22.4363C8.21565 22.1067 7.81445 22.3503 7.81445 22.9808ZM9.86335 21.7629C9.8777 22.3933 10.2932 23.167 10.8091 23.4966C11.3249 23.8261 11.7404 23.5825 11.7261 22.9521C11.7117 22.3217 11.2962 21.5479 10.7804 21.2184C10.2646 20.9032 9.84905 21.1324 9.86335 21.7629ZM11.898 20.5593C11.9123 21.1897 12.3278 21.9635 12.8437 22.293C13.3595 22.6225 13.775 22.379 13.7607 21.7485C13.7463 21.1181 13.3308 20.3444 12.815 20.0148C12.2992 19.6853 11.898 19.9289 11.898 20.5593ZM17.2281 26.4768C17.2281 27.1073 17.6436 27.4082 18.1451 27.1359C18.6466 26.8637 19.0621 26.1329 19.0478 25.5025C19.0478 24.8721 18.6322 24.5712 18.1307 24.8434C17.6293 25.1156 17.2281 25.8464 17.2281 26.4768ZM19.0907 20.3014C19.0907 19.6709 18.6752 19.3701 18.1737 19.6423C17.6722 19.9145 17.2567 20.6453 17.2711 21.2757C17.2711 21.9061 17.6866 22.207 18.1881 21.9348C18.6895 21.6626 19.0907 20.9462 19.0907 20.3014ZM19.2913 22.8088C19.2913 23.4393 19.7068 23.7401 20.2083 23.4679C20.7098 23.1957 21.1253 22.4649 21.111 21.8345C21.111 21.2041 20.6955 20.9032 20.1797 21.1754C19.6782 21.4333 19.277 22.1784 19.2913 22.8088ZM21.2256 24.4136C21.2256 25.044 21.6412 25.3449 22.1426 25.0727C22.6441 24.8004 23.0596 24.0697 23.0453 23.4393C23.0453 22.8088 22.6298 22.5079 22.114 22.7802C21.6268 23.0524 21.2113 23.7831 21.2256 24.4136ZM23.074 18.2381C23.074 17.6077 22.6585 17.3068 22.1426 17.579C21.6412 17.8513 21.2256 18.582 21.24 19.2124C21.24 19.8429 21.6555 20.1438 22.157 19.8715C22.6728 19.6136 23.0883 18.8686 23.074 18.2381ZM7.81445 22.9808C7.82875 23.6112 8.2443 24.3849 8.7601 24.7145C9.2759 25.044 9.69145 24.8004 9.6771 24.17C9.6628 23.5396 9.24725 22.7658 8.73145 22.4363C8.21565 22.1067 7.81445 22.3503 7.81445 22.9808ZM9.86335 21.7629C9.8777 22.3933 10.2932 23.167 10.8091 23.4966C11.3249 23.8261 11.7404 23.5825 11.7261 22.9521C11.7117 22.3217 11.2962 21.5479 10.7804 21.2184C10.2646 20.8888 9.84905 21.1324 9.86335 21.7629ZM11.898 20.5593C11.9123 21.1897 12.3278 21.9635 12.8437 22.293C13.3595 22.6225 13.775 22.379 13.7607 21.7485C13.7463 21.1181 13.3308 20.3444 12.815 20.0148C12.2992 19.6853 11.898 19.9289 11.898 20.5593ZM17.2281 26.4768C17.2281 27.1073 17.6436 27.4082 18.1451 27.1359C18.6466 26.8637 19.0621 26.1329 19.0478 25.5025C19.0478 24.8721 18.6322 24.5712 18.1307 24.8434C17.6293 25.1156 17.2281 25.8464 17.2281 26.4768ZM19.0907 20.3014C19.0907 19.6709 18.6752 19.3701 18.1737 19.6423C17.6722 19.9145 17.2567 20.6453 17.2711 21.2757C17.2711 21.9061 17.6866 22.207 18.1881 21.9348C18.6895 21.6626 19.0907 20.9462 19.0907 20.3014ZM19.2913 22.8088C19.2913 23.4393 19.7068 23.7401 20.2083 23.4679C20.7098 23.1957 21.1253 22.4649 21.111 21.8345C21.111 21.2041 20.6955 20.9032 20.1797 21.1754C19.6782 21.4333 19.277 22.1784 19.2913 22.8088ZM21.2256 24.4136C21.2256 25.044 21.6412 25.3449 22.1426 25.0727C22.6441 24.8004 23.0596 24.0697 23.0453 23.4393C23.0453 22.8088 22.6298 22.5079 22.114 22.7802C21.6268 23.0524 21.2113 23.7831 21.2256 24.4136ZM23.074 18.2381C23.074 17.6077 22.6585 17.3068 22.1426 17.579C21.6412 17.8513 21.2256 18.582 21.24 19.2124C21.24 19.8429 21.6555 20.1438 22.157 19.8715C22.6728 19.6136 23.0883 18.8686 23.074 18.2381ZM21.2543 19.2124C21.2543 19.8429 21.6698 20.1438 22.1713 19.8715C22.6728 19.5993 23.0883 18.8686 23.074 18.2381C23.074 17.6077 22.6585 17.3068 22.1426 17.579C21.6555 17.8513 21.24 18.582 21.2543 19.2124ZM21.2256 24.4136C21.2256 25.044 21.6412 25.3449 22.1426 25.0727C22.6441 24.8004 23.0596 24.0697 23.0453 23.4393C23.0453 22.8088 22.6298 22.5079 22.114 22.7802C21.6268 23.0524 21.2113 23.7831 21.2256 24.4136ZM19.2913 22.8088C19.2913 23.4393 19.7068 23.7401 20.2083 23.4679C20.7098 23.1957 21.1253 22.4649 21.111 21.8345C21.111 21.2041 20.6955 20.9032 20.1797 21.1754C19.6782 21.4333 19.277 22.1784 19.2913 22.8088ZM17.2567 21.29C17.2567 21.9205 17.6722 22.2214 18.1737 21.9491C18.6752 21.6769 19.0907 20.9462 19.0764 20.3157C19.0764 19.6853 18.6609 19.3844 18.1594 19.6566C17.6579 19.9145 17.2567 20.6453 17.2567 21.29ZM17.2281 26.4768C17.2281 27.1073 17.6436 27.4082 18.1451 27.1359C18.6466 26.8637 19.0621 26.1329 19.0478 25.5025C19.0478 24.8721 18.6322 24.5712 18.1307 24.8434C17.6293 25.1156 17.2281 25.8464 17.2281 26.4768ZM11.898 20.5593C11.9123 21.1897 12.3278 21.9635 12.8437 22.293C13.3595 22.6225 13.775 22.379 13.7607 21.7485C13.7463 21.1181 13.3308 20.3444 12.815 20.0148C12.2992 19.6853 11.898 19.9289 11.898 20.5593ZM9.86335 21.7629C9.8777 22.3933 10.2932 23.167 10.8091 23.4966C11.3249 23.8261 11.7404 23.5825 11.7261 22.9521C11.7117 22.3217 11.2962 21.5479 10.7804 21.2184C10.2646 20.9032 9.84905 21.1324 9.86335 21.7629ZM7.81445 22.9808C7.82875 23.6112 8.2443 24.3849 8.7601 24.7145C9.2759 25.044 9.69145 24.8004 9.6771 24.17C9.6628 23.5396 9.24725 22.7658 8.73145 22.4363C8.21565 22.1067 7.81445 22.3503 7.81445 22.9808ZM7.81445 22.9808C7.82875 23.6112 8.2443 24.3849 8.7601 24.7145C9.2759 25.044 9.69145 24.8004 9.6771 24.17C9.6628 23.5396 9.24725 22.7658 8.73145 22.4363C8.21565 22.1067 7.81445 22.3503 7.81445 22.9808ZM9.86335 21.7629C9.8777 22.3933 10.2932 23.167 10.8091 23.4966C11.3249 23.8261 11.7404 23.5825 11.7261 22.9521C11.7117 22.3217 11.2962 21.5479 10.7804 21.2184C10.2646 20.9032 9.84905 21.1324 9.86335 21.7629ZM11.898 20.5593C11.9123 21.1897 12.3278 21.9635 12.8437 22.293C13.3595 22.6225 13.775 22.379 13.7607 21.7485C13.7463 21.1181 13.3308 20.3444 12.815 20.0148C12.2992 19.6853 11.898 19.9289 11.898 20.5593ZM17.2281 26.4768C17.2281 27.1073 17.6436 27.4082 18.1451 27.1359C18.6466 26.8637 19.0621 26.1329 19.0478 25.5025C19.0478 24.8721 18.6322 24.5712 18.1307 24.8434C17.6293 25.1156 17.2281 25.8464 17.2281 26.4768ZM17.2567 21.29C17.2567 21.9205 17.6722 22.2214 18.1737 21.9491C18.6752 21.6769 19.0907 20.9462 19.0764 20.3157C19.0764 19.6853 18.6609 19.3844 18.1594 19.6566C17.6579 19.9145 17.2567 20.6453 17.2567 21.29ZM19.2913 22.8088C19.2913 23.4393 19.7068 23.7401 20.2083 23.4679C20.7098 23.1957 21.1253 22.4649 21.111 21.8345C21.111 21.2041 20.6955 20.9032 20.1797 21.1754C19.6782 21.4333 19.277 22.1784 19.2913 22.8088ZM21.2256 24.4136C21.2256 25.044 21.6412 25.3449 22.1426 25.0727C22.6441 24.8004 23.0596 24.0697 23.0453 23.4393C23.0453 22.8088 22.6298 22.5079 22.114 22.7802C21.6268 23.0524 21.2113 23.7831 21.2256 24.4136ZM21.2543 19.2124C21.2543 19.8429 21.6698 20.1438 22.1713 19.8715C22.6728 19.5993 23.0883 18.8686 23.074 18.2381C23.074 17.6077 22.6585 17.3068 22.1426 17.579C21.6555 17.8513 21.24 18.582 21.2543 19.2124Z" fill="white"/>
<path id="Vector_5" d="M14.3769 15.1295C15.0504 15.4447 16.082 15.4447 16.7411 15.1295C17.5148 14.7713 17.5148 14.1982 16.7411 13.84C16.0677 13.5247 15.036 13.5247 14.3769 13.84C13.6032 14.1982 13.6032 14.7713 14.3769 15.1295Z" fill="white"/>
<path id="Vector_6" d="M3.45874 20.201C3.47307 26.8063 8.90344 32.2367 15.5087 32.2367C22.1283 32.2367 27.5587 26.792 27.5587 20.1867C27.5587 13.5814 22.1283 8.13672 15.523 8.13672C10.6801 8.13672 6.29574 11.0453 4.41873 15.5014C3.78829 16.9915 3.45874 18.5963 3.45874 20.201ZM24.3062 24.8434L15.9529 29.6576V20.0004L24.3062 15.2148V24.8434ZM15.5517 19.3414L7.18404 14.4984L15.5517 10.988L23.9623 14.5271L15.5517 19.3414ZM15.1935 29.6863L6.79719 24.8434V15.1719L15.1935 20.0148V29.6863Z" fill="white"/>
<path id="Vector_7" d="M78.2661 20.202C78.2661 24.4002 74.8131 27.8533 70.6146 27.8533C66.4166 27.8533 62.9636 24.4002 62.9636 20.202C62.9636 16.0039 66.4166 12.5508 70.6146 12.5508C74.7986 12.5508 78.2661 16.0039 78.2661 20.202ZM75.5291 20.202C75.5291 17.494 73.3086 15.2731 70.6006 15.2731C67.8926 15.2731 65.6716 17.494 65.6716 20.202C65.6716 22.9101 67.8926 25.1309 70.6006 25.1309C73.3086 25.1309 75.5291 22.9101 75.5291 20.202Z" fill="white"/>
</g>
</svg>
