<svg width="32" height="11" viewBox="0 0 32 11" fill="none" xmlns="http://www.w3.org/2000/svg">
<g clip-path="url(#clip0_777_2591)">
<path d="M16.9456 1.91406L16.3896 3.00874L13.822 8.0408L11.2544 3.00874L10.6985 1.91406H11.925L12.4809 3.00874L13.8163 5.63366L15.1517 3.00874L15.7133 1.91406H16.9456Z" fill="white"/>
<path d="M18.3039 1.91406H17.2092V8.0408H18.3039V1.91406Z" fill="white"/>
<path d="M24.8203 1.91406L24.2645 3.00874L21.6967 8.0408L19.1349 3.00874L18.579 1.91406H19.8055L20.3671 3.00874L21.7025 5.63366L23.0379 3.00874L23.5995 1.91406H24.8203Z" fill="white"/>
<path d="M8.19391 4.58029C8.19391 4.83247 8.36013 4.95283 8.56071 4.84393C8.76131 4.73505 8.92751 4.44275 8.92179 4.19057C8.92179 3.93839 8.75559 3.81803 8.54925 3.92693C8.35439 4.03583 8.18819 4.32813 8.19391 4.58029ZM8.18245 6.66075C8.18245 6.91293 8.34867 7.03329 8.54925 6.92439C8.74985 6.81549 8.91605 6.52319 8.91033 6.27103C8.91033 6.01885 8.74411 5.89849 8.53779 6.00739C8.34293 6.11055 8.17673 6.40857 8.18245 6.66075ZM7.40873 6.01885C7.40873 6.27103 7.57493 6.39137 7.77553 6.28249C7.97613 6.17359 8.14233 5.88129 8.13661 5.62911C8.13661 5.37695 7.97039 5.25659 7.76407 5.36549C7.55775 5.47437 7.40299 5.76667 7.40873 6.01885ZM6.59489 5.40559C6.59489 5.65777 6.76109 5.77813 6.96169 5.66923C7.16229 5.56035 7.32849 5.26805 7.32277 5.01587C7.32277 4.76369 7.15655 4.64335 6.95597 4.75223C6.75537 4.86113 6.59489 5.15343 6.59489 5.40559ZM6.58343 7.48605C6.58343 7.73823 6.74963 7.85859 6.95023 7.74969C7.15083 7.64079 7.31703 7.34849 7.31131 7.09633C7.31131 6.84415 7.14509 6.72379 6.94449 6.83269C6.74391 6.94157 6.58343 7.23387 6.58343 7.48605ZM6.58343 7.48605C6.58343 7.73823 6.74963 7.85859 6.95023 7.74969C7.15083 7.64079 7.31703 7.34849 7.31131 7.09633C7.31131 6.84415 7.14509 6.72379 6.94449 6.83269C6.74391 6.94157 6.58343 7.23387 6.58343 7.48605ZM6.59489 5.40559C6.59489 5.65777 6.76109 5.77813 6.96169 5.66923C7.16229 5.56035 7.32849 5.26805 7.32277 5.01587C7.32277 4.76369 7.15655 4.64335 6.95597 4.75223C6.75537 4.86113 6.59489 5.15343 6.59489 5.40559ZM7.40873 6.01885C7.40873 6.27103 7.57493 6.39137 7.77553 6.28249C7.97613 6.17359 8.14233 5.88129 8.13661 5.62911C8.13661 5.37695 7.97039 5.25659 7.76407 5.36549C7.55775 5.47437 7.40299 5.76667 7.40873 6.01885ZM8.18245 6.66075C8.18245 6.91293 8.34867 7.03329 8.54925 6.92439C8.74985 6.81549 8.91605 6.52319 8.91033 6.27103C8.91033 6.01885 8.74411 5.89849 8.53779 6.00739C8.34293 6.11055 8.17673 6.40857 8.18245 6.66075ZM8.19391 4.58029C8.19391 4.83247 8.36013 4.95283 8.56071 4.84393C8.76131 4.73505 8.92751 4.44275 8.92179 4.19057C8.92179 3.93839 8.75559 3.81803 8.54925 3.92693C8.35439 4.03583 8.18819 4.32813 8.19391 4.58029ZM8.19391 4.58029C8.19391 4.83247 8.36013 4.95283 8.56071 4.84393C8.76131 4.73505 8.92751 4.44275 8.92179 4.19057C8.92179 3.93839 8.75559 3.81803 8.54925 3.92693C8.35439 4.03583 8.18819 4.32813 8.19391 4.58029ZM8.18245 6.66075C8.18245 6.91293 8.34867 7.03329 8.54925 6.92439C8.74985 6.81549 8.91605 6.52319 8.91033 6.27103C8.91033 6.01885 8.74411 5.89849 8.53779 6.00739C8.34293 6.11055 8.17673 6.40857 8.18245 6.66075ZM7.40873 6.01885C7.40873 6.27103 7.57493 6.39137 7.77553 6.28249C7.97613 6.17359 8.14233 5.88129 8.13661 5.62911C8.13661 5.37695 7.97039 5.25659 7.76407 5.36549C7.55775 5.47437 7.40299 5.76667 7.40873 6.01885ZM6.59489 5.40559C6.59489 5.65777 6.76109 5.77813 6.96169 5.66923C7.16229 5.56035 7.32849 5.26805 7.32277 5.01587C7.32277 4.76369 7.15655 4.64335 6.95597 4.75223C6.75537 4.86113 6.59489 5.15343 6.59489 5.40559ZM6.58343 7.48605C6.58343 7.73823 6.74963 7.85859 6.95023 7.74969C7.15083 7.64079 7.31703 7.34849 7.31131 7.09633C7.31131 6.84415 7.14509 6.72379 6.94449 6.83269C6.74391 6.94157 6.58343 7.23387 6.58343 7.48605ZM4.45139 5.11903C4.45713 5.37121 4.62333 5.68071 4.82967 5.81253C5.03599 5.94433 5.20219 5.84691 5.19647 5.59473C5.19073 5.34255 5.02453 5.03307 4.81819 4.90125C4.61187 4.76943 4.45139 4.86687 4.45139 5.11903ZM3.63755 5.60047C3.64329 5.85263 3.80949 6.16213 4.01583 6.29395C4.22215 6.42577 4.38835 6.32833 4.38263 6.07615C4.37689 5.82399 4.21069 5.51449 4.00435 5.38267C3.79803 5.25659 3.63183 5.34829 3.63755 5.60047ZM2.81799 6.08763C2.82371 6.33979 2.98993 6.64929 3.19625 6.78111C3.40257 6.91293 3.56879 6.81549 3.56305 6.56331C3.55733 6.31115 3.39111 6.00165 3.18479 5.86983C2.97847 5.73801 2.81799 5.83545 2.81799 6.08763ZM2.81799 6.08763C2.82371 6.33979 2.98993 6.64929 3.19625 6.78111C3.40257 6.91293 3.56879 6.81549 3.56305 6.56331C3.55733 6.31115 3.39111 6.00165 3.18479 5.86983C2.97847 5.73801 2.81799 5.83545 2.81799 6.08763ZM3.63755 5.60047C3.64329 5.85263 3.80949 6.16213 4.01583 6.29395C4.22215 6.42577 4.38835 6.32833 4.38263 6.07615C4.37689 5.82399 4.21069 5.51449 4.00435 5.38267C3.79803 5.25659 3.63183 5.34829 3.63755 5.60047ZM4.45139 5.11903C4.45713 5.37121 4.62333 5.68071 4.82967 5.81253C5.03599 5.94433 5.20219 5.84691 5.19647 5.59473C5.19073 5.34255 5.02453 5.03307 4.81819 4.90125C4.61187 4.76943 4.45139 4.86687 4.45139 5.11903ZM6.58343 7.48605C6.58343 7.73823 6.74963 7.85859 6.95023 7.74969C7.15083 7.64079 7.31703 7.34849 7.31131 7.09633C7.31131 6.84415 7.14509 6.72379 6.94449 6.83269C6.74391 6.94157 6.58343 7.23387 6.58343 7.48605ZM7.32849 5.01587C7.32849 4.76369 7.16229 4.64335 6.96169 4.75223C6.76109 4.86113 6.59489 5.15343 6.60063 5.40559C6.60063 5.65777 6.76683 5.77813 6.96743 5.66923C7.16801 5.56035 7.32849 5.27379 7.32849 5.01587ZM7.40873 6.01885C7.40873 6.27103 7.57493 6.39137 7.77553 6.28249C7.97613 6.17359 8.14233 5.88129 8.13661 5.62911C8.13661 5.37695 7.97039 5.25659 7.76407 5.36549C7.56347 5.46865 7.40299 5.76667 7.40873 6.01885ZM8.18245 6.66075C8.18245 6.91293 8.34867 7.03329 8.54925 6.92439C8.74985 6.81549 8.91605 6.52319 8.91033 6.27103C8.91033 6.01885 8.74411 5.89849 8.53779 6.00739C8.34293 6.11627 8.17673 6.40857 8.18245 6.66075ZM8.92179 4.19057C8.92179 3.93839 8.75559 3.81803 8.54925 3.92693C8.34867 4.03583 8.18245 4.32813 8.18819 4.58029C8.18819 4.83247 8.35439 4.95283 8.55499 4.84393C8.76131 4.74077 8.92751 4.44275 8.92179 4.19057ZM2.81799 6.08763C2.82371 6.33979 2.98993 6.64929 3.19625 6.78111C3.40257 6.91293 3.56879 6.81549 3.56305 6.56331C3.55733 6.31115 3.39111 6.00165 3.18479 5.86983C2.97847 5.73801 2.81799 5.83545 2.81799 6.08763ZM3.63755 5.60047C3.64329 5.85263 3.80949 6.16213 4.01583 6.29395C4.22215 6.42577 4.38835 6.32833 4.38263 6.07615C4.37689 5.82399 4.21069 5.51449 4.00435 5.38267C3.79803 5.25085 3.63183 5.34829 3.63755 5.60047ZM4.45139 5.11903C4.45713 5.37121 4.62333 5.68071 4.82967 5.81253C5.03599 5.94433 5.20219 5.84691 5.19647 5.59473C5.19073 5.34255 5.02453 5.03307 4.81819 4.90125C4.61187 4.76943 4.45139 4.86687 4.45139 5.11903ZM6.58343 7.48605C6.58343 7.73823 6.74963 7.85859 6.95023 7.74969C7.15083 7.64079 7.31703 7.34849 7.31131 7.09633C7.31131 6.84415 7.14509 6.72379 6.94449 6.83269C6.74391 6.94157 6.58343 7.23387 6.58343 7.48605ZM7.32849 5.01587C7.32849 4.76369 7.16229 4.64335 6.96169 4.75223C6.76109 4.86113 6.59489 5.15343 6.60063 5.40559C6.60063 5.65777 6.76683 5.77813 6.96743 5.66923C7.16801 5.56035 7.32849 5.27379 7.32849 5.01587ZM7.40873 6.01885C7.40873 6.27103 7.57493 6.39137 7.77553 6.28249C7.97613 6.17359 8.14233 5.88129 8.13661 5.62911C8.13661 5.37695 7.97039 5.25659 7.76407 5.36549C7.56347 5.46865 7.40299 5.76667 7.40873 6.01885ZM8.18245 6.66075C8.18245 6.91293 8.34867 7.03329 8.54925 6.92439C8.74985 6.81549 8.91605 6.52319 8.91033 6.27103C8.91033 6.01885 8.74411 5.89849 8.53779 6.00739C8.34293 6.11627 8.17673 6.40857 8.18245 6.66075ZM8.92179 4.19057C8.92179 3.93839 8.75559 3.81803 8.54925 3.92693C8.34867 4.03583 8.18245 4.32813 8.18819 4.58029C8.18819 4.83247 8.35439 4.95283 8.55499 4.84393C8.76131 4.74077 8.92751 4.44275 8.92179 4.19057ZM8.19391 4.58029C8.19391 4.83247 8.36013 4.95283 8.56071 4.84393C8.76131 4.73505 8.92751 4.44275 8.92179 4.19057C8.92179 3.93839 8.75559 3.81803 8.54925 3.92693C8.35439 4.03583 8.18819 4.32813 8.19391 4.58029ZM8.18245 6.66075C8.18245 6.91293 8.34867 7.03329 8.54925 6.92439C8.74985 6.81549 8.91605 6.52319 8.91033 6.27103C8.91033 6.01885 8.74411 5.89849 8.53779 6.00739C8.34293 6.11627 8.17673 6.40857 8.18245 6.66075ZM7.40873 6.01885C7.40873 6.27103 7.57493 6.39137 7.77553 6.28249C7.97613 6.17359 8.14233 5.88129 8.13661 5.62911C8.13661 5.37695 7.97039 5.25659 7.76407 5.36549C7.56347 5.46865 7.40299 5.76667 7.40873 6.01885ZM6.59489 5.41133C6.59489 5.66351 6.76109 5.78387 6.96169 5.67497C7.16229 5.56607 7.32849 5.27379 7.32277 5.02161C7.32277 4.76943 7.15655 4.64907 6.95597 4.75797C6.75537 4.86113 6.59489 5.15343 6.59489 5.41133ZM6.58343 7.48605C6.58343 7.73823 6.74963 7.85859 6.95023 7.74969C7.15083 7.64079 7.31703 7.34849 7.31131 7.09633C7.31131 6.84415 7.14509 6.72379 6.94449 6.83269C6.74391 6.94157 6.58343 7.23387 6.58343 7.48605ZM4.45139 5.11903C4.45713 5.37121 4.62333 5.68071 4.82967 5.81253C5.03599 5.94433 5.20219 5.84691 5.19647 5.59473C5.19073 5.34255 5.02453 5.03307 4.81819 4.90125C4.61187 4.76943 4.45139 4.86687 4.45139 5.11903ZM3.63755 5.60047C3.64329 5.85263 3.80949 6.16213 4.01583 6.29395C4.22215 6.42577 4.38835 6.32833 4.38263 6.07615C4.37689 5.82399 4.21069 5.51449 4.00435 5.38267C3.79803 5.25659 3.63183 5.34829 3.63755 5.60047ZM2.81799 6.08763C2.82371 6.33979 2.98993 6.64929 3.19625 6.78111C3.40257 6.91293 3.56879 6.81549 3.56305 6.56331C3.55733 6.31115 3.39111 6.00165 3.18479 5.86983C2.97847 5.73801 2.81799 5.83545 2.81799 6.08763ZM2.81799 6.08763C2.82371 6.33979 2.98993 6.64929 3.19625 6.78111C3.40257 6.91293 3.56879 6.81549 3.56305 6.56331C3.55733 6.31115 3.39111 6.00165 3.18479 5.86983C2.97847 5.73801 2.81799 5.83545 2.81799 6.08763ZM3.63755 5.60047C3.64329 5.85263 3.80949 6.16213 4.01583 6.29395C4.22215 6.42577 4.38835 6.32833 4.38263 6.07615C4.37689 5.82399 4.21069 5.51449 4.00435 5.38267C3.79803 5.25659 3.63183 5.34829 3.63755 5.60047ZM4.45139 5.11903C4.45713 5.37121 4.62333 5.68071 4.82967 5.81253C5.03599 5.94433 5.20219 5.84691 5.19647 5.59473C5.19073 5.34255 5.02453 5.03307 4.81819 4.90125C4.61187 4.76943 4.45139 4.86687 4.45139 5.11903ZM6.58343 7.48605C6.58343 7.73823 6.74963 7.85859 6.95023 7.74969C7.15083 7.64079 7.31703 7.34849 7.31131 7.09633C7.31131 6.84415 7.14509 6.72379 6.94449 6.83269C6.74391 6.94157 6.58343 7.23387 6.58343 7.48605ZM6.59489 5.41133C6.59489 5.66351 6.76109 5.78387 6.96169 5.67497C7.16229 5.56607 7.32849 5.27379 7.32277 5.02161C7.32277 4.76943 7.15655 4.64907 6.95597 4.75797C6.75537 4.86113 6.59489 5.15343 6.59489 5.41133ZM7.40873 6.01885C7.40873 6.27103 7.57493 6.39137 7.77553 6.28249C7.97613 6.17359 8.14233 5.88129 8.13661 5.62911C8.13661 5.37695 7.97039 5.25659 7.76407 5.36549C7.56347 5.46865 7.40299 5.76667 7.40873 6.01885ZM8.18245 6.66075C8.18245 6.91293 8.34867 7.03329 8.54925 6.92439C8.74985 6.81549 8.91605 6.52319 8.91033 6.27103C8.91033 6.01885 8.74411 5.89849 8.53779 6.00739C8.34293 6.11627 8.17673 6.40857 8.18245 6.66075ZM8.19391 4.58029C8.19391 4.83247 8.36013 4.95283 8.56071 4.84393C8.76131 4.73505 8.92751 4.44275 8.92179 4.19057C8.92179 3.93839 8.75559 3.81803 8.54925 3.92693C8.35439 4.03583 8.18819 4.32813 8.19391 4.58029Z" fill="white"/>
<path d="M5.44293 2.94631C5.71231 3.07241 6.12495 3.07241 6.38859 2.94631C6.69809 2.80303 6.69809 2.57379 6.38859 2.43051C6.11923 2.30441 5.70657 2.30441 5.44293 2.43051C5.13345 2.57379 5.13345 2.80303 5.44293 2.94631Z" fill="white"/>
<path d="M1.07568 4.97611C1.08142 7.61823 3.25356 9.79039 5.89568 9.79039C8.54352 9.79039 10.7157 7.61251 10.7157 4.97039C10.7157 2.32827 8.54352 0.150391 5.9014 0.150391C3.96424 0.150391 2.21048 1.31383 1.45968 3.09627C1.2075 3.69231 1.07568 4.33421 1.07568 4.97611ZM9.41468 6.83305L6.07334 8.75875V4.89587L9.41468 2.98163V6.83305ZM5.91288 4.63225L2.5658 2.69507L5.91288 1.29091L9.27712 2.70653L5.91288 4.63225ZM5.76958 8.77021L2.41106 6.83305V2.96445L5.76958 4.90161V8.77021Z" fill="white"/>
<path d="M30.9987 4.97456C30.9987 6.65382 29.6175 8.03506 27.9381 8.03506C26.2589 8.03506 24.8777 6.65382 24.8777 4.97456C24.8777 3.2953 26.2589 1.91406 27.9381 1.91406C29.6117 1.91406 30.9987 3.2953 30.9987 4.97456ZM29.9039 4.97456C29.9039 3.89136 29.0157 3.003 27.9325 3.003C26.8493 3.003 25.9609 3.89136 25.9609 4.97456C25.9609 6.05778 26.8493 6.94612 27.9325 6.94612C29.0157 6.94612 29.9039 6.05778 29.9039 4.97456Z" fill="white"/>
</g>
<defs>
<clipPath id="clip0_777_2591">
<rect width="30.4" height="10" fill="white" transform="translate(0.937012 0.0996094)"/>
</clipPath>
</defs>
</svg>
