<svg width="63" height="31" viewBox="0 0 63 31" fill="none" xmlns="http://www.w3.org/2000/svg">
<g clip-path="url(#clip0_461_476)">
<g style="mix-blend-mode:luminosity">
<path d="M25.7781 9.35786C24.9504 8.66992 24.0083 8.13283 22.9947 7.77111C22.7163 7.67029 22.7141 7.67029 22.7755 7.3788C22.9061 6.85228 23.0806 6.33764 23.2971 5.84027C23.3563 5.69781 23.4199 5.68466 23.5535 5.73069C25.0791 6.2526 26.4746 7.09646 27.6453 8.20505C27.6663 8.23434 27.6934 8.25871 27.7247 8.27646C27.756 8.29421 27.7908 8.30492 27.8267 8.30784C27.8626 8.31077 27.8987 8.30583 27.9325 8.29337C27.9662 8.28092 27.9969 8.26125 28.0223 8.23573C28.6298 7.82183 29.1951 7.34908 29.7099 6.82432C29.7537 6.77829 29.8173 6.74542 29.8238 6.65994C28.8253 6.47754 27.8631 6.13409 26.9747 5.64302C26.1414 5.17808 25.3821 4.59159 24.7217 3.90285C24.6143 3.78889 24.6033 3.72314 24.7217 3.60041C25.0948 3.18233 25.4992 2.79329 25.9315 2.43664C26.0652 2.32706 26.1506 2.30295 26.2799 2.45199C27.0492 3.26929 28.0017 3.89203 29.059 4.26886C29.0642 4.19688 29.0474 4.12502 29.0107 4.06284C28.6534 3.15254 28.3998 2.20489 28.2546 1.23782C28.2472 1.21785 28.2443 1.19649 28.2462 1.17528C28.248 1.15406 28.2544 1.13351 28.2651 1.11508C28.2758 1.09666 28.2904 1.08082 28.3079 1.0687C28.3254 1.05658 28.3454 1.04847 28.3664 1.04495C28.9543 0.832473 29.5613 0.676884 30.1789 0.580322C30.363 0.549639 30.3148 0.696479 30.3257 0.77757C30.4171 1.4926 30.5823 2.19623 30.8188 2.87717C30.9709 3.32408 31.154 3.75981 31.3668 4.18119C31.3974 4.24256 31.4106 4.31927 31.4961 4.36529C31.7706 3.86313 31.9973 3.33628 32.1733 2.79169C32.3913 2.15228 32.5383 1.4908 32.6116 0.819211C32.6313 0.624155 32.6752 0.556214 32.9009 0.600047C33.4498 0.702126 33.9909 0.841993 34.5205 1.01865C34.6783 1.07344 34.7112 1.14138 34.6849 1.30356C34.5391 2.27358 34.2824 3.22366 33.92 4.13517C33.9091 4.16585 33.9003 4.20092 33.8828 4.25133C34.0907 4.19565 34.292 4.11777 34.4833 4.01901C35.3203 3.63906 36.074 3.0976 36.7012 2.42569C36.8086 2.31172 36.8744 2.29857 36.9993 2.40158C37.4446 2.7644 37.8609 3.16157 38.2441 3.58945C38.3515 3.71218 38.3449 3.77355 38.2441 3.88532C36.9477 5.25362 35.2663 6.19597 33.4225 6.58762L33.1245 6.64898C33.1245 6.73008 33.188 6.76076 33.2296 6.80678C33.7539 7.34568 34.3319 7.82962 34.9545 8.25108C34.9771 8.27225 35.004 8.28837 35.0333 8.29839C35.0627 8.30841 35.0938 8.31209 35.1247 8.30919C35.1555 8.30629 35.1854 8.29687 35.2124 8.28157C35.2393 8.26626 35.2627 8.24541 35.281 8.22039C36.4497 7.10923 37.8426 6.26106 39.3663 5.73288C39.5284 5.67589 39.6008 5.69343 39.6687 5.86218C39.8829 6.38599 40.0572 6.9252 40.1903 7.47523C40.2232 7.6155 40.2144 7.6944 40.05 7.74042C39.0907 8.06624 38.1928 8.55075 37.3938 9.17376L37.1746 9.35786C37.7171 9.56159 38.2767 9.71635 38.8468 9.82029C39.3044 9.90493 39.7672 9.95911 40.232 9.98248C40.3569 9.98248 40.3919 10.0307 40.381 10.1512C40.3267 10.7693 40.213 11.3807 40.0413 11.9769C40.0062 12.0974 39.9405 12.0952 39.8484 12.0886C37.7419 11.9369 35.7072 11.2587 33.931 10.1162C33.0721 9.56663 32.2857 8.91131 31.5903 8.1656C31.4829 8.05164 31.4347 8.07794 31.3426 8.1656C29.5135 10.1068 27.114 11.4155 24.4916 11.9024C24.0357 11.9922 23.5733 12.036 23.1108 12.0865C22.9684 12.104 22.9245 12.0492 22.8917 11.9221C22.7355 11.3475 22.627 10.7611 22.5673 10.1688C22.552 10.0373 22.587 9.99562 22.7251 9.98905C23.6907 9.93718 24.6445 9.7513 25.5589 9.43676L25.7781 9.35786Z" fill="#F86431"/>
<path d="M38.1957 29.8388C37.5842 29.8388 36.9969 29.8388 36.4095 29.8388C36.2955 29.8388 36.2648 29.7599 36.2188 29.6897C35.763 29.0081 35.3027 28.3287 34.8556 27.6405C34.826 27.5718 34.7738 27.5152 34.7077 27.4801C34.6415 27.445 34.5653 27.4336 34.4918 27.4477C34.3252 27.4806 34.2836 27.4082 34.2902 27.2482C34.3033 26.891 34.2902 26.536 34.2902 26.1787C34.2902 26.0297 34.3384 26.0034 34.4743 26.0012C34.801 26.0246 35.1292 26.0151 35.4539 25.9727C36.0457 25.8478 36.3766 25.4511 36.3525 24.8944C36.3546 24.7606 36.3298 24.6277 36.2795 24.5037C36.2292 24.3796 36.1546 24.2669 36.0599 24.1723C35.9653 24.0776 35.8526 24.003 35.7285 23.9527C35.6045 23.9024 35.4716 23.8776 35.3378 23.8797C34.8249 23.8446 34.3055 23.8665 33.7905 23.8556C33.6393 23.8556 33.6743 23.952 33.6743 24.0309C33.6743 24.8309 33.6743 25.6308 33.6743 26.4308C33.6743 27.4981 33.6743 28.5676 33.6743 29.6349C33.6743 29.7993 33.6349 29.8541 33.4705 29.841C33.0563 29.8278 32.6399 29.841 32.2256 29.841C32.0942 29.841 32.035 29.8212 32.0372 29.6656C32.0372 27.2957 32.0372 24.9258 32.0372 22.5559C32.0372 22.42 32.0722 22.385 32.2081 22.385C33.2689 22.385 34.3318 22.3696 35.3926 22.3981C36.232 22.4201 37.0034 22.6546 37.5382 23.3668C37.7526 23.6647 37.8989 24.006 37.9668 24.3666C38.0347 24.7273 38.0225 25.0984 37.9312 25.4539C37.8398 25.8093 37.6715 26.1403 37.4381 26.4235C37.2047 26.7066 36.9119 26.9351 36.5804 27.0926C36.4117 27.1693 36.4139 27.2154 36.5103 27.3556C37.056 28.1424 37.593 28.9358 38.1321 29.727C38.154 29.7555 38.1694 29.7884 38.1957 29.8388Z" fill="#7B7B8F"/>
<path d="M14.9687 28.8124C14.2793 29.4233 13.4199 29.8094 12.5053 29.9192C11.5122 30.0889 10.4914 29.886 9.63862 29.3494C8.36746 28.5166 7.8853 27.2892 7.96859 25.8121C8.02245 24.9146 8.39604 24.0661 9.02165 23.4204C9.64725 22.7747 10.4835 22.3745 11.3788 22.2923C12.582 22.1652 13.6932 22.3997 14.6465 23.1909C14.6816 23.2172 14.7123 23.2478 14.7517 23.2807C14.4339 23.6664 14.1161 24.0434 13.8071 24.4291C13.7151 24.5475 13.6669 24.462 13.6033 24.4116C13.1189 24.0101 12.5159 23.779 11.8872 23.7541C11.4162 23.7455 10.9552 23.8906 10.574 24.1674C10.1927 24.4442 9.91209 24.8377 9.7745 25.2883C9.42384 26.3556 9.79203 27.5259 10.6512 28.1001C11.0594 28.3405 11.5249 28.4662 11.9986 28.4639C12.4724 28.4616 12.9367 28.3314 13.3425 28.087C13.3973 28.0475 13.4477 28.0169 13.4455 27.9358C13.4455 27.7319 13.4455 27.5281 13.4455 27.3265C13.4455 27.2169 13.3907 27.2125 13.3096 27.2125C13.1409 27.2125 12.9743 27.2125 12.8077 27.2125C12.7135 27.2125 12.6806 27.1862 12.6828 27.0898C12.6828 26.7479 12.6828 26.406 12.6828 26.0641C12.6828 25.9458 12.7354 25.9392 12.8275 25.9392H14.9665C14.9871 25.9782 14.994 26.0229 14.9862 26.0663C14.9862 26.9342 14.9862 27.8035 14.9862 28.6744C14.9974 28.721 14.9911 28.7701 14.9687 28.8124Z" fill="#7B7B8F"/>
<path d="M23.1347 28.8131C22.4278 29.4383 21.5439 29.8281 20.6056 29.9287C19.5954 30.0853 18.5632 29.8578 17.7126 29.2909C16.5817 28.5129 16.0908 27.3907 16.1215 26.0538C16.1631 24.123 17.4123 22.6524 19.3059 22.328C20.6209 22.1089 21.8658 22.3609 22.9156 23.2814C22.6065 23.6562 22.2953 24.0222 21.9995 24.397C21.9118 24.5087 21.8614 24.4934 21.7628 24.4123C21.2753 24.0014 20.6621 23.7695 20.0248 23.7548C19.4967 23.7549 18.9865 23.9456 18.5878 24.2919C18.1892 24.6382 17.929 25.1168 17.8551 25.6396C17.7653 26.0448 17.7817 26.4663 17.9027 26.8633C18.0236 27.2604 18.245 27.6194 18.5454 27.9058C19.398 28.7255 20.7787 28.5633 21.5304 28.0943C21.5569 28.0826 21.5787 28.0625 21.5926 28.0371C21.6064 28.0118 21.6116 27.9826 21.6072 27.954V27.9321C21.6072 27.7129 21.6817 27.4455 21.5809 27.2921C21.48 27.1387 21.1929 27.2461 20.9891 27.2395C20.873 27.2395 20.8423 27.2023 20.8445 27.0883C20.8445 26.7617 20.8445 26.4308 20.8445 26.1064C20.8445 25.9903 20.8817 25.9618 20.9935 25.964C21.7058 25.964 22.4181 25.964 23.1325 25.964C23.1543 26.0105 23.1611 26.0625 23.1523 26.113V28.6553C23.1611 28.7085 23.1551 28.7632 23.1347 28.8131Z" fill="#7B7B8F"/>
<path d="M30.4221 16.7794C30.4221 16.341 30.4221 15.9224 30.4221 15.4929C30.4263 15.3777 30.389 15.2649 30.3169 15.1751C29.3811 13.9609 28.4518 12.7424 27.516 11.526C27.4239 11.4076 27.3867 11.3485 27.5664 11.2718C28.107 11.0418 28.6262 10.7646 29.1181 10.4433C29.2474 10.3578 29.3 10.382 29.3876 10.4981C30.0451 11.355 30.7026 12.2054 31.3448 13.0623C31.45 13.2026 31.496 13.207 31.6034 13.0623C32.2609 12.2054 32.9184 11.355 33.5605 10.4981C33.6438 10.3863 33.6964 10.3491 33.8301 10.4389C34.3203 10.7655 34.8389 11.0471 35.3796 11.2805C35.5505 11.3528 35.5308 11.4076 35.4322 11.5369C34.4964 12.7489 33.5671 13.9697 32.6313 15.1838C32.5586 15.2735 32.5205 15.3863 32.5239 15.5016C32.5239 16.3673 32.5239 17.233 32.5239 18.0965C32.5239 18.2916 32.4647 18.3332 32.2828 18.3486C31.7223 18.3896 31.1593 18.3845 30.5996 18.3332C30.4703 18.3332 30.4265 18.2872 30.4287 18.1535C30.4265 17.6955 30.4221 17.2374 30.4221 16.7794Z" fill="#F86431"/>
<path d="M50.0329 22.238C50.9023 22.2551 51.7449 22.5423 52.4437 23.0599C52.5621 23.1454 52.5862 23.2023 52.4919 23.3295C52.2728 23.6319 52.0536 23.9453 51.8498 24.2609C51.7753 24.3749 51.727 24.3924 51.6065 24.3113C51.1463 23.9768 50.61 23.7621 50.046 23.6867C49.7933 23.649 49.5352 23.6738 49.2943 23.759C49.1753 23.7947 49.0698 23.8655 48.9916 23.9621C48.9134 24.0586 48.8662 24.1765 48.856 24.3004C48.8418 24.4283 48.8688 24.5574 48.933 24.669C48.9973 24.7805 49.0954 24.8687 49.2132 24.9206C49.5886 25.0937 49.9818 25.2252 50.3858 25.3129C50.857 25.4313 51.3157 25.595 51.7555 25.8016C53.2897 26.5446 53.0179 28.6705 51.9528 29.3762C51.3492 29.7633 50.6362 29.9441 49.9211 29.8912C48.8883 29.8584 47.8953 29.4855 47.0961 28.8305C46.9821 28.7406 46.958 28.6836 47.0632 28.5631C47.3196 28.276 47.5629 27.9779 47.804 27.6865C47.8873 27.5813 47.9355 27.5791 48.0429 27.6623C48.6482 28.1929 49.4298 28.4782 50.2345 28.4623C50.424 28.4586 50.611 28.4176 50.7846 28.3418C50.9015 28.2991 51.0032 28.2229 51.0769 28.1227C51.1506 28.0225 51.193 27.9028 51.1989 27.7785C51.2096 27.6545 51.1814 27.5301 51.1181 27.4229C51.0549 27.3156 50.9598 27.2308 50.846 27.1802C50.4122 26.9762 49.9562 26.8232 49.4872 26.7243C49.1387 26.6279 48.7968 26.5052 48.4571 26.378C46.8024 25.7425 46.9799 23.5289 48.0604 22.7794C48.6404 22.3868 49.3337 22.1965 50.0329 22.238Z" fill="#7B7B8F"/>
<path d="M43.607 26.7487C43.5979 26.626 43.5596 26.5073 43.4952 26.4024C43.2454 25.7778 42.9889 25.1554 42.7347 24.5308C42.7128 24.4738 42.6865 24.4168 42.6448 24.3116C42.4038 24.9056 42.178 25.4578 41.9523 26.0101C41.4541 27.2375 40.9558 28.4648 40.4576 29.6921C40.4379 29.7403 40.4401 29.8104 40.3743 29.8346C39.9184 29.8061 39.4626 29.8346 39.0045 29.8214C38.9259 29.8334 38.8455 29.8267 38.77 29.8017C39.6467 27.7255 40.5233 25.6507 41.4 23.5774C41.5644 23.1917 41.7353 22.8081 41.9041 22.4246C42.3797 22.3808 42.8574 22.4246 43.3352 22.4049C43.3834 22.4049 43.4097 22.4443 43.4492 22.4641C43.9423 23.6212 44.4398 24.7784 44.9307 25.9356C45.464 27.1936 45.9951 28.4531 46.5241 29.714C46.5109 29.8455 46.4123 29.8214 46.329 29.8214H45.1324C45.0591 29.8135 44.985 29.8179 44.9132 29.8346C44.683 29.3631 44.4803 28.8786 44.3061 28.3837C44.2883 28.3115 44.2439 28.2487 44.1816 28.2081C44.1194 28.1674 44.044 28.1518 43.9708 28.1645C43.2892 28.1645 42.6054 28.1645 41.9216 28.1645C41.755 28.1645 41.7419 28.1251 41.8033 27.9804C41.9632 27.6013 42.1101 27.2155 42.2657 26.8342C42.281 26.7991 42.2766 26.7421 42.338 26.74C42.76 26.7783 43.1845 26.7812 43.607 26.7487Z" fill="#7B7B8F"/>
<path d="M4.46421 25.7105C4.91569 24.8821 5.35621 24.0755 5.79454 23.2668C5.93042 23.0192 6.06849 22.7715 6.1978 22.5217C6.21528 22.4788 6.24591 22.4425 6.28528 22.4181C6.32466 22.3937 6.37076 22.3824 6.41697 22.3858C6.96926 22.3858 7.52375 22.3858 8.07823 22.3858C8.09796 22.4734 8.03659 22.5239 8.00372 22.583C7.12706 24.1435 6.24529 25.7025 5.3584 27.26C5.29604 27.3655 5.26347 27.4859 5.26416 27.6085C5.26416 28.2791 5.26416 28.9476 5.26416 29.616C5.26416 29.8045 5.20499 29.8352 5.02965 29.8352C4.63078 29.822 4.2297 29.8242 3.83083 29.8352C3.6796 29.8352 3.63358 29.7979 3.63577 29.6445C3.63577 28.987 3.63577 28.3295 3.63577 27.672C3.63808 27.535 3.60243 27.4 3.53276 27.2819C2.6561 25.7142 1.77945 24.1464 0.902789 22.5786C0.869915 22.5239 0.841423 22.4669 0.791016 22.3748H1.08908C1.5559 22.3748 2.02053 22.3748 2.48516 22.3748C2.54798 22.3678 2.61136 22.3818 2.66532 22.4148C2.71928 22.4477 2.76076 22.4976 2.78322 22.5567C3.30483 23.543 3.83302 24.5292 4.35901 25.5111L4.46421 25.7105Z" fill="#7B7B8F"/>
<path d="M57.0637 29.7622C57.0637 29.3239 57.0637 28.9053 57.0637 28.4779C57.0637 26.5054 57.0637 24.5527 57.0637 22.589C57.0637 22.429 57.0988 22.3698 57.2654 22.3852C57.6796 22.3983 58.0938 22.3961 58.508 22.3852C58.668 22.3852 58.6965 22.4356 58.6943 22.5802C58.6943 24.4278 58.6943 26.2731 58.6943 28.1207C58.6943 28.3114 58.7381 28.3618 58.9332 28.3618C59.9874 28.3618 61.0416 28.3618 62.0957 28.3618C62.1339 28.4281 62.1486 28.5053 62.1374 28.5809C62.1374 28.8943 62.1374 29.2055 62.1374 29.519C62.1374 29.7798 62.1264 29.7907 61.87 29.7907C60.349 29.7907 58.8295 29.7907 57.3114 29.7907C57.2703 29.803 57.2272 29.8069 57.1846 29.802C57.142 29.7971 57.1009 29.7835 57.0637 29.7622Z" fill="#7B7B8F"/>
<path d="M54.0698 26.1196C54.0698 24.9427 54.0698 23.7636 54.0698 22.5867C54.0698 22.4202 54.1115 22.3807 54.2736 22.3851C54.6879 22.396 55.1043 22.3851 55.5185 22.3851C55.6412 22.3851 55.696 22.4048 55.696 22.5495C55.696 24.9281 55.696 27.3053 55.696 29.6811C55.696 29.806 55.6588 29.8432 55.5338 29.8411C55.1065 29.8411 54.6769 29.8411 54.2473 29.8411C54.0917 29.8411 54.0698 29.7841 54.072 29.6504C54.072 28.4757 54.0698 27.2988 54.0698 26.1196Z" fill="#7B7B8F"/>
<path d="M57.0637 29.7616C58.6549 29.7616 60.2482 29.7616 61.8393 29.7616C62.0366 29.7616 62.0892 29.7046 62.0826 29.5139C62.0672 29.1304 62.0826 28.7447 62.0826 28.359C62.1834 28.3458 62.1593 28.4203 62.1593 28.4729C62.1593 28.8784 62.1593 29.286 62.1593 29.6937C62.1593 29.8449 62.0782 29.8317 61.9796 29.8317H59.4921C58.7447 29.8317 57.9952 29.8317 57.2456 29.8317C57.1843 29.8339 57.0769 29.9019 57.0637 29.7616Z" fill="#29292F"/>
<path d="M14.9688 28.814C14.9688 27.8672 14.9688 26.9175 14.9688 25.9648C15.0498 25.9802 15.0148 26.0437 15.017 26.0854C15.017 26.9489 15.017 27.8102 15.017 28.6715C15.0148 28.7285 15.0389 28.7855 14.9688 28.814Z" fill="#212127"/>
<path d="M23.1348 28.814C23.1348 27.8672 23.1348 26.9175 23.1348 25.9648C23.2137 25.9824 23.1786 26.0459 23.1786 26.0876C23.1786 26.9482 23.1786 27.8095 23.1786 28.6715C23.1764 28.7263 23.1961 28.7855 23.1348 28.814Z" fill="#1E1E24"/>
<path d="M44.9197 29.841C45.0785 29.7958 45.2452 29.7854 45.4084 29.8103C45.7065 29.7994 46.0024 29.8103 46.2982 29.8103C46.3881 29.8103 46.4714 29.8103 46.5174 29.7227C46.5393 29.7796 46.6379 29.8585 46.4779 29.8585L44.9197 29.841Z" fill="#202027"/>
<path d="M43.4514 22.4714C43.1888 22.425 42.9215 22.4125 42.6558 22.4341C42.4059 22.4341 42.1561 22.4341 41.9062 22.4341C41.9304 22.3399 42.0093 22.3727 42.0662 22.3727H43.2738C43.3527 22.3684 43.4382 22.3574 43.4514 22.4714Z" fill="#202026"/>
<path d="M38.7699 29.809C39.2346 29.809 39.7014 29.809 40.166 29.809C40.2361 29.809 40.3128 29.7871 40.3742 29.8419L38.8225 29.855C38.7897 29.8572 38.7677 29.8463 38.7699 29.809Z" fill="#1F1F26"/>
<path d="M43.6069 26.748C43.5608 26.8138 43.4907 26.7985 43.4293 26.7941C43.0677 26.7722 42.7039 26.8445 42.3445 26.7568L43.6069 26.748Z" fill="#1F1F25"/>
<path d="M30.9854 25.8841C30.943 24.9996 30.5798 24.161 29.9639 23.5248C29.3479 22.8887 28.5214 22.4988 27.6388 22.4279C26.6679 22.3358 25.6904 22.4125 24.7173 22.384C24.542 22.384 24.485 22.4191 24.4981 22.6032C24.4981 23.767 24.4981 24.9307 24.4981 26.0945C24.4981 27.2582 24.4981 28.4483 24.4981 29.6274C24.4981 29.7808 24.5201 29.8466 24.6954 29.8466C25.4734 29.8356 26.2515 29.8466 27.0295 29.8466C27.3862 29.8462 27.7419 29.8073 28.0903 29.7304C28.9566 29.5482 29.7274 29.058 30.2598 28.3507C30.7922 27.6434 31.05 26.767 30.9854 25.8841ZM28.7653 27.6374C28.5698 27.8588 28.3302 28.037 28.0619 28.1604C27.7935 28.2838 27.5024 28.3498 27.207 28.3541C26.8958 28.3716 26.5824 28.3541 26.2712 28.3541C26.1353 28.3541 26.1243 28.3037 26.1265 28.1919C26.1265 27.4949 26.1265 26.798 26.1265 26.1011C26.1265 25.4041 26.1265 24.705 26.1265 24.008C26.1265 23.8722 26.1594 23.8349 26.2931 23.8415C26.7139 23.8273 27.1352 23.8448 27.5533 23.8941C28.0188 23.9751 28.4431 24.2113 28.7571 24.5643C29.0711 24.9173 29.2563 25.3663 29.2825 25.8381C29.3256 26.1581 29.302 26.4837 29.2129 26.7941C29.1239 27.1046 28.9715 27.3932 28.7653 27.6418V27.6374Z" fill="#7B7B8F"/>
</g>
</g>
<defs>
<clipPath id="clip0_461_476">
<rect width="61.5306" height="30" fill="white" transform="translate(0.710938 0.273438)"/>
</clipPath>
</defs>
</svg>
