<svg width="130" height="23" viewBox="0 0 130 23" fill="none" xmlns="http://www.w3.org/2000/svg">
<g id="zeus play" style="mix-blend-mode:luminosity" clip-path="url(#clip0_461_642)">
<g id="&#208;&#161;&#208;&#187;&#208;&#190;&#208;&#185; 2">
<g id="&#208;&#161;&#208;&#187;&#208;&#190;&#208;&#185; 1">
<path id="Vector" d="M28.084 21.7628C26.3169 21.7628 24.5508 21.7564 22.7838 21.7684C22.4727 21.7684 22.3489 21.7231 22.4145 21.3658C22.5594 20.5506 22.6739 19.729 22.7681 18.9064C22.8004 18.622 22.9103 18.5685 23.1715 18.563C25.7981 18.5103 28.4237 18.4448 31.0493 18.3783C32.0325 18.3543 33.0148 18.3294 33.9971 18.2943C34.2464 18.2851 34.3443 18.3165 34.2944 18.6174C34.1424 19.5406 34.0156 20.4679 33.9141 21.3991C33.8799 21.713 33.7497 21.7684 33.4783 21.7637C31.679 21.7591 29.8815 21.7628 28.084 21.7628Z" fill="#009FDB"/>
<path id="Vector_2" d="M15.1525 21.7623C13.2922 21.7623 11.432 21.7568 9.57076 21.7679C9.24579 21.7679 9.10269 21.7392 9.19224 21.3413C9.33527 20.6808 9.43977 20.0125 9.50521 19.3398C9.54491 18.9622 9.70832 18.8736 10.0591 18.8671C13.5018 18.8025 16.9454 18.7212 20.3881 18.6428C20.6798 18.6363 20.9725 18.628 21.2633 18.6021C21.5125 18.58 21.6372 18.6326 21.5929 18.9225C21.4611 19.7879 21.3399 20.6548 21.2291 21.5232C21.1885 21.8482 20.9521 21.7586 20.7777 21.7586C18.9045 21.7651 17.0285 21.7623 15.1525 21.7623Z" fill="#009FDB"/>
<path id="Vector_3" d="M28.6674 13.8571C26.929 13.8571 25.1906 13.8441 23.4522 13.8663C23.0478 13.8718 22.9195 13.7897 22.9841 13.3622C23.3174 11.1594 23.6221 8.95296 23.9397 6.74832C24.2028 4.92405 24.4751 3.10071 24.7262 1.27459C24.7604 1.02347 24.8361 0.938537 25.0955 0.939461C28.68 0.950539 32.2646 0.955155 35.8491 0.953309C36.0928 0.953309 36.2129 0.981005 36.163 1.28197C35.9193 2.73604 35.6848 4.19194 35.4761 5.65155C35.4327 5.95251 35.3312 6.02083 35.0478 6.02083C33.5706 6.00883 32.0935 6.01437 30.6163 6.02083C30.4769 6.02083 30.26 5.92851 30.2083 6.11315C30.123 6.42373 30.0774 6.74387 30.0726 7.06591C30.0726 7.15823 30.2904 7.11853 30.4077 7.11853C31.7611 7.12315 33.1155 7.13423 34.4698 7.11853C34.8391 7.11853 35.0016 7.14161 34.9241 7.60599C34.7191 8.83294 34.5788 10.071 34.432 11.3062C34.3987 11.5832 34.2861 11.6543 34.0193 11.6524C32.6659 11.6432 31.3115 11.67 29.9572 11.6469C29.5408 11.6395 29.3571 11.7254 29.3303 12.1805C29.2934 12.7945 29.2537 12.7926 29.8658 12.7926C31.2811 12.7926 32.6963 12.8046 34.1125 12.7843C34.4698 12.7797 34.5686 12.8674 34.5003 13.2237C34.3784 13.8534 34.3951 13.8562 33.747 13.8562L28.6674 13.8571Z" fill="#D52084"/>
<path id="Vector_4" d="M15.6158 5.8457H11.5269C10.8493 5.8457 10.8585 5.8457 10.9517 5.18837C11.1244 3.96788 11.2952 2.75385 11.4438 1.53429C11.4927 1.13453 11.5758 0.93789 12.0707 0.940659C15.7469 0.961893 19.4231 0.947122 23.0994 0.927734C23.4539 0.927734 23.5268 0.996052 23.4594 1.35518C23.1899 2.77324 22.9517 4.19684 22.7209 5.62136C22.6821 5.85585 22.5482 6.00818 22.4107 6.17528L16.9757 12.6378C16.9185 12.7061 16.8686 12.7809 16.8132 12.8547C16.9369 12.996 17.0846 12.9314 17.2102 12.9323C18.6412 12.9378 20.0722 12.9323 21.5022 12.9406C21.6342 12.9406 21.9287 12.8427 21.8364 13.1252C21.757 13.3727 22.0044 13.7964 21.5105 13.8564C21.4029 13.8629 21.295 13.8629 21.1874 13.8564C17.6343 13.8564 14.0808 13.854 10.527 13.849C10.287 13.849 9.89465 14.0014 9.83002 13.7456C9.79007 13.5809 9.78758 13.4093 9.82273 13.2434C9.85788 13.0776 9.92978 12.9217 10.0331 12.7873C10.516 12.1891 11.0062 11.5964 11.4946 11.0028C12.8129 9.39884 14.1307 7.7946 15.4478 6.19006C15.5161 6.10143 15.6306 6.02757 15.6158 5.8457Z" fill="#D52084"/>
<path id="Vector_5" d="M128.923 14.4102H0.503825C0.365343 14.4102 0.226861 14.4102 0.0883789 14.4166V15.2475C0.242556 15.2475 0.395809 15.2429 0.549986 15.2429H128.877C129.031 15.2429 129.184 15.2429 129.338 15.2475V14.4166C129.2 14.4148 129.061 14.4102 128.923 14.4102Z" fill="#03A1DC"/>
<path id="Vector_6" d="M108.739 16.8849C108.709 16.5895 108.587 16.5156 108.298 16.5156C106.146 16.5738 103.993 16.6144 101.841 16.6606V16.6726C99.6893 16.7215 97.5373 16.7769 95.3844 16.8129C95.0935 16.8175 94.9588 16.9052 94.86 17.1822C94.3642 18.6021 93.8444 20.0137 93.3247 21.4244C93.2259 21.6912 93.224 21.7936 93.5647 21.7936C95.3945 21.777 97.2246 21.777 99.0551 21.7936C99.356 21.7936 99.4474 21.669 99.5167 21.4244C99.7188 20.7319 99.9506 20.0478 100.148 19.3545C100.217 19.1126 100.312 18.9972 100.586 19.0065C101.201 19.0277 101.816 19.024 102.432 19.0065C102.696 18.9991 102.776 19.0877 102.766 19.348C102.741 20.0238 102.759 20.7015 102.726 21.3791C102.709 21.7096 102.818 21.7918 103.138 21.789C105.013 21.7733 106.89 21.7659 108.769 21.789C109.176 21.789 109.257 21.6662 109.213 21.2914C109.041 19.8198 108.886 18.3528 108.739 16.8849Z" fill="#009FDB"/>
<path id="Vector_7" d="M92.6776 16.8938C90.6197 16.9557 88.561 16.9862 86.5031 17.036C85.1977 17.0656 83.8923 17.1062 82.5868 17.1283C82.284 17.1283 82.1723 17.2207 82.1336 17.5401C81.9803 18.7892 81.7993 20.0328 81.6101 21.2782C81.5538 21.6475 81.6249 21.785 82.0385 21.7795C83.7002 21.7564 85.3565 21.7693 87.0164 21.7693V21.7232C88.6911 21.7232 90.3659 21.7232 92.0406 21.7232C92.2631 21.7232 92.4532 21.7453 92.4939 21.4259C92.6683 20.0558 92.8548 18.6876 93.0626 17.3222C93.1161 16.964 93.0367 16.8809 92.6776 16.8938Z" fill="#009FDB"/>
<path id="Vector_8" d="M57.7035 21.7097C59.7964 21.2666 61.3843 20.2252 62.0546 18.0704C62.1626 17.7242 62.1386 17.6245 61.7462 17.6356C58.1057 17.7371 54.4649 17.8264 50.8237 17.9033C50.5467 17.9089 50.46 18.0215 50.3879 18.256C50.1433 19.0472 49.9088 19.8439 49.6087 20.6139C49.4416 21.0432 49.5894 21.1595 49.966 21.273C51.5904 21.762 53.279 22.0045 54.9754 21.9922C55.8924 21.9998 56.8075 21.905 57.7035 21.7097Z" fill="#009FDB"/>
<path id="Vector_9" d="M46.023 18.0218C42.7336 18.0947 39.4451 18.1889 36.1557 18.2554C35.7467 18.2637 35.7448 18.3966 35.8695 18.7068C36.4853 20.2357 37.6716 21.1072 39.182 21.614C40.4514 22.0369 41.767 21.9409 43.0687 21.9132C44.6474 21.8808 46.0304 21.2872 47.2379 20.2865C47.9894 19.6633 48.5969 18.9229 48.9736 18.0181C47.958 18.0181 46.9877 18.0015 46.023 18.0218Z" fill="#009FDB"/>
<path id="Vector_10" d="M119.418 16.2461C117.576 16.2904 115.734 16.3295 113.891 16.3633C113.689 16.3633 113.594 16.4243 113.561 16.6403C113.319 18.2015 113.078 19.7626 112.805 21.3182C112.734 21.7244 112.877 21.7725 113.223 21.7651C114.098 21.7457 114.977 21.7586 115.848 21.7586C116.771 21.7586 117.695 21.7521 118.612 21.7586C118.869 21.7586 118.982 21.7032 119.019 21.4142C119.228 19.7863 119.455 18.1608 119.699 16.5378C119.742 16.2646 119.645 16.2461 119.418 16.2461Z" fill="#009FDB"/>
<path id="Vector_11" d="M77.6929 17.2632C74.6204 17.3296 71.5489 17.4035 68.4774 17.4635C68.1921 17.469 68.0508 17.5087 68.0111 17.8476C67.8717 19.0357 67.6954 20.2202 67.5098 21.4029C67.4618 21.7075 67.5514 21.7675 67.8357 21.7666C69.572 21.7666 71.3082 21.7746 73.0445 21.7906C73.2855 21.7906 73.3898 21.7398 73.4221 21.4767C73.5504 20.4409 73.7212 19.4115 73.8412 18.3747C73.8763 18.0682 73.988 18.0054 74.2705 18.0054C75.1457 18.0128 76.0246 18.0562 76.8934 17.9214C77.6144 17.8097 78.3244 17.662 79.0279 17.2604C78.521 17.2632 78.1065 17.2558 77.6929 17.2632Z" fill="#009FDB"/>
<path id="Vector_12" d="M36.1002 13.8714C38.1922 13.8511 40.2851 13.8612 42.378 13.8612C44.471 13.8612 46.563 13.852 48.6559 13.8704C49.0003 13.8704 49.1683 13.7707 49.2098 13.4384C49.2283 13.3017 49.2791 13.1706 49.3021 13.034C49.4714 11.8474 49.6385 10.6607 49.8035 9.4741C50.1838 6.75 50.5648 4.02621 50.9464 1.30273C50.9815 1.05161 50.9316 0.945443 50.6463 0.947289C48.8461 0.959599 47.0458 0.961753 45.2455 0.953752C44.9963 0.953752 44.8984 1.03038 44.8643 1.28519C44.495 3.99759 44.1217 6.70784 43.7444 9.41593C43.6022 10.4315 43.4674 11.4562 43.2939 12.4708C43.2108 12.9611 42.8406 13.1993 42.3965 13.1236C42.0134 13.058 41.8426 12.7986 41.9017 12.2825C41.994 11.4581 42.1177 10.6373 42.2303 9.81569C42.6172 6.99988 43.0003 4.18408 43.4 1.3692C43.4471 1.03776 43.3723 0.950982 43.0381 0.953752C41.3764 0.9676 39.7146 0.953752 38.0528 0.953752C37.2874 0.953752 37.305 0.953752 37.1988 1.73294C36.8184 4.53398 36.4215 7.33316 36.0383 10.1342C35.8906 11.2144 35.7678 12.2982 35.6266 13.3793C35.5786 13.755 35.706 13.8751 36.1002 13.8714Z" fill="#D52084"/>
<path id="Vector_13" d="M68.4294 13.8638C69.9213 13.8491 71.4132 13.8574 72.9042 13.8574C74.35 13.8574 75.7964 13.8574 77.2433 13.8574C77.3979 13.8651 77.5528 13.8546 77.7049 13.826C79.4092 13.4115 80.6592 12.4495 81.3581 10.8089C81.6794 10.0519 81.8299 9.25516 81.936 8.44643C82.1078 7.13823 82.3432 5.83927 82.1798 4.50338C81.9757 2.84159 81.0442 1.69127 79.4323 1.23243C78.7184 1.0427 77.9819 0.95138 77.2433 0.961007C74.9981 0.949005 72.7528 0.949005 70.5039 0.945312C69.7958 0.945312 69.805 0.945312 69.7099 1.63403C69.1677 5.57308 68.6202 9.51213 68.0675 13.4512C68.0158 13.7965 68.1035 13.8675 68.4294 13.8638ZM74.5919 9.08437C74.7322 8.0993 74.8799 7.11608 75.0258 6.13008C75.0415 6.02484 75.0562 5.93898 75.1984 5.90297C75.8881 5.72572 76.3986 6.1227 76.3663 6.96282C76.3035 7.40966 76.238 7.98851 76.1364 8.55998C76.0395 9.10468 75.2769 9.51736 74.7202 9.36872C74.5356 9.32348 74.5789 9.19331 74.5919 9.08437Z" fill="#D52084"/>
<path id="Vector_14" d="M95.0872 13.8643C97.3167 13.8486 99.5472 13.8569 101.777 13.8569C103.992 13.8569 106.208 13.8514 108.424 13.8634C108.749 13.8634 108.823 13.7997 108.784 13.4562C108.332 9.42549 107.896 5.39412 107.474 1.36213C107.442 1.05009 107.359 0.951304 107.039 0.95315C104.594 0.966075 102.149 0.966075 99.7032 0.95315C99.406 0.95315 99.2758 1.04547 99.177 1.32244C97.7232 5.36611 96.2603 9.40671 94.788 13.4442C94.6551 13.808 94.7179 13.8671 95.0872 13.8643ZM101.909 9.57043L102.895 6.28379C102.895 7.61599 102.895 8.8254 102.895 10.0357C102.895 10.2859 102.811 10.3773 102.548 10.3847C101.657 10.4115 101.658 10.4226 101.913 9.57043H101.909Z" fill="#D52084"/>
<path id="Vector_15" d="M56.1884 12.8486C55.8901 12.9738 55.5693 13.0367 55.2458 13.0333C54.0923 13.0583 52.9393 12.9595 51.8068 12.7388C50.9519 12.568 50.9759 12.568 50.6796 13.3795C50.5171 13.8245 50.6593 13.8725 51.0637 13.8679C52.8178 13.8485 54.5719 13.8595 56.326 13.8595C58.141 13.8595 59.9561 13.854 61.7729 13.866C62.0499 13.866 62.1764 13.794 62.2428 13.5097C62.46 12.5326 62.5187 11.527 62.4164 10.5314C62.3241 9.49921 61.8625 8.68493 60.99 8.131C60.2124 7.63143 59.3441 7.28952 58.4346 7.1247C58.1179 7.06654 57.7976 7.02038 57.5003 6.88559C57.2732 6.78311 57.131 6.62062 57.1245 6.35566C57.1245 6.0787 57.3092 5.94575 57.5317 5.85713C57.8373 5.73619 58.1604 5.72972 58.4854 5.72511C59.5849 5.71034 60.6522 5.95776 61.7286 6.12394C61.9936 6.16456 62.0979 6.11193 62.1764 5.84143C62.5586 4.46677 62.9546 3.09487 63.3719 1.72944C63.4643 1.41924 63.3719 1.31768 63.095 1.25398C62.4653 1.10627 61.8468 0.921623 61.2144 0.799758C59.2959 0.439705 57.3812 0.409239 55.5394 1.14412C52.6894 2.28152 51.3425 4.5517 51.0729 7.48475C50.8929 9.44197 51.9296 10.7982 53.8185 11.3881C54.3457 11.5524 54.883 11.6845 55.4129 11.8396C55.7074 11.9254 56.0075 12.0094 56.2577 12.1968C56.5826 12.4406 56.5586 12.6824 56.1884 12.8486Z" fill="#D52084"/>
<path id="Vector_16" d="M113.044 10.0688C113.29 11.2413 113.782 12.3971 113.426 13.6389C113.347 13.9158 113.56 13.8549 113.696 13.8549C115.525 13.8549 117.354 13.8549 119.184 13.8632C119.468 13.8632 119.539 13.7635 119.57 13.4985C119.636 12.9068 119.732 12.3316 120.02 11.7786C121.799 8.34423 123.546 4.89233 125.315 1.45151C125.487 1.11823 125.52 0.989903 125.062 0.989903C123.356 0.996673 121.65 0.982517 119.944 0.947435C119.581 0.940049 119.403 1.03976 119.282 1.39427C118.841 2.70247 118.364 3.99866 117.897 5.29854C117.848 5.43333 117.848 5.6032 117.644 5.69183C117.474 4.22115 117.301 2.7874 117.151 1.35273C117.118 1.03422 116.995 0.949281 116.689 0.951128C114.968 0.964053 113.245 0.974208 111.519 0.945588C111.078 0.938203 111.067 1.07853 111.15 1.43582C111.797 4.3107 112.437 7.18559 113.044 10.0688Z" fill="#D52084"/>
<path id="Vector_17" d="M82.4926 13.8666C84.1682 13.8555 85.8448 13.8611 87.5204 13.8611C89.2271 13.8611 90.9338 13.8611 92.6405 13.8611C92.9951 13.8611 93.1188 13.6275 93.0948 13.0523C93.0809 12.7126 92.8178 12.8732 92.6849 12.8677C91.3166 12.8535 89.9481 12.8535 88.5793 12.8677C88.2959 12.8677 88.1851 12.84 88.235 12.4984C88.763 8.81569 89.2625 5.13391 89.7897 1.4549C89.8478 1.04961 89.7897 0.929589 89.3502 0.937898C87.6746 0.967441 85.998 0.964672 84.3224 0.9499C83.9725 0.9499 83.8608 1.04222 83.8118 1.40043C83.6032 3.07606 83.3558 4.74708 83.125 6.42087C82.8 8.77876 82.4852 11.1376 82.1464 13.4936C82.0984 13.8269 82.2045 13.8684 82.4926 13.8666Z" fill="#D52084"/>
</g>
</g>
</g>
<defs>
<clipPath id="clip0_461_642">
<rect width="129.25" height="22" fill="white" transform="translate(0.0883789 0.273438)"/>
</clipPath>
</defs>
</svg>
